<svg width="52" height="47" viewBox="0 0 52 47" fill="none" xmlns="http://www.w3.org/2000/svg">
<path d="M3.51515 35.3651L2.70596 35.905L3.51515 35.3651C2.50762 33.8551 2.13688 32.0076 2.48498 30.2293L5.49353 14.8601C5.84163 13.0818 6.87995 11.5189 8.37959 10.515C9.87917 9.5111 11.7172 9.14842 13.4893 9.5062L44.1446 15.6953C45.9167 16.0531 47.4783 17.1022 48.4858 18.6122C49.4934 20.1223 49.8641 21.9697 49.516 23.748L46.5074 39.1172C46.1593 40.8955 45.121 42.4585 43.6214 43.4624C42.1218 44.4662 40.2838 44.8289 38.5117 44.4711L7.85641 38.282C6.08429 37.9242 4.52263 36.8752 3.51515 35.3651Z" fill="white" stroke="black" stroke-width="2"/>
<ellipse cx="5.34426" cy="8.734" rx="5.34426" ry="8.734" transform="matrix(0.980222 0.197902 -0.192105 0.981374 27.9121 18.7715)" fill="black" stroke="black" stroke-width="2"/>
<ellipse cx="5.34426" cy="8.734" rx="5.34426" ry="8.734" transform="matrix(0.980222 0.197902 -0.192105 0.981374 16.8535 16.5386)" fill="black" stroke="black" stroke-width="2"/>
<ellipse cx="5.34426" cy="8.734" rx="5.34426" ry="8.734" transform="matrix(0.980222 0.197902 -0.192105 0.981374 16.3867 15.8301)" fill="white" stroke="black" stroke-width="2"/>
<ellipse cx="5.34426" cy="8.734" rx="5.34426" ry="8.734" transform="matrix(0.980222 0.197902 -0.192105 0.981374 26.8633 17.9458)" fill="white" stroke="black" stroke-width="2"/>
<rect width="1.2455" height="1.43013" transform="matrix(0.964073 0.27681 -0.136297 0.992452 17.1133 27.2046)" fill="black"/>
<rect width="1.2455" height="1.43013" transform="matrix(0.964073 0.27681 -0.136297 0.992452 17.3457 25.7329)" fill="black"/>
<rect width="1.2455" height="1.43013" transform="matrix(0.964073 0.27681 -0.136297 0.992452 16.1816 25.4409)" fill="black"/>
<rect width="1.2455" height="1.43013" transform="matrix(0.964073 0.27681 -0.136297 0.992452 18.5098 26.0259)" fill="black"/>
<rect width="1.2455" height="1.43013" transform="matrix(0.964073 0.27681 -0.136297 0.992452 17.5762 24.2617)" fill="black"/>
<rect width="1.2455" height="1.43013" transform="matrix(0.964073 0.27681 -0.136297 0.992452 17.8066 22.7905)" fill="black"/>
<rect width="1.2455" height="1.43013" transform="matrix(0.964073 0.27681 -0.136297 0.992452 18.7422 24.5542)" fill="black"/>
<rect width="1.2455" height="1.43013" transform="matrix(0.964073 0.27681 -0.136297 0.992452 16.4121 23.9688)" fill="black"/>
<rect width="1.23376" height="1.15827" transform="matrix(0.972644 0.224789 -0.168579 0.984444 27.7656 28.583)" fill="black"/>
<rect width="1.23376" height="1.15827" transform="matrix(0.972644 0.224789 -0.168579 0.984444 27.998 27.4004)" fill="black"/>
<rect width="1.23376" height="1.15827" transform="matrix(0.972644 0.224789 -0.168579 0.984444 26.834 27.1655)" fill="black"/>
<rect width="1.23376" height="1.15827" transform="matrix(0.972644 0.224789 -0.168579 0.984444 29.1621 27.6357)" fill="black"/>
<rect width="1.23376" height="1.15827" transform="matrix(0.972644 0.224789 -0.168579 0.984444 28.2305 26.2188)" fill="black"/>
<rect width="1.23376" height="1.15827" transform="matrix(0.972644 0.224789 -0.168579 0.984444 28.4609 25.0361)" fill="black"/>
<rect width="1.23376" height="1.15827" transform="matrix(0.972644 0.224789 -0.168579 0.984444 29.3926 26.4536)" fill="black"/>
<rect width="1.23376" height="1.15827" transform="matrix(0.972644 0.224789 -0.168579 0.984444 27.0645 25.9834)" fill="black"/>
<path d="M39.5544 11.8212C39.5433 11.8593 39.5277 11.8834 39.5156 11.8973L16.1205 0.881608C16.1185 0.877775 16.116 0.872229 16.1132 0.864539C16.1001 0.82783 16.0938 0.769366 16.1121 0.706568C16.1234 0.668016 16.1389 0.644203 16.1509 0.630582L39.5459 11.6462C39.5479 11.6501 39.5504 11.6556 39.5531 11.6633C39.5663 11.7 39.5726 11.7584 39.5544 11.8212ZM16.125 0.888811C16.125 0.888857 16.1245 0.888375 16.1238 0.887227C16.1247 0.888191 16.1251 0.888765 16.125 0.888811ZM39.5413 11.639C39.5413 11.639 39.5418 11.6394 39.5426 11.6406C39.5417 11.6396 39.5413 11.6391 39.5413 11.639Z" fill="#757D8C" stroke="white"/>
<path d="M44.664 16.093L44.5874 16.5799L37.4084 14.7762L37.485 14.2893C37.8809 11.7724 39.8581 10.3009 41.7682 10.7808C42.7301 11.0225 43.5475 11.7151 44.0811 12.6729L44.5015 12.4468L44.0811 12.6729C44.6155 13.632 44.8594 14.8509 44.664 16.093Z" fill="white" stroke="black"/>
</svg>
