<svg width="101" height="24" viewBox="0 0 101 24" fill="none" xmlns="http://www.w3.org/2000/svg">
<path d="M0 0.714286H1.92857V2.64286H0V0.714286ZM1.92857 0.714286H3.85714V2.64286H1.92857V0.714286ZM1.92857 2.64286H3.85714V4.57143H1.92857V2.64286ZM1.92857 4.57143H3.85714V6.5H1.92857V4.57143ZM1.92857 6.5H3.85714V8.42857H1.92857V6.5ZM0 6.5H1.92857V8.42857H0V6.5ZM0 4.57143H1.92857V6.5H0V4.57143ZM0 2.64286H1.92857V4.57143H0V2.64286ZM0 8.42857H1.92857V10.3571H0V8.42857ZM0 10.3571H1.92857V12.2857H0V10.3571ZM0 12.2857H1.92857V14.2143H0V12.2857ZM1.92857 10.3571H3.85714V12.2857H1.92857V10.3571ZM1.92857 8.42857H3.85714V10.3571H1.92857V8.42857ZM1.92857 12.2857H3.85714V14.2143H1.92857V12.2857ZM1.92857 14.2143H3.85714V16.1429H1.92857V14.2143ZM0 16.1429H1.92857V18.0714H0V16.1429ZM0 14.2143H1.92857V16.1429H0V14.2143ZM0 18.0714H1.92857V20H0V18.0714ZM1.92857 18.0714H3.85714V20H1.92857V18.0714ZM1.92857 16.1429H3.85714V18.0714H1.92857V16.1429ZM3.85714 18.0714H5.78571V20H3.85714V18.0714ZM5.78571 18.0714H7.71429V20H5.78571V18.0714ZM7.71429 18.0714H9.64286V20H7.71429V18.0714ZM7.71429 16.1429H9.64286V18.0714H7.71429V16.1429ZM5.78571 16.1429H7.71429V18.0714H5.78571V16.1429ZM3.85714 16.1429H5.78571V18.0714H3.85714V16.1429ZM3.85714 0.714286H5.78571V2.64286H3.85714V0.714286ZM5.78571 0.714286H7.71429V2.64286H5.78571V0.714286ZM7.71429 0.714286H9.64286V2.64286H7.71429V0.714286ZM9.64286 0.714286H11.5714V2.64286H9.64286V0.714286ZM7.71429 2.64286H9.64286V4.57143H7.71429V2.64286ZM5.78571 2.64286H7.71429V4.57143H5.78571V2.64286ZM3.85714 2.64286H5.78571V4.57143H3.85714V2.64286ZM3.85714 10.3571H5.78571V12.2857H3.85714V10.3571ZM5.78571 8.42857H7.71429V10.3571H5.78571V8.42857ZM3.85714 8.42857H5.78571V10.3571H3.85714V8.42857ZM5.78571 10.3571H7.71429V12.2857H5.78571V10.3571ZM9.64286 2.64286H11.5714V4.57143H9.64286V2.64286ZM9.64286 16.1429H11.5714V18.0714H9.64286V16.1429ZM9.64286 18.0714H11.5714V20H9.64286V18.0714ZM7.71429 8.42857H9.64286V10.3571H7.71429V8.42857ZM7.71429 10.3571H9.64286V12.2857H7.71429V10.3571ZM25.0714 20H23.1429V18.0714H25.0714V20ZM25.0714 18.0714H23.1429V16.1429H25.0714V18.0714ZM23.1429 18.0714H21.2143V16.1429H23.1429V18.0714ZM21.2143 20H19.2857V18.0714H21.2143V20ZM19.2857 20H17.3571V18.0714H19.2857V20ZM17.3571 20H15.4286V18.0714H17.3571V20ZM17.3571 18.0714H15.4286V16.1429H17.3571V18.0714ZM19.2857 18.0714H17.3571V16.1429H19.2857V18.0714ZM15.4286 18.0714H13.5V16.1429H15.4286V18.0714ZM15.4286 16.1429H13.5V14.2143H15.4286V16.1429ZM15.4286 8.42857H13.5V6.5H15.4286V8.42857ZM17.3571 8.42857H15.4286V6.5H17.3571V8.42857ZM17.3571 16.1429H15.4286V14.2143H17.3571V16.1429ZM19.2857 8.42857H17.3571V6.5H19.2857V8.42857ZM17.3571 6.5H15.4286V4.57143H17.3571V6.5ZM19.2857 6.5H17.3571V4.57143H19.2857V6.5ZM21.2143 6.5H19.2857V4.57143H21.2143V6.5ZM23.1429 6.5H21.2143V4.57143H23.1429V6.5ZM25.0714 6.5H23.1429V4.57143H25.0714V6.5ZM25.0714 8.42857H23.1429V6.5H25.0714V8.42857ZM23.1429 8.42857H21.2143V6.5H23.1429V8.42857ZM25.0714 10.3571H23.1429V8.42857H25.0714V10.3571ZM27 8.42857H25.0714V6.5H27V8.42857ZM27 10.3571H25.0714V8.42857H27V10.3571ZM27 12.2857H25.0714V10.3571H27V12.2857ZM27 14.2143H25.0714V12.2857H27V14.2143ZM27 16.1429H25.0714V14.2143H27V16.1429ZM27 18.0714H25.0714V16.1429H27V18.0714ZM25.0714 16.1429H23.1429V14.2143H25.0714V16.1429ZM25.0714 14.2143H23.1429V12.2857H25.0714V14.2143ZM25.0714 12.2857H23.1429V10.3571H25.0714V12.2857ZM21.2143 8.42857H19.2857V6.5H21.2143V8.42857ZM21.2143 18.0714H19.2857V16.1429H21.2143V18.0714ZM25.0714 18.0714H27V20H25.0714V18.0714ZM21.2143 10.3571H23.1429V12.2857H21.2143V10.3571ZM19.2857 10.3571H21.2143V12.2857H19.2857V10.3571ZM17.3571 10.3571H19.2857V12.2857H17.3571V10.3571ZM15.4286 10.3571H17.3571V12.2857H15.4286V10.3571ZM13.5 12.2857H15.4286V14.2143H13.5V12.2857ZM15.4286 12.2857H17.3571V14.2143H15.4286V12.2857ZM21.2143 12.2857H23.1429V14.2143H21.2143V12.2857ZM19.2857 12.2857H21.2143V14.2143H19.2857V12.2857ZM17.3571 12.2857H19.2857V14.2143H17.3571V12.2857ZM28.9336 6.5H30.8622V8.42857H28.9336V6.5ZM30.8622 8.42857H32.7907V10.3571H30.8622V8.42857ZM28.9336 8.42857H30.8622V10.3571H28.9336V8.42857ZM28.9336 10.3571H30.8622V12.2857H28.9336V10.3571ZM30.8622 10.3571H32.7907V12.2857H30.8622V10.3571ZM30.8622 12.2857H32.7907V14.2143H30.8622V12.2857ZM32.7907 12.2857H34.7193V14.2143H32.7907V12.2857ZM34.7193 12.2857H36.6479V14.2143H34.7193V12.2857ZM36.6479 10.3571H38.5765V12.2857H36.6479V10.3571ZM34.7193 10.3571H36.6479V12.2857H34.7193V10.3571ZM32.7907 10.3571H34.7193V12.2857H32.7907V10.3571ZM36.6479 12.2857H38.5765V14.2143H36.6479V12.2857ZM38.5765 12.2857H40.505V14.2143H38.5765V12.2857ZM38.5765 14.2143H40.505V16.1429H38.5765V14.2143ZM36.6479 14.2143H38.5765V16.1429H36.6479V14.2143ZM36.6479 16.1429H38.5765V18.0714H36.6479V16.1429ZM38.5765 16.1429H40.505V18.0714H38.5765V16.1429ZM36.6479 18.0714H38.5765V20H36.6479V18.0714ZM34.7193 16.1429H36.6479V18.0714H34.7193V16.1429ZM32.7907 16.1429H34.7193V18.0714H32.7907V16.1429ZM30.8622 16.1429H32.7907V18.0714H30.8622V16.1429ZM28.9336 16.1429H30.8622V18.0714H28.9336V16.1429ZM30.8622 18.0714H32.7907V20H30.8622V18.0714ZM32.7907 18.0714H34.7193V20H32.7907V18.0714ZM34.7193 18.0714H36.6479V20H34.7193V18.0714ZM38.5765 6.5H40.505V8.42857H38.5765V6.5ZM36.6479 6.5H38.5765V8.42857H36.6479V6.5ZM36.6479 4.57143H38.5765V6.5H36.6479V4.57143ZM34.7193 4.57143H36.6479V6.5H34.7193V4.57143ZM32.7907 4.57143H34.7193V6.5H32.7907V4.57143ZM30.8622 4.57143H32.7907V6.5H30.8622V4.57143ZM30.8622 6.5H32.7907V8.42857H30.8622V6.5ZM32.7907 6.5H34.7193V8.42857H32.7907V6.5ZM34.7193 6.5H36.6479V8.42857H34.7193V6.5ZM42.4336 4.57143H44.3622V6.5H42.4336V4.57143ZM44.3622 4.57143H46.2907V6.5H44.3622V4.57143ZM44.3622 6.5H46.2907V8.42857H44.3622V6.5ZM44.3622 8.42857H46.2907V10.3571H44.3622V8.42857ZM44.3622 10.3571H46.2907V12.2857H44.3622V10.3571ZM42.4336 8.42857H44.3622V10.3571H42.4336V8.42857ZM42.4336 6.5H44.3622V8.42857H42.4336V6.5ZM42.4336 10.3571H44.3622V12.2857H42.4336V10.3571ZM42.4336 12.2857H44.3622V14.2143H42.4336V12.2857ZM44.3622 12.2857H46.2907V14.2143H44.3622V12.2857ZM44.3622 14.2143H46.2907V16.1429H44.3622V14.2143ZM46.2907 14.2143H48.2193V16.1429H46.2907V14.2143ZM46.2907 16.1429H48.2193V18.0714H46.2907V16.1429ZM48.2193 16.1429H50.1479V18.0714H48.2193V16.1429ZM50.1479 16.1429H52.0765V18.0714H50.1479V16.1429ZM50.1479 14.2143H52.0765V16.1429H50.1479V14.2143ZM50.1479 12.2857H52.0765V14.2143H50.1479V12.2857ZM52.0765 12.2857H54.005V14.2143H52.0765V12.2857ZM52.0765 14.2143H54.005V16.1429H52.0765V14.2143ZM52.0765 10.3571H54.005V12.2857H52.0765V10.3571ZM50.1479 10.3571H52.0765V12.2857H50.1479V10.3571ZM50.1479 4.57143H52.0765V6.5H50.1479V4.57143ZM52.0765 4.57143H54.005V6.5H52.0765V4.57143ZM52.0765 6.5H54.005V8.42857H52.0765V6.5ZM52.0765 8.42857H54.005V10.3571H52.0765V8.42857ZM50.1479 6.5H52.0765V8.42857H50.1479V6.5ZM50.1479 8.42857H52.0765V10.3571H50.1479V8.42857ZM48.2193 18.0714H50.1479V20H48.2193V18.0714ZM46.2907 18.0714H48.2193V20H46.2907V18.0714ZM46.2907 20H48.2193V21.9286H46.2907V20ZM44.3622 20H46.2907V21.9286H44.3622V20ZM44.3622 18.0714H46.2907V20H44.3622V18.0714ZM44.3622 21.9286H46.2907V23.8571H44.3622V21.9286ZM42.4336 21.9286H44.3622V23.8571H42.4336V21.9286ZM42.4336 20H44.3622V21.9286H42.4336V20ZM48.2193 14.2143H50.1479V16.1429H48.2193V14.2143ZM46.2907 12.2857H48.2193V14.2143H46.2907V12.2857ZM55.9336 0.714286H57.8622V2.64286H55.9336V0.714286ZM57.8622 0.714286H59.7907V2.64286H57.8622V0.714286ZM59.7907 0.714286H61.7193V2.64286H59.7907V0.714286ZM61.7193 0.714286H63.6479V2.64286H61.7193V0.714286ZM63.6479 0.714286H65.5765V2.64286H63.6479V0.714286ZM65.5765 0.714286H67.505V2.64286H65.5765V0.714286ZM65.5765 2.64286H67.505V4.57143H65.5765V2.64286ZM63.6479 2.64286H65.5765V4.57143H63.6479V2.64286ZM61.7193 2.64286H63.6479V4.57143H61.7193V2.64286ZM59.7907 2.64286H61.7193V4.57143H59.7907V2.64286ZM57.8622 2.64286H59.7907V4.57143H57.8622V2.64286ZM55.9336 2.64286H57.8622V4.57143H55.9336V2.64286ZM67.505 2.64286H69.4336V4.57143H67.505V2.64286ZM67.505 4.57143H69.4336V6.5H67.505V4.57143ZM67.505 6.5H69.4336V8.42857H67.505V6.5ZM65.5765 6.5H67.505V8.42857H65.5765V6.5ZM65.5765 4.57143H67.505V6.5H65.5765V4.57143ZM65.5765 8.42857H67.505V10.3571H65.5765V8.42857ZM63.6479 8.42857H65.5765V10.3571H63.6479V8.42857ZM61.7193 8.42857H63.6479V10.3571H61.7193V8.42857ZM59.7907 8.42857H61.7193V10.3571H59.7907V8.42857ZM57.8622 8.42857H59.7907V10.3571H57.8622V8.42857ZM57.8622 6.5H59.7907V8.42857H57.8622V6.5ZM57.8622 4.57143H59.7907V6.5H57.8622V4.57143ZM55.9336 4.57143H57.8622V6.5H55.9336V4.57143ZM55.9336 6.5H57.8622V8.42857H55.9336V6.5ZM55.9336 8.42857H57.8622V10.3571H55.9336V8.42857ZM55.9336 10.3571H57.8622V12.2857H55.9336V10.3571ZM57.8622 10.3571H59.7907V12.2857H57.8622V10.3571ZM59.7907 10.3571H61.7193V12.2857H59.7907V10.3571ZM61.7193 10.3571H63.6479V12.2857H61.7193V10.3571ZM63.6479 10.3571H65.5765V12.2857H63.6479V10.3571ZM65.5765 10.3571H67.505V12.2857H65.5765V10.3571ZM67.505 10.3571H69.4336V12.2857H67.505V10.3571ZM67.505 12.2857H69.4336V14.2143H67.505V12.2857ZM65.5765 12.2857H67.505V14.2143H65.5765V12.2857ZM65.5765 16.1429H67.505V18.0714H65.5765V16.1429ZM67.505 16.1429H69.4336V18.0714H67.505V16.1429ZM67.505 14.2143H69.4336V16.1429H67.505V14.2143ZM65.5765 14.2143H67.505V16.1429H65.5765V14.2143ZM65.5765 18.0714H67.505V20H65.5765V18.0714ZM63.6479 18.0714H65.5765V20H63.6479V18.0714ZM61.7193 18.0714H63.6479V20H61.7193V18.0714ZM59.7907 18.0714H61.7193V20H59.7907V18.0714ZM57.8622 18.0714H59.7907V20H57.8622V18.0714ZM55.9336 18.0714H57.8622V20H55.9336V18.0714ZM55.9336 16.1429H57.8622V18.0714H55.9336V16.1429ZM55.9336 14.2143H57.8622V16.1429H55.9336V14.2143ZM55.9336 12.2857H57.8622V14.2143H55.9336V12.2857ZM57.8622 12.2857H59.7907V14.2143H57.8622V12.2857ZM57.8622 14.2143H59.7907V16.1429H57.8622V14.2143ZM57.8622 16.1429H59.7907V18.0714H57.8622V16.1429ZM59.7907 16.1429H61.7193V18.0714H59.7907V16.1429ZM61.7193 16.1429H63.6479V18.0714H61.7193V16.1429ZM63.6479 16.1429H65.5765V18.0714H63.6479V16.1429ZM71.3672 0.714286H75.2243V4.57143H71.3672V0.714286ZM71.3672 6.5H75.2243V20H71.3672V6.5ZM84.8823 16.1429H86.8108V18.0714H84.8823V16.1429ZM84.8823 18.0714H86.8108V20H84.8823V18.0714ZM82.9537 18.0714H84.8823V20H82.9537V18.0714ZM82.9537 16.1429H84.8823V18.0714H82.9537V16.1429ZM81.0251 18.0714H82.9537V20H81.0251V18.0714ZM81.0251 16.1429H82.9537V18.0714H81.0251V16.1429ZM79.0965 16.1429H81.0251V18.0714H79.0965V16.1429ZM79.0965 14.2143H81.0251V16.1429H79.0965V14.2143ZM79.0965 12.2857H81.0251V14.2143H79.0965V12.2857ZM79.0965 10.3571H81.0251V12.2857H79.0965V10.3571ZM79.0965 8.42857H81.0251V10.3571H79.0965V8.42857ZM79.0965 6.5H81.0251V8.42857H79.0965V6.5ZM81.0251 12.2857H82.9537V14.2143H81.0251V12.2857ZM81.0251 14.2143H82.9537V16.1429H81.0251V14.2143ZM81.0251 10.3571H82.9537V12.2857H81.0251V10.3571ZM81.0251 8.42857H82.9537V10.3571H81.0251V8.42857ZM81.0251 0.714286H82.9537V2.64286H81.0251V0.714286ZM81.0251 2.64286H82.9537V4.57143H81.0251V2.64286ZM81.0251 4.57143H82.9537V6.5H81.0251V4.57143ZM81.0251 6.5H82.9537V8.42857H81.0251V6.5ZM79.0965 4.57143H81.0251V6.5H79.0965V4.57143ZM77.168 6.5H79.0965V8.42857H77.168V6.5ZM82.9537 6.5H84.8823V8.42857H82.9537V6.5ZM84.8823 6.5H86.8108V8.42857H84.8823V6.5ZM79.0965 2.64286H81.0251V4.57143H79.0965V2.64286ZM77.168 8.42857H79.0965V10.3571H77.168V8.42857ZM82.9537 8.42857H84.8823V10.3571H82.9537V8.42857ZM84.8823 8.42857H86.8108V10.3571H84.8823V8.42857ZM88.7344 6.5H90.6629V8.42857H88.7344V6.5ZM90.6629 8.42857H92.5915V10.3571H90.6629V8.42857ZM88.7344 8.42857H90.6629V10.3571H88.7344V8.42857ZM88.7344 10.3571H90.6629V12.2857H88.7344V10.3571ZM90.6629 10.3571H92.5915V12.2857H90.6629V10.3571ZM90.6629 12.2857H92.5915V14.2143H90.6629V12.2857ZM92.5915 12.2857H94.5201V14.2143H92.5915V12.2857ZM94.5201 12.2857H96.4487V14.2143H94.5201V12.2857ZM96.4487 10.3571H98.3772V12.2857H96.4487V10.3571ZM94.5201 10.3571H96.4487V12.2857H94.5201V10.3571ZM92.5915 10.3571H94.5201V12.2857H92.5915V10.3571ZM96.4487 12.2857H98.3772V14.2143H96.4487V12.2857ZM98.3772 12.2857H100.306V14.2143H98.3772V12.2857ZM98.3772 14.2143H100.306V16.1429H98.3772V14.2143ZM96.4487 14.2143H98.3772V16.1429H96.4487V14.2143ZM96.4487 16.1429H98.3772V18.0714H96.4487V16.1429ZM98.3772 16.1429H100.306V18.0714H98.3772V16.1429ZM96.4487 18.0714H98.3772V20H96.4487V18.0714ZM94.5201 16.1429H96.4487V18.0714H94.5201V16.1429ZM92.5915 16.1429H94.5201V18.0714H92.5915V16.1429ZM90.6629 16.1429H92.5915V18.0714H90.6629V16.1429ZM88.7344 16.1429H90.6629V18.0714H88.7344V16.1429ZM90.6629 18.0714H92.5915V20H90.6629V18.0714ZM92.5915 18.0714H94.5201V20H92.5915V18.0714ZM94.5201 18.0714H96.4487V20H94.5201V18.0714ZM98.3772 6.5H100.306V8.42857H98.3772V6.5ZM96.4487 6.5H98.3772V8.42857H96.4487V6.5ZM96.4487 4.57143H98.3772V6.5H96.4487V4.57143ZM94.5201 4.57143H96.4487V6.5H94.5201V4.57143ZM92.5915 4.57143H94.5201V6.5H92.5915V4.57143ZM90.6629 4.57143H92.5915V6.5H90.6629V4.57143ZM90.6629 6.5H92.5915V8.42857H90.6629V6.5ZM92.5915 6.5H94.5201V8.42857H92.5915V6.5ZM94.5201 6.5H96.4487V8.42857H94.5201V6.5Z" fill="white"/>
</svg>
