<svg width="53" height="42" viewBox="0 0 53 42" fill="none" xmlns="http://www.w3.org/2000/svg">
<path d="M49.35 13.5655L50.1778 13.0045L49.35 13.5655C50.3764 15.0803 50.7521 16.93 50.3987 18.7077L47.3375 34.106C46.9841 35.8837 45.9295 37.449 44.4018 38.4561C42.8735 39.4635 40.9969 39.8293 39.1849 39.4691L7.99355 33.2683C6.18156 32.908 4.58757 31.8522 3.56081 30.3369C2.5344 28.8221 2.1587 26.9725 2.51212 25.1947L5.57327 9.79646C5.92669 8.01871 6.98128 6.45338 8.50904 5.44634C10.0373 4.43897 11.9139 4.07313 13.7259 4.43335L44.9173 10.6342C46.7292 10.9944 48.3232 12.0502 49.35 13.5655Z" fill="white" stroke="black" stroke-width="2"/>
<ellipse cx="32.0234" cy="23.3659" rx="5.43447" ry="8.75554" transform="rotate(11.2437 32.0234 23.3659)" fill="black" stroke="black" stroke-width="2"/>
<ellipse cx="20.7714" cy="21.1286" rx="5.43447" ry="8.75554" transform="rotate(11.2437 20.7714 21.1286)" fill="black" stroke="black" stroke-width="2"/>
<ellipse cx="20.2968" cy="20.4186" rx="5.43447" ry="8.75554" transform="rotate(11.2437 20.2968 20.4186)" fill="white" stroke="black" stroke-width="2"/>
<ellipse cx="30.957" cy="22.5382" rx="5.43447" ry="8.75554" transform="rotate(11.2437 30.957 22.5382)" fill="white" stroke="black" stroke-width="2"/>
<rect width="1.26611" height="1.43338" transform="matrix(0.96496 0.272817 -0.138366 0.99207 17.416 22.1675)" fill="black"/>
<rect width="1.26611" height="1.43338" transform="matrix(0.96496 0.272817 -0.138366 0.99207 17.6523 20.6929)" fill="black"/>
<rect width="1.26611" height="1.43338" transform="matrix(0.96496 0.272817 -0.138366 0.99207 16.4668 20.4004)" fill="black"/>
<rect width="1.26611" height="1.43338" transform="matrix(0.96496 0.272817 -0.138366 0.99207 18.8359 20.9863)" fill="black"/>
<rect width="1.26611" height="1.43338" transform="matrix(0.96496 0.272817 -0.138366 0.99207 17.8867 19.2192)" fill="black"/>
<rect width="1.26611" height="1.43338" transform="matrix(0.96496 0.272817 -0.138366 0.99207 18.1211 17.7451)" fill="black"/>
<rect width="1.26611" height="1.43338" transform="matrix(0.96496 0.272817 -0.138366 0.99207 19.0723 19.5122)" fill="black"/>
<rect width="1.26611" height="1.43338" transform="matrix(0.96496 0.272817 -0.138366 0.99207 16.7012 18.9258)" fill="black"/>
<rect width="1.25419" height="1.1609" transform="matrix(0.973529 0.221544 -0.171139 0.984068 28.252 23.5483)" fill="black"/>
<rect width="1.25419" height="1.1609" transform="matrix(0.973529 0.221544 -0.171139 0.984068 28.4883 22.3638)" fill="black"/>
<rect width="1.25419" height="1.1609" transform="matrix(0.973529 0.221544 -0.171139 0.984068 27.3047 22.1284)" fill="black"/>
<rect width="1.25419" height="1.1609" transform="matrix(0.973529 0.221544 -0.171139 0.984068 29.6719 22.5996)" fill="black"/>
<rect width="1.25419" height="1.1609" transform="matrix(0.973529 0.221544 -0.171139 0.984068 28.7246 21.1797)" fill="black"/>
<rect width="1.25419" height="1.1609" transform="matrix(0.973529 0.221544 -0.171139 0.984068 28.959 19.9951)" fill="black"/>
<rect width="1.25419" height="1.1609" transform="matrix(0.973529 0.221544 -0.171139 0.984068 29.9082 21.415)" fill="black"/>
<rect width="1.25419" height="1.1609" transform="matrix(0.973529 0.221544 -0.171139 0.984068 27.5391 20.9438)" fill="black"/>
<path d="M40.2548 12.7563C40.2427 12.7974 40.2252 12.8221 40.2123 12.8353L16.3962 1.7933C16.3939 1.78932 16.3908 1.78302 16.3874 1.77363C16.3741 1.73719 16.368 1.67979 16.3862 1.61826C16.3985 1.57673 16.4161 1.55239 16.4287 1.53948L40.2447 12.5814C40.247 12.5854 40.2501 12.5917 40.2535 12.6011C40.2667 12.6375 40.2729 12.6948 40.2548 12.7563ZM16.4002 1.79898C16.4001 1.79902 16.3997 1.79858 16.3989 1.79752C16.3998 1.7984 16.4002 1.79893 16.4002 1.79898ZM40.2407 12.5757C40.2407 12.5757 40.2412 12.5761 40.242 12.5772C40.2411 12.5763 40.2407 12.5758 40.2407 12.5757Z" fill="#757D8C" stroke="white"/>
<path d="M45.4547 17.0371L45.3766 17.5261L38.0559 15.7149L38.134 15.226C38.5358 12.7109 40.5453 11.2281 42.5004 11.7118C43.4844 11.9552 44.3183 12.6524 44.8616 13.6125C45.4056 14.5739 45.6532 15.7943 45.4547 17.0371Z" fill="white" stroke="black"/>
</svg>
