<svg width="32" height="32" viewBox="0 0 32 32" fill="none" xmlns="http://www.w3.org/2000/svg">
<path d="M6.1979 5.19276C5.90282 5.11166 5.59109 5.11356 5.29702 5.19824C5.00295 5.28293 4.73795 5.44712 4.5312 5.67274C4.18577 6.04246 3.99625 6.53115 4.00208 7.0371V21.9127C4.00208 22.4418 4.28176 22.9558 4.61056 23.2393C4.89556 23.4785 5.22782 23.655 5.58564 23.7571L15.1021 26.807C15.3982 26.8868 15.7106 26.8831 16.0047 26.7964C16.2989 26.7097 16.5633 26.5433 16.7688 26.3157C17.1133 25.9469 17.3028 25.4598 17.2979 24.9551V10.0871C17.2923 9.83413 17.235 9.58502 17.1298 9.35497C17.0245 9.12492 16.8734 8.91878 16.6857 8.74915C16.3977 8.5109 16.063 8.33578 15.703 8.23516L6.1979 5.19276Z" fill="white"/>
<path d="M5.62276 5.14014C5.49124 5.14063 5.3611 5.16703 5.23978 5.21782C5.11846 5.26861 5.00833 5.3428 4.91568 5.43615C4.82303 5.5295 4.74967 5.64019 4.6998 5.76189C4.64992 5.88359 4.62451 6.01393 4.62501 6.14545C4.626 6.40977 4.73144 6.66297 4.91834 6.84987C5.10524 7.03677 5.35845 7.14221 5.62276 7.14321H19.323C19.3986 7.14321 19.3381 7.14321 19.3381 7.0525V21.4482C19.3381 21.3537 19.4024 21.3575 19.323 21.3575H16.6397C16.376 21.3594 16.1238 21.4653 15.9377 21.6521C15.7516 21.8389 15.6467 22.0915 15.6457 22.3552C15.6452 22.4867 15.6706 22.6171 15.7205 22.7388C15.7703 22.8605 15.8437 22.9712 15.9363 23.0645C16.029 23.1579 16.1391 23.232 16.2604 23.2828C16.3818 23.3336 16.5119 23.36 16.6434 23.3605H19.323C20.3661 23.3605 21.3374 22.548 21.3374 21.4482V7.0525C21.3374 5.9527 20.3661 5.14014 19.323 5.14014H5.62276ZM23.0797 9.99286C22.8273 10.0209 22.5949 10.1439 22.4297 10.3368C22.2581 10.5389 22.1738 10.8008 22.195 11.0651C22.2163 11.3293 22.3414 11.5744 22.543 11.7465L25.4645 14.2522L22.5393 16.7542C22.3382 16.9268 22.2137 17.1721 22.1932 17.4364C22.1727 17.7006 22.2577 17.9622 22.4297 18.1639C22.6023 18.3649 22.8476 18.4894 23.1119 18.5099C23.3761 18.5305 23.6377 18.4454 23.8394 18.2735L27.649 15.0119C27.7591 14.9179 27.8474 14.8011 27.9081 14.6696C27.9687 14.5381 28 14.3951 28 14.2503C28 14.1056 27.9687 13.9625 27.9081 13.831C27.8474 13.6996 27.7591 13.5828 27.649 13.4888L23.8394 10.2272C23.7354 10.1383 23.6144 10.0717 23.4838 10.0314C23.3531 9.99112 23.2156 9.978 23.0797 9.99286Z" fill="white"/>
<path d="M18.6362 13.3565C18.504 13.356 18.3731 13.3816 18.2509 13.432C18.1287 13.4823 18.0177 13.5563 17.9242 13.6498C17.8308 13.7432 17.7567 13.8543 17.7064 13.9765C17.656 14.0987 17.6304 14.2296 17.6309 14.3618C17.6314 14.4933 17.6578 14.6234 17.7085 14.7448C17.7593 14.8661 17.8335 14.9762 17.9269 15.0689C18.0202 15.1615 18.1309 15.2349 18.2526 15.2847C18.3743 15.3346 18.5047 15.36 18.6362 15.3595H26.4406C26.7049 15.3585 26.9581 15.2531 27.145 15.0662C27.3319 14.8793 27.4374 14.6261 27.4384 14.3618C27.4389 14.2299 27.4133 14.0993 27.3632 13.9773C27.3131 13.8554 27.2394 13.7445 27.1464 13.6511C27.0533 13.5577 26.9427 13.4836 26.821 13.4331C26.6992 13.3825 26.5687 13.3565 26.4368 13.3565H18.6362Z" fill="white"/>
</svg>
