<svg width="32" height="32" viewBox="0 0 32 32" fill="none" xmlns="http://www.w3.org/2000/svg">
<path d="M28.5596 12.9162C28.519 12.7713 28.4456 12.6377 28.3451 12.5257C28.2445 12.4137 28.1196 12.3263 27.9798 12.2703L21.3936 9.65106C21.3019 9.61411 21.2014 9.60503 21.1046 9.62493C21.0078 9.64484 20.919 9.69285 20.8494 9.76296C19.5321 11.0497 19.0388 14.1674 19.0184 14.2996C19.0014 14.4133 19.0233 14.5294 19.0805 14.6291C19.1377 14.7288 19.227 14.8063 19.3338 14.8489L24.1349 16.7612C24.14 16.7612 27.0081 15.608 27.0135 15.6118L28.402 13.7757C28.4939 13.6549 28.5561 13.5141 28.5835 13.3648C28.6109 13.2155 28.6027 13.0618 28.5596 12.9162ZM14.2834 17.5292C14.1194 17.2195 13.8509 16.978 13.5256 16.8476L10.052 15.4439L11.0793 15.0371C11.2026 14.9857 11.3008 14.8878 11.3526 14.7647C11.4044 14.6416 11.4058 14.5031 11.3564 14.3789C11.307 14.2548 11.2109 14.1551 11.0886 14.1012C10.9664 14.0474 10.8279 14.0437 10.7029 14.0911L8.68384 14.8946L4.78294 13.318C4.58812 13.2425 4.37458 13.2296 4.17209 13.2812C3.9696 13.3328 3.78825 13.4462 3.65333 13.6058C3.51841 13.7654 3.43665 13.963 3.41943 14.1713C3.40221 14.3795 3.45041 14.588 3.55729 14.7675L4.14211 15.7287C4.9818 16.0604 15.3367 20.1853 15.4329 20.2247C15.454 20.2123 15.6312 20.1484 15.6312 20.1484C15.6509 20.1475 14.2859 17.5414 14.2834 17.5292ZM15.9466 26.694C15.9474 27.4163 15.9459 29.3001 15.9466 29.9998L25.0707 26.3634C25.348 26.2535 25.5859 26.0629 25.7537 25.8163C25.9214 25.5697 26.0113 25.2783 26.0116 24.98V22.6812L15.9466 26.694ZM4.85923 17.107V21.5877C5.09655 21.6795 14.3979 25.3926 14.9294 25.6005V21.1249C14.9294 21.1249 4.95942 17.1502 4.85923 17.107ZM4.85924 22.6863V24.98C4.85953 25.2783 4.94936 25.5697 5.11712 25.8163C5.28487 26.0629 5.52281 26.2535 5.80013 26.3634L14.9294 29.9998C14.9293 29.3078 14.9294 27.4166 14.9294 26.6991C14.3741 26.4765 5.11972 22.7937 4.85924 22.6863ZM15.9466 21.1198V25.5954C16.5117 25.3726 25.7412 21.6881 26.0116 21.5877V17.107C25.9219 17.1367 15.9466 21.1198 15.9466 21.1198ZM14.4564 5.29751C15.2299 5.05368 16.0724 4.95428 16.7349 5.52134L17.213 5.90784C17.2424 5.9345 17.28 5.95049 17.3197 5.95326C17.3593 5.95602 17.3988 5.9454 17.4316 5.92308C17.4663 5.90199 17.4934 5.87042 17.5089 5.83294C17.5244 5.79546 17.5277 5.75401 17.5181 5.71458L17.3655 5.11954C17.1332 4.27933 17.5748 3.55069 18.1285 2.95804C18.1527 2.92636 18.1666 2.88794 18.1681 2.84806C18.1697 2.80818 18.1588 2.76881 18.137 2.73535C18.1153 2.7019 18.0837 2.676 18.0466 2.66123C18.0096 2.64645 17.9688 2.64353 17.93 2.65285L17.335 2.80035C16.4862 3.03377 15.7775 2.59485 15.1735 2.04247C15.1423 2.01817 15.1044 2.0041 15.0649 2.00218C15.0254 2.00026 14.9863 2.01058 14.9529 2.03174C14.9195 2.0529 14.8934 2.08386 14.8783 2.12038C14.8632 2.15691 14.8597 2.19722 14.8683 2.23579C15.1226 3.0106 15.2115 3.85337 14.6445 4.51429L14.258 4.99237C14.2335 5.02401 14.2195 5.06246 14.2179 5.10241C14.2163 5.14236 14.2271 5.18182 14.2489 5.21534C14.2707 5.24886 14.3024 5.27478 14.3395 5.2895C14.3767 5.30422 14.4175 5.30702 14.4564 5.29751ZM5.02706 9.2747L5.63737 9.35606C5.93415 9.39547 6.21772 9.50327 6.46572 9.67096C6.71373 9.83866 6.9194 10.0617 7.06652 10.3224L7.3666 10.8564C7.38603 10.8914 7.41597 10.9194 7.45218 10.9364C7.48839 10.9535 7.52904 10.9587 7.56838 10.9514C7.60773 10.9441 7.64379 10.9246 7.67146 10.8957C7.69913 10.8668 7.71702 10.8299 7.7226 10.7903L7.804 10.18C7.896 9.30838 8.57308 8.81344 9.30439 8.45081C9.33894 8.43162 9.36657 8.40203 9.38336 8.36624C9.40014 8.33045 9.40523 8.29029 9.39791 8.25145C9.39058 8.2126 9.37121 8.17706 9.34254 8.14984C9.31387 8.12263 9.27736 8.10514 9.23819 8.09985L8.62788 8.01845C7.75171 7.91982 7.26319 7.24526 6.8987 6.513C6.87835 6.47932 6.84822 6.45264 6.81232 6.43653C6.77642 6.42042 6.73646 6.41565 6.69778 6.42283C6.65909 6.43002 6.62352 6.44884 6.5958 6.47677C6.56809 6.5047 6.54955 6.54042 6.54267 6.57916C6.49513 7.3927 6.26653 8.21131 5.49492 8.6186L4.96092 8.91867C4.92617 8.93827 4.89841 8.96825 4.88153 9.0044C4.86465 9.04056 4.8595 9.08109 4.86678 9.12032C4.87407 9.15954 4.89344 9.19552 4.92217 9.2232C4.95091 9.25088 4.98758 9.26889 5.02706 9.2747ZM20.234 5.87731C21.0253 6.08536 21.7738 6.44864 22.0395 7.28613L22.2327 7.87098C22.2453 7.90894 22.2695 7.94197 22.3019 7.96538C22.3344 7.98879 22.3733 8.00139 22.4133 8.00139C22.4533 8.00139 22.4923 7.98879 22.5247 7.96538C22.5571 7.94197 22.5813 7.90894 22.5939 7.87098L22.7871 7.28609C22.8829 7.00297 23.0429 6.74589 23.2547 6.535C23.4665 6.32411 23.7242 6.16515 24.0077 6.07059L24.5926 5.87732C24.6294 5.86287 24.661 5.83768 24.6833 5.80502C24.7055 5.77236 24.7174 5.73375 24.7174 5.69422C24.7174 5.6547 24.7055 5.61609 24.6833 5.58343C24.661 5.55077 24.6294 5.52557 24.5926 5.51112L24.0077 5.31785C23.173 5.06546 22.7985 4.30132 22.5939 3.51741C22.5786 3.48227 22.5533 3.45236 22.5212 3.43136C22.4892 3.41035 22.4517 3.39917 22.4133 3.39917C22.375 3.39917 22.3375 3.41036 22.3054 3.43137C22.2733 3.45238 22.2481 3.4823 22.2327 3.51744C22.0259 4.30799 21.6537 5.05944 20.8188 5.31782L20.234 5.51112C20.1972 5.52557 20.1656 5.55076 20.1433 5.58342C20.1211 5.61608 20.1092 5.65469 20.1092 5.69421C20.1092 5.73374 20.1211 5.77235 20.1433 5.80501C20.1656 5.83766 20.1972 5.86286 20.234 5.87731ZM9.13128 10.1678C9.09093 10.2963 9.10311 10.4355 9.16515 10.555C9.22718 10.6745 9.33403 10.7646 9.46231 10.8055C9.57927 10.843 12.3331 11.7624 12.7927 15.2969C12.8105 15.4304 12.8804 15.5514 12.9872 15.6334C13.094 15.7154 13.229 15.7517 13.3625 15.7344C13.496 15.717 13.6172 15.6474 13.6995 15.5408C13.7818 15.4343 13.8185 15.2994 13.8015 15.1658C13.2554 10.967 9.90857 9.87925 9.76627 9.83479C9.6379 9.79512 9.49905 9.80788 9.38006 9.87028C9.26107 9.93268 9.17162 10.0397 9.13128 10.1678ZM17.5519 13.8462C17.6864 13.855 17.819 13.8101 17.9205 13.7214C18.022 13.6326 18.0841 13.5071 18.0932 13.3726C18.2847 10.4892 20.6243 8.20099 20.6479 8.17839C20.7419 8.0842 20.7952 7.95693 20.7964 7.82388C20.7977 7.69082 20.7467 7.56257 20.6545 7.46664C20.5623 7.3707 20.4362 7.31472 20.3032 7.31069C20.1702 7.30666 20.0409 7.35491 19.9431 7.44508C19.8351 7.54861 17.2963 10.0215 17.0783 13.305C17.0738 13.3717 17.0825 13.4385 17.1039 13.5018C17.1253 13.5651 17.159 13.6235 17.2029 13.6737C17.2469 13.724 17.3004 13.7651 17.3602 13.7947C17.4201 13.8243 17.4852 13.8418 17.5519 13.8462ZM16.0767 11.4559C16.1137 11.3277 16.0988 11.19 16.0352 11.0727C15.9716 10.9553 15.8645 10.8677 15.7368 10.8286C15.6092 10.7895 15.4713 10.8022 15.3529 10.8639C15.2346 10.9255 15.1451 11.0312 15.104 11.1582C14.7919 12.2649 14.7244 13.4262 14.9061 14.5616C14.9329 14.6925 15.0101 14.8077 15.1211 14.8821C15.2321 14.9565 15.368 14.9842 15.4993 14.9593C15.6306 14.9344 15.7468 14.8588 15.8228 14.7488C15.8987 14.6389 15.9284 14.5035 15.9054 14.3719C15.7565 13.3987 15.8149 12.405 16.0767 11.4559ZM13.1486 10.3873C13.1483 10.521 13.2006 10.6494 13.2942 10.7448C13.3879 10.8402 13.5153 10.8949 13.6489 10.8971C13.7825 10.8993 13.9117 10.8489 14.0084 10.7566C14.1051 10.6644 14.1617 10.5378 14.1658 10.4042C14.1512 9.25439 13.8865 8.12152 13.3902 7.08421C13.328 6.9661 13.2219 6.87718 13.0947 6.83662C12.9675 6.79607 12.8295 6.80712 12.7104 6.86741C12.5913 6.9277 12.5007 7.03239 12.458 7.15889C12.4154 7.2854 12.4242 7.42359 12.4826 7.54365C12.9025 8.43404 13.1294 9.40311 13.1486 10.3873ZM10.3113 5.58232C10.735 5.57836 11.1399 5.40729 11.4381 5.10632C11.7363 4.80534 11.9035 4.39881 11.9035 3.97515C11.9035 3.55148 11.7363 3.14496 11.4381 2.84399C11.1399 2.54302 10.7349 2.37196 10.3113 2.36801C9.88765 2.37197 9.48271 2.54304 9.18454 2.84401C8.88636 3.14499 8.71909 3.55152 8.71909 3.97518C8.7191 4.39885 8.88638 4.80537 9.18456 5.10634C9.48274 5.40731 9.88769 5.57837 10.3113 5.58232Z" fill="white"/>
</svg>
