<svg width="32" height="32" viewBox="0 0 32 32" fill="none" xmlns="http://www.w3.org/2000/svg">
<path d="M14.2266 17.0133C14.2266 17.2688 14.3288 17.5243 14.4821 17.6776C14.6354 17.8309 14.942 17.9842 15.453 18.1375V15.9912C15.0953 16.0423 14.7887 16.1445 14.5843 16.2978C14.3288 16.5022 14.2266 16.7577 14.2266 17.0133ZM16.2195 19.875V22.1235C16.6284 22.0724 16.935 21.9702 17.1905 21.7657C17.446 21.5613 17.5482 21.3569 17.5482 21.0503C17.5482 20.7437 17.446 20.5393 17.2927 20.3349C17.0883 20.1816 16.7306 20.0283 16.2195 19.875Z" fill="white"/>
<path d="M15.7094 10.3701C10.3437 10.3701 6 16.7579 6 22.0725C6 28.0003 11.6212 28.0003 15.7094 28.0003C19.7976 28.0003 25.4188 28.0003 25.4188 22.0725C25.4188 16.7579 21.0751 10.3701 15.7094 10.3701ZM18.3156 22.7368C17.8046 23.1967 17.0892 23.4523 16.2715 23.5034V24.4232H15.4539V23.5034C14.3296 23.4012 13.2565 22.9412 12.3878 22.1236L13.3076 21.0505C14.023 21.6637 14.7385 22.0214 15.505 22.1236V19.7218C14.5341 19.5174 13.8697 19.2108 13.4098 18.8531C12.9499 18.4954 12.7455 17.9332 12.7455 17.2178C12.7455 16.5024 13.001 15.8891 13.512 15.4803C14.023 15.0204 14.6874 14.7649 15.505 14.7138V14.1006H16.2204V14.7138C17.1403 14.7649 18.009 15.0715 18.8266 15.6336L18.009 16.7579C17.4469 16.3491 16.8336 16.1447 16.2204 16.0425V18.3931H16.2715C17.2425 18.5976 17.9579 18.9042 18.4178 19.313C18.8777 19.6707 19.0821 20.2328 19.0821 20.9994C19.0821 21.6637 18.8266 22.2769 18.3156 22.7368Z" fill="white"/>
<path d="M15.709 8.4279C17.702 8.4279 19.5417 9.09223 21.177 10.2165C21.9946 9.60325 22.4545 8.5812 22.4545 7.25255C22.4545 6.69043 22.4545 5.87279 21.7902 5.20847C21.5347 4.95296 21.2281 4.79965 20.9726 4.64634C20.2571 4.28863 19.3884 3.87981 18.4175 4.03312C17.5487 4.18642 16.9355 4.69745 16.4756 5.15736C16.2201 5.36177 16.0157 5.56618 15.7601 5.71949C15.4024 5.9239 14.9425 5.9239 14.5337 5.82169C14.2782 5.71949 14.0227 5.56618 13.7161 5.41287C13.3583 5.15736 12.8984 4.90185 12.3874 4.74855C11.3143 4.44193 10.1389 4.69745 9.32128 5.36177C9.11687 5.51508 9.01467 5.71949 8.96357 5.975C8.75916 7.40586 9.21908 8.88782 10.2411 10.2165C11.9275 9.04112 13.7672 8.4279 15.709 8.4279Z" fill="white"/>
</svg>
