<svg width="32" height="32" viewBox="0 0 32 32" fill="none" xmlns="http://www.w3.org/2000/svg">
<path d="M27.9874 25.6506L26.5916 9.12684H22.8808C22.6846 7.43961 21.8753 5.88329 20.6067 4.7537C19.3382 3.62411 17.6988 3 16.0002 3C14.3016 3 12.6622 3.62411 11.3936 4.7537C10.125 5.88329 9.31573 7.43961 9.11951 9.12684H5.4088L4.01295 25.6506C3.97027 26.1579 4.03334 26.6685 4.19815 27.1502C4.36297 27.6319 4.62595 28.0741 4.97047 28.4489C5.31499 28.8237 5.73354 29.1229 6.19965 29.3277C6.66576 29.5324 7.16929 29.6382 7.67838 29.6383H24.3193C24.8284 29.6379 25.332 29.532 25.7981 29.3272C26.2642 29.1225 26.6829 28.8233 27.0275 28.4485C27.3722 28.0738 27.6355 27.6317 27.8007 27.1501C27.9659 26.6686 28.0295 26.158 27.9874 25.6506ZM15.1291 22.4114L11.9405 19.2254L13.0726 18.0959L15.1291 20.1498L18.9251 16.3538L20.0545 17.4833L15.1291 22.4114ZM16.0002 4.59833C17.2743 4.6002 18.5058 5.05772 19.4721 5.88822C20.4384 6.71872 21.0759 7.86744 21.2692 9.12684H10.7311C10.9245 7.86744 11.5619 6.71872 12.5282 5.88822C13.4945 5.05772 14.726 4.60021 16.0002 4.59833Z" fill="white"/>
</svg>
