<svg width="32" height="32" viewBox="0 0 32 32" fill="none" xmlns="http://www.w3.org/2000/svg">
<path d="M28.25 23.4286H3.75C2.81667 23.4286 2 22.6286 2 21.7143V5.71429C2 4.8 2.81667 4 3.75 4H28.25C29.1833 4 30 4.8 30 5.71429V21.7143C30 22.6286 29.1833 23.4286 28.25 23.4286ZM3.75 5.14286C3.4 5.14286 3.16667 5.37143 3.16667 5.71429V21.7143C3.16667 22.0571 3.4 22.2857 3.75 22.2857H28.25C28.6 22.2857 28.8333 22.0571 28.8333 21.7143V5.71429C28.8333 5.37143 28.6 5.14286 28.25 5.14286H3.75ZM23.5833 28H8.41667C8.06667 28 7.83333 27.7714 7.83333 27.4286C7.83333 27.0857 8.06667 26.8571 8.41667 26.8571H23.5833C23.9333 26.8571 24.1667 27.0857 24.1667 27.4286C24.1667 27.7714 23.9333 28 23.5833 28Z" fill="black"/>
<path d="M29.4167 19.8947H2.58333C2.23333 19.8947 2 19.6632 2 19.3158C2 18.9684 2.23333 18.7368 2.58333 18.7368H29.4167C29.7667 18.7368 30 18.9684 30 19.3158C30 19.6632 29.7667 19.8947 29.4167 19.8947ZM27.0833 7.15789H18.9167C18.5667 7.15789 18.3333 6.92632 18.3333 6.57895C18.3333 6.23158 18.5667 6 18.9167 6H27.0833C27.4333 6 27.6667 6.23158 27.6667 6.57895C27.6667 6.92632 27.4333 7.15789 27.0833 7.15789ZM27.0833 9.47368H18.9167C18.5667 9.47368 18.3333 9.24211 18.3333 8.89474C18.3333 8.54737 18.5667 8.31579 18.9167 8.31579H27.0833C27.4333 8.31579 27.6667 8.54737 27.6667 8.89474C27.6667 9.24211 27.4333 9.47368 27.0833 9.47368ZM18.9167 28H13.0833C12.7333 28 12.5 27.7684 12.5 27.4211V22.7895C12.5 22.4421 12.7333 22.2105 13.0833 22.2105H18.9167C19.2667 22.2105 19.5 22.4421 19.5 22.7895V27.4211C19.5 27.7684 19.2667 28 18.9167 28ZM13.6667 26.8421H18.3333V23.3684H13.6667V26.8421ZM9.58333 17.5789C7.01667 17.5789 4.91667 15.4947 4.91667 12.9474V11.7895C4.91667 11.4421 5.15 11.2105 5.5 11.2105C5.85 11.2105 6.08333 11.4421 6.08333 11.7895V12.9474C6.08333 14.9158 7.6 16.4211 9.58333 16.4211C11.5667 16.4211 13.0833 14.9158 13.0833 12.9474V11.7895C13.0833 11.4421 13.3167 11.2105 13.6667 11.2105C14.0167 11.2105 14.25 11.4421 14.25 11.7895V12.9474C14.25 15.4947 12.15 17.5789 9.58333 17.5789Z" fill="black"/>
<path d="M5.1447 12H4.92403C4.70337 11.8954 4.59304 11.7908 4.59304 11.5816L4.04137 9.17577C3.93104 8.54816 4.04137 8.02515 4.37237 7.50215C4.70337 6.97914 5.25503 6.66534 5.80669 6.66534L9.889 6.03773C10.6613 5.93313 11.3233 6.03773 11.7646 6.45613C12.206 6.76994 12.4266 7.18834 12.537 7.60675C12.9783 7.71135 13.3093 7.92055 13.53 8.23435C13.861 8.65276 14.0816 9.28037 13.9713 9.80337L13.4196 11.5816C13.4196 11.7908 13.199 11.8954 13.0886 11.8954C12.868 11.8954 12.7576 11.8954 12.537 11.7908L11.1027 10.7448C10.9923 10.6402 10.882 10.6402 10.7717 10.6402H7.24102C7.13068 10.6402 7.02035 10.6402 6.91002 10.7448L5.4757 11.7908C5.36536 12 5.25503 12 5.1447 12ZM7.24102 9.69877H10.7717C11.1027 9.69877 11.544 9.80337 11.7646 10.0126L12.537 10.6402L12.868 9.59417C12.868 9.38497 12.868 9.17577 12.6473 8.96656C12.4266 8.75736 12.3163 8.65276 11.9853 8.65276C11.6543 8.65276 11.4337 8.44356 11.4337 8.12975C11.4337 7.81595 11.3233 7.50215 10.9923 7.29294C10.7717 7.08374 10.4407 6.97914 10.1097 7.08374L6.13769 7.71135C5.80669 7.71135 5.58603 7.92055 5.36536 8.12975C5.1447 8.33896 5.1447 8.65276 5.1447 8.96656L5.4757 10.6402L6.24802 10.0126C6.57902 9.80337 6.91002 9.69877 7.24102 9.69877Z" fill="black"/>
<path d="M12 14H10.5C10.2 14 10 13.8286 10 13.5714C10 13.3143 10.2 13.1429 10.5 13.1429H12C12.6 13.1429 13 12.8 13 12.2857V11.4286C13 11.1714 13.2 11 13.5 11C13.8 11 14 11.1714 14 11.4286V12.2857C14 13.2286 13.1 14 12 14Z" fill="black"/>
<path d="M15.5 7C15.7761 7 16 6.77614 16 6.5C16 6.22386 15.7761 6 15.5 6C15.2239 6 15 6.22386 15 6.5C15 6.77614 15.2239 7 15.5 7Z" fill="black"/>
<path d="M15.5 9C15.7761 9 16 8.77614 16 8.5C16 8.22386 15.7761 8 15.5 8C15.2239 8 15 8.22386 15 8.5C15 8.77614 15.2239 9 15.5 9Z" fill="black"/>
<path d="M27.4375 11H19.5625C19.225 11 19 10.8 19 10.5C19 10.2 19.225 10 19.5625 10H27.4375C27.775 10 28 10.2 28 10.5C28 10.8 27.775 11 27.4375 11Z" fill="black"/>
<path d="M15.5 11C15.7761 11 16 10.7761 16 10.5C16 10.2239 15.7761 10 15.5 10C15.2239 10 15 10.2239 15 10.5C15 10.7761 15.2239 11 15.5 11Z" fill="black"/>
<path d="M26.05 17H16.95C15.91 17 15 16.125 15 15.125V13.875C15 12.875 15.91 12 16.95 12H26.05C27.09 12 28 12.875 28 13.875V15.125C28 16.125 27.09 17 26.05 17ZM16.95 13.25C16.56 13.25 16.3 13.5 16.3 13.875V15.125C16.3 15.5 16.56 15.75 16.95 15.75H26.05C26.44 15.75 26.7 15.5 26.7 15.125V13.875C26.7 13.5 26.44 13.25 26.05 13.25H16.95Z" fill="black"/>
</svg>
