<svg width="54" height="54" viewBox="0 0 54 54" fill="none" xmlns="http://www.w3.org/2000/svg">
<path fill-rule="evenodd" clip-rule="evenodd" d="M20.4497 11.3648L26.6216 10.0445C27.7017 9.81349 28.7531 10.5042 28.9699 11.5873L33.8495 35.9668H34.6172V13.0328C34.6172 11.9282 35.5126 11.0328 36.6172 11.0328H45.1874C46.292 11.0328 47.1874 11.9282 47.1874 13.0328V35.9668H51.6205C52.7251 35.9668 53.6205 36.8622 53.6205 37.9668V42.396C53.6205 43.5006 52.7251 44.396 51.6205 44.396H5C3.89543 44.396 3 43.5006 3 42.396V37.9668C3 36.8622 3.89543 35.9668 5 35.9668H8.77422V13.0319C8.77422 11.9273 9.66965 11.0319 10.7742 11.0319H19.3444C19.753 11.0319 20.1331 11.1544 20.4497 11.3648Z" fill="black"/>
<path fill-rule="evenodd" clip-rule="evenodd" d="M20.0204 35L19.3444 31.6225V35H20.0204ZM18.6677 10.5322L25.6224 9.04454C26.7025 8.81349 27.7539 9.5042 27.9707 10.5873L32.8569 35H33.6154V12.0318C33.6154 10.9273 34.5109 10.0318 35.6154 10.0318H44.1856C45.2902 10.0318 46.1856 10.9273 46.1856 12.0318V35H51C52.1046 35 53 35.8954 53 37V41C53 42.1046 52.1046 43 51 43H3C1.89543 43 1 42.1046 1 41V37C1 35.8954 1.89543 35 3 35H6.77422V12.0318C6.77422 10.9273 7.66965 10.0318 8.77422 10.0318H17.3444C17.8518 10.0318 18.3151 10.2208 18.6677 10.5322Z" fill="#FADB6F"/>
<path d="M50.4764 36.8356H44.5956C44.7214 36.5683 44.7967 36.2733 44.7967 35.9592C44.7967 30.9203 44.7967 18.2888 44.7967 13.5566C44.7967 12.408 43.8569 11.4737 42.7015 11.4737H37.1126C35.9573 11.4737 35.0175 12.408 35.0175 13.5566C35.0175 18.2778 35.0175 30.9295 35.0175 35.9592C35.0175 36.2733 35.0929 36.5683 35.2186 36.8356H30.8021C31.6153 36.4139 32.088 35.4975 31.8882 34.563C30.8102 29.5227 28.1452 17.0616 27.2016 12.6501C26.9615 11.5268 25.846 10.807 24.7165 11.0457L19.2499 12.2014C18.9614 12.2624 18.7005 12.3812 18.4742 12.5414C18.1145 11.9077 17.4389 11.4739 16.6563 11.4739H11.0679C9.91252 11.4739 8.97249 12.4082 8.97249 13.5568C8.97249 26.7263 8.97249 17.1236 8.97249 35.9594C8.97249 36.2735 9.04794 36.5685 9.17368 36.8358H3.29282C2.57993 36.8358 2 37.4123 2 38.1209V40.0807C2 40.7894 2.57993 41.3659 3.29282 41.3659H50.4764C51.1893 41.3659 51.7692 40.7894 51.7692 40.0807V38.1209C51.7692 37.4121 51.1894 36.8356 50.4764 36.8356ZM36.2315 18.4924H43.5829V22.2599H36.2315V18.4924ZM37.1127 12.6805H42.7016C43.1877 12.6805 43.5829 13.0735 43.5829 13.5566V17.2856H36.2315V13.5566C36.2315 13.0735 36.6267 12.6805 37.1127 12.6805ZM36.2315 35.9592V23.4666H43.5829V35.9592C43.5829 36.4424 43.1876 36.8356 42.7016 36.8356H37.1127C36.6267 36.8356 36.2315 36.4424 36.2315 35.9592ZM10.1864 19.4963H17.5377V30.0196H10.1864V19.4963ZM10.1864 16.629H17.5377V18.2895H10.1864V16.629ZM27.8351 21.414L20.6446 22.934C20.6098 22.7713 19.8449 19.1953 19.8563 19.2489L27.0467 17.7288L27.8351 21.414ZM10.1864 31.2264H17.5377V32.8869H10.1864V31.2264ZM18.7516 35.9592C18.7516 32.9978 18.7516 24.133 18.7516 19.8854C21.1799 31.2142 22.3192 36.6182 22.3962 36.8356H18.5505C18.6761 36.5683 18.7516 36.2733 18.7516 35.9592ZM30.0224 35.853L25.3743 36.8356H23.8292C23.673 36.7135 23.5548 36.5419 23.5103 36.3341L20.8969 24.1143L28.0877 22.5945L30.701 34.8138C30.802 35.2876 30.4993 35.752 30.0224 35.853ZM19.5024 13.3818L24.969 12.2261C25.4482 12.1253 25.9141 12.4314 26.0145 12.901L26.7946 16.5486L19.604 18.0684L18.8239 14.421C18.7229 13.9472 19.0257 13.4828 19.5024 13.3818ZM11.0679 12.6805H16.6565C17.1425 12.6805 17.5377 13.0735 17.5377 13.5566V15.4222H10.1864V13.5566C10.1864 13.0735 10.5818 12.6805 11.0679 12.6805ZM10.1864 35.9592V34.0937H17.5377V35.9592C17.5377 36.4424 17.1424 36.8356 16.6565 36.8356H11.0679C10.5818 36.8356 10.1864 36.4424 10.1864 35.9592ZM50.5554 40.0805C50.5554 40.1238 50.52 40.159 50.4764 40.159H3.29282C3.24924 40.159 3.21387 40.1238 3.21387 40.0805V38.1207C3.21387 38.0775 3.24924 38.0424 3.29282 38.0424C19.7658 38.0424 33.674 38.0424 50.4764 38.0424C50.52 38.0424 50.5554 38.0775 50.5554 38.1207V40.0805Z" fill="black"/>
</svg>
