<svg width="22" height="21" viewBox="0 0 22 21" fill="none" xmlns="http://www.w3.org/2000/svg">
<circle cx="11.0218" cy="10.8373" r="10" transform="rotate(33.083 11.0218 10.8373)" fill="black"/>
<circle cx="10" cy="10" r="9.5" fill="white" stroke="black"/>
<path d="M10 16C10 14.343 9.32833 12.8433 8.24267 11.7573C7.157 10.6717 5.657 10 4 10C5.657 10 7.157 9.32833 8.24267 8.24267C9.32833 7.157 10 5.657 10 4C10 5.657 10.6717 7.157 11.7573 8.24267C12.843 9.32833 14.343 10 16 10C14.343 10 12.843 10.6717 11.7573 11.7573C10.6717 12.843 10 14.343 10 16Z" fill="#9870ED"/>
<path d="M8.24267 11.7573C8.24267 11.7573 8.29867 11.1443 9.84467 10.1553C11.3907 9.16633 11.7573 8.24267 11.7573 8.24267C10.6717 7.157 10 5.657 10 4C10 5.657 9.32833 7.157 8.24267 8.24267C7.157 9.32833 5.657 10 4 10C5.657 10 7.157 10.6717 8.24267 11.7573Z" fill="#9870ED"/>
<path d="M15.9984 10.3922C16.3884 10.3956 16.3851 9.80123 15.9984 9.80489C12.9497 9.81389 10.2301 7.1499 10.3271 4.07156C10.3287 3.6319 9.65874 3.6329 9.66041 4.07156C9.73541 7.1129 7.03141 9.73356 3.99841 9.67623C3.60774 9.67289 3.61208 10.2686 3.99841 10.2642C6.76641 10.1902 9.36641 12.4616 9.77007 15.2546C9.83807 15.5329 9.84474 15.9982 9.94974 16.1692C9.96374 16.1819 9.97707 16.1809 9.98974 16.1732C10.1284 16.1606 10.1414 15.4849 10.2064 15.2556C10.6261 12.4732 13.1701 10.2676 15.9984 10.3922ZM9.98907 14.5512C9.52274 12.4682 7.90674 10.7069 5.90407 10.0056C7.77307 9.43056 9.32541 7.95456 9.98407 6.11556C10.6301 7.97623 12.1847 9.4889 14.0627 10.0992C12.0677 10.7606 10.4587 12.4779 9.98907 14.5512Z" fill="black"/>
</svg>
