<svg width="300" height="300" viewBox="0 0 300 300" fill="none" xmlns="http://www.w3.org/2000/svg">
<path fill-rule="evenodd" clip-rule="evenodd" d="M83.4921 203.133C88.8942 178.757 92.8764 168.448 99.3008 164C102.53 161.765 110.323 166.192 118.086 170.601L118.086 170.601C125.95 175.068 133.781 179.516 136.801 177C139.608 174.661 140.773 167.835 141.936 161.027C142.075 160.213 142.214 159.398 142.355 158.592V152H143.719C144.737 148.087 146.098 145.129 148.301 144.5C151.262 143.654 155.028 144.866 158.955 146.129C164.314 147.853 169.973 149.674 174.301 146.5C180.292 142.106 179.902 133.244 179.502 129.858L178.301 127H210.015L210.888 141.539L215.942 139.096L218.501 144C218.05 149.088 215.99 152.169 212.944 154.039C211.111 159.839 207.912 168.256 203.855 172C199.972 175.585 189.304 172.565 180.173 169.98C178.41 169.481 176.704 168.998 175.115 168.582L168.319 171.45C166.887 176.605 165.871 181.145 164.979 185.135L164.979 185.136C162.612 195.715 161.11 202.427 155.001 206.5C150.111 209.76 140.348 205.934 131.288 202.383C123.677 199.399 116.562 196.611 113.251 198.385C109.65 200.314 107.961 207.88 106.315 215.252C104.648 222.722 103.024 229.993 99.5013 231C97.8654 231.467 96.3115 232.071 94.7182 232.69C89.4937 234.721 83.8464 236.916 73.5013 235C66.4791 233.699 62.8391 244.98 60.9626 256.106L62 270.5L59.0413 275.308C59.011 276.074 59.0013 276.5 59.0013 276.5L58.827 275.656L58 277L43.5 241L39.6823 225.729L38.6044 226.184L38.0188 224.593L37 225C37 225 41.3008 207 47.8008 201C51.6847 197.415 62.3525 200.435 71.4836 203.02C74.3607 203.834 77.0851 204.606 79.3967 205.113L83.4921 203.133Z" fill="white"/>
<rect x="209" y="112" width="23" height="90" fill="white"/>
<path d="M215 50C215 50 249 51 255.5 59C262 67 261 119.5 261 119.5L232.5 130L215 50Z" fill="white"/>
<path d="M172.643 74.1991C173.098 59.0473 185.512 47 200.67 47V47C215.699 47 228.055 58.8483 228.685 73.8634L231 129H171L172.643 74.1991Z" fill="white"/>
<path d="M151.537 200.627C152.004 201.472 153.3 200.717 152.832 199.87C149.022 192.966 144.756 186.57 139.735 180.488C139.12 179.744 138.065 180.81 138.675 181.55C143.62 187.54 147.786 193.832 151.537 200.627ZM89.9493 219.89C90.4653 220.703 91.7643 219.952 91.2443 219.134C88.9393 215.507 86.7143 211.83 84.4083 208.203C83.8913 207.39 82.5933 208.142 83.1133 208.96C85.4183 212.587 87.6433 216.264 89.9493 219.89ZM187.709 158.474C188.319 159.223 189.375 158.156 188.77 157.414C185.739 153.692 182.776 150.62 178.844 147.842C178.054 147.284 177.304 148.584 178.086 149.137C181.916 151.843 184.761 154.855 187.709 158.474ZM183.558 105.922C183.484 106.387 183.75 106.88 184.281 106.871C184.383 106.869 195.322 106.75 195.567 106.612C195.839 106.531 196.052 106.308 196.021 105.931C196.013 105.831 195.788 97.9879 195.409 97.7129C194.433 97.0029 192.99 97.5069 183.561 97.7209C183.047 97.7329 182.554 98.3709 182.913 98.8489C183.159 99.1759 183.573 105.821 183.558 105.922ZM211.269 115.943C210.317 115.9 206.035 115.646 205.233 116.173C205.027 116.308 204.833 116.556 204.861 116.821C205.236 120.315 205.336 119.991 205.258 120.341C205.154 120.807 205.474 121.298 205.981 121.291C212.174 121.203 212.209 121.365 212.931 120.781C213.216 120.551 213.239 120.258 213.118 120.014C212.422 116.774 213.877 116.061 211.269 115.943ZM186.688 129.6C186.329 129.588 185.911 129.887 185.916 130.348C185.946 132.862 185.988 135.376 186.019 137.889C185.941 138.251 186.093 138.677 186.519 138.807C186.623 138.839 185.998 138.802 195.699 139.24C196.216 139.263 196.515 138.744 196.423 138.29C196.117 136.793 196.814 130.308 196.772 130.725C196.818 130.268 196.406 130.009 196.005 130C192.913 129.596 189.797 129.7 186.688 129.6ZM183.268 113.923L195.133 114.406C196.098 114.445 196.096 112.945 195.133 112.906L183.268 112.423C182.303 112.383 182.305 113.883 183.268 113.923ZM193.528 120.235C194.493 120.235 194.495 118.735 193.528 118.735H186.478C185.512 118.735 185.51 120.235 186.478 120.235H193.528ZM200.768 98.0379C204.621 97.3921 208.539 97.2144 212.434 97.5089C213.397 97.5789 213.393 96.0789 212.434 96.0089C208.404 95.7159 204.353 95.9113 200.369 96.5909C199.419 96.7509 199.822 98.1969 200.768 98.0379ZM211.484 100.58L203.79 101.191C202.834 101.267 202.826 102.767 203.79 102.691L211.484 102.081C212.44 102.005 212.448 100.503 211.484 100.58ZM206.027 105.595C205.072 105.675 205.064 107.175 206.027 107.095L209.873 106.775C210.828 106.695 210.836 105.194 209.873 105.275L206.027 105.595ZM212.113 131.906L204.1 130.947C203.144 130.832 203.152 132.333 204.1 132.447L212.113 133.406C213.069 133.521 213.061 132.02 212.113 131.906ZM200.258 137.228L209.559 138.112C210.519 138.202 210.513 136.702 209.559 136.612L200.258 135.728C199.298 135.637 199.303 137.138 200.258 137.228ZM207.309 141.708C208.274 141.708 208.276 140.208 207.309 140.208H205.065C204.1 140.208 204.099 141.708 205.065 141.708H207.309ZM214.36 138.503L217.244 138.823C218.202 138.93 218.194 137.429 217.244 137.323L214.36 137.003C213.402 136.897 213.41 138.398 214.36 138.503ZM151.165 152.502C152.517 153.346 153.917 155.452 155.02 156.662C155.35 157.127 155.984 156.992 156.242 156.564C156.245 156.57 156.238 156.558 156.242 156.564C157.517 154.411 159.912 153.018 162.372 153.793C163.242 154.067 163.585 152.897 162.949 152.423C161.183 151.103 159.395 149.813 157.629 148.493C157.512 148.403 157.367 148.357 157.219 148.365C153.308 147.367 149.705 151.592 151.165 152.502ZM104.76 177.005C106.507 175.07 109.08 174.498 111.402 175.633C111.56 175.719 111.742 175.746 111.918 175.709C112.093 175.672 112.249 175.574 112.359 175.432C112.468 175.29 112.524 175.114 112.515 174.935C112.506 174.756 112.434 174.586 112.311 174.456C107.801 169.241 108.108 169.55 107.889 169.459C106.582 168.334 103.097 168.355 101.149 170.399C100.361 171.227 100.464 171.586 101.005 172.52C101.654 173.638 102.555 175.735 103.425 176.717C103.895 177.247 104.355 177.454 104.76 177.005ZM162.185 157.72C161.533 157.005 160.475 158.068 161.125 158.78L166.012 164.141C166.664 164.857 167.722 163.793 167.072 163.081L162.185 157.72ZM160.761 162.188C160.081 161.501 159.02 162.562 159.7 163.248L162.411 165.985C163.092 166.672 164.153 165.611 163.472 164.925L160.761 162.188ZM172.273 163.33C172.919 164.049 173.977 162.986 173.333 162.269L167.121 155.345C166.475 154.625 165.417 155.689 166.061 156.405C168.131 158.714 170.201 161.021 172.273 163.329V163.33ZM208.146 147.942L188.947 143.327C188.009 143.102 187.609 144.547 188.548 144.774L207.747 149.388C208.685 149.613 209.085 148.168 208.146 147.942ZM202.668 154.17C199.567 152.182 196.26 150.537 192.803 149.264C191.897 148.929 191.506 150.378 192.405 150.711C195.737 151.946 198.925 153.541 201.911 155.466C202.726 155.989 203.479 154.691 202.668 154.171V154.17ZM194.386 155C193.634 154.413 192.566 155.467 193.326 156.06C194.555 157.022 195.784 157.982 197.013 158.942C197.766 159.529 198.834 158.476 198.074 157.882L194.386 155ZM111.741 180.475L117.8 189.037C118.353 189.819 119.654 189.07 119.095 188.279L113.037 179.718C112.484 178.936 111.182 179.684 111.741 180.475ZM109.726 182.724C109.295 181.86 108 182.619 108.431 183.481C109.126 184.869 109.821 186.258 110.514 187.647C110.946 188.511 112.241 187.752 111.81 186.89L109.726 182.724ZM112.764 189.403C111.799 189.403 111.798 190.903 112.764 190.903C113.73 190.903 113.731 189.403 112.764 189.403ZM156.402 160.347V160.508C156.402 161.473 157.902 161.474 157.902 160.508V160.348C157.902 159.383 156.402 159.381 156.402 160.348V160.347ZM53.9963 216.544C54.3033 216.972 54.9813 216.95 55.2913 216.659C56.5543 215.475 58.5903 213.883 60.3973 213.746C60.9653 213.703 61.3273 213.143 61.0443 212.618C56.6793 204.541 57.0303 204.638 56.3803 204.645C53.6353 204.678 51.3833 205.907 49.7043 207.991C49.3373 208.155 49.0743 208.576 49.3213 209.037C50.7162 211.637 52.2778 214.145 53.9963 216.544ZM61.8633 224.639C62.1773 225.133 62.8143 226.315 64.3153 228.249C64.5613 228.565 64.8823 228.556 65.1373 228.394C65.4833 228.294 66.5993 227.068 67.7553 226.987C68.3103 226.948 68.7053 226.377 68.4033 225.859L66.3553 222.31L66.3543 222.312C66.296 222.196 66.2058 222.098 66.0942 222.032C65.9826 221.965 65.8543 221.931 65.7243 221.935C64.3163 221.95 63.0483 222.521 62.1313 223.579C61.7583 223.781 61.5853 224.199 61.8633 224.639ZM58.6133 217.923L61.0183 221.767C61.5283 222.584 62.8283 221.832 62.3133 221.01L59.9083 217.166C59.3973 216.349 58.0983 217.101 58.6133 217.923ZM55.3473 221.61L56.9503 223.533C57.5683 224.276 58.6253 223.21 58.0103 222.473L56.4083 220.55C55.7893 219.808 54.7323 220.874 55.3473 221.61ZM67.9293 229.982C67.4713 229.132 66.1763 229.888 66.6343 230.738C67.0083 231.433 67.3823 232.128 67.7573 232.821C68.2153 233.671 69.5103 232.915 69.0523 232.064L67.9293 229.982ZM73.6093 229.183C74.1423 229.983 75.4423 229.233 74.9043 228.426L67.8543 217.85C67.3203 217.051 66.0213 217.801 66.5583 218.607L73.6093 229.183ZM76.5163 226.602C76.9863 227.445 78.2823 226.69 77.8113 225.844L74.6013 220.078C74.1323 219.235 72.8363 219.99 73.3063 220.835L76.5163 226.602ZM106.961 196.157C107.461 196.982 108.758 196.229 108.256 195.4L99.3083 180.642C98.8083 179.818 97.5113 180.571 98.0133 181.399L106.961 196.157ZM99.5313 190.73C98.9183 189.984 97.8623 191.05 98.4713 191.79L102.953 197.242C103.567 197.988 104.623 196.922 104.013 196.182L99.5313 190.73ZM156.228 175.07C156.83 175.825 157.885 174.758 157.288 174.01L147.058 161.17C146.458 160.415 145.402 161.483 145.998 162.23L156.228 175.07ZM58.3173 239.086C54.5476 233.683 51.153 228.028 48.1573 222.161C47.7173 221.301 46.4223 222.06 46.8613 222.919C49.8571 228.786 53.2517 234.441 57.0213 239.843C57.5713 240.629 58.8713 239.88 58.3173 239.086ZM47.7833 234.488C47.3433 233.628 46.0483 234.386 46.4883 235.244L51.7813 245.578C52.2213 246.438 53.5153 245.679 53.0763 244.821L47.7833 234.488Z" fill="black"/>
<path d="M124.05 173.591C118.612 169.84 115.467 164.523 109.72 162.368C100.92 159.07 92.6372 165.996 89.1622 173.672C85.1452 182.547 86.7142 196.37 80.6022 200.766C78.5542 202.239 75.0442 202.568 72.1352 202.541C64.0302 198.901 56.4722 195.428 47.9702 200.44C36.8072 207.018 36.3462 225.274 36.8842 226.411C41.8432 244.23 48.2502 261.721 55.7012 278.644C55.9732 279.262 56.4682 279.47 56.9622 279.412C57.1662 279.44 57.3922 279.422 57.6372 279.337C58.7572 278.949 59.5462 278.239 60.1272 277.357C63.3992 276.217 64.9992 274.476 68.7692 273.517C67.9072 266.779 67.8562 261.38 68.2692 254.6C69.8442 228.686 94.6432 245.051 105.767 227.518C109.312 223.187 112.91 215.098 113.904 212.634C118.742 200.634 130.432 208.855 136.102 210.6C145.421 213.467 158.9 210.767 164.016 200.172C166.337 195.358 164.951 186.112 168.248 179.6C173.295 169.63 179.372 173.767 187.768 175.766C194.254 177.311 201.733 176 207.898 171.28V191.923C206.776 190.774 205.496 189.791 204.097 189.002C205.849 194.692 207.843 197.516 207.467 205.23C205.249 200.3 200.545 196.08 194.595 193.686C200.702 200.449 202.502 205.986 204.705 214.054C204.85 214.584 217.805 214.239 236.241 213.974C236.954 208.786 240.097 203.822 244.943 200.229C240.872 201.515 237.246 203.617 234.423 206.242C235.962 203.148 236.463 199.106 236.031 195.614C235.671 198.771 234.368 201.854 232.292 204.577C232.85 201.293 233.326 197.991 233.499 194.71C233.758 189.819 236.77 183.299 234.519 176.266C234.829 179.466 233.878 183.626 232.572 187.796C232.52 172.063 232.357 156.332 232.352 140.6C232.352 139.634 230.852 139.633 230.852 140.6C230.858 157.802 231.055 175.003 231.084 192.205C230.368 194.215 229.649 196.139 229.024 197.874C228.816 198.111 228.602 198.343 228.393 198.58C228.463 194.788 228.026 191.432 226.311 184.673V138.171C235.441 135.197 236.989 134.801 257.686 128.156C258.286 125.836 258.707 124.401 258.972 123.069C259.846 122.762 260.722 122.461 261.596 122.152C262.312 122.112 262.998 121.635 262.998 120.711C262.998 91.6279 267.178 56.2049 241.786 49.8309L241.808 33.2029C244.608 32.7129 247.401 32.1929 250.143 31.4089C250.379 31.3419 250.618 31.1369 250.666 30.8849C251.272 27.7069 251.529 24.5449 251.693 21.3109C251.72 20.7779 251.195 20.5159 250.743 20.5879C243.503 21.7379 236.282 23.9669 234.818 24.0279C234.008 24.0599 233.318 24.6899 233.318 25.5279C233.321 33.1519 233.36 40.7749 233.395 48.3979C224.427 47.5679 215.363 47.3279 206.375 46.7179C162.558 37.2539 168.889 99.6049 170.34 128.941C170.38 129.746 170.93 130.211 171.548 130.343C172.092 130.793 172.117 130.617 176.975 130.716C177.126 132.813 177.135 134.908 176.821 136.901C174.579 141.908 169.334 145.433 162.654 144.69C158.255 143.193 151.774 139.908 145.699 144.601C142.593 147 140.877 150.691 140.366 154.517C139.909 157.948 140.805 162.883 140.493 164.413C138.571 173.847 131.959 177.07 124.05 173.591ZM39.7562 225.543C40.1162 215.258 43.5092 202.909 55.1772 200.857C64.1382 199.28 71.1942 208.637 80.0622 207.246C89.9192 205.699 88.6522 191.766 89.5382 184.513C90.3582 177.798 92.5292 170.801 98.4222 166.787C104.252 162.817 109.898 164.99 114.607 169.233C120.733 174.753 127.481 182.578 136.689 178.629C145.735 174.749 142.8 164.164 143.204 156.429C143.595 148.94 148.969 143.709 156.595 145.769C161.285 147.035 166.125 150.379 171.177 148.857C180.311 146.105 180.288 134.967 179.506 127.365C177.531 108.188 175.915 102.445 177.23 93.1539C189.982 93.1579 202.734 93.1939 215.487 93.2139C212.79 99.2499 217.299 108.752 218.995 115.2C222.117 127.064 223.012 140.59 217.848 152.048C212.628 163.633 200.837 170.004 188.308 168.824C179.647 168.008 170.516 162.364 164.717 172.034C159.319 181.037 166.583 193.924 158.968 201.847C154.238 206.769 146.642 208.352 140.297 206.057C135.677 204.385 113.005 183.135 107.227 208.082C105.823 214.142 106.652 220.875 103.05 226.266C97.7342 234.226 89.7602 233.436 81.4272 232.15C72.1922 230.724 65.1902 233.58 62.6942 242.96C61.5102 247.41 61.0412 252.085 60.6842 256.665C60.4702 259.425 59.4762 273.585 57.7102 275.779C50.6092 259.491 44.5162 242.659 39.7562 225.543ZM226.092 73.6429C225.336 75.0899 224.672 76.6039 223.848 78.0089C222.87 79.6789 225.462 81.1899 226.438 79.5239C226.932 78.6819 227.366 77.7969 227.8 76.9109C228.44 80.0579 228.902 84.2489 229.18 87.4499C228.675 87.9819 228.127 88.4719 227.576 88.9589C226.323 86.7909 225.016 84.6539 223.71 82.5189C223.554 82.2533 223.318 82.0439 223.036 81.9209C222.779 81.7231 222.461 81.6197 222.136 81.6279C205.739 81.6259 189.342 81.5609 172.946 81.5549C173.154 79.8849 173.421 78.1999 173.761 76.5199C175.92 70.8849 223.802 73.2659 226.092 73.6429ZM219.238 93.2189C221.6 93.2219 223.961 93.2309 226.323 93.2309C226.793 93.4069 227.339 93.3449 227.794 92.8619C228.319 92.3039 228.891 91.7949 229.466 91.2879C230.25 103.947 229.6 116.923 229.107 129.424C227.527 129.401 225.947 129.375 224.367 129.344C223.279 110.922 214.921 100.476 219.238 93.2189ZM222.358 148.425C222.727 147.212 223.045 145.981 223.311 144.735V199.151C222.971 200.051 222.616 200.931 222.239 201.774L222.012 201.776C220.145 192.903 218.082 183.764 211.742 176.266C213.545 183.318 215.189 190.639 214.974 197.786C213.277 194.711 212.504 191.326 212.788 187.986C211.532 191.802 211.475 195.819 212.252 198.603C211.852 197.675 211.4 196.771 210.898 195.894V168.685C216.879 162.917 220.564 157.102 222.358 148.425ZM236.257 64.6729C236.492 64.6699 236.698 64.6199 236.877 64.5389C238.944 64.8179 238.82 69.4499 236.748 69.4849C235.79 69.5009 235.095 68.1249 235.004 67.3279C234.924 66.6279 235.304 64.6879 236.257 64.6729ZM233.405 51.3989C233.472 67.5749 233.388 61.4189 233.45 62.8759C230.802 65.6899 232.064 72.4759 236.748 72.4859C242.798 72.4959 242.824 61.4229 236.662 61.5129C236.582 61.5129 236.512 61.5279 236.439 61.5379C236.429 52.4209 236.379 43.3039 236.347 34.1879C237.166 34.0269 237.986 33.8749 238.807 33.7289C238.796 41.0899 238.779 48.4509 238.778 55.8129C238.778 57.7429 241.778 57.7459 241.778 55.8129C241.778 54.8479 241.781 53.8839 241.782 52.9199C262.614 58.9479 260.053 87.7059 260.002 119.538C250.766 122.798 241.492 125.919 232.13 128.79C232.711 113.698 233.25 98.2329 231.737 83.2109C230.425 70.1879 226.17 57.0809 215.077 50.2229C221.195 50.5409 227.321 50.8359 233.405 51.3989ZM226.073 70.5559C224.254 70.2809 180.314 69.0079 175.165 70.9789C184.033 42.1289 215.928 40.9009 226.073 70.5559ZM173.274 127.667C172.639 115.12 171.812 102.206 172.349 89.6169C172.846 90.5319 173.335 91.4519 173.749 92.4099C173.812 92.5559 173.89 92.6719 173.975 92.7739C172.898 102.035 175.23 115.644 176.679 127.71C175.544 127.69 174.409 127.675 173.274 127.667Z" fill="black"/>
</svg>
