<svg width="54" height="54" viewBox="0 0 54 54" fill="none" xmlns="http://www.w3.org/2000/svg">
<path fill-rule="evenodd" clip-rule="evenodd" d="M9.43866 25.8167L7.81285 25.4877C6.68348 25.1556 6.01914 24.0262 6.35131 22.8968L10.0716 8.81285C10.4038 7.68348 11.5331 7.01914 12.6625 7.35131L28.4073 11.5366C29.5367 11.8688 30.2011 12.9982 29.8689 14.1276L28.4738 19.243L28.1937 20.4152C28.6126 19.5983 29.451 19.0615 30.3788 19.0615H38.1694C39.2348 19.0615 40.2336 19.794 40.5 20.8594L41.4322 24.2553V24.1887H45.1611C46.5594 24.1887 47.6248 25.3207 47.6248 26.6524V46.1625C47.6248 47.5608 46.4928 48.6262 45.1611 48.6262H11.7344C10.3361 48.6262 9.27066 47.4942 9.27066 46.1625V26.719C9.27066 26.3977 9.33043 26.094 9.43866 25.8167ZM27.5466 23.124L27.2764 24.2553H27.3158L27.5466 23.124Z" fill="black"/>
<path d="M9.43866 25.8167L11.3018 26.544C11.5165 25.9939 11.4771 25.3771 11.1943 24.8588C10.9115 24.3404 10.4141 23.9736 9.83532 23.8565L9.43866 25.8167ZM7.81285 25.4877L7.24852 27.4065C7.30379 27.4227 7.35973 27.4366 7.41619 27.448L7.81285 25.4877ZM6.35131 22.8968L8.27004 23.4612C8.27527 23.4434 8.28025 23.4255 8.28498 23.4076L6.35131 22.8968ZM10.0716 8.81285L8.15287 8.24852C8.14764 8.2663 8.14266 8.28415 8.13793 8.30207L10.0716 8.81285ZM12.6625 7.35131L12.0982 9.27004C12.115 9.27497 12.1318 9.27969 12.1487 9.28418L12.6625 7.35131ZM28.4073 11.5366L28.9717 9.61791C28.9549 9.61297 28.938 9.60826 28.9211 9.60376L28.4073 11.5366ZM29.8689 14.1276L27.9502 13.5632C27.9464 13.5759 27.9428 13.5886 27.9394 13.6013L29.8689 14.1276ZM28.4738 19.243L26.5442 18.7167C26.5387 18.7372 26.5334 18.7577 26.5285 18.7783L28.4738 19.243ZM28.1937 20.4152L26.2485 19.9505C26.0133 20.935 26.5507 21.9401 27.5001 22.2911C28.4495 22.6421 29.5115 22.2285 29.9734 21.3278L28.1937 20.4152ZM40.5 20.8594L38.5597 21.3444C38.5634 21.3593 38.5673 21.3741 38.5713 21.3888L40.5 20.8594ZM41.4322 24.2553L39.5036 24.7847C39.7686 25.7504 40.707 26.3711 41.6993 26.2374C42.6917 26.1037 43.4322 25.2566 43.4322 24.2553H41.4322ZM41.4322 24.1887V22.1887C40.3276 22.1887 39.4322 23.0842 39.4322 24.1887H41.4322ZM27.5466 23.124L29.5062 23.5239C29.7245 22.4543 29.0448 21.4073 27.979 21.1713C26.9132 20.9353 25.855 21.5975 25.6014 22.6593L27.5466 23.124ZM27.2764 24.2553L25.3311 23.7906C25.1889 24.386 25.3272 25.0138 25.7064 25.4944C26.0857 25.9749 26.6642 26.2553 27.2764 26.2553V24.2553ZM27.3158 24.2553V26.2553C28.2662 26.2553 29.0853 25.5865 29.2754 24.6552L27.3158 24.2553ZM9.83532 23.8565L8.20951 23.5275L7.41619 27.448L9.042 27.777L9.83532 23.8565ZM8.37718 23.569C8.30495 23.5478 8.27817 23.5124 8.27049 23.499C8.26631 23.4917 8.26583 23.4878 8.26574 23.4871C8.26567 23.4865 8.26551 23.4849 8.26576 23.4818C8.26601 23.4788 8.26683 23.4721 8.27004 23.4612L4.43258 22.3325C3.76788 24.5925 5.1318 26.7839 7.24852 27.4065L8.37718 23.569ZM8.28498 23.4076L12.0053 9.32364L8.13793 8.30207L4.41763 22.386L8.28498 23.4076ZM11.9903 9.37719C12.0116 9.30495 12.0469 9.27817 12.0604 9.27049C12.0677 9.26631 12.0715 9.26583 12.0723 9.26574C12.0729 9.26567 12.0744 9.26551 12.0775 9.26576C12.0805 9.26601 12.0873 9.26683 12.0982 9.27004L13.2269 5.43258C10.9669 4.76788 8.77544 6.1318 8.15287 8.24852L11.9903 9.37719ZM12.1487 9.28418L27.8935 13.4695L28.9211 9.60376L13.1763 5.41843L12.1487 9.28418ZM27.843 13.4554C27.9152 13.4766 27.942 13.512 27.9497 13.5254C27.9539 13.5327 27.9544 13.5366 27.9545 13.5373C27.9545 13.5379 27.9547 13.5395 27.9544 13.5426C27.9542 13.5456 27.9534 13.5523 27.9502 13.5632L31.7876 14.6919C32.4523 12.4319 31.0884 10.2405 28.9717 9.61791L27.843 13.4554ZM27.9394 13.6013L26.5442 18.7167L30.4033 19.7692L31.7984 14.6538L27.9394 13.6013ZM26.5285 18.7783L26.2485 19.9505L30.139 20.8799L30.419 19.7077L26.5285 18.7783ZM30.3788 17.0615C28.6688 17.0615 27.1605 18.0471 26.4141 19.5026L29.9734 21.3278C30.0648 21.1495 30.2332 21.0615 30.3788 21.0615V17.0615ZM38.1694 17.0615H30.3788V21.0615H38.1694V17.0615ZM42.4403 20.3743C41.9407 18.3761 40.1081 17.0615 38.1694 17.0615V21.0615C38.2459 21.0615 38.3405 21.0896 38.4242 21.1533C38.5047 21.2144 38.5447 21.2845 38.5597 21.3444L42.4403 20.3743ZM43.3609 23.7259L42.4286 20.3299L38.5713 21.3888L39.5036 24.7847L43.3609 23.7259ZM39.4322 24.1887V24.2553H43.4322V24.1887H39.4322ZM45.1611 22.1887H41.4322V26.1887H45.1611V22.1887ZM49.6248 26.6524C49.6248 24.2515 47.6991 22.1887 45.1611 22.1887V26.1887C45.4198 26.1887 45.6248 26.3899 45.6248 26.6524H49.6248ZM49.6248 46.1625V26.6524H45.6248V46.1625H49.6248ZM45.1611 50.6262C47.562 50.6262 49.6248 48.7004 49.6248 46.1625H45.6248C45.6248 46.4211 45.4237 46.6262 45.1611 46.6262V50.6262ZM11.7344 50.6262H45.1611V46.6262H11.7344V50.6262ZM7.27066 46.1625C7.27066 48.5634 9.19641 50.6262 11.7344 50.6262V46.6262C11.4757 46.6262 11.2707 46.425 11.2707 46.1625H7.27066ZM7.27066 26.719V46.1625H11.2707V26.719H7.27066ZM7.57556 25.0895C7.37744 25.5971 7.27066 26.1473 7.27066 26.719H11.2707C11.2707 26.6481 11.2834 26.5909 11.3018 26.544L7.57556 25.0895ZM25.6014 22.6593L25.3311 23.7906L29.2216 24.72L29.4919 23.5887L25.6014 22.6593ZM27.3158 22.2553H27.2764V26.2553H27.3158V22.2553ZM25.587 22.7241L25.3561 23.8554L29.2754 24.6552L29.5062 23.5239L25.587 22.7241Z" fill="black"/>
<path fill-rule="evenodd" clip-rule="evenodd" d="M8.38788 24.7738L6.76207 24.4448C5.6327 24.1126 4.96836 22.9832 5.30053 21.8539L9.02082 7.76988C9.35299 6.64051 10.4824 5.97617 11.6117 6.30834L27.3566 10.4937C28.4859 10.8258 29.1503 11.9552 28.8181 13.0846L27.423 18.2L27.143 19.3722C27.5619 18.5553 28.4002 18.0186 29.328 18.0186H37.1187C38.1841 18.0186 39.1829 18.751 39.4492 19.8164L40.3814 23.2123V23.1458H44.1103C45.5086 23.1458 46.574 24.2777 46.574 25.6095V45.1195C46.574 46.5178 45.442 47.5832 44.1103 47.5832H10.6836C9.28528 47.5832 8.21988 46.4512 8.21988 45.1195V25.6761C8.21988 25.3548 8.27965 25.051 8.38788 24.7738ZM26.4958 22.081L26.2256 23.2123H26.265L26.4958 22.081Z" fill="#B2DAD8"/>
<path d="M8.38788 24.7738L10.251 25.501C10.4657 24.9509 10.4264 24.3341 10.1435 23.8158C9.8607 23.2975 9.36328 22.9306 8.78454 22.8135L8.38788 24.7738ZM6.76207 24.4448L6.19774 26.3635C6.25301 26.3798 6.30895 26.3936 6.36541 26.405L6.76207 24.4448ZM5.30053 21.8539L7.21926 22.4182C7.22449 22.4004 7.22947 22.3826 7.2342 22.3646L5.30053 21.8539ZM9.02082 7.76988L7.10209 7.20555C7.09686 7.22333 7.09188 7.24118 7.08715 7.2591L9.02082 7.76988ZM11.6117 6.30834L11.0474 8.22707C11.0642 8.23201 11.081 8.23672 11.0979 8.24121L11.6117 6.30834ZM27.3566 10.4937L27.9209 8.57494C27.9041 8.57 27.8873 8.56529 27.8704 8.56079L27.3566 10.4937ZM28.8181 13.0846L26.8994 12.5203C26.8957 12.5329 26.8921 12.5456 26.8886 12.5584L28.8181 13.0846ZM27.423 18.2L25.4935 17.6738C25.4879 17.6942 25.4827 17.7147 25.4777 17.7353L27.423 18.2ZM27.143 19.3722L25.1977 18.9075C24.9625 19.8921 25.5 20.8971 26.4494 21.2481C27.3988 21.5992 28.4607 21.1855 28.9226 20.2848L27.143 19.3722ZM39.4492 19.8164L37.5089 20.3015C37.5126 20.3163 37.5165 20.3311 37.5206 20.3458L39.4492 19.8164ZM40.3814 23.2123L38.4528 23.7418C38.7178 24.7074 39.6562 25.3282 40.6485 25.1944C41.6409 25.0607 42.3814 24.2137 42.3814 23.2123H40.3814ZM40.3814 23.1458V21.1458C39.2769 21.1458 38.3814 22.0412 38.3814 23.1458H40.3814ZM26.4958 22.081L28.4555 22.481C28.6737 21.4114 27.994 20.3643 26.9282 20.1283C25.8624 19.8923 24.8042 20.5546 24.5506 21.6163L26.4958 22.081ZM26.2256 23.2123L24.2803 22.7476C24.1381 23.3431 24.2764 23.9709 24.6557 24.4514C25.0349 24.932 25.6134 25.2123 26.2256 25.2123V23.2123ZM26.265 23.2123V25.2123C27.2154 25.2123 28.0345 24.5435 28.2246 23.6123L26.265 23.2123ZM8.78454 22.8135L7.15873 22.4845L6.36541 26.405L7.99122 26.734L8.78454 22.8135ZM7.3264 22.526C7.25417 22.5048 7.22739 22.4694 7.21971 22.456C7.21553 22.4487 7.21505 22.4448 7.21496 22.4441C7.21489 22.4435 7.21473 22.4419 7.21498 22.4388C7.21523 22.4358 7.21605 22.4291 7.21926 22.4182L3.3818 21.2895C2.7171 23.5495 4.08102 25.7409 6.19774 26.3635L7.3264 22.526ZM7.2342 22.3646L10.9545 8.28067L7.08715 7.2591L3.36685 21.3431L7.2342 22.3646ZM10.9396 8.33422C10.9608 8.26198 10.9962 8.2352 11.0096 8.22752C11.0169 8.22334 11.0208 8.22286 11.0215 8.22278C11.0221 8.2227 11.0237 8.22254 11.0268 8.22279C11.0298 8.22304 11.0365 8.22386 11.0474 8.22707L12.1761 4.38961C9.91609 3.72491 7.72466 5.08883 7.10209 7.20555L10.9396 8.33422ZM11.0979 8.24121L26.8428 12.4265L27.8704 8.56079L12.1255 4.37546L11.0979 8.24121ZM26.7922 12.4124C26.8645 12.4336 26.8912 12.469 26.8989 12.4825C26.9031 12.4898 26.9036 12.4936 26.9037 12.4943C26.9037 12.4949 26.9039 12.4965 26.9037 12.4996C26.9034 12.5026 26.9026 12.5093 26.8994 12.5203L30.7368 13.6489C31.4015 11.3889 30.0376 9.19751 27.9209 8.57494L26.7922 12.4124ZM26.8886 12.5584L25.4935 17.6738L29.3525 18.7262L30.7476 13.6108L26.8886 12.5584ZM25.4777 17.7353L25.1977 18.9075L29.0882 19.8369L29.3683 18.6647L25.4777 17.7353ZM29.328 16.0186C27.618 16.0186 26.1097 17.0041 25.3633 18.4597L28.9226 20.2848C29.014 20.1065 29.1824 20.0186 29.328 20.0186V16.0186ZM37.1187 16.0186H29.328V20.0186H37.1187V16.0186ZM41.3895 19.3313C40.89 17.3332 39.0573 16.0186 37.1187 16.0186V20.0186C37.1951 20.0186 37.2897 20.0467 37.3734 20.1103C37.4539 20.1715 37.4939 20.2415 37.5089 20.3015L41.3895 19.3313ZM42.3101 22.6829L41.3779 19.287L37.5206 20.3458L38.4528 23.7418L42.3101 22.6829ZM38.3814 23.1458V23.2123H42.3814V23.1458H38.3814ZM44.1103 21.1458H40.3814V25.1458H44.1103V21.1458ZM48.574 25.6095C48.574 23.2086 46.6483 21.1458 44.1103 21.1458V25.1458C44.369 25.1458 44.574 25.3469 44.574 25.6095H48.574ZM48.574 45.1195V25.6095H44.574V45.1195H48.574ZM44.1103 49.5832C46.5112 49.5832 48.574 47.6575 48.574 45.1195H44.574C44.574 45.3782 44.3729 45.5832 44.1103 45.5832V49.5832ZM10.6836 49.5832H44.1103V45.5832H10.6836V49.5832ZM6.21988 45.1195C6.21988 47.5204 8.14563 49.5832 10.6836 49.5832V45.5832C10.4249 45.5832 10.2199 45.3821 10.2199 45.1195H6.21988ZM6.21988 25.6761V45.1195H10.2199V25.6761H6.21988ZM6.52478 24.0465C6.32665 24.5541 6.21988 25.1044 6.21988 25.6761H10.2199C10.2199 25.6051 10.2326 25.5479 10.251 25.501L6.52478 24.0465ZM24.5506 21.6163L24.2803 22.7476L28.1709 23.677L28.4411 22.5457L24.5506 21.6163ZM26.265 21.2123H26.2256V25.2123H26.265V21.2123ZM24.5362 21.6811L24.3054 22.8124L28.2246 23.6123L28.4555 22.481L24.5362 21.6811Z" fill="#B2DAD8"/>
<path d="M25.8689 20.6669L25.4743 22.7059C25.4743 22.8374 25.3427 22.9032 25.2112 22.9032H10.0178C9.03117 22.9032 8.17613 23.4952 7.84727 24.3502C7.7815 24.4817 7.64995 24.5475 7.51841 24.5475L6.53182 24.2844C5.41369 23.9556 4.75597 22.8374 5.08483 21.7193L7.45263 12.6427C7.45263 12.5769 7.51841 12.5112 7.58418 12.4454L10.5439 11.1957C10.6755 11.13 10.8728 11.1957 10.9386 11.3273L13.3721 17.3126C13.4379 17.4441 13.6352 17.5099 13.7668 17.4441L21.3964 14.0897C21.5279 14.0239 21.6595 14.0897 21.7252 14.2213L25.8031 20.4696C25.8689 20.5354 25.9347 20.6012 25.8689 20.6669Z" stroke="black" stroke-miterlimit="10" stroke-linecap="round" stroke-linejoin="round"/>
<path d="M40.1655 22.6957L39.2332 19.2998C38.9669 18.2344 37.9681 17.502 36.9027 17.502H29.112C27.98 17.502 26.9812 18.301 26.7149 19.433L26.049 22.6957H10.4676C9.13589 22.6957 8.00391 23.7611 8.00391 25.1595V44.6029C8.00391 45.9346 9.0693 47.0666 10.4676 47.0666H43.8943C45.2261 47.0666 46.358 46.0012 46.358 44.6029V25.0929C46.358 23.7611 45.2927 22.6292 43.8943 22.6292H40.1655V22.6957Z" stroke="black" stroke-miterlimit="10" stroke-linecap="round" stroke-linejoin="round"/>
<path d="M32.8989 44.335C38.394 44.335 42.8487 39.8803 42.8487 34.3853C42.8487 28.8902 38.394 24.4355 32.8989 24.4355C27.4039 24.4355 22.9492 28.8902 22.9492 34.3853C22.9492 39.8803 27.4039 44.335 32.8989 44.335Z" stroke="black" stroke-miterlimit="10" stroke-linecap="round" stroke-linejoin="round"/>
<path d="M38.5029 36.0267C39.2642 32.8027 37.2677 29.5719 34.0437 28.8107C30.8197 28.0494 27.589 30.0458 26.8277 33.2698C26.0664 36.4938 28.0628 39.7246 31.2868 40.4859C34.5108 41.2472 37.7416 39.2507 38.5029 36.0267Z" stroke="black" stroke-miterlimit="10" stroke-linecap="round" stroke-linejoin="round"/>
<path d="M7.41087 24.1949L6.54723 23.9292C5.41785 23.597 4.75351 22.4676 5.08568 21.3382L8.80598 7.25426C9.13815 6.12488 10.2675 5.46055 11.3969 5.79271L27.1417 9.97805C28.2711 10.3102 28.9354 11.4396 28.6033 12.569L27.2082 17.6844M32.2571 36.8173C30.9949 36.8173 29.9984 35.8208 29.9984 34.5586C29.9984 33.2963 30.9949 32.2998 32.2571 32.2998C33.5194 32.2998 34.5159 33.2963 34.5159 34.5586C34.5159 35.8208 33.5194 36.8173 32.2571 36.8173ZM16.0473 26.5865C16.0473 27.4501 15.3165 28.1809 14.4529 28.1809C13.5892 28.1809 12.8584 27.4501 12.8584 26.5865C12.8584 25.7229 13.5892 24.9921 14.4529 24.9921C15.3165 24.9921 16.0473 25.7229 16.0473 26.5865ZM10.2011 43.195L7.61017 44.125V32.8313L10.2011 33.7614C11.0647 34.0935 11.5962 34.8907 11.5962 35.8208V41.1355C11.5962 42.0656 11.0647 42.9292 10.2011 43.195Z" stroke="black" stroke-miterlimit="10" stroke-linecap="round" stroke-linejoin="round"/>
<path d="M18.3445 11.4761C18.4424 10.4872 17.7201 9.6061 16.7312 9.50817C15.7423 9.41024 14.8612 10.1325 14.7633 11.1215C14.6653 12.1104 15.3876 12.9915 16.3766 13.0894C17.3655 13.1874 18.2466 12.4651 18.3445 11.4761Z" stroke="black" stroke-miterlimit="10" stroke-linecap="round" stroke-linejoin="round"/>
<line x1="8" y1="28.5" x2="26" y2="28.5" stroke="black"/>
<line x1="42" y1="28.5" x2="47" y2="28.5" stroke="black"/>
</svg>
