<svg width="1200" height="288" viewBox="0 0 1200 288" fill="none" xmlns="http://www.w3.org/2000/svg">
<g clip-path="url(#clip0_1585_791)">
<rect width="1200" height="288" fill="#FCE96C"/>
<path d="M175.807 149.285C163.563 143.598 145.562 154.549 129.512 175.346C127.021 134.315 94.6141 143.457 70.7616 175.346C70.1271 162.398 65.9911 152.857 58.3066 149.285C40.8461 141.177 11.6591 166.91 -6.88235 206.813C-38.8188 273.506 -14.9428 331.809 37.4857 267.678C39.9767 308.709 72.3831 299.567 96.2356 267.678C96.8701 280.626 101.006 290.167 108.691 293.739C151.837 310.26 216.25 171.586 175.807 149.308V149.285Z" fill="black"/>
<path d="M930.662 32.0002C930.662 29.2402 928.422 27.0002 925.662 27.0002H921.077L924.322 23.7552C926.277 21.8002 926.277 18.6352 924.322 16.6852C922.367 14.7352 919.202 14.7302 917.252 16.6852L914.007 19.9302V15.3452C914.007 12.5852 911.767 10.3452 909.007 10.3452C906.247 10.3452 904.007 12.5852 904.007 15.3452V19.9302L900.762 16.6852C898.807 14.7302 895.642 14.7302 893.692 16.6852C891.742 18.6402 891.737 21.8052 893.692 23.7552L896.937 27.0002H892.352C889.592 27.0002 887.352 29.2402 887.352 32.0002C887.352 34.7602 889.592 37.0002 892.352 37.0002H896.937L893.692 40.2452C891.737 42.2002 891.737 45.3652 893.692 47.3152C895.647 49.2702 898.812 49.2702 900.762 47.3152L904.007 44.0702V48.6552C904.007 51.4152 906.247 53.6552 909.007 53.6552C911.767 53.6552 914.007 51.4152 914.007 48.6552V44.0702L917.252 47.3152C919.207 49.2702 922.372 49.2702 924.322 47.3152C926.277 45.3602 926.277 42.1952 924.322 40.2452L921.077 37.0002H925.662C928.422 37.0002 930.662 34.7602 930.662 32.0002Z" fill="black"/>
<path d="M554.675 261.45C537.916 261.648 526.295 242.275 540.032 229.753C545.484 224.935 554.521 225.678 559.11 231.323C563.004 235.728 562.406 243.032 557.839 246.741C554.046 249.957 548.344 249.487 545.132 245.694C543.873 244.211 544.058 241.989 545.541 240.731C547.024 239.472 549.246 239.657 550.504 241.14C551.173 241.963 552.497 242.077 553.289 241.369C554.917 240.044 555.133 237.444 553.742 235.873C551.538 233.163 547.204 232.806 544.586 235.121C540.38 238.685 539.86 245.007 543.424 249.214C548.674 255.409 557.988 256.175 564.179 250.921C565.662 249.663 567.884 249.847 569.142 251.33C570.401 252.813 570.216 255.035 568.733 256.293C564.65 259.756 559.647 261.446 554.675 261.446V261.45Z" fill="black"/>
<path d="M371.087 43.8724C365.019 43.8079 361.691 39.2628 361.743 32.7225C361.769 25.8081 364.585 19.0313 369.47 14.1336C372.815 11.029 377.438 15.6386 374.342 18.9926C370.725 22.6175 368.644 27.627 368.623 32.7483C368.683 37.1644 370.171 37.7019 373.998 36.3603C372.953 33.3589 373.099 29.6394 374.462 25.3867C375.202 23.0819 376.264 20.4718 378.556 18.5927C381.222 16.4083 385.724 15.7805 388.639 18.511C393.438 22.8755 389.663 31.8539 385.814 36.1969C387.775 35.5304 389.478 33.8964 390.815 31.5228C391.74 29.863 393.834 29.2653 395.493 30.1898C397.153 31.1143 397.751 33.2084 396.826 34.8682C395.364 37.4955 392.716 40.9656 388.42 42.5695C385.053 43.8251 381.385 43.5198 378.534 41.8858C376.303 43.0038 373.465 43.8982 371.082 43.8724H371.087ZM383.866 23.5635C381.561 23.5936 380.181 29.7426 380.207 32.1291C381.862 30.3188 383.118 28.1387 383.78 25.7995C384.12 24.5912 384.051 23.8129 383.952 23.5678H383.866V23.5635Z" fill="black"/>
<path d="M1208.14 242.157C1200.48 242.157 1193.91 236.354 1193.11 228.586L1190.24 200.652L1166.88 209.422C1162.14 211.198 1156.81 210.48 1152.69 207.513C1148.58 204.527 1146.24 199.688 1146.45 194.623L1147.05 180.637L1132.54 190.579C1122.48 197.704 1108.01 189.558 1108.89 177.254L1113.2 101.03C1115.11 81.072 1143.73 82.6596 1143.39 102.731L1140.82 148.243L1154.9 138.604C1159.62 135.372 1165.76 135.088 1170.77 137.848C1175.78 140.626 1178.79 145.993 1178.54 151.72L1177.63 173.077L1197.95 165.442C1206.85 161.832 1217.57 168.466 1218.31 178.048L1223.18 225.487C1224.15 234.332 1217.02 242.213 1208.12 242.157H1208.14Z" fill="black"/>
<path d="M962.168 263.229C972.194 257.461 978.906 246.313 979.308 234.75C979.546 227.813 977.315 220.375 971.758 216.211C966.201 212.046 957.027 212.673 953.443 218.613C950.625 223.286 951.674 229.853 947.972 233.859C944.236 237.911 937.748 237.245 932.594 239.179C922.423 243 918.701 258.688 928.079 265.354C936.375 271.248 954.327 267.73 962.168 263.222V263.229Z" fill="black"/>
</g>
<defs>
<clipPath id="clip0_1585_791">
<rect width="1200" height="288" fill="white"/>
</clipPath>
</defs>
</svg>
