<svg width="1151" height="322" viewBox="0 0 1151 322" fill="none" xmlns="http://www.w3.org/2000/svg">
<g clip-path="url(#clip0_1107_1259)">
<rect width="1151" height="322" fill="#D2A350"/>
<path d="M931.483 111H930.517L929.299 90.4349L923.715 95.3025L923.031 94.6335L928.003 89.166L907 87.9734V87.0271L928.003 85.834L923.031 80.3665L923.715 79.6975L929.299 84.5656L930.517 64H931.483L932.701 84.5656L938.285 79.6975L938.969 80.3665L933.997 85.834L955 87.0271V87.9734L933.997 89.166L938.969 94.634L938.285 95.3025L932.701 90.4349L931.483 111ZM930.148 88.4244L931 102.791L931.851 88.4249L932.698 89.1631L931.944 88.3339L946.616 87.5L931.944 86.6661L932.698 85.8369L931.851 86.5756L931 72.2091L930.148 86.5756L929.301 85.8369L930.055 86.6661L915.383 87.5L930.055 88.3339L929.301 89.1631L930.148 88.4244Z" fill="#9870ED"/>
<path d="M698.483 127H697.517L696.299 106.435L690.715 111.303L690.031 110.633L695.003 105.166L674 103.973V103.027L695.003 101.834L690.031 96.3665L690.715 95.6975L696.299 100.566L697.517 80H698.483L699.701 100.566L705.285 95.6975L705.969 96.3665L700.997 101.834L722 103.027V103.973L700.997 105.166L705.969 110.634L705.285 111.303L699.701 106.435L698.483 127ZM697.148 104.424L698 118.791L698.851 104.425L699.698 105.163L698.944 104.334L713.616 103.5L698.944 102.666L699.698 101.837L698.851 102.576L698 88.2091L697.148 102.576L696.301 101.837L697.055 102.666L682.383 103.5L697.055 104.334L696.301 105.163L697.148 104.424Z" fill="#9870ED"/>
<path d="M1084.48 283H1083.52L1082.3 262.435L1076.71 267.303L1076.03 266.633L1081 261.166L1060 259.973V259.027L1081 257.834L1076.03 252.367L1076.71 251.697L1082.3 256.566L1083.52 236H1084.48L1085.7 256.566L1091.29 251.697L1091.97 252.367L1087 257.834L1108 259.027V259.973L1087 261.166L1091.97 266.634L1091.29 267.303L1085.7 262.435L1084.48 283ZM1083.15 260.424L1084 274.791L1084.85 260.425L1085.7 261.163L1084.94 260.334L1099.62 259.5L1084.94 258.666L1085.7 257.837L1084.85 258.576L1084 244.209L1083.15 258.576L1082.3 257.837L1083.06 258.666L1068.38 259.5L1083.06 260.334L1082.3 261.163L1083.15 260.424Z" fill="#9870ED"/>
<path d="M259.483 47H258.517L257.299 26.4349L251.715 31.3025L251.031 30.6335L256.003 25.166L235 23.9734V23.0271L256.003 21.834L251.031 16.3665L251.715 15.6975L257.299 20.5656L258.517 0H259.483L260.701 20.5656L266.285 15.6975L266.969 16.3665L261.997 21.834L283 23.0271V23.9734L261.997 25.166L266.969 30.634L266.285 31.3025L260.701 26.4349L259.483 47ZM258.148 24.4244L259 38.7914L259.851 24.4249L260.698 25.1631L259.944 24.3339L274.616 23.5L259.944 22.6661L260.698 21.8369L259.851 22.5756L259 8.20907L258.148 22.5756L257.301 21.8369L258.055 22.6661L243.383 23.5L258.055 24.3339L257.301 25.1631L258.148 24.4244Z" fill="#9870ED"/>
<path d="M1019.32 81L1014.1 76.3589L1013.98 78.4237L1013.02 78.4242L1012.9 76.3589L1007.68 81L1007 80.3161L1011.64 75.1035L1009.58 74.9839V74.0166L1011.64 73.897L1007 68.6839L1007.68 68L1012.9 72.6415L1013.02 70.5763H1013.98L1014.1 72.6415L1019.32 68L1020 68.6839L1015.36 73.897L1017.42 74.0166V74.9839L1015.36 75.1035L1020 80.3161L1019.32 81Z" fill="#9870ED"/>
<path d="M602.316 296L597.104 291.359L596.984 293.424L596.017 293.424L595.897 291.359L590.684 296L590 295.316L594.641 290.103L592.576 289.984V289.017L594.641 288.897L590 283.684L590.684 283L595.897 287.642L596.017 285.576H596.984L597.104 287.642L602.316 283L603 283.684L598.359 288.897L600.424 289.017V289.984L598.359 290.103L603 295.316L602.316 296Z" fill="#9870ED"/>
<path d="M74.3161 277L69.1035 272.359L68.9839 274.424L68.0166 274.424L67.897 272.359L62.6839 277L62 276.316L66.6411 271.103L64.5763 270.984V270.017L66.6411 269.897L62 264.684L62.6839 264L67.897 268.642L68.0166 266.576H68.9839L69.1035 268.642L74.3161 264L75 264.684L70.3589 269.897L72.4237 270.017V270.984L70.3589 271.103L75 276.316L74.3161 277Z" fill="#9870ED"/>
<path d="M900.316 135L895.103 130.359L894.984 132.424H894.016L893.897 130.359L888.684 135L888 134.316L892.641 129.103L890.577 128.984L890.576 128.016L892.641 127.897L888 122.684L888.684 122L893.897 126.641L894.016 124.576H894.984L895.103 126.641L900.316 122L901 122.684L896.359 127.897L898.424 128.016V128.984L896.359 129.103L901 134.316L900.316 135Z" fill="#9870ED"/>
<path d="M632.316 55L627.103 50.3586L626.984 52.4238H626.016L625.897 50.3586L620.684 55L620 54.3161L624.641 49.1032L622.577 48.9836L622.576 48.0164L624.641 47.8968L620 42.6844L620.684 42L625.897 46.6414L626.016 44.5762H626.984L627.103 46.6414L632.316 42L633 42.6844L628.359 47.8968L630.424 48.0164V48.9836L628.359 49.1032L633 54.3161L632.316 55Z" fill="#9870ED"/>
<path d="M967.316 290L962.103 285.359L961.984 287.424H961.016L960.897 285.359L955.684 290L955 289.316L959.641 284.103L957.577 283.984L957.576 283.016L959.641 282.897L955 277.684L955.684 277L960.897 281.641L961.016 279.576H961.984L962.103 281.641L967.316 277L968 277.684L963.359 282.897L965.424 283.016V283.984L963.359 284.103L968 289.316L967.316 290Z" fill="#9870ED"/>
<path d="M967.316 290L962.103 285.359L961.984 287.424H961.016L960.897 285.359L955.684 290L955 289.316L959.641 284.103L957.577 283.984L957.576 283.016L959.641 282.897L955 277.684L955.684 277L960.897 281.641L961.016 279.576H961.984L962.103 281.641L967.316 277L968 277.684L963.359 282.897L965.424 283.016V283.984L963.359 284.103L968 289.316L967.316 290Z" fill="#9870ED"/>
<path d="M962.755 48.7398C962.089 48.7398 961.438 48.5421 960.884 48.1718C960.33 47.8016 959.898 47.2753 959.643 46.6595C959.388 46.0437 959.321 45.3662 959.451 44.7125C959.581 44.0588 959.902 43.4583 960.373 42.987C960.844 42.5157 961.444 42.1948 962.098 42.0648C962.751 41.9347 963.429 42.0015 964.044 42.2565C964.66 42.5116 965.186 42.9435 965.556 43.4977C965.926 44.0519 966.124 44.7034 966.124 45.3699C966.123 46.2633 965.768 47.1199 965.136 47.7516C964.504 48.3834 963.648 48.7388 962.755 48.7398ZM962.755 43.4442C962.374 43.4442 962.002 43.5572 961.686 43.7688C961.369 43.9804 961.122 44.2811 960.977 44.633C960.831 44.9848 960.793 45.372 960.867 45.7456C960.941 46.1191 961.125 46.4622 961.394 46.7315C961.663 47.0008 962.006 47.1842 962.38 47.2585C962.753 47.3328 963.14 47.2947 963.492 47.149C963.844 47.0032 964.144 46.7564 964.356 46.4397C964.567 46.1231 964.68 45.7507 964.68 45.3699C964.679 44.8594 964.476 44.3699 964.116 44.009C963.755 43.648 963.265 43.4449 962.755 43.4442ZM889.369 104.822C888.702 104.822 888.051 104.624 887.497 104.254C886.943 103.884 886.511 103.357 886.256 102.742C886.001 102.126 885.935 101.448 886.065 100.795C886.195 100.141 886.516 99.5404 886.987 99.0691C887.458 98.5979 888.058 98.2769 888.712 98.1469C889.365 98.0169 890.042 98.0836 890.658 98.3386C891.273 98.5937 891.8 99.0256 892.17 99.5798C892.54 100.134 892.737 100.786 892.737 101.452C892.736 102.345 892.381 103.202 891.75 103.834C891.118 104.466 890.262 104.821 889.369 104.822ZM889.369 99.5264C888.988 99.5264 888.616 99.6393 888.299 99.8509C887.983 100.062 887.736 100.363 887.59 100.715C887.445 101.067 887.406 101.454 887.481 101.828C887.555 102.201 887.738 102.544 888.008 102.814C888.277 103.083 888.62 103.266 888.993 103.341C889.367 103.415 889.754 103.377 890.105 103.231C890.457 103.085 890.758 102.839 890.969 102.522C891.181 102.205 891.294 101.833 891.294 101.452C891.293 100.941 891.09 100.452 890.729 100.091C890.368 99.7301 889.879 99.527 889.369 99.5264ZM1087.63 188.824C1086.97 188.824 1086.31 188.626 1085.76 188.256C1085.21 187.886 1084.77 187.359 1084.52 186.744C1084.26 186.128 1084.2 185.45 1084.33 184.797C1084.46 184.143 1084.78 183.543 1085.25 183.071C1085.72 182.6 1086.32 182.279 1086.97 182.149C1087.63 182.019 1088.3 182.086 1088.92 182.341C1089.54 182.596 1090.06 183.028 1090.43 183.582C1090.8 184.136 1091 184.788 1091 185.454C1091 186.348 1090.64 187.204 1090.01 187.836C1089.38 188.467 1088.52 188.823 1087.63 188.824ZM1087.63 183.528C1087.25 183.528 1086.88 183.641 1086.56 183.853C1086.25 184.065 1086 184.365 1085.85 184.717C1085.71 185.069 1085.67 185.456 1085.74 185.83C1085.82 186.203 1086 186.546 1086.27 186.816C1086.54 187.085 1086.88 187.268 1087.26 187.343C1087.63 187.417 1088.02 187.379 1088.37 187.233C1088.72 187.087 1089.02 186.841 1089.23 186.524C1089.44 186.207 1089.56 185.835 1089.56 185.454C1089.56 184.944 1089.35 184.454 1088.99 184.093C1088.63 183.732 1088.14 183.529 1087.63 183.528ZM897.549 236C896.883 236 896.232 235.802 895.678 235.432C895.124 235.062 894.692 234.535 894.437 233.92C894.182 233.304 894.115 232.626 894.245 231.973C894.375 231.319 894.696 230.719 895.167 230.247C895.638 229.776 896.239 229.455 896.892 229.325C897.546 229.195 898.223 229.262 898.839 229.517C899.454 229.772 899.98 230.204 900.35 230.758C900.721 231.312 900.918 231.964 900.918 232.63C900.917 233.524 900.562 234.38 899.93 235.012C899.299 235.644 898.443 235.999 897.549 236ZM897.549 230.704C897.169 230.704 896.796 230.817 896.48 231.029C896.163 231.241 895.917 231.541 895.771 231.893C895.625 232.245 895.587 232.632 895.661 233.006C895.736 233.379 895.919 233.722 896.188 233.992C896.457 234.261 896.8 234.444 897.174 234.519C897.547 234.593 897.934 234.555 898.286 234.409C898.638 234.263 898.938 234.017 899.15 233.7C899.361 233.383 899.474 233.011 899.474 232.63C899.474 232.12 899.271 231.63 898.91 231.269C898.549 230.908 898.06 230.705 897.549 230.704ZM1020.5 101.452C1019.83 101.452 1019.18 101.254 1018.63 100.884C1018.08 100.514 1017.64 99.9875 1017.39 99.3717C1017.13 98.756 1017.07 98.0784 1017.2 97.4247C1017.33 96.771 1017.65 96.1705 1018.12 95.6993C1018.59 95.228 1019.19 94.907 1019.84 94.777C1020.5 94.647 1021.17 94.7137 1021.79 94.9688C1022.41 95.2238 1022.93 95.6558 1023.3 96.2099C1023.67 96.7641 1023.87 97.4156 1023.87 98.0821C1023.87 98.9756 1023.51 99.8321 1022.88 100.464C1022.25 101.096 1021.39 101.451 1020.5 101.452ZM1020.5 96.1565C1020.12 96.1565 1019.75 96.2694 1019.43 96.481C1019.12 96.6926 1018.87 96.9933 1018.72 97.3452C1018.58 97.6971 1018.54 98.0843 1018.61 98.4578C1018.69 98.8313 1018.87 99.1745 1019.14 99.4438C1019.41 99.7131 1019.75 99.8965 1020.13 99.9708C1020.5 100.045 1020.89 100.007 1021.24 99.8612C1021.59 99.7155 1021.89 99.4686 1022.1 99.152C1022.31 98.8353 1022.43 98.463 1022.43 98.0821C1022.43 97.5716 1022.22 97.0822 1021.86 96.7212C1021.5 96.3602 1021.01 96.1571 1020.5 96.1565Z" fill="#9870ED"/>
<path d="M392.755 13.7398C392.089 13.7398 391.438 13.5421 390.884 13.1718C390.33 12.8016 389.898 12.2753 389.643 11.6595C389.388 11.0437 389.321 10.3662 389.451 9.71246C389.581 9.05877 389.902 8.45832 390.373 7.98703C390.844 7.51574 391.444 7.19478 392.098 7.06475C392.751 6.93472 393.429 7.00146 394.044 7.25652C394.66 7.51158 395.186 7.94352 395.556 8.49769C395.926 9.05187 396.124 9.70339 396.124 10.3699C396.123 11.2633 395.768 12.1199 395.136 12.7516C394.504 13.3834 393.648 13.7388 392.755 13.7398ZM392.755 8.44424C392.374 8.44424 392.002 8.55719 391.686 8.76878C391.369 8.98037 391.122 9.28111 390.977 9.63298C390.831 9.98485 390.793 10.372 390.867 10.7456C390.941 11.1191 391.125 11.4622 391.394 11.7315C391.663 12.0008 392.006 12.1842 392.38 12.2585C392.753 12.3328 393.14 12.2947 393.492 12.149C393.844 12.0032 394.144 11.7564 394.356 11.4397C394.567 11.1231 394.68 10.7507 394.68 10.3699C394.679 9.85937 394.476 9.36995 394.116 9.00896C393.755 8.64797 393.265 8.44488 392.755 8.44424ZM319.369 69.8219C318.702 69.8219 318.051 69.6243 317.497 69.254C316.943 68.8837 316.511 68.3574 316.256 67.7416C316.001 67.1259 315.935 66.4483 316.065 65.7946C316.195 65.1409 316.516 64.5404 316.987 64.0691C317.458 63.5979 318.058 63.2769 318.712 63.1469C319.365 63.0169 320.042 63.0836 320.658 63.3386C321.273 63.5937 321.8 64.0256 322.17 64.5798C322.54 65.134 322.737 65.7855 322.737 66.452C322.736 67.3454 322.381 68.202 321.75 68.8338C321.118 69.4655 320.262 69.8209 319.369 69.8219ZM319.369 64.5264C318.988 64.5264 318.616 64.6393 318.299 64.8509C317.983 65.0625 317.736 65.3632 317.59 65.7151C317.445 66.067 317.406 66.4542 317.481 66.8277C317.555 67.2012 317.738 67.5443 318.008 67.8137C318.277 68.083 318.62 68.2664 318.993 68.3407C319.367 68.415 319.754 68.3768 320.105 68.2311C320.457 68.0853 320.758 67.8385 320.969 67.5218C321.181 67.2052 321.294 66.8329 321.294 66.452C321.293 65.9415 321.09 65.4521 320.729 65.0911C320.368 64.7301 319.879 64.527 319.369 64.5264ZM517.631 153.824C516.965 153.824 516.314 153.626 515.76 153.256C515.206 152.886 514.774 152.359 514.519 151.744C514.264 151.128 514.197 150.45 514.327 149.797C514.457 149.143 514.778 148.543 515.249 148.071C515.72 147.6 516.321 147.279 516.974 147.149C517.628 147.019 518.305 147.086 518.92 147.341C519.536 147.596 520.062 148.028 520.432 148.582C520.802 149.136 521 149.788 521 150.454C520.999 151.348 520.644 152.204 520.012 152.836C519.381 153.467 518.524 153.823 517.631 153.824ZM517.631 148.528C517.251 148.528 516.878 148.641 516.562 148.853C516.245 149.065 515.999 149.365 515.853 149.717C515.707 150.069 515.669 150.456 515.743 150.83C515.818 151.203 516.001 151.546 516.27 151.816C516.539 152.085 516.882 152.268 517.256 152.343C517.629 152.417 518.016 152.379 518.368 152.233C518.72 152.087 519.02 151.841 519.232 151.524C519.443 151.207 519.556 150.835 519.556 150.454C519.556 149.944 519.353 149.454 518.992 149.093C518.631 148.732 518.142 148.529 517.631 148.528ZM327.549 201C326.883 201 326.232 200.802 325.678 200.432C325.124 200.062 324.692 199.535 324.437 198.92C324.182 198.304 324.115 197.626 324.245 196.973C324.375 196.319 324.696 195.719 325.167 195.247C325.638 194.776 326.239 194.455 326.892 194.325C327.546 194.195 328.223 194.262 328.839 194.517C329.454 194.772 329.98 195.204 330.35 195.758C330.721 196.312 330.918 196.964 330.918 197.63C330.917 198.524 330.562 199.38 329.93 200.012C329.299 200.644 328.443 200.999 327.549 201ZM327.549 195.704C327.169 195.704 326.796 195.817 326.48 196.029C326.163 196.241 325.917 196.541 325.771 196.893C325.625 197.245 325.587 197.632 325.661 198.006C325.736 198.379 325.919 198.722 326.188 198.992C326.457 199.261 326.8 199.444 327.174 199.519C327.547 199.593 327.934 199.555 328.286 199.409C328.638 199.263 328.938 199.017 329.15 198.7C329.361 198.383 329.474 198.011 329.474 197.63C329.474 197.12 329.271 196.63 328.91 196.269C328.549 195.908 328.06 195.705 327.549 195.704ZM450.501 66.452C449.835 66.452 449.183 66.2544 448.63 65.8841C448.076 65.5138 447.644 64.9875 447.389 64.3717C447.134 63.756 447.067 63.0784 447.197 62.4247C447.327 61.771 447.648 61.1705 448.119 60.6993C448.59 60.228 449.19 59.907 449.844 59.777C450.497 59.647 451.175 59.7137 451.79 59.9688C452.406 60.2238 452.932 60.6558 453.302 61.2099C453.672 61.7641 453.87 62.4156 453.87 63.0821C453.869 63.9756 453.514 64.8321 452.882 65.4639C452.25 66.0956 451.394 66.451 450.501 66.452ZM450.501 61.1565C450.12 61.1565 449.748 61.2694 449.432 61.481C449.115 61.6926 448.868 61.9933 448.723 62.3452C448.577 62.6971 448.539 63.0843 448.613 63.4578C448.687 63.8313 448.871 64.1745 449.14 64.4438C449.409 64.7131 449.752 64.8965 450.126 64.9708C450.499 65.0451 450.886 65.0069 451.238 64.8612C451.589 64.7155 451.89 64.4686 452.102 64.152C452.313 63.8353 452.426 63.463 452.426 63.0821C452.425 62.5716 452.222 62.0822 451.862 61.7212C451.501 61.3602 451.011 61.1571 450.501 61.1565Z" fill="#9870ED"/>
<path d="M35.7551 -26.2602C35.0888 -26.2602 34.4375 -26.4579 33.8836 -26.8282C33.3296 -27.1984 32.8978 -27.7247 32.6428 -28.3405C32.3878 -28.9563 32.3211 -29.6338 32.4511 -30.2875C32.5811 -30.9412 32.9019 -31.5417 33.3731 -32.013C33.8442 -32.4843 34.4444 -32.8052 35.0979 -32.9352C35.7514 -33.0653 36.4287 -32.9985 37.0442 -32.7435C37.6598 -32.4884 38.1859 -32.0565 38.5561 -31.5023C38.9262 -30.9481 39.1238 -30.2966 39.1238 -29.6301C39.1228 -28.7367 38.7676 -27.8801 38.136 -27.2484C37.5045 -26.6166 36.6482 -26.2612 35.7551 -26.2602ZM35.7551 -31.5558C35.3744 -31.5558 35.0022 -31.4428 34.6856 -31.2312C34.3691 -31.0196 34.1224 -30.7189 33.9767 -30.367C33.831 -30.0152 33.7928 -29.628 33.8671 -29.2544C33.9414 -28.8809 34.1247 -28.5378 34.3939 -28.2685C34.6632 -27.9992 35.0061 -27.8158 35.3796 -27.7415C35.753 -27.6672 36.14 -27.7053 36.4918 -27.851C36.8435 -27.9968 37.1441 -28.2436 37.3557 -28.5603C37.5672 -28.8769 37.6801 -29.2493 37.6801 -29.6301C37.6794 -30.1406 37.4764 -30.6301 37.1156 -30.991C36.7547 -31.352 36.2654 -31.5551 35.7551 -31.5558ZM-37.6313 29.8219C-38.2976 29.8219 -38.9489 29.6243 -39.5028 29.254C-40.0568 28.8837 -40.4886 28.3574 -40.7436 27.7416C-40.9985 27.1259 -41.0653 26.4483 -40.9353 25.7946C-40.8053 25.1409 -40.4845 24.5404 -40.0133 24.0691C-39.5422 23.5979 -38.942 23.2769 -38.2885 23.1469C-37.635 23.0169 -36.9577 23.0836 -36.3421 23.3386C-35.7266 23.5937 -35.2005 24.0256 -34.8303 24.5798C-34.4602 25.134 -34.2626 25.7855 -34.2626 26.452C-34.2636 27.3454 -34.6188 28.202 -35.2504 28.8338C-35.8819 29.4655 -36.7382 29.8209 -37.6313 29.8219ZM-37.6313 24.5264C-38.012 24.5264 -38.3842 24.6393 -38.7008 24.8509C-39.0173 25.0625 -39.264 25.3632 -39.4097 25.7151C-39.5554 26.067 -39.5936 26.4542 -39.5193 26.8277C-39.445 27.2012 -39.2617 27.5443 -38.9925 27.8137C-38.7232 28.083 -38.3802 28.2664 -38.0068 28.3407C-37.6334 28.415 -37.2464 28.3768 -36.8946 28.2311C-36.5429 28.0853 -36.2422 27.8385 -36.0307 27.5218C-35.8192 27.2052 -35.7063 26.8329 -35.7063 26.452C-35.7069 25.9415 -35.91 25.4521 -36.2708 25.0911C-36.6317 24.7301 -37.1209 24.527 -37.6313 24.5264ZM160.631 113.824C159.965 113.824 159.314 113.626 158.76 113.256C158.206 112.886 157.774 112.359 157.519 111.744C157.264 111.128 157.197 110.45 157.327 109.797C157.457 109.143 157.778 108.543 158.249 108.071C158.72 107.6 159.321 107.279 159.974 107.149C160.628 107.019 161.305 107.086 161.92 107.341C162.536 107.596 163.062 108.028 163.432 108.582C163.802 109.136 164 109.788 164 110.454C163.999 111.348 163.644 112.204 163.012 112.836C162.381 113.467 161.524 113.823 160.631 113.824ZM160.631 108.528C160.251 108.528 159.878 108.641 159.562 108.853C159.245 109.065 158.999 109.365 158.853 109.717C158.707 110.069 158.669 110.456 158.743 110.83C158.818 111.203 159.001 111.546 159.27 111.816C159.539 112.085 159.882 112.268 160.256 112.343C160.629 112.417 161.016 112.379 161.368 112.233C161.72 112.087 162.02 111.841 162.232 111.524C162.443 111.207 162.556 110.835 162.556 110.454C162.556 109.944 162.353 109.454 161.992 109.093C161.631 108.732 161.142 108.529 160.631 108.528ZM-29.4506 161C-30.1169 161 -30.7682 160.802 -31.3222 160.432C-31.8762 160.062 -32.3079 159.535 -32.5629 158.92C-32.8179 158.304 -32.8846 157.626 -32.7546 156.973C-32.6246 156.319 -32.3038 155.719 -31.8327 155.247C-31.3615 154.776 -30.7613 154.455 -30.1078 154.325C-29.4544 154.195 -28.777 154.262 -28.1615 154.517C-27.5459 154.772 -27.0198 155.204 -26.6496 155.758C-26.2795 156.312 -26.0819 156.964 -26.0819 157.63C-26.0829 158.524 -26.4382 159.38 -27.0697 160.012C-27.7012 160.644 -28.5575 160.999 -29.4506 161ZM-29.4506 155.704C-29.8313 155.704 -30.2035 155.817 -30.5201 156.029C-30.8366 156.241 -31.0834 156.541 -31.2291 156.893C-31.3748 157.245 -31.4129 157.632 -31.3386 158.006C-31.2643 158.379 -31.081 158.722 -30.8118 158.992C-30.5426 159.261 -30.1996 159.444 -29.8262 159.519C-29.4527 159.593 -29.0657 159.555 -28.714 159.409C-28.3622 159.263 -28.0616 159.017 -27.8501 158.7C-27.6385 158.383 -27.5256 158.011 -27.5256 157.63C-27.5262 157.12 -27.7291 156.63 -28.09 156.269C-28.4509 155.908 -28.9402 155.705 -29.4506 155.704ZM93.5011 26.452C92.8348 26.452 92.1835 26.2544 91.6295 25.8841C91.0755 25.5138 90.6438 24.9875 90.3888 24.3717C90.1338 23.756 90.0671 23.0784 90.1971 22.4247C90.3271 21.771 90.6479 21.1705 91.119 20.6993C91.5901 20.228 92.1904 19.907 92.8439 19.777C93.4973 19.647 94.1747 19.7137 94.7902 19.9688C95.4058 20.2238 95.9319 20.6558 96.302 21.2099C96.6722 21.7641 96.8698 22.4156 96.8698 23.0821C96.8688 23.9756 96.5135 24.8321 95.882 25.4639C95.2504 26.0956 94.3942 26.451 93.5011 26.452ZM93.5011 21.1565C93.1203 21.1565 92.7482 21.2694 92.4316 21.481C92.115 21.6926 91.8683 21.9933 91.7226 22.3452C91.5769 22.6971 91.5388 23.0843 91.6131 23.4578C91.6873 23.8313 91.8707 24.1745 92.1399 24.4438C92.4091 24.7131 92.7521 24.8965 93.1255 24.9708C93.4989 25.0451 93.886 25.0069 94.2377 24.8612C94.5895 24.7155 94.8901 24.4686 95.1016 24.152C95.3131 23.8353 95.426 23.463 95.426 23.0821C95.4254 22.5716 95.2224 22.0822 94.8615 21.7212C94.5007 21.3602 94.0114 21.1571 93.5011 21.1565Z" fill="#9870ED"/>
<path d="M638.755 -52.2602C638.089 -52.2602 637.438 -52.4579 636.884 -52.8282C636.33 -53.1984 635.898 -53.7247 635.643 -54.3405C635.388 -54.9563 635.321 -55.6338 635.451 -56.2875C635.581 -56.9412 635.902 -57.5417 636.373 -58.013C636.844 -58.4843 637.444 -58.8052 638.098 -58.9352C638.751 -59.0653 639.429 -58.9985 640.044 -58.7435C640.66 -58.4884 641.186 -58.0565 641.556 -57.5023C641.926 -56.9481 642.124 -56.2966 642.124 -55.6301C642.123 -54.7367 641.768 -53.8801 641.136 -53.2484C640.504 -52.6166 639.648 -52.2612 638.755 -52.2602ZM638.755 -57.5558C638.374 -57.5558 638.002 -57.4428 637.686 -57.2312C637.369 -57.0196 637.122 -56.7189 636.977 -56.367C636.831 -56.0152 636.793 -55.628 636.867 -55.2544C636.941 -54.8809 637.125 -54.5378 637.394 -54.2685C637.663 -53.9992 638.006 -53.8158 638.38 -53.7415C638.753 -53.6672 639.14 -53.7053 639.492 -53.851C639.844 -53.9968 640.144 -54.2436 640.356 -54.5603C640.567 -54.8769 640.68 -55.2493 640.68 -55.6301C640.679 -56.1406 640.476 -56.6301 640.116 -56.991C639.755 -57.352 639.265 -57.5551 638.755 -57.5558ZM565.369 3.8219C564.702 3.8219 564.051 3.62426 563.497 3.25397C562.943 2.88368 562.511 2.35739 562.256 1.74162C562.001 1.12585 561.935 0.448275 562.065 -0.205419C562.195 -0.859113 562.516 -1.45957 562.987 -1.93085C563.458 -2.40214 564.058 -2.72309 564.712 -2.85311C565.365 -2.98314 566.042 -2.91642 566.658 -2.66136C567.273 -2.4063 567.8 -1.97436 568.17 -1.42019C568.54 -0.866014 568.737 -0.214488 568.737 0.452012C568.736 1.34545 568.381 2.202 567.75 2.83376C567.118 3.46552 566.262 3.82088 565.369 3.8219ZM565.369 -1.47364C564.988 -1.47364 564.616 -1.36069 564.299 -1.1491C563.983 -0.937508 563.736 -0.636767 563.59 -0.284901C563.445 0.0669659 563.406 0.45415 563.481 0.82769C563.555 1.20123 563.738 1.54435 564.008 1.81365C564.277 2.08296 564.62 2.26637 564.993 2.34067C565.367 2.41497 565.754 2.37683 566.105 2.23108C566.457 2.08534 566.758 1.83852 566.969 1.52185C567.181 1.20518 567.294 0.83287 567.294 0.452012C567.293 -0.0585061 567.09 -0.547932 566.729 -0.908924C566.368 -1.26991 565.879 -1.473 565.369 -1.47364ZM763.631 87.824C762.965 87.824 762.314 87.6264 761.76 87.2561C761.206 86.8858 760.774 86.3595 760.519 85.7437C760.264 85.128 760.197 84.4504 760.327 83.7967C760.457 83.143 760.778 82.5425 761.249 82.0712C761.72 81.6 762.321 81.279 762.974 81.149C763.628 81.0189 764.305 81.0857 764.92 81.3408C765.536 81.5958 766.062 82.0277 766.432 82.5819C766.802 83.1361 767 83.7876 767 84.4541C766.999 85.3475 766.644 86.204 766.012 86.8357C765.381 87.4674 764.524 87.8229 763.631 87.824ZM763.631 82.5285C763.251 82.5285 762.878 82.6414 762.562 82.853C762.245 83.0646 761.999 83.3653 761.853 83.7172C761.707 84.0691 761.669 84.4562 761.743 84.8298C761.818 85.2033 762.001 85.5465 762.27 85.8158C762.539 86.0851 762.882 86.2685 763.256 86.3428C763.629 86.4171 764.016 86.3789 764.368 86.2332C764.72 86.0874 765.02 85.8406 765.232 85.5239C765.443 85.2073 765.556 84.835 765.556 84.4541C765.556 83.9436 765.353 83.4541 764.992 83.093C764.631 82.732 764.142 82.529 763.631 82.5285ZM573.549 135C572.883 135 572.232 134.802 571.678 134.432C571.124 134.062 570.692 133.535 570.437 132.92C570.182 132.304 570.115 131.626 570.245 130.973C570.375 130.319 570.696 129.719 571.167 129.247C571.638 128.776 572.239 128.455 572.892 128.325C573.546 128.195 574.223 128.262 574.839 128.517C575.454 128.772 575.98 129.204 576.35 129.758C576.721 130.312 576.918 130.964 576.918 131.63C576.917 132.524 576.562 133.38 575.93 134.012C575.299 134.644 574.443 134.999 573.549 135ZM573.549 129.704C573.169 129.704 572.796 129.817 572.48 130.029C572.163 130.241 571.917 130.541 571.771 130.893C571.625 131.245 571.587 131.632 571.661 132.006C571.736 132.379 571.919 132.722 572.188 132.992C572.457 133.261 572.8 133.444 573.174 133.519C573.547 133.593 573.934 133.555 574.286 133.409C574.638 133.263 574.938 133.017 575.15 132.7C575.361 132.383 575.474 132.011 575.474 131.63C575.474 131.12 575.271 130.63 574.91 130.269C574.549 129.908 574.06 129.705 573.549 129.704ZM696.501 0.452012C695.835 0.452012 695.183 0.254369 694.63 -0.115918C694.076 -0.486206 693.644 -1.0125 693.389 -1.62827C693.134 -2.24403 693.067 -2.92161 693.197 -3.57531C693.327 -4.229 693.648 -4.82945 694.119 -5.30074C694.59 -5.77202 695.19 -6.09297 695.844 -6.223C696.497 -6.35303 697.175 -6.2863 697.79 -6.03125C698.406 -5.77619 698.932 -5.34425 699.302 -4.79007C699.672 -4.2359 699.87 -3.58437 699.87 -2.91787C699.869 -2.02444 699.514 -1.16788 698.882 -0.536126C698.25 0.0956296 697.394 0.450993 696.501 0.452012ZM696.501 -4.84352C696.12 -4.84352 695.748 -4.73058 695.432 -4.51899C695.115 -4.30739 694.868 -4.00665 694.723 -3.65479C694.577 -3.30292 694.539 -2.91574 694.613 -2.5422C694.687 -2.16866 694.871 -1.82554 695.14 -1.55623C695.409 -1.28693 695.752 -1.10352 696.126 -1.02922C696.499 -0.954916 696.886 -0.993054 697.238 -1.1388C697.589 -1.28455 697.89 -1.53136 698.102 -1.84804C698.313 -2.16471 698.426 -2.53702 698.426 -2.91787C698.425 -3.42839 698.222 -3.91782 697.862 -4.27881C697.501 -4.6398 697.011 -4.84289 696.501 -4.84352Z" fill="#9870ED"/>
</g>
<defs>
<clipPath id="clip0_1107_1259">
<rect width="1151" height="322" fill="white"/>
</clipPath>
</defs>
</svg>
