<svg width="82" height="82" viewBox="0 0 82 82" fill="none" xmlns="http://www.w3.org/2000/svg">
<circle cx="42.5017" cy="42.5" r="38.6635" transform="rotate(33.083 42.5017 42.5)" fill="black"/>
<circle cx="38.6818" cy="38.6818" r="38.1818" fill="#DF7CB0" stroke="black"/>
<path d="M60.1935 21.5849C59.8746 21.1808 59.4771 20.8455 59.0249 20.5994C58.5727 20.3534 58.0753 20.2016 57.5628 20.1534C57.0502 20.1052 56.5332 20.1615 56.0431 20.319C55.5529 20.4764 55.0998 20.7317 54.7112 21.0693L50.8663 24.3585H20.637C19.7069 24.3595 18.8152 24.7294 18.1575 25.3871C17.4999 26.0448 17.1299 26.9365 17.1289 27.8666V47.2745C17.1299 48.2046 17.4999 49.0963 18.1575 49.754C18.8152 50.4116 19.7069 50.7816 20.637 50.7826H32.662C32.6258 52.3006 30.1024 54.9297 28.0873 56.486C27.9612 56.5872 27.8694 56.7247 27.8243 56.8799C27.7792 57.0351 27.783 57.2004 27.8352 57.3534C27.8874 57.5063 27.9854 57.6395 28.116 57.7347C28.2465 57.83 28.4033 57.8827 28.5648 57.8857H42.7719C42.936 57.8827 43.0949 57.8283 43.2265 57.7303C43.3581 57.6323 43.4558 57.4956 43.5057 57.3393C43.5557 57.183 43.5555 57.015 43.5051 56.8588C43.4548 56.7026 43.3568 56.5661 43.225 56.4684C42.0544 55.6346 39.2353 53.1383 38.858 50.7826H50.6997C51.6298 50.7815 52.5215 50.4116 53.1792 49.7539C53.8368 49.0963 54.2068 48.2045 54.2078 47.2745V30.1094L59.3536 26.6812C60.1351 26.1124 60.6613 25.2589 60.8184 24.3053C60.9756 23.3516 60.7511 22.3744 60.1935 21.5849ZM40.6254 56.3236H30.6899C32.2282 54.8969 34.176 52.7119 34.2196 50.7826H37.2776C37.5195 52.9813 39.254 55.0266 40.6254 56.3236ZM50.6997 49.2204H20.637C20.1211 49.2199 19.6264 49.0147 19.2616 48.6499C18.8968 48.2851 18.6916 47.7904 18.6911 47.2745V46.3431H52.6456V47.2745C52.6451 47.7904 52.4399 48.2851 52.0751 48.6499C51.7103 49.0147 51.2156 49.2199 50.6997 49.2204ZM52.6456 44.7809H18.6911V27.8666C18.6916 27.3507 18.8968 26.856 19.2616 26.4912C19.6264 26.1264 20.1211 25.9212 20.637 25.9207H49.0401L42.8894 31.1825C42.6021 31.4505 42.3695 31.7716 42.2045 32.1281C41.4485 31.8478 40.6314 31.7742 39.8374 31.9148C38.3224 32.1809 37.7595 33.7355 37.9854 35.0622C38.0654 36.1003 38.1402 37.0805 35.8533 38.8479C35.6633 38.9711 35.528 39.1627 35.4756 39.3831C35.4231 39.6034 35.4576 39.8354 35.5718 40.031C35.7679 40.3544 36.311 40.4765 37.0173 40.4765C38.9615 40.3351 40.8806 39.953 42.7307 39.3391C43.3974 39.0225 43.96 38.5223 44.3525 37.8973C44.7451 37.2723 44.9514 36.5484 44.9471 35.8103C45.3609 35.7826 45.765 35.6726 46.1358 35.487L52.6456 31.1502L52.6456 44.7809ZM43.3104 36.3886C42.8902 38.3188 40.3814 38.3876 38.2241 38.8021C38.7356 38.3103 39.1221 37.7035 39.3515 37.0321C39.581 36.3607 39.6466 35.6442 39.543 34.9423C39.5376 34.2705 39.3172 33.6758 40.1737 33.4403C40.8762 33.3472 41.5899 33.4833 42.2088 33.8286C42.6707 34.0502 43.0368 34.4315 43.2393 34.9021C43.4418 35.3728 43.4671 35.9008 43.3104 36.3886ZM44.238 33.4846C44.0498 33.2478 43.8304 33.0376 43.5858 32.8597C43.6632 32.6786 43.7716 32.5124 43.9062 32.3686L45.9326 30.635L47.532 32.6832L45.3311 34.1498C45.1193 34.2273 44.8952 34.2662 44.6696 34.2645C44.5612 33.9865 44.416 33.7241 44.238 33.4846ZM59.3025 23.9466C59.2185 24.5255 58.913 25.0492 58.4505 25.4073L53.1653 28.9292C53.2316 28.8612 48.9295 31.7669 48.8354 31.8146L47.1206 29.6186C47.1541 29.59 51.6927 25.7071 51.7234 25.6809L55.7265 22.2562C57.0589 20.9923 59.6107 22.0148 59.3025 23.9466Z" fill="black"/>
<path d="M33.6855 32.6829H30.7486C29.5717 26.6413 20.7945 27.3527 20.6523 33.5594C20.6545 34.7558 21.0777 35.9132 21.8477 36.8288C22.6177 37.7444 23.6855 38.3597 24.8638 38.5669V41.5047C24.8637 41.6073 24.8839 41.7089 24.9231 41.8036C24.9623 41.8984 25.0199 41.9846 25.0924 42.0571C25.165 42.1297 25.2511 42.1872 25.3459 42.2264C25.4407 42.2657 25.5423 42.2858 25.6449 42.2858H33.6855C33.7881 42.2858 33.8897 42.2657 33.9845 42.2264C34.0793 42.1872 34.1655 42.1297 34.238 42.0571C34.3105 41.9846 34.3681 41.8984 34.4073 41.8036C34.4465 41.7088 34.4667 41.6073 34.4666 41.5047V33.464C34.4667 33.3614 34.4466 33.2598 34.4073 33.165C34.3681 33.0702 34.3106 32.9841 34.238 32.9116C34.1655 32.839 34.0793 32.7815 33.9845 32.7422C33.8897 32.703 33.7881 32.6828 33.6855 32.6829ZM22.2146 33.5593C22.2217 32.7064 22.538 31.8851 23.1046 31.2476C23.6713 30.6101 24.45 30.1998 25.2962 30.0928C26.1424 29.9858 26.9987 30.1893 27.7062 30.6656C28.4138 31.1419 28.9245 31.8587 29.1438 32.683L25.6449 32.6829C25.5423 32.6828 25.4407 32.703 25.3459 32.7422C25.2511 32.7815 25.165 32.839 25.0924 32.9115C25.0199 32.9841 24.9623 33.0702 24.9231 33.165C24.8839 33.2598 24.8637 33.3614 24.8638 33.464V36.9619C24.1077 36.7683 23.4373 36.3291 22.9578 35.7133C22.4784 35.0974 22.2169 34.3398 22.2146 33.5593ZM29.198 34.2451C29.0612 34.9291 28.7249 35.5573 28.2316 36.0504C27.7383 36.5436 27.11 36.8798 26.426 37.0165V34.2451H29.198ZM32.9044 40.7236H26.426V38.5963C27.5267 38.4451 28.5478 37.938 29.3335 37.1524C30.1192 36.3668 30.6264 35.3458 30.7779 34.2451H32.9044L32.9044 40.7236ZM38.0892 46.8343H32.9197C32.8169 46.834 32.7151 46.854 32.62 46.8931C32.525 46.9322 32.4386 46.9897 32.3658 47.0622C32.293 47.1348 32.2352 47.221 32.1958 47.3159C32.1564 47.4109 32.1361 47.5127 32.1361 47.6154C32.1361 47.7182 32.1564 47.82 32.1958 47.9149C32.2352 48.0099 32.293 48.0961 32.3658 48.1686C32.4386 48.2412 32.525 48.2987 32.62 48.3378C32.7151 48.3769 32.8169 48.3969 32.9197 48.3965H38.0892C38.2937 48.3926 38.4886 48.3086 38.6319 48.1625C38.7751 48.0165 38.8554 47.82 38.8554 47.6154C38.8554 47.4108 38.7751 47.2144 38.6319 47.0683C38.4886 46.9223 38.2937 46.8383 38.0892 46.8343Z" fill="black"/>
</svg>
