<svg xmlns="http://www.w3.org/2000/svg" enable-background="new 0 0 3005.32 2100" viewBox="0 0 3005.32 2100" id="digital-startup-idea">
  <path fill="#fff" d="M2224.69 1950.5H424.32V778.98c0-23.57 19.11-42.68 42.68-42.68h1715c23.57 0 42.68 19.11 42.68 42.68V1950.5zM2766.3 1950.5H424.32v77.66c0 20.7 16.78 37.48 37.48 37.48H2766.3c15.62 0 28.29-12.67 28.29-28.29v-58.56C2794.59 1963.16 2781.92 1950.5 2766.3 1950.5z"></path>
  <path fill="#262421" d="M2195.8,1950.5H453.22V799.63c0-23.57,19.11-42.68,42.68-42.68h1657.22c23.57,0,42.68,19.11,42.68,42.68
		V1950.5z"></path>
  <path fill="none" stroke="#231f20" stroke-linecap="round" stroke-linejoin="round" stroke-miterlimit="10" stroke-width="6.504" d="M2224.69 1950.5H424.32V778.98c0-23.57 19.11-42.68 42.68-42.68h1715c23.57 0 42.68 19.11 42.68 42.68V1950.5zM2766.3 1950.5H424.32v77.66c0 20.7 16.78 37.48 37.48 37.48H2766.3c15.62 0 28.29-12.67 28.29-28.29v-58.56C2794.59 1963.16 2781.92 1950.5 2766.3 1950.5z"></path>
  <path fill="#fff" d="M707.17 1936.14v14.36H593.06v-14.36c0-10.03 8.13-18.16 18.16-18.16h77.8C699.05 1917.98 707.17 1926.11 707.17 1936.14zM852.41 1936.14v14.36H738.29v-14.36c0-10.03 8.13-18.16 18.16-18.16h77.8C844.28 1917.98 852.41 1926.11 852.41 1936.14zM1006.28 1936.14v14.36h-114.1v-14.36c0-10.03 8.13-18.16 18.16-18.16h77.78C998.15 1917.98 1006.28 1926.11 1006.28 1936.14zM1151.51 1936.14v14.36H1037.4v-14.36c0-10.03 8.13-18.16 18.16-18.16h77.8C1143.38 1917.98 1151.51 1926.11 1151.51 1936.14zM1300.2 1936.14v14.36h-114.1v-14.36c0-10.03 8.13-18.16 18.16-18.16h77.78C1292.07 1917.98 1300.2 1926.11 1300.2 1936.14zM1886.32 1936.14v14.36H1772.2v-14.36c0-10.03 8.13-18.16 18.16-18.16h77.8C1878.19 1917.98 1886.32 1926.11 1886.32 1936.14z"></path>
  <path fill="#bf87ff" d="M1745.41,1936.14v14.36h-411.49v-14.36c0-10.03,8.13-18.16,18.16-18.16h375.17
			C1737.28,1917.98,1745.41,1926.11,1745.41,1936.14z"></path>
  <path fill="#fff" d="M2041.93 1936.14v14.36h-114.11v-14.36c0-10.03 8.13-18.16 18.16-18.16h77.8C2033.8 1917.98 2041.93 1926.11 2041.93 1936.14zM2195.8 1936.14v14.36h-114.11v-14.36c0-10.03 8.13-18.16 18.16-18.16h77.8C2187.67 1917.98 2195.8 1926.11 2195.8 1936.14zM2341.03 1936.14v14.36h-114.11v-14.36c0-10.03 8.13-18.16 18.16-18.16h77.8C2332.9 1917.98 2341.03 1926.11 2341.03 1936.14zM2489.72 1936.14v14.36h-114.11v-14.36c0-10.03 8.13-18.16 18.16-18.16h77.8C2481.59 1917.98 2489.72 1926.11 2489.72 1936.14zM2634.95 1936.14v14.36h-114.11v-14.36c0-10.03 8.13-18.16 18.16-18.16h77.8C2626.82 1917.98 2634.95 1926.11 2634.95 1936.14z"></path>
  <g>
    <path fill="none" stroke="#231f20" stroke-linecap="round" stroke-linejoin="round" stroke-miterlimit="10" stroke-width="6.504" d="M707.17 1936.14v14.36H593.06v-14.36c0-10.03 8.13-18.16 18.16-18.16h77.8C699.05 1917.98 707.17 1926.11 707.17 1936.14zM852.41 1936.14v14.36H738.29v-14.36c0-10.03 8.13-18.16 18.16-18.16h77.8C844.28 1917.98 852.41 1926.11 852.41 1936.14zM1006.28 1936.14v14.36h-114.1v-14.36c0-10.03 8.13-18.16 18.16-18.16h77.78C998.15 1917.98 1006.28 1926.11 1006.28 1936.14zM1151.51 1936.14v14.36H1037.4v-14.36c0-10.03 8.13-18.16 18.16-18.16h77.8C1143.38 1917.98 1151.51 1926.11 1151.51 1936.14zM1300.2 1936.14v14.36h-114.1v-14.36c0-10.03 8.13-18.16 18.16-18.16h77.78C1292.07 1917.98 1300.2 1926.11 1300.2 1936.14zM1886.32 1936.14v14.36H1772.2v-14.36c0-10.03 8.13-18.16 18.16-18.16h77.8C1878.19 1917.98 1886.32 1926.11 1886.32 1936.14zM1745.41 1936.14v14.36h-411.49v-14.36c0-10.03 8.13-18.16 18.16-18.16h375.17C1737.28 1917.98 1745.41 1926.11 1745.41 1936.14zM2041.93 1936.14v14.36h-114.11v-14.36c0-10.03 8.13-18.16 18.16-18.16h77.8C2033.8 1917.98 2041.93 1926.11 2041.93 1936.14zM2195.8 1936.14v14.36h-114.11v-14.36c0-10.03 8.13-18.16 18.16-18.16h77.8C2187.67 1917.98 2195.8 1926.11 2195.8 1936.14zM2341.03 1936.14v14.36h-114.11v-14.36c0-10.03 8.13-18.16 18.16-18.16h77.8C2332.9 1917.98 2341.03 1926.11 2341.03 1936.14zM2489.72 1936.14v14.36h-114.11v-14.36c0-10.03 8.13-18.16 18.16-18.16h77.8C2481.59 1917.98 2489.72 1926.11 2489.72 1936.14zM2634.95 1936.14v14.36h-114.11v-14.36c0-10.03 8.13-18.16 18.16-18.16h77.8C2626.82 1917.98 2634.95 1926.11 2634.95 1936.14z"></path>
  </g>
  <g>
    <path fill="#ffd14d" d="M1771.37,792.47c-3.21-230.03-197.67-413.83-434.35-410.53c-236.67,3.3-425.94,192.46-422.73,422.49
				c1,71.49,21.02,142.17,58.09,203.91c44.91,74.8,121.58,130.27,154.36,214.7c7.96,20.51,101.85,265.12,60.14,265.7
				c57.81-5.2,265.27-1.07,340.25,5.39c-23.27,0.32,36.01-223.87,41.39-243.06C1614.39,1087.49,1773.89,972.92,1771.37,792.47z"></path>
    <path fill="none" stroke="#191716" stroke-linecap="round" stroke-linejoin="round" stroke-miterlimit="10" stroke-width="6.563" d="M1771.37,792.47c-3.21-230.03-197.67-413.83-434.35-410.53c-236.67,3.3-425.94,192.46-422.73,422.49
				c1,71.49,21.02,142.17,58.09,203.91c44.91,74.8,121.58,130.27,154.36,214.7c7.96,20.51,101.85,265.12,60.14,265.7
				c57.81-5.2,265.27-1.07,340.25,5.39c-23.27,0.32,36.01-223.87,41.39-243.06C1614.39,1087.49,1773.89,972.92,1771.37,792.47z"></path>
    <path fill="none" stroke="#191716" stroke-linecap="round" stroke-linejoin="round" stroke-miterlimit="10" stroke-width="6.563" d="M1275.77,1446.34l-36.9-708.13c-1.95-37.51-37.77-64.26-74.12-54.8c-29.07,7.57-47.49,26.39-45.41,66.88
				c1.29,25.19,18.53,46.78,42.73,53.91l85.71,31.44l180.53-4.17l-1.97-85.38c-1.58-68.58,95.9-85.55,116.33-20.07
				c0.26,0.84,0.52,1.7,0.78,2.56c8.78,29.89-6.86,61.54-35.97,72.66l-79.17,30.22l14.36,622.12"></path>
    <path fill="#1c1c1c" d="M1552.49,1537.51c0.14,9.87-3.56,18.9-9.73,25.81c3.18,3.36,5.76,7.27,7.55,11.58
				c1.8,4.31,2.83,9.01,2.9,13.93c0.3,21.28-17.2,38.76-39.07,39.06l-16.21,0.23c-14.36,26.42-42.72,44.6-75.61,45.06l-25.22,0.35
				c-4.12,8.73-13.1,14.86-23.62,15l-11.32,0.16c-10.52,0.15-19.67-5.73-24.05-14.34l-36.52,0.51
				c-32.89,0.46-61.74-16.92-76.84-42.93l-12.44,0.17c-10.94,0.15-20.89-4.01-28.17-10.89c-7.26-6.86-11.82-16.42-11.97-27.07
				c-0.14-9.85,3.56-18.9,9.73-25.8c-3.18-3.38-5.76-7.29-7.55-11.58c-1.8-4.31-2.83-9.01-2.9-13.95
				c-0.15-10.77,4.27-20.58,11.51-27.66c-3.71-3.45-6.74-7.58-8.87-12.22c-2.13-4.62-3.33-9.73-3.41-15.12
				c-0.3-21.26,17.2-38.74,39.07-39.05l301.82-4.21c21.87-0.31,39.85,16.68,40.14,37.94c0.15,10.77-4.27,20.58-11.51,27.67
				c3.71,3.45,6.74,7.57,8.87,12.2C1551.21,1527.02,1552.42,1532.13,1552.49,1537.51z"></path>
    <path fill="none" stroke="#f2f0eb" stroke-linecap="round" stroke-linejoin="round" stroke-miterlimit="10" stroke-width="3.865" d="M1552.49,1537.51c0.14,9.87-3.56,18.9-9.73,25.81c3.18,3.36,5.76,7.27,7.55,11.58
				c1.8,4.31,2.83,9.01,2.9,13.93c0.3,21.28-17.2,38.76-39.07,39.06l-16.21,0.23c-14.36,26.42-42.72,44.6-75.61,45.06l-25.22,0.35
				c-4.12,8.73-13.1,14.86-23.62,15l-11.32,0.16c-10.52,0.15-19.67-5.73-24.05-14.34l-36.52,0.51
				c-32.89,0.46-61.74-16.92-76.84-42.93l-12.44,0.17c-10.94,0.15-20.89-4.01-28.17-10.89c-7.26-6.86-11.82-16.42-11.97-27.07
				c-0.14-9.85,3.56-18.9,9.73-25.8c-3.18-3.38-5.76-7.29-7.55-11.58c-1.8-4.31-2.83-9.01-2.9-13.95
				c-0.15-10.77,4.27-20.58,11.51-27.66c-3.71-3.45-6.74-7.58-8.87-12.22c-2.13-4.62-3.33-9.73-3.41-15.12
				c-0.3-21.26,17.2-38.74,39.07-39.05l301.82-4.21c21.87-0.31,39.85,16.68,40.14,37.94c0.15,10.77-4.27,20.58-11.51,27.67
				c3.71,3.45,6.74,7.57,8.87,12.2C1551.21,1527.02,1552.42,1532.13,1552.49,1537.51z"></path>
    <line x1="1182.98" x2="1540.14" y1="1515.17" y2="1506.92" fill="none" stroke="#f2f0eb" stroke-linecap="round" stroke-linejoin="round" stroke-miterlimit="10" stroke-width="3.865"></line>
    <line x1="1542.76" x2="1181.99" y1="1563.32" y2="1571.65" fill="none" stroke="#f2f0eb" stroke-linecap="round" stroke-linejoin="round" stroke-miterlimit="10" stroke-width="3.865"></line>
    <line x1="1497.93" x2="1224.82" y1="1628.13" y2="1634.43" fill="none" stroke="#f2f0eb" stroke-linecap="round" stroke-linejoin="round" stroke-miterlimit="10" stroke-width="3.865"></line>
    <line x1="866.04" x2="607.55" y1="681.5" y2="625.38" fill="none" stroke="#ffb531" stroke-linecap="round" stroke-linejoin="round" stroke-miterlimit="10" stroke-width="5.204"></line>
    <line x1="969.61" x2="685.2" y1="519.53" y2="307.82" fill="none" stroke="#ffb531" stroke-linecap="round" stroke-linejoin="round" stroke-miterlimit="10" stroke-width="5.204"></line>
    <line x1="1016.37" x2="1149.57" y1="56.42" y2="381.89" fill="none" stroke="#ffb531" stroke-linecap="round" stroke-linejoin="round" stroke-miterlimit="10" stroke-width="5.204"></line>
    <line x1="1497.93" x2="1426.56" y1="34.36" y2="343.11" fill="none" stroke="#ffb531" stroke-linecap="round" stroke-linejoin="round" stroke-miterlimit="10" stroke-width="5.204"></line>
    <line x1="1677.96" x2="1924.96" y1="479.83" y2="188.73" fill="none" stroke="#ffb531" stroke-linecap="round" stroke-linejoin="round" stroke-miterlimit="10" stroke-width="5.204"></line>
    <line x1="1823.51" x2="2079.33" y1="681.5" y2="603.33" fill="none" stroke="#ffb531" stroke-linecap="round" stroke-linejoin="round" stroke-miterlimit="10" stroke-width="5.204"></line>
  </g>
  <polyline fill="none" stroke="#ff79e4" stroke-linecap="round" stroke-linejoin="round" stroke-miterlimit="10" stroke-width="5.204" points="240.97 955.88 36.79 955.88 190.89 840.31 63.76 613.02 321.48 647.69 383.51 516.71 472.11 639.99"></polyline>
  <g>
    <path fill="#fca79f" d="M2489.67,1585.3c-18.93-16.75-48.5-7.9-71.25,3.11c-19.49,9.44-38.49,19.91-56.92,31.29
				c7.39-16.45,12.65-33.66,14.39-51.6c1.21-12.48,0.21-26.36-8.4-35.48c-5.52-5.85-13.48-8.88-21.44-10.06
				c-23.43-3.46-46.31,7.55-67.36,18.41c-33.86,17.47-67.93,35.77-100.22,56.36c9.7-19.23,16.76-39.56,18.84-60.92
				c1.21-12.48,0.21-26.36-8.4-35.48c-5.52-5.85-13.48-8.88-21.44-10.06c-23.43-3.46-46.31,7.55-67.36,18.41
				c-84.56,43.64-170.54,92.35-226.37,169.41c-20.38,28.13-36.6,60.9-37,95.68c-0.27,24.62-0.48,48.74,24.9,56.56
				c23.54,7.25,54.85-3.88,74.6-16.07c0.27-0.17,0.54-0.33,0.8-0.5c29.22-18.35,59.5-37.07,88.75-57.32
				c-6.33,15.66-10.28,32.09-10.47,49.01c-0.27,24.62-0.48,48.74,24.9,56.56c23.54,7.25,54.85-3.88,74.6-16.07
				c0.27-0.17,0.53-0.33,0.8-0.5c22.64-14.22,45.91-28.66,68.85-43.86c-8.93,45.95,24.73,81.58,78.25,54.6
				c62.4-31.45,116.49-76.92,166.75-124.84c25.28-24.1,50.49-49.55,64.98-81.33C2504.18,1629.32,2507.22,1600.82,2489.67,1585.3z"></path>
    <path fill="none" stroke="#231f20" stroke-linecap="round" stroke-linejoin="round" stroke-miterlimit="10" stroke-width="6.504" d="M2489.67,1585.3c-18.93-16.75-48.5-7.9-71.25,3.11c-19.49,9.44-38.49,19.91-56.92,31.29
				c7.39-16.45,12.65-33.66,14.39-51.6c1.21-12.48,0.21-26.36-8.4-35.48c-5.52-5.85-13.48-8.88-21.44-10.06
				c-23.43-3.46-46.31,7.55-67.36,18.41c-33.86,17.47-67.93,35.77-100.22,56.36c9.7-19.23,16.76-39.56,18.84-60.92
				c1.21-12.48,0.21-26.36-8.4-35.48c-5.52-5.85-13.48-8.88-21.44-10.06c-23.43-3.46-46.31,7.55-67.36,18.41
				c-84.56,43.64-170.54,92.35-226.37,169.41c-20.38,28.13-36.6,60.9-37,95.68c-0.27,24.62-0.48,48.74,24.9,56.56
				c23.54,7.25,54.85-3.88,74.6-16.07c0.27-0.17,0.54-0.33,0.8-0.5c29.22-18.35,59.5-37.07,88.75-57.32
				c-6.33,15.66-10.28,32.09-10.47,49.01c-0.27,24.62-0.48,48.74,24.9,56.56c23.54,7.25,54.85-3.88,74.6-16.07
				c0.27-0.17,0.53-0.33,0.8-0.5c22.64-14.22,45.91-28.66,68.85-43.86c-8.93,45.95,24.73,81.58,78.25,54.6
				c62.4-31.45,116.49-76.92,166.75-124.84c25.28-24.1,50.49-49.55,64.98-81.33C2504.18,1629.32,2507.22,1600.82,2489.67,1585.3z"></path>
    <path fill="#fca79f" d="M2778.82,1424.68c-77.27,88.94-203.99,121.8-288.18,204.23c-66.86,65.46-133.71,130.92-200.57,196.38
			c-22.94,22.46-49.32,46.41-81.42,46.55c-11.44,0.05-23.1-3.23-31.98-10.43c-14.7-11.92-19.64-32.86-16.79-51.58
			c2.85-18.71,12.29-35.71,22.2-51.84c22.89-37.28,54.5-76.15,83.76-108.67c-47.82,54.18-96.45,107.63-145.17,161
			c-25.73,28.18-80.8,83.69-123.95,45.71c-16.35-14.39-15.82-39.98-10.73-61.16c10.1-42.01,32.5-79.86,54.61-116.98
			c17.63-29.6,35.25-59.2,52.88-88.8c-45.27,53.87-89.78,108.37-133.5,163.5c-23.7,29.88-79.92,121.5-129.67,72.65
			c-10.43-10.25-13.46-25.81-14.16-40.42c-2.17-45.37,13.2-90.19,36.02-129.46s51.09-75.7,80.96-109.92
			c-77.42,93.78-154.84,187.56-232.26,281.33c-33.18,40.19-136.87,92.66-135.17-4.32c0.36-20.44,8.59-39.85,17.29-58.35
			c31.28-66.47,75.49-117.25,119.68-175.26c50.72-66.6,101.44-133.19,152.16-199.79c16.89-22.18,33.93-44.52,54.78-63.03
			c35.66-31.66,82.01-46.35,125.19-64.8c51.86-22.16,103.97-43.76,156.3-64.8c102.91-41.37,206.7-80.57,311.28-117.55l286.01-119.41
			l180.14,374.15L2778.82,1424.68z"></path>
    <path fill="none" stroke="#231f20" stroke-linecap="round" stroke-linejoin="round" stroke-miterlimit="10" stroke-width="6.504" d="M2778.82,1424.68c-77.27,88.94-203.99,121.8-288.18,204.23c-66.86,65.46-133.71,130.92-200.57,196.38
			c-22.94,22.46-49.32,46.41-81.42,46.55c-11.44,0.05-23.1-3.23-31.98-10.43c-14.7-11.92-19.64-32.86-16.79-51.58
			c2.85-18.71,12.29-35.71,22.2-51.84c22.89-37.28,54.5-76.15,83.76-108.67c-47.82,54.18-96.45,107.63-145.17,161
			c-25.73,28.18-80.8,83.69-123.95,45.71c-16.35-14.39-15.82-39.98-10.73-61.16c10.1-42.01,32.5-79.86,54.61-116.98
			c17.63-29.6,35.25-59.2,52.88-88.8c-45.27,53.87-89.78,108.37-133.5,163.5c-23.7,29.88-79.92,121.5-129.67,72.65
			c-10.43-10.25-13.46-25.81-14.16-40.42c-2.17-45.37,13.2-90.19,36.02-129.46s51.09-75.7,80.96-109.92
			c-77.42,93.78-154.84,187.56-232.26,281.33c-33.18,40.19-136.87,92.66-135.17-4.32c0.36-20.44,8.59-39.85,17.29-58.35
			c31.28-66.47,75.49-117.25,119.68-175.26c50.72-66.6,101.44-133.19,152.16-199.79c16.89-22.18,33.93-44.52,54.78-63.03
			c35.66-31.66,82.01-46.35,125.19-64.8c51.86-22.16,103.97-43.76,156.3-64.8c102.91-41.37,206.7-80.57,311.28-117.55l286.01-119.41
			l180.14,374.15L2778.82,1424.68z"></path>
  </g>
</svg>
