<svg width="82" height="82" viewBox="0 0 82 82" fill="none" xmlns="http://www.w3.org/2000/svg">
<circle cx="42.5017" cy="42.5" r="38.6635" transform="rotate(33.083 42.5017 42.5)" fill="black"/>
<circle cx="38.6818" cy="38.6818" r="38.1818" fill="#96B894" stroke="black"/>
<g clip-path="url(#clip0_955_1451)">
<path d="M22.4915 23.4748C22.413 23.5532 22.3508 23.6462 22.3083 23.7487C22.2659 23.8511 22.244 23.9609 22.244 24.0718C22.244 24.1827 22.2659 24.2925 22.3083 24.3949C22.3508 24.4973 22.413 24.5904 22.4915 24.6687L29.9418 32.1233C30.1001 32.2816 30.3149 32.3705 30.5388 32.3705C30.7627 32.3705 30.9774 32.2816 31.1357 32.1233C31.294 31.9649 31.383 31.7502 31.383 31.5263C31.383 31.3024 31.294 31.0877 31.1357 30.9294L23.6812 23.4748C23.5231 23.3177 23.3092 23.2295 23.0863 23.2295C22.8634 23.2295 22.6496 23.3177 22.4915 23.4748ZM46.5721 27.5881V17.1805C46.5721 16.9567 46.4832 16.7421 46.325 16.5838C46.1667 16.4256 45.9521 16.3367 45.7284 16.3367C45.5046 16.3367 45.29 16.4256 45.1317 16.5838C44.9735 16.7421 44.8846 16.9567 44.8846 17.1805V27.5881C44.8846 27.8119 44.9735 28.0265 45.1317 28.1847C45.29 28.343 45.5046 28.4319 45.7284 28.4319C45.9521 28.4319 46.1667 28.343 46.325 28.1847C46.4832 28.0265 46.5721 27.8119 46.5721 27.5881ZM33.4898 12.6411C33.4621 12.5336 33.4135 12.4326 33.3467 12.3439C33.28 12.2552 33.1965 12.1806 33.1009 12.1241C33.0053 12.0677 32.8996 12.0307 32.7897 12.0152C32.6798 11.9996 32.5679 12.0059 32.4604 12.0336C32.3529 12.0613 32.2519 12.1099 32.1632 12.1766C32.0746 12.2433 31.9999 12.3269 31.9435 12.4225C31.887 12.518 31.85 12.6238 31.8345 12.7337C31.8189 12.8436 31.8252 12.9555 31.8529 13.063L34.3841 23.188C34.4118 23.2954 34.4604 23.3964 34.5272 23.4851C34.5939 23.5738 34.6774 23.6485 34.773 23.7049C34.8686 23.7613 34.9744 23.7983 35.0843 23.8139C35.1942 23.8294 35.306 23.8232 35.4135 23.7955C35.521 23.7678 35.622 23.7192 35.7107 23.6524C35.7994 23.5857 35.874 23.5022 35.9305 23.4066C35.9869 23.311 36.0239 23.2052 36.0394 23.0953C36.055 22.9854 36.0487 22.8736 36.021 22.7661L33.4898 12.6411ZM22.3649 42.7123C25.0143 46.5092 24.9932 48.222 24.9763 49.8842C24.8498 61.9667 33.224 65.7003 38.1979 65.9998C38.5776 66.0209 38.9446 66.0336 39.3116 66.0336C41.6117 66.0609 43.8914 65.6001 46.0003 64.6817C48.1092 63.7632 49.9994 62.4079 51.546 60.7053L54.3093 57.6594L54.3557 57.6045L55.7268 56.09C56.2122 55.6041 56.5578 54.9964 56.7271 54.3308C56.8964 53.6652 56.8832 52.9662 56.689 52.3074C56.4947 51.6487 56.1265 51.0544 55.6231 50.5871C55.1197 50.1199 54.4998 49.7969 53.8284 49.6522C53.9601 49.1733 53.9865 48.6716 53.9056 48.1816C53.8246 47.6915 53.6384 47.2249 53.3597 46.8138C53.0809 46.4028 52.7164 46.057 52.2911 45.8005C51.8658 45.544 51.39 45.3828 50.8963 45.328C51.0334 44.9491 51.1048 44.5496 51.1073 44.1467C51.1096 43.2669 50.8063 42.4135 50.2492 41.7325C49.6921 41.0515 48.9157 40.5852 48.0529 40.4131L52.6302 35.8189C52.9894 35.4609 53.2736 35.035 53.4663 34.566C53.659 34.097 53.7564 33.5944 53.7528 33.0873C53.7491 32.5803 53.6445 32.0791 53.445 31.6129C53.2456 31.1467 52.9552 30.725 52.591 30.3722C52.2268 30.0195 51.7959 29.7428 51.3236 29.5584C50.8513 29.3739 50.347 29.2854 49.8401 29.298C49.3332 29.3106 48.8339 29.4241 48.3713 29.6317C47.9087 29.8394 47.4921 30.1371 47.1459 30.5075C42.1298 35.8611 35.8945 41.953 33.4349 42.9528C32.0005 43.5434 31.6546 43.0836 30.5451 41.2653C29.7745 39.8407 28.7509 38.5684 27.5245 37.5106C26.0648 36.3251 24.3477 36.2914 22.926 37.4178C21.3187 38.6876 21.0866 40.873 22.3649 42.7123ZM53.0141 51.2595C53.2941 51.2585 53.5714 51.3131 53.83 51.4203C54.0885 51.5275 54.3232 51.6851 54.5202 51.8839C54.7191 52.0854 54.8761 52.3242 54.9823 52.5867C55.0885 52.8491 55.1418 53.1299 55.139 53.413C55.1363 53.6961 55.0776 53.9758 54.9663 54.2362C54.8551 54.4965 54.6934 54.7322 54.4907 54.9298L53.1534 56.4022C52.7952 56.5713 52.3938 56.6268 52.0032 56.5612C51.6125 56.4956 51.2513 56.312 50.9681 56.0351L50.8921 55.955C50.5471 55.6166 50.3398 55.1624 50.3101 54.6801C50.2805 54.1978 50.4308 53.7216 50.7318 53.3436L52.8412 51.2342L53.0141 51.2595ZM51.7485 47.488C52.0609 47.7978 52.2449 48.214 52.2636 48.6536C52.2824 49.0931 52.1346 49.5236 51.8498 49.8589C51.8145 49.8912 51.782 49.9265 51.7527 49.9644L49.3312 52.3859C48.9892 52.511 48.619 52.5378 48.2626 52.4632C47.9062 52.3886 47.5778 52.2157 47.3146 51.9641L47.2134 51.8628C46.8813 51.5179 46.6861 51.064 46.6644 50.5857C46.6427 50.1074 46.7958 49.6376 47.0952 49.2641C47.4327 49.0025 48.846 47.8845 49.597 47.2391C49.9311 47.0367 50.3231 46.9513 50.7112 46.9964C51.0992 47.0415 51.4612 47.2144 51.7401 47.488H51.7485ZM48.7954 42.6322C48.9942 42.8292 49.1518 43.0639 49.259 43.3225C49.3662 43.581 49.4208 43.8584 49.4198 44.1383C49.3647 44.8236 49.0473 45.4613 48.5338 45.9186C48.0191 46.3658 46.9096 47.2559 46.0912 47.8972C45.7422 47.9968 45.3729 48.0008 45.0218 47.9088C44.6708 47.8167 44.3509 47.6321 44.0957 47.3741L44.0409 47.3192C43.6567 46.9348 43.441 46.4135 43.441 45.8701C43.441 45.3266 43.6567 44.8054 44.0409 44.4209L46.0237 42.4381C46.43 42.1298 46.9342 41.9792 47.443 42.0141C47.9518 42.049 48.4308 42.2671 48.7912 42.628L48.7954 42.6322ZM23.9765 38.7214C24.7865 38.0801 25.6007 38.1055 26.4613 38.8015C27.5351 39.7379 28.43 40.8614 29.1023 42.1175C29.4937 42.8498 29.9849 43.5243 30.562 44.1214C30.5777 44.1447 30.5946 44.1673 30.6126 44.1889C30.6843 44.2648 32.3001 46.0325 30.6548 48.6017C30.5439 48.79 30.5105 49.014 30.5614 49.2265C30.6124 49.439 30.7439 49.6235 30.9281 49.741C31.1123 49.8586 31.335 49.9 31.5492 49.8567C31.7634 49.8134 31.9524 49.6886 32.0765 49.5087C32.5421 48.8413 32.8533 48.0786 32.9875 47.2759C33.1218 46.4732 33.0758 45.6508 32.8527 44.8681C33.2706 44.8109 33.6792 44.6989 34.0677 44.5348C37.3879 43.1722 45.1715 35.0933 48.3693 31.6803C48.5635 31.4708 48.7983 31.3029 49.0594 31.1869C49.3205 31.0709 49.6024 31.0091 49.888 31.0053C50.1741 31.0008 50.4581 31.0538 50.7233 31.161C50.9886 31.2683 51.2296 31.4276 51.4321 31.6297C51.6305 31.8276 51.7878 32.0627 51.8952 32.3215C52.0026 32.5803 52.0578 32.8577 52.0578 33.1379C52.0578 33.4181 52.0026 33.6955 51.8952 33.9543C51.7878 34.2131 51.6305 34.4482 51.4321 34.6461L42.8427 43.2186C42.4937 43.5659 42.2168 43.9787 42.0278 44.4334C41.8389 44.8881 41.7416 45.3756 41.7416 45.868C41.7416 46.3603 41.8389 46.8478 42.0278 47.3025C42.2168 47.7572 42.4937 48.17 42.8427 48.5173L42.8891 48.5637C43.4702 49.1464 44.2287 49.5189 45.0449 49.6226C44.8978 50.2315 44.909 50.8679 45.0774 51.4712C45.2457 52.0745 45.5657 52.6247 46.0068 53.0694L46.0406 53.0989L46.0743 53.1326C46.7587 53.8109 47.6842 54.1902 48.6477 54.1873C48.5901 54.7265 48.6542 55.2717 48.8352 55.7828C49.0163 56.2939 49.3098 56.7578 49.694 57.1405L49.7573 57.2122C50.2454 57.6991 50.861 58.0384 51.5334 58.1909L50.2677 59.5873L50.234 59.6253C48.7234 61.2515 46.8665 62.5171 44.8005 63.3285C42.7346 64.1398 40.5126 64.476 38.2991 64.3123C36.1253 64.1238 34.0322 63.3991 32.2073 62.203C32.338 62.203 32.473 62.203 32.608 62.203H32.9666C35.076 62.068 37.004 60.7897 38.7252 58.4061C38.8495 58.224 38.8975 58.0006 38.8592 57.7836C38.8208 57.5666 38.699 57.3732 38.5199 57.2448C38.3408 57.1164 38.1185 57.0631 37.9007 57.0964C37.6828 57.1298 37.4867 57.247 37.3541 57.4231C35.9493 59.3806 34.4432 60.4269 32.8738 60.5323C30.6843 60.6758 29.001 58.925 28.9757 58.8997C28.9384 58.8607 28.8974 58.8254 28.8534 58.7942C27.5329 56.7101 26.6259 53.8498 26.668 49.8969C26.6934 47.6651 26.4909 45.6486 23.7529 41.7336C23.1159 40.8392 22.9429 39.5483 23.9765 38.7214Z" fill="black"/>
<path d="M37.1147 29.2041L35.25 29.4741L36.6 30.7904L36.2794 32.6466L37.9458 31.7691L39.6122 32.6466L39.2916 30.7904L40.6416 29.4741L38.7769 29.2041L37.9458 27.5166L37.1147 29.2041Z" fill="black"/>
<path d="M39.8252 19.0584L40.3947 20.3409L41.0697 19.1048L42.4661 18.9614L41.5 17.9404L41.7953 16.5651L40.5255 17.1684L39.3063 16.4639L39.4877 17.8603L38.4414 18.8011L39.8252 19.0584Z" fill="black"/>
<path d="M28.6 18.4925L27.5833 17.5264L27.4314 18.9228L26.1953 19.5936L27.4778 20.1673L27.7352 21.5511L28.6759 20.5048L30.0723 20.6904L29.3678 19.4712L29.9753 18.2056L28.6 18.4925Z" fill="black"/>
</g>
<defs>
<clipPath id="clip0_955_1451">
<rect width="54" height="54" fill="white" transform="translate(12 12)"/>
</clipPath>
</defs>
</svg>
