<svg width="1815" height="1815" viewBox="0 0 1815 1815" fill="none" xmlns="http://www.w3.org/2000/svg">
<mask id="mask0_1107_1299" style="mask-type:luminance" maskUnits="userSpaceOnUse" x="186" y="186" width="1443" height="1443">
<path d="M907.5 1628.06C1305.45 1628.06 1628.06 1305.45 1628.06 907.5C1628.06 509.549 1305.45 186.945 907.5 186.945C509.549 186.945 186.945 509.549 186.945 907.5C186.945 1305.45 509.549 1628.06 907.5 1628.06Z" fill="white"/>
</mask>
<g mask="url(#mask0_1107_1299)">
<path d="M634.889 158.631C565.919 173.877 504.572 210.903 451.937 257.73C397.85 305.646 351.749 363.363 313.634 424.71C235.952 548.13 190.94 695.508 206.186 842.16C214.535 924.561 241.034 1003.69 269.348 1080.65C295.847 1152.89 326.702 1224.76 373.166 1286.83C455.204 1396.82 580.802 1467.97 712.571 1500.64C869.387 1539.48 1035.28 1522.78 1189.92 1481.4C1264.33 1461.44 1342.01 1439.29 1405.54 1394.28C1466.88 1351.09 1510.81 1286.83 1546.74 1221.86C1584.5 1153.25 1613.54 1079.92 1632.78 1004.06C1652.74 924.924 1663.99 841.797 1652.01 760.485C1640.04 681.714 1605.55 608.025 1565.62 539.781C1526.78 473.352 1480.32 411.279 1426.95 355.74C1374.32 300.927 1314.06 254.1 1239.65 233.046C1201.53 222.156 1161.96 217.074 1122.4 213.807C1080.65 210.177 1038.91 208.362 997.163 207.999C914.036 207.636 830.909 213.807 748.508 226.149C706.763 232.32 665.381 240.669 624.362 250.107C584.795 259.545 544.502 268.983 507.113 284.592C472.991 298.749 442.499 319.077 417.089 345.939C392.405 371.349 372.803 401.115 355.742 431.97C320.531 496.221 296.21 566.643 281.69 638.517C251.924 785.532 263.903 939.807 308.189 1082.47C330.695 1155.79 362.276 1227.3 410.555 1287.2C454.841 1342.01 511.832 1385.57 573.905 1418.97C713.66 1493.74 876.647 1512.62 1033.1 1513.35C1182.66 1514.07 1339.11 1489.75 1460.35 1395.73C1512.26 1355.44 1555.82 1303.53 1581.23 1242.55C1612.08 1167.77 1614.63 1084.64 1616.08 1004.78C1616.8 961.95 1616.8 919.116 1616.44 875.919C1616.08 834.174 1616.44 792.429 1612.81 750.684C1609.54 711.843 1601.19 673.365 1585.59 637.428C1571.79 605.484 1552.92 575.718 1531.5 548.13C1487.21 491.502 1432.4 443.586 1376.86 398.211C1346.37 373.164 1314.79 349.569 1279.58 331.419C1245.09 313.632 1207.7 302.379 1169.95 294.756C1131.47 287.133 1092.27 283.503 1053.06 281.325C1010.23 278.784 967.397 277.695 924.563 276.969C883.181 276.243 841.799 276.243 800.417 276.969C762.665 277.695 724.55 279.873 687.161 286.407C650.498 292.578 614.198 303.468 581.165 320.892C551.036 336.864 524.174 358.281 501.305 382.965C454.841 432.696 423.623 494.769 397.124 556.842C364.817 632.346 337.229 710.028 312.908 788.436C288.587 867.933 265.718 949.608 266.081 1033.46C266.807 1172.13 329.969 1306.44 427.616 1403.72C530.345 1506.09 670.463 1565.62 813.122 1584.49C969.212 1605.19 1128.57 1576.87 1274.13 1520.24C1310.79 1505.72 1347.09 1489.75 1382.31 1471.96C1416.79 1454.54 1450.55 1434.58 1479.95 1409.53C1529.68 1366.69 1565.62 1310.07 1588.49 1248.72C1612.08 1186.65 1623.7 1120.58 1628.06 1054.51C1633.14 979.374 1630.6 903.507 1618.26 829.092C1605.55 752.499 1581.96 677.721 1543.84 610.203C1506.81 544.863 1457.45 486.783 1405.17 433.422C1378.31 405.834 1350.72 378.972 1322.05 353.562C1293.01 327.789 1261.79 305.283 1225.49 290.763C1188.83 276.243 1149.26 268.983 1110.06 262.812C1069.4 256.641 1028.02 252.648 986.999 250.833C904.235 247.203 820.745 252.648 739.07 266.805C662.114 280.236 580.802 297.66 519.092 348.48C490.415 372.075 465.731 400.026 442.862 429.429C421.445 457.017 401.48 486.42 384.056 516.549C348.119 578.622 320.531 645.777 302.381 715.473C284.231 785.169 275.156 857.769 276.971 930.006C278.786 1009.87 294.758 1088.27 313.271 1165.59C332.147 1245.09 351.023 1326.04 386.597 1400.09C401.843 1432.4 420.719 1463.62 445.766 1489.39C471.539 1515.89 503.846 1534.4 539.057 1546.02C575.72 1558.36 614.198 1564.53 652.676 1568.52C695.147 1572.88 737.618 1573.97 780.089 1573.24C865.031 1571.43 950.336 1563.8 1034.91 1556.18C1186.29 1542.39 1342.38 1516.25 1469.79 1427.68C1527.51 1387.75 1576.15 1335.48 1608.09 1272.68C1641.12 1208.43 1657.1 1136.55 1659.64 1064.68C1662.54 986.634 1649.11 908.589 1626.97 833.811C1604.82 759.396 1574.7 686.796 1540.57 617.1C1511.17 557.568 1476.69 499.488 1431.67 449.757C1385.57 398.574 1328.58 359.007 1262.15 339.042C1184.83 315.81 1101.71 313.995 1021.85 311.454C978.287 310.365 935.09 310.002 891.53 310.002C850.511 310.002 809.129 309.276 768.11 311.454C728.906 313.632 689.339 319.44 652.313 332.508C617.828 344.85 586.247 363.726 557.933 386.595C502.031 432.333 457.019 491.502 418.904 552.486C340.133 677.721 293.306 824.01 286.772 972.477C280.964 1101.34 304.922 1244.36 401.843 1337.29C406.199 1341.65 422.534 1334.02 417.452 1329.31C317.627 1233.47 296.573 1083.92 304.922 952.149C314.36 808.038 361.187 666.831 438.869 544.863C476.621 485.331 521.633 426.525 578.261 383.328C606.575 361.548 637.793 344.85 672.278 335.049C709.667 324.159 749.234 321.255 787.712 320.166C828.005 319.077 868.661 319.44 908.954 319.803C951.062 319.803 992.807 320.529 1034.91 321.981C1113.32 324.885 1195.72 327.789 1270.14 355.014C1396.46 401.841 1474.51 521.268 1530.05 637.791C1595.02 773.916 1649.11 924.198 1640.76 1077.38C1636.77 1148.17 1619.71 1218.95 1585.59 1281.39C1552.55 1342.01 1503.18 1391.38 1445.83 1429.13C1318.42 1512.98 1163.42 1533.67 1014.95 1546.38C932.912 1553.28 850.148 1560.9 767.747 1561.63C726.365 1561.99 685.346 1560.17 644.327 1555.09C606.212 1550.37 568.097 1543.11 532.523 1528.23C498.764 1514.44 470.087 1493.02 446.855 1465.07C423.623 1437.12 406.925 1404.45 392.405 1371.05C361.187 1297.72 343.4 1219.32 325.25 1142.36C307.463 1066.49 292.943 989.538 292.943 911.493C292.943 841.797 302.381 771.738 320.531 704.22C338.681 636.339 366.269 571.362 401.843 510.741C419.993 480.249 439.958 450.846 462.101 422.895C484.607 394.581 508.928 367.356 537.968 345.213C568.46 321.981 602.945 307.824 639.608 297.297C678.449 286.407 718.379 278.421 757.946 272.25C838.169 259.908 920.207 256.278 1001.52 261.723C1041.45 264.264 1081.38 268.983 1120.58 275.88C1158.7 282.414 1197.18 291.489 1232.02 308.913C1265.78 325.611 1294.46 350.658 1321.68 376.068C1349.27 401.841 1376.13 427.977 1401.91 454.839C1453.09 508.563 1500.28 566.643 1534.77 632.709C1569.61 699.501 1590.67 772.464 1601.92 846.516C1612.45 918.753 1614.63 992.805 1608.82 1065.4C1603.74 1130.38 1591.76 1195.72 1567.8 1256.34C1544.2 1315.87 1508.27 1371.05 1458.17 1411.34C1428.04 1435.3 1394.28 1453.81 1359.8 1470.88C1325.31 1487.94 1289.74 1503.18 1253.8 1516.61C1110.42 1569.97 954.692 1594.66 802.595 1570.7C663.203 1548.56 528.167 1486.48 430.52 1383.39C337.592 1285.38 278.423 1151.8 282.053 1015.67C284.231 933.999 307.1 854.139 331.421 776.457C355.379 699.864 382.604 623.997 414.185 550.308C440.321 489.687 471.176 429.066 517.277 381.15C540.509 356.829 567.734 336.138 598.226 321.618C630.533 306.372 665.744 298.023 701.318 293.304C738.344 288.222 775.733 287.133 812.759 286.77C854.141 286.407 895.886 286.407 937.268 287.133C1016.4 288.585 1097.71 290.037 1175.03 307.824C1212.06 316.536 1248 329.604 1281.39 348.843C1315.15 368.445 1345.64 393.129 1375.41 417.813C1428.77 462.825 1481.77 510.015 1523.15 566.28C1543.11 593.505 1560.54 623.271 1572.52 655.215C1586.67 692.241 1593.21 731.445 1595.75 770.649C1598.29 811.305 1597.93 851.961 1598.29 892.254C1598.65 934.725 1598.65 977.196 1597.56 1019.67C1595.75 1096.99 1592.85 1177.93 1560.54 1249.81C1534.4 1308.61 1491.21 1358.35 1439.66 1396.46C1318.42 1486.12 1163.78 1503.91 1017.13 1501.37C864.305 1498.46 706.763 1477.41 572.09 1400.45C512.558 1366.69 458.471 1321.68 417.089 1267.23C370.988 1206.61 341.585 1134.37 320.168 1061.41C279.149 920.931 269.348 770.286 299.84 626.901C314.723 556.479 339.407 487.146 374.981 424.347C391.679 394.581 411.281 366.267 435.602 342.309C462.101 315.81 494.045 297.66 529.256 285.318C566.645 272.25 605.123 263.175 643.601 254.463C683.894 245.388 724.55 238.128 765.206 232.683C846.155 221.43 927.83 216.711 1009.87 218.163C1050.89 218.889 1091.91 221.067 1132.56 225.423C1170.68 229.416 1209.15 235.587 1245.45 248.292C1315.88 272.613 1372.5 322.344 1422.6 376.794C1474.14 433.059 1519.16 495.132 1556.55 561.198C1594.3 628.353 1625.88 700.59 1635.32 777.183C1645.12 857.769 1632.41 940.533 1611.72 1018.21C1592.12 1092.63 1562.72 1164.14 1524.6 1230.93C1488.66 1294.09 1445.1 1356.17 1383.03 1396.46C1351.81 1416.79 1316.97 1430.95 1282.12 1443.29C1244.37 1456.36 1205.89 1467.61 1167.05 1477.05C1017.13 1514.44 856.682 1527.14 706.037 1485.4C577.535 1450.18 457.019 1376.86 379.7 1266.51C335.414 1203.71 306.374 1131.47 280.601 1059.6C253.376 984.819 229.055 907.863 221.795 828.003C208.727 683.529 255.554 539.055 332.51 417.813C368.81 360.822 412.007 307.098 462.101 262.086C510.743 218.163 568.097 182.589 632.348 168.069C635.252 167.343 641.423 165.165 641.786 161.172C642.875 157.905 637.43 157.905 634.889 158.631Z" fill="black"/>
</g>
<mask id="mask1_1107_1299" style="mask-type:luminance" maskUnits="userSpaceOnUse" x="186" y="186" width="1443" height="1443">
<path d="M907.5 1628.06C1305.45 1628.06 1628.06 1305.45 1628.06 907.5C1628.06 509.549 1305.45 186.945 907.5 186.945C509.549 186.945 186.945 509.549 186.945 907.5C186.945 1305.45 509.549 1628.06 907.5 1628.06Z" fill="white"/>
</mask>
<g mask="url(#mask1_1107_1299)">
<path d="M749.592 517.638C670.458 534.699 599.673 582.978 551.031 647.229C502.752 710.754 475.164 789.162 475.527 869.022C475.89 954.69 506.019 1038.54 554.298 1108.6C604.392 1181.56 674.088 1238.56 753.585 1277.03C837.801 1317.33 931.092 1336.93 1024.38 1339.11C1072.3 1340.2 1121.3 1338.02 1168.49 1328.58C1216.05 1319.14 1261.06 1299.18 1298.45 1267.23C1331.84 1238.92 1358.34 1202.98 1379.76 1164.87C1402.99 1123.12 1420.42 1077.75 1430.58 1030.92C1440.74 985.182 1444.01 937.629 1439.65 891.165C1434.94 842.16 1420.42 794.97 1399.72 750.321C1379.03 706.035 1353.26 663.564 1324.95 623.997C1298.81 587.697 1267.23 554.301 1226.94 533.973C1183.01 512.193 1133.28 507.474 1085 503.118C1031.64 498.762 978.645 492.591 925.284 489.324C872.649 486.057 819.288 486.42 767.379 496.221C725.271 504.207 684.615 519.09 647.589 540.507C612.378 560.835 580.434 587.697 557.565 621.456C531.429 659.934 520.176 706.035 520.539 752.499C520.902 853.413 573.174 945.978 622.905 1030.19C647.952 1072.3 675.54 1113.32 709.662 1148.89C741.243 1181.56 778.269 1208.06 818.925 1228.75C900.6 1270.14 996.432 1287.56 1087.18 1276.67C1178.29 1265.78 1265.41 1224.04 1324.58 1152.52C1380.85 1084.64 1409.16 997.161 1406.98 909.315C1404.44 814.572 1368.87 719.103 1309.34 645.414C1280.3 609.477 1244.36 579.348 1202.62 559.383C1161.23 539.418 1115.5 528.528 1069.76 524.535C966.303 515.46 864.663 541.959 765.927 569.184C720.552 581.526 674.814 593.868 633.432 617.1C613.83 628.353 595.317 642.147 580.434 659.208C564.825 676.632 552.846 697.323 543.408 718.377C524.532 759.759 511.827 804.408 503.478 848.694C495.129 892.98 491.499 938.718 494.766 983.73C497.67 1027.65 507.108 1071.21 524.895 1111.87C542.682 1152.89 568.455 1189.55 600.762 1220.04C668.643 1285.02 757.941 1322.05 849.417 1339.11C900.6 1348.91 952.509 1352.9 1004.42 1353.99C1056.33 1355.08 1108.24 1351.81 1158.33 1336.57C1238.55 1312.24 1307.16 1256.71 1351.45 1185.92C1398.64 1110.42 1415.33 1020.03 1404.81 932.184C1393.19 837.804 1352.17 745.602 1288.65 674.817C1225.85 604.758 1138.73 562.65 1048.7 540.507C951.42 516.549 845.787 511.467 750.318 545.589C667.191 575.355 592.413 632.346 555.387 714.021C535.422 758.67 525.258 807.312 517.998 855.228C511.464 900.603 508.56 947.067 515.094 992.805C521.628 1036.73 537.963 1078.47 566.277 1112.59C592.776 1144.54 627.624 1168.86 664.65 1187.37C703.128 1206.97 744.147 1221.49 785.166 1234.56C834.534 1250.53 884.628 1265.05 935.448 1274.86C985.905 1284.66 1037.81 1289.74 1089.36 1285.75C1136.91 1282.12 1183.38 1270.86 1226.94 1251.26C1309.34 1213.87 1379.03 1149.62 1413.88 1065.04C1431.31 1022.57 1440.02 976.833 1438.57 930.732C1436.75 884.631 1424.05 839.619 1403.35 798.237C1383.03 757.218 1355.8 720.192 1324.95 686.07C1293.37 651.585 1258.52 617.826 1215.68 597.498C1168.49 574.992 1114.41 570.999 1063.22 566.643C1009.14 561.924 955.05 560.109 900.6 561.198C850.869 562.287 800.049 564.828 751.407 574.992C706.758 584.43 662.109 601.854 627.261 632.346C569.544 682.803 545.223 767.745 569.907 841.071C570.633 843.249 587.331 836.352 586.242 833.085C561.558 759.759 586.242 670.824 647.952 622.908C682.437 596.046 725.997 584.793 768.468 578.622C817.836 571.362 868.293 569.91 918.387 569.91C972.111 569.91 1025.47 572.814 1078.83 578.622C1127.84 583.704 1177.57 591.327 1220.4 617.1C1259.61 640.695 1292.64 674.817 1322.04 709.665C1350.72 743.787 1376.13 781.176 1394.28 821.832C1412.43 862.851 1422.59 906.774 1422.23 951.423C1421.87 996.798 1411.7 1042.17 1392.46 1083.19C1356.89 1160.87 1290.1 1222.58 1210.24 1253.44C1118.04 1289.01 1015.67 1281.39 921.291 1259.61C873.012 1248.72 825.459 1234.2 778.632 1218.23C739.428 1205.16 700.587 1190.28 664.287 1169.95C629.076 1149.98 596.406 1124.57 572.448 1091.54C546.675 1055.97 533.607 1013.5 528.888 970.299C524.169 925.287 528.162 879.912 535.422 835.263C543.045 788.073 553.935 740.52 574.989 697.323C612.015 622.545 682.437 569.184 761.571 545.952C857.04 518.001 961.221 527.802 1055.6 554.664C1099.16 567.006 1141.27 584.067 1180.11 607.299C1220.04 630.894 1255.25 661.386 1284.65 697.323C1343.1 768.834 1380.49 858.858 1389.2 950.697C1397.55 1037.09 1379.03 1124.21 1331.48 1197.17C1309.7 1230.57 1282.48 1259.97 1250.89 1284.29C1218.95 1308.61 1182.65 1325.31 1143.45 1334.39C1093.35 1345.64 1041.44 1346 990.261 1343.46C939.804 1341.28 889.71 1335.84 840.705 1324.59C753.222 1304.62 668.28 1265.05 605.481 1199.35C575.715 1168.13 552.483 1131.47 536.511 1091.54C520.902 1051.25 512.553 1008.41 510.375 965.217C508.197 920.931 512.19 876.282 521.265 833.085C529.977 789.888 542.682 745.965 561.558 706.035C571.359 685.707 582.975 666.105 598.584 649.407C613.104 633.798 630.528 621.456 649.404 612.018C689.697 591.69 735.072 581.526 778.269 569.91C874.101 543.774 973.563 521.268 1073.39 533.973C1118.04 539.781 1161.96 552.486 1201.16 573.903C1241.09 595.683 1274.49 627.264 1301.71 663.564C1357.25 737.616 1389.92 830.181 1390.65 923.109C1391.38 1008.78 1362.34 1094.44 1306.8 1160.15C1279.93 1192.09 1246.9 1218.59 1209.15 1236.74C1168.86 1255.98 1124.21 1265.78 1079.92 1269.05C990.987 1275.22 898.785 1254.89 820.377 1211.69C780.81 1189.91 744.873 1161.6 714.744 1127.84C683.163 1092.63 657.39 1052.34 633.432 1011.32C585.153 928.191 535.785 838.167 536.874 739.431C537.237 694.419 549.216 649.407 574.989 612.018C597.132 579.348 628.713 553.575 663.198 535.425C746.688 491.502 844.335 491.865 936.174 498.762C962.673 500.94 989.172 503.481 1015.67 506.022C1040.35 508.2 1065.4 510.378 1090.09 512.556C1136.55 516.912 1184.1 524.172 1224.76 548.13C1263.24 570.636 1292.28 605.847 1317.32 641.784C1344.19 680.988 1368.87 722.37 1388.47 765.93C1407.71 809.127 1420.78 854.865 1424.77 902.418C1428.76 948.882 1424.77 995.709 1414.24 1041.08C1403.72 1086.1 1387.02 1129.66 1364.51 1170.31C1343.82 1207.7 1317.69 1243.27 1284.29 1270.86C1268.32 1284.29 1250.53 1295.55 1230.93 1303.9C1208.79 1313.33 1184.83 1318.78 1160.87 1322.41C1114.77 1329.31 1067.94 1330.76 1021.48 1328.58C931.092 1324.22 841.068 1303.17 759.756 1262.51C682.8 1223.67 616.371 1166.68 568.092 1094.81C521.991 1026.2 493.314 944.526 492.588 861.399C491.862 783.354 518.361 705.672 565.188 643.236C608.385 585.156 668.643 540.144 740.154 524.898C744.147 524.172 748.503 521.994 751.77 519.09C753.222 518.001 752.859 516.912 749.592 517.638Z" fill="black"/>
</g>
<mask id="mask2_1107_1299" style="mask-type:luminance" maskUnits="userSpaceOnUse" x="186" y="186" width="1443" height="1443">
<path d="M907.5 1628.06C1305.45 1628.06 1628.06 1305.45 1628.06 907.5C1628.06 509.549 1305.45 186.945 907.5 186.945C509.549 186.945 186.945 509.549 186.945 907.5C186.945 1305.45 509.549 1628.06 907.5 1628.06Z" fill="white"/>
</mask>
<g mask="url(#mask2_1107_1299)">
<path d="M1039.63 774.643C985.545 749.959 920.931 752.5 869.022 782.266C822.558 808.765 788.799 857.407 779.724 910.042C777.183 925.288 776.094 941.26 779.724 956.506C782.991 971.389 790.977 984.457 801.504 995.71C822.195 1017.85 850.872 1030.92 879.186 1040.72C931.458 1058.51 990.264 1067.95 1043.99 1051.97C1070.49 1043.99 1096.26 1029.47 1113.68 1008.05C1123.12 996.436 1129.66 982.642 1132.2 967.759C1134.74 951.424 1134.01 934.363 1133.29 917.665C1131.47 885.358 1126.39 852.688 1116.59 822.196C1108.6 797.875 1096.99 773.191 1077.38 755.767C1054.88 735.439 1025.84 729.994 996.435 731.083C970.662 732.172 945.252 737.617 920.931 747.055C873.378 765.931 832.722 800.053 805.497 843.25C798.963 853.777 793.155 865.03 788.436 876.646C783.354 889.714 778.635 903.871 777.183 917.665C775.731 932.911 779.361 947.794 788.436 960.499C796.785 971.752 807.312 981.19 818.928 988.813C865.392 1018.94 927.465 1017.49 980.1 1007.33C1009.5 1001.88 1039.27 991.717 1062.5 972.478C1083.19 955.054 1099.89 930.733 1102.79 903.508C1105.7 874.468 1092.99 847.606 1075.21 825.463C1066.13 814.21 1055.97 804.046 1044.71 794.971C1033.1 785.17 1020.76 776.095 1006.96 769.924C956.505 747.055 895.884 762.664 855.954 798.601C813.12 837.079 792.429 895.159 787.347 951.424C786.258 965.218 786.258 979.738 791.703 992.806C797.148 1006.6 809.127 1015.31 822.558 1020.39C850.146 1031.65 881.364 1036 911.13 1037.09C971.388 1039.27 1034.55 1025.11 1085.73 992.443C1109.69 977.197 1127.84 955.417 1135.46 927.829C1142.36 902.056 1139.46 874.105 1132.56 848.695C1125.3 822.559 1114.05 795.697 1097.35 774.28C1088.64 763.027 1077.02 754.315 1062.86 751.411C1046.53 747.781 1029.47 749.596 1012.77 749.596C977.922 749.959 942.711 750.685 907.863 751.048C891.528 751.411 874.467 751.048 858.495 755.404C844.701 759.397 832.722 766.294 822.195 776.095C802.23 794.608 789.525 819.655 777.183 843.613C763.752 869.749 751.047 899.152 756.129 928.918C760.122 952.876 775.005 974.656 798.6 982.642C808.038 985.909 816.75 972.115 805.497 968.485C784.806 961.588 774.642 938.719 773.19 918.391C771.375 890.803 785.532 863.941 798.237 840.346C809.49 819.292 821.106 796.786 839.982 781.903C849.783 773.917 861.036 769.198 873.741 767.746C888.624 765.568 903.87 766.294 918.753 765.931C951.423 765.568 983.73 764.842 1016.4 764.479C1030.92 764.116 1046.89 762.301 1061.05 766.657C1072.3 770.287 1080.65 779.725 1087.19 789.526C1100.62 810.217 1110.78 833.812 1116.95 857.77C1122.76 881.002 1124.57 906.412 1117.31 929.644C1109.33 954.328 1091.18 971.752 1069.04 984.82C1045.44 998.614 1019.3 1008.41 992.805 1014.59C965.58 1020.76 937.992 1023.3 910.041 1021.85C896.61 1021.12 883.179 1019.67 869.748 1017.13C856.68 1014.59 843.249 1011.68 830.907 1006.24C819.291 1001.15 810.579 993.169 807.312 980.827C804.045 968.485 805.134 955.78 806.949 943.075C810.216 917.302 816.387 891.529 827.277 867.571C837.804 844.339 852.324 822.196 871.926 805.861C890.439 790.252 912.582 779.362 936.177 775.006C959.772 770.65 983.73 774.28 1005.15 785.533C1017.49 792.067 1028.38 800.779 1038.54 809.854C1048.34 818.566 1057.42 828.004 1065.41 838.531C1080.29 858.859 1090.09 883.18 1085.37 908.59C1080.65 932.548 1064.68 952.876 1045.08 966.67C1022.57 982.279 994.983 989.902 968.121 993.895C943.437 997.888 918.027 999.34 893.343 996.436C869.748 993.532 846.153 986.272 826.551 972.478C816.75 965.218 807.675 956.506 801.867 945.616C794.97 932.548 795.696 918.754 798.963 904.597C809.853 859.585 838.53 819.292 874.467 791.341C910.404 763.39 955.053 745.603 1000.79 745.24C1014.59 745.24 1029.11 746.329 1042.17 751.048C1052.7 755.041 1062.14 761.938 1069.76 769.924C1085.73 786.985 1095.53 809.128 1102.07 831.271C1110.78 860.674 1115.14 891.166 1116.95 921.658C1117.68 936.904 1118.4 952.513 1115.5 967.396C1112.96 980.464 1106.79 992.08 1098.08 1001.88C1064.32 1039.63 1009.5 1047.26 961.587 1042.17C935.814 1039.63 910.404 1033.1 886.083 1024.75C860.673 1016.04 835.263 1003.7 816.75 983.731C807.312 973.567 800.778 961.588 798.6 948.157C796.059 934.363 797.511 920.206 800.052 906.412C804.408 882.817 814.572 860.311 828.366 840.709C858.132 799.327 905.322 773.191 956.505 771.376C981.915 770.65 1007.33 775.369 1030.56 785.896C1034.91 787.711 1040 787.348 1043.26 783.718C1044.35 781.54 1043.63 776.458 1039.63 774.643Z" fill="black"/>
</g>
<mask id="mask3_1107_1299" style="mask-type:luminance" maskUnits="userSpaceOnUse" x="186" y="186" width="1443" height="1443">
<path d="M907.5 1628.06C1305.45 1628.06 1628.06 1305.45 1628.06 907.5C1628.06 509.549 1305.45 186.945 907.5 186.945C509.549 186.945 186.945 509.549 186.945 907.5C186.945 1305.45 509.549 1628.06 907.5 1628.06Z" fill="white"/>
</mask>
<g mask="url(#mask3_1107_1299)">
<path d="M967.032 869.748C959.772 868.296 952.512 867.207 945.252 867.207C938.355 867.207 931.095 867.207 924.198 869.022C912.582 872.289 908.952 884.268 912.945 894.795C915.486 901.692 920.205 907.863 925.287 912.945C930.369 918.027 935.814 923.109 942.348 926.739C952.512 932.91 965.217 936.54 976.47 931.458C986.271 927.102 993.531 917.301 991.353 906.411C989.901 899.514 986.271 893.706 981.915 888.261C977.196 882.09 971.751 876.645 965.217 872.289C955.416 865.392 942.348 863.577 932.184 871.926C922.383 879.912 921.294 894.432 928.554 904.596C933.636 912.219 941.259 918.027 949.971 920.205C955.779 921.657 963.402 921.294 967.032 915.849C971.388 909.678 967.032 902.781 962.676 897.699C957.594 891.891 950.697 885.72 942.711 885.357C940.17 885.357 944.889 891.165 945.252 891.891C947.067 894.069 950.697 898.788 953.964 898.788C956.142 898.788 957.594 899.514 959.409 900.24C962.313 900.966 955.053 893.706 955.416 896.247C955.416 896.973 955.779 897.699 955.779 898.788C955.779 902.781 952.149 906.048 948.519 907.5C944.163 908.952 939.081 907.863 935.088 906.048C930.369 903.87 937.266 905.685 937.992 910.041C937.992 908.952 937.266 907.863 936.903 907.137C936.54 904.959 936.54 902.418 936.54 899.877C937.629 891.165 944.163 883.542 952.512 881.001C956.505 879.912 960.861 879.912 964.854 881.001C966.669 881.727 968.484 882.453 969.936 883.542C970.662 883.905 971.025 884.268 971.751 884.994C972.84 885.72 971.751 884.994 972.84 886.083C971.751 884.994 973.929 887.535 973.203 886.809C973.566 887.535 974.292 888.261 974.655 888.987C975.744 890.802 976.47 892.617 977.196 894.432C978.285 898.425 977.922 903.144 976.107 907.137C972.84 914.034 965.58 919.479 957.957 920.931C949.245 922.746 939.807 919.842 932.547 915.123C931.095 914.397 930.006 913.308 928.554 912.219C927.465 911.493 927.465 911.493 926.739 910.404C924.198 907.137 923.109 903.507 923.109 899.514C923.109 895.158 924.198 890.802 927.465 887.535C931.095 883.542 936.177 882.816 941.259 882.09C953.238 881.001 965.58 881.727 977.196 884.268C979.737 884.994 975.018 878.097 974.655 877.734C973.929 874.104 970.662 870.474 967.032 869.748Z" fill="black"/>
</g>
<mask id="mask4_1107_1299" style="mask-type:luminance" maskUnits="userSpaceOnUse" x="186" y="186" width="1443" height="1443">
<path d="M907.5 1628.06C1305.45 1628.06 1628.06 1305.45 1628.06 907.5C1628.06 509.549 1305.45 186.945 907.5 186.945C509.549 186.945 186.945 509.549 186.945 907.5C186.945 1305.45 509.549 1628.06 907.5 1628.06Z" fill="white"/>
</mask>
<g mask="url(#mask4_1107_1299)">
<path d="M1487.21 518.002C1551.83 642.511 1558 785.896 1559.45 923.11C1559.81 959.41 1559.45 996.073 1553.64 1031.65C1547.83 1066.49 1535.13 1099.53 1517.34 1130.02C1499.55 1160.15 1478.14 1188.1 1456.36 1215.69C1433.85 1244.73 1410.26 1273.04 1386.3 1300.63C1362.34 1328.22 1337.29 1355.44 1311.88 1381.94C1287.93 1406.99 1263.6 1432.04 1235.29 1452.73C1207.34 1473.42 1175.76 1487.21 1142 1495.2C1107.51 1503.18 1071.94 1506.09 1037.09 1508.63C960.136 1514.44 883.18 1520.24 805.861 1523.87C769.198 1525.33 731.809 1525.69 695.509 1518.43C661.024 1511.53 629.443 1496.29 600.04 1477.77C570.637 1459.26 543.049 1438.21 515.461 1417.52C487.873 1396.82 459.922 1376.13 432.697 1354.72C378.247 1311.88 325.612 1266.51 279.148 1214.96C267.532 1202.26 256.642 1189.19 245.752 1175.39C243.574 1172.49 238.855 1171.4 235.588 1170.68C234.862 1170.68 227.239 1169.59 228.691 1171.4C272.614 1226.94 324.16 1275.95 378.247 1320.96C432.697 1366.33 490.051 1408.8 547.405 1450.19C575.719 1470.51 605.122 1489.75 637.066 1503.91C670.099 1518.43 705.31 1526.78 741.247 1529.68C778.273 1532.95 815.299 1530.77 851.962 1528.59C892.255 1526.05 932.911 1523.51 973.204 1520.97C1011.32 1518.43 1049.8 1515.89 1087.91 1512.26C1122.76 1508.99 1157.61 1503.91 1190.64 1491.93C1257.8 1467.61 1307.16 1410.98 1354.72 1360.16C1405.54 1305.35 1453.82 1248.36 1498.47 1188.46C1519.52 1160.15 1539.48 1130.75 1553.28 1098.08C1567.8 1063.23 1573.97 1025.84 1575.78 988.45C1577.6 952.15 1576.51 915.487 1575.78 879.187C1575.06 843.976 1573.24 808.765 1569.98 773.554C1563.81 703.858 1551.1 634.162 1525.33 568.822C1519.16 552.85 1511.9 537.604 1503.91 522.358C1502.46 519.454 1496.29 518.365 1493.75 517.639C1493.38 517.276 1486.12 515.824 1487.21 518.002Z" fill="black"/>
</g>
<mask id="mask5_1107_1299" style="mask-type:luminance" maskUnits="userSpaceOnUse" x="186" y="186" width="1443" height="1443">
<path d="M907.5 1628.06C1305.45 1628.06 1628.06 1305.45 1628.06 907.5C1628.06 509.549 1305.45 186.945 907.5 186.945C509.549 186.945 186.945 509.549 186.945 907.5C186.945 1305.45 509.549 1628.06 907.5 1628.06Z" fill="white"/>
</mask>
<g mask="url(#mask5_1107_1299)">
<path d="M269.708 744.15C229.778 852.324 215.621 969.21 228.326 1083.56C234.497 1140.18 247.202 1196.45 266.078 1250.17C284.954 1303.9 309.638 1356.17 349.568 1397.55C387.683 1436.75 435.236 1466.16 483.515 1491.2C531.431 1516.25 581.162 1537.31 632.708 1553.64C735.8 1586.67 844.337 1603.01 952.511 1601.19C1061.05 1599.74 1169.95 1580.5 1271.95 1543.11C1284.29 1538.76 1296.64 1533.68 1308.61 1528.96C1312.24 1527.5 1311.52 1524.24 1308.61 1522.42C1304.98 1520.24 1299.54 1520.61 1295.91 1522.06C1198.26 1562.35 1093.36 1585.58 987.722 1591.03C882.815 1596.47 776.819 1584.86 675.542 1556.18C624.722 1541.66 574.991 1523.15 527.075 1500.28C479.522 1477.41 432.332 1451.27 392.039 1417.52C371.348 1400.09 352.472 1380.85 337.226 1358.71C321.254 1335.48 308.549 1310.07 297.659 1283.93C275.879 1231.3 260.633 1176.12 251.558 1119.86C234.134 1008.78 241.394 893.706 274.427 786.258C278.42 772.827 282.776 759.759 287.858 746.691C289.673 740.157 271.523 738.342 269.708 744.15Z" fill="black"/>
</g>
<mask id="mask6_1107_1299" style="mask-type:luminance" maskUnits="userSpaceOnUse" x="186" y="186" width="1443" height="1443">
<path d="M907.5 1628.06C1305.45 1628.06 1628.06 1305.45 1628.06 907.5C1628.06 509.549 1305.45 186.945 907.5 186.945C509.549 186.945 186.945 509.549 186.945 907.5C186.945 1305.45 509.549 1628.06 907.5 1628.06Z" fill="white"/>
</mask>
<g mask="url(#mask6_1107_1299)">
<path d="M1100.62 287.496C1169.23 301.29 1228.39 340.131 1278.85 387.321C1332.21 437.052 1376.5 494.769 1420.78 552.123C1470.88 617.463 1519.16 684.255 1550.01 761.211C1578.69 832.359 1593.94 908.589 1595.75 985.182C1597.2 1061.05 1585.59 1137.64 1560.18 1209.52C1556.91 1218.59 1553.64 1227.3 1550.01 1236.38C1546.75 1244 1564.53 1246.54 1567.44 1240.01C1596.84 1168.13 1612.45 1090.82 1614.26 1013.13C1615.72 935.451 1603.74 857.406 1577.6 784.443C1564.53 747.054 1547.47 711.117 1527.51 676.995C1505.73 639.969 1480.68 604.758 1454.54 570.636C1409.17 510.741 1363.43 450.12 1309.71 396.759C1259.25 346.665 1200.44 303.468 1131.47 283.503C1123.12 280.962 1114.41 278.784 1106.06 277.332C1102.8 276.606 1096.63 276.606 1094.81 280.599C1093 284.229 1097.71 287.133 1100.62 287.496Z" fill="black"/>
</g>
</svg>
