<svg width="1200" height="288" viewBox="0 0 1200 288" fill="none" xmlns="http://www.w3.org/2000/svg">
<rect width="1200" height="288" fill="#B2DAD8"/>
<path d="M930.662 31.9997C930.662 29.2397 928.422 26.9997 925.662 26.9997H921.077L924.322 23.7547C926.277 21.7997 926.277 18.6347 924.322 16.6847C922.367 14.7347 919.202 14.7297 917.252 16.6847L914.007 19.9297V15.3447C914.007 12.5847 911.767 10.3447 909.007 10.3447C906.247 10.3447 904.007 12.5847 904.007 15.3447V19.9297L900.762 16.6847C898.807 14.7297 895.642 14.7297 893.692 16.6847C891.742 18.6397 891.737 21.8047 893.692 23.7547L896.937 26.9997H892.352C889.592 26.9997 887.352 29.2397 887.352 31.9997C887.352 34.7597 889.592 36.9997 892.352 36.9997H896.937L893.692 40.2447C891.737 42.1997 891.737 45.3647 893.692 47.3147C895.647 49.2697 898.812 49.2697 900.762 47.3147L904.007 44.0697V48.6547C904.007 51.4147 906.247 53.6547 909.007 53.6547C911.767 53.6547 914.007 51.4147 914.007 48.6547V44.0697L917.252 47.3147C919.207 49.2697 922.372 49.2697 924.322 47.3147C926.277 45.3597 926.277 42.1947 924.322 40.2447L921.077 36.9997H925.662C928.422 36.9997 930.662 34.7597 930.662 31.9997Z" fill="black"/>
<path d="M554.675 261.45C537.916 261.648 526.295 242.275 540.032 229.753C545.484 224.935 554.521 225.678 559.11 231.323C563.004 235.728 562.406 243.032 557.839 246.741C554.046 249.957 548.344 249.487 545.132 245.694C543.873 244.211 544.058 241.989 545.541 240.731C547.024 239.472 549.246 239.657 550.504 241.14C551.173 241.963 552.497 242.077 553.289 241.369C554.917 240.044 555.133 237.444 553.742 235.873C551.538 233.163 547.204 232.806 544.586 235.121C540.38 238.685 539.86 245.007 543.424 249.214C548.674 255.409 557.988 256.175 564.179 250.921C565.662 249.663 567.884 249.847 569.142 251.33C570.401 252.813 570.216 255.035 568.733 256.293C564.65 259.756 559.647 261.446 554.675 261.446V261.45Z" fill="black"/>
<path d="M114.675 263.45C97.9156 263.648 86.2952 244.275 100.032 231.753C105.484 226.935 114.521 227.678 119.11 233.323C123.004 237.728 122.406 245.032 117.839 248.741C114.046 251.957 108.344 251.487 105.132 247.694C103.873 246.211 104.058 243.989 105.541 242.731C107.024 241.472 109.246 241.657 110.504 243.14C111.173 243.963 112.497 244.077 113.289 243.369C114.917 242.044 115.133 239.444 113.742 237.873C111.538 235.163 107.204 234.806 104.586 237.121C100.38 240.685 99.8604 247.007 103.424 251.214C108.674 257.409 117.988 258.175 124.179 252.921C125.662 251.663 127.884 251.847 129.142 253.33C130.401 254.813 130.216 257.035 128.733 258.293C124.65 261.756 119.647 263.446 114.675 263.446V263.45Z" fill="black"/>
<path d="M371.087 43.8724C365.019 43.8079 361.691 39.2628 361.743 32.7225C361.769 25.8081 364.585 19.0313 369.47 14.1336C372.815 11.029 377.438 15.6386 374.342 18.9926C370.725 22.6175 368.644 27.627 368.623 32.7483C368.683 37.1644 370.171 37.7019 373.998 36.3603C372.953 33.3589 373.099 29.6394 374.462 25.3867C375.202 23.0819 376.264 20.4718 378.556 18.5927C381.222 16.4083 385.724 15.7805 388.639 18.511C393.438 22.8755 389.663 31.8539 385.814 36.1969C387.775 35.5304 389.478 33.8964 390.815 31.5228C391.74 29.863 393.834 29.2653 395.493 30.1898C397.153 31.1143 397.751 33.2084 396.826 34.8682C395.364 37.4955 392.716 40.9656 388.42 42.5695C385.053 43.8251 381.385 43.5198 378.534 41.8858C376.303 43.0038 373.465 43.8982 371.082 43.8724H371.087ZM383.866 23.5635C381.561 23.5936 380.181 29.7426 380.207 32.1291C381.862 30.3188 383.118 28.1387 383.78 25.7995C384.12 24.5912 384.051 23.8129 383.952 23.5678H383.866V23.5635Z" fill="black"/>
<path d="M1102.09 237.872C1096.02 237.808 1092.69 233.263 1092.74 226.723C1092.77 219.808 1095.59 213.031 1100.47 208.134C1103.82 205.029 1108.44 209.639 1105.34 212.993C1101.73 216.618 1099.64 221.627 1099.62 226.748C1099.68 231.164 1101.17 231.702 1105 230.36C1103.95 227.359 1104.1 223.639 1105.46 219.387C1106.2 217.082 1107.26 214.472 1109.56 212.593C1112.22 210.408 1116.72 209.781 1119.64 212.511C1124.44 216.876 1120.66 225.854 1116.81 230.197C1118.77 229.53 1120.48 227.896 1121.82 225.523C1122.74 223.863 1124.83 223.265 1126.49 224.19C1128.15 225.114 1128.75 227.208 1127.83 228.868C1126.36 231.496 1123.72 234.966 1119.42 236.57C1116.05 237.825 1112.39 237.52 1109.53 235.886C1107.3 237.004 1104.46 237.898 1102.08 237.872H1102.09ZM1114.87 217.564C1112.56 217.594 1111.18 223.743 1111.21 226.129C1112.86 224.319 1114.12 222.139 1114.78 219.8C1115.12 218.591 1115.05 217.813 1114.95 217.568H1114.87V217.564Z" fill="black"/>
<path d="M68.1682 72.2289C78.1936 66.4605 84.9058 55.3131 85.3084 43.7499C85.546 36.8133 83.3152 29.3751 77.758 25.2105C72.2008 21.0459 63.0268 21.6729 59.443 27.6129C56.6248 32.2857 57.6742 38.8527 53.9716 42.8589C50.236 46.9113 43.7482 46.2447 38.5936 48.1785C28.423 51.9999 24.7006 67.6881 34.0792 74.3541C42.3754 80.2479 60.3274 76.7301 68.1682 72.2223V72.2289Z" fill="black"/>
</svg>
