<svg width="60" height="38" viewBox="0 0 60 38" fill="none" xmlns="http://www.w3.org/2000/svg">
<path d="M54.8151 11.3376L54.8154 11.3377L54.8106 11.3488C54.7739 11.4336 54.7341 11.4844 54.7069 11.5192L54.7062 11.5201C54.5718 11.6918 54.3265 11.8347 54.0716 11.7779L54.0716 11.778L54.0642 11.7761L42.3529 8.79097L42.3019 8.77798L42.2849 8.76462C41.9411 8.66556 41.5475 8.7195 41.1419 8.93673C40.7247 9.16015 40.3789 9.53337 40.1738 9.97432L40.1726 9.97695C39.7244 10.912 40.0533 11.7599 40.739 11.9882L40.7411 11.989C40.9047 12.0451 41.0184 12.1719 41.0647 12.3261C41.1098 12.4762 41.0882 12.6389 41.0177 12.7838C40.8881 13.0501 40.5742 13.2719 40.2479 13.1622C38.8411 12.7166 38.4019 11.058 39.1096 9.57755C39.8134 8.10522 41.4291 7.18977 42.7807 7.60532L54.4804 10.5875C54.6581 10.6254 54.7764 10.7518 54.8281 10.8979C54.8783 11.0396 54.8678 11.1974 54.8151 11.3376Z" fill="#9870ED" stroke="#9870ED" stroke-width="0.5"/>
<ellipse cx="9" cy="14.5" rx="9" ry="14.5" transform="matrix(-0.980807 0.194983 0.194983 0.980807 26.6484 5.62402)" fill="black" stroke="black" stroke-width="2"/>
<ellipse cx="9" cy="14.5" rx="9" ry="14.5" transform="matrix(-0.980807 0.194983 0.194983 0.980807 45.2812 1.91992)" fill="black" stroke="black" stroke-width="2"/>
<ellipse cx="9" cy="14.5" rx="9" ry="14.5" transform="matrix(-0.980807 0.194983 0.194983 0.980807 46.0703 0.744141)" fill="white" stroke="black" stroke-width="2"/>
<ellipse cx="9" cy="14.5" rx="9" ry="14.5" transform="matrix(-0.980807 0.194983 0.194983 0.980807 28.4141 4.25391)" fill="white" stroke="black" stroke-width="2"/>
<rect width="2" height="2" transform="matrix(-0.980807 0.194983 0.194983 0.980807 44.4805 18.3916)" fill="black"/>
<rect width="2" height="2" transform="matrix(-0.980807 0.194983 0.194983 0.980807 44.0898 16.4307)" fill="black"/>
<rect width="2" height="2" transform="matrix(-0.980807 0.194983 0.194983 0.980807 46.0547 16.04)" fill="black"/>
<rect width="2" height="2" transform="matrix(-0.980807 0.194983 0.194983 0.980807 42.1289 16.8203)" fill="black"/>
<rect width="2" height="2" transform="matrix(-0.980807 0.194983 0.194983 0.980807 43.7031 14.4688)" fill="black"/>
<rect width="2" height="2" transform="matrix(-0.980807 0.194983 0.194983 0.980807 43.3125 12.5068)" fill="black"/>
<rect width="2" height="2" transform="matrix(-0.980807 0.194983 0.194983 0.980807 41.7383 14.8584)" fill="black"/>
<rect width="2" height="2" transform="matrix(-0.980807 0.194983 0.194983 0.980807 45.6641 14.0791)" fill="black"/>
<rect width="2" height="2" transform="matrix(-0.980807 0.194983 0.194983 0.980807 26.8242 21.9014)" fill="black"/>
<rect width="2" height="2" transform="matrix(-0.980807 0.194983 0.194983 0.980807 26.4336 19.9404)" fill="black"/>
<rect width="2" height="2" transform="matrix(-0.980807 0.194983 0.194983 0.980807 28.3984 19.5498)" fill="black"/>
<rect width="2" height="2" transform="matrix(-0.980807 0.194983 0.194983 0.980807 24.4727 20.3301)" fill="black"/>
<rect width="2" height="2" transform="matrix(-0.980807 0.194983 0.194983 0.980807 26.0469 17.9785)" fill="black"/>
<rect width="2" height="2" transform="matrix(-0.980807 0.194983 0.194983 0.980807 25.6562 16.0166)" fill="black"/>
<rect width="2" height="2" transform="matrix(-0.980807 0.194983 0.194983 0.980807 24.082 18.3682)" fill="black"/>
<rect width="2" height="2" transform="matrix(-0.980807 0.194983 0.194983 0.980807 28.0078 17.5889)" fill="black"/>
<path d="M48.203 27.8522C54.4787 26.1711 58.2172 19.6968 56.536 13.4211C54.8444 7.10635 48.3702 3.36788 42.0945 5.04902C35.8187 6.73016 32.0803 13.2044 33.7614 19.4801C35.414 25.8053 41.8882 29.5438 48.203 27.8522ZM42.5121 6.60821C47.9303 5.15679 53.515 8.38158 54.9768 13.8387C56.4283 19.2569 53.2035 24.8416 47.7853 26.293C42.3671 27.7444 36.7824 24.5196 35.331 19.1014C33.8302 13.6547 37.094 8.05963 42.5121 6.60821Z" fill="#9870ED"/>
<path d="M37.7343 18.8749C37.9682 18.8123 38.0823 18.6146 38.0197 18.3807C36.965 14.4437 39.3156 10.4302 43.2136 9.38597C43.4474 9.32332 43.5616 9.12563 43.4989 8.89175C43.4363 8.65787 43.2386 8.54372 43.0047 8.60637C38.639 9.77586 36.081 14.2628 37.2401 18.5895C37.2923 18.7844 37.5394 18.9271 37.7343 18.8749Z" fill="#9870ED"/>
<path d="M23.4918 34.4733C29.7675 32.7922 33.506 26.318 31.8249 20.0422C30.1723 13.7171 23.698 9.97859 17.3833 11.6702C11.0686 13.3618 7.3691 19.8255 9.05024 26.1013C10.7418 32.416 17.2161 36.1545 23.4918 34.4733ZM17.801 13.2294C23.2192 11.7779 28.8038 15.0027 30.2552 20.4209C31.7066 25.8391 28.4819 31.4238 23.0637 32.8752C17.6455 34.3266 12.0608 31.1018 10.6094 25.6836C9.15801 20.2654 12.3828 14.6808 17.801 13.2294Z" fill="#9870ED"/>
<path d="M13.0624 25.4853C13.2963 25.4226 13.4104 25.2249 13.3478 24.9911C12.2932 21.0541 14.6437 17.0405 18.5417 15.9963C18.7756 15.9337 18.8897 15.736 18.8271 15.5021C18.7644 15.2682 18.5667 15.1541 18.3329 15.2167C13.9671 16.3862 11.4092 20.8731 12.5682 25.1999C12.6204 25.3948 12.8285 25.5479 13.0624 25.4853Z" fill="#9870ED"/>
<path d="M31.4836 21.8877L34.9918 20.9479C35.2256 20.8853 35.3997 20.7551 35.5138 20.5574C35.628 20.3597 35.6433 20.105 35.5521 19.9205C35.4296 19.6191 35.3669 19.3852 35.2938 19.1124C34.8135 17.3193 34.8399 15.3905 35.3682 13.6197C35.4615 13.344 35.3779 13.0322 35.1594 12.8401C34.9408 12.648 34.6651 12.5547 34.3923 12.6278L27.8437 14.382C27.5708 14.4551 27.3397 14.6841 27.2854 14.9493C27.1922 15.225 27.3147 15.5264 27.4943 15.7289C28.837 16.9985 29.8241 18.6559 30.3044 20.4489C30.3671 20.6828 30.4402 20.9557 30.4847 21.2779C30.5474 21.5118 30.6386 21.6963 30.8362 21.8104C31.0235 21.8856 31.2497 21.9503 31.4836 21.8877ZM33.7555 19.608L31.8455 20.1196C31.8351 20.0807 31.8351 20.0807 31.8246 20.0417C31.3861 18.4045 30.5967 16.8614 29.5477 15.5966L33.5236 14.5316C33.2578 16.1903 33.3351 17.8824 33.7736 19.5196C33.7346 19.53 33.7451 19.569 33.7555 19.608Z" fill="#9870ED"/>
<path d="M9.14409 23.3141L9.13982 23.3258L9.13497 23.3374C9.09844 23.4242 9.05473 23.48 9.03642 23.5034L9.0356 23.5045C8.90859 23.6667 8.65312 23.8286 8.34983 23.7562L8.34267 23.7545L8.33555 23.7526L2.88893 22.2815L2.80031 22.2576C2.75297 22.2545 2.68919 22.2651 2.60665 22.3077C2.4966 22.3646 2.40026 22.4656 2.34397 22.5895L2.344 22.5895L2.34143 22.595C2.28041 22.7251 2.28462 22.8301 2.30483 22.8922C2.32341 22.9493 2.35643 22.9808 2.403 22.997L2.40712 22.9984C2.83844 23.1521 2.88972 23.6111 2.75607 23.8916C2.63969 24.1357 2.31727 24.3942 1.92964 24.2604C1.00005 23.951 0.768293 22.8994 1.15097 22.0813C1.52437 21.283 2.43811 20.7306 3.29248 20.9995L8.7199 22.4654C8.93719 22.5182 9.08202 22.6762 9.14533 22.8455C9.20624 23.0084 9.19407 23.1763 9.14409 23.3141Z" fill="#9870ED" stroke="#9870ED"/>
<ellipse cx="9" cy="14.5" rx="9" ry="14.5" transform="matrix(-0.980807 0.194983 0.194983 0.980807 26.6484 5.62402)" fill="black" stroke="black" stroke-width="2"/>
<ellipse cx="9" cy="14.5" rx="9" ry="14.5" transform="matrix(-0.980807 0.194983 0.194983 0.980807 45.2812 1.91992)" fill="black" stroke="black" stroke-width="2"/>
<ellipse cx="9" cy="14.5" rx="9" ry="14.5" transform="matrix(-0.980807 0.194983 0.194983 0.980807 46.0703 0.744141)" fill="white" stroke="black" stroke-width="2"/>
<ellipse cx="9" cy="14.5" rx="9" ry="14.5" transform="matrix(-0.980807 0.194983 0.194983 0.980807 28.4141 4.25391)" fill="white" stroke="black" stroke-width="2"/>
<rect width="2" height="2" transform="matrix(-0.980807 0.194983 0.194983 0.980807 44.4805 18.3916)" fill="black"/>
<rect width="2" height="2" transform="matrix(-0.980807 0.194983 0.194983 0.980807 44.0898 16.4307)" fill="black"/>
<rect width="2" height="2" transform="matrix(-0.980807 0.194983 0.194983 0.980807 46.0547 16.04)" fill="black"/>
<rect width="2" height="2" transform="matrix(-0.980807 0.194983 0.194983 0.980807 42.1289 16.8203)" fill="black"/>
<rect width="2" height="2" transform="matrix(-0.980807 0.194983 0.194983 0.980807 43.7031 14.4688)" fill="black"/>
<rect width="2" height="2" transform="matrix(-0.980807 0.194983 0.194983 0.980807 43.3125 12.5068)" fill="black"/>
<rect width="2" height="2" transform="matrix(-0.980807 0.194983 0.194983 0.980807 41.7383 14.8584)" fill="black"/>
<rect width="2" height="2" transform="matrix(-0.980807 0.194983 0.194983 0.980807 45.6641 14.0791)" fill="black"/>
<rect width="2" height="2" transform="matrix(-0.980807 0.194983 0.194983 0.980807 26.8242 21.9014)" fill="black"/>
<rect width="2" height="2" transform="matrix(-0.980807 0.194983 0.194983 0.980807 26.4336 19.9404)" fill="black"/>
<rect width="2" height="2" transform="matrix(-0.980807 0.194983 0.194983 0.980807 28.3984 19.5498)" fill="black"/>
<rect width="2" height="2" transform="matrix(-0.980807 0.194983 0.194983 0.980807 24.4727 20.3301)" fill="black"/>
<rect width="2" height="2" transform="matrix(-0.980807 0.194983 0.194983 0.980807 26.0469 17.9785)" fill="black"/>
<rect width="2" height="2" transform="matrix(-0.980807 0.194983 0.194983 0.980807 25.6562 16.0166)" fill="black"/>
<rect width="2" height="2" transform="matrix(-0.980807 0.194983 0.194983 0.980807 24.082 18.3682)" fill="black"/>
<rect width="2" height="2" transform="matrix(-0.980807 0.194983 0.194983 0.980807 28.0078 17.5889)" fill="black"/>
<path d="M48.203 27.8522C54.4787 26.1711 58.2172 19.6968 56.536 13.4211C54.8444 7.10635 48.3702 3.36788 42.0945 5.04902C35.8187 6.73016 32.0803 13.2044 33.7614 19.4801C35.414 25.8053 41.8882 29.5438 48.203 27.8522ZM42.5121 6.60821C47.9303 5.15679 53.515 8.38158 54.9768 13.8387C56.4283 19.2569 53.2035 24.8416 47.7853 26.293C42.3671 27.7444 36.7824 24.5196 35.331 19.1014C33.8302 13.6547 37.094 8.05963 42.5121 6.60821Z" fill="#9870ED"/>
<path d="M37.7343 18.8749C37.9682 18.8123 38.0823 18.6146 38.0197 18.3807C36.965 14.4437 39.3156 10.4302 43.2136 9.38597C43.4474 9.32332 43.5616 9.12563 43.4989 8.89175C43.4363 8.65787 43.2386 8.54372 43.0047 8.60637C38.639 9.77586 36.081 14.2628 37.2401 18.5895C37.2923 18.7844 37.5394 18.9271 37.7343 18.8749Z" fill="#9870ED"/>
<path d="M23.4918 34.4733C29.7675 32.7922 33.506 26.318 31.8249 20.0422C30.1723 13.7171 23.698 9.97859 17.3833 11.6702C11.0686 13.3618 7.3691 19.8255 9.05024 26.1013C10.7418 32.416 17.2161 36.1545 23.4918 34.4733ZM17.801 13.2294C23.2192 11.7779 28.8038 15.0027 30.2552 20.4209C31.7066 25.8391 28.4819 31.4238 23.0637 32.8752C17.6455 34.3266 12.0608 31.1018 10.6094 25.6836C9.15801 20.2654 12.3828 14.6808 17.801 13.2294Z" fill="#9870ED"/>
<path d="M13.0624 25.4853C13.2963 25.4226 13.4104 25.2249 13.3478 24.9911C12.2932 21.0541 14.6437 17.0405 18.5417 15.9963C18.7756 15.9337 18.8897 15.736 18.8271 15.5021C18.7644 15.2682 18.5667 15.1541 18.3329 15.2167C13.9671 16.3862 11.4092 20.8731 12.5682 25.1999C12.6204 25.3948 12.8285 25.5479 13.0624 25.4853Z" fill="#9870ED"/>
<path d="M31.4836 21.8877L34.9918 20.9479C35.2256 20.8853 35.3997 20.7551 35.5138 20.5574C35.628 20.3597 35.6433 20.105 35.5521 19.9205C35.4296 19.6191 35.3669 19.3852 35.2938 19.1124C34.8135 17.3193 34.8399 15.3905 35.3682 13.6197C35.4615 13.344 35.3779 13.0322 35.1594 12.8401C34.9408 12.648 34.6651 12.5547 34.3923 12.6278L27.8437 14.382C27.5708 14.4551 27.3397 14.6841 27.2854 14.9493C27.1922 15.225 27.3147 15.5264 27.4943 15.7289C28.837 16.9985 29.8241 18.6559 30.3044 20.4489C30.3671 20.6828 30.4402 20.9557 30.4847 21.2779C30.5474 21.5118 30.6386 21.6963 30.8362 21.8104C31.0235 21.8856 31.2497 21.9503 31.4836 21.8877ZM33.7555 19.608L31.8455 20.1196C31.8351 20.0807 31.8351 20.0807 31.8246 20.0417C31.3861 18.4045 30.5967 16.8614 29.5477 15.5966L33.5236 14.5316C33.2578 16.1903 33.3351 17.8824 33.7736 19.5196C33.7346 19.53 33.7451 19.569 33.7555 19.608Z" fill="#9870ED"/>
</svg>
