<svg width="173" height="173" viewBox="0 0 173 173" fill="none" xmlns="http://www.w3.org/2000/svg">
<path d="M65.9292 9.14793C66.1509 8.36883 66.9594 7.90953 67.7405 8.13394L114.626 21.639L114.625 21.6389C115.358 21.8497 115.792 22.582 115.662 23.3131L115.628 23.4596C115.428 24.1622 114.752 24.605 114.046 24.5199C114.007 24.5152 113.969 24.5088 113.931 24.5011L113.816 24.4735L66.9313 10.9686C66.1505 10.7438 65.7081 9.92549 65.9292 9.14793Z" fill="white" stroke="black"/>
<path d="M114.764 20.7959C116.228 20.9725 117.492 21.6993 118.347 22.7351C119.201 23.7713 119.651 25.125 119.48 26.5408L119.309 27.9573L108.646 26.6709L108.817 25.2544C109.16 22.414 111.842 20.4434 114.764 20.7959Z" fill="white" stroke="black"/>
<path d="M94.6672 140.729C91.2557 137.959 79.7673 139.475 78.614 144.257C78.381 145.225 78.6059 146.177 78.9634 146.993C72.4298 144.441 65.6632 146.73 63.0844 151.473C61.2921 154.77 61.3717 159.527 63.8894 162.435C66.1822 165.083 69.7633 165.093 76.8321 165.005C85.9353 164.892 92.0711 164.813 95.0524 160.268C97.1377 157.089 96.877 152.529 96.8124 151.418C96.666 148.919 96.0236 146.922 95.5057 145.636C95.7594 145.256 96.3822 144.206 96.155 142.959C95.9371 141.759 95.0524 141.041 94.6684 140.73L94.6672 140.729Z" fill="#9870ED"/>
<path d="M73.6995 165.713C68.5891 165.713 65.5073 165.352 63.3633 162.877C62.0785 161.393 61.3023 159.351 61.1766 157.128C61.0578 155.017 61.518 152.888 62.4729 151.132C63.8362 148.624 66.2743 146.74 69.3399 145.824C72.0479 145.014 75.0408 145.043 77.8999 145.889C77.788 145.26 77.8007 144.657 77.938 144.085C78.3958 142.186 80.2585 140.596 83.181 139.608C86.987 138.32 92.6257 138.174 95.0996 140.182C95.539 140.538 96.5666 141.372 96.8307 142.824C97.0464 144.009 96.6381 145.045 96.2714 145.694C96.9726 147.527 97.3855 149.434 97.4997 151.367C97.7857 156.234 96.6393 159.094 95.6278 160.636C94.1388 162.906 91.8333 164.282 88.3687 164.967C85.2582 165.582 81.3564 165.631 76.8377 165.688C75.7132 165.702 74.6694 165.714 73.6995 165.714V165.713ZM73.4757 146.634C69.3007 146.634 65.4739 148.51 63.6897 151.794C61.9101 155.067 62.2203 159.441 64.4105 161.972C66.4542 164.332 69.6928 164.392 76.8215 164.303C85.7749 164.191 91.6903 164.117 94.4722 159.877C95.3695 158.51 96.3832 155.938 96.1203 151.449C96.0084 149.552 95.5851 147.68 94.862 145.885C94.7766 145.673 94.8009 145.433 94.9277 145.243C95.2034 144.829 95.6405 143.997 95.4721 143.073C95.2991 142.125 94.5771 141.539 94.2311 141.257C92.4135 139.782 87.4587 139.624 83.6285 140.919C81.1719 141.749 79.6299 142.989 79.2874 144.41C79.1236 145.089 79.2285 145.861 79.5976 146.706C79.7095 146.962 79.6564 147.261 79.4627 147.463C79.2689 147.665 78.9725 147.729 78.7119 147.628C76.9876 146.954 75.2034 146.635 73.478 146.635L73.4757 146.634Z" fill="black"/>
<path d="M79.3018 146.378C80.8911 147.153 82.2324 148.451 82.9867 150.051C83.2369 150.577 83.4226 151.128 83.5472 151.69C83.5933 151.899 83.4607 152.108 83.2508 152.154C83.0513 152.198 82.854 152.081 82.7941 151.89C82.6361 151.398 82.425 150.925 82.1643 150.487C81.6465 149.615 80.9268 148.874 80.0803 148.324C79.6593 148.051 79.2107 147.825 78.7459 147.647C77.8636 147.267 78.4218 145.989 79.3018 146.38V146.378ZM95.9571 146.155C94.9998 146.855 93.9283 147.368 92.82 147.671C92.3598 147.789 92.1257 147.148 92.549 146.94C93.5005 146.481 94.3482 145.854 95.0494 145.111C95.7817 144.411 96.7529 145.525 95.9571 146.155ZM82.1863 99.2798C81.2913 108.847 80.8449 119.386 81.1828 130.745C81.3247 135.522 81.5957 140.129 81.9671 144.552C82.0502 145.54 82.5991 146.428 83.4457 146.942C83.952 147.25 84.576 147.533 85.3152 147.692C86.4605 147.939 87.5135 147.81 88.4062 147.531C90.1223 146.993 91.2918 145.404 91.3299 143.606C91.4245 139.124 91.5698 134.573 91.767 129.954C92.2133 119.558 92.9019 109.509 93.7819 99.8288C90.3219 99.6362 85.6451 99.4724 82.1851 99.2798H82.1863Z" fill="black"/>
<path d="M104.903 141.599C107.484 138.042 118.973 136.539 121.323 140.862C121.798 141.737 121.826 142.715 121.692 143.595C127.345 139.443 134.473 139.905 138.189 143.822C140.771 146.544 141.924 151.161 140.242 154.62C138.71 157.771 135.254 158.705 128.402 160.445C119.579 162.686 113.63 164.195 109.576 160.573C106.741 158.042 105.814 153.569 105.59 152.479C105.086 150.026 105.191 147.933 105.359 146.556C105.016 146.253 104.144 145.4 104.041 144.137C103.942 142.921 104.611 142 104.902 141.6L104.903 141.599Z" fill="#9870ED"/>
<path d="M116.017 163.432C113.109 163.432 110.893 162.673 109.111 161.082C107.735 159.853 105.89 157.385 104.908 152.61C104.519 150.713 104.425 148.765 104.629 146.813C104.107 146.282 103.445 145.386 103.348 144.185C103.228 142.714 104.034 141.603 104.338 141.186C106.208 138.607 111.694 137.292 115.704 137.553C118.783 137.752 120.993 138.809 121.926 140.525C122.207 141.043 122.376 141.622 122.429 142.258C124.973 140.703 127.856 139.903 130.682 139.985C133.879 140.078 136.722 141.27 138.686 143.34C140.062 144.79 141.056 146.728 141.488 148.798C141.941 150.978 141.718 153.151 140.86 154.916C139.157 158.42 135.396 159.376 128.568 161.109C124.188 162.222 120.406 163.183 117.242 163.392C116.821 163.42 116.413 163.433 116.017 163.433V163.432ZM114.638 138.902C110.844 138.902 106.724 140.254 105.459 141.997C105.196 142.36 104.65 143.112 104.729 144.072C104.805 145.008 105.441 145.7 105.815 146.028C105.987 146.179 106.072 146.406 106.045 146.632C105.809 148.552 105.883 150.469 106.266 152.331C107.17 156.736 108.815 158.96 110.035 160.048C113.817 163.426 119.551 161.97 128.229 159.766C135.14 158.01 138.252 157.117 139.617 154.308C141.079 151.299 140.249 146.993 137.684 144.289C134.049 140.459 127.202 140.394 122.098 144.144C121.873 144.309 121.57 144.323 121.33 144.178C121.09 144.033 120.962 143.759 121.004 143.482C121.144 142.57 121.045 141.797 120.711 141.183C120.014 139.9 118.204 139.1 115.616 138.932C115.294 138.911 114.968 138.901 114.64 138.901L114.638 138.902Z" fill="black"/>
<path d="M122.066 144.165C120.84 145.045 119.905 146.33 119.498 147.792C119.358 148.284 119.276 148.795 119.252 149.313C119.216 149.804 118.508 149.803 118.473 149.311C118.418 148.152 118.636 146.977 119.107 145.91C119.581 144.825 120.312 143.861 121.205 143.082C121.952 142.482 122.821 143.568 122.066 144.165ZM105.661 145.926C106.531 146.463 107.512 146.851 108.552 147.048C109.015 147.144 108.946 147.821 108.477 147.824C107.323 147.818 106.152 147.597 105.044 147.165C104.126 146.754 104.778 145.441 105.661 145.926ZM105.936 98.5456C109.006 107.173 111.94 116.571 114.54 126.705C115.813 131.67 116.929 136.509 117.906 141.204C118.279 142.995 117.541 144.854 116.008 145.853C115.224 146.364 114.248 146.768 113.083 146.831C112.424 146.867 111.826 146.787 111.307 146.655C110.232 146.381 109.39 145.551 109.075 144.487C107.758 140.045 106.373 135.546 104.913 130.993C101.701 120.974 98.3446 111.356 94.8984 102.143C98.1843 101.041 102.65 99.6459 105.936 98.5444V98.5456Z" fill="black"/>
<path d="M145.568 52.2274C148.325 47.3973 149.976 42.845 150.997 39.144C148.855 38.3863 146.714 37.6274 144.572 36.8696C143.972 38.6527 143.021 41.1404 141.544 43.9592C138.533 49.7131 135.117 53.4476 133.146 55.5721C131.357 57.5016 128.876 59.9225 125.636 62.4171C125.046 62.8715 124.715 63.5889 124.753 64.334C124.798 65.222 125.057 66.4215 125.952 67.5183C126.655 68.3787 127.498 68.87 128.259 69.1491C129.362 69.5539 130.596 69.3371 131.514 68.6036C135.629 65.3143 141.114 60.0274 145.567 52.2263L145.568 52.2274Z" fill="black"/>
<path d="M161.073 14.4758C161.441 14.4919 162.274 14.5277 162.828 15.1412C163.223 15.5807 163.303 16.1296 163.32 16.433C166.325 15.3281 168.946 16.1804 169.574 17.667C169.648 17.8435 170.006 18.7673 169.222 20.2447C169.582 20.4639 170.421 21.0428 170.636 22.0278C170.774 22.6644 170.593 23.1984 170.513 23.4245C169.75 25.5847 163.605 29.7978 161.398 32.4516C158.626 35.7847 159.23 37.9334 156.423 39.5192C155.01 40.3173 153.592 40.488 152.658 40.5157C152.602 40.9967 152.445 41.5341 152.041 41.9309C150.721 43.2249 147.777 42.0427 146.496 41.3323C145.736 40.9102 143.748 39.7661 142.93 37.2956C142.366 35.5898 142.641 34.1009 142.807 33.4412C142.498 32.8357 141.956 31.5728 141.981 29.8958C142.004 28.3527 142.498 27.1878 142.802 26.5904C142.416 24.7854 141.755 23.5929 141.219 22.8351C140.68 22.0751 139.881 21.2055 140.165 20.4846C140.287 20.1732 140.563 20.0129 140.672 19.9518C142.039 19.1814 144.979 20.653 146.463 22.7636C146.748 23.1684 146.863 23.3103 146.942 23.3703C147.386 23.7082 150.014 21.5665 154.012 18.1803C154.73 17.5713 158.568 14.3662 161.073 14.4723V14.4758Z" fill="#F7F7F7"/>
<path d="M150.366 43.1393C148.526 43.1393 146.499 42.0563 146.187 41.8833C145.459 41.4785 143.238 40.2468 142.327 37.4915C141.809 35.9252 141.921 34.4986 142.136 33.5136C141.74 32.6786 141.322 31.4238 141.345 29.8829C141.362 28.7227 141.634 27.5601 142.132 26.5083C141.836 25.2384 141.355 24.1255 140.699 23.1993C140.618 23.0852 140.53 22.9675 140.442 22.8487C139.89 22.1083 139.204 21.1868 139.573 20.2503C139.71 19.9008 139.976 19.6136 140.36 19.3968C142.18 18.3715 145.414 20.1672 146.981 22.3966C147.08 22.5385 147.154 22.6388 147.207 22.7103C148.237 22.2386 151.69 19.3138 153.601 17.6945C155.013 16.4985 158.571 13.7282 161.1 13.8366C161.5 13.8539 162.566 13.8989 163.298 14.712C163.501 14.9369 163.66 15.2033 163.771 15.4997C165.807 14.6797 168.096 15.1237 169.258 16.6611C170.128 17.8133 170.065 19.1881 169.932 19.9562C170.631 20.4821 171.095 21.1556 171.255 21.888C171.435 22.7138 171.192 23.4046 171.111 23.6307C170.608 25.0539 168.335 27.0077 165.928 29.0756C164.374 30.4111 162.767 31.7917 161.885 32.8527C160.732 34.2391 160.191 35.4097 159.714 36.4431C159.062 37.8536 158.499 39.0715 156.735 40.0668C155.683 40.6608 154.493 41.0137 153.188 41.1175C153.054 41.6273 152.819 42.0506 152.484 42.3793C151.914 42.9386 151.157 43.1393 150.366 43.1393ZM141.566 20.3725C141.335 20.3725 141.137 20.414 140.982 20.5005C140.932 20.5294 140.796 20.6055 140.753 20.7139C140.642 20.993 141.134 21.6527 141.459 22.0898C141.553 22.2167 141.647 22.3424 141.733 22.4658C142.524 23.5846 143.092 24.927 143.419 26.4541C143.449 26.5959 143.431 26.7447 143.364 26.875C142.888 27.8104 142.628 28.8564 142.612 29.9025C142.59 31.3188 143.012 32.4502 143.369 33.1492C143.439 33.2852 143.456 33.4433 143.419 33.592C143.213 34.4144 143.065 35.6899 143.53 37.0936C144.287 39.3795 146.179 40.429 146.802 40.775C148.162 41.5293 150.666 42.3862 151.594 41.4751C151.828 41.2456 151.973 40.8984 152.026 40.4405C152.061 40.1268 152.322 39.8881 152.637 39.8789C153.934 39.8408 155.103 39.5329 156.11 38.9643C157.518 38.1685 157.955 37.2227 158.56 35.9125C159.046 34.863 159.649 33.5574 160.909 32.0431C161.859 30.9002 163.433 29.5473 165.1 28.1149C167.174 26.333 169.523 24.3135 169.914 23.2097C169.975 23.0367 170.118 22.6331 170.014 22.159C169.863 21.4636 169.245 20.9988 168.891 20.7831C168.65 20.6366 168.534 20.3472 168.608 20.0738C168.681 19.8085 169.004 18.4315 168.244 17.4269C167.43 16.3485 165.484 15.8849 163.641 16.9748C163.451 17.0878 163.215 17.0924 163.02 16.9886C162.825 16.8848 162.699 16.6865 162.685 16.465C162.67 16.2032 162.601 15.8342 162.355 15.5608C161.979 15.1433 161.348 15.1168 161.045 15.1041C159.342 15.0314 156.506 16.8952 154.42 18.6621C152.358 20.4083 150.736 21.7588 149.525 22.6757C147.779 23.9951 147.085 24.2754 146.557 23.8729C146.407 23.7587 146.275 23.5984 145.943 23.1255C144.786 21.4809 142.754 20.3725 141.565 20.3725H141.566Z" fill="black"/>
<path d="M143.332 33.0833C143.706 33.8111 144.333 34.4373 145.121 34.8237C145.505 35.0198 145.284 35.5987 144.868 35.4915C143.854 35.2204 142.926 34.608 142.265 33.7742C141.72 33.0199 142.864 32.2771 143.331 33.0833H143.332ZM148.483 23.4253C147.409 24.1357 146.331 24.9442 145.316 25.7446C144.965 26.0238 144.525 25.5451 144.832 25.2199C145.247 24.7966 145.814 24.1969 146.236 23.7932C146.716 23.3261 147.206 22.8694 147.706 22.423C148.401 21.8545 149.208 22.8925 148.483 23.4264V23.4253ZM163.638 16.9759C162.506 17.5767 161.433 18.2907 160.432 19.1026C159.432 19.9157 158.507 20.8291 157.67 21.8233C157.544 21.9756 157.318 21.9952 157.166 21.8671C157.022 21.746 156.998 21.5338 157.108 21.3827C157.898 20.2963 158.791 19.2791 159.779 18.3552C160.767 17.4314 161.847 16.5976 163.002 15.8767C163.3 15.6899 163.693 15.7798 163.879 16.0774C164.074 16.3877 163.962 16.804 163.638 16.9747V16.9759ZM168.981 20.8257C167.61 20.2133 166.166 20.956 165.025 21.8014C163.769 22.7517 162.691 23.9697 161.754 25.2441C161.638 25.4044 161.414 25.4402 161.254 25.3237C161.1 25.2118 161.062 24.9984 161.164 24.8404C161.614 24.1427 162.104 23.4714 162.638 22.829C164.248 20.9133 166.753 18.639 169.47 19.6562C170.263 19.9976 169.78 21.1521 168.98 20.8268L168.981 20.8257ZM152.389 41.1301C151.905 40.9686 151.449 40.7334 151.045 40.4393C150.641 40.144 150.289 39.7888 150.007 39.3955C149.891 39.234 149.928 39.0103 150.088 38.895C150.23 38.7935 150.422 38.8096 150.544 38.9249C151.153 39.4832 151.914 39.8107 152.681 39.896C153.032 39.9353 153.284 40.2501 153.246 40.6007C153.207 41.009 152.771 41.2754 152.389 41.1301Z" fill="black"/>
<path d="M162.898 27.9622C162.692 27.9622 162.494 27.8515 162.39 27.6577C161.561 26.1077 160.448 24.7779 159.083 23.7064C158.114 22.9452 157.036 22.3328 155.877 21.8853C155.579 21.7711 155.432 21.4367 155.547 21.1391C155.661 20.8415 155.996 20.6939 156.292 20.8092C157.557 21.2971 158.736 21.9672 159.795 22.7987C161.285 23.9694 162.5 25.4203 163.406 27.1122C163.556 27.3936 163.451 27.7419 163.169 27.893C163.083 27.9391 162.989 27.9611 162.898 27.9611V27.9622Z" fill="black"/>
<path d="M93.7875 116.59C109.865 115.561 122.614 110.271 122.263 104.774C121.911 99.2765 108.592 95.6538 92.5141 96.6823C76.4361 97.7107 63.6874 103.001 64.039 108.498C64.3907 113.995 77.7095 117.618 93.7875 116.59Z" fill="white"/>
<path d="M88.3689 117.409C82.5734 117.409 77.1989 116.794 72.8542 115.613C66.9538 114.007 63.5999 111.499 63.4108 108.549C63.2216 105.598 66.2284 102.682 71.8774 100.338C77.3188 98.0799 84.6344 96.5598 92.4782 96.0581C100.322 95.5564 107.773 96.1308 113.457 97.6774C119.359 99.2828 122.712 101.791 122.901 104.742C123.09 107.692 120.083 110.609 114.434 112.952C108.993 115.21 101.677 116.73 93.8334 117.232C91.9846 117.351 90.1566 117.409 88.3689 117.409ZM64.6771 108.467C64.8259 110.8 67.9284 112.958 73.1876 114.388C78.7409 115.899 86.0438 116.458 93.7526 115.966C101.46 115.472 108.633 113.986 113.949 111.78C118.983 109.692 121.784 107.155 121.634 104.822C121.486 102.489 118.383 100.331 113.124 98.9011C107.571 97.3902 100.267 96.8309 92.559 97.3233C84.8512 97.817 77.6786 99.3036 72.3629 101.509C67.3286 103.597 64.5272 106.134 64.6771 108.467Z" fill="black"/>
<path d="M93.53 112.551C108.281 111.607 120.018 107.4 119.747 103.154C119.475 98.9077 107.297 96.2303 92.5464 97.1739C77.7957 98.1174 66.0581 102.325 66.3297 106.571C66.6013 110.817 78.7793 113.495 93.53 112.551Z" fill="white"/>
<path d="M87.6802 113.363C82.7116 113.363 78.1179 112.939 74.3707 112.115C68.8543 110.903 65.8568 108.995 65.7034 106.6C65.55 104.204 68.2799 101.931 73.598 100.026C78.6046 98.2312 85.3216 96.9902 92.5138 96.53C99.706 96.0699 106.527 96.4447 111.72 97.5865C117.238 98.7998 120.234 100.706 120.388 103.102C120.541 105.497 117.811 107.77 112.493 109.676C107.486 111.47 100.769 112.711 93.5771 113.171C91.5738 113.299 89.5981 113.363 87.679 113.363H87.6802ZM98.4177 97.6061C96.5239 97.6061 94.5736 97.6684 92.5934 97.7952C85.5165 98.2485 78.9217 99.4641 74.0247 101.219C69.4979 102.842 66.8602 104.822 66.9686 106.519C67.077 108.214 69.9454 109.843 74.6429 110.875C79.7245 111.992 86.4196 112.357 93.4964 111.905C100.573 111.452 107.168 110.236 112.065 108.481C116.592 106.858 119.23 104.877 119.121 103.181C119.013 101.486 116.143 99.8574 111.447 98.8252C107.787 98.0213 103.291 97.6061 98.4177 97.6061Z" fill="black"/>
<path d="M79.2031 98.7145C79.2585 99.2842 79.5307 102.063 79.8536 103.88C79.8905 104.088 79.9597 104.462 80.1777 104.895C80.3196 105.178 80.6621 105.76 81.6793 106.456C83.7738 107.885 86.0505 107.962 86.8001 107.978C86.9478 107.982 87.0677 107.98 87.1438 107.979C86.8855 104.696 86.6271 101.411 86.3688 98.1274C83.9802 98.3235 81.5917 98.5196 79.2031 98.7156V98.7145Z" fill="#9870ED"/>
<path d="M87.0221 108.599C86.9552 108.599 86.8745 108.599 86.7845 108.597C84.6797 108.552 82.8401 108.003 81.3201 106.965C80.492 106.4 79.9326 105.812 79.6085 105.166C79.3455 104.641 79.266 104.193 79.2267 103.978C78.9234 102.273 78.6662 99.7626 78.5694 98.7626C78.5359 98.4143 78.7908 98.1041 79.1402 98.0706C79.4874 98.0383 79.7988 98.2921 79.8322 98.6415C79.928 99.6265 80.1806 102.097 80.4758 103.757C80.5058 103.925 80.5612 104.239 80.7422 104.599C80.9637 105.04 81.3985 105.485 82.0351 105.919C83.3499 106.816 84.9565 107.292 86.8122 107.331C86.9506 107.334 87.0637 107.333 87.1352 107.332C87.1375 107.332 87.1398 107.332 87.1432 107.332C87.4904 107.332 87.773 107.611 87.7776 107.958C87.7822 108.309 87.5008 108.596 87.1513 108.599C87.1167 108.599 87.074 108.599 87.0244 108.599H87.0221Z" fill="black"/>
<path d="M108.65 103.18C108.46 103.821 107.595 105.772 98.3613 107.159C95.621 107.57 91.6639 108.003 86.798 107.968C86.6515 104.618 86.505 101.266 86.3574 97.9158C93.515 97.0185 100.671 96.1224 107.829 95.2251C107.946 96.074 108.115 97.3438 108.301 98.8915C108.612 101.487 108.766 102.791 108.65 103.181V103.18Z" fill="#9870ED"/>
<path d="M87.3483 108.604C87.1626 108.604 86.9781 108.604 86.7935 108.601C86.4556 108.599 86.1788 108.333 86.1638 107.995L85.7232 97.9424C85.7094 97.6125 85.9504 97.3265 86.278 97.285L107.75 94.5942C108.093 94.5516 108.409 94.7926 108.457 95.1375C108.623 96.3427 108.782 97.5802 108.929 98.8143C109.296 101.871 109.406 102.86 109.257 103.36C109.107 103.866 108.729 104.632 107.194 105.448C105.413 106.395 102.472 107.181 98.4549 107.784C94.8334 108.327 91.1001 108.603 87.3471 108.603L87.3483 108.604ZM87.0173 98.4718L87.4059 107.335C91.0758 107.333 94.7273 107.062 98.268 106.53C106.497 105.295 107.845 103.653 108.043 103.001C108.117 102.673 107.911 100.955 107.672 98.9654C107.55 97.9493 107.421 96.9309 107.286 95.931L87.0173 98.4706V98.4718Z" fill="black"/>
<path d="M36.0645 43.012C38.2569 62.8448 40.4494 82.6775 42.6419 102.51C46.3453 104.012 50.0486 105.512 53.752 107.014C51.3519 81.0351 48.9506 55.0563 46.5506 29.0786C43.0548 33.7231 39.5591 38.3676 36.0645 43.012Z" fill="#9870ED"/>
<path d="M53.7498 107.645C53.6691 107.645 53.5884 107.63 53.5111 107.599L42.401 103.095C42.1853 103.008 42.0343 102.809 42.0089 102.578L35.4314 43.0793C35.4141 42.919 35.458 42.7576 35.5548 42.6284L46.0409 28.695C46.1989 28.4851 46.4688 28.3951 46.7214 28.4666C46.974 28.5381 47.1562 28.7572 47.1793 29.0191L54.3807 106.954C54.4015 107.175 54.3046 107.39 54.127 107.522C54.0162 107.605 53.8825 107.646 53.7487 107.646L53.7498 107.645ZM43.2291 102.062L53.0232 106.032L46.0686 30.7687L36.7209 43.1889L43.2291 102.061V102.062Z" fill="black"/>
<path d="M46.5488 29.0873C48.9489 55.0662 51.3502 81.045 53.7502 107.023C81.9965 103.921 110.242 100.82 138.488 97.7187C139.597 97.5965 140.404 96.6081 140.3 95.4963L134.085 29.3618C133.993 28.3942 133.236 27.6249 132.269 27.5211C121.375 26.3516 109.393 25.5927 96.4755 25.5616C77.8941 25.5155 61.1189 26.9837 46.5488 29.0873Z" fill="#9870ED"/>
<path d="M53.7483 107.654C53.603 107.654 53.4611 107.604 53.3469 107.511C53.2155 107.404 53.1324 107.247 53.1163 107.078L45.9149 29.1431C45.8837 28.8063 46.1213 28.5053 46.4558 28.4569C62.9773 26.0729 79.8102 24.8838 96.4747 24.9254C108.261 24.9542 120.185 25.6001 131.914 26.8445C133.417 27.0037 134.611 28.2135 134.753 29.7209L140.88 94.9315C141.043 96.6569 139.773 98.2151 138.05 98.4042L53.8163 107.653C53.7933 107.655 53.7702 107.656 53.7471 107.656L53.7483 107.654ZM47.2343 29.6264L54.3203 106.318L137.913 97.1402C138.951 97.026 139.717 96.0872 139.619 95.0469L133.491 29.8363C133.406 28.9274 132.687 28.1985 131.782 28.1028C120.095 26.863 108.214 26.2194 96.4724 26.1906C80.0662 26.1502 63.5043 27.3058 47.2343 29.624V29.6264Z" fill="black"/>
<path d="M113.883 94.5596L110.7 94.8964C109.942 94.9771 109.406 95.6737 109.521 96.4257C109.629 97.1235 110.261 97.6171 110.964 97.5514C112.028 97.4522 113.091 97.3541 114.154 97.255C114.919 97.1834 115.467 96.4834 115.35 95.7233C115.348 95.7095 115.346 95.6956 115.344 95.6818C115.235 94.9771 114.593 94.4823 113.883 94.5573V94.5596Z" fill="white"/>
<path d="M110.838 97.9098C110.018 97.9098 109.305 97.31 109.178 96.4843C109.108 96.0252 109.225 95.5708 109.508 95.2041C109.791 94.8373 110.201 94.6078 110.662 94.5582L113.846 94.2214C114.739 94.1268 115.547 94.7485 115.684 95.6377L115.69 95.6758C115.761 96.1417 115.641 96.5996 115.354 96.9687C115.066 97.3377 114.651 97.5649 114.185 97.6076L110.995 97.904C110.943 97.9086 110.89 97.9109 110.839 97.9109L110.838 97.9098ZM113.918 94.9088L110.735 95.2456C110.464 95.2744 110.223 95.4094 110.056 95.625C109.89 95.8407 109.821 96.1083 109.862 96.3781C109.942 96.8937 110.41 97.2605 110.93 97.212L114.12 96.9156C114.395 96.8902 114.638 96.7564 114.808 96.5396C114.977 96.3228 115.047 96.0529 115.006 95.7807L114.999 95.7369C114.919 95.2167 114.445 94.85 113.918 94.9065V94.9088Z" fill="black"/>
<path d="M122.381 93.6651L119.198 94.0019C118.44 94.0826 117.904 94.7792 118.02 95.5312C118.127 96.2289 118.759 96.7226 119.462 96.6568C120.526 96.5576 121.589 96.4596 122.652 96.3604C123.417 96.2889 123.965 95.5888 123.848 94.8288C123.846 94.815 123.844 94.8011 123.842 94.7873C123.733 94.0826 123.091 93.5878 122.381 93.6628V93.6651Z" fill="white"/>
<path d="M119.336 97.0152C118.516 97.0152 117.802 96.4155 117.676 95.5897C117.606 95.1318 117.723 94.6763 118.006 94.3095C118.289 93.9428 118.699 93.7132 119.16 93.6637L122.344 93.3269C123.238 93.2323 124.045 93.854 124.182 94.7432L124.188 94.7835C124.259 95.2472 124.139 95.7051 123.851 96.073C123.563 96.442 123.148 96.6692 122.682 96.7119L119.492 97.0083C119.44 97.0129 119.387 97.0152 119.336 97.0152ZM122.416 94.0143L119.233 94.351C118.962 94.3799 118.721 94.5148 118.554 94.7305C118.388 94.9462 118.319 95.2137 118.36 95.4836C118.44 95.9992 118.909 96.3659 119.428 96.3175L122.618 96.0211C122.893 95.9957 123.136 95.8619 123.306 95.6451C123.475 95.4283 123.545 95.1584 123.504 94.8862L123.498 94.8458C123.417 94.3222 122.942 93.9566 122.416 94.012V94.0143Z" fill="black"/>
<path d="M105.116 95.4322C102.961 95.6652 100.808 95.8982 98.6536 96.1323C97.9224 96.2119 97.3987 96.8751 97.491 97.604C97.5798 98.3075 98.213 98.8138 98.9188 98.7469C101.077 98.5416 103.235 98.3363 105.393 98.131C106.139 98.0595 106.675 97.3791 106.569 96.6363C106.565 96.6086 106.561 96.581 106.557 96.5521C106.457 95.8509 105.819 95.355 105.115 95.4322H105.116Z" fill="white"/>
<path d="M98.7887 99.1065C97.9582 99.1065 97.2524 98.4964 97.1463 97.6556C97.0898 97.2104 97.212 96.7699 97.49 96.4181C97.7679 96.0663 98.1682 95.8449 98.6145 95.7964L105.077 95.0964C105.973 94.9995 106.771 95.6211 106.899 96.5115L106.91 96.5946C106.975 97.049 106.855 97.4976 106.571 97.8574C106.288 98.2173 105.88 98.4399 105.424 98.4826L98.9501 99.0984C98.8959 99.103 98.8417 99.1065 98.7887 99.1065ZM105.258 95.778C105.222 95.778 105.187 95.7803 105.15 95.7838L98.6883 96.4838C98.4277 96.5115 98.1947 96.6407 98.0332 96.846C97.8706 97.0513 97.7991 97.3073 97.8325 97.568C97.8983 98.0904 98.3619 98.4595 98.8844 98.4099L105.358 97.794C105.624 97.7686 105.862 97.6395 106.027 97.4296C106.192 97.2197 106.262 96.9578 106.224 96.6937L106.213 96.6107C106.143 96.1263 105.734 95.7791 105.257 95.7791L105.258 95.778Z" fill="black"/>
<path d="M130.041 96.1572C131.099 96.058 131.868 95.0346 131.759 93.8716C131.65 92.7085 130.704 91.846 129.646 91.9453C128.588 92.0445 127.819 93.0679 127.928 94.231C128.037 95.3941 128.983 96.2565 130.041 96.1572Z" fill="white"/>
<path d="M129.876 96.5085C128.711 96.5085 127.704 95.5397 127.584 94.2606C127.457 92.9089 128.367 91.7152 129.614 91.5976C130.861 91.4811 131.977 92.4845 132.103 93.8362C132.23 95.1879 131.32 96.3816 130.073 96.4992C130.007 96.505 129.941 96.5085 129.876 96.5085ZM129.81 92.2815C129.766 92.2815 129.722 92.2838 129.677 92.2873C128.811 92.368 128.181 93.2249 128.273 94.196C128.364 95.1671 129.143 95.8903 130.008 95.8107C130.875 95.73 131.504 94.873 131.413 93.9019C131.327 92.9804 130.621 92.2815 129.81 92.2815Z" fill="black"/>
<path d="M55.4914 38.8077C57.3713 58.1456 59.2524 77.4847 61.1323 96.8226C84.6061 94.4848 108.08 92.1482 131.553 89.8104C129.847 71.7976 128.141 53.7848 126.435 35.7721C117.259 35.0709 107.216 34.7283 96.4313 34.989C81.2684 35.3557 67.5299 36.8435 55.4902 38.8077H55.4914Z" fill="white"/>
<path d="M62.7996 97.2226C62.2368 97.2226 61.6958 97.03 61.2553 96.6679C60.7501 96.2538 60.4376 95.6668 60.3741 95.0175L55.0838 40.6078C54.9592 39.323 55.8588 38.1593 57.1321 37.9597C70.0967 35.9218 83.3128 34.7281 96.4146 34.4121C105.872 34.1837 115.455 34.4086 124.899 35.0799C126.092 35.1652 127.041 36.0925 127.154 37.285L131.949 87.9071C132.075 89.2404 131.093 90.4341 129.76 90.5667L63.0464 97.2099C62.9645 97.218 62.8815 97.2226 62.7996 97.2226ZM103.596 35.4778C101.206 35.4778 98.8205 35.5066 96.4412 35.5643C83.39 35.8791 70.2247 37.0682 57.3097 39.0981C56.6385 39.2042 56.1645 39.8178 56.2302 40.4959L61.5205 94.9056C61.554 95.2481 61.7189 95.5584 61.9853 95.7763C62.2517 95.9943 62.5874 96.097 62.9299 96.0624L129.643 89.4192C130.347 89.3488 130.865 88.7191 130.798 88.0156L126.003 37.3935C125.943 36.7637 125.443 36.2747 124.813 36.2297C117.781 35.7292 110.671 35.4778 103.594 35.4778H103.596Z" fill="black"/>
<path d="M27.5987 52.2284C24.8422 47.3982 23.1906 42.846 22.1699 39.145C24.3117 38.3872 26.4534 37.6283 28.5951 36.8706C29.1949 38.6537 30.1464 41.1414 31.6226 43.9601C34.634 49.7141 38.0502 53.4486 40.0212 55.5731C41.81 57.5026 44.2909 59.9234 47.5306 62.4181C48.1211 62.8725 48.4521 63.5899 48.414 64.3349C48.369 65.223 48.1095 66.4225 47.2146 67.5193C46.5122 68.3797 45.6691 68.871 44.9079 69.1501C43.8053 69.5549 42.5712 69.3381 41.6532 68.6046C37.5381 65.3153 32.0528 60.0284 27.5998 52.2272L27.5987 52.2284Z" fill="black"/>
<path d="M12.0972 14.4762C11.7293 14.4924 10.8966 14.5282 10.343 15.1417C9.94741 15.5811 9.86783 16.1301 9.85053 16.4335C6.8461 15.3286 4.22457 16.1809 3.59716 17.6675C3.52219 17.844 3.16466 18.7678 3.94893 20.2452C3.58909 20.4644 2.74946 21.0433 2.53494 22.0283C2.39654 22.6649 2.57761 23.1989 2.65719 23.425C3.4207 25.5852 9.56566 29.7983 11.7731 32.4521C14.5446 35.7852 13.9403 37.9339 16.7475 39.5197C18.1603 40.3178 19.5789 40.4885 20.5131 40.5162C20.5685 40.9971 20.7253 41.5346 21.1301 41.9313C22.4495 43.2254 25.394 42.0432 26.6742 41.3328C27.4343 40.9106 29.4226 39.7665 30.2403 37.2961C30.8043 35.5903 30.5298 34.1014 30.3637 33.4417C30.6728 32.8362 31.2149 31.5733 31.1895 29.8963C31.1664 28.3532 30.6728 27.1883 30.3683 26.5909C30.7547 24.7859 31.4156 23.5933 31.9519 22.8356C32.4905 22.0756 33.2897 21.2059 33.006 20.4851C32.8838 20.1737 32.6081 20.0134 32.4985 19.9523C31.1318 19.1818 28.192 20.6535 26.7077 22.7641C26.4228 23.1689 26.3074 23.3108 26.229 23.3708C25.785 23.7087 23.1565 21.5669 19.1591 18.1808C18.4406 17.5718 14.6023 14.3667 12.0972 14.4728V14.4762Z" fill="#F7F7F7"/>
<path d="M22.8016 43.1402C22.0104 43.1402 21.2539 42.9396 20.6841 42.3802C20.3485 42.0515 20.1121 41.6282 19.9794 41.1184C18.675 41.0146 17.4848 40.6617 16.4329 40.0678C14.6695 39.0713 14.1066 37.8534 13.4539 36.444C12.9764 35.4106 12.4355 34.24 11.2821 32.8537C10.3998 31.7926 8.79324 30.4121 7.2397 29.0765C4.83269 27.0086 2.55947 25.0548 2.05662 23.6316C1.97589 23.4044 1.73253 22.7147 1.91245 21.8889C2.07161 21.1566 2.53641 20.483 3.23533 19.9571C3.10269 19.189 3.03926 17.813 3.91003 16.662C5.07259 15.1246 7.36195 14.6806 9.39643 15.5006C9.50715 15.203 9.66631 14.9378 9.8693 14.7129C10.6028 13.8998 11.6673 13.8548 12.0676 13.8375C14.5922 13.7302 18.1548 16.4994 19.5665 17.6954C21.4776 19.3135 24.9307 22.2395 25.9606 22.7112C26.0137 22.6397 26.0875 22.5394 26.1867 22.3975C27.7552 20.1681 30.9891 18.3724 32.8079 19.3977C33.192 19.6145 33.4573 19.9017 33.5945 20.2512C33.9636 21.1877 33.2774 22.1092 32.7261 22.8496C32.6373 22.9684 32.5496 23.0861 32.4689 23.2003C31.8138 24.1264 31.3317 25.2394 31.0353 26.5092C31.5335 27.561 31.8057 28.7236 31.823 29.885C31.8461 31.4258 31.4274 32.6807 31.0318 33.5157C31.2463 34.5006 31.3594 35.9273 30.8415 37.4935C29.9292 40.25 27.7102 41.4806 26.9813 41.8854C26.6699 42.0584 24.6423 43.1414 22.8028 43.1414L22.8016 43.1402ZM7.34811 16.3518C6.30896 16.3518 5.41051 16.7773 4.9215 17.4255C4.16145 18.4301 4.48439 19.8072 4.55705 20.0736C4.63086 20.3469 4.51668 20.6352 4.27448 20.7829C3.92041 20.9985 3.30222 21.4645 3.15113 22.1588C3.04849 22.6317 3.19035 23.0365 3.25147 23.2095C3.6413 24.3132 5.99179 26.3327 8.06549 28.1146C9.73205 29.5471 11.3075 30.8999 12.2567 32.0429C13.5161 33.5572 14.1193 34.8628 14.6049 35.9123C15.2104 37.2225 15.6475 38.1694 17.0557 38.964C18.0626 39.5326 19.2309 39.8406 20.5284 39.8786C20.8433 39.8878 21.1039 40.1277 21.1397 40.4403C21.1916 40.8982 21.3369 41.2453 21.571 41.4748C22.5006 42.386 25.0045 41.529 26.3631 40.7748C26.9848 40.4299 28.8785 39.3792 29.6351 37.0933C30.0999 35.6897 29.9511 34.4141 29.7458 33.5918C29.7089 33.443 29.7262 33.2862 29.7966 33.1489C30.1541 32.45 30.5751 31.3186 30.5532 29.9023C30.537 28.8562 30.2775 27.8101 29.8012 26.8748C29.7355 26.7456 29.7159 26.5968 29.7458 26.4538C30.0722 24.9256 30.6397 23.5843 31.432 22.4656C31.5185 22.3433 31.6119 22.2176 31.7065 22.0896C32.0318 21.6525 32.5231 20.9928 32.4124 20.7137C32.3697 20.6053 32.2347 20.5291 32.1828 20.5003C31.229 19.9629 28.6017 21.1623 27.2212 23.1241C26.889 23.597 26.7564 23.7573 26.6076 23.8715C26.0794 24.274 25.3851 23.9949 23.6389 22.6743C22.4268 21.7586 20.8064 20.408 18.7442 18.6607C16.6578 16.8938 13.8229 15.0312 12.1195 15.1027C11.8161 15.1154 11.1864 15.1419 10.8093 15.5594C10.5636 15.8316 10.4944 16.2007 10.4794 16.4636C10.4667 16.6851 10.3399 16.8823 10.1438 16.9873C9.94888 17.0911 9.7136 17.0864 9.5233 16.9734C8.78747 16.5386 8.03665 16.3506 7.34696 16.3506L7.34811 16.3518Z" fill="black"/>
<path d="M30.8854 33.7936C30.2257 34.6205 29.303 35.2271 28.295 35.4959C27.8763 35.602 27.6607 35.0219 28.0424 34.8281C28.8301 34.4417 29.4576 33.8155 29.8312 33.0877C30.3087 32.2723 31.4574 33.0404 30.8854 33.7936ZM25.4578 22.4263C26.4462 23.3005 27.4185 24.2682 28.3319 25.2231C28.6341 25.5449 28.2073 26.0201 27.8556 25.7548C27.3919 25.3961 26.7541 24.891 26.2859 24.5519C25.7577 24.1655 25.2225 23.7907 24.6805 23.4285C23.955 22.8969 24.76 21.8554 25.4578 22.4263ZM10.1623 15.8811C12.462 17.3159 14.4711 19.2016 16.057 21.3871C16.3165 21.7597 15.7963 22.1703 15.4953 21.8289C14.6591 20.8335 13.7342 19.9201 12.7331 19.107C11.732 18.2951 10.6582 17.58 9.52681 16.9803C8.77599 16.5443 9.40571 15.4475 10.1623 15.8823V15.8811ZM3.70132 19.656C7.14748 18.3908 10.3341 22.3133 11.9996 24.8437C12.1068 25.0098 12.0595 25.2312 11.8934 25.3385C11.7331 25.4423 11.5209 25.4007 11.4102 25.2485C10.4737 23.9741 9.39533 22.7562 8.13935 21.8058C7.23629 21.1415 6.24096 20.581 5.13722 20.6063C4.80391 20.6179 4.48444 20.694 4.18457 20.8301C3.38185 21.1576 2.89745 19.9905 3.70248 19.656H3.70132ZM20.4823 39.8993C21.2493 39.814 22.0105 39.4864 22.6194 38.9282C22.7648 38.7909 22.9954 38.8002 23.1304 38.9466C23.2469 39.0747 23.2549 39.2638 23.1569 39.3988C22.5768 40.2107 21.7141 40.8266 20.7545 41.1403C19.8514 41.3894 19.5573 40.0515 20.4823 39.8993Z" fill="black"/>
<path d="M10.275 27.9619C10.1827 27.9619 10.0904 27.94 10.0039 27.8939C9.72253 27.7439 9.61758 27.3945 9.76751 27.113C10.6729 25.4211 11.8873 23.9691 13.3774 22.7996C14.4374 21.968 15.6149 21.2979 16.8801 20.8101C17.1777 20.6947 17.511 20.8435 17.6252 21.1399C17.7405 21.4375 17.5917 21.7708 17.2953 21.8861C16.1374 22.3336 15.059 22.9461 14.0891 23.7073C12.7247 24.7787 11.6128 26.1073 10.7836 27.6586C10.6798 27.8523 10.4803 27.9631 10.275 27.9631V27.9619Z" fill="black"/>
<path d="M91.3261 50.7027C96.0558 49.9822 100.89 55.9559 102.123 64.0473C102.858 68.8732 102.146 73.3616 100.448 76.3519C99.3383 75.7645 97.6937 75.1474 95.6586 75.1676C92.9541 75.1951 90.8981 76.3355 89.644 77.2848C87.4214 74.8744 85.6702 71.0823 84.9957 66.6574C83.7628 58.5672 86.5975 51.4231 91.3272 50.7026L91.3261 50.7027Z" fill="#F7F7F7"/>
<path d="M96.5158 58.3376L97.3207 59.8984L95.2023 60.0026L93.085 60.1079L94.3974 58.4418L95.711 56.7768L96.5158 58.3376Z" fill="#F7F7F7"/>
<path d="M89.6766 77.9182C89.4934 77.9278 89.3096 77.8577 89.1762 77.7146C86.787 75.1236 85.0333 71.1283 84.366 66.7527C83.753 62.7299 84.0966 58.799 85.3328 55.6817C86.615 52.45 88.7083 50.4588 91.2278 50.0748C93.7484 49.6897 96.339 50.9674 98.5262 53.6706C100.636 56.2775 102.134 59.9281 102.747 63.9509C103.483 68.7768 102.845 73.4103 100.997 76.6636C100.828 76.9624 100.451 77.0711 100.149 76.9114C98.7278 76.159 97.2183 75.7855 95.6623 75.8013C93.139 75.8263 91.2029 76.8968 90.0244 77.7902C89.92 77.8696 89.7975 77.9118 89.6754 77.9182L89.6766 77.9182ZM91.4207 51.3305C89.3653 51.6439 87.6222 53.3557 86.5135 56.1511C85.3588 59.062 85.0423 62.7593 85.6218 66.5621C86.2156 70.4611 87.7062 74.0209 89.7396 76.4343C91.0911 75.5145 93.1025 74.5589 95.6524 74.5326C97.191 74.5165 98.7436 74.8532 100.177 75.5102C101.646 72.5585 102.138 68.3669 101.495 64.1424C100.916 60.3385 99.5111 56.9035 97.5425 54.4695C95.6505 52.1319 93.4762 51.0171 91.4218 51.3293L91.4207 51.3305Z" fill="black"/>
<path d="M88.3643 78.6473C88.1835 78.6568 88.0009 78.589 87.8676 78.447C87.6278 78.1917 87.6414 77.7902 87.8979 77.5504C88.8557 76.6547 91.4962 74.5701 95.3648 74.5624C98.4701 74.5565 100.763 75.9007 101.853 76.7027C102.136 76.9108 102.196 77.3072 101.989 77.5895C101.781 77.8718 101.384 77.9319 101.102 77.725C100.137 77.0156 98.1105 75.8262 95.3679 75.8315C91.9496 75.8376 89.613 77.6833 88.7654 78.4773C88.652 78.5837 88.5095 78.6397 88.3655 78.6473L88.3643 78.6473Z" fill="black"/>
<path d="M85.6481 48.4168C85.5755 48.4206 85.5013 48.4141 85.4265 48.3973C84.9917 48.2988 84.7195 47.8661 84.818 47.4313C85.3612 45.041 87.2451 43.196 89.5075 42.8405C91.8511 42.4715 93.6082 43.8022 94.0909 44.2192C94.4284 44.511 94.4656 45.0207 94.1749 45.3582C93.8831 45.6957 93.3734 45.7329 93.0359 45.4422C92.7868 45.2278 91.4608 44.169 89.7587 44.4373C88.1436 44.6918 86.7903 46.039 86.3925 47.7911C86.3109 48.1511 85.9995 48.4007 85.6482 48.4191L85.6481 48.4168Z" fill="black"/>
<path d="M113.982 49.0936C118.539 48.3995 123.195 54.1551 124.383 61.9485C125.091 66.598 124.406 70.921 122.77 73.8017C121.701 73.2353 120.116 72.6405 118.156 72.6614C115.551 72.6883 113.57 73.7866 112.362 74.7012C110.22 72.3802 108.533 68.7267 107.883 64.4634C106.696 56.6688 109.425 49.7877 113.982 49.0936Z" fill="#F7F7F7"/>
<path d="M118.986 56.4423L119.762 57.9458L117.722 58.047L115.68 58.1472L116.945 56.5436L118.211 54.9389L118.986 56.4423Z" fill="#F7F7F7"/>
<path d="M112.395 75.3348C112.212 75.3444 112.028 75.2755 111.895 75.1312C109.589 72.6317 107.898 68.7786 107.255 64.5588C106.664 60.6793 106.995 56.8876 108.189 53.8823C109.427 50.7614 111.451 48.8373 113.886 48.4671C116.322 48.0956 118.826 49.3293 120.939 51.9395C122.973 54.4533 124.419 57.975 125.01 61.8533C125.72 66.5074 125.104 70.9769 123.322 74.1148C123.153 74.4135 122.776 74.5222 122.473 74.3626C121.107 73.6397 119.657 73.2803 118.162 73.2952C115.737 73.3208 113.877 74.3481 112.744 75.2068C112.64 75.2861 112.517 75.3284 112.395 75.3348ZM114.079 49.7204C112.107 50.0214 110.434 51.6648 109.369 54.3504C108.258 57.1505 107.953 60.7086 108.511 64.3682C109.082 68.1114 110.51 71.5301 112.46 73.852C113.763 72.967 115.701 72.0523 118.151 72.0277C119.63 72.0125 121.12 72.3339 122.5 72.9625C123.905 70.1251 124.376 66.0998 123.758 62.0449C123.2 58.3854 121.849 55.0793 119.955 52.7372C118.138 50.4914 116.053 49.4205 114.08 49.7204L114.079 49.7204Z" fill="black"/>
<path d="M111.36 76.1362C111.179 76.1457 110.996 76.0779 110.863 75.9359C110.623 75.6806 110.637 75.2791 110.892 75.0393C111.817 74.1743 114.368 72.1614 118.101 72.155C121.099 72.149 123.313 73.4476 124.365 74.2216C124.648 74.4297 124.708 74.8261 124.501 75.1084C124.294 75.3907 123.896 75.4508 123.614 75.2439C122.687 74.5626 120.738 73.4187 118.103 73.4241C114.822 73.4311 112.573 75.2041 111.758 75.9663C111.645 76.0728 111.503 76.1287 111.359 76.1363L111.36 76.1362Z" fill="black"/>
<path d="M109.169 46.8287C109.067 46.834 108.964 46.8198 108.863 46.7847C108.442 46.6382 108.219 46.1787 108.364 45.7576C109.163 43.4532 111.223 41.8321 113.497 41.7128C113.508 41.7122 113.52 41.7116 113.532 41.711C115.901 41.6029 117.501 43.1185 117.934 43.5855C118.238 43.9125 118.218 44.4229 117.892 44.7264C117.565 45.03 117.055 45.0106 116.752 44.6846C116.528 44.4435 115.324 43.2454 113.605 43.3241C113.597 43.3245 113.588 43.3249 113.58 43.3254C111.956 43.4106 110.475 44.5982 109.889 46.2862C109.777 46.6062 109.487 46.812 109.168 46.8288L109.169 46.8287Z" fill="black"/>
<rect x="94.9492" y="70.5122" width="2.01618" height="2.11705" transform="rotate(-3.00324 94.9492 70.5122)" fill="black"/>
<rect x="94.8379" y="68.3975" width="2.01618" height="2.11705" transform="rotate(-3.00324 94.8379 68.3975)" fill="black"/>
<rect x="92.8242" y="68.5039" width="2.01618" height="2.11705" transform="rotate(-3.00324 92.8242 68.5039)" fill="black"/>
<rect x="96.8516" y="68.2925" width="2.01618" height="2.11705" transform="rotate(-3.00324 96.8516 68.2925)" fill="black"/>
<rect x="94.7285" y="66.2837" width="2.01618" height="2.11705" transform="rotate(-3.00324 94.7285 66.2837)" fill="black"/>
<rect x="94.6172" y="64.1694" width="2.01618" height="2.11705" transform="rotate(-3.00324 94.6172 64.1694)" fill="black"/>
<rect x="96.7383" y="66.1782" width="2.01618" height="2.11705" transform="rotate(-3.00324 96.7383 66.1782)" fill="black"/>
<rect x="92.7148" y="66.3901" width="2.01618" height="2.11705" transform="rotate(-3.00324 92.7148 66.3901)" fill="black"/>
<rect x="117.84" y="68.1001" width="2.01588" height="2.11705" transform="rotate(-3.00324 117.84 68.1001)" fill="black"/>
<rect x="117.729" y="65.9854" width="2.01588" height="2.11705" transform="rotate(-3.00324 117.729 65.9854)" fill="black"/>
<rect x="115.717" y="66.0913" width="2.01588" height="2.11705" transform="rotate(-3.00324 115.717 66.0913)" fill="black"/>
<rect x="119.744" y="65.8799" width="2.01588" height="2.11705" transform="rotate(-3.00324 119.744 65.8799)" fill="black"/>
<rect x="117.617" y="63.8716" width="2.01588" height="2.11705" transform="rotate(-3.00324 117.617 63.8716)" fill="black"/>
<rect x="117.508" y="61.7573" width="2.01588" height="2.11705" transform="rotate(-3.00324 117.508 61.7573)" fill="black"/>
<rect x="119.631" y="63.7656" width="2.01588" height="2.11705" transform="rotate(-3.00324 119.631 63.7656)" fill="black"/>
<rect x="115.607" y="63.9775" width="2.01588" height="2.11705" transform="rotate(-3.00324 115.607 63.9775)" fill="black"/>
</svg>
