<svg width="187" height="131" viewBox="0 0 187 131" fill="none" xmlns="http://www.w3.org/2000/svg">
<path d="M138.427 121.674H26.4023V48.5936C26.4023 47.1233 27.5914 45.9312 29.058 45.9312H135.77C137.237 45.9312 138.426 47.1233 138.426 48.5936V121.674H138.427ZM172.127 121.674H26.4023V126.519C26.4023 127.81 27.4464 128.857 28.7345 128.857H172.127C173.099 128.857 173.888 128.066 173.888 127.092V123.439C173.888 122.464 173.099 121.674 172.127 121.674Z" fill="white"/>
<path d="M136.63 121.674H28.2012V49.8817C28.2012 48.4113 29.3903 47.2192 30.8568 47.2192H133.974C135.441 47.2192 136.63 48.4113 136.63 49.8817V121.674Z" fill="#262421"/>
<path d="M26.4023 121.674H138.427H138.426V48.5936C138.426 47.1233 137.237 45.9312 135.77 45.9312H29.058C27.5914 45.9312 26.4023 47.1233 26.4023 48.5936V121.674ZM26.4023 121.674H172.127C173.099 121.674 173.888 122.464 173.888 123.439V127.092C173.888 128.066 173.099 128.857 172.127 128.857H28.7345C27.4464 128.857 26.4023 127.81 26.4023 126.519V121.674Z" stroke="#231F20" stroke-miterlimit="10" stroke-linecap="round" stroke-linejoin="round"/>
<path d="M44.0026 120.778V121.674H36.9023V120.778C36.9023 120.153 37.4082 119.646 38.0323 119.646H42.8733C43.4974 119.646 44.0026 120.153 44.0026 120.778ZM53.0399 120.778V121.674H45.939V120.778C45.939 120.153 46.4449 119.646 47.069 119.646H51.9099C52.534 119.646 53.0399 120.153 53.0399 120.778ZM62.6141 120.778V121.674H55.5145V120.778C55.5145 120.153 56.0204 119.646 56.6445 119.646H61.4842C62.1083 119.646 62.6141 120.153 62.6141 120.778ZM71.6508 120.778V121.674H64.5505V120.778C64.5505 120.153 65.0564 119.646 65.6805 119.646H70.5214C71.1449 119.646 71.6508 120.153 71.6508 120.778ZM80.9027 120.778V121.674H73.8031V120.778C73.8031 120.153 74.3089 119.646 74.933 119.646H79.7727C80.3968 119.646 80.9027 120.153 80.9027 120.778ZM117.373 120.778V121.674H110.272V120.778C110.272 120.153 110.778 119.646 111.402 119.646H116.243C116.867 119.646 117.373 120.153 117.373 120.778Z" fill="white"/>
<path d="M108.604 120.778V121.674H83V120.778C83 120.153 83.5059 119.646 84.13 119.646H107.474C108.098 119.646 108.604 120.153 108.604 120.778Z" fill="#BF87FF"/>
<path d="M127.055 120.778V121.674H119.955V120.778C119.955 120.153 120.461 119.646 121.085 119.646H125.926C126.549 119.646 127.055 120.153 127.055 120.778ZM136.63 120.778V121.674H129.529V120.778C129.529 120.153 130.035 119.646 130.659 119.646H135.5C136.124 119.646 136.63 120.153 136.63 120.778ZM145.666 120.778V121.674H138.566V120.778C138.566 120.153 139.072 119.646 139.696 119.646H144.537C145.16 119.646 145.666 120.153 145.666 120.778ZM154.918 120.778V121.674H147.818V120.778C147.818 120.153 148.324 119.646 148.948 119.646H153.789C154.412 119.646 154.918 120.153 154.918 120.778ZM163.955 120.778V121.674H156.855V120.778C156.855 120.153 157.36 119.646 157.985 119.646H162.825C163.449 119.646 163.955 120.153 163.955 120.778Z" fill="white"/>
<path d="M44.0026 120.778V121.674H36.9023V120.778C36.9023 120.153 37.4082 119.646 38.0323 119.646H42.8733C43.4974 119.646 44.0026 120.153 44.0026 120.778ZM53.0399 120.778V121.674H45.939V120.778C45.939 120.153 46.4449 119.646 47.069 119.646H51.9099C52.534 119.646 53.0399 120.153 53.0399 120.778ZM62.6141 120.778V121.674H55.5145V120.778C55.5145 120.153 56.0204 119.646 56.6445 119.646H61.4842C62.1083 119.646 62.6141 120.153 62.6141 120.778ZM71.6508 120.778V121.674H64.5505V120.778C64.5505 120.153 65.0564 119.646 65.6805 119.646H70.5214C71.1449 119.646 71.6508 120.153 71.6508 120.778ZM80.9027 120.778V121.674H73.8031V120.778C73.8031 120.153 74.3089 119.646 74.933 119.646H79.7727C80.3968 119.646 80.9027 120.153 80.9027 120.778ZM117.373 120.778V121.674H110.272V120.778C110.272 120.153 110.778 119.646 111.402 119.646H116.243C116.867 119.646 117.373 120.153 117.373 120.778ZM108.605 120.778V121.674H83.0009V120.778C83.0009 120.153 83.5067 119.646 84.1308 119.646H107.475C108.099 119.646 108.605 120.153 108.605 120.778ZM127.055 120.778V121.674H119.955V120.778C119.955 120.153 120.461 119.646 121.085 119.646H125.926C126.549 119.646 127.055 120.153 127.055 120.778ZM136.63 120.778V121.674H129.529V120.778C129.529 120.153 130.035 119.646 130.659 119.646H135.5C136.124 119.646 136.63 120.153 136.63 120.778ZM145.666 120.778V121.674H138.566V120.778C138.566 120.153 139.072 119.646 139.696 119.646H144.537C145.16 119.646 145.666 120.153 145.666 120.778ZM154.918 120.778V121.674H147.818V120.778C147.818 120.153 148.324 119.646 148.948 119.646H153.789C154.412 119.646 154.918 120.153 154.918 120.778ZM163.955 120.778V121.674H156.855V120.778C156.855 120.153 157.36 119.646 157.985 119.646H162.825C163.449 119.646 163.955 120.153 163.955 120.778Z" stroke="#231F20" stroke-miterlimit="10" stroke-linecap="round" stroke-linejoin="round"/>
<path d="M110.219 49.4352C110.02 35.0857 97.9197 23.6201 83.1927 23.826C68.4664 24.0318 56.6895 35.8318 56.8892 50.1813C56.9514 54.6409 58.1972 59.05 60.5038 62.9014C63.2982 67.5675 68.0688 71.0278 70.1085 76.2946C70.6038 77.574 76.4459 92.833 73.8506 92.8692C77.4477 92.5448 90.3565 92.8025 95.022 93.2054C93.574 93.2254 97.2626 79.2402 97.5974 78.0431C100.452 67.8389 110.376 60.6919 110.219 49.4352Z" fill="#FFD14D"/>
<path d="M110.219 49.4352C110.02 35.0857 97.9197 23.6201 83.1927 23.826C68.4664 24.0318 56.6895 35.8318 56.8892 50.1813C56.9514 54.6409 58.1972 59.05 60.5038 62.9014C63.2982 67.5675 68.0688 71.0278 70.1085 76.2946C70.6038 77.574 76.4459 92.833 73.8506 92.8692C77.4477 92.5448 90.3565 92.8025 95.022 93.2054C93.574 93.2254 97.2626 79.2402 97.5974 78.0431C100.452 67.8389 110.376 60.6919 110.219 49.4352Z" stroke="#191716" stroke-miterlimit="10" stroke-linecap="round" stroke-linejoin="round"/>
<path d="M79.3821 90.2244L77.0861 46.0506C76.9648 43.7107 74.736 42.042 72.4742 42.6321C70.6653 43.1044 69.5192 44.2784 69.6486 46.8042C69.7289 48.3755 70.8016 49.7224 72.3074 50.1671L77.6405 52.1284L88.8736 51.8683L88.7511 46.5422C88.6527 42.2641 94.7182 41.2055 95.9895 45.2902C96.0056 45.3426 96.0218 45.3962 96.038 45.4499C96.5843 47.3144 95.6111 49.2888 93.7998 49.9825L88.8736 51.8676L89.7672 90.6761" stroke="#191716" stroke-miterlimit="10" stroke-linecap="round" stroke-linejoin="round"/>
<path d="M96.5994 95.9115C96.6081 96.5272 96.3779 97.0905 95.994 97.5215C96.1918 97.7311 96.3524 97.9751 96.4637 98.2439C96.5758 98.5128 96.6398 98.806 96.6442 99.1129C96.6629 100.44 95.574 101.531 94.2131 101.549L93.2045 101.564C92.311 103.212 90.5463 104.346 88.4998 104.375L86.9306 104.397C86.6742 104.941 86.1154 105.324 85.4609 105.332L84.7565 105.342C84.1019 105.352 83.5326 104.985 83.26 104.448L80.9876 104.48C78.9411 104.508 77.146 103.424 76.2064 101.802L75.4324 101.812C74.7517 101.821 74.1325 101.562 73.6796 101.133C73.2278 100.705 72.9441 100.108 72.9347 99.4441C72.926 98.8297 73.1563 98.2651 73.5402 97.8347C73.3423 97.6239 73.1818 97.3799 73.0704 97.1123C72.9584 96.8435 72.8943 96.5503 72.8899 96.2421C72.8806 95.5703 73.1556 94.9583 73.6061 94.5167C73.3753 94.3014 73.1867 94.0438 73.0542 93.7544C72.9217 93.4662 72.847 93.1474 72.842 92.8112C72.8234 91.4849 73.9123 90.3945 75.2731 90.3752L94.0532 90.1126C95.414 90.0932 96.5328 91.1531 96.5509 92.4793C96.5602 93.1511 96.2852 93.7631 95.8347 94.2054C96.0655 94.4206 96.2541 94.6776 96.3866 94.9664C96.5197 95.2571 96.595 95.5759 96.5994 95.9115Z" fill="#1C1C1C"/>
<path d="M96.5994 95.9115C96.6081 96.5272 96.3779 97.0905 95.994 97.5215C96.1918 97.7311 96.3524 97.9751 96.4637 98.2439C96.5758 98.5128 96.6398 98.806 96.6442 99.1129C96.6629 100.44 95.574 101.531 94.2131 101.549L93.2045 101.564C92.311 103.212 90.5463 104.346 88.4998 104.375L86.9306 104.397C86.6742 104.941 86.1154 105.324 85.4609 105.332L84.7565 105.342C84.1019 105.352 83.5326 104.985 83.26 104.448L80.9876 104.48C78.9411 104.508 77.146 103.424 76.2064 101.802L75.4324 101.812C74.7517 101.821 74.1325 101.562 73.6796 101.133C73.2278 100.705 72.9441 100.108 72.9347 99.4441C72.926 98.8297 73.1563 98.2651 73.5402 97.8347C73.3423 97.6239 73.1818 97.3799 73.0704 97.1123C72.9584 96.8435 72.8943 96.5503 72.8899 96.2421C72.8806 95.5703 73.1556 94.9583 73.6061 94.5167C73.3753 94.3014 73.1867 94.0438 73.0542 93.7544C72.9217 93.4662 72.847 93.1474 72.842 92.8112C72.8234 91.4849 73.9123 90.3945 75.2731 90.3752L94.0532 90.1126C95.414 90.0932 96.5328 91.1531 96.5509 92.4793C96.5602 93.1511 96.2852 93.7631 95.8347 94.2054C96.0655 94.4206 96.2541 94.6776 96.3866 94.9664C96.5197 95.2571 96.595 95.5759 96.5994 95.9115Z" stroke="#F2F0EB" stroke-miterlimit="10" stroke-linecap="round" stroke-linejoin="round"/>
<path d="M73.6074 94.5181L95.831 94.0034" stroke="#F2F0EB" stroke-miterlimit="10" stroke-linecap="round" stroke-linejoin="round"/>
<path d="M95.9951 97.5215L73.5469 98.0411" stroke="#F2F0EB" stroke-miterlimit="10" stroke-linecap="round" stroke-linejoin="round"/>
<path d="M93.2047 101.564L76.2109 101.957" stroke="#F2F0EB" stroke-miterlimit="10" stroke-linecap="round" stroke-linejoin="round"/>
<path d="M53.8868 42.5125L37.8027 39.0117" stroke="#FFB531" stroke-miterlimit="10" stroke-linecap="round" stroke-linejoin="round"/>
<path d="M60.3316 32.4088L42.6348 19.2021" stroke="#FFB531" stroke-miterlimit="10" stroke-linecap="round" stroke-linejoin="round"/>
<path d="M63.2402 3.51953L71.5283 23.8227" stroke="#FFB531" stroke-miterlimit="10" stroke-linecap="round" stroke-linejoin="round"/>
<path d="M93.2045 2.14355L88.7637 21.4037" stroke="#FFB531" stroke-miterlimit="10" stroke-linecap="round" stroke-linejoin="round"/>
<path d="M104.406 29.9325L119.775 11.7734" stroke="#FFB531" stroke-miterlimit="10" stroke-linecap="round" stroke-linejoin="round"/>
<path d="M113.463 42.5125L129.381 37.6362" stroke="#FFB531" stroke-miterlimit="10" stroke-linecap="round" stroke-linejoin="round"/>
<path d="M14.9938 59.6288H2.28906L11.8776 52.4194L3.96722 38.2408L20.0033 40.4036L23.863 32.2329L29.376 39.9232" stroke="#FF79E4" stroke-miterlimit="10" stroke-linecap="round" stroke-linejoin="round"/>
<path d="M154.916 98.8925C153.738 97.8476 151.898 98.3997 150.482 99.0865C149.27 99.6754 148.087 100.328 146.941 101.038C147.4 100.012 147.728 98.9386 147.836 97.8195C147.911 97.041 147.849 96.1752 147.313 95.6063C146.97 95.2413 146.475 95.0523 145.979 94.9787C144.521 94.7629 143.098 95.4497 141.788 96.1271C139.681 97.2169 137.561 98.3585 135.552 99.6429C136.156 98.4433 136.595 97.1751 136.724 95.8427C136.8 95.0642 136.737 94.1983 136.202 93.6294C135.858 93.2645 135.363 93.0755 134.868 93.0019C133.41 92.786 131.986 93.4728 130.676 94.1503C125.415 96.8726 120.065 99.9112 116.591 104.718C115.323 106.473 114.313 108.517 114.288 110.687C114.272 112.223 114.259 113.727 115.838 114.215C117.303 114.667 119.251 113.973 120.48 113.213C120.496 113.202 120.513 113.192 120.529 113.181C122.348 112.037 124.232 110.869 126.052 109.606C125.658 110.583 125.412 111.608 125.4 112.663C125.383 114.199 125.37 115.704 126.95 116.191C128.414 116.644 130.363 115.949 131.591 115.189C131.608 115.178 131.624 115.168 131.641 115.158C133.05 114.271 134.498 113.37 135.925 112.422C135.37 115.288 137.464 117.511 140.794 115.828C144.677 113.866 148.043 111.029 151.17 108.04C152.743 106.537 154.312 104.949 155.213 102.967C155.819 101.638 156.008 99.8606 154.916 98.8925Z" fill="white"/>
<path d="M154.916 98.8925C153.738 97.8476 151.898 98.3997 150.482 99.0865C149.27 99.6754 148.087 100.328 146.941 101.038C147.4 100.012 147.728 98.9386 147.836 97.8195C147.911 97.041 147.849 96.1752 147.313 95.6063C146.97 95.2413 146.475 95.0523 145.979 94.9787C144.521 94.7629 143.098 95.4497 141.788 96.1271C139.681 97.2169 137.561 98.3585 135.552 99.6429C136.156 98.4433 136.595 97.1751 136.724 95.8427C136.8 95.0642 136.737 94.1983 136.202 93.6294C135.858 93.2645 135.363 93.0755 134.868 93.0019C133.41 92.786 131.986 93.4728 130.676 94.1503C125.415 96.8726 120.065 99.9112 116.591 104.718C115.323 106.473 114.313 108.517 114.288 110.687C114.272 112.223 114.259 113.727 115.838 114.215C117.303 114.667 119.251 113.973 120.48 113.213C120.496 113.202 120.513 113.192 120.529 113.181C122.348 112.037 124.232 110.869 126.052 109.606C125.658 110.583 125.412 111.608 125.4 112.663C125.383 114.199 125.37 115.704 126.95 116.191C128.414 116.644 130.363 115.949 131.591 115.189C131.608 115.178 131.624 115.168 131.641 115.158C133.05 114.271 134.498 113.37 135.925 112.422C135.37 115.288 137.464 117.511 140.794 115.828C144.677 113.866 148.043 111.029 151.17 108.04C152.743 106.537 154.312 104.949 155.213 102.967C155.819 101.638 156.008 99.8606 154.916 98.8925Z" stroke="#231F20" stroke-miterlimit="10" stroke-linecap="round" stroke-linejoin="round"/>
<path d="M172.907 88.8729C168.099 94.4211 160.214 96.4709 154.976 101.613C150.815 105.696 146.656 109.78 142.496 113.863C141.068 115.264 139.427 116.758 137.429 116.767C136.718 116.77 135.992 116.566 135.44 116.117C134.525 115.373 134.217 114.067 134.395 112.899C134.572 111.732 135.16 110.671 135.776 109.665C137.2 107.34 139.167 104.915 140.988 102.886C138.012 106.266 134.987 109.6 131.955 112.93C130.354 114.687 126.927 118.15 124.243 115.781C123.225 114.883 123.258 113.287 123.575 111.966C124.203 109.345 125.597 106.984 126.973 104.668C128.07 102.822 129.166 100.975 130.263 99.129C127.446 102.489 124.677 105.889 121.956 109.328C120.482 111.192 116.984 116.908 113.888 113.86C113.239 113.221 113.05 112.25 113.007 111.339C112.872 108.509 113.828 105.713 115.248 103.263C116.668 100.813 118.427 98.5407 120.286 96.406C115.468 102.256 110.651 108.106 105.834 113.956C103.769 116.463 97.3174 119.736 97.4232 113.686C97.4456 112.411 97.9577 111.2 98.499 110.046C100.445 105.9 103.196 102.732 105.946 99.1134C109.102 94.9588 112.258 90.8049 115.414 86.6503C116.465 85.2667 117.525 83.8731 118.822 82.7184C121.041 80.7434 123.925 79.8271 126.612 78.6761C129.839 77.2938 133.081 75.9463 136.337 74.6338C142.741 72.0531 149.199 69.6078 155.706 67.301L173.503 59.8521L184.711 83.1919L172.907 88.8729Z" fill="white"/>
<path d="M172.907 88.8729C168.099 94.4211 160.214 96.4709 154.976 101.613C150.815 105.696 146.656 109.78 142.496 113.863C141.068 115.264 139.427 116.758 137.429 116.767C136.718 116.77 135.992 116.566 135.44 116.117C134.525 115.373 134.217 114.067 134.395 112.899C134.572 111.732 135.16 110.671 135.776 109.665C137.2 107.34 139.167 104.915 140.988 102.886C138.012 106.266 134.987 109.6 131.955 112.93C130.354 114.687 126.927 118.15 124.243 115.781C123.225 114.883 123.258 113.287 123.575 111.966C124.203 109.345 125.597 106.984 126.973 104.668C128.07 102.822 129.166 100.975 130.263 99.129C127.446 102.489 124.677 105.889 121.956 109.328C120.482 111.192 116.984 116.908 113.888 113.86C113.239 113.221 113.05 112.25 113.007 111.339C112.872 108.509 113.828 105.713 115.248 103.263C116.668 100.813 118.427 98.5407 120.286 96.406C115.468 102.256 110.651 108.106 105.834 113.956C103.769 116.463 97.3174 119.736 97.4232 113.686C97.4456 112.411 97.9577 111.2 98.499 110.046C100.445 105.9 103.196 102.732 105.946 99.1134C109.102 94.9588 112.258 90.8049 115.414 86.6503C116.465 85.2667 117.525 83.8731 118.822 82.7184C121.041 80.7434 123.925 79.8271 126.612 78.6761C129.839 77.2938 133.081 75.9463 136.337 74.6338C142.741 72.0531 149.199 69.6078 155.706 67.301L173.503 59.8521L184.711 83.1919L172.907 88.8729Z" stroke="#231F20" stroke-miterlimit="10" stroke-linecap="round" stroke-linejoin="round"/>
</svg>
