<svg width="26" height="26" viewBox="0 0 26 26" fill="none" xmlns="http://www.w3.org/2000/svg">
<mask id="path-1-outside-1_1756_351" maskUnits="userSpaceOnUse" x="1" y="0" width="24" height="26" fill="black">
<rect fill="white" x="1" width="24" height="26"/>
<path d="M13.0006 2C12.2216 2 11.5016 2.375 10.8986 2.97C10.2966 3.566 9.78663 4.387 9.36163 5.379C9.23263 5.68 9.11563 6.002 9.00263 6.334C8.66642 6.2777 8.32817 6.23434 7.98863 6.204C6.91363 6.112 5.94963 6.175 5.14163 6.428C4.33263 6.68 3.66563 7.141 3.29963 7.828C2.93363 8.516 2.92263 9.328 3.16463 10.141C3.40663 10.953 3.89163 11.789 4.56663 12.631C4.66663 12.754 4.77863 12.877 4.88563 13C4.77863 13.124 4.66563 13.248 4.56663 13.371C3.89163 14.213 3.40663 15.047 3.16463 15.859C2.92263 16.672 2.93163 17.484 3.29763 18.172C3.66363 18.859 4.33263 19.32 5.14163 19.572C5.94963 19.825 6.91363 19.888 7.98863 19.797C8.31563 19.769 8.65463 19.723 9.00063 19.666C9.11363 19.998 9.23263 20.322 9.36163 20.623C9.78663 21.615 10.2966 22.436 10.8986 23.031C11.5016 23.627 12.2216 24 13.0006 24C13.7796 24 14.4996 23.627 15.1026 23.031C15.7046 22.436 16.2146 21.615 16.6396 20.623C16.7686 20.323 16.8856 19.999 16.9986 19.668C17.3446 19.725 17.6856 19.771 18.0126 19.798C19.0876 19.89 20.0516 19.825 20.8596 19.572C21.6686 19.32 22.3376 18.859 22.7036 18.172C23.0696 17.484 23.0786 16.674 22.8366 15.862C22.5946 15.049 22.1096 14.212 21.4346 13.369C21.3346 13.246 21.2246 13.123 21.1176 13C21.2246 12.877 21.3356 12.754 21.4346 12.63C22.1096 11.789 22.5946 10.951 22.8366 10.139C23.0786 9.326 23.0696 8.516 22.7036 7.829C22.3376 7.141 21.6686 6.68 20.8596 6.428C20.0516 6.175 19.0876 6.112 18.0126 6.203C17.6737 6.23371 17.3362 6.27741 17.0006 6.334C16.8925 6.01117 16.7721 5.6926 16.6396 5.379C16.2146 4.387 15.7046 3.566 15.1026 2.971C14.4996 2.375 13.7796 2 13.0006 2ZM13.0006 11.5C12.1786 11.5 11.5006 12.178 11.5006 13C11.5006 13.822 12.1786 14.5 13.0006 14.5C13.8226 14.5 14.5006 13.822 14.5006 13C14.5006 12.178 13.8226 11.5 13.0006 11.5Z"/>
</mask>
<path d="M13.0006 2C12.2216 2 11.5016 2.375 10.8986 2.97C10.2966 3.566 9.78663 4.387 9.36163 5.379C9.23263 5.68 9.11563 6.002 9.00263 6.334C8.66642 6.2777 8.32817 6.23434 7.98863 6.204C6.91363 6.112 5.94963 6.175 5.14163 6.428C4.33263 6.68 3.66563 7.141 3.29963 7.828C2.93363 8.516 2.92263 9.328 3.16463 10.141C3.40663 10.953 3.89163 11.789 4.56663 12.631C4.66663 12.754 4.77863 12.877 4.88563 13C4.77863 13.124 4.66563 13.248 4.56663 13.371C3.89163 14.213 3.40663 15.047 3.16463 15.859C2.92263 16.672 2.93163 17.484 3.29763 18.172C3.66363 18.859 4.33263 19.32 5.14163 19.572C5.94963 19.825 6.91363 19.888 7.98863 19.797C8.31563 19.769 8.65463 19.723 9.00063 19.666C9.11363 19.998 9.23263 20.322 9.36163 20.623C9.78663 21.615 10.2966 22.436 10.8986 23.031C11.5016 23.627 12.2216 24 13.0006 24C13.7796 24 14.4996 23.627 15.1026 23.031C15.7046 22.436 16.2146 21.615 16.6396 20.623C16.7686 20.323 16.8856 19.999 16.9986 19.668C17.3446 19.725 17.6856 19.771 18.0126 19.798C19.0876 19.89 20.0516 19.825 20.8596 19.572C21.6686 19.32 22.3376 18.859 22.7036 18.172C23.0696 17.484 23.0786 16.674 22.8366 15.862C22.5946 15.049 22.1096 14.212 21.4346 13.369C21.3346 13.246 21.2246 13.123 21.1176 13C21.2246 12.877 21.3356 12.754 21.4346 12.63C22.1096 11.789 22.5946 10.951 22.8366 10.139C23.0786 9.326 23.0696 8.516 22.7036 7.829C22.3376 7.141 21.6686 6.68 20.8596 6.428C20.0516 6.175 19.0876 6.112 18.0126 6.203C17.6737 6.23371 17.3362 6.27741 17.0006 6.334C16.8925 6.01117 16.7721 5.6926 16.6396 5.379C16.2146 4.387 15.7046 3.566 15.1026 2.971C14.4996 2.375 13.7796 2 13.0006 2ZM13.0006 11.5C12.1786 11.5 11.5006 12.178 11.5006 13C11.5006 13.822 12.1786 14.5 13.0006 14.5C13.8226 14.5 14.5006 13.822 14.5006 13C14.5006 12.178 13.8226 11.5 13.0006 11.5Z" fill="#B5E8A2"/>
<path d="M14.3986 3.682L13.9766 4.10851L13.9775 4.10941L14.3986 3.682ZM15.7216 5.773L16.2737 5.53807L16.2731 5.5365L15.7216 5.773ZM10.2796 5.774L9.72833 5.53721L9.7279 5.53822L10.2796 5.774ZM11.6026 3.682L12.0242 4.10896L12.0246 4.10851L11.6026 3.682ZM7.19363 7.164L7.18748 7.76397L7.18837 7.76398L7.19363 7.164ZM7.90463 7.199L7.95641 6.60124L7.95566 6.60117L7.90463 7.199ZM5.34863 12.004L4.8807 12.3796L4.88122 12.3802L5.34863 12.004ZM4.12363 9.854L3.54859 10.0253L3.54866 10.0255L4.12363 9.854ZM4.18063 8.297L4.71011 8.57922L4.7104 8.57868L4.18063 8.297ZM5.44063 7.381L5.61924 7.9538L5.62021 7.95349L5.44063 7.381ZM18.8076 7.164L18.8129 7.76398L18.8138 7.76397L18.8076 7.164ZM20.6526 12.004L21.12 12.3802L21.1206 12.3796L20.6526 12.004ZM20.4246 12.254L20.0007 12.6786L20.4625 13.1398L20.8833 12.6408L20.4246 12.254ZM17.8096 10.111L17.214 10.1831L17.2462 10.4493L17.4661 10.6029L17.8096 10.111ZM17.2876 7.321L17.1954 6.72813L16.534 6.83102L16.7083 7.47727L17.2876 7.321ZM18.0966 7.199L18.048 6.60097L18.0449 6.60124L18.0966 7.199ZM15.3506 8.588L15.0679 9.1172L15.0685 9.11754L15.3506 8.588ZM9.69963 7.498L9.8326 6.91292L9.27195 6.7855L9.12075 7.34021L9.69963 7.498ZM16.8756 15.324L17.2099 15.8222L17.4445 15.6649L17.4726 15.3838L16.8756 15.324ZM14.8796 16.529L14.5977 15.9994L14.5973 15.9996L14.8796 16.529ZM12.9986 17.428L12.7636 17.98L12.9984 18.08L13.2334 17.9802L12.9986 17.428ZM11.1196 16.529L10.8358 17.0576L10.8369 17.0582L11.1196 16.529ZM9.12563 15.326L8.5288 15.3876L8.55763 15.6667L8.79032 15.8236L9.12563 15.326ZM9.00263 13L8.40263 13L8.40263 13.0017L9.00263 13ZM9.12563 10.674L8.79171 10.1755L8.55679 10.3329L8.52862 10.6142L9.12563 10.674ZM11.1216 9.469L11.4036 9.99862L11.404 9.99841L11.1216 9.469ZM6.26063 13L5.83779 12.5743L5.40926 13L5.83778 13.4257L6.26063 13ZM19.7406 12.998L20.1638 13.4234L20.592 12.9974L20.1632 12.572L19.7406 12.998ZM12.5006 13L13.1006 13.0086V13H12.5006ZM7.90463 18.801L7.95511 19.3989L7.95641 19.3988L7.90463 18.801ZM5.43963 18.617L5.26077 19.1897L5.26103 19.1898L5.43963 18.617ZM4.17963 17.703L3.64932 17.9837L3.65068 17.9862L4.17963 17.703ZM4.12363 16.146L3.54866 15.9745L3.54859 15.9747L4.12363 16.146ZM5.34663 13.996L5.81456 14.3716L5.81625 14.3694L5.34663 13.996ZM20.4246 13.744L20.8856 13.3599L20.465 12.8552L20.0004 13.3197L20.4246 13.744ZM20.5606 18.617L20.382 18.0442L20.3818 18.0443L20.5606 18.617ZM18.0966 18.801L18.0449 19.3988L18.0462 19.3989L18.0966 18.801ZM17.2876 18.68L16.7082 18.5244L16.5341 19.1725L17.1976 19.2732L17.2876 18.68ZM17.8096 15.887L17.4661 15.3951L17.2462 15.5487L17.214 15.8149L17.8096 15.887ZM16.3006 18.504L16.1634 19.0881L16.7277 19.2207L16.8796 18.6613L16.3006 18.504ZM9.69863 18.502L9.11975 18.6598L9.27095 19.2145L9.8316 19.0871L9.69863 18.502ZM15.7216 20.229L16.2728 20.466L16.2734 20.4648L15.7216 20.229ZM14.3986 22.32L13.9771 21.893L13.9766 21.8935L14.3986 22.32ZM11.6026 22.32L12.0246 21.8935L12.0237 21.8926L11.6026 22.32ZM10.2796 20.229L9.72754 20.4639L9.72821 20.4655L10.2796 20.229ZM13.0006 3V3.6C13.2584 3.6 13.5772 3.7133 13.9766 4.10851L14.3986 3.682L14.8206 3.25549C14.2741 2.7147 13.6689 2.4 13.0006 2.4V3ZM14.3986 3.682L13.9775 4.10941C14.3785 4.50441 14.8003 5.14695 15.1702 6.0095L15.7216 5.773L16.2731 5.5365C15.865 4.58505 15.3668 3.79359 14.8197 3.25459L14.3986 3.682ZM15.7216 5.773L15.1695 6.00793C15.261 6.22293 15.3173 6.43407 15.4268 6.74458L15.9926 6.545L16.5585 6.34542C16.486 6.13993 16.3822 5.79307 16.2737 5.53807L15.7216 5.773ZM10.0086 6.544L10.5749 6.74231C10.6814 6.43829 10.7411 6.22101 10.8314 6.00978L10.2796 5.774L9.7279 5.53822C9.61817 5.79499 9.51589 6.13571 9.44235 6.34569L10.0086 6.544ZM10.2796 5.774L10.8309 6.01079C11.2019 5.14703 11.6239 4.50417 12.0242 4.10896L11.6026 3.682L11.1811 3.25504C10.6354 3.79383 10.1373 4.58497 9.72833 5.53721L10.2796 5.774ZM11.6026 3.682L12.0246 4.10851C12.4241 3.7133 12.7429 3.6 13.0006 3.6V3V2.4C12.3324 2.4 11.7272 2.7147 11.1806 3.25549L11.6026 3.682ZM7.19363 7.164L7.18837 7.76398C7.3991 7.76583 7.6207 7.77694 7.8536 7.79683L7.90463 7.199L7.95566 6.60117C7.69656 6.57906 7.44416 6.56617 7.19889 6.56402L7.19363 7.164ZM7.90463 7.199L7.85286 7.79676C8.08403 7.81679 8.30155 7.8663 8.62355 7.9152L8.71363 7.322L8.80371 6.7288C8.58572 6.6957 8.23323 6.62522 7.95641 6.60124L7.90463 7.199ZM5.57863 12.256L6.03687 11.8687C5.98685 11.8095 5.93107 11.7519 5.89553 11.7147C5.85298 11.6702 5.83061 11.6459 5.81604 11.6278L5.34863 12.004L4.88122 12.3802C4.93265 12.4441 4.98978 12.5038 5.02798 12.5438C5.07319 12.5911 5.09941 12.6185 5.12039 12.6433L5.57863 12.256ZM5.34863 12.004L5.81656 11.6284C5.22875 10.8961 4.85937 10.2215 4.6986 9.6825L4.12363 9.854L3.54866 10.0255C3.76789 10.7605 4.23251 11.5719 4.8807 12.3796L5.34863 12.004ZM4.12363 9.854L4.69867 9.68275C4.53825 9.14406 4.58846 8.80747 4.71011 8.57922L4.18063 8.297L3.65115 8.01478C3.3368 8.60453 3.32901 9.28794 3.54859 10.0253L4.12363 9.854ZM4.18063 8.297L4.7104 8.57868C4.83207 8.34986 5.08302 8.121 5.61924 7.9538L5.44063 7.381L5.26202 6.8082C4.52824 7.037 3.96519 7.42414 3.65086 8.01532L4.18063 8.297ZM5.44063 7.381L5.62021 7.95349C6.01856 7.82854 6.54735 7.75741 7.18748 7.76397L7.19363 7.164L7.19978 6.56403C6.47391 6.55659 5.8127 6.63546 5.26105 6.8085L5.44063 7.381ZM18.8076 7.164L18.8138 7.76397C19.4524 7.75742 19.9838 7.83021 20.3844 7.9556L20.5636 7.383L20.7429 6.8104C20.1915 6.63779 19.5288 6.55658 18.8015 6.56403L18.8076 7.164ZM21.8796 9.854L21.3047 9.6825C21.1441 10.2208 20.7731 10.8953 20.1847 11.6284L20.6526 12.004L21.1206 12.3796C21.7681 11.5727 22.2352 10.7612 22.4546 10.0255L21.8796 9.854ZM20.6526 12.004L20.1852 11.6278C20.1706 11.646 20.1484 11.6701 20.1063 11.7142C20.0712 11.7509 20.0157 11.8082 19.966 11.8672L20.4246 12.254L20.8833 12.6408C20.9036 12.6168 20.9291 12.5901 20.974 12.5431C21.0119 12.5034 21.0687 12.444 21.12 12.3802L20.6526 12.004ZM20.4246 12.254L20.8486 11.8294C20.08 11.0619 19.1578 10.3208 18.1532 9.61911L17.8096 10.111L17.4661 10.6029C18.4314 11.2772 19.2952 11.9741 20.0007 12.6786L20.4246 12.254ZM17.8096 10.111L18.4053 10.0389C18.2827 9.02665 18.108 8.05855 17.8669 7.16473L17.2876 7.321L16.7083 7.47727C16.9312 8.30345 17.0966 9.21335 17.214 10.1831L17.8096 10.111ZM17.2876 7.321L17.3799 7.91387C17.6914 7.8654 17.9206 7.8165 18.1484 7.79676L18.0966 7.199L18.0449 6.60124C17.7647 6.62551 17.4238 6.6926 17.1954 6.72813L17.2876 7.321ZM18.0966 7.199L18.1453 7.79703C18.3816 7.77781 18.6045 7.76581 18.8129 7.76398L18.8076 7.164L18.8023 6.56402C18.5568 6.56619 18.3036 6.58019 18.048 6.60097L18.0966 7.199ZM16.7016 9.383L17.0163 8.87212C16.5804 8.60365 16.1255 8.321 15.6328 8.05846L15.3506 8.588L15.0685 9.11754C15.5217 9.359 15.9429 9.62035 16.387 9.89388L16.7016 9.383ZM15.3506 8.588L15.6334 8.0588C15.2677 7.86342 14.882 7.69669 14.5613 7.54417L14.3036 8.086L14.0459 8.62783C14.4232 8.80731 14.7336 8.93858 15.0679 9.1172L15.3506 8.588ZM9.69963 7.498L9.56666 8.08308C10.1767 8.22172 10.8232 8.41649 11.4975 8.65235L11.6956 8.086L11.8937 7.51965C11.19 7.27351 10.4986 7.06428 9.8326 6.91292L9.69963 7.498ZM9.29963 9.383L9.89189 9.47904C9.99721 8.82958 10.1251 8.21868 10.2785 7.65579L9.69963 7.498L9.12075 7.34021C8.95418 7.95132 8.81805 8.60442 8.70737 9.28696L9.29963 9.383ZM16.8756 10.674L16.2786 10.7338C16.3521 11.4673 16.3986 12.2209 16.3986 13H16.9986H17.5986C17.5986 12.1731 17.5492 11.3787 17.4726 10.6142L16.8756 10.674ZM16.9986 13H16.3986C16.3986 13.779 16.3521 14.5307 16.2786 15.2642L16.8756 15.324L17.4726 15.3838C17.5492 14.6193 17.5986 13.827 17.5986 13H16.9986ZM16.8756 15.324L16.5413 14.8258C15.9284 15.237 15.2861 15.6329 14.5977 15.9994L14.8796 16.529L15.1616 17.0586C15.8932 16.6691 16.5708 16.251 17.2099 15.8222L16.8756 15.324ZM14.8796 16.529L14.5973 15.9996C13.9834 16.327 13.3693 16.6185 12.7639 16.8758L12.9986 17.428L13.2334 17.9802C13.87 17.7095 14.5159 17.403 15.162 17.0584L14.8796 16.529ZM12.9986 17.428L13.2337 16.876C12.6291 16.6185 12.015 16.3271 11.4023 15.9998L11.1196 16.529L10.8369 17.0582C11.4822 17.4029 12.1282 17.7095 12.7636 17.98L12.9986 17.428ZM11.1196 16.529L11.4034 16.0004C10.7367 15.6424 10.0884 15.2513 9.46094 14.8284L9.12563 15.326L8.79032 15.8236C9.45109 16.2689 10.1338 16.6807 10.8358 17.0576L11.1196 16.529ZM9.12563 15.326L9.72246 15.2644C9.64471 14.5115 9.60472 13.7552 9.60263 12.9983L9.00263 13L8.40263 13.0017C8.40483 13.7986 8.44694 14.5949 8.5288 15.3876L9.12563 15.326ZM9.00263 13L9.60263 13C9.60263 12.2209 9.6492 11.4673 9.72264 10.7338L9.12563 10.674L8.52862 10.6142C8.45206 11.3787 8.40263 12.1731 8.40263 13L9.00263 13ZM9.12563 10.674L9.45955 11.1725C10.074 10.7609 10.7154 10.365 11.4036 9.99862L11.1216 9.469L10.8397 8.93938C10.1079 9.32898 9.4313 9.74707 8.79171 10.1755L9.12563 10.674ZM11.1216 9.469L11.404 9.99841C12.0177 9.67111 12.6306 9.38071 13.2349 9.12436L13.0006 8.572L12.7663 8.01964C12.1307 8.28928 11.4856 8.59489 10.8393 8.93959L11.1216 9.469ZM8.07063 14.568L8.43168 14.0888C7.81519 13.6243 7.2311 13.1183 6.68348 12.5743L6.26063 13L5.83778 13.4257C6.42411 14.0081 7.0495 14.5499 7.70958 15.0472L8.07063 14.568ZM6.26063 13L6.68348 13.4257C7.2311 12.8817 7.8152 12.3757 8.43169 11.9112L8.07063 11.432L7.70957 10.9528C7.04951 11.4501 6.42413 11.9919 5.83779 12.5743L6.26063 13ZM17.9306 11.432L17.5698 11.9114C18.1863 12.3753 18.7704 12.8807 19.3181 13.424L19.7406 12.998L20.1632 12.572C19.5767 11.9903 18.9514 11.4493 18.2914 10.9526L17.9306 11.432ZM19.7406 12.998L19.3175 12.5726C18.7699 13.1173 18.1859 13.6239 17.5693 14.089L17.9306 14.568L18.292 15.047C18.9521 14.549 19.5775 14.0065 20.1638 13.4234L19.7406 12.998ZM13.0006 13.5L12.992 12.9001C13.0064 12.8999 13.0206 12.9025 13.0338 12.9079L12.8082 13.4639L12.5825 14.0198C12.718 14.0748 12.8631 14.102 13.0092 14.0999L13.0006 13.5ZM12.5368 13.1925L13.0927 12.9668C13.0981 12.9801 13.1008 12.9943 13.1006 13.0086L12.5006 13L11.9007 12.9914C11.8986 13.1376 11.9258 13.2827 11.9808 13.4181L12.5368 13.1925ZM12.5006 13H13.1006C13.1006 13.0175 13.0923 13.0453 13.0691 13.0685C13.046 13.0917 13.0182 13.1 13.0006 13.1V12.5V11.9C12.3873 11.9 11.9006 12.3866 11.9006 13H12.5006ZM8.71363 18.678L8.62355 18.0848C8.30154 18.1337 8.08403 18.1832 7.85286 18.2032L7.90463 18.801L7.95641 19.3988C8.23323 19.3748 8.58572 19.3043 8.80371 19.2712L8.71363 18.678ZM7.90463 18.801L7.85415 18.2031C6.91957 18.282 6.15585 18.2118 5.61824 18.0442L5.43963 18.617L5.26103 19.1898C5.99341 19.4182 6.92369 19.486 7.95511 19.3989L7.90463 18.801ZM5.43963 18.617L5.61849 18.0443C5.08268 17.8769 4.83109 17.6486 4.70858 17.4198L4.17963 17.703L3.65068 17.9862C3.96617 18.5754 4.52858 18.9611 5.26077 19.1897L5.43963 18.617ZM4.17963 17.703L4.70993 17.4223C4.5881 17.1921 4.53836 16.8556 4.69867 16.3173L4.12363 16.146L3.54859 15.9747C3.3289 16.7124 3.33716 17.3939 3.64933 17.9837L4.17963 17.703ZM4.12363 16.146L4.6986 16.3175C4.85957 15.7778 5.22737 15.1032 5.81456 14.3716L5.34663 13.996L4.8787 13.6204C4.22989 14.4288 3.76769 15.2402 3.54866 15.9745L4.12363 16.146ZM5.34663 13.996L5.81625 14.3694C5.82898 14.3534 5.84956 14.331 5.89266 14.2862C5.92785 14.2496 5.98588 14.1901 6.03756 14.1281L5.57663 13.744L5.1157 13.3599C5.09738 13.3819 5.07341 13.4069 5.02761 13.4545C4.9897 13.494 4.93028 13.5556 4.87701 13.6226L5.34663 13.996ZM20.4246 13.744L19.9637 14.1281C20.0149 14.1895 20.0721 14.2485 20.108 14.2859C20.1514 14.3313 20.1732 14.3548 20.1872 14.3722L20.6546 13.996L21.122 13.6198C21.0701 13.5552 21.0118 13.4947 20.9743 13.4556C20.9292 13.4085 20.9044 13.3825 20.8856 13.3599L20.4246 13.744ZM21.8206 17.701L21.2909 17.4193C21.1692 17.6481 20.9182 17.877 20.382 18.0442L20.5606 18.617L20.7392 19.1898C21.473 18.961 22.0361 18.5739 22.3504 17.9827L21.8206 17.701ZM20.5606 18.617L20.3818 18.0443C19.8454 18.2118 19.0828 18.2821 18.1471 18.2031L18.0966 18.801L18.0462 19.3989C19.0785 19.486 20.0079 19.4182 20.7395 19.1897L20.5606 18.617ZM18.0966 18.801L18.1484 18.2032C17.9184 18.1833 17.6929 18.1347 17.3777 18.0868L17.2876 18.68L17.1976 19.2732C17.4223 19.3073 17.7669 19.3747 18.0449 19.3988L18.0966 18.801ZM17.2876 18.68L17.8671 18.8356C18.107 17.9424 18.2827 16.9726 18.4053 15.9591L17.8096 15.887L17.214 15.8149C17.0966 16.7854 16.9302 17.6976 16.7082 18.5244L17.2876 18.68ZM17.8096 15.887L18.1532 16.3789C19.1575 15.6774 20.08 14.9372 20.8489 14.1683L20.4246 13.744L20.0004 13.3197C19.2953 14.0248 18.4317 14.7206 17.4661 15.3951L17.8096 15.887ZM16.7006 16.615L16.1083 16.5191C16.003 17.1696 15.8751 17.7816 15.7216 18.3467L16.3006 18.504L16.8796 18.6613C17.0461 18.0484 17.1822 17.3944 17.2929 16.7109L16.7006 16.615ZM16.3006 18.504L16.4379 17.9199C15.7833 17.7661 15.1378 17.5755 14.5047 17.349L14.3026 17.914L14.1006 18.479C14.7762 18.7206 15.4649 18.924 16.1634 19.0881L16.3006 18.504ZM11.6966 17.914L11.4985 17.3476C10.8246 17.5834 10.1759 17.7782 9.56566 17.9169L9.69863 18.502L9.8316 19.0871C10.4973 18.9358 11.1907 18.7266 11.8947 18.4804L11.6966 17.914ZM9.69863 18.502L10.2775 18.3442C10.1241 17.7814 9.99622 17.1695 9.89087 16.5208L9.29863 16.617L8.70639 16.7132C8.81704 17.3945 8.95315 18.0486 9.11975 18.6598L9.69863 18.502ZM15.9926 19.457L15.4261 19.2594C15.3198 19.5642 15.2599 19.7826 15.1699 19.9932L15.7216 20.229L16.2734 20.4648C16.3833 20.2074 16.4855 19.8658 16.5592 19.6546L15.9926 19.457ZM15.7216 20.229L15.1704 19.992C14.7994 20.8549 14.3774 21.4978 13.9771 21.893L14.3986 22.32L14.8202 22.747C15.3659 22.2082 15.8639 21.4171 16.2728 20.466L15.7216 20.229ZM14.3986 22.32L13.9766 21.8935C13.5784 22.2875 13.2597 22.4 13.0006 22.4V23V23.6C13.6676 23.6 14.2728 23.2885 14.8206 22.7465L14.3986 22.32ZM13.0006 23V22.4C12.7416 22.4 12.4228 22.2875 12.0246 21.8935L11.6026 22.32L11.1806 22.7465C11.7284 23.2885 12.3337 23.6 13.0006 23.6V23ZM11.6026 22.32L12.0237 21.8926C11.6228 21.4976 11.201 20.855 10.8311 19.9925L10.2796 20.229L9.72821 20.4655C10.1363 21.417 10.6345 22.2084 11.1815 22.7474L11.6026 22.32ZM10.2796 20.229L10.8317 19.9941C10.7405 19.7797 10.6841 19.5674 10.5747 19.2561L10.0086 19.455L9.44255 19.6539C9.5152 19.8606 9.61875 20.2083 9.72754 20.4639L10.2796 20.229ZM10.8986 2.97L10.0558 2.11582L10.0544 2.11723L10.8986 2.97ZM9.36163 5.379L10.4646 5.8517L10.4647 5.85157L9.36163 5.379ZM9.00263 6.334L8.80445 7.51752L9.81009 7.68592L10.1386 6.72065L9.00263 6.334ZM7.98863 6.204L8.09542 5.00875L8.09095 5.00837L7.98863 6.204ZM5.14163 6.428L5.49851 7.5737L5.50021 7.57317L5.14163 6.428ZM3.29963 7.828L2.24055 7.26377L2.24021 7.26441L3.29963 7.828ZM3.16463 10.141L2.0145 10.4834L2.01462 10.4837L3.16463 10.141ZM4.56663 12.631L3.63033 13.3816L3.63553 13.388L4.56663 12.631ZM4.88563 13L5.79415 13.784L6.47338 12.9968L5.791 12.2124L4.88563 13ZM4.56663 13.371L3.63181 12.6186L3.63035 12.6204L4.56663 13.371ZM3.16463 15.859L2.01462 15.5163L2.0145 15.5166L3.16463 15.859ZM3.29763 18.172L2.23821 18.7356L2.23855 18.7362L3.29763 18.172ZM5.14163 19.572L5.50021 18.4268L5.49851 18.4263L5.14163 19.572ZM7.98863 19.797L8.08985 20.9927L8.09101 20.9926L7.98863 19.797ZM9.00063 19.666L10.1366 19.2793L9.80897 18.3167L8.80557 18.482L9.00063 19.666ZM9.36163 20.623L10.4647 20.1504L10.4646 20.1503L9.36163 20.623ZM10.8986 23.031L11.7422 22.1775L11.7422 22.1775L10.8986 23.031ZM15.1026 23.031L14.2591 22.1775L14.2591 22.1775L15.1026 23.031ZM16.6396 20.623L15.5372 20.149L15.5366 20.1504L16.6396 20.623ZM16.9986 19.668L17.1937 18.484L16.1912 18.3188L15.863 19.2803L16.9986 19.668ZM18.0126 19.798L18.115 18.6024L18.1114 18.6021L18.0126 19.798ZM20.8596 19.572L20.5027 18.4263L20.5011 18.4268L20.8596 19.572ZM22.7036 18.172L23.7627 18.7362L23.7631 18.7356L22.7036 18.172ZM22.8366 15.862L21.6865 16.2044L21.6866 16.2047L22.8366 15.862ZM21.4346 13.369L22.3714 12.6189L22.3657 12.612L21.4346 13.369ZM21.1176 13L20.2123 12.2124L19.5271 13L20.2123 13.7876L21.1176 13ZM21.4346 12.63L20.4988 11.8789L20.4969 11.8813L21.4346 12.63ZM22.8366 10.139L23.9866 10.4817L23.9868 10.4814L22.8366 10.139ZM22.7036 7.829L21.6442 8.39259L21.6446 8.39323L22.7036 7.829ZM20.8596 6.428L20.5011 7.57318L20.5027 7.5737L20.8596 6.428ZM18.0126 6.203L17.9114 5.00726L17.9043 5.0079L18.0126 6.203ZM17.0006 6.334L15.8627 6.715L16.1885 7.68791L17.2002 7.51729L17.0006 6.334ZM16.6396 5.379L17.745 4.91199L17.7427 4.90643L16.6396 5.379ZM15.1026 2.971L14.2591 3.82447L14.2591 3.82448L15.1026 2.971ZM13.0006 2V0.8C11.8168 0.8 10.8106 1.37104 10.0558 2.11582L10.8986 2.97L11.7415 3.82418C12.1927 3.37896 12.6264 3.2 13.0006 3.2V2ZM10.8986 2.97L10.0544 2.11723C9.30767 2.85648 8.72177 3.82534 8.2586 4.90643L9.36163 5.379L10.4647 5.85157C10.8515 4.94866 11.2856 4.27552 11.7429 3.82277L10.8986 2.97ZM9.36163 5.379L8.25866 4.9063C8.11221 5.248 7.98391 5.60277 7.86663 5.94735L9.00263 6.334L10.1386 6.72065C10.2474 6.40122 10.353 6.112 10.4646 5.8517L9.36163 5.379ZM9.00263 6.334L9.20081 5.15048C8.8343 5.0891 8.46556 5.04183 8.09542 5.00876L7.98863 6.204L7.88184 7.39924C8.19078 7.42684 8.49854 7.4663 8.80445 7.51752L9.00263 6.334ZM7.98863 6.204L8.09095 5.00837C6.92026 4.90818 5.78811 4.96812 4.78305 5.28283L5.14163 6.428L5.50021 7.57317C6.11115 7.38188 6.907 7.31582 7.88631 7.39963L7.98863 6.204ZM5.14163 6.428L4.78475 5.2823C3.76826 5.59893 2.79562 6.22188 2.24055 7.26377L3.29963 7.828L4.35871 8.39223C4.53564 8.06012 4.897 7.76107 5.49851 7.5737L5.14163 6.428ZM3.29963 7.828L2.24021 7.26441C1.68582 8.30654 1.71044 9.46186 2.0145 10.4834L3.16463 10.141L4.31476 9.79865C4.13482 9.19414 4.18144 8.72546 4.35905 8.39159L3.29963 7.828ZM3.16463 10.141L2.01462 10.4837C2.31507 11.4919 2.89536 12.4648 3.63035 13.3816L4.56663 12.631L5.50291 11.8804C4.8879 11.1132 4.49819 10.4141 4.31464 9.79826L3.16463 10.141ZM4.56663 12.631L3.63553 13.388C3.75198 13.5312 3.8984 13.6935 3.98026 13.7876L4.88563 13L5.791 12.2124C5.65886 12.0605 5.58128 11.9768 5.49774 11.874L4.56663 12.631ZM4.88563 13L3.97711 12.216C3.90068 12.3046 3.74707 12.4754 3.63182 12.6186L4.56663 13.371L5.50144 14.1234C5.58419 14.0206 5.65658 13.9434 5.79415 13.784L4.88563 13ZM4.56663 13.371L3.63035 12.6204C2.89598 13.5365 2.31527 14.5075 2.01462 15.5163L3.16463 15.859L4.31464 16.2017C4.49799 15.5865 4.88728 14.8895 5.50291 14.1216L4.56663 13.371ZM3.16463 15.859L2.0145 15.5166C1.71115 16.5357 1.68292 17.6918 2.23821 18.7356L3.29763 18.172L4.35705 17.6084C4.18034 17.2762 4.13411 16.8083 4.31476 16.2013L3.16463 15.859ZM3.29763 18.172L2.23855 18.7362C2.79416 19.7791 3.76968 20.4015 4.78475 20.7177L5.14163 19.572L5.49851 18.4263C4.89558 18.2385 4.5331 17.9389 4.35671 17.6078L3.29763 18.172ZM5.14163 19.572L4.78305 20.7172C5.788 21.0318 6.91991 21.0918 8.08985 20.9927L7.98863 19.797L7.88741 18.6013C6.90735 18.6842 6.11126 18.6182 5.50021 18.4268L5.14163 19.572ZM7.98863 19.797L8.09101 20.9926C8.45778 20.9612 8.82903 20.9104 9.19569 20.85L9.00063 19.666L8.80557 18.482C8.48023 18.5356 8.17348 18.5768 7.88625 18.6014L7.98863 19.797ZM9.00063 19.666L7.86463 20.0527C7.983 20.4004 8.11305 20.7559 8.25866 21.0957L9.36163 20.623L10.4646 20.1503C10.3522 19.8881 10.2443 19.5956 10.1366 19.2793L9.00063 19.666ZM9.36163 20.623L8.2586 21.0956C8.72169 22.1765 9.30775 23.1458 10.0551 23.8845L10.8986 23.031L11.7422 22.1775C11.2855 21.7262 10.8516 21.0535 10.4647 20.1504L9.36163 20.623ZM10.8986 23.031L10.0551 23.8845C10.8118 24.6324 11.8184 25.2 13.0006 25.2V24V22.8C12.6249 22.8 12.1915 22.6216 11.7422 22.1775L10.8986 23.031ZM13.0006 24V25.2C14.1829 25.2 15.1895 24.6324 15.9462 23.8845L15.1026 23.031L14.2591 22.1775C13.8098 22.6216 13.3764 22.8 13.0006 22.8V24ZM15.1026 23.031L15.9462 23.8845C16.6935 23.1458 17.2796 22.1765 17.7427 21.0956L16.6396 20.623L15.5366 20.1504C15.1497 21.0535 14.7157 21.7262 14.2591 22.1775L15.1026 23.031ZM16.6396 20.623L17.742 21.097C17.8893 20.7545 18.018 20.3963 18.1343 20.0557L16.9986 19.668L15.863 19.2803C15.7533 19.6017 15.648 19.8915 15.5372 20.149L16.6396 20.623ZM16.9986 19.668L16.8036 20.852C17.1707 20.9125 17.5453 20.9635 17.9139 20.9939L18.0126 19.798L18.1114 18.6021C17.826 18.5785 17.5186 18.5375 17.1937 18.484L16.9986 19.668ZM18.0126 19.798L17.9103 20.9936C19.083 21.094 20.2145 21.0315 21.2182 20.7172L20.8596 19.572L20.5011 18.4268C19.8888 18.6185 19.0923 18.686 18.115 18.6024L18.0126 19.798ZM20.8596 19.572L21.2165 20.7177C22.2316 20.4015 23.2071 19.7791 23.7627 18.7362L22.7036 18.172L21.6446 17.6078C21.4682 17.9389 21.1057 18.2385 20.5027 18.4263L20.8596 19.572ZM22.7036 18.172L23.7631 18.7356C24.3182 17.692 24.2902 16.5379 23.9866 15.5193L22.8366 15.862L21.6866 16.2047C21.867 16.8101 21.821 17.276 21.6442 17.6084L22.7036 18.172ZM22.8366 15.862L23.9868 15.5196C23.6864 14.5107 23.1063 13.5368 22.3713 12.619L21.4346 13.369L20.4979 14.119C21.113 14.8872 21.5028 15.5873 21.6865 16.2044L22.8366 15.862ZM21.4346 13.369L22.3657 12.612C22.249 12.4684 22.1149 12.318 22.023 12.2124L21.1176 13L20.2123 13.7876C20.3344 13.928 20.4203 14.0236 20.5035 14.126L21.4346 13.369ZM21.1176 13L22.023 13.7876C22.1099 13.6877 22.2524 13.5291 22.3724 13.3787L21.4346 12.63L20.4969 11.8813C20.4189 11.9789 20.3393 12.0663 20.2123 12.2124L21.1176 13ZM21.4346 12.63L22.3705 13.3811C23.1065 12.4641 23.6864 11.4892 23.9866 10.4817L22.8366 10.139L21.6866 9.79626C21.5029 10.4128 21.1128 11.1139 20.4988 11.8789L21.4346 12.63ZM22.8366 10.139L23.9868 10.4814C24.2901 9.46245 24.3185 8.30802 23.7627 7.26477L22.7036 7.829L21.6446 8.39323C21.8208 8.72398 21.8672 9.18955 21.6865 9.79665L22.8366 10.139ZM22.7036 7.829L23.7631 7.26541C23.2075 6.2211 22.2317 5.59853 21.2165 5.2823L20.8596 6.428L20.5027 7.5737C21.1055 7.76147 21.4678 8.0609 21.6442 8.39259L22.7036 7.829ZM20.8596 6.428L21.2182 5.28283C20.2133 4.96816 19.0814 4.90824 17.9114 5.00728L18.0126 6.203L18.1138 7.39872C19.0939 7.31576 19.89 7.38184 20.5011 7.57317L20.8596 6.428ZM18.0126 6.203L17.9043 5.0079C17.5349 5.04138 17.1669 5.08902 16.8011 5.15071L17.0006 6.334L17.2002 7.51729C17.5055 7.46581 17.8126 7.42605 18.1209 7.3981L18.0126 6.203ZM17.0006 6.334L18.1385 5.953C18.0207 5.6011 17.8895 5.25385 17.745 4.912L16.6396 5.379L15.5342 5.846C15.6548 6.13136 15.7644 6.42124 15.8627 6.715L17.0006 6.334ZM16.6396 5.379L17.7427 4.90643C17.2796 3.82551 16.6935 2.85616 15.9462 2.11752L15.1026 2.971L14.2591 3.82448C14.7157 4.27584 15.1497 4.94849 15.5366 5.85157L16.6396 5.379ZM15.1026 2.971L15.9462 2.11753C15.1911 1.37121 14.1846 0.8 13.0006 0.8V2V3.2C13.3747 3.2 13.8082 3.37879 14.2591 3.82447L15.1026 2.971ZM13.0006 11.5V10.3C11.5159 10.3 10.3006 11.5153 10.3006 13H11.5006H12.7006C12.7006 12.8407 12.8414 12.7 13.0006 12.7V11.5ZM11.5006 13H10.3006C10.3006 14.4847 11.5159 15.7 13.0006 15.7V14.5V13.3C12.8414 13.3 12.7006 13.1593 12.7006 13H11.5006ZM13.0006 14.5V15.7C14.4854 15.7 15.7006 14.4847 15.7006 13H14.5006H13.3006C13.3006 13.1593 13.1599 13.3 13.0006 13.3V14.5ZM14.5006 13H15.7006C15.7006 11.5153 14.4854 10.3 13.0006 10.3V11.5V12.7C13.1599 12.7 13.3006 12.8407 13.3006 13H14.5006Z" fill="#B5E8A2" mask="url(#path-1-outside-1_1756_351)"/>
<path d="M13.0006 2C12.2216 2 11.5016 2.375 10.8986 2.97C10.2966 3.566 9.78663 4.387 9.36163 5.379C9.23263 5.68 9.11563 6.002 9.00263 6.334C8.66642 6.2777 8.32817 6.23434 7.98863 6.204C6.91363 6.112 5.94963 6.175 5.14163 6.428C4.33263 6.68 3.66563 7.141 3.29963 7.828C2.93363 8.516 2.92263 9.328 3.16463 10.141C3.40663 10.953 3.89163 11.789 4.56663 12.631C4.66663 12.754 4.77863 12.877 4.88563 13C4.77863 13.124 4.66563 13.248 4.56663 13.371C3.89163 14.213 3.40663 15.047 3.16463 15.859C2.92263 16.672 2.93163 17.484 3.29763 18.172C3.66363 18.859 4.33263 19.32 5.14163 19.572C5.94963 19.825 6.91363 19.888 7.98863 19.797C8.31563 19.769 8.65463 19.723 9.00063 19.666C9.11363 19.998 9.23263 20.322 9.36163 20.623C9.78663 21.615 10.2966 22.436 10.8986 23.031C11.5016 23.627 12.2216 24 13.0006 24C13.7796 24 14.4996 23.627 15.1026 23.031C15.7046 22.436 16.2146 21.615 16.6396 20.623C16.7686 20.323 16.8856 19.999 16.9986 19.668C17.3446 19.725 17.6856 19.771 18.0126 19.798C19.0876 19.89 20.0516 19.825 20.8596 19.572C21.6686 19.32 22.3376 18.859 22.7036 18.172C23.0696 17.484 23.0786 16.674 22.8366 15.862C22.5946 15.049 22.1096 14.212 21.4346 13.369C21.3346 13.246 21.2246 13.123 21.1176 13C21.2246 12.877 21.3356 12.754 21.4346 12.63C22.1096 11.789 22.5946 10.951 22.8366 10.139C23.0786 9.326 23.0696 8.516 22.7036 7.829C22.3376 7.141 21.6686 6.68 20.8596 6.428C20.0516 6.175 19.0876 6.112 18.0126 6.203C17.6737 6.23371 17.3362 6.27741 17.0006 6.334C16.8925 6.01117 16.7721 5.6926 16.6396 5.379C16.2146 4.387 15.7046 3.566 15.1026 2.971C14.4996 2.375 13.7796 2 13.0006 2ZM13.0006 3C13.4636 3 13.9256 3.214 14.3986 3.682C14.8726 4.149 15.3326 4.866 15.7216 5.773C15.8216 6.008 15.9016 6.287 15.9926 6.545C15.0356 6.765 14.0306 7.087 12.9986 7.504C12.0285 7.10671 11.0288 6.78574 10.0086 6.544C10.0986 6.287 10.1796 6.008 10.2796 5.774C10.6696 4.866 11.1296 4.149 11.6026 3.682C12.0756 3.214 12.5376 3 13.0006 3ZM7.19363 7.164C7.42163 7.166 7.65863 7.178 7.90463 7.199C8.15863 7.221 8.44363 7.281 8.71363 7.322C8.48263 8.182 8.31163 9.12 8.19163 10.112C7.20663 10.799 6.31563 11.519 5.57863 12.256C5.50763 12.172 5.41463 12.086 5.34863 12.004C4.73063 11.234 4.31363 10.491 4.12363 9.854C3.93363 9.216 3.96263 8.706 4.18063 8.297C4.39863 7.887 4.80563 7.579 5.44063 7.381C5.91563 7.232 6.51063 7.157 7.19363 7.164ZM18.8076 7.164C19.4906 7.157 20.0876 7.234 20.5636 7.383C21.1976 7.581 21.6036 7.89 21.8206 8.299C22.0386 8.708 22.0696 9.216 21.8796 9.854C21.6896 10.491 21.2706 11.234 20.6526 12.004C20.5866 12.086 20.4946 12.171 20.4246 12.254C19.6876 11.518 18.7946 10.799 17.8096 10.111C17.6896 9.12 17.5196 8.181 17.2876 7.321C17.5576 7.279 17.8426 7.221 18.0966 7.199C18.3426 7.179 18.5806 7.166 18.8076 7.164ZM16.3016 7.496C16.4616 8.083 16.5936 8.716 16.7016 9.383C16.2616 9.112 15.8236 8.84 15.3506 8.588C15.0006 8.401 14.6526 8.252 14.3036 8.086C14.9936 7.845 15.6636 7.641 16.3016 7.496ZM9.69963 7.498C10.3376 7.643 11.0066 7.845 11.6956 8.086C11.3476 8.251 11.0006 8.4 10.6506 8.586C10.1776 8.838 9.73963 9.111 9.29963 9.383C9.40763 8.717 9.53963 8.085 9.69963 7.498ZM13.0006 8.572C13.6206 8.835 14.2506 9.135 14.8796 9.471C15.5896 9.849 16.2496 10.255 16.8756 10.674C16.9506 11.423 16.9986 12.197 16.9986 13C16.9986 13.803 16.9506 14.575 16.8756 15.324C16.2496 15.744 15.5896 16.151 14.8796 16.529C14.2496 16.865 13.6196 17.164 12.9986 17.428C12.3786 17.164 11.7486 16.865 11.1196 16.529C10.4353 16.1616 9.76976 15.7601 9.12563 15.326C9.04583 14.5532 9.00478 13.7769 9.00263 13C9.00263 12.197 9.05063 11.423 9.12563 10.674C9.75263 10.254 10.4116 9.847 11.1216 9.469C11.7516 9.133 12.3806 8.835 13.0006 8.572ZM8.07063 11.432C8.03863 11.948 8.00263 12.463 8.00263 13C8.00263 13.537 8.03863 14.052 8.07063 14.568C7.43234 14.0871 6.82761 13.5632 6.26063 13C6.82761 12.4368 7.43235 11.9129 8.07063 11.432ZM17.9306 11.432C18.5688 11.9123 19.1736 12.4355 19.7406 12.998C19.1737 13.5619 18.569 14.0865 17.9306 14.568C17.9626 14.052 17.9986 13.538 17.9986 13C17.9986 12.463 17.9626 11.948 17.9306 11.432ZM13.0006 11.5C12.1786 11.5 11.5006 12.178 11.5006 13C11.5006 13.822 12.1786 14.5 13.0006 14.5C13.8226 14.5 14.5006 13.822 14.5006 13C14.5006 12.178 13.8226 11.5 13.0006 11.5ZM13.0006 12.5C13.2826 12.5 13.5006 12.718 13.5006 13C13.5006 13.282 13.2826 13.5 13.0006 13.5C12.9347 13.5009 12.8693 13.4887 12.8082 13.4639C12.7471 13.4391 12.6916 13.4023 12.645 13.3557C12.5984 13.309 12.5616 13.2535 12.5368 13.1925C12.512 13.1314 12.4997 13.0659 12.5006 13C12.5006 12.718 12.7186 12.5 13.0006 12.5ZM5.57663 13.744C6.31363 14.481 7.20663 15.2 8.19363 15.889C8.31363 16.879 8.48263 17.819 8.71363 18.678C8.44363 18.719 8.15863 18.779 7.90463 18.801C6.92163 18.884 6.07463 18.815 5.43963 18.617C4.80563 18.419 4.39863 18.112 4.17963 17.703C3.96263 17.293 3.93363 16.784 4.12363 16.146C4.31363 15.509 4.72863 14.766 5.34663 13.996C5.41263 13.913 5.50663 13.828 5.57663 13.744ZM20.4246 13.744C20.4946 13.828 20.5886 13.914 20.6546 13.996C21.2726 14.766 21.6876 15.506 21.8776 16.145C22.0676 16.782 22.0386 17.292 21.8206 17.701C21.6026 18.111 21.1956 18.419 20.5606 18.617C19.9266 18.815 19.0806 18.884 18.0966 18.801C17.8426 18.779 17.5576 18.721 17.2876 18.68C17.5186 17.82 17.6896 16.879 17.8096 15.887C18.7946 15.199 19.6876 14.481 20.4246 13.744ZM16.7006 16.615C16.5926 17.282 16.4606 17.915 16.3006 18.504C15.6241 18.345 14.957 18.148 14.3026 17.914C14.6516 17.748 14.9986 17.599 15.3496 17.412C15.8226 17.16 16.2606 16.886 16.7006 16.615ZM9.29863 16.617C9.73863 16.888 10.1766 17.16 10.6496 17.412C11.0006 17.599 11.3476 17.748 11.6966 17.914C11.0076 18.155 10.3366 18.357 9.69863 18.502C9.53863 17.915 9.40663 17.282 9.29863 16.617ZM13.0006 18.497C14.0306 18.913 15.0366 19.236 15.9926 19.457C15.9026 19.715 15.8216 19.995 15.7216 20.229C15.3316 21.136 14.8716 21.853 14.3986 22.32C13.9256 22.788 13.4636 23 13.0006 23C12.5376 23 12.0756 22.788 11.6026 22.32C11.1286 21.853 10.6686 21.136 10.2796 20.229C10.1796 19.994 10.0996 19.714 10.0086 19.455C11.0294 19.2136 12.0298 18.894 13.0006 18.497Z" fill="black"/>
</svg>
