<svg width="82" height="82" viewBox="0 0 82 82" fill="none" xmlns="http://www.w3.org/2000/svg">
<circle cx="42.5017" cy="42.5" r="38.6635" transform="rotate(33.083 42.5017 42.5)" fill="black"/>
<circle cx="38.6818" cy="38.6818" r="38.1818" fill="#94CEE1" stroke="black"/>
<g clip-path="url(#clip0_955_1549)">
<path d="M40.6055 61.7583V57.4044C40.5994 55.8928 39.9954 54.445 38.9252 53.3774C37.8551 52.3098 36.406 51.7092 34.8944 51.7067H32.0879V50.2849C32.402 50.0411 32.7026 49.7805 32.9886 49.5043C34.489 47.9845 35.3338 45.9372 35.3418 43.8016V41.2113C35.6944 41.3192 36.0616 41.3716 36.4303 41.3665C36.9958 41.3706 37.5559 41.2559 38.0743 41.0299C38.5928 40.8039 39.058 40.4716 39.4398 40.0545C39.8217 39.6373 40.1118 39.1447 40.2913 38.6084C40.4708 38.0721 40.5357 37.5041 40.4818 36.9411C40.428 36.3781 40.2565 35.8327 39.9786 35.3402C39.7007 34.8477 39.3225 34.419 38.8684 34.0818C38.4144 33.7447 37.8946 33.5066 37.3427 33.383C36.7909 33.2593 36.2192 33.253 35.6647 33.3642C34.9847 33.4953 34.3477 33.7924 33.8102 34.229C32.8265 32.8571 31.4326 31.8328 29.8295 31.3038C28.2264 30.7749 26.4967 30.7684 24.8897 31.2855C23.2826 31.8026 21.8812 32.8164 20.8874 34.181C19.8935 35.5456 19.3585 37.1905 19.3594 38.8786V43.8016C19.3493 45.9315 20.1771 47.9799 21.6641 49.5048C22.019 49.8633 22.4002 50.1947 22.8047 50.4962V51.7067H20.0829C18.5724 51.7095 17.1246 52.3107 16.0564 53.3785C14.9881 54.4463 14.3863 55.8939 14.3828 57.4044V61.7583C14.385 61.962 14.4678 62.1567 14.613 62.2996C14.7583 62.4426 14.9542 62.5222 15.158 62.5211H39.8196C40.0244 62.5225 40.2217 62.4433 40.3687 62.3006C40.5157 62.1579 40.6008 61.9631 40.6055 61.7583ZM38.4904 38.7554C38.1525 39.2485 37.6479 39.603 37.0694 39.7537C36.4909 39.9045 35.8774 39.8412 35.3418 39.5757V38.9776L38.7871 36.4025C38.9342 36.789 38.9841 37.2057 38.9323 37.6159C38.8806 38.0262 38.7288 38.4175 38.4904 38.7554ZM35.9578 34.8669C36.5958 34.7335 37.2606 34.857 37.8081 35.2105L35.1322 37.2019C35.012 36.6439 34.8317 36.1005 34.5945 35.5813C34.9702 35.2161 35.4439 34.9679 35.9579 34.8669H35.9578ZM33.7771 38.7772C33.0594 38.1204 32.5262 37.287 32.2309 36.36C32.1939 36.2121 32.1136 36.0786 32.0003 35.9767C31.887 35.8747 31.7458 35.8089 31.5949 35.7876C31.4439 35.7664 31.2901 35.7906 31.153 35.8573C31.016 35.9241 30.902 36.0302 30.8256 36.1621C29.5623 38.3441 27.4377 39.5742 24.5092 39.817C23.2996 39.9072 22.0836 39.8419 20.8906 39.6229V38.8786C20.8908 38.3917 20.9463 37.9064 21.0559 37.4321C21.6208 37.5274 22.1927 37.5751 22.7656 37.5748C23.2403 37.5751 23.7144 37.5417 24.1843 37.4749C26.0576 37.207 28.6403 36.2618 30.6141 33.3333C31.5627 33.8946 32.3516 34.6898 32.9054 35.6428C33.4591 36.5959 33.7593 37.675 33.7771 38.7772ZM27.3348 32.4339C27.9618 32.4337 28.5855 32.5254 29.1859 32.7061C27.8758 34.5418 26.1441 35.6325 24.0263 35.9509C23.2186 36.0691 22.3982 36.0733 21.5893 35.9635C22.1281 34.9024 22.95 34.011 23.964 33.388C24.9781 32.765 26.1447 32.4347 27.3348 32.4336V32.4339ZM20.8906 43.8016V41.1793C21.7393 41.3177 22.5975 41.3885 23.4574 41.3912C23.8198 41.3912 24.1986 41.3781 24.5882 41.3472C27.4633 41.1189 29.7802 40.0101 31.3426 38.1174C31.9251 39.1735 32.7765 40.0567 33.8105 40.6775V43.8016C33.805 45.5371 33.1192 47.2012 31.9003 48.4367C31.3125 49.0531 30.6056 49.5438 29.8226 49.8791C29.0396 50.2144 28.1966 50.3873 27.3448 50.3873C26.4931 50.3873 25.6501 50.2144 24.8671 49.8791C24.0841 49.5438 23.3772 49.0531 22.7894 48.4367C21.5736 47.2001 20.8918 45.5357 20.8906 43.8016ZM27.3021 51.9187C28.4259 51.9246 29.5371 51.6825 30.5566 51.2096V52.054L27.3633 54.0322L24.3359 52.0648V51.3354C25.2781 51.7181 26.2851 51.9159 27.3021 51.9183V51.9187ZM15.9141 57.4044C15.9171 56.2999 16.3574 55.2415 17.1386 54.4608C17.9198 53.68 18.9784 53.2403 20.0829 53.2379H23.3903L26.6328 55.3548V60.9899H15.9141V57.4044ZM39.0742 60.9899H28.1641V55.3656L31.5587 53.2379H34.8944C36 53.2399 37.06 53.6791 37.843 54.4596C38.6261 55.2402 39.0687 56.2987 39.0742 57.4044V60.9899Z" fill="black"/>
<path d="M25.4886 42.9697C25.2855 42.9697 25.0908 43.0504 24.9472 43.194C24.8036 43.3376 24.723 43.5323 24.723 43.7354C24.7238 43.797 24.7125 43.8582 24.6895 43.9153C24.6665 43.9725 24.6324 44.0246 24.5892 44.0685C24.5459 44.1124 24.4943 44.1472 24.4375 44.171C24.3806 44.1948 24.3196 44.207 24.258 44.207C24.1964 44.207 24.1353 44.1948 24.0785 44.171C24.0216 44.1472 23.9701 44.1124 23.9268 44.0685C23.8836 44.0246 23.8494 43.9725 23.8265 43.9153C23.8035 43.8582 23.7921 43.797 23.793 43.7354C23.793 43.5323 23.7124 43.3376 23.5688 43.194C23.4252 43.0504 23.2304 42.9697 23.0274 42.9697C22.8243 42.9697 22.6296 43.0504 22.486 43.194C22.3424 43.3376 22.2618 43.5323 22.2618 43.7354C22.2599 43.9987 22.3102 44.2597 22.4097 44.5035C22.5092 44.7473 22.656 44.969 22.8415 45.1559C23.0271 45.3427 23.2478 45.491 23.4909 45.5922C23.734 45.6934 23.9947 45.7454 24.258 45.7454C24.5213 45.7454 24.782 45.6934 25.0251 45.5922C25.2682 45.491 25.4889 45.3427 25.6744 45.1559C25.86 44.969 26.0067 44.7473 26.1062 44.5035C26.2057 44.2597 26.256 43.9987 26.2542 43.7354C26.2542 43.5323 26.1736 43.3376 26.03 43.194C25.8864 43.0504 25.6916 42.9697 25.4886 42.9697ZM30.411 45.7316C30.9403 45.731 31.4477 45.5205 31.822 45.1463C32.1962 44.772 32.4067 44.2646 32.4074 43.7354C32.4074 43.5323 32.3267 43.3376 32.1831 43.194C32.0395 43.0504 31.8448 42.9697 31.6417 42.9697C31.4387 42.9697 31.2439 43.0504 31.1003 43.194C30.9568 43.3376 30.8761 43.5323 30.8761 43.7354C30.8761 43.8587 30.8271 43.977 30.7399 44.0642C30.6527 44.1514 30.5344 44.2004 30.4111 44.2004C30.2877 44.2004 30.1695 44.1514 30.0823 44.0642C29.9951 43.977 29.9461 43.8587 29.9461 43.7354C29.9461 43.5323 29.8654 43.3376 29.7218 43.194C29.5782 43.0504 29.3835 42.9697 29.1804 42.9697C28.9774 42.9697 28.7826 43.0504 28.6391 43.194C28.4955 43.3376 28.4148 43.5323 28.4148 43.7354C28.4154 44.2646 28.6259 44.772 29.0001 45.1463C29.3743 45.5205 29.8817 45.731 30.411 45.7316Z" fill="black"/>
<path d="M58.9731 14.6162L42.2223 14.4756H42.1756C40.17 14.4755 38.4995 16.0406 38.4995 17.9788V17.9802L38.4532 27.4939C38.4507 27.9649 38.5445 28.4314 38.7288 28.8648C38.9131 29.2982 39.1841 29.6893 39.525 30.0142C40.2134 30.6799 41.1323 31.054 42.0899 31.0583L43.0415 31.0764L42.702 36.6281C42.6931 36.7757 42.727 36.9227 42.7998 37.0514C42.8725 37.1801 42.981 37.285 43.112 37.3535C43.2431 37.422 43.3911 37.451 43.5383 37.4372C43.6855 37.4234 43.8256 37.3673 43.9417 37.2757L51.6883 31.1569L58.8523 31.1988H58.8851C59.8332 31.2039 60.7472 30.8457 61.4395 30.198C61.7851 29.8783 62.0616 29.4913 62.2519 29.0607C62.4422 28.6301 62.5424 28.1651 62.5462 27.6944L62.6072 18.1808C62.6111 17.7103 62.5187 17.244 62.3356 16.8105C62.1525 16.3771 61.8826 15.9857 61.5425 15.6605C60.8532 14.9934 59.9323 14.6191 58.9731 14.6162ZM61.0151 27.6831C61.012 27.9465 60.9551 28.2064 60.8478 28.447C60.7406 28.6876 60.5852 28.9036 60.3913 29.0819C59.9752 29.4631 59.4278 29.6685 58.8636 29.6553L51.429 29.5994H51.4245C51.2509 29.6039 51.0839 29.6663 50.9499 29.7767L44.3364 35.0066L44.621 30.3698C44.6271 30.2669 44.6124 30.1638 44.5777 30.0667C44.5429 29.9696 44.4889 29.8805 44.4189 29.8049C44.3489 29.7292 44.2643 29.6685 44.1702 29.6264C44.0761 29.5843 43.9744 29.5616 43.8713 29.5598L42.1147 29.5267C41.5496 29.5266 41.0065 29.3075 40.5994 28.9156C40.4084 28.7339 40.2565 28.515 40.1533 28.2724C40.05 28.0298 39.9976 27.7686 39.9991 27.505L40.0601 17.9921C40.0696 16.8944 41.0234 16.0095 42.1905 16.0095H42.2096L58.9601 16.1487C59.5252 16.1488 60.0684 16.3678 60.4757 16.7596C60.6667 16.9412 60.8185 17.16 60.9217 17.4026C61.025 17.6451 61.0774 17.9062 61.0759 18.1697L61.0151 27.6831Z" fill="black"/>
<path d="M50.6101 16.8695C50.1289 16.8625 49.6511 16.9511 49.2045 17.1302C48.7578 17.3093 48.3511 17.5753 48.008 17.9127C47.6649 18.2502 47.3923 18.6524 47.2058 19.096C47.0194 19.5397 46.9229 20.0159 46.9219 20.4972V21.1774H48.2617V20.4972C48.2614 20.0748 48.3778 19.6605 48.598 19.3001C48.8183 18.9396 49.1339 18.6471 49.51 18.4548C49.886 18.2624 50.3079 18.1777 50.7291 18.21C51.1503 18.2424 51.5543 18.3904 51.8966 18.6379C52.2389 18.8854 52.5062 19.2227 52.6689 19.6125C52.8316 20.0023 52.8834 20.4295 52.8186 20.8469C52.7538 21.2643 52.5749 21.6557 52.3017 21.9778C52.0285 22.2999 51.6716 22.5403 51.2703 22.6724C50.8663 22.8057 50.5149 23.0637 50.2667 23.4093C50.0184 23.7548 49.8861 24.1702 49.8887 24.5956V26.4411H51.2285V24.5956C51.2266 24.4527 51.27 24.3128 51.3525 24.196C51.435 24.0793 51.5525 23.9917 51.6879 23.9458C52.5039 23.6785 53.1987 23.1304 53.6487 22.399C54.0987 21.6677 54.2747 20.8004 54.1454 19.9515C54.0162 19.1026 53.5901 18.327 52.9428 17.7627C52.2956 17.1984 51.4692 16.8819 50.6106 16.8695H50.6101Z" fill="black"/>
<path d="M51.2305 26.9199H49.8906V28.7383H51.2305V26.9199Z" fill="black"/>
</g>
<defs>
<clipPath id="clip0_955_1549">
<rect width="49" height="49" fill="white" transform="translate(14 14)"/>
</clipPath>
</defs>
</svg>
