<svg width="300" height="300" viewBox="0 0 300 300" fill="none" xmlns="http://www.w3.org/2000/svg">
<rect width="300" height="300" fill="#EEEEEE"/>
<g opacity="0.3">
<path d="M227.754 127.819L227.74 127.852C227.625 128.097 227.5 128.244 227.415 128.345L227.413 128.348C226.992 128.845 226.223 129.258 225.424 129.094L225.401 129.089L188.706 120.448L188.546 120.41L188.493 120.371C187.415 120.085 186.182 120.241 184.911 120.87C183.604 121.516 182.52 122.597 181.878 123.873L181.874 123.881C180.47 126.587 181.5 129.042 183.649 129.703L183.655 129.705C184.168 129.867 184.524 130.234 184.669 130.681C184.811 131.115 184.743 131.586 184.522 132.006C184.116 132.777 183.132 133.419 182.11 133.101C177.702 131.811 176.326 127.01 178.543 122.725C180.749 118.463 185.811 115.813 190.046 117.015L226.705 125.648C227.262 125.758 227.633 126.124 227.795 126.547C227.952 126.957 227.919 127.414 227.754 127.819Z" fill="#6A6966" stroke="#6A6966" stroke-width="0.5"/>
<path d="M129.557 198.695C114.281 201.501 97.9318 185.344 93.0393 162.607C88.1467 139.871 96.5638 119.165 111.839 116.359C127.115 113.554 143.464 129.711 148.357 152.447C153.249 175.184 144.832 195.89 129.557 198.695Z" fill="black" stroke="black" stroke-width="2"/>
<path d="M187.94 187.975C172.664 190.78 156.315 174.623 151.422 151.886C146.53 129.15 154.947 108.444 170.222 105.638C185.498 102.833 201.847 118.99 206.74 141.727C211.632 164.463 203.215 185.169 187.94 187.975Z" fill="black" stroke="black" stroke-width="2"/>
<path d="M190.412 184.57C175.137 187.376 158.787 171.219 153.895 148.482C149.002 125.746 157.419 105.04 172.695 102.234C187.97 99.4286 204.32 115.586 209.212 138.322C214.105 161.059 205.688 181.765 190.412 184.57Z" fill="white" stroke="black" stroke-width="2"/>
<path d="M135.09 194.73C119.814 197.536 103.465 181.379 98.5725 158.642C93.6799 135.906 102.097 115.2 117.372 112.394C132.648 109.589 148.997 125.746 153.89 148.483C158.783 171.219 150.365 191.925 135.09 194.73Z" fill="white" stroke="black" stroke-width="2"/>
<path d="M189.227 149.367L195.373 148.238L196.595 153.917L190.449 155.045L189.227 149.367Z" fill="black"/>
<path d="M188.002 143.691L194.148 142.562L195.37 148.241L189.224 149.37L188.002 143.691Z" fill="black"/>
<path d="M194.158 142.56L200.305 141.432L201.527 147.11L195.38 148.239L194.158 142.56Z" fill="black"/>
<path d="M181.858 144.818L188.004 143.689L189.226 149.368L183.079 150.497L181.858 144.818Z" fill="black"/>
<path d="M186.789 138.012L192.936 136.883L194.157 142.561L188.011 143.69L186.789 138.012Z" fill="black"/>
<path d="M185.567 132.332L191.713 131.203L192.935 136.881L186.788 138.01L185.567 132.332Z" fill="black"/>
<path d="M180.633 139.141L186.779 138.012L188.001 143.69L181.855 144.819L180.633 139.141Z" fill="black"/>
<path d="M192.934 136.885L199.08 135.756L200.302 141.434L194.156 142.563L192.934 136.885Z" fill="black"/>
<path d="M133.902 159.527L140.049 158.398L141.271 164.077L135.124 165.206L133.902 159.527Z" fill="black"/>
<path d="M132.68 153.852L138.826 152.723L140.048 158.401L133.902 159.53L132.68 153.852Z" fill="black"/>
<path d="M138.836 152.721L144.982 151.592L146.204 157.27L140.058 158.399L138.836 152.721Z" fill="black"/>
<path d="M126.535 154.978L132.682 153.85L133.904 159.528L127.757 160.657L126.535 154.978Z" fill="black"/>
<path d="M131.467 148.172L137.613 147.043L138.835 152.721L132.689 153.85L131.467 148.172Z" fill="black"/>
<path d="M130.242 142.492L136.389 141.363L137.611 147.042L131.464 148.17L130.242 142.492Z" fill="black"/>
<path d="M125.311 149.301L131.457 148.172L132.679 153.85L126.533 154.979L125.311 149.301Z" fill="black"/>
<path d="M137.611 147.045L143.758 145.916L144.98 151.594L138.833 152.723L137.611 147.045Z" fill="black"/>
<path d="M207.035 175.625C226.699 170.759 238.413 152.018 233.145 133.851C227.845 115.572 207.559 104.75 187.895 109.616C168.231 114.483 156.517 133.224 161.785 151.39C166.963 169.7 187.249 180.522 207.035 175.625ZM189.204 114.13C206.181 109.928 223.679 119.263 228.26 135.06C232.808 150.744 222.703 166.91 205.726 171.112C188.749 175.313 171.251 165.978 166.703 150.294C162 134.527 172.227 118.331 189.204 114.13Z" fill="#6A6966"/>
<path d="M174.235 149.637C174.967 149.456 175.325 148.884 175.129 148.207C171.824 136.81 179.189 125.192 191.403 122.169C192.136 121.988 192.493 121.416 192.297 120.739C192.101 120.062 191.481 119.731 190.748 119.912C177.069 123.298 169.054 136.286 172.686 148.811C172.85 149.375 173.624 149.788 174.235 149.637Z" fill="#6A6966"/>
<path d="M129.608 194.792C149.272 189.925 160.985 171.184 155.718 153.017C150.54 134.708 130.254 123.886 110.468 128.783C90.6816 133.679 79.0899 152.39 84.3575 170.557C89.6577 188.836 109.944 199.658 129.608 194.792ZM111.777 133.296C128.754 129.095 146.252 138.429 150.8 154.114C155.347 169.798 145.243 185.964 128.266 190.166C111.289 194.367 93.7905 185.032 89.2428 169.348C84.6951 153.664 94.7995 137.498 111.777 133.296Z" fill="#6A6966"/>
<path d="M96.9297 168.774C97.6626 168.593 98.0201 168.02 97.824 167.343C94.5196 155.947 101.884 144.329 114.098 141.306C114.831 141.125 115.189 140.552 114.992 139.875C114.796 139.198 114.177 138.868 113.444 139.049C99.7645 142.435 91.7497 155.423 95.3812 167.948C95.5448 168.512 96.1969 168.955 96.9297 168.774Z" fill="#6A6966"/>
<path d="M154.649 158.359L165.642 155.639C166.374 155.458 166.92 155.081 167.277 154.508C167.635 153.936 167.683 153.199 167.397 152.665C167.013 151.792 166.817 151.115 166.588 150.326C165.083 145.135 165.166 139.552 166.821 134.426C167.113 133.628 166.851 132.725 166.167 132.169C165.482 131.613 164.618 131.343 163.763 131.554L143.244 136.632C142.389 136.844 141.665 137.507 141.495 138.274C141.203 139.073 141.587 139.945 142.149 140.531C146.357 144.206 149.449 149.004 150.954 154.194C151.151 154.871 151.38 155.661 151.519 156.594C151.716 157.271 152.002 157.805 152.621 158.136C153.208 158.353 153.916 158.541 154.649 158.359ZM161.768 151.76L155.783 153.241C155.751 153.129 155.751 153.129 155.718 153.016C154.344 148.276 151.87 143.81 148.583 140.148L161.041 137.065C160.208 141.867 160.451 146.765 161.825 151.504C161.702 151.534 161.735 151.647 161.768 151.76Z" fill="#6A6966"/>
<path d="M84.6522 162.489L84.6389 162.523L84.6237 162.557C84.5092 162.808 84.3722 162.969 84.3149 163.037L84.3123 163.04C83.9143 163.51 83.1139 163.979 82.1636 163.769L82.1411 163.764L82.1188 163.759L65.0527 159.5L64.7751 159.431C64.6267 159.422 64.4269 159.453 64.1683 159.576C63.8234 159.741 63.5216 160.033 63.3452 160.392L63.3372 160.408C63.146 160.784 63.1592 161.088 63.2226 161.268C63.2808 161.433 63.3842 161.524 63.5302 161.571L63.5431 161.575C64.8945 162.02 65.0552 163.349 64.6364 164.161C64.2718 164.867 63.2615 165.616 62.047 165.228C59.1342 164.333 58.4081 161.289 59.6071 158.921C60.7771 156.61 63.6402 155.011 66.3172 155.789L83.3231 160.032C84.0039 160.185 84.4578 160.643 84.6561 161.133C84.847 161.604 84.8088 162.09 84.6522 162.489Z" fill="#6A6966" stroke="#6A6966"/>
<path d="M129.557 198.695C114.281 201.501 97.9318 185.344 93.0393 162.607C88.1467 139.871 96.5638 119.165 111.839 116.359C127.115 113.554 143.464 129.711 148.357 152.447C153.249 175.184 144.832 195.89 129.557 198.695Z" fill="black" stroke="black" stroke-width="2"/>
<path d="M187.94 187.975C172.664 190.78 156.315 174.623 151.422 151.886C146.53 129.15 154.947 108.444 170.222 105.638C185.498 102.833 201.847 118.99 206.74 141.727C211.632 164.463 203.215 185.169 187.94 187.975Z" fill="black" stroke="black" stroke-width="2"/>
<path d="M190.412 184.57C175.137 187.376 158.787 171.219 153.895 148.482C149.002 125.746 157.419 105.04 172.695 102.234C187.97 99.4286 204.32 115.586 209.212 138.322C214.105 161.059 205.688 181.765 190.412 184.57Z" fill="white" stroke="black" stroke-width="2"/>
<path d="M135.09 194.73C119.814 197.536 103.465 181.379 98.5725 158.642C93.6799 135.906 102.097 115.2 117.372 112.394C132.648 109.589 148.997 125.746 153.89 148.483C158.783 171.219 150.365 191.925 135.09 194.73Z" fill="white" stroke="black" stroke-width="2"/>
<path d="M189.227 149.367L195.373 148.238L196.595 153.917L190.449 155.045L189.227 149.367Z" fill="black"/>
<path d="M188.002 143.691L194.148 142.562L195.37 148.241L189.224 149.37L188.002 143.691Z" fill="black"/>
<path d="M194.158 142.56L200.305 141.432L201.527 147.11L195.38 148.239L194.158 142.56Z" fill="black"/>
<path d="M181.858 144.818L188.004 143.689L189.226 149.368L183.079 150.497L181.858 144.818Z" fill="black"/>
<path d="M186.789 138.012L192.936 136.883L194.157 142.561L188.011 143.69L186.789 138.012Z" fill="black"/>
<path d="M185.567 132.332L191.713 131.203L192.935 136.881L186.788 138.01L185.567 132.332Z" fill="black"/>
<path d="M180.633 139.141L186.779 138.012L188.001 143.69L181.855 144.819L180.633 139.141Z" fill="black"/>
<path d="M192.934 136.885L199.08 135.756L200.302 141.434L194.156 142.563L192.934 136.885Z" fill="black"/>
<path d="M133.902 159.527L140.049 158.398L141.271 164.077L135.124 165.206L133.902 159.527Z" fill="black"/>
<path d="M132.68 153.852L138.826 152.723L140.048 158.401L133.902 159.53L132.68 153.852Z" fill="black"/>
<path d="M138.836 152.721L144.982 151.592L146.204 157.27L140.058 158.399L138.836 152.721Z" fill="black"/>
<path d="M126.535 154.978L132.682 153.85L133.904 159.528L127.757 160.657L126.535 154.978Z" fill="black"/>
<path d="M131.467 148.172L137.613 147.043L138.835 152.721L132.689 153.85L131.467 148.172Z" fill="black"/>
<path d="M130.242 142.492L136.389 141.363L137.611 147.042L131.464 148.17L130.242 142.492Z" fill="black"/>
<path d="M125.311 149.301L131.457 148.172L132.679 153.85L126.533 154.979L125.311 149.301Z" fill="black"/>
<path d="M137.611 147.045L143.758 145.916L144.98 151.594L138.833 152.723L137.611 147.045Z" fill="black"/>
<path d="M207.035 175.625C226.699 170.759 238.413 152.018 233.145 133.851C227.845 115.572 207.559 104.75 187.895 109.616C168.231 114.483 156.517 133.224 161.785 151.39C166.963 169.7 187.249 180.522 207.035 175.625ZM189.204 114.13C206.181 109.928 223.679 119.263 228.26 135.06C232.808 150.744 222.703 166.91 205.726 171.112C188.749 175.313 171.251 165.978 166.703 150.294C162 134.527 172.227 118.331 189.204 114.13Z" fill="#6A6966"/>
<path d="M174.235 149.637C174.967 149.456 175.325 148.884 175.129 148.207C171.824 136.81 179.189 125.192 191.403 122.169C192.136 121.988 192.493 121.416 192.297 120.739C192.101 120.062 191.481 119.731 190.748 119.912C177.069 123.298 169.054 136.286 172.686 148.811C172.85 149.375 173.624 149.788 174.235 149.637Z" fill="#6A6966"/>
<path d="M129.608 194.792C149.272 189.925 160.985 171.184 155.718 153.017C150.54 134.708 130.254 123.886 110.468 128.783C90.6816 133.679 79.0899 152.39 84.3575 170.557C89.6577 188.836 109.944 199.658 129.608 194.792ZM111.777 133.296C128.754 129.095 146.252 138.429 150.8 154.114C155.347 169.798 145.243 185.964 128.266 190.166C111.289 194.367 93.7905 185.032 89.2428 169.348C84.6951 153.664 94.7995 137.498 111.777 133.296Z" fill="#6A6966"/>
<path d="M96.9297 168.774C97.6626 168.593 98.0201 168.02 97.824 167.343C94.5196 155.947 101.884 144.329 114.098 141.306C114.831 141.125 115.189 140.552 114.992 139.875C114.796 139.198 114.177 138.868 113.444 139.049C99.7645 142.435 91.7497 155.423 95.3812 167.948C95.5448 168.512 96.1969 168.955 96.9297 168.774Z" fill="#6A6966"/>
<path d="M154.649 158.359L165.642 155.639C166.374 155.458 166.92 155.081 167.277 154.508C167.635 153.936 167.683 153.199 167.397 152.665C167.013 151.792 166.817 151.115 166.588 150.326C165.083 145.135 165.166 139.552 166.821 134.426C167.113 133.628 166.851 132.725 166.167 132.169C165.482 131.613 164.618 131.343 163.763 131.554L143.244 136.632C142.389 136.844 141.665 137.507 141.495 138.274C141.203 139.073 141.587 139.945 142.149 140.531C146.357 144.206 149.449 149.004 150.954 154.194C151.151 154.871 151.38 155.661 151.519 156.594C151.716 157.271 152.002 157.805 152.621 158.136C153.208 158.353 153.916 158.541 154.649 158.359ZM161.768 151.76L155.783 153.241C155.751 153.129 155.751 153.129 155.718 153.016C154.344 148.276 151.87 143.81 148.583 140.148L161.041 137.065C160.208 141.867 160.451 146.765 161.825 151.504C161.702 151.534 161.735 151.647 161.768 151.76Z" fill="#6A6966"/>
</g>
</svg>
