<svg width="32" height="32" viewBox="0 0 32 32" fill="none" xmlns="http://www.w3.org/2000/svg">
<path fill-rule="evenodd" clip-rule="evenodd" d="M11.4074 15.9755H11.3534H11.2988C6.68544 16.0055 2.90411 19.8255 2.66677 24.6409C2.65811 24.8229 2.7241 25.0009 2.8501 25.1335C2.97544 25.2655 3.1501 25.3402 3.33277 25.3402H19.3734H19.3821C19.5614 25.3382 19.7328 25.2635 19.8568 25.1335C19.9821 25.0009 20.0481 24.8229 20.0394 24.6409C19.8021 19.8255 16.0208 16.0055 11.4074 15.9755ZM16.1954 15.9449C18.6761 17.3775 20.5228 19.8762 21.1508 22.8622H28.6661C28.8488 22.8622 29.0234 22.7875 29.1488 22.6555C29.2748 22.5229 29.3408 22.3448 29.3321 22.1628C29.1101 17.6602 25.5601 14.0922 21.2394 14.0922C19.3348 14.0922 17.5814 14.7842 16.1954 15.9449ZM11.3534 7.27755C9.13877 7.27755 7.34144 9.07551 7.34144 11.2895C7.34144 13.5042 9.13877 15.3015 11.3534 15.3015C13.5674 15.3015 15.3654 13.5042 15.3654 11.2895C15.3654 9.07551 13.5674 7.27755 11.3534 7.27755ZM21.2394 6.6582C19.5041 6.6582 18.0948 8.06752 18.0948 9.80286C18.0948 11.5389 19.5041 12.9475 21.2394 12.9475C22.9754 12.9475 24.3841 11.5389 24.3841 9.80286C24.3841 8.06752 22.9754 6.6582 21.2394 6.6582Z" fill="white"/>
</svg>
