<svg width="43" height="43" viewBox="0 0 43 43" fill="none" xmlns="http://www.w3.org/2000/svg">
<path d="M13.0867 36.8734C7.01938 36.8089 3.69118 32.2638 3.74278 25.7235C3.76858 18.8091 6.58508 12.0323 11.4699 7.13461C14.8153 4.03001 19.4378 8.63961 16.3418 11.9936C12.7255 15.6185 10.6443 20.628 10.6228 25.7493C10.683 30.1654 12.1708 30.7029 15.9978 29.3613C14.9529 26.3599 15.0991 22.6404 16.4622 18.3877C17.2018 16.0829 18.2639 13.4728 20.5558 11.5937C23.2218 9.40931 27.7239 8.78151 30.6393 11.512C35.4381 15.8765 31.6627 24.8549 27.8142 29.1979C29.775 28.5314 31.4778 26.8974 32.8151 24.5238C33.7396 22.864 35.8337 22.2663 37.4935 23.1908C39.1533 24.1153 39.751 26.2094 38.8265 27.8692C37.3645 30.4965 34.7157 33.9666 30.42 35.5705C27.0531 36.8261 23.3852 36.5208 20.5343 34.8868C18.3026 36.0048 15.4646 36.8992 13.0824 36.8734H13.0867ZM25.8663 16.5645C23.5615 16.5946 22.1812 22.7436 22.207 25.1301C23.8625 23.3198 25.1181 21.1397 25.7803 18.8005C26.12 17.5922 26.0512 16.8139 25.9523 16.5688H25.8663V16.5645Z" fill="#815BD2" fill-opacity="0.35"/>
</svg>
