<svg width="44" height="44" viewBox="0 0 44 44" fill="none" xmlns="http://www.w3.org/2000/svg">
<path d="M43.6616 22.0007C43.6616 19.2407 41.4216 17.0007 38.6616 17.0007H34.0766L37.3216 13.7557C39.2766 11.8007 39.2766 8.6357 37.3216 6.6857C35.3666 4.7357 32.2016 4.7307 30.2516 6.6857L27.0066 9.9307V5.3457C27.0066 2.5857 24.7666 0.345703 22.0066 0.345703C19.2466 0.345703 17.0066 2.5857 17.0066 5.3457V9.9307L13.7616 6.6857C11.8066 4.7307 8.64156 4.7307 6.69156 6.6857C4.74156 8.6407 4.73656 11.8057 6.69156 13.7557L9.93656 17.0007H5.35156C2.59156 17.0007 0.351562 19.2407 0.351562 22.0007C0.351562 24.7607 2.59156 27.0007 5.35156 27.0007H9.93656L6.69156 30.2457C4.73656 32.2007 4.73656 35.3657 6.69156 37.3157C8.64656 39.2707 11.8116 39.2707 13.7616 37.3157L17.0066 34.0707V38.6557C17.0066 41.4157 19.2466 43.6557 22.0066 43.6557C24.7666 43.6557 27.0066 41.4157 27.0066 38.6557V34.0707L30.2516 37.3157C32.2066 39.2707 35.3716 39.2707 37.3216 37.3157C39.2766 35.3607 39.2766 32.1957 37.3216 30.2457L34.0766 27.0007H38.6616C41.4216 27.0007 43.6616 24.7607 43.6616 22.0007Z" fill="#815BD2" fill-opacity="0.35"/>
</svg>
