<svg width="124" height="189" viewBox="0 0 124 189" fill="none" xmlns="http://www.w3.org/2000/svg">
<path d="M138.138 170.156C130.484 170.156 123.907 164.354 123.113 156.586L120.24 128.652L96.8797 137.421C92.1358 139.198 86.806 138.48 82.6858 135.512C78.5845 132.526 76.2409 127.688 76.4488 122.623L77.0536 108.637L62.5384 118.578C52.4836 125.703 38.0062 117.557 38.8945 105.254L43.2037 29.0299C45.1126 9.07148 73.7272 10.6591 73.387 30.7309L70.8166 76.2421L84.8971 66.6031C89.6221 63.3712 95.7646 63.0877 100.773 65.8471C105.782 68.6254 108.787 73.993 108.541 79.7197L107.634 101.077L127.951 93.4411C136.853 89.8312 147.569 96.4651 148.307 106.047L153.183 153.486C154.147 162.332 147.021 170.213 138.119 170.156H138.138Z" fill="#815BD2" fill-opacity="0.35"/>
</svg>
