<svg width="64" height="64" viewBox="0 0 64 64" fill="none" xmlns="http://www.w3.org/2000/svg">
<path d="M20.735 16.765C23.3238 16.7679 25.8057 17.7975 27.6363 19.628C29.467 21.4584 30.4968 23.9402 30.5 26.529C30.5 26.9268 30.658 27.3084 30.9393 27.5897C31.2206 27.871 31.6022 28.029 32 28.029C32.3978 28.029 32.7794 27.871 33.0607 27.5897C33.342 27.3084 33.5 26.9268 33.5 26.529C33.5032 23.9402 34.533 21.4584 36.3637 19.628C38.1943 17.7975 40.6762 16.7679 43.265 16.765C43.6628 16.765 44.0444 16.607 44.3257 16.3257C44.607 16.0444 44.765 15.6628 44.765 15.265C44.765 14.8672 44.607 14.4856 44.3257 14.2043C44.0444 13.923 43.6628 13.765 43.265 13.765C40.6761 13.7621 38.194 12.7323 36.3633 10.9017C34.5327 9.07102 33.5029 6.58895 33.5 4C33.5 3.60218 33.342 3.22064 33.0607 2.93934C32.7794 2.65804 32.3978 2.5 32 2.5C31.6022 2.5 31.2206 2.65804 30.9393 2.93934C30.658 3.22064 30.5 3.60218 30.5 4C30.4971 6.58895 29.4673 9.07102 27.6367 10.9017C25.806 12.7323 23.3239 13.7621 20.735 13.765C20.3372 13.765 19.9556 13.923 19.6743 14.2043C19.393 14.4856 19.235 14.8672 19.235 15.265C19.235 15.6628 19.393 16.0444 19.6743 16.3257C19.9556 16.607 20.3372 16.765 20.735 16.765ZM32 10C33.1972 12.2359 35.0291 14.0678 37.265 15.265C35.0292 16.462 33.1974 18.2934 32 20.529C30.8026 18.2934 28.9708 16.462 26.735 15.265C28.9709 14.0678 30.8028 12.2359 32 10ZM50.235 20.735C50.235 20.3372 50.077 19.9556 49.7957 19.6743C49.5144 19.393 49.1328 19.235 48.735 19.235C48.3372 19.235 47.9556 19.393 47.6743 19.6743C47.393 19.9556 47.235 20.3372 47.235 20.735C47.2321 23.3238 46.2025 25.8057 44.372 27.6363C42.5416 29.467 40.0598 30.4968 37.471 30.5C37.0732 30.5 36.6916 30.658 36.4103 30.9393C36.129 31.2206 35.971 31.6022 35.971 32C35.971 32.3978 36.129 32.7794 36.4103 33.0607C36.6916 33.342 37.0732 33.5 37.471 33.5C40.0598 33.5032 42.5416 34.533 44.372 36.3637C46.2025 38.1943 47.2321 40.6762 47.235 43.265C47.235 43.6628 47.393 44.0444 47.6743 44.3257C47.9556 44.607 48.3372 44.765 48.735 44.765C49.1328 44.765 49.5144 44.607 49.7957 44.3257C50.077 44.0444 50.235 43.6628 50.235 43.265C50.2379 40.6761 51.2677 38.194 53.0983 36.3633C54.929 34.5327 57.4111 33.5029 60 33.5C60.3978 33.5 60.7794 33.342 61.0607 33.0607C61.342 32.7794 61.5 32.3978 61.5 32C61.5 31.6022 61.342 31.2206 61.0607 30.9393C60.7794 30.658 60.3978 30.5 60 30.5C57.4111 30.4971 54.929 29.4673 53.0983 27.6367C51.2677 25.806 50.2379 23.3239 50.235 20.735ZM48.735 37.265C47.538 35.0292 45.7066 33.1974 43.471 32C45.7066 30.8026 47.538 28.9708 48.735 26.735C49.9322 28.9709 51.7641 30.8028 54 32C51.7641 33.1972 49.9322 35.0291 48.735 37.265ZM4 33.5C6.58895 33.5029 9.07102 34.5327 10.9017 36.3633C12.7323 38.194 13.7621 40.6761 13.765 43.265C13.765 43.6628 13.923 44.0444 14.2043 44.3257C14.4856 44.607 14.8672 44.765 15.265 44.765C15.6628 44.765 16.0444 44.607 16.3257 44.3257C16.607 44.0444 16.765 43.6628 16.765 43.265C16.7679 40.6762 17.7975 38.1943 19.628 36.3637C21.4584 34.533 23.9402 33.5032 26.529 33.5C26.9268 33.5 27.3084 33.342 27.5897 33.0607C27.871 32.7794 28.029 32.3978 28.029 32C28.029 31.6022 27.871 31.2206 27.5897 30.9393C27.3084 30.658 26.9268 30.5 26.529 30.5C23.9402 30.4968 21.4584 29.467 19.628 27.6363C17.7975 25.8057 16.7679 23.3238 16.765 20.735C16.765 20.3372 16.607 19.9556 16.3257 19.6743C16.0444 19.393 15.6628 19.235 15.265 19.235C14.8672 19.235 14.4856 19.393 14.2043 19.6743C13.923 19.9556 13.765 20.3372 13.765 20.735C13.7621 23.3239 12.7323 25.806 10.9017 27.6367C9.07102 29.4673 6.58895 30.4971 4 30.5C3.60218 30.5 3.22064 30.658 2.93934 30.9393C2.65804 31.2206 2.5 31.6022 2.5 32C2.5 32.3978 2.65804 32.7794 2.93934 33.0607C3.22064 33.342 3.60218 33.5 4 33.5ZM15.265 26.735C16.462 28.9708 18.2934 30.8026 20.529 32C18.2934 33.1974 16.462 35.0292 15.265 37.265C14.0678 35.0291 12.2359 33.1972 10 32C12.2359 30.8028 14.0678 28.9709 15.265 26.735ZM20.735 47.235C20.3372 47.235 19.9556 47.393 19.6743 47.6743C19.393 47.9556 19.235 48.3372 19.235 48.735C19.235 49.1328 19.393 49.5144 19.6743 49.7957C19.9556 50.077 20.3372 50.235 20.735 50.235C23.3239 50.2379 25.806 51.2677 27.6367 53.0983C29.4673 54.929 30.4971 57.4111 30.5 60C30.5 60.3978 30.658 60.7794 30.9393 61.0607C31.2206 61.342 31.6022 61.5 32 61.5C32.3978 61.5 32.7794 61.342 33.0607 61.0607C33.342 60.7794 33.5 60.3978 33.5 60C33.5029 57.4111 34.5327 54.929 36.3633 53.0983C38.194 51.2677 40.6761 50.2379 43.265 50.235C43.6628 50.235 44.0444 50.077 44.3257 49.7957C44.607 49.5144 44.765 49.1328 44.765 48.735C44.765 48.3372 44.607 47.9556 44.3257 47.6743C44.0444 47.393 43.6628 47.235 43.265 47.235C40.6762 47.2321 38.1943 46.2025 36.3637 44.372C34.533 42.5416 33.5032 40.0598 33.5 37.471C33.5 37.0732 33.342 36.6916 33.0607 36.4103C32.7794 36.129 32.3978 35.971 32 35.971C31.6022 35.971 31.2206 36.129 30.9393 36.4103C30.658 36.6916 30.5 37.0732 30.5 37.471C30.4968 40.0598 29.467 42.5416 27.6363 44.372C25.8057 46.2025 23.3238 47.2321 20.735 47.235ZM32 43.471C33.1974 45.7066 35.0292 47.538 37.265 48.735C35.0291 49.9322 33.1972 51.7641 32 54C30.8028 51.7641 28.9709 49.9322 26.735 48.735C28.9708 47.538 30.8026 45.7066 32 43.471Z" fill="#815BD2" fill-opacity="0.35"/>
</svg>
