<svg width="100" height="100" viewBox="0 0 100 100" fill="none" xmlns="http://www.w3.org/2000/svg">
<path d="M78.8786 93.95C76.8286 93.95 74.7886 93.17 73.2186 91.61C67.4886 85.88 67.7686 79.44 67.9286 75.59C68.0686 72.33 67.9286 72.18 67.3186 71.57C66.7086 70.96 66.5586 70.81 63.2986 70.95C59.4486 71.11 53.0086 71.3901 47.2786 65.6601C41.5486 59.9301 41.8286 53.49 41.9986 49.64C42.1386 46.3801 41.9986 46.2401 41.3886 45.6301C40.7786 45.0201 40.6386 44.87 37.3686 45.0201C33.5186 45.18 27.0786 45.4601 21.3486 39.7401C15.6186 34.0101 15.8986 27.57 16.0686 23.72C16.2086 20.46 16.0686 20.32 15.4586 19.71C8.25859 11.95 18.9586 1.18005 26.7686 8.40005C32.4986 14.13 32.2186 20.57 32.0486 24.42C31.9086 27.68 32.0486 27.82 32.6586 28.43C33.2686 29.04 33.4186 29.19 36.6686 29.04C49.7286 27.73 59.2886 37.32 57.9686 50.34C57.8286 53.6 57.9686 53.74 58.5786 54.35C59.1886 54.96 59.3286 55.1 62.5986 54.96C75.6386 53.66 85.2086 63.19 83.9086 76.27C83.7686 79.53 83.9086 79.68 84.5186 80.29C89.5586 85.25 85.8686 94.03 78.8586 93.95H78.8786Z" fill="#815BD2" fill-opacity="0.15"/>
<path d="M78.8786 93.95C76.8286 93.95 74.7886 93.17 73.2186 91.61C67.4886 85.88 67.7686 79.44 67.9286 75.59C68.0686 72.33 67.9286 72.18 67.3186 71.57C66.7086 70.96 66.5586 70.81 63.2986 70.95C59.4486 71.11 53.0086 71.3901 47.2786 65.6601C41.5486 59.9301 41.8286 53.49 41.9986 49.64C42.1386 46.3801 41.9986 46.2401 41.3886 45.6301C40.7786 45.0201 40.6386 44.87 37.3686 45.0201C33.5186 45.18 27.0786 45.4601 21.3486 39.7401C15.6186 34.0101 15.8986 27.57 16.0686 23.72C16.2086 20.46 16.0686 20.32 15.4586 19.71C8.25859 11.95 18.9586 1.18005 26.7686 8.40005C32.4986 14.13 32.2186 20.57 32.0486 24.42C31.9086 27.68 32.0486 27.82 32.6586 28.43C33.2686 29.04 33.4186 29.19 36.6686 29.04C49.7286 27.73 59.2886 37.32 57.9686 50.34C57.8286 53.6 57.9686 53.74 58.5786 54.35C59.1886 54.96 59.3286 55.1 62.5986 54.96C75.6386 53.66 85.2086 63.19 83.9086 76.27C83.7686 79.53 83.9086 79.68 84.5186 80.29C89.5586 85.25 85.8686 94.03 78.8586 93.95H78.8786Z" fill="#815BD2" fill-opacity="0.15"/>
<path d="M78.8786 93.95C76.8286 93.95 74.7886 93.17 73.2186 91.61C67.4886 85.88 67.7686 79.44 67.9286 75.59C68.0686 72.33 67.9286 72.18 67.3186 71.57C66.7086 70.96 66.5586 70.81 63.2986 70.95C59.4486 71.11 53.0086 71.3901 47.2786 65.6601C41.5486 59.9301 41.8286 53.49 41.9986 49.64C42.1386 46.3801 41.9986 46.2401 41.3886 45.6301C40.7786 45.0201 40.6386 44.87 37.3686 45.0201C33.5186 45.18 27.0786 45.4601 21.3486 39.7401C15.6186 34.0101 15.8986 27.57 16.0686 23.72C16.2086 20.46 16.0686 20.32 15.4586 19.71C8.25859 11.95 18.9586 1.18005 26.7686 8.40005C32.4986 14.13 32.2186 20.57 32.0486 24.42C31.9086 27.68 32.0486 27.82 32.6586 28.43C33.2686 29.04 33.4186 29.19 36.6686 29.04C49.7286 27.73 59.2886 37.32 57.9686 50.34C57.8286 53.6 57.9686 53.74 58.5786 54.35C59.1886 54.96 59.3286 55.1 62.5986 54.96C75.6386 53.66 85.2086 63.19 83.9086 76.27C83.7686 79.53 83.9086 79.68 84.5186 80.29C89.5586 85.25 85.8686 94.03 78.8586 93.95H78.8786Z" fill="#815BD2" fill-opacity="0.15"/>
</svg>
