<svg width="76" height="76" viewBox="0 0 76 76" fill="none" xmlns="http://www.w3.org/2000/svg">
<path d="M31.4213 75.1108C24.4613 75.1108 17.9913 73.6408 12.9513 69.7808C4.9413 62.8408 5.0213 51.9708 12.8413 43.2808C25.0713 30.3408 44.8313 27.4208 58.4613 17.7808C58.6113 17.5808 58.7313 17.3908 58.8313 17.2308C57.6913 16.8908 55.6813 16.6708 53.1713 17.3908C38.8013 20.3408 24.3013 23.5808 10.0913 27.2408C5.8113 28.3408 1.4513 25.7608 0.351304 21.4808C-0.748696 17.2008 1.8313 12.8408 6.1113 11.7408C20.2913 8.11084 34.7413 4.80084 49.0913 1.91084C58.8313 -0.75916 68.6113 2.00084 72.9813 8.67084C74.9013 11.0808 78.2313 21.0108 69.0713 29.7908C56.2213 40.3308 35.9413 43.1908 24.5013 54.2108C23.1313 55.8908 22.9313 56.9108 22.9613 57.1008C22.9613 57.1308 23.0213 57.2308 23.1313 57.3808C29.3013 61.2808 46.1413 58.3608 64.6013 50.1208C74.4513 46.1808 80.6413 60.0108 71.1313 64.7308C60.9713 69.2708 45.2413 75.0908 31.4113 75.0908L31.4213 75.1108Z" fill="#815BD2" fill-opacity="0.35"/>
</svg>
