<svg width="100" height="100" viewBox="0 0 100 100" fill="none" xmlns="http://www.w3.org/2000/svg">
<path d="M88.0489 50.0006C96.5789 42.6006 94.0189 27.6606 83.2289 16.7606C72.3289 5.9706 57.3989 3.4106 49.9889 11.9406C42.5889 3.4106 27.6489 5.9706 16.7489 16.7606C5.95888 27.6606 3.39888 42.5906 11.9289 50.0006C3.39888 57.4006 5.95888 72.3406 16.7489 83.2406C27.6489 94.0306 42.5789 96.5906 49.9889 88.0606C57.3889 96.5906 72.3289 94.0306 83.2289 83.2406C94.0189 72.3406 96.5789 57.4106 88.0489 50.0006ZM56.3889 56.3906C53.7389 59.0406 51.5989 61.9406 49.9989 64.9206C46.8889 58.9806 41.0089 53.1106 35.0789 50.0006C41.0189 46.8906 46.8889 41.0106 49.9989 35.0806C53.1089 41.0206 58.9889 46.8906 64.9189 50.0006C61.9389 51.6006 59.0389 53.7506 56.3889 56.3906Z" fill="#815BD2" fill-opacity="0.35"/>
</svg>
