<svg width="44" height="44" viewBox="0 0 44 44" fill="none" xmlns="http://www.w3.org/2000/svg">
<path d="M24.6752 39.4502C7.91557 39.6482 -3.70483 20.275 10.032 7.75259C15.4836 2.93459 24.5212 3.67819 29.1104 9.32339C33.0044 13.7278 32.406 21.0318 27.8388 24.741C24.046 27.9574 18.3436 27.4866 15.1316 23.6938C13.8732 22.211 14.058 19.989 15.5408 18.7306C17.0236 17.4722 19.2456 17.657 20.504 19.1398C21.1728 19.9626 22.4972 20.077 23.2892 19.3686C24.9172 18.0442 25.1328 15.4438 23.7424 13.873C21.538 11.1626 17.204 10.8062 14.586 13.1206C10.3796 16.6846 9.86037 23.0074 13.4244 27.2138C18.6736 33.409 27.9884 34.1746 34.1792 28.921C35.662 27.6626 37.884 27.8474 39.1424 29.3302C40.4008 30.813 40.216 33.035 38.7332 34.2934C34.65 37.7562 29.6472 39.4458 24.6752 39.4458V39.4502Z" fill="#815BD2" fill-opacity="0.35"/>
</svg>
