<svg width="32" height="32" viewBox="0 0 32 32" fill="none" xmlns="http://www.w3.org/2000/svg">
<path d="M6.1979 5.19325C5.90282 5.11215 5.59109 5.11405 5.29702 5.19873C5.00295 5.28342 4.73795 5.44761 4.5312 5.67323C4.18577 6.04295 3.99625 6.53164 4.00208 7.03758V21.9132C4.00208 22.4423 4.28176 22.9563 4.61056 23.2398C4.89556 23.479 5.22782 23.6555 5.58564 23.7576L15.1021 26.8075C15.3982 26.8873 15.7106 26.8836 16.0047 26.7969C16.2989 26.7102 16.5633 26.5438 16.7688 26.3162C17.1133 25.9474 17.3028 25.4603 17.2979 24.9556V10.0875C17.2923 9.83461 17.235 9.58551 17.1298 9.35546C17.0245 9.12541 16.8734 8.91927 16.6857 8.74964C16.3977 8.51138 16.063 8.33627 15.703 8.23565L6.1979 5.19325Z" fill="white"/>
<path d="M5.62276 5.13965C5.49124 5.14014 5.3611 5.16654 5.23978 5.21733C5.11846 5.26812 5.00833 5.34231 4.91568 5.43566C4.82303 5.52901 4.74967 5.6397 4.6998 5.7614C4.64992 5.88311 4.62451 6.01344 4.62501 6.14496C4.626 6.40928 4.73144 6.66248 4.91834 6.84938C5.10524 7.03628 5.35845 7.14172 5.62276 7.14272H19.323C19.3986 7.14272 19.3381 7.14272 19.3381 7.05201V21.4477C19.3381 21.3532 19.4024 21.357 19.323 21.357H16.6397C16.376 21.3589 16.1238 21.4648 15.9377 21.6516C15.7516 21.8384 15.6467 22.0911 15.6457 22.3547C15.6452 22.4862 15.6706 22.6166 15.7205 22.7383C15.7703 22.86 15.8437 22.9707 15.9363 23.064C16.029 23.1574 16.1391 23.2316 16.2604 23.2824C16.3818 23.3331 16.5119 23.3595 16.6434 23.36H19.323C20.3661 23.36 21.3374 22.5475 21.3374 21.4477V7.05201C21.3374 5.95221 20.3661 5.13965 19.323 5.13965H5.62276ZM23.0797 9.99237C22.8273 10.0204 22.5949 10.1434 22.4297 10.3363C22.2581 10.5384 22.1738 10.8003 22.195 11.0646C22.2163 11.3288 22.3414 11.5739 22.543 11.746L25.4645 14.2517L22.5393 16.7537C22.3382 16.9263 22.2137 17.1717 22.1932 17.4359C22.1727 17.7001 22.2577 17.9617 22.4297 18.1634C22.6023 18.3645 22.8476 18.4889 23.1119 18.5094C23.3761 18.53 23.6377 18.445 23.8394 18.273L27.649 15.0114C27.7591 14.9174 27.8474 14.8006 27.9081 14.6691C27.9687 14.5377 28 14.3946 28 14.2498C28 14.1051 27.9687 13.962 27.9081 13.8306C27.8474 13.6991 27.7591 13.5823 27.649 13.4883L23.8394 10.2267C23.7354 10.1379 23.6144 10.0712 23.4838 10.0309C23.3531 9.99063 23.2156 9.97751 23.0797 9.99237Z" fill="white"/>
<path d="M18.6362 13.3565C18.504 13.356 18.3731 13.3816 18.2509 13.432C18.1287 13.4823 18.0177 13.5563 17.9242 13.6498C17.8308 13.7432 17.7567 13.8543 17.7064 13.9765C17.656 14.0987 17.6304 14.2296 17.6309 14.3618C17.6314 14.4933 17.6578 14.6234 17.7085 14.7448C17.7593 14.8661 17.8335 14.9762 17.9269 15.0689C18.0202 15.1615 18.1309 15.2349 18.2526 15.2847C18.3743 15.3346 18.5047 15.36 18.6362 15.3595H26.4406C26.7049 15.3585 26.9581 15.2531 27.145 15.0662C27.3319 14.8793 27.4374 14.6261 27.4384 14.3618C27.4389 14.2299 27.4133 14.0993 27.3632 13.9773C27.3131 13.8554 27.2394 13.7445 27.1464 13.6511C27.0533 13.5577 26.9427 13.4836 26.821 13.4331C26.6992 13.3825 26.5687 13.3565 26.4368 13.3565H18.6362Z" fill="white"/>
</svg>
