<svg width="32" height="32" viewBox="0 0 32 32" fill="none" xmlns="http://www.w3.org/2000/svg">
<path d="M13.1319 20.7334C15.0515 20.5787 16.9799 20.5787 18.8994 20.7334C19.9447 20.7944 20.9851 20.9251 22.0139 21.1249C24.2402 21.5757 25.6936 22.3111 26.3165 23.4974C26.7843 24.4232 26.7843 25.5253 26.3165 26.4511C25.6936 27.6373 24.2978 28.4203 21.9908 28.8236C20.9628 29.0309 19.9222 29.1656 18.8764 29.2269C17.9074 29.3337 16.9385 29.3337 15.958 29.3337H14.1932C13.824 29.2862 13.4665 29.2625 13.1204 29.2625C12.0745 29.2087 11.0337 29.0779 10.0059 28.871C7.77969 28.444 6.32628 27.6848 5.70339 26.4985C5.46293 26.039 5.33616 25.5257 5.33412 25.0039C5.32926 24.4789 5.45219 23.9609 5.69186 23.4974C6.30321 22.3111 7.75662 21.5401 10.0059 21.1249C11.0382 20.9223 12.0826 20.7915 13.1319 20.7334ZM16.0042 2.66699C19.8711 2.66699 23.0059 5.89075 23.0059 9.86747C23.0059 13.8442 19.8711 17.0679 16.0042 17.0679C12.1372 17.0679 9.0024 13.8442 9.0024 9.86747C9.0024 5.89075 12.1372 2.66699 16.0042 2.66699Z" fill="white"/>
</svg>
