<svg width="32" height="32" viewBox="0 0 32 32" fill="none" xmlns="http://www.w3.org/2000/svg">
<path d="M29.2311 2.76953C29.2311 2.76953 19.3232 2.74636 11.5991 10.4705C11.25 10.8235 10.9325 11.2064 10.6501 11.6148C9.28073 11.5055 7.18197 11.5453 6.11162 12.6178C3.6068 15.1226 2.77148 19.2981 2.77148 19.2981L8.61314 18.4639V20.0771L11.9235 23.3875H13.5367L12.7014 29.2302C12.7014 29.2302 16.8769 28.3949 19.3817 25.8901C20.4531 24.8186 20.4929 22.721 20.3847 21.3516C20.7933 21.0696 21.1762 20.752 21.529 20.4026C29.2531 12.6785 29.2311 2.76953 29.2311 2.76953ZM18.2187 11.575C18.212 11.2812 18.2641 10.9889 18.372 10.7154C18.4799 10.442 18.6413 10.1928 18.8467 9.98258C19.0522 9.77236 19.2976 9.6053 19.5686 9.49122C19.8395 9.37714 20.1305 9.31833 20.4244 9.31826C20.7184 9.31819 21.0094 9.37684 21.2804 9.49079C21.5514 9.60473 21.7969 9.77167 22.0025 9.98179C22.208 10.1919 22.3696 10.441 22.4776 10.7144C22.5856 10.9878 22.6378 11.2801 22.6313 11.5739C22.6186 12.1506 22.3806 12.6993 21.9684 13.1026C21.5561 13.506 21.0023 13.7319 20.4255 13.7321C19.8488 13.7322 19.2949 13.5065 18.8824 13.1034C18.47 12.7003 18.2317 12.1517 18.2187 11.575Z" fill="white"/>
<path d="M9.44336 24.5038C8.42929 25.5178 7.14377 24.8524 7.14377 24.8524C7.14377 24.8524 6.51701 23.5283 7.49246 22.5529C7.57632 22.469 7.67894 22.4215 7.77715 22.3642L7.09853 21.6855C6.74432 21.8069 6.40998 21.9989 6.12749 22.2814C5.1366 23.2723 5.19398 26.8022 5.19398 26.8022C5.19398 26.8022 8.72501 26.8585 9.71481 25.8687C9.99729 25.5862 10.1893 25.2519 10.3107 24.8977L9.63315 24.2202C9.57467 24.3173 9.52722 24.4199 9.44336 24.5038Z" fill="white"/>
</svg>
