<svg width="32" height="32" viewBox="0 0 32 32" fill="none" xmlns="http://www.w3.org/2000/svg">
<path d="M26.8 25.6H6.4V5.2C6.4 4.88174 6.27357 4.57652 6.04853 4.35147C5.82348 4.12643 5.51826 4 5.2 4C4.88174 4 4.57652 4.12643 4.35147 4.35147C4.12643 4.57652 4 4.88174 4 5.2V26.8C4 27.1183 4.12643 27.4235 4.35147 27.6485C4.57652 27.8736 4.88174 28 5.2 28H26.8C27.1183 28 27.4235 27.8736 27.6485 27.6485C27.8736 27.4235 28 27.1183 28 26.8C28 26.4817 27.8736 26.1765 27.6485 25.9515C27.4235 25.7264 27.1183 25.6 26.8 25.6Z" fill="white"/>
<path d="M11.2008 22.0002V16.0002C11.2008 15.6819 11.0744 15.3767 10.8493 15.1517C10.6243 14.9266 10.319 14.8002 10.0008 14.8002C9.68252 14.8002 9.3773 14.9266 9.15225 15.1517C8.92721 15.3767 8.80078 15.6819 8.80078 16.0002V22.0002C8.80078 22.3185 8.92721 22.6237 9.15225 22.8487C9.3773 23.0738 9.68252 23.2002 10.0008 23.2002C10.319 23.2002 10.6243 23.0738 10.8493 22.8487C11.0744 22.6237 11.2008 22.3185 11.2008 22.0002ZM16.0008 22.0002V11.2002C16.0008 10.8819 15.8744 10.5767 15.6493 10.3517C15.4243 10.1266 15.119 10.0002 14.8008 10.0002C14.4825 10.0002 14.1773 10.1266 13.9523 10.3517C13.7272 10.5767 13.6008 10.8819 13.6008 11.2002V22.0002C13.6008 22.3185 13.7272 22.6237 13.9523 22.8487C14.1773 23.0738 14.4825 23.2002 14.8008 23.2002C15.119 23.2002 15.4243 23.0738 15.6493 22.8487C15.8744 22.6237 16.0008 22.3185 16.0008 22.0002ZM20.8008 22.0002V8.8002C20.8008 8.48194 20.6744 8.17671 20.4493 7.95167C20.2243 7.72662 19.919 7.6002 19.6008 7.6002C19.2825 7.6002 18.9773 7.72662 18.7523 7.95167C18.5272 8.17671 18.4008 8.48194 18.4008 8.8002V22.0002C18.4008 22.3185 18.5272 22.6237 18.7523 22.8487C18.9773 23.0738 19.2825 23.2002 19.6008 23.2002C19.919 23.2002 20.2243 23.0738 20.4493 22.8487C20.6744 22.6237 20.8008 22.3185 20.8008 22.0002ZM25.6008 22.0002V6.4002C25.6008 6.08194 25.4744 5.77671 25.2493 5.55167C25.0243 5.32662 24.719 5.2002 24.4008 5.2002C24.0825 5.2002 23.7773 5.32662 23.5523 5.55167C23.3272 5.77671 23.2008 6.08194 23.2008 6.4002V22.0002C23.2008 22.3185 23.3272 22.6237 23.5523 22.8487C23.7773 23.0738 24.0825 23.2002 24.4008 23.2002C24.719 23.2002 25.0243 23.0738 25.2493 22.8487C25.4744 22.6237 25.6008 22.3185 25.6008 22.0002Z" fill="white"/>
</svg>
