<svg width="355" height="276" viewBox="0 0 355 276" fill="none" xmlns="http://www.w3.org/2000/svg">
<path fill-rule="evenodd" clip-rule="evenodd" d="M161.098 37.925C229.032 23.7236 267.396 56.1242 256.177 129.807C251.947 157.57 229.73 176.729 201.968 178.552C183.652 179.75 164.039 181.228 146.479 176.303C111.982 166.624 97.4691 139.978 100.738 107.134C104.483 69.4636 120.294 46.4541 161.098 37.925Z" fill="#F6DB7F"/>
<path fill-rule="evenodd" clip-rule="evenodd" d="M223.913 233.405C204.316 210.108 188.464 160.345 184.489 140.34C189.762 124.169 225.104 122.428 228.398 128.027C239.396 159.221 247.494 173.291 265.457 200.552C262.607 221.83 225.474 235.26 223.913 233.405ZM127.439 240.932C148.646 220.41 162.419 171.378 169.039 147.638C166.157 130.875 131.43 124.062 127.365 129.151C113.665 158.531 101.082 190.357 86.3633 205.634C98.9544 233.544 124.712 243.575 127.439 240.932Z" fill="#F6DB7F"/>
<path d="M160.539 35.8574C162.248 38.0574 163.398 39.1984 164.375 41.8417M253.187 105.37C255.7 104.164 257.047 103.277 259.84 102.867M253.794 126.911C256.488 127.625 258.09 127.838 260.48 129.373M150.067 38.3201C151.776 40.5201 152.926 41.6611 153.903 44.3044M228.538 66.9528C230.559 65.0319 231.577 63.7759 234.115 62.5364M224.095 63.2095C226.115 61.2886 227.134 60.0327 229.672 58.7931M111.39 106.602C108.877 105.395 107.53 104.509 104.737 104.098M110.799 128.142C108.105 128.856 106.503 129.07 104.113 130.605M257.614 64.3588C259.437 72.4281 254.805 74.7923 250.69 75.6296C258.378 75.8512 259.265 76.9512 261.367 85.0863C260.497 78.9952 260.546 74.546 268.628 71.7714C267.026 72.0833 259.076 75.6542 257.614 64.3588ZM125.665 62.0356C127.489 70.105 122.856 72.4692 118.741 73.3065C126.429 73.5281 127.316 74.6281 129.419 82.7631C128.548 76.6721 128.597 72.2229 136.679 69.4483C135.07 69.7766 127.119 73.3393 125.665 62.0356Z" stroke="black" stroke-width="2.13" stroke-linecap="round" stroke-linejoin="round"/>
<path d="M207.272 126.512C212.187 125.64 217.033 125.446 220.841 125.812C222.746 125.996 224.374 126.318 225.614 126.757C226.85 127.194 227.613 127.716 227.944 128.247C238.928 159.392 247.04 173.504 264.934 200.667C264.199 205.779 261.434 210.455 257.615 214.583C253.752 218.758 248.838 222.346 243.947 225.223C239.058 228.099 234.21 230.255 230.494 231.575C228.634 232.236 227.069 232.683 225.932 232.908C225.36 233.021 224.915 233.074 224.603 233.075C224.446 233.076 224.341 233.063 224.279 233.048C224.272 233.046 224.267 233.043 224.262 233.042C214.532 221.457 205.705 203.277 198.809 185.457C191.938 167.703 187.003 150.364 185.005 140.374C186.295 136.549 189.357 133.53 193.358 131.24C197.4 128.927 202.357 127.383 207.272 126.512Z" fill="#BAD9D8" stroke="black"/>
<path fill-rule="evenodd" clip-rule="evenodd" d="M196.614 95.1573C186.823 77.7052 182.092 69.8246 177.485 72.6074C169.674 77.3194 177.682 89.5835 186.832 105.148C174.791 95.4528 164.828 91.0364 161.657 96.0275C157.222 102.997 163.571 104.868 181.123 119.677C182.47 126.975 183.365 131.588 191.332 134.544C192.679 135.044 192.482 137.253 192.597 139.395C198.733 138.016 208.876 137.959 220.367 126.433C221.311 125.005 234.888 93.5976 226.79 88.1715C224.777 86.8335 216.465 87.285 212.605 102.324C210.552 77.3276 205.032 65.9418 199.973 66.5C196.302 66.9023 194.996 77.3604 196.614 95.1573Z" fill="white"/>
<path d="M160.539 35.8574C162.248 38.0574 163.398 39.1984 164.375 41.8417M253.187 105.37C255.7 104.164 257.047 103.277 259.84 102.867M253.794 126.911C256.488 127.625 258.09 127.838 260.48 129.373M150.067 38.3201C151.776 40.5201 152.926 41.6611 153.903 44.3044M228.538 66.9528C230.559 65.0319 231.577 63.7759 234.115 62.5364M224.095 63.2095C226.115 61.2886 227.134 60.0327 229.672 58.7931M111.39 106.602C108.877 105.395 107.53 104.509 104.737 104.098M110.799 128.142C108.105 128.856 106.503 129.07 104.113 130.605M257.614 64.3588C259.437 72.4281 254.805 74.7923 250.69 75.6296C258.378 75.8512 259.265 76.9512 261.367 85.0863C260.497 78.9952 260.546 74.546 268.628 71.7714C267.026 72.0833 259.076 75.6542 257.614 64.3588ZM125.665 62.0356C127.489 70.105 122.856 72.4692 118.741 73.3065C126.429 73.5281 127.316 74.6281 129.419 82.7631C128.548 76.6721 128.597 72.2229 136.679 69.4483C135.07 69.7766 127.119 73.3393 125.665 62.0356Z" stroke="black" stroke-width="1.42" stroke-linecap="round" stroke-linejoin="round"/>
<path d="M130.302 128.288C131.592 128.031 133.25 127.944 135.162 128.035C138.983 128.218 143.751 129.106 148.488 130.675C153.227 132.244 157.909 134.486 161.575 137.356C165.21 140.203 167.806 143.636 168.526 147.614C165.215 159.487 160.133 177.601 153.243 195.311C146.433 212.815 137.883 229.852 127.583 240.091L127.091 240.573C127.017 240.645 126.862 240.732 126.573 240.787C126.289 240.841 125.913 240.857 125.445 240.821C124.511 240.75 123.274 240.478 121.8 239.983C118.855 238.995 115.027 237.139 110.881 234.327C102.652 228.746 93.2125 219.424 86.959 205.731C94.285 198.028 101.066 186.301 107.694 172.903C114.385 159.38 120.959 144.073 127.788 129.425C128.195 128.948 129.024 128.543 130.302 128.288Z" fill="#BAD9D8" stroke="black"/>
<path fill-rule="evenodd" clip-rule="evenodd" d="M163.58 100.872C175.785 85.0202 181.608 77.8867 185.756 81.318C192.803 87.1135 183.111 98.0888 171.793 112.167C185.107 104.311 195.612 101.381 198.027 106.774C201.411 114.318 194.856 115.245 175.349 127.37C172.967 134.397 171.407 138.862 163.103 140.611C161.699 140.915 161.567 143.131 161.148 145.224C155.276 142.975 145.247 141.457 135.539 128.396C134.816 126.853 125.913 93.7874 134.718 89.609C136.902 88.5747 145.058 90.2165 146.717 105.657C152.36 81.2195 159.465 70.7449 164.393 72.0009C167.966 72.9613 167.752 83.5016 163.58 100.872Z" fill="white"/>
<path d="M162.025 141.194C161.877 142.146 160.957 144.527 160.908 145.093M231.617 139.749C220.595 153.581 199.527 159.098 188.086 157.119M219.708 127.567C221.794 125.523 233.522 93.1966 227.042 89.4698C216.841 83.5922 210.927 108.687 210.188 108.826C203.913 110.058 194.887 122.305 198.689 128.725M211.831 102.653C213.474 72.0751 191.388 43.3357 196.628 95.8071C197.359 103.195 182.977 61.2065 175.068 75.6542C173.975 77.649 174.673 81.2691 176.193 85.4064M182.484 98.5899L182.64 98.8772C184.012 101.34 185.318 103.581 186.312 105.28M185.827 105.444C184.776 104.623 182.994 103.138 180.833 101.57L180.48 101.315M168.16 95.0026C167.185 94.7864 166.182 94.7227 165.187 94.8138H164.94M181.835 123.471C181.94 123.893 182.044 124.297 182.148 124.686M192.078 135.497C192.078 136.466 192.653 138.953 192.62 139.52M221.556 126.385C208.414 139.684 193.499 139.979 189.375 140.34M188.833 135.177C187.839 135.735 183.454 138.37 184.644 142.746C188.275 163.268 208.299 215.805 224.981 233.224M135 127.5C122.762 84.198 139.922 80.8586 147.257 104.008C151.183 74.702 176.004 50.5596 163.561 100.297C161.77 107.464 182.065 68.0281 187.798 83.4691C190.024 89.478 176.587 105.896 171.749 111.979C171.059 112.849 192.653 97.6869 198.147 106.183C203.642 114.679 175.971 125.581 175.33 127.058C171.955 135.267 171.273 138.305 162.132 140.332M134.206 127.912C145.319 142.967 160.004 145.414 164.037 146.374M122.305 139.7C131.216 154.985 151.265 163.506 162.838 163.161M182.131 124.604C183.61 130.219 185.055 132.813 192.25 135.514C185.063 132.862 183.618 130.301 182.139 124.686L182.131 124.604Z" stroke="black" stroke-width="1.42" stroke-linecap="round" stroke-linejoin="round"/>
</svg>
