<svg width="308" height="248" viewBox="0 0 308 248" fill="none" xmlns="http://www.w3.org/2000/svg">
<g clip-path="url(#clip0_2260_2374)">
<path d="M147.117 67.153L157.769 71.2746L168.923 54.8887L165.908 74.2904L178.771 75.9993L164.702 80.6236L163.396 93.1894L157.166 83.0362L146.715 85.851L152.242 77.7083L147.117 67.153Z" fill="#FFCF4B"/>
<path d="M72.0509 72.481L70.5436 47.7513L48.3354 36.6934L0 68.7615L23.7155 104.549L72.0509 72.481ZM52.556 59.714C51.0486 57.4019 51.6516 54.2856 53.9628 52.6771C56.2741 51.1692 59.3892 51.7724 60.9971 54.0845C62.5044 56.3966 61.9015 59.513 59.5902 61.1214C57.1785 62.7298 54.0633 62.0262 52.556 59.714Z" fill="#FFCF4B"/>
<path d="M29.9453 60.5174L32.6585 58.6074L34.8693 84.3423L32.0556 86.2523L29.9453 60.5174Z" fill="#080717"/>
<path d="M25.9259 77.6071C29.0411 75.5966 29.0411 72.6813 27.2323 69.8665C25.4234 67.0518 22.7102 65.946 19.5951 67.9565C16.4799 69.9671 16.4799 72.8823 18.2887 75.6971C20.198 78.5119 22.8107 79.6176 25.9259 77.6071ZM21.9063 73.6866C21.2029 72.5808 20.2985 71.2739 21.0019 70.1681C21.1024 69.9671 21.3034 69.8665 21.5044 69.6655C23.0117 68.6602 24.2176 70.4697 25.0215 71.475C25.7249 72.5808 26.6293 73.8876 25.9259 74.9934C25.8254 75.1945 25.6244 75.295 25.4234 75.496C25.0215 75.7976 24.6195 75.7976 24.2176 75.7976C23.2127 75.5966 22.5092 74.5913 21.9063 73.6866ZM44.9184 77.1045C48.0336 75.0939 48.0336 72.1787 46.2247 69.3639C44.4159 66.5491 41.7027 65.4433 38.5876 67.4539C35.4724 69.4644 35.4724 72.3797 37.2812 75.1945C39.1905 78.0092 41.9037 79.115 44.9184 77.1045ZM39.9944 73.0834C39.291 71.9776 38.3866 70.6708 39.09 69.565C39.1905 69.3639 39.3915 69.2634 39.5924 69.0623C39.9944 68.7607 40.7983 68.4592 41.8032 69.2634C42.3057 69.6655 42.7076 70.3692 43.1096 70.9723C43.813 72.0781 44.7174 73.385 44.014 74.4908C43.9135 74.6918 43.7125 74.7924 43.5115 74.9934C43.1096 75.295 42.7076 75.3955 42.3057 75.295C41.2003 75.0939 40.4968 73.9881 39.9944 73.0834Z" fill="#080717"/>
<path d="M50.6453 172.003C50.6453 171.902 46.1232 155.416 46.9271 149.485V149.384C47.8316 147.977 48.535 146.167 48.535 143.855C48.535 143.051 48.535 142.146 48.535 141.04C48.535 133.601 48.6355 121.237 46.4247 118.422C44.6159 116.11 41.0988 114.099 38.5865 113.898C37.5816 113.798 36.8782 114.099 36.2753 114.602C35.6723 115.205 34.9689 117.014 34.366 119.327C31.7532 116.713 21.2019 116.713 17.6847 118.422C14.5696 119.93 12.8612 122.242 12.6603 124.956C12.5598 127.268 13.2632 129.379 13.2632 129.48C13.2632 129.58 13.4642 129.681 13.5647 129.681H13.6652C12.5598 131.088 12.3588 132.596 12.3588 133.601C12.2583 135.713 14.4691 137.522 14.5696 137.522C14.5696 137.522 14.5696 137.522 14.67 137.522C13.7656 138.427 13.0622 139.432 12.7607 140.437C12.0573 142.749 14.7705 145.363 15.273 145.866C15.3735 146.469 15.8759 149.183 18.2877 150.49C19.996 151.395 21.2019 151.797 22.6087 151.998L23.4126 173.008C23.4126 173.109 23.4126 172.907 23.5131 173.008C23.6136 173.109 23.6136 173.008 23.7141 173.008L50.2433 172.003C50.4443 172.003 50.5448 172.103 50.6453 172.003C50.6453 172.103 50.6453 171.902 50.6453 172.003Z" fill="white"/>
<path d="M23.8166 174.013C23.3142 174.013 22.8117 173.611 22.8117 173.008L22.0078 151.997C22.0078 151.394 22.4098 150.992 23.0127 150.992C23.6156 150.992 24.0176 151.394 24.0176 151.997L24.8215 173.008C24.922 173.611 24.4196 174.013 23.8166 174.013C23.9171 174.013 23.9171 174.013 23.8166 174.013Z" fill="black"/>
<path d="M13.7662 130.284C13.3642 130.284 12.9622 129.982 12.8618 129.58C12.8618 129.48 12.0578 127.268 12.2588 124.755C12.4598 121.739 14.3691 119.226 17.5848 117.618C21.0014 116.009 32.3567 115.607 35.1704 118.824C35.5724 119.226 35.4719 119.829 35.0699 120.231C34.668 120.633 34.065 120.533 33.6631 120.131C31.8543 118.02 21.7048 117.819 18.4892 119.427C15.173 121.035 14.3691 123.247 14.2686 124.855C14.1681 126.967 14.7711 128.877 14.7711 128.877C14.972 129.379 14.6706 129.982 14.1681 130.183C13.9671 130.284 13.8666 130.284 13.7662 130.284Z" fill="black"/>
<path d="M14.47 137.822C14.269 137.822 14.068 137.721 13.867 137.621C13.7665 137.52 11.6563 136.012 11.8572 133.399C11.9577 131.589 12.2592 127.97 18.1881 126.161C22.8106 124.753 28.036 124.653 33.4625 125.759C33.9649 125.859 34.3669 126.362 34.2664 126.965C34.1659 127.468 33.6634 127.87 33.0605 127.769C27.8351 126.764 23.0116 126.864 18.6905 128.071C14.068 129.478 13.867 131.79 13.7665 133.499C13.666 134.907 14.9724 135.912 14.9724 135.912C15.3744 136.213 15.4749 136.917 15.1734 137.319C15.0729 137.721 14.7714 137.822 14.47 137.822Z" fill="black"/>
<path d="M24.7196 152.902C24.6191 152.902 24.6191 152.902 24.7196 152.902C22.2073 152.802 20.5995 152.5 18.0873 151.093C15.2736 149.585 11.1535 143.252 12.1584 140.236C13.0628 137.32 16.3789 135.109 19.0922 134.305C23.4132 132.998 29.543 131.691 34.467 132.897C34.9695 132.998 35.3714 133.601 35.1705 134.104C35.07 134.606 34.467 135.008 33.9646 134.807C29.543 133.702 23.7147 135.008 19.6951 136.215C16.9819 137.019 14.6706 139.029 14.0677 140.839C13.4647 142.548 16.6804 148.077 18.9917 149.384C21.2024 150.59 22.5088 150.892 24.7196 150.992C25.3225 150.992 25.7245 151.495 25.624 151.997C25.624 152.5 25.222 152.902 24.7196 152.902Z" fill="black"/>
<path d="M43.3115 153.404C42.9096 153.404 42.6081 153.203 42.4071 152.902C42.2061 152.399 42.3066 151.796 42.8091 151.595C43.0101 151.494 47.2306 149.283 47.2306 143.854C47.2306 143.05 47.2306 142.145 47.2306 141.04C47.2306 134.706 47.3311 121.638 45.4218 119.225C43.814 117.215 40.5983 115.305 38.5885 115.204C38.1866 115.204 37.5836 115.204 37.2822 115.506C36.5787 116.209 34.6694 122.342 34.5689 128.373C34.4685 131.691 35.0714 134.003 35.9758 135.008C35.9758 135.008 36.2773 135.31 36.3778 135.209C37.7846 134.706 39.7944 127.871 40.6988 121.738C40.7993 121.236 41.3017 120.834 41.8042 120.934C42.3066 121.035 42.7086 121.537 42.6081 122.04C42.1056 125.257 40.1963 136.013 36.8802 137.119C36.3778 137.32 35.4733 137.421 34.4685 136.315C33.0616 134.907 32.3582 132.093 32.4587 128.172C32.5592 122.643 34.2675 115.405 35.7748 113.897C36.2773 113.495 37.0812 112.993 38.5885 113.093C41.3017 113.294 44.9194 115.405 46.9291 117.918C49.1399 120.633 49.2404 130.786 49.1399 140.939C49.1399 142.045 49.1399 142.95 49.1399 143.754C49.1399 150.389 43.9145 153.203 43.613 153.304C43.613 153.304 43.412 153.404 43.3115 153.404Z" fill="black"/>
<path d="M50.3448 173.008C49.9429 173.008 49.5409 172.706 49.3399 172.304C49.1389 171.601 44.7174 155.516 45.6218 149.284C45.7223 148.781 46.2248 148.379 46.7272 148.379C47.2296 148.479 47.6316 148.982 47.6316 149.485C46.8277 155.315 51.2492 171.5 51.3497 171.701C51.4502 172.204 51.1487 172.807 50.6463 172.907C50.5458 173.008 50.4453 173.008 50.3448 173.008Z" fill="black"/>
<path d="M22.3065 144.558C22.0051 144.558 21.7036 144.458 21.5026 144.156C21.2011 143.754 21.2011 143.05 21.7036 142.749C21.9046 142.548 27.9339 138.024 35.5711 139.431C36.576 139.632 37.5809 139.23 38.0834 138.527C38.7868 137.521 38.5858 136.918 37.5809 136.114C37.179 135.812 37.0785 135.209 37.3799 134.706C37.6814 134.304 38.2843 134.204 38.7868 134.505C40.6961 135.913 40.9976 137.722 39.7917 139.632C38.8873 141.04 37.0785 141.743 35.2697 141.442C28.4364 140.135 23.01 144.357 23.01 144.357C22.809 144.458 22.5075 144.558 22.3065 144.558Z" fill="black"/>
<path d="M165.706 134.808C165.505 134.808 165.304 134.707 165.103 134.607C164.701 134.305 164.6 133.702 164.902 133.2L221.779 50.9685L200.475 49.4606C198.164 49.3601 196.255 47.6512 195.953 45.339L191.632 17.7947C191.431 16.3873 191.833 14.8794 192.838 13.7736C193.843 12.6678 195.25 12.0646 196.656 12.1651L238.963 14.3767C241.274 14.4773 243.183 16.1862 243.585 18.3978L248.107 44.5348C248.409 46.0427 247.906 47.5506 246.901 48.6564C245.896 49.7622 244.389 50.3654 242.882 50.1643H236.852L166.61 134.305C166.309 134.708 166.007 134.808 165.706 134.808ZM196.355 14.1757C195.551 14.1757 194.747 14.4773 194.245 15.181C193.642 15.7841 193.441 16.6889 193.541 17.4931L197.862 45.0375C198.063 46.3443 199.169 47.3496 200.576 47.4501L221.98 48.958C222.683 48.958 223.387 49.2596 223.99 49.6617C224.191 49.7622 224.392 50.0638 224.392 50.2649C224.392 50.5664 224.392 50.7675 224.191 51.0691L179.171 116.11L235.546 48.6564C235.747 48.4554 236.048 48.2543 236.35 48.2543H242.882C243.886 48.3548 244.69 48.0533 245.293 47.3496C245.896 46.6459 246.198 45.8417 245.997 44.9369L241.475 18.7999C241.274 17.4931 240.068 16.4878 238.762 16.3873L196.456 14.1757C196.456 14.1757 196.456 14.1757 196.355 14.1757Z" fill="#080717"/>
<path d="M37.2798 25.3335C37.2798 25.3335 36.8779 24.6298 36.6769 24.3282C34.8681 20.9103 30.547 19.6034 27.1304 21.4129C26.025 22.0161 22.0054 24.1271 20.9001 24.7303C17.4834 26.5398 16.1771 30.8624 17.9859 34.2804C18.1868 34.6825 18.5888 35.2856 18.5888 35.2856L37.2798 25.3335ZM24.3167 13.6723C25.5226 15.9845 24.7187 18.7992 22.4074 20.0055C20.0961 21.3124 17.2824 20.4076 16.0766 18.0955C14.8707 15.7834 15.6746 12.9686 17.9859 11.7623C20.1966 10.556 23.1108 11.3602 24.3167 13.6723Z" fill="#1D1D1B"/>
<path d="M204.9 137.118L199.675 126.664C200.579 124.754 200.981 122.441 200.68 120.129C200.177 116.108 199.776 112.69 199.675 112.489L206.006 97.1086C206.307 95.7013 205.604 94.4949 204.599 94.1934C203.393 93.8918 202.69 94.5955 201.383 96.2039L195.354 105.05L197.364 92.2833C197.163 90.876 196.057 89.6696 194.651 89.4686C192.741 89.2675 191.133 90.7754 191.133 92.6854L188.42 107.161L186.109 89.4686C185.908 87.7596 184.3 86.5533 182.592 86.8549C181.084 87.0559 179.879 88.6644 179.979 90.1723L182.089 108.468L175.558 96.8071C173.347 93.6907 173.246 93.4897 171.839 93.3891C169.93 93.2886 168.423 94.9976 168.624 96.8071L175.759 113.595L176.361 119.727L170.835 113.796C169.428 112.288 167.518 111.484 165.509 111.484C164.102 111.484 163.298 112.992 164.001 114.198L168.423 121.135C170.835 124.854 173.95 128.071 177.668 130.484C178.17 130.886 178.773 131.187 179.376 131.489L181.989 141.542C188.32 145.462 196.56 144.758 202.087 139.833L204.9 137.118Z" fill="white"/>
<path d="M190.529 145.161C187.314 145.161 183.997 144.256 181.083 142.447C180.882 142.346 180.681 142.145 180.681 141.843L178.169 132.293C177.667 131.992 177.164 131.791 176.762 131.489C172.944 128.976 169.728 125.759 167.216 121.839L162.794 114.902C162.292 114.098 162.191 112.992 162.694 112.087C163.196 111.183 164.1 110.68 165.105 110.68C167.417 110.68 169.627 111.685 171.135 113.394L174.652 117.114L174.35 114.098L167.316 97.4105C167.316 97.31 167.216 97.2094 167.216 97.1089C167.115 95.9026 167.517 94.6963 168.321 93.892C169.125 92.9873 170.331 92.5852 171.537 92.5852C173.345 92.6857 173.848 93.2889 175.757 96.0031L176.059 96.4052C176.059 96.4052 176.059 96.5057 176.159 96.5057L180.279 103.844L178.872 90.3736C178.772 88.162 180.38 86.252 182.39 85.9504C184.6 85.6488 186.711 87.1567 187.012 89.4689L188.519 100.929L190.127 92.6857C190.127 91.5799 190.63 90.4741 191.434 89.6699C192.338 88.8657 193.544 88.4636 194.75 88.5641C196.559 88.7652 198.066 90.2731 198.367 92.1831C198.367 92.2836 198.367 92.3841 198.367 92.4847L197.061 100.828L200.578 95.7015C201.784 94.1936 202.99 92.6857 204.899 93.2889C206.507 93.7915 207.411 95.5005 207.009 97.4105C207.009 97.511 207.009 97.511 206.909 97.6115L200.679 112.59C200.88 113.394 201.081 115.304 201.684 120.029C201.985 122.241 201.583 124.553 200.779 126.563L205.804 136.616C206.005 137.018 205.904 137.521 205.603 137.822L202.487 140.537C199.171 143.653 194.85 145.161 190.529 145.161ZM182.591 140.939C188.419 144.457 196.056 143.653 201.181 139.129L203.693 136.918L198.769 127.166C198.669 126.865 198.669 126.563 198.769 126.262C199.674 124.352 199.975 122.341 199.774 120.331C199.071 114.601 198.87 113.294 198.769 112.992C198.669 112.791 198.669 112.49 198.769 112.188L205.1 97.0084C205.201 96.2042 204.899 95.5005 204.397 95.2994C203.894 95.1989 203.593 95.2994 202.186 97.0084L196.257 105.754C195.956 106.156 195.453 106.257 195.051 106.156C194.649 105.955 194.348 105.553 194.448 105.051L196.458 92.3841C196.257 91.4794 195.554 90.6752 194.649 90.5746C194.046 90.4741 193.443 90.6752 192.941 91.0773C192.539 91.4794 192.238 92.0826 192.238 92.6857C192.238 92.7862 192.238 92.7862 192.238 92.8868L189.524 107.363C189.424 107.865 189.022 108.167 188.519 108.167C188.017 108.167 187.615 107.765 187.515 107.262L185.203 89.5694C185.002 88.4636 183.997 87.6594 182.791 87.7599C181.787 87.8604 180.983 88.9662 180.983 90.072L183.093 108.267C183.193 108.77 182.892 109.172 182.39 109.373C181.887 109.474 181.485 109.373 181.184 108.871L174.35 96.8073C172.542 94.2942 172.542 94.2941 171.637 94.1936C171.034 94.1936 170.431 94.3947 170.029 94.8973C169.627 95.2994 169.426 95.9026 169.426 96.4052L176.461 113.093C176.461 113.193 176.561 113.294 176.561 113.394L177.164 119.526C177.164 119.929 176.963 120.331 176.561 120.532C176.159 120.733 175.757 120.632 175.456 120.331L169.929 114.4C168.723 113.093 167.015 112.389 165.306 112.389C164.904 112.389 164.703 112.691 164.703 112.791C164.603 112.892 164.502 113.193 164.703 113.595L169.125 120.532C171.436 124.151 174.451 127.166 178.068 129.579C178.571 129.881 179.073 130.182 179.676 130.484C179.978 130.584 180.078 130.886 180.179 131.087L182.591 140.939Z" fill="#080717"/>
<path d="M189.224 127.568C188.722 127.568 188.32 127.266 188.219 126.763C188.219 126.663 186.712 119.525 180.079 116.711C179.577 116.51 179.376 115.907 179.577 115.404C179.778 114.901 180.381 114.7 180.883 114.901C188.621 118.118 190.128 126.06 190.229 126.462C190.329 126.964 189.927 127.568 189.425 127.668C189.425 127.568 189.324 127.568 189.224 127.568Z" fill="#080717"/>
<path d="M178.37 111.282C177.968 111.282 177.566 111.081 177.466 110.679C177.265 110.176 177.466 109.573 178.069 109.372C178.571 109.171 189.625 104.849 196.358 108.669C196.86 108.97 196.961 109.573 196.76 110.076C196.458 110.579 195.856 110.679 195.353 110.478C189.424 107.06 178.873 111.282 178.772 111.282C178.571 111.282 178.471 111.282 178.37 111.282Z" fill="#080717"/>
<path d="M138.272 129.881C137.769 129.881 137.367 129.479 137.267 129.077L126.917 64.3373H119.681C113.25 64.3373 108.125 59.1099 108.125 52.7767V31.6661C108.125 25.2323 113.35 20.1055 119.681 20.1055H193.139C199.57 20.1055 204.695 25.3329 204.695 31.6661V52.7767C204.695 59.2105 199.47 64.3373 193.139 64.3373H140.282L139.277 128.976C139.277 129.479 138.875 129.881 138.272 129.881ZM119.681 22.0155C114.355 22.0155 110.135 26.3381 110.135 31.5655V52.6762C110.135 58.0041 114.456 62.2263 119.681 62.2263H127.821C128.323 62.2263 128.725 62.6284 128.826 63.0305L137.468 117.215L138.372 63.131C138.372 62.6284 138.875 62.1257 139.377 62.1257H193.24C198.565 62.1257 202.786 57.8031 202.786 52.5757V31.465C202.786 26.1371 198.465 21.915 193.24 21.915H119.681V22.0155Z" fill="#080717"/>
<path d="M161.688 50.4645C158.372 50.4645 154.855 48.655 152.041 46.2424C149.428 48.0519 145.007 50.1629 139.58 48.655C137.168 47.9513 135.159 46.745 133.651 45.2371C133.149 45.6392 132.646 46.0413 132.144 46.3429C127.722 48.9566 125.713 47.1471 125.512 46.9461L126.919 45.4382C126.919 45.4382 128.124 46.3429 131.24 44.5334C131.642 44.3324 132.044 44.0308 132.445 43.7292C131.541 42.5229 130.938 41.216 130.737 39.9092C130.335 37.8987 130.737 36.1897 131.843 35.2849C132.646 34.6818 134.053 34.0786 136.365 34.9834C137.369 35.3855 137.972 36.2902 138.073 37.396C138.173 39.306 136.968 41.8192 135.259 43.8297C136.465 45.0361 138.173 46.1419 140.284 46.745C144.705 47.9513 148.423 46.4434 150.634 44.9355C149.931 44.2318 149.328 43.4276 148.825 42.6234C147.016 39.8087 146.614 37.195 147.921 35.3855C149.227 33.4755 151.137 32.5707 153.347 32.9728C155.659 33.4755 157.568 35.3855 157.97 37.6976C158.271 39.5071 156.663 42.4224 153.95 44.9355L153.85 45.0361C156.563 47.3482 160.08 48.9566 162.894 48.454C166.009 47.9513 167.918 46.8456 168.722 45.1366C164.301 43.8297 163.497 41.7187 163.396 40.5124C163.296 38.8034 164.703 37.195 166.511 36.8934C168.622 36.5918 170.631 39.2055 171.033 41.7187C171.134 42.2213 171.134 42.925 171.134 43.5282C172.842 43.8297 174.953 44.0308 177.666 44.1313V46.1419C174.852 46.1419 172.541 45.8403 170.732 45.5387C169.928 47.5492 167.918 49.5598 163.296 50.4645C162.693 50.4645 162.19 50.4645 161.688 50.4645ZM152.242 34.7823C151.237 34.7823 150.333 35.285 149.629 36.3907C148.926 37.4965 149.227 39.306 150.534 41.4171C151.036 42.1208 151.639 42.925 152.242 43.6287C152.342 43.5282 152.443 43.4276 152.543 43.4276C154.955 41.216 156.06 38.9039 155.96 38.0997C155.659 36.5918 154.453 35.2849 152.945 34.9834C152.644 34.8828 152.443 34.7823 152.242 34.7823ZM166.813 38.8034C165.908 38.9039 165.306 39.6076 165.306 40.3113C165.406 41.1155 166.31 42.2213 169.024 43.0255C169.024 42.7239 169.024 42.3218 168.923 42.0203C168.622 40.3113 167.416 38.8034 166.813 38.8034ZM134.154 36.4913C133.752 36.4913 133.45 36.5918 133.149 36.7929C132.646 37.2955 132.445 38.3008 132.747 39.5071C132.948 40.4118 133.35 41.3166 133.953 42.2213C135.36 40.6129 136.164 38.7029 136.063 37.4965C136.063 36.9939 135.862 36.8934 135.661 36.7929C135.058 36.5918 134.556 36.4913 134.154 36.4913Z" fill="#080717"/>
<path d="M73.457 109.474L109.533 143.351L80.9937 104.648L73.457 109.474Z" fill="#080717"/>
<path d="M161.085 121.638L155.86 111.887L143.098 142.547L161.085 121.638Z" fill="#080717"/>
<path d="M99.7861 143.353L81.698 128.877L75.3672 130.988L99.7861 143.353Z" fill="#080717"/>
<path d="M220.978 40.9158C220.978 40.9158 232.735 27.9479 229.117 24.2284C224.495 19.6041 217.561 27.7468 218.867 31.9689C220.174 36.1911 221.681 24.0273 215.752 24.1278C211.13 24.3289 208.014 30.9637 220.978 40.9158Z" fill="black"/>
<path d="M119.984 138.728C119.683 138.728 119.281 138.527 119.08 138.225L81.5971 74.8935C62.9061 76.8035 46.8278 68.6608 42.4063 54.9891C36.9799 38.1006 50.8474 18.3973 73.4575 11.1594C96.0676 3.92143 118.778 11.662 124.305 28.6511C129.531 44.8359 117.17 63.5339 96.0676 71.5761L120.989 137.421C121.19 137.924 120.989 138.427 120.487 138.728C120.286 138.728 120.085 138.728 119.984 138.728ZM82.2001 72.8829C82.602 72.8829 82.9035 73.084 83.1045 73.3856L114.96 127.268L93.7564 71.2745C93.6559 70.9729 93.6559 70.7719 93.7564 70.4703C93.8569 70.2692 94.0578 70.0682 94.3593 69.9676C115.06 62.5286 127.32 44.6348 122.295 29.2542C117.17 13.371 95.5652 6.13302 74.0604 13.0694C52.5557 20.0057 39.1906 38.5027 44.3156 54.386C48.5361 67.3539 64.0115 74.8935 82.0996 72.8829C82.0996 72.8829 82.0996 72.8829 82.2001 72.8829Z" fill="#080717"/>
<path d="M294.636 129.077C297.249 128.674 300.465 128.172 301.972 125.558C303.58 122.944 302.475 119.929 301.57 117.415C301.269 116.511 300.766 115.003 300.766 114.601C300.967 114.098 302.374 113.193 303.078 112.691C305.087 111.283 307.7 109.474 307.901 106.458C308.102 103.442 305.791 101.03 303.982 99.2201C303.278 98.5164 302.073 97.3101 301.972 96.9079C301.972 96.4053 302.676 94.9979 303.178 94.1937C304.384 91.9821 305.791 89.2679 304.685 86.3526C304.183 85.0458 303.078 83.8394 301.57 82.9347C300.465 82.231 299.259 81.7284 298.053 81.3263C297.149 80.9242 296.144 80.6226 295.541 80.2205C295.34 80.1199 295.239 80.0194 295.239 80.0194C295.038 79.5168 295.038 78.0089 295.038 77.1041C295.038 74.591 295.139 71.3741 292.828 69.1625C292.526 68.8609 292.124 68.5593 291.823 68.3583C289.712 67.0514 287.1 67.2525 284.788 67.353C283.784 67.4535 282.075 67.4536 281.573 67.2525C281.171 66.9509 280.467 65.3425 279.965 64.4377C278.96 62.4272 277.955 60.0146 275.744 58.7077C275.342 58.5067 274.94 58.3056 274.539 58.2051C271.524 57.1998 268.71 58.7077 266.499 59.914C265.695 60.4167 264.289 61.1204 263.887 61.2209C263.887 61.2209 263.786 61.2209 263.485 61.0198C262.882 60.6177 262.078 60.0146 261.374 59.3109C260.37 58.5067 259.365 57.6019 258.259 56.9987C256.752 56.094 255.245 55.6919 253.737 55.7924C250.622 56.094 248.914 58.7077 247.507 60.7182C247.004 61.5225 246.1 62.8293 245.698 63.0304C245.196 63.1309 243.588 62.6283 242.583 62.3267C240.071 61.623 236.855 60.6177 234.343 62.2261C231.831 63.8346 231.429 66.8504 231.127 69.3636C231.027 70.3688 230.826 71.9773 230.625 72.2788C230.223 72.5804 228.615 72.7815 227.71 72.9825C225.098 73.3846 221.882 73.8873 220.375 76.501C218.767 79.1147 219.872 82.1305 220.777 84.6437C221.078 85.5484 221.581 87.0563 221.581 87.4584C221.38 87.961 220.073 88.8658 219.269 89.3684C217.26 90.7758 214.647 92.5853 214.446 95.6011C214.245 98.6169 216.556 101.03 218.365 102.839C219.068 103.543 220.274 104.749 220.375 105.151C220.375 105.654 219.671 107.061 219.169 107.865C217.963 110.077 216.556 112.791 217.662 115.706C218.164 117.013 219.269 118.22 220.777 119.124C221.882 119.828 223.088 120.331 224.294 120.733C225.198 121.135 226.203 121.437 226.806 121.839C227.007 121.939 227.108 122.04 227.108 122.04C227.309 122.542 227.308 124.05 227.308 125.055C227.308 127.569 227.208 130.786 229.519 132.997C229.821 133.299 230.223 133.6 230.524 133.801C232.634 135.108 235.247 135.008 237.558 134.807C238.563 134.706 240.272 134.706 240.774 134.807C241.176 135.108 241.879 136.717 242.382 137.621C243.387 139.732 244.392 142.045 246.602 143.351C247.004 143.552 247.406 143.754 247.808 143.854C250.823 144.859 253.637 143.351 255.847 142.145C256.651 141.642 258.058 140.939 258.46 140.939C258.46 140.939 258.561 140.939 258.862 141.14C259.465 141.542 260.269 142.145 260.972 142.849C261.977 143.653 262.982 144.558 264.088 145.161C265.595 146.066 267.102 146.468 268.61 146.367C271.725 146.066 273.433 143.452 274.84 141.441C275.342 140.637 276.247 139.33 276.649 139.129C277.151 139.029 278.759 139.531 279.663 139.833C282.176 140.537 285.391 141.542 287.904 139.933C290.416 138.325 290.818 135.309 291.119 132.796C291.22 131.791 291.421 130.182 291.622 129.881C292.124 129.479 293.732 129.177 294.636 129.077Z" fill="#FFCF4B"/>
<path d="M244.29 105.754L240.772 103.643L241.978 94.8968C242.28 92.9868 242.782 90.0715 243.285 88.1615H243.184C242.179 90.0715 240.672 92.9868 238.461 96.7063L235.949 100.828L232.633 98.8174L243.586 80.5215L247.103 82.6325L245.797 91.5795C245.596 93.3889 245.093 96.3042 244.692 98.2142H244.792C245.797 96.2037 247.505 92.8863 249.515 89.4684L251.927 85.4473L255.243 87.4578L244.29 105.754Z" fill="black"/>
<path d="M256.449 113.093L247.605 107.765L258.659 89.4688L267.1 94.5956L265.292 97.6114L260.569 94.7967L258.056 99.0188L262.478 101.733L260.669 104.648L256.248 102.035L253.333 106.96L258.257 109.976L256.449 113.093Z" fill="black"/>
<path d="M273.232 123.145L269.313 120.833L271.725 114.098C272.428 112.188 273.433 109.976 274.438 107.563H274.338C272.629 109.574 271.122 111.383 269.615 112.992L264.691 118.219L260.973 116.008L268.61 95.7012L272.529 98.0133L269.112 105.854C268.107 108.066 267.002 110.278 265.897 112.69H265.997C267.605 110.579 269.213 108.87 270.921 106.96L276.649 100.526L279.664 102.336L276.649 110.378C275.745 112.69 274.84 114.902 273.634 117.415H273.735C275.443 115.203 276.85 113.394 278.357 111.383L283.683 104.749L287.401 106.96L273.232 123.145Z" fill="black"/>
<path d="M63.0072 105.855C62.6053 105.855 62.3038 105.654 62.1028 105.352L59.892 101.23L55.772 99.0189C55.4705 98.8178 55.2695 98.5162 55.2695 98.1141C55.2695 97.712 55.4705 97.4104 55.772 97.2094L59.892 94.9978L62.1028 90.8762C62.4043 90.273 63.5097 90.273 63.9116 90.8762L66.1224 94.9978L70.2425 97.2094C70.5439 97.4104 70.7449 97.712 70.7449 98.1141C70.7449 98.5162 70.5439 98.8178 70.2425 99.0189L66.1224 101.23L63.9116 105.352C63.7106 105.654 63.4092 105.855 63.0072 105.855ZM58.2842 98.1141L61.0979 99.622C61.2989 99.7226 61.3994 99.8231 61.4999 100.024L63.0072 102.839L64.5146 100.024C64.615 99.8231 64.7155 99.7226 64.9165 99.622L67.7302 98.1141L64.9165 96.6062C64.7155 96.5057 64.615 96.4052 64.5146 96.2041L63.0072 93.3894L61.4999 96.2041C61.3994 96.4052 61.2989 96.5057 61.0979 96.6062L58.2842 98.1141Z" fill="#080717"/>
<path d="M83.8096 47.9516L83.1062 48.1527C80.5939 49.0574 77.7802 47.65 76.8758 45.1369L64.4151 7.6403C63.4102 4.82555 65.3195 1.70921 68.2337 1.3071L75.9714 0.100778C78.6846 -0.301329 81.1969 1.50816 81.5988 4.22238L87.0253 42.7242C87.3267 44.9358 85.9199 47.1474 83.8096 47.9516ZM89.437 63.3322L87.3267 63.9354C84.8145 64.5386 82.3023 63.1312 81.4983 60.7185C80.6944 58.3059 82.0008 55.5917 84.312 54.6869L86.3218 53.8827C88.6331 52.978 91.2458 53.9832 92.4517 56.1948L92.5522 56.3959C93.959 59.2106 92.4517 62.528 89.437 63.3322Z" fill="#080717"/>
<path d="M117.574 248.001C63.1088 248.001 18.793 208.595 18.793 160.141C18.793 158.633 18.793 157.024 18.8935 155.516L54.9692 157.627C54.9692 158.432 54.8687 159.336 54.8687 160.141C54.8687 188.69 82.9052 211.811 117.474 211.811C152.042 211.811 180.078 188.59 180.078 160.141C180.078 152.802 178.27 145.765 174.652 139.13L206.407 121.84C212.938 133.803 216.154 146.67 216.154 160.04C216.255 208.494 172.039 248.001 117.574 248.001Z" fill="#080717"/>
<path d="M130.034 207.388L119.885 211.711C108.228 216.737 94.6621 211.308 89.6376 199.647L87.9293 195.626C81.699 181.05 88.5322 164.061 103.003 157.828L105.816 161.347C114.961 157.426 125.613 161.749 129.532 170.796L137.27 188.891C140.485 196.028 137.169 204.372 130.034 207.388Z" fill="#080717"/>
<path d="M139.178 220.758L139.68 187.584L110.94 186.277L108.629 229.001L114.156 232.419C122.295 237.446 132.947 234.229 136.967 225.583L139.178 220.758Z" fill="white"/>
<path d="M122.496 235.837C119.381 235.837 116.266 234.932 113.553 233.324L108.026 229.906C107.724 229.705 107.523 229.403 107.523 229.001L109.835 186.277C109.835 185.774 110.337 185.272 110.84 185.372L139.58 186.679C140.082 186.679 140.584 187.182 140.584 187.684L140.082 220.858C140.082 220.959 140.082 221.16 139.982 221.26L137.67 226.086C135.66 230.408 131.842 233.726 127.219 235.133C125.712 235.636 124.104 235.837 122.496 235.837ZM109.634 228.498L114.658 231.615C118.276 233.826 122.697 234.429 126.717 233.223C130.837 232.017 134.153 229.102 135.962 225.282L138.173 220.557L138.675 188.589L111.844 187.383L109.634 228.498Z" fill="#080717"/>
<path d="M112.62 169.267C113.272 163.306 108.969 157.946 103.011 157.294C97.0528 156.642 91.6944 160.946 91.0429 166.907C90.3914 172.867 94.6935 178.228 100.652 178.879C106.61 179.531 111.969 175.227 112.62 169.267Z" fill="#080717"/>
<path d="M101.497 162.252C91.2473 168.284 86.7252 180.95 91.0463 192.209C94.1614 192.812 97.5781 192.511 100.794 191.103C109.134 187.585 113.053 178.236 109.737 170.294C108.129 166.474 105.115 163.659 101.497 162.252Z" fill="#080717"/>
<path d="M90.8444 180.749C89.1361 192.511 96.1703 203.971 107.626 207.59C110.038 205.479 111.947 202.664 112.852 199.347C115.263 190.601 110.54 181.654 102.3 179.342C98.2806 178.236 94.261 178.839 90.8444 180.749ZM118.981 162.855C121.393 168.384 118.78 174.818 113.254 177.13C107.727 179.543 101.295 176.929 98.984 171.4C96.6728 165.871 99.185 159.437 104.712 157.125C110.239 154.813 116.67 157.326 118.981 162.855Z" fill="#080717"/>
<path d="M125.264 172.877C130.853 170.284 133.281 163.65 130.689 158.059C128.097 152.469 121.465 150.039 115.876 152.632C110.288 155.226 107.859 161.86 110.452 167.451C113.044 173.041 119.676 175.471 125.264 172.877Z" fill="#080717"/>
<path d="M117.804 168.938C120.956 163.643 119.221 156.794 113.928 153.641C108.635 150.488 101.789 152.224 98.6372 157.518C95.485 162.813 97.2204 169.662 102.513 172.815C107.806 175.968 114.652 174.232 117.804 168.938Z" fill="#080717"/>
<path d="M83.8098 182.659C83.5083 182.659 83.2069 182.558 83.0059 182.357C82.6039 181.955 82.7044 181.352 83.1064 180.95C83.2069 180.849 86.724 177.833 90.5426 179.341C91.045 179.542 91.3465 180.146 91.1455 180.648C90.9445 181.151 90.3416 181.452 89.8392 181.251C87.126 180.146 84.5132 182.458 84.5132 182.458C84.2118 182.558 84.0108 182.659 83.8098 182.659Z" fill="#080717"/>
<path d="M88.4315 181.051C85.5173 181.051 83.3065 179.04 83.206 178.94C82.8041 178.538 82.804 177.934 83.1055 177.532C83.5075 177.13 84.1104 177.13 84.5124 177.432C84.5124 177.432 87.1251 179.744 89.8383 178.839C90.3408 178.638 90.9437 178.94 91.1447 179.442C91.3456 179.945 91.0442 180.548 90.5417 180.749C89.8383 180.95 89.1349 181.051 88.4315 181.051Z" fill="#080717"/>
<path d="M137.471 169.691C126.819 157.829 110.037 155.416 99.988 164.363C91.4464 172.003 90.542 185.273 96.8729 196.331C96.5714 196.431 96.3704 196.532 96.1694 196.632C92.4513 198.643 90.743 203.267 92.3508 207.288C94.1597 211.711 99.1841 213.822 103.606 211.912C105.515 211.108 107.022 209.6 107.826 207.891C117.976 214.526 130.537 214.727 138.676 207.388C148.625 198.542 148.122 181.553 137.471 169.691Z" fill="white"/>
<path d="M123.703 214.023C118.578 214.023 113.152 212.515 108.127 209.399C107.122 211.007 105.615 212.213 103.907 212.917C101.495 213.922 98.8822 213.922 96.571 212.917C94.1592 211.912 92.3504 210.102 91.3455 207.69C89.6372 203.367 91.446 198.24 95.4656 195.928C89.3358 184.367 90.8431 171.198 99.2842 163.659C104.409 159.135 111.242 157.225 118.578 158.23C125.914 159.236 132.848 163.056 138.174 168.987C149.127 181.251 149.629 198.843 139.179 208.192C134.958 212.113 129.431 214.023 123.703 214.023ZM107.725 206.986C107.926 206.986 108.127 207.086 108.228 207.187C118.277 213.822 130.235 213.621 137.772 206.785C147.419 198.139 146.916 181.854 136.666 170.394C131.642 164.765 125.21 161.246 118.277 160.241C111.544 159.336 105.213 161.045 100.591 165.167C92.6519 172.304 91.446 184.97 97.6764 195.928C97.7769 196.129 97.8774 196.431 97.7769 196.732C97.6764 197.034 97.4754 197.235 97.1739 197.335C96.9729 197.436 96.772 197.536 96.4705 197.637C93.1544 199.446 91.7475 203.568 93.0539 206.986C93.8578 208.896 95.2646 210.303 97.1739 211.107C99.0832 211.912 101.093 211.912 103.002 211.107C104.61 210.404 105.917 209.197 106.72 207.589C106.821 207.287 107.122 207.187 107.323 207.086C107.524 206.986 107.625 206.986 107.725 206.986Z" fill="#080717"/>
<path d="M108.028 178.738C107.425 178.738 107.023 178.235 107.023 177.733C107.023 174.114 110.34 172.003 110.44 171.902C110.943 171.6 111.545 171.701 111.847 172.204C112.148 172.706 112.048 173.309 111.545 173.611C111.445 173.611 109.033 175.219 109.033 177.733C109.033 178.235 108.531 178.738 108.028 178.738Z" fill="#080717"/>
<path d="M127.423 172.807C127.222 172.807 127.121 172.807 126.92 172.707L117.977 167.479C117.575 167.278 117.374 166.776 117.575 166.273C118.479 163.559 121.795 158.834 127.322 160.543C127.825 160.744 128.126 161.247 128.026 161.85C127.825 162.353 127.322 162.654 126.719 162.554C122.7 161.247 120.489 164.665 119.786 166.273L128.026 171.098C128.528 171.4 128.629 172.003 128.428 172.506C128.126 172.606 127.724 172.807 127.423 172.807Z" fill="#080717"/>
<path d="M96.875 184.971L108.029 197.537C108.331 197.939 108.532 198.441 108.431 198.944C108.23 199.949 107.125 200.552 106.221 200.15L96.875 196.431V184.971Z" fill="#080717"/>
<path d="M103.104 203.669C102.802 203.669 102.501 203.568 102.3 203.267C102.3 203.267 100.591 200.954 98.1796 201.055C97.6772 201.156 97.1747 200.653 97.0742 200.15C97.0742 199.547 97.4762 199.145 97.9786 199.044C101.496 198.843 103.707 201.96 103.807 202.06C104.108 202.563 104.008 203.166 103.606 203.468C103.506 203.669 103.305 203.669 103.104 203.669Z" fill="#080717"/>
<path d="M86.824 176.426C85.1157 182.558 85.3166 189.293 88.0298 195.627L89.3362 198.642C90.5421 198.542 91.6475 198.24 92.8533 197.738C98.5812 195.325 101.194 188.69 98.6817 183.061C96.6719 178.336 91.748 175.722 86.824 176.426Z" fill="#080717"/>
<path d="M114.46 183.463C114.158 183.463 113.857 183.362 113.656 183.161L111.646 180.95C110.54 179.643 110.44 177.934 111.445 176.527C112.45 175.119 114.158 174.617 115.665 175.22L120.087 176.929C120.589 177.13 120.891 177.733 120.69 178.236C120.489 178.738 119.886 179.04 119.384 178.839L114.962 177.13C114.058 176.828 113.455 177.23 113.053 177.733C112.751 178.236 112.55 179.04 113.153 179.743L115.163 181.955C115.565 182.357 115.464 182.96 115.063 183.362C114.962 183.362 114.761 183.463 114.46 183.463Z" fill="#080717"/>
<path d="M127.823 169.791C127.521 169.791 127.22 169.691 127.019 169.489L125.009 167.278C123.904 165.971 123.803 164.262 124.808 162.855C125.813 161.447 127.521 160.945 129.029 161.548L133.45 163.257C133.953 163.458 134.254 164.061 134.053 164.564C133.852 165.066 133.249 165.368 132.747 165.167L128.325 163.458C127.421 163.156 126.818 163.558 126.416 164.061C126.115 164.564 125.914 165.368 126.517 166.072L128.526 168.283C128.928 168.685 128.828 169.288 128.426 169.691C128.325 169.691 128.124 169.791 127.823 169.791Z" fill="#080717"/>
<path d="M139.282 191.001C140.99 186.88 136.971 182.356 131.343 182.055C125.615 181.753 120.189 183.663 116.772 187.081L114.561 189.292C111.446 192.509 111.245 197.033 114.159 200.753C117.878 205.477 125.314 207.488 131.343 205.276L133.554 204.472C138.578 202.663 141.191 198.34 140.086 193.917L139.282 191.001Z" fill="#080717"/>
<path d="M130.438 189.694C126.117 189.694 121.495 189.292 116.973 188.388L117.475 187.885C120.49 184.869 125.012 183.16 130.137 183.16C130.539 183.16 130.84 183.16 131.242 183.16C133.855 183.261 136.166 184.467 137.573 186.176C138.276 187.081 138.678 188.187 138.678 189.192L135.463 189.493C133.955 189.594 132.247 189.694 130.438 189.694Z" fill="white"/>
<path d="M130.135 184.065C130.436 184.065 130.838 184.065 131.24 184.065C133.551 184.166 135.561 185.171 136.767 186.679C137.069 187.081 137.37 187.584 137.571 188.187L135.36 188.388C133.752 188.488 132.145 188.589 130.436 188.589C126.819 188.589 123 188.287 119.081 187.684C121.895 185.372 125.814 184.065 130.135 184.065ZM130.135 182.055C124.809 182.055 119.885 183.864 116.77 187.081L114.961 188.891C120.086 189.996 125.412 190.599 130.436 190.599C132.245 190.599 133.953 190.499 135.561 190.398L139.581 189.996C140.385 186.176 136.466 182.256 131.341 182.055C130.939 182.055 130.537 182.055 130.135 182.055Z" fill="#080717"/>
<path d="M132.346 204.975L131.341 205.377C125.312 207.589 117.876 205.578 114.158 200.853C112.047 198.139 111.645 195.123 112.65 192.309C113.655 192.309 114.761 192.409 115.766 192.61C124.006 193.917 130.336 198.943 132.346 204.975Z" fill="#FF7BAC"/>
<path d="M266.632 45.0336L265.695 48.5293L267.637 49.0496L268.573 45.5539L266.632 45.0336Z" fill="#282D33"/>
<path d="M266.632 45.0336L265.695 48.5293L267.637 49.0496L268.573 45.5539L266.632 45.0336Z" fill="#282D33"/>
<path d="M255.733 48.0753L254.312 49.498L256.873 52.055L258.293 50.6323L255.733 48.0753Z" fill="#282D33"/>
<path d="M254.932 59.4736L251.438 60.4102L251.958 62.3522L255.452 61.4156L254.932 59.4736Z" fill="#282D33"/>
<path d="M260.863 66.7847L259.93 70.2812L261.871 70.7998L262.804 67.3032L260.863 66.7847Z" fill="#282D33"/>
<path d="M271.678 63.9465L270.258 65.3691L272.818 67.9263L274.238 66.5036L271.678 63.9465Z" fill="#282D33"/>
<path d="M276.642 53.6462L273.148 54.5859L273.67 56.5275L277.164 55.5878L276.642 53.6462Z" fill="#282D33"/>
</g>
<defs>
<clipPath id="clip0_2260_2374">
<rect width="308" height="248" fill="white"/>
</clipPath>
</defs>
</svg>
