<svg width="320" height="307" viewBox="0 0 320 307" fill="none" xmlns="http://www.w3.org/2000/svg">
<mask id="path-1-outside-1_1807_608" maskUnits="userSpaceOnUse" x="0" y="54" width="320" height="253" fill="black">
<rect fill="white" y="54" width="320" height="253"/>
<path d="M318.721 306H305.775C305.562 306 305.389 305.826 305.389 305.614C305.389 305.401 305.562 305.227 305.775 305.227H318.721C318.934 305.227 319.108 305.401 319.108 305.614C319.108 305.826 318.934 306 318.721 306ZM299.688 306H7.74358C7.53103 306 7.35713 305.826 7.35713 305.614C7.35713 305.401 7.53103 305.227 7.74358 305.227H299.688C299.901 305.227 300.075 305.401 300.075 305.614C300.075 305.826 299.901 306 299.688 306ZM22.9311 69.1419C22.622 69.1419 22.3514 68.9487 22.2548 68.6589L20.767 64.1961L16.3421 62.7472C16.0523 62.6506 15.8591 62.3801 15.8591 62.071C15.8591 61.7619 16.0523 61.4914 16.3421 61.3948L20.8056 59.9072L22.2548 55.483C22.3514 55.1932 22.622 55 22.9311 55C23.2403 55 23.5108 55.1932 23.6074 55.483L25.0952 59.9458L29.5201 61.3948C29.81 61.4914 30.0032 61.7619 30.0032 62.071C30.0032 62.3801 29.81 62.6506 29.5201 62.7472L25.0566 64.2348L23.6074 68.6589C23.5108 68.9487 23.2403 69.1419 22.9311 69.1419ZM16.7286 62.071L21.0568 63.5199C21.2694 63.5972 21.4433 63.7518 21.5013 63.9643L22.9504 68.2919L24.3996 63.9643C24.4769 63.7518 24.6315 63.5779 24.8441 63.5199L29.1723 62.071L24.8441 60.622C24.6315 60.5447 24.4576 60.3902 24.3996 60.1776L22.9504 55.8501L21.5013 60.1776C21.424 60.3902 21.2694 60.564 21.0568 60.622L16.7286 62.071ZM308.751 74.2809C308.499 74.2809 308.268 74.1264 308.19 73.8752L307.263 71.0932L304.48 70.1659C304.229 70.0886 304.075 69.8568 304.075 69.6056C304.075 69.3544 304.229 69.1226 304.48 69.0453L307.263 68.118L308.19 65.336C308.268 65.1041 308.499 64.9303 308.751 64.9303C309.002 64.9303 309.234 65.0848 309.311 65.336L310.238 68.118L313.021 69.0453C313.253 69.1226 313.427 69.3544 313.427 69.6056C313.427 69.8568 313.272 70.0886 313.021 70.1659L310.238 71.0932L309.311 73.8752C309.234 74.1264 309.002 74.2809 308.751 74.2809ZM305.195 69.6249L307.591 70.417C307.765 70.475 307.9 70.6102 307.958 70.7841L308.751 73.1797L309.543 70.7841C309.601 70.6102 309.736 70.475 309.91 70.417L312.306 69.6249L309.91 68.8328C309.736 68.7749 309.601 68.6396 309.543 68.4657L308.751 66.0701L307.958 68.4657C307.9 68.6396 307.765 68.7749 307.591 68.8328L305.195 69.6249ZM154.653 268.385C154.402 268.385 154.17 268.23 154.093 267.979L153.165 265.197L150.383 264.27C150.132 264.192 149.977 263.961 149.977 263.709C149.977 263.458 150.132 263.226 150.383 263.149L153.165 262.222L154.093 259.44C154.17 259.189 154.402 259.034 154.653 259.034C154.904 259.034 155.136 259.189 155.213 259.44L156.141 262.222L158.923 263.149C159.175 263.226 159.329 263.458 159.329 263.709C159.329 263.961 159.175 264.192 158.923 264.27L156.141 265.197L155.213 267.979C155.136 268.211 154.904 268.385 154.653 268.385ZM151.098 263.709L153.494 264.502C153.668 264.56 153.803 264.695 153.861 264.869L154.653 267.264L155.445 264.869C155.503 264.695 155.639 264.56 155.812 264.502L158.208 263.709L155.812 262.917C155.639 262.859 155.503 262.724 155.445 262.55L154.653 260.155L153.861 262.55C153.803 262.724 153.668 262.859 153.494 262.917L151.098 263.709ZM161.706 126.869C159.986 126.869 158.576 125.459 158.576 123.739C158.576 122.02 159.986 120.609 161.706 120.609C163.426 120.609 164.836 122.02 164.836 123.739C164.836 125.459 163.426 126.869 161.706 126.869ZM161.706 121.343C160.392 121.343 159.329 122.406 159.329 123.72C159.329 125.033 160.392 126.096 161.706 126.096C163.02 126.096 164.083 125.033 164.083 123.72C164.083 122.425 163.02 121.343 161.706 121.343ZM264.579 243.791C262.86 243.791 261.449 242.381 261.449 240.661C261.449 238.942 262.86 237.531 264.579 237.531C266.299 237.531 267.71 238.942 267.71 240.661C267.71 242.381 266.318 243.791 264.579 243.791ZM264.579 238.266C263.265 238.266 262.203 239.328 262.203 240.642C262.203 241.956 263.265 243.018 264.579 243.018C265.893 243.018 266.956 241.956 266.956 240.642C266.975 239.347 265.893 238.266 264.579 238.266ZM3.31871 231.04C2.04342 231.04 1 229.997 1 228.722C1 227.447 2.04342 226.403 3.31871 226.403C4.594 226.403 5.63742 227.447 5.63742 228.722C5.63742 229.997 4.594 231.04 3.31871 231.04ZM3.31871 227.137C2.44919 227.137 1.75358 227.852 1.75358 228.702C1.75358 229.572 2.46852 230.267 3.31871 230.267C4.1689 230.267 4.88384 229.552 4.88384 228.702C4.88384 227.833 4.18822 227.137 3.31871 227.137Z"/>
</mask>
<path d="M318.721 306H305.775C305.562 306 305.389 305.826 305.389 305.614C305.389 305.401 305.562 305.227 305.775 305.227H318.721C318.934 305.227 319.108 305.401 319.108 305.614C319.108 305.826 318.934 306 318.721 306ZM299.688 306H7.74358C7.53103 306 7.35713 305.826 7.35713 305.614C7.35713 305.401 7.53103 305.227 7.74358 305.227H299.688C299.901 305.227 300.075 305.401 300.075 305.614C300.075 305.826 299.901 306 299.688 306ZM22.9311 69.1419C22.622 69.1419 22.3514 68.9487 22.2548 68.6589L20.767 64.1961L16.3421 62.7472C16.0523 62.6506 15.8591 62.3801 15.8591 62.071C15.8591 61.7619 16.0523 61.4914 16.3421 61.3948L20.8056 59.9072L22.2548 55.483C22.3514 55.1932 22.622 55 22.9311 55C23.2403 55 23.5108 55.1932 23.6074 55.483L25.0952 59.9458L29.5201 61.3948C29.81 61.4914 30.0032 61.7619 30.0032 62.071C30.0032 62.3801 29.81 62.6506 29.5201 62.7472L25.0566 64.2348L23.6074 68.6589C23.5108 68.9487 23.2403 69.1419 22.9311 69.1419ZM16.7286 62.071L21.0568 63.5199C21.2694 63.5972 21.4433 63.7518 21.5013 63.9643L22.9504 68.2919L24.3996 63.9643C24.4769 63.7518 24.6315 63.5779 24.8441 63.5199L29.1723 62.071L24.8441 60.622C24.6315 60.5447 24.4576 60.3902 24.3996 60.1776L22.9504 55.8501L21.5013 60.1776C21.424 60.3902 21.2694 60.564 21.0568 60.622L16.7286 62.071ZM308.751 74.2809C308.499 74.2809 308.268 74.1264 308.19 73.8752L307.263 71.0932L304.48 70.1659C304.229 70.0886 304.075 69.8568 304.075 69.6056C304.075 69.3544 304.229 69.1226 304.48 69.0453L307.263 68.118L308.19 65.336C308.268 65.1041 308.499 64.9303 308.751 64.9303C309.002 64.9303 309.234 65.0848 309.311 65.336L310.238 68.118L313.021 69.0453C313.253 69.1226 313.427 69.3544 313.427 69.6056C313.427 69.8568 313.272 70.0886 313.021 70.1659L310.238 71.0932L309.311 73.8752C309.234 74.1264 309.002 74.2809 308.751 74.2809ZM305.195 69.6249L307.591 70.417C307.765 70.475 307.9 70.6102 307.958 70.7841L308.751 73.1797L309.543 70.7841C309.601 70.6102 309.736 70.475 309.91 70.417L312.306 69.6249L309.91 68.8328C309.736 68.7749 309.601 68.6396 309.543 68.4657L308.751 66.0701L307.958 68.4657C307.9 68.6396 307.765 68.7749 307.591 68.8328L305.195 69.6249ZM154.653 268.385C154.402 268.385 154.17 268.23 154.093 267.979L153.165 265.197L150.383 264.27C150.132 264.192 149.977 263.961 149.977 263.709C149.977 263.458 150.132 263.226 150.383 263.149L153.165 262.222L154.093 259.44C154.17 259.189 154.402 259.034 154.653 259.034C154.904 259.034 155.136 259.189 155.213 259.44L156.141 262.222L158.923 263.149C159.175 263.226 159.329 263.458 159.329 263.709C159.329 263.961 159.175 264.192 158.923 264.27L156.141 265.197L155.213 267.979C155.136 268.211 154.904 268.385 154.653 268.385ZM151.098 263.709L153.494 264.502C153.668 264.56 153.803 264.695 153.861 264.869L154.653 267.264L155.445 264.869C155.503 264.695 155.639 264.56 155.812 264.502L158.208 263.709L155.812 262.917C155.639 262.859 155.503 262.724 155.445 262.55L154.653 260.155L153.861 262.55C153.803 262.724 153.668 262.859 153.494 262.917L151.098 263.709ZM161.706 126.869C159.986 126.869 158.576 125.459 158.576 123.739C158.576 122.02 159.986 120.609 161.706 120.609C163.426 120.609 164.836 122.02 164.836 123.739C164.836 125.459 163.426 126.869 161.706 126.869ZM161.706 121.343C160.392 121.343 159.329 122.406 159.329 123.72C159.329 125.033 160.392 126.096 161.706 126.096C163.02 126.096 164.083 125.033 164.083 123.72C164.083 122.425 163.02 121.343 161.706 121.343ZM264.579 243.791C262.86 243.791 261.449 242.381 261.449 240.661C261.449 238.942 262.86 237.531 264.579 237.531C266.299 237.531 267.71 238.942 267.71 240.661C267.71 242.381 266.318 243.791 264.579 243.791ZM264.579 238.266C263.265 238.266 262.203 239.328 262.203 240.642C262.203 241.956 263.265 243.018 264.579 243.018C265.893 243.018 266.956 241.956 266.956 240.642C266.975 239.347 265.893 238.266 264.579 238.266ZM3.31871 231.04C2.04342 231.04 1 229.997 1 228.722C1 227.447 2.04342 226.403 3.31871 226.403C4.594 226.403 5.63742 227.447 5.63742 228.722C5.63742 229.997 4.594 231.04 3.31871 231.04ZM3.31871 227.137C2.44919 227.137 1.75358 227.852 1.75358 228.702C1.75358 229.572 2.46852 230.267 3.31871 230.267C4.1689 230.267 4.88384 229.552 4.88384 228.702C4.88384 227.833 4.18822 227.137 3.31871 227.137Z" fill="black"/>
<path d="M318.721 306H305.775C305.562 306 305.389 305.826 305.389 305.614C305.389 305.401 305.562 305.227 305.775 305.227H318.721C318.934 305.227 319.108 305.401 319.108 305.614C319.108 305.826 318.934 306 318.721 306ZM299.688 306H7.74358C7.53103 306 7.35713 305.826 7.35713 305.614C7.35713 305.401 7.53103 305.227 7.74358 305.227H299.688C299.901 305.227 300.075 305.401 300.075 305.614C300.075 305.826 299.901 306 299.688 306ZM22.9311 69.1419C22.622 69.1419 22.3514 68.9487 22.2548 68.6589L20.767 64.1961L16.3421 62.7472C16.0523 62.6506 15.8591 62.3801 15.8591 62.071C15.8591 61.7619 16.0523 61.4914 16.3421 61.3948L20.8056 59.9072L22.2548 55.483C22.3514 55.1932 22.622 55 22.9311 55C23.2403 55 23.5108 55.1932 23.6074 55.483L25.0952 59.9458L29.5201 61.3948C29.81 61.4914 30.0032 61.7619 30.0032 62.071C30.0032 62.3801 29.81 62.6506 29.5201 62.7472L25.0566 64.2348L23.6074 68.6589C23.5108 68.9487 23.2403 69.1419 22.9311 69.1419ZM16.7286 62.071L21.0568 63.5199C21.2694 63.5972 21.4433 63.7518 21.5013 63.9643L22.9504 68.2919L24.3996 63.9643C24.4769 63.7518 24.6315 63.5779 24.8441 63.5199L29.1723 62.071L24.8441 60.622C24.6315 60.5447 24.4576 60.3902 24.3996 60.1776L22.9504 55.8501L21.5013 60.1776C21.424 60.3902 21.2694 60.564 21.0568 60.622L16.7286 62.071ZM308.751 74.2809C308.499 74.2809 308.268 74.1264 308.19 73.8752L307.263 71.0932L304.48 70.1659C304.229 70.0886 304.075 69.8568 304.075 69.6056C304.075 69.3544 304.229 69.1226 304.48 69.0453L307.263 68.118L308.19 65.336C308.268 65.1041 308.499 64.9303 308.751 64.9303C309.002 64.9303 309.234 65.0848 309.311 65.336L310.238 68.118L313.021 69.0453C313.253 69.1226 313.427 69.3544 313.427 69.6056C313.427 69.8568 313.272 70.0886 313.021 70.1659L310.238 71.0932L309.311 73.8752C309.234 74.1264 309.002 74.2809 308.751 74.2809ZM305.195 69.6249L307.591 70.417C307.765 70.475 307.9 70.6102 307.958 70.7841L308.751 73.1797L309.543 70.7841C309.601 70.6102 309.736 70.475 309.91 70.417L312.306 69.6249L309.91 68.8328C309.736 68.7749 309.601 68.6396 309.543 68.4657L308.751 66.0701L307.958 68.4657C307.9 68.6396 307.765 68.7749 307.591 68.8328L305.195 69.6249ZM154.653 268.385C154.402 268.385 154.17 268.23 154.093 267.979L153.165 265.197L150.383 264.27C150.132 264.192 149.977 263.961 149.977 263.709C149.977 263.458 150.132 263.226 150.383 263.149L153.165 262.222L154.093 259.44C154.17 259.189 154.402 259.034 154.653 259.034C154.904 259.034 155.136 259.189 155.213 259.44L156.141 262.222L158.923 263.149C159.175 263.226 159.329 263.458 159.329 263.709C159.329 263.961 159.175 264.192 158.923 264.27L156.141 265.197L155.213 267.979C155.136 268.211 154.904 268.385 154.653 268.385ZM151.098 263.709L153.494 264.502C153.668 264.56 153.803 264.695 153.861 264.869L154.653 267.264L155.445 264.869C155.503 264.695 155.639 264.56 155.812 264.502L158.208 263.709L155.812 262.917C155.639 262.859 155.503 262.724 155.445 262.55L154.653 260.155L153.861 262.55C153.803 262.724 153.668 262.859 153.494 262.917L151.098 263.709ZM161.706 126.869C159.986 126.869 158.576 125.459 158.576 123.739C158.576 122.02 159.986 120.609 161.706 120.609C163.426 120.609 164.836 122.02 164.836 123.739C164.836 125.459 163.426 126.869 161.706 126.869ZM161.706 121.343C160.392 121.343 159.329 122.406 159.329 123.72C159.329 125.033 160.392 126.096 161.706 126.096C163.02 126.096 164.083 125.033 164.083 123.72C164.083 122.425 163.02 121.343 161.706 121.343ZM264.579 243.791C262.86 243.791 261.449 242.381 261.449 240.661C261.449 238.942 262.86 237.531 264.579 237.531C266.299 237.531 267.71 238.942 267.71 240.661C267.71 242.381 266.318 243.791 264.579 243.791ZM264.579 238.266C263.265 238.266 262.203 239.328 262.203 240.642C262.203 241.956 263.265 243.018 264.579 243.018C265.893 243.018 266.956 241.956 266.956 240.642C266.975 239.347 265.893 238.266 264.579 238.266ZM3.31871 231.04C2.04342 231.04 1 229.997 1 228.722C1 227.447 2.04342 226.403 3.31871 226.403C4.594 226.403 5.63742 227.447 5.63742 228.722C5.63742 229.997 4.594 231.04 3.31871 231.04ZM3.31871 227.137C2.44919 227.137 1.75358 227.852 1.75358 228.702C1.75358 229.572 2.46852 230.267 3.31871 230.267C4.1689 230.267 4.88384 229.552 4.88384 228.702C4.88384 227.833 4.18822 227.137 3.31871 227.137Z" stroke="black" mask="url(#path-1-outside-1_1807_608)"/>
<path d="M91.3457 86.0596C94.4856 83.1968 97.6193 81.856 100.446 82.249L100.728 82.2939C103.449 82.7876 105.984 84.9249 108.127 88.4219L108.564 89.1641L108.786 89.5645C113.26 97.795 115.597 111.93 115.127 127.731L115.072 129.291C114.491 143.231 111.547 165.128 100.747 190.378L100.745 190.377C100.676 190.573 100.502 190.703 100.307 190.733L100.218 190.74H100.147L100.13 190.737L70.5518 186.562V186.561C70.2818 186.527 70.0701 186.316 70.0391 186.045V186.046C66.7091 158.81 69.9862 136.949 73.2998 123.396L73.6807 121.883C77.6879 106.33 84.0039 93.2275 90.7168 86.6523H90.7178L91.3457 86.0596ZM100.288 83.4102C97.8724 83.0637 95.0802 84.2494 92.1475 86.9277L91.5596 87.4834C85.6068 93.3159 79.0544 105.773 74.7197 122.83C70.3991 139.833 68.2899 161.379 71.1641 185.426L99.832 189.479C109.303 167.171 113.286 145.89 113.873 128.36C114.443 111.324 111.807 97.8606 107.912 90.4434L107.531 89.7441C105.431 86.0455 103.005 83.9156 100.527 83.4502L100.288 83.4102Z" fill="black" stroke="black" stroke-width="0.5"/>
<path d="M70.7178 185.361L70.7256 185.362L100.304 189.539H100.303C100.54 189.568 100.732 189.734 100.797 189.957L100.816 190.058L100.817 190.061L101.768 199.782H101.766C101.786 199.935 101.736 200.07 101.666 200.172L101.59 200.265C101.474 200.38 101.323 200.443 101.167 200.443H101.096L101.079 200.44L66.9258 195.614H66.9189V195.613C66.7487 195.585 66.5847 195.492 66.4902 195.304L66.4912 195.303C66.3999 195.138 66.4106 194.959 66.459 194.814L66.4619 194.808L66.4639 194.801L70.0889 185.728C70.1761 185.502 70.3968 185.369 70.6211 185.358L70.7178 185.361ZM67.8555 194.549L100.499 199.163L99.6689 190.655L71.0078 186.604L67.8555 194.549ZM77.8096 114.001C77.9066 113.697 78.2368 113.525 78.5566 113.633L78.5576 113.632C78.5603 113.633 78.5628 113.634 78.5654 113.635C78.5672 113.635 78.5695 113.636 78.5713 113.637H78.5703C78.8728 113.735 79.044 114.065 78.9336 114.385L78.9346 114.386C78.7197 115.064 78.4963 115.715 78.2842 116.402L78.2832 116.401C78.2119 116.661 77.9802 116.807 77.7285 116.807C77.7032 116.807 77.6318 116.807 77.5518 116.777V116.778C77.5463 116.777 77.5415 116.773 77.5361 116.771C77.5283 116.768 77.5196 116.767 77.5117 116.763V116.762C77.2304 116.654 77.0664 116.342 77.1553 116.046V116.044L77.4756 115.018L77.8096 114.001ZM80.4717 106.844C80.5922 106.548 80.927 106.392 81.2354 106.515C81.5332 106.634 81.6925 106.968 81.5684 107.278L81.5674 107.28C80.8302 109.083 80.1105 110.992 79.4434 112.918L79.4414 112.924C79.3565 113.15 79.13 113.332 78.873 113.332C78.846 113.332 78.7633 113.333 78.6748 113.295V113.297C78.6712 113.295 78.6677 113.293 78.6641 113.291C78.6614 113.29 78.658 113.289 78.6553 113.288V113.286C78.3913 113.17 78.2003 112.861 78.3203 112.544H78.3193C78.8219 111.08 79.3543 109.635 79.9092 108.232L80.4717 106.844ZM80.1523 104.292L80.1533 104.291C80.1556 104.291 80.1579 104.293 80.1602 104.293C80.1633 104.294 80.1668 104.293 80.1699 104.294L80.1689 104.295C91.2574 106.52 102.575 108.113 113.856 109.06H113.858L113.975 109.082C114.238 109.158 114.429 109.402 114.401 109.7L114.4 109.714L114.397 109.727C114.341 110.01 114.105 110.225 113.801 110.226H113.755L113.744 110.225C102.421 109.276 91.0441 107.678 79.9141 105.447V105.446C79.5709 105.381 79.3977 105.064 79.4541 104.754L79.4873 104.637C79.5893 104.381 79.8562 104.22 80.1523 104.292Z" fill="black" stroke="black" stroke-width="0.5"/>
<path d="M72.1582 195.155L72.1709 195.156L96.1709 198.543L96.1699 198.544C96.4424 198.576 96.655 198.806 96.6836 199.069L96.6846 199.185C96.6736 199.294 96.1534 203.861 93.8604 209.534C91.5661 215.21 87.4883 222.014 80.3467 226.553L80.3457 226.552C80.2375 226.638 80.115 226.662 80.0186 226.662C79.8716 226.662 79.687 226.605 79.5596 226.446V226.445C73.9676 220.103 71.947 212.444 71.3262 206.36C70.7052 200.275 71.4822 195.744 71.5039 195.636L71.5361 195.527C71.6198 195.32 71.812 195.176 72.041 195.155H72.1582ZM72.5967 196.424C72.3988 197.924 71.9691 202.223 72.6631 207.506C73.3931 213.062 75.3646 219.688 80.1357 225.29C86.2799 221.224 90.0207 215.401 92.2715 210.266C94.4103 205.386 95.1971 201.141 95.4277 199.651L72.5967 196.424Z" fill="black" stroke="black" stroke-width="0.5"/>
<path d="M77.0254 195.858L77.0264 195.857L91.3311 197.876L91.3379 197.877L91.4648 197.912C91.5421 197.943 91.6061 197.987 91.6611 198.04L91.7383 198.125L91.748 198.138L91.7568 198.152C91.8402 198.291 91.8693 198.439 91.8418 198.604L91.8398 198.615L91.8369 198.627C89.0544 208.972 85.432 216.403 81.3457 220.069L81.3203 220.093L81.29 220.107C81.2357 220.135 81.1471 220.176 81.0498 220.194L80.9502 220.204H80.877L80.8564 220.2C80.6918 220.173 80.5334 220.086 80.4365 219.925V219.924C77.5301 215.244 76.1788 207.322 76.3545 196.438H76.3535C76.3536 196.244 76.4533 196.096 76.5508 195.999L76.6074 195.95C76.7393 195.853 76.8995 195.837 77.0254 195.858ZM77.5381 197.112C77.4175 209.188 79.318 215.462 81.0781 218.669C83.69 216.055 87.2979 210.546 90.5029 198.945L77.5381 197.112ZM69.5645 191.924C69.713 191.696 70.0038 191.588 70.2744 191.696L70.3789 191.751C70.6074 191.899 70.7162 192.19 70.6074 192.461L70.6064 192.46L70.0635 193.896C69.9686 194.147 69.7417 194.268 69.5127 194.268C69.4964 194.268 69.4627 194.267 69.4268 194.264C69.3968 194.261 69.3483 194.252 69.2969 194.229V194.231C69.2938 194.23 69.2912 194.228 69.2881 194.227C69.2851 194.225 69.2814 194.225 69.2783 194.224V194.222C68.993 194.096 68.8423 193.771 68.9639 193.468H68.9648L69.5078 192.033L69.5098 192.028L69.5645 191.924ZM71.3945 187.115C71.5432 186.887 71.834 186.781 72.1045 186.889C72.4022 187.008 72.5617 187.342 72.4375 187.652L72.4365 187.651L71.0312 191.351C70.9341 191.608 70.6844 191.723 70.4805 191.723C70.4642 191.723 70.4305 191.722 70.3945 191.719C70.3645 191.716 70.3161 191.707 70.2646 191.685V191.688C70.2598 191.686 70.2558 191.682 70.251 191.68C70.2495 191.679 70.2475 191.679 70.2461 191.679V191.678C69.997 191.568 69.8508 191.307 69.8984 191.04L69.9316 190.923L71.3379 187.225L71.3398 187.221L71.3945 187.115ZM89.624 127.369C92.8562 126.653 96.1615 127.244 98.9443 129.017L99.4561 129.36C101.963 131.134 103.695 133.733 104.368 136.755L104.433 137.065C105.708 143.588 101.516 150.014 94.9756 151.46L94.9688 151.462C94.0603 151.64 93.1642 151.747 92.2822 151.747C86.785 151.747 81.8088 148.067 80.3438 142.608L80.2139 142.075C79.4954 138.868 80.0886 135.554 81.8662 132.778L82.21 132.268C83.9886 129.767 86.5945 128.041 89.624 127.369ZM92.2998 128.267C91.4909 128.267 90.6821 128.352 89.8564 128.541L89.8545 128.542C87.128 129.137 84.764 130.713 83.1602 132.973L82.8496 133.434C81.349 135.783 80.7875 138.554 81.2617 141.28L81.3701 141.825V141.826L81.5078 142.381C83.0691 148.048 88.8718 151.585 94.6904 150.288L94.6914 150.287L95.248 150.15C100.932 148.593 104.476 142.805 103.176 137.004V137.003C102.539 134.103 100.785 131.614 98.2715 130.018H98.2705C96.4812 128.868 94.4164 128.267 92.2998 128.267Z" fill="black" stroke="black" stroke-width="0.5"/>
<path d="M78.2959 233.14C77.3449 242.817 75.9184 252.494 74.0518 262.03L73.5576 261.958C74.491 252.298 75.9174 242.603 77.8018 233.066L78.2959 233.14ZM98.7959 219.585C99.1665 224.724 99.0608 229.864 98.4961 234.968L97.998 234.959C97.6097 229.836 97.7154 224.696 98.2979 219.574L98.7959 219.585ZM65.7666 217.005C65.0606 222.109 63.8785 227.108 62.2373 232.001L61.752 231.888L61.8906 230.932C62.6083 226.158 63.7436 221.478 65.2822 216.891L65.7666 217.005ZM90.7051 129.995C95.688 129.159 100.537 132.375 101.641 137.351L101.734 137.817C102.141 140.155 101.661 142.53 100.357 144.541L100.358 144.542C98.9856 146.686 96.8529 148.181 94.3604 148.739L94.3564 148.74L94.3057 148.496L94.3555 148.74C93.6585 148.883 92.9725 148.974 92.2822 148.974C88.0296 148.974 84.1657 146.117 83.041 141.891L82.9414 141.478C81.803 136.341 85.0734 131.224 90.2227 130.089L90.7051 129.995ZM92.2822 131.039C91.6851 131.039 91.0702 131.107 90.4727 131.243L90.4717 131.244C85.9594 132.25 83.0903 136.715 84.0977 141.211L84.2021 141.628C85.3855 145.885 89.7239 148.541 94.0928 147.567H94.0938L94.5 147.468C96.5107 146.924 98.219 145.661 99.3574 143.902C100.554 142.009 100.962 139.779 100.467 137.601V137.6C99.6129 133.716 96.1272 131.039 92.2822 131.039Z" fill="black" stroke="black" stroke-width="0.5"/>
<path d="M182.131 63.9561C184.68 62.4669 188.303 62.5396 192.56 64.0801L192.989 64.2393C202.067 67.6749 213.497 77.3727 223.727 90.2549L224.55 91.3018C233.151 102.354 244.748 120.528 252.838 145.857H252.836C252.883 145.99 252.872 146.128 252.829 146.241C252.787 146.354 252.706 146.461 252.592 146.529L252.593 146.53L227.432 162.605L227.431 162.604C227.339 162.664 227.24 162.697 227.121 162.697C226.958 162.697 226.835 162.629 226.742 162.56L226.732 162.553L226.724 162.544C206.374 144.076 194.55 125.379 188.223 112.95V112.951C180.631 98.0726 176.577 83.4212 177.393 73.7705L177.479 72.9141C177.977 68.708 179.471 65.643 181.888 64.1045L182.131 63.9561ZM192.144 65.1641C188.146 63.7454 184.923 63.6954 182.735 64.9609L182.526 65.0879C180.474 66.3948 179.121 69.1202 178.657 73.0469L178.577 73.8477C177.87 82.152 181.045 95.8571 188.917 111.604C196.764 127.301 209.264 145.001 227.183 161.36L251.562 145.774C244.148 122.707 233.247 103.984 222.226 90.3145C211.168 76.6005 200.008 67.9942 192.144 65.165V65.1641Z" fill="black" stroke="black" stroke-width="0.5"/>
<path d="M252.065 145.5C252.279 145.411 252.531 145.445 252.702 145.612H252.703L259.776 152.368L259.78 152.372L259.857 152.465C259.918 152.553 259.964 152.666 259.963 152.793L259.956 152.871C259.928 153.041 259.84 153.183 259.707 153.289L259.696 153.297L259.686 153.304L230.652 171.87L230.591 171.91H230.518C230.515 171.91 230.506 171.912 230.473 171.92C230.443 171.927 230.378 171.945 230.307 171.945C230.281 171.945 230.205 171.946 230.122 171.913V171.914C229.942 171.854 229.813 171.726 229.753 171.546V171.545L226.569 162.317L226.568 162.315C226.492 162.086 226.551 161.843 226.729 161.684L226.813 161.62L251.974 145.548L251.976 145.546L252.065 145.5ZM227.826 162.357L230.614 170.435L258.374 152.686L252.183 146.776L227.826 162.357ZM209.563 75.707C209.793 75.5546 210.098 75.5737 210.298 75.75L210.377 75.835L210.386 75.8457L210.385 75.8467C210.56 76.1087 210.51 76.4698 210.257 76.6592L210.253 76.6611C201.06 83.2999 191.375 89.4997 181.478 95.0498C181.396 95.1008 181.302 95.1347 181.197 95.1348C180.971 95.1348 180.795 95.005 180.69 94.8486L180.685 94.8398L180.68 94.8311C180.525 94.5537 180.621 94.2014 180.883 94.0273L180.898 94.0176C190.761 88.4769 200.396 82.3222 209.556 75.7119L209.563 75.7061V75.707ZM214.887 83.5352C215.094 83.3542 215.396 83.3319 215.627 83.4873L215.721 83.5645L215.727 83.5703L215.544 83.7412L215.727 83.5713C215.965 83.8265 216.203 84.0859 216.443 84.3496L217.172 85.1533L217.175 85.1562L217.243 85.251C217.376 85.4774 217.35 85.7709 217.138 85.9766C217.011 86.1314 216.826 86.1494 216.723 86.1494C216.576 86.1494 216.391 86.0924 216.264 85.9336V85.9326C215.792 85.4097 215.321 84.8892 214.851 84.3857L214.846 84.3799C214.638 84.1432 214.638 83.783 214.875 83.5469L214.887 83.5352ZM209.589 78.1045C209.786 77.9614 210.051 77.9672 210.249 78.082L210.342 78.1484L210.349 78.1543H210.348C211.433 79.1705 212.518 80.2357 213.602 81.335L214.686 82.4443L214.694 82.4531H214.693C214.901 82.6898 214.902 83.051 214.665 83.2871L214.655 83.2969L214.645 83.3047C214.531 83.3956 214.389 83.4647 214.242 83.4648C214.086 83.4648 213.935 83.4024 213.819 83.2871L213.814 83.2822C212.392 81.7935 210.952 80.3582 209.531 79.0283V79.0273C209.279 78.7999 209.298 78.4166 209.497 78.1895L209.589 78.1045Z" fill="black" stroke="black" stroke-width="0.5"/>
<path d="M254.699 155.061C254.944 154.9 255.245 154.954 255.435 155.127L255.508 155.208L255.517 155.219L255.309 155.358L255.517 155.22C255.583 155.319 258.174 159.114 260.145 164.898C262.118 170.691 263.476 178.498 261.038 186.593L261.039 186.594C260.978 186.806 260.779 186.96 260.56 186.995L260.464 187.003H260.394L260.377 187C251.984 185.832 245.437 181.339 240.983 177.131C237.087 173.45 234.78 169.974 234.228 169.097L234.099 168.887C233.962 168.642 233.993 168.272 234.288 168.099L254.699 155.06V155.061ZM235.438 168.769C236.268 170.033 238.752 173.572 242.733 177.125C246.921 180.863 252.75 184.604 260.036 185.75C262.032 178.667 261.057 171.819 259.402 166.464C257.829 161.372 255.645 157.645 254.843 156.371L235.438 168.769Z" fill="black" stroke="black" stroke-width="0.5"/>
<path d="M250.718 157.634C250.836 157.591 250.976 157.581 251.109 157.634L251.196 157.674C251.288 157.722 251.394 157.802 251.452 157.934H251.454C256.156 167.768 258.225 175.546 257.547 180.991L257.546 181.001L257.299 180.96L257.545 181.001C257.517 181.166 257.43 181.323 257.269 181.42L257.261 181.426L257.252 181.43C257.156 181.477 257.048 181.509 256.947 181.509C256.922 181.509 256.848 181.509 256.767 181.479V181.479C251.521 179.842 245.13 174.581 238.279 166.326V166.325C238.149 166.183 238.127 165.995 238.155 165.854H238.156C238.188 165.677 238.285 165.551 238.425 165.465L250.601 157.69L250.607 157.687L250.718 157.634ZM239.62 166.101C247.371 175.328 252.948 178.829 256.425 180.122C256.691 176.478 255.809 169.988 250.664 159.055L239.62 166.101ZM251.351 147.458C251.589 147.221 251.958 147.221 252.196 147.458L255.012 150.248V150.249L255.09 150.344C255.231 150.554 255.221 150.822 255.066 151.026C255.304 150.839 255.636 150.853 255.856 151.073L256.947 152.161L257.025 152.256C257.16 152.456 257.16 152.712 257.025 152.912L256.947 153.007C256.831 153.122 256.681 153.186 256.524 153.186C256.407 153.186 256.293 153.15 256.194 153.083L256.102 153.007L255.011 151.919C254.793 151.702 254.775 151.377 254.954 151.141C254.848 151.225 254.721 151.272 254.589 151.272C254.433 151.272 254.283 151.21 254.167 151.095L251.352 148.305L251.351 148.304C251.112 148.066 251.112 147.696 251.351 147.458ZM211.263 100.524C217.818 99.2527 224.244 103.432 225.694 109.957L225.758 110.258C226.375 113.37 225.764 116.565 224.042 119.254C222.375 121.856 219.856 123.704 216.885 124.515L216.284 124.663C215.389 124.86 214.491 124.967 213.591 124.967C211.255 124.967 208.974 124.304 206.964 123.033V123.032C204.181 121.259 202.258 118.519 201.54 115.296L201.477 114.994C200.86 111.882 201.47 108.687 203.192 105.998L203.537 105.488C205.316 102.988 207.921 101.26 210.95 100.589L211.263 100.524ZM213.626 101.487C212.835 101.487 212.025 101.573 211.215 101.745L211.214 101.744C208.488 102.34 206.126 103.916 204.522 106.175L204.212 106.636C202.711 108.986 202.149 111.757 202.623 114.483L202.731 115.027L202.732 115.029L202.864 115.568C203.591 118.237 205.281 120.517 207.637 122.014L208.113 122.301C210.524 123.673 213.326 124.102 216.053 123.49H216.054L216.594 123.358C219.27 122.634 221.557 120.948 223.058 118.599L223.346 118.123C224.629 115.879 225.089 113.296 224.646 110.751L224.538 110.207C223.368 105.041 218.738 101.487 213.626 101.487Z" fill="black" stroke="black" stroke-width="0.5"/>
<path d="M266.05 195.325C271.826 203.158 277.232 211.325 282.216 219.667L281.8 219.943C276.041 212.11 270.617 203.944 265.634 195.602L266.05 195.325ZM241.744 191.814C244.444 196.197 246.738 200.809 248.591 205.614L248.145 205.835C245.445 201.436 243.151 196.842 241.298 192.036L241.744 191.814ZM270.48 175.365C274.045 179.096 277.24 183.109 280.063 187.439L279.674 187.749C276.109 184.018 272.914 179.987 270.091 175.675L270.48 175.365ZM212.029 103.216C217.012 102.38 221.862 105.595 222.965 110.571L223.058 111.038C223.464 113.376 222.986 115.751 221.682 117.762L221.683 117.763C220.31 119.906 218.177 121.402 215.685 121.96L215.682 121.961C214.996 122.105 214.292 122.177 213.606 122.177C211.913 122.177 210.25 121.733 208.769 120.861L208.475 120.682C206.325 119.313 204.826 117.186 204.266 114.699V114.698C203.127 109.562 206.398 104.445 211.547 103.31L212.029 103.216ZM213.624 104.26C213.027 104.26 212.412 104.328 211.814 104.464L211.813 104.465C207.442 105.439 204.613 109.66 205.356 114.011L205.439 114.432V114.433L205.539 114.838C206.084 116.842 207.349 118.544 209.111 119.68L209.472 119.895C211.29 120.922 213.385 121.251 215.434 120.788H215.436L215.842 120.688C217.718 120.181 219.332 119.048 220.464 117.469L220.698 117.123C221.895 115.23 222.303 113 221.809 110.821V110.82C220.937 106.919 217.469 104.26 213.624 104.26Z" fill="black" stroke="black" stroke-width="0.5"/>
<path d="M244.522 0.75C249.131 0.750004 253.159 3.24614 255.334 6.94336C257.413 6.6826 260.638 6.35291 263.44 6.38086C264.877 6.39518 266.218 6.50364 267.242 6.77051C267.754 6.90389 268.201 7.08046 268.543 7.31543C268.887 7.55189 269.139 7.85721 269.225 8.24512L269.249 8.39258C269.286 8.73583 269.184 9.07343 268.993 9.39258C268.776 9.75471 268.436 10.1088 268.018 10.4502C267.18 11.1333 265.977 11.8068 264.646 12.4336C262.042 13.6601 258.888 14.7331 256.846 15.3721C255.813 21.2247 250.681 25.6953 244.522 25.6953C240.268 25.6953 236.488 23.5654 234.232 20.3066C232.323 20.549 229.423 20.834 226.804 20.834C225.302 20.834 223.875 20.7372 222.781 20.4736C222.235 20.342 221.757 20.1657 221.392 19.9277C221.024 19.6886 220.755 19.3751 220.666 18.9717L220.665 18.9727C220.579 18.5969 220.67 18.2254 220.869 17.876C221.067 17.5292 221.379 17.1906 221.764 16.8643C222.534 16.2112 223.641 15.5674 224.868 14.9678C227.259 13.7992 230.159 12.7708 232.06 12.1494C232.625 5.76501 237.99 0.75 244.522 0.75ZM255.555 15.7676C252.943 16.5522 250.175 17.2893 247.292 17.9541L245.984 18.249C242.434 19.0415 238.868 19.6694 235.58 20.123C237.646 22.7847 240.886 24.5107 244.522 24.5107C249.887 24.5107 254.384 20.7823 255.555 15.7676ZM232.028 13.4033C228.389 14.6228 225.784 15.7562 224.109 16.7041C223.246 17.1929 222.64 17.6264 222.268 17.9883C222.082 18.1693 221.963 18.3245 221.897 18.4512C221.848 18.5464 221.833 18.6146 221.834 18.6621L221.839 18.7021L221.84 18.708L221.854 18.75C221.874 18.7961 221.918 18.8545 222.005 18.9219C222.121 19.0117 222.298 19.1039 222.549 19.1914C223.05 19.3662 223.798 19.5059 224.81 19.583C226.768 19.7323 229.666 19.6441 233.559 19.1846C232.61 17.466 232.06 15.4889 232.028 13.4033ZM264.986 7.64355C262.959 7.49794 259.954 7.59724 255.914 8.08594C256.643 9.6532 257.037 11.3883 257.037 13.2314C257.037 13.5173 257.024 13.803 257.007 14.0889C260.95 12.8174 263.773 11.6302 265.588 10.6348C266.523 10.1216 267.18 9.66572 267.584 9.28516C267.786 9.09475 267.915 8.93137 267.987 8.79785C268.059 8.66402 268.063 8.58085 268.052 8.53418L268.049 8.52539V8.52441C268.038 8.47373 267.998 8.39923 267.88 8.30859C267.76 8.21709 267.577 8.12263 267.318 8.03418C266.802 7.85752 266.03 7.71853 264.986 7.64355ZM233.237 13.6416C233.307 15.6245 233.885 17.4569 234.851 19.0508C238.25 18.5961 242.019 17.9389 245.735 17.1113H245.736L247.077 16.8096C250.129 16.1073 253.045 15.3184 255.78 14.4785C255.822 14.066 255.851 13.6547 255.851 13.2314C255.851 7.00002 250.772 1.93458 244.522 1.93457C238.29 1.93457 233.212 6.99956 233.229 13.2305V13.2314L233.237 13.6416Z" fill="black" stroke="black" stroke-width="0.5"/>
<path d="M197.377 166.541L208.111 188.545L215.062 202.797L215.223 203.127L215.558 203.274L226.262 207.991L196.647 217.026L185.906 195.008L175.304 173.275L197.377 166.541ZM164.124 176.686L167.458 200.636L170.837 224.9L141.223 233.936L147.471 224.046L147.667 223.737L147.616 223.374L145.427 207.669L142.05 183.42L164.124 176.686Z" fill="#F7C845" stroke="black" stroke-width="2"/>
<path d="M140.95 182.695L164.957 175.37L166.172 184.083L142.164 191.407L140.95 182.695Z" fill="black"/>
<path d="M201.747 173.229L177.739 180.553L173.883 172.646L197.89 165.322L201.747 173.229Z" fill="black"/>
<path d="M83.314 65.9055L180.512 36.2513C188.27 33.8844 196.467 38.2072 198.815 45.9055L228.253 142.394C230.597 150.078 226.228 158.25 218.456 160.621L121.258 190.275C113.501 192.642 105.299 188.305 102.955 180.621L73.5171 84.1328L73.4121 83.7718C71.3102 76.1941 75.6635 68.2396 83.314 65.9055Z" fill="#F7C845" stroke="black" stroke-width="2"/>
<path d="M93.2447 73.0249L176.253 47.7C182.869 45.6814 189.618 49.0161 191.43 54.9551L214.807 131.579C216.615 137.507 212.893 144.048 206.264 146.07L123.257 171.395C116.641 173.414 109.888 170.068 108.079 164.14L84.7024 87.5166C82.9222 81.681 86.5014 75.2516 92.9358 73.1232L93.2447 73.0249Z" fill="white" stroke="black" stroke-width="2"/>
<path d="M228.127 141.978C230.486 149.712 226.122 157.917 218.355 160.287L121.156 189.941C113.403 192.306 105.192 187.954 102.828 180.205L101.484 175.798C105.701 179.956 112.012 181.733 118.087 179.88L215.287 150.225C221.348 148.364 225.598 143.368 226.78 137.564L228.127 141.978Z" fill="#C49D31" stroke="black" stroke-width="2"/>
<path d="M165.124 113.33C162.17 115.371 157.748 117.441 152.633 119.001C147.518 120.562 142.694 121.313 139.119 121.264C139.14 120.286 139.5 119.321 140.123 118.444C141.025 117.163 142.485 116.115 144.297 115.562L157.66 111.485C160.682 110.546 163.722 111.378 165.124 113.33Z" fill="white"/>
<ellipse cx="166.936" cy="105.626" rx="16.1367" ry="25.998" transform="rotate(-14.5082 166.936 105.626)" fill="black" stroke="black" stroke-width="2"/>
<ellipse cx="133.963" cy="114.158" rx="16.1367" ry="25.998" transform="rotate(-14.5082 133.963 114.158)" fill="black" stroke="black" stroke-width="2"/>
<ellipse cx="131.772" cy="112.874" rx="16.1367" ry="25.998" transform="rotate(-14.5082 131.772 112.874)" fill="white" stroke="black" stroke-width="2"/>
<ellipse cx="163.018" cy="104.787" rx="16.1367" ry="25.998" transform="rotate(-14.5082 163.018 104.787)" fill="white" stroke="black" stroke-width="2"/>
<rect x="125.945" y="119.014" width="3.58593" height="3.58593" transform="rotate(-14.5082 125.945 119.014)" fill="black"/>
<rect x="125.055" y="115.539" width="3.58593" height="3.58593" transform="rotate(-14.5082 125.055 115.539)" fill="black"/>
<rect x="121.57" y="116.441" width="3.58593" height="3.58593" transform="rotate(-14.5082 121.57 116.441)" fill="black"/>
<rect x="128.527" y="114.641" width="3.58593" height="3.58593" transform="rotate(-14.5082 128.527 114.641)" fill="black"/>
<rect x="124.152" y="112.068" width="3.58593" height="3.58593" transform="rotate(-14.5082 124.152 112.068)" fill="black"/>
<rect x="123.258" y="108.596" width="3.58593" height="3.58593" transform="rotate(-14.5082 123.258 108.596)" fill="black"/>
<rect x="127.625" y="111.17" width="3.58593" height="3.58593" transform="rotate(-14.5082 127.625 111.17)" fill="black"/>
<rect x="120.688" y="112.965" width="3.58593" height="3.58593" transform="rotate(-14.5082 120.688 112.965)" fill="black"/>
<rect x="157.191" y="110.926" width="3.58593" height="3.58593" transform="rotate(-14.5082 157.191 110.926)" fill="black"/>
<rect x="156.301" y="107.451" width="3.58593" height="3.58593" transform="rotate(-14.5082 156.301 107.451)" fill="black"/>
<rect x="152.816" y="108.354" width="3.58593" height="3.58593" transform="rotate(-14.5082 152.816 108.354)" fill="black"/>
<rect x="159.773" y="106.553" width="3.58593" height="3.58593" transform="rotate(-14.5082 159.773 106.553)" fill="black"/>
<rect x="155.398" y="103.982" width="3.58593" height="3.58593" transform="rotate(-14.5082 155.398 103.982)" fill="black"/>
<rect x="154.504" y="100.508" width="3.58593" height="3.58593" transform="rotate(-14.5082 154.504 100.508)" fill="black"/>
<rect x="158.871" y="103.082" width="3.58593" height="3.58593" transform="rotate(-14.5082 158.871 103.082)" fill="black"/>
<rect x="151.934" y="104.877" width="3.58593" height="3.58593" transform="rotate(-14.5082 151.934 104.877)" fill="black"/>
<path d="M83.6737 44.1264C83.6333 42.8201 84.6048 41.6893 85.9079 41.5038L165.426 30.236L165.425 30.2363C166.822 30.038 168.143 30.9905 168.335 32.4094L168.335 32.4103C168.506 33.6854 167.699 34.8487 166.52 35.2083C166.39 35.2478 166.256 35.2774 166.12 35.2966L166.12 35.2956L86.6046 46.5647C85.2072 46.7629 83.8863 45.8103 83.695 44.3904L83.6737 44.1264Z" fill="white" stroke="black" stroke-width="2"/>
<path d="M164.64 28.616C167.076 27.873 169.586 28.167 171.665 29.2477L172.051 29.4599C173.95 30.5657 175.454 32.3552 176.142 34.6104L176.906 37.1146L159.207 42.5142L158.443 40.01C156.973 35.1896 159.77 30.1018 164.64 28.616Z" fill="white" stroke="black" stroke-width="2"/>
</svg>
