<svg width="32" height="32" viewBox="0 0 32 32" fill="none" xmlns="http://www.w3.org/2000/svg">
<path d="M13.479 12.2012C13.3476 12.2031 13.2223 12.2567 13.1302 12.3502C13.038 12.4438 12.9863 12.5698 12.9863 12.7012C12.9863 12.8325 13.038 12.9586 13.1302 13.0521C13.2224 13.1457 13.3477 13.1992 13.479 13.2012C13.6103 13.1992 13.7356 13.1457 13.8278 13.0521C13.9199 12.9586 13.9716 12.8325 13.9716 12.7012C13.9716 12.5698 13.9199 12.4438 13.8277 12.3502C13.7356 12.2566 13.6103 12.2031 13.479 12.2012Z" fill="white"/>
<path d="M29.9778 12.3091C30.1343 12.1698 30.2597 11.9991 30.3459 11.8082C30.432 11.6172 30.477 11.4102 30.4778 11.2007V8.70069C30.4769 8.48967 30.4313 8.28125 30.3439 8.08918C30.2565 7.89711 30.1293 7.72577 29.9708 7.58649C29.9427 7.07695 29.7204 6.59754 29.3497 6.2468C28.9791 5.89606 28.4881 5.70064 27.9778 5.70069H20.9778C20.7151 5.70061 20.455 5.75229 20.2124 5.85278C19.9697 5.95326 19.7492 6.10058 19.5634 6.28631C19.3777 6.47204 19.2304 6.69255 19.1299 6.93523C19.0294 7.17792 18.9777 7.43802 18.9778 7.70069V10.7007H4.9778C4.71514 10.7006 4.45503 10.7523 4.21235 10.8528C3.96967 10.9533 3.74916 11.1006 3.56343 11.2863C3.37769 11.472 3.23038 11.6925 3.12989 11.9352C3.02941 12.1779 2.97773 12.438 2.9778 12.7007V24.7007C2.97819 25.052 3.07133 25.3969 3.2478 25.7007C2.78477 25.6997 2.34022 25.8823 2.01153 26.2085C1.68285 26.5346 1.49681 26.9777 1.49417 27.4407C1.49153 27.9038 1.6725 28.349 1.99745 28.6789C2.32239 29.0087 2.76483 29.1964 3.22784 29.2007H23.7278C24.1908 29.1964 24.6333 29.0087 24.9582 28.6788C25.2832 28.349 25.4641 27.9038 25.4615 27.4407C25.4588 26.9777 25.2728 26.5346 24.9441 26.2084C24.6154 25.8823 24.1708 25.6997 23.7078 25.7007C23.8843 25.3969 23.9774 25.052 23.9778 24.7007V22.7007H27.9778C28.2405 22.7008 28.5006 22.6491 28.7433 22.5486C28.9859 22.4481 29.2064 22.3008 29.3922 22.1151C29.5779 21.9293 29.7252 21.7088 29.8257 21.4661C29.9262 21.2235 29.9779 20.9634 29.9778 20.7007V16.3091C30.3166 15.9378 30.5044 15.4533 30.5044 14.9507C30.5044 14.4481 30.3166 13.9636 29.9778 13.5923V12.3091ZM22.9778 24.7007C22.977 24.9657 22.8714 25.2196 22.684 25.4069C22.4967 25.5943 22.2428 25.6999 21.9778 25.7007H4.9778C4.71283 25.6999 4.45893 25.5943 4.27156 25.4069C4.08419 25.2196 3.97858 24.9657 3.9778 24.7007V12.7007C3.97858 12.4357 4.08418 12.1818 4.27155 11.9944C4.45892 11.8071 4.71283 11.7015 4.9778 11.7007H18.9778V20.7007C18.9777 20.9634 19.0294 21.2235 19.1299 21.4661C19.2304 21.7088 19.3777 21.9293 19.5634 22.1151C19.7492 22.3008 19.9697 22.4481 20.2124 22.5486C20.455 22.6491 20.7151 22.7008 20.9778 22.7007H22.9778V24.7007ZM25.4778 20.7007H23.4778C23.3465 20.6987 23.2212 20.6452 23.129 20.5516C23.0368 20.4581 22.9852 20.332 22.9852 20.2007C22.9852 20.0693 23.0369 19.9433 23.129 19.8497C23.2212 19.7562 23.3465 19.7026 23.4778 19.7007H25.4778C25.6091 19.7026 25.7344 19.7562 25.8266 19.8497C25.9188 19.9433 25.9704 20.0693 25.9704 20.2007C25.9704 20.332 25.9188 20.4581 25.8266 20.5516C25.7344 20.6452 25.6091 20.6987 25.4778 20.7007ZM24.4778 4.79883C24.5435 4.79887 24.6085 4.78596 24.6692 4.76085C24.7299 4.73573 24.785 4.6989 24.8314 4.65247C24.8779 4.60603 24.9147 4.55089 24.9398 4.49021C24.9649 4.42953 24.9778 4.3645 24.9778 4.29883V3.29883C24.9778 3.16622 24.9251 3.03904 24.8314 2.94527C24.7376 2.85151 24.6104 2.79883 24.4778 2.79883C24.3452 2.79883 24.218 2.85151 24.1243 2.94527C24.0305 3.03904 23.9778 3.16622 23.9778 3.29883V4.29883C23.9778 4.3645 23.9907 4.42953 24.0158 4.49021C24.0409 4.55089 24.0777 4.60603 24.1242 4.65247C24.1706 4.6989 24.2257 4.73573 24.2864 4.76085C24.3471 4.78596 24.4121 4.79887 24.4778 4.79883ZM22.0447 4.95069C22.1123 5.0629 22.2213 5.14409 22.3482 5.1768C22.475 5.20952 22.6097 5.19115 22.7231 5.12565C22.8366 5.06015 22.9198 4.95274 22.9549 4.82652C22.99 4.7003 22.9742 4.56534 22.9109 4.45065L22.4109 3.58447C22.3436 3.4716 22.2346 3.38975 22.1074 3.35662C21.9802 3.3235 21.8451 3.34176 21.7313 3.40745C21.6175 3.47315 21.5341 3.58101 21.4992 3.7077C21.4643 3.83439 21.4806 3.96974 21.5447 4.08447L22.0447 4.95069ZM26.2278 5.13379C26.3427 5.19985 26.4791 5.21767 26.6072 5.18335C26.7352 5.14903 26.8444 5.06537 26.9109 4.95069L27.4109 4.08447C27.4438 4.0276 27.4651 3.9648 27.4737 3.89967C27.4823 3.83454 27.478 3.76836 27.461 3.7049C27.444 3.64144 27.4147 3.58196 27.3747 3.52984C27.3347 3.47772 27.2848 3.43399 27.2279 3.40115C27.171 3.36831 27.1082 3.347 27.0431 3.33844C26.978 3.32988 26.9118 3.33423 26.8483 3.35126C26.7849 3.36828 26.7254 3.39764 26.6733 3.43766C26.6212 3.47767 26.5775 3.52756 26.5447 3.58447L26.0447 4.45069C26.0119 4.50756 25.9905 4.57035 25.982 4.63546C25.9734 4.70057 25.9777 4.76674 25.9947 4.83018C26.0117 4.89362 26.0411 4.95308 26.0811 5.00518C26.121 5.05727 26.1709 5.10098 26.2278 5.13379Z" fill="white"/>
<path d="M13.479 9.7998C13.5447 9.79982 13.6097 9.7869 13.6704 9.76178C13.731 9.73666 13.7862 9.69983 13.8326 9.6534C13.879 9.60696 13.9159 9.55184 13.941 9.49117C13.9661 9.4305 13.979 9.36547 13.979 9.2998V8.2998C13.979 8.1672 13.9263 8.04002 13.8326 7.94625C13.7388 7.85248 13.6116 7.7998 13.479 7.7998C13.3464 7.7998 13.2192 7.85248 13.1255 7.94625C13.0317 8.04002 12.979 8.1672 12.979 8.2998V9.2998C12.979 9.36547 12.9919 9.4305 13.017 9.49117C13.0422 9.55184 13.079 9.60696 13.1254 9.6534C13.1719 9.69983 13.227 9.73666 13.2877 9.76178C13.3483 9.7869 13.4133 9.79982 13.479 9.7998ZM11.0459 9.95166C11.1136 10.0638 11.2225 10.145 11.3494 10.1777C11.4762 10.2104 11.6108 10.1921 11.7243 10.1266C11.8378 10.0611 11.921 9.95368 11.9561 9.82747C11.9912 9.70126 11.9754 9.56631 11.9121 9.45163L11.4121 8.58545C11.3448 8.47257 11.2358 8.39072 11.1086 8.3576C10.9814 8.32447 10.8463 8.34273 10.7325 8.40843C10.6187 8.47413 10.5353 8.58198 10.5004 8.70868C10.4655 8.83537 10.4818 8.97072 10.5459 9.08545L11.0459 9.95166ZM15.229 10.1348C15.3439 10.2008 15.4804 10.2187 15.6084 10.1844C15.7364 10.15 15.8457 10.0664 15.9121 9.95165L16.4121 9.08544C16.445 9.02856 16.4663 8.96577 16.4749 8.90064C16.4835 8.83551 16.4792 8.76932 16.4622 8.70587C16.4452 8.64241 16.4159 8.58292 16.3759 8.5308C16.3359 8.47868 16.286 8.43495 16.2291 8.40211C16.1722 8.36927 16.1094 8.34796 16.0443 8.3394C15.9792 8.33084 15.913 8.3352 15.8495 8.35222C15.7861 8.36925 15.7266 8.39861 15.6745 8.43862C15.6224 8.47864 15.5787 8.52853 15.5459 8.58544L15.0459 9.45165C14.9797 9.56653 14.9618 9.70301 14.9961 9.83109C15.0304 9.95918 15.1142 10.0684 15.229 10.1348Z" fill="white"/>
</svg>
