<svg width="32" height="32" viewBox="0 0 32 32" fill="none" xmlns="http://www.w3.org/2000/svg">
<path fill-rule="evenodd" clip-rule="evenodd" d="M10.6 26.6665H28.0133C29.4693 26.6665 30.6667 25.4772 30.6667 24.0105V9.3225C30.6667 8.61855 30.3872 7.94339 29.8897 7.44537C29.3922 6.94735 28.7173 6.66721 28.0133 6.6665H6.65333C5.19867 6.6665 4 7.85584 4 9.3225V20.0678C4.38501 19.6746 4.83637 19.3523 5.33333 19.1158V9.3225C5.33333 8.59584 5.93067 7.99984 6.65333 7.99984H28.0133C28.7413 7.99984 29.3333 8.59317 29.3333 9.3225V24.0105C29.3319 24.3604 29.1925 24.6956 28.9453 24.9433C28.6982 25.191 28.3632 25.3311 28.0133 25.3332H11.5493C11.3129 25.8301 10.9906 26.2815 10.5973 26.6665H10.6Z" fill="black"/>
<path fill-rule="evenodd" clip-rule="evenodd" d="M30.6673 13.3331H24.6807C24.2417 13.331 23.8066 13.4157 23.4005 13.5823C22.9944 13.7489 22.6252 13.9941 22.3142 14.3039C22.0032 14.6137 21.7565 14.9819 21.5883 15.3873C21.42 15.7928 21.3336 16.2275 21.334 16.6665C21.334 18.5198 22.8313 19.9998 24.6807 19.9998H30.6673V18.6665H24.6807C23.562 18.6665 22.6673 17.7771 22.6673 16.6665C22.6673 15.5571 23.558 14.6665 24.6807 14.6665H30.6673V13.3331ZM24.9967 3.28646C25.9513 3.04246 26.6607 3.59846 26.658 4.58646L26.6473 7.26912L26.6447 7.93579L27.978 7.94112L27.9807 7.27446L27.9913 4.59179C27.998 2.73312 26.4687 1.53312 24.666 1.99446L6.04065 6.76379L5.10998 8.37846L24.9967 3.28646ZM7.33398 29.3331C8.12192 29.3331 8.90213 29.1779 9.63008 28.8764C10.358 28.5749 11.0195 28.1329 11.5766 27.5758C12.1338 27.0186 12.5757 26.3572 12.8773 25.6292C13.1788 24.9013 13.334 24.1211 13.334 23.3331C13.334 22.5452 13.1788 21.765 12.8773 21.037C12.5757 20.3091 12.1338 19.6476 11.5766 19.0905C11.0195 18.5333 10.358 18.0914 9.63008 17.7898C8.90213 17.4883 8.12192 17.3331 7.33398 17.3331C5.74269 17.3331 4.21656 17.9653 3.09134 19.0905C1.96613 20.2157 1.33398 21.7418 1.33398 23.3331C1.33398 24.9244 1.96613 26.4505 3.09134 27.5758C4.21656 28.701 5.74269 29.3331 7.33398 29.3331ZM7.33398 27.9998C8.57166 27.9998 9.75865 27.5081 10.6338 26.633C11.509 25.7578 12.0007 24.5708 12.0007 23.3331C12.0007 22.0954 11.509 20.9085 10.6338 20.0333C9.75865 19.1581 8.57166 18.6665 7.33398 18.6665C6.09631 18.6665 4.90932 19.1581 4.03415 20.0333C3.15898 20.9085 2.66732 22.0954 2.66732 23.3331C2.66732 24.5708 3.15898 25.7578 4.03415 26.633C4.90932 27.5081 6.09631 27.9998 7.33398 27.9998Z" fill="black"/>
<path fill-rule="evenodd" clip-rule="evenodd" d="M4 23.1036L4.94267 22.1609L6.828 24.0476L9.65733 21.2183L10.6 22.1609L6.82667 25.9329L4 23.1036Z" fill="black"/>
</svg>
