<svg width="264" height="283" viewBox="0 0 264 283" fill="none" xmlns="http://www.w3.org/2000/svg">
<g clip-path="url(#clip0_2421_654)">
<rect width="264" height="283" rx="12" fill="#F4F1FC"/>
<g opacity="0.2">
<path d="M199.875 187.188C202.796 187.188 205.188 189.579 205.188 192.5C205.188 220.228 227.772 242.812 255.5 242.812C258.421 242.812 260.812 245.204 260.812 248.125C260.812 251.046 258.421 253.438 255.5 253.438C227.772 253.438 205.188 276.022 205.188 303.75C205.188 306.671 202.796 309.062 199.875 309.062C196.954 309.062 194.562 306.671 194.562 303.75C194.562 276.022 171.978 253.438 144.25 253.438C141.329 253.438 138.938 251.046 138.938 248.125C138.938 245.204 141.329 242.812 144.25 242.812C171.978 242.812 194.562 220.228 194.562 192.5C194.562 189.579 196.954 187.188 199.875 187.188Z" fill="#9870ED" stroke="black" stroke-width="0.5"/>
<path d="M252.719 164.938C255.64 164.938 258.031 167.329 258.031 170.25C258.031 181.124 266.876 189.969 277.75 189.969C280.671 189.969 283.062 192.36 283.062 195.281C283.062 198.203 280.671 200.594 277.75 200.594C266.876 200.594 258.031 209.439 258.031 220.312C258.031 223.234 255.64 225.625 252.719 225.625C249.797 225.625 247.406 223.234 247.406 220.312C247.406 209.439 238.561 200.594 227.688 200.594C224.766 200.594 222.375 198.203 222.375 195.281C222.375 192.36 224.766 189.969 227.688 189.969C238.561 189.969 247.406 181.124 247.406 170.25C247.406 167.329 249.797 164.938 252.719 164.938Z" fill="#EAB444" stroke="black" stroke-width="0.5"/>
<path d="M152.594 181.625C153.846 181.625 154.872 182.651 154.872 183.903C154.872 188.921 158.954 193.003 163.972 193.003C165.224 193.003 166.25 194.029 166.25 195.281C166.25 196.534 165.224 197.56 163.972 197.56C158.954 197.56 154.872 201.641 154.872 206.659C154.872 207.912 153.846 208.937 152.594 208.938C151.341 208.938 150.315 207.912 150.315 206.659C150.315 201.641 146.234 197.56 141.216 197.56C139.963 197.56 138.938 196.534 138.938 195.281C138.938 194.029 139.963 193.003 141.216 193.003C146.234 193.003 150.315 188.921 150.315 183.903C150.315 182.651 151.341 181.625 152.594 181.625Z" fill="#EAB444" stroke="black" stroke-width="0.5"/>
<path d="M242.906 75.25C244.159 75.25 245.185 76.2758 245.185 77.5283C245.185 82.5462 249.266 86.6279 254.284 86.6279C255.537 86.628 256.562 87.6537 256.562 88.9062C256.562 90.1588 255.537 91.1845 254.284 91.1846C249.266 91.1846 245.185 95.2663 245.185 100.284C245.185 101.537 244.159 102.562 242.906 102.562C241.654 102.562 240.628 101.537 240.628 100.284C240.628 95.2663 236.546 91.1846 231.528 91.1846C230.276 91.1845 229.25 90.1588 229.25 88.9062C229.25 87.6537 230.276 86.628 231.528 86.6279C236.546 86.6279 240.628 82.5462 240.628 77.5283C240.628 76.2758 241.654 75.25 242.906 75.25Z" fill="#EAB444" stroke="black" stroke-width="0.5"/>
<path d="M255.906 22.25C257.159 22.25 258.185 23.2758 258.185 24.5283C258.185 29.5462 262.266 33.6279 267.284 33.6279C268.537 33.628 269.562 34.6537 269.562 35.9062C269.562 37.1588 268.537 38.1845 267.284 38.1846C262.266 38.1846 258.185 42.2663 258.185 47.2842C258.185 48.5367 257.159 49.5625 255.906 49.5625C254.654 49.5625 253.628 48.5367 253.628 47.2842C253.628 42.2663 249.546 38.1846 244.528 38.1846C243.276 38.1845 242.25 37.1588 242.25 35.9062C242.25 34.6537 243.276 33.628 244.528 33.6279C249.546 33.6279 253.628 29.5462 253.628 24.5283C253.628 23.2758 254.654 22.25 255.906 22.25Z" fill="#EAB444" stroke="black" stroke-width="0.5"/>
<path d="M211.594 111.25C214.515 111.25 216.906 113.641 216.906 116.562C216.906 127.436 225.751 136.281 236.625 136.281C239.546 136.281 241.938 138.672 241.938 141.594C241.938 144.515 239.546 146.906 236.625 146.906C225.751 146.906 216.906 155.751 216.906 166.625C216.906 169.546 214.515 171.938 211.594 171.938C208.672 171.938 206.281 169.546 206.281 166.625C206.281 155.751 197.436 146.906 186.562 146.906C183.641 146.906 181.25 144.515 181.25 141.594C181.25 138.672 183.641 136.281 186.562 136.281C197.436 136.281 206.281 127.436 206.281 116.562C206.281 113.641 208.672 111.25 211.594 111.25Z" fill="#EAB444" stroke="black" stroke-width="0.5"/>
</g>
</g>
<defs>
<clipPath id="clip0_2421_654">
<rect width="264" height="283" rx="12" fill="white"/>
</clipPath>
</defs>
</svg>
