<svg width="32" height="32" viewBox="0 0 32 32" fill="none" xmlns="http://www.w3.org/2000/svg">
<path d="M14 7.25C14.4119 7.25 14.75 7.58807 14.75 8C14.75 13.0981 18.9019 17.25 24 17.25C24.4119 17.25 24.75 17.5881 24.75 18C24.75 18.4119 24.4119 18.75 24 18.75C18.9019 18.75 14.75 22.9019 14.75 28C14.75 28.4119 14.4119 28.75 14 28.75C13.5881 28.75 13.25 28.4119 13.25 28C13.25 22.9019 9.09807 18.75 4 18.75C3.58807 18.75 3.25 18.4119 3.25 18C3.25 17.5881 3.58807 17.25 4 17.25C9.09807 17.25 13.25 13.0981 13.25 8C13.25 7.58807 13.5881 7.25 14 7.25Z" fill="#9870ED" stroke="black" stroke-width="0.5"/>
<path d="M23.5 3.25C23.9119 3.25 24.25 3.58807 24.25 4C24.25 6.06807 25.9319 7.75 28 7.75C28.4119 7.75 28.75 8.08807 28.75 8.5C28.75 8.91193 28.4119 9.25 28 9.25C25.9319 9.25 24.25 10.9319 24.25 13C24.25 13.4119 23.9119 13.75 23.5 13.75C23.0881 13.75 22.75 13.4119 22.75 13C22.75 10.9319 21.0681 9.25 19 9.25C18.5881 9.25 18.25 8.91193 18.25 8.5C18.25 8.08807 18.5881 7.75 19 7.75C21.0681 7.75 22.75 6.06807 22.75 4C22.75 3.58807 23.0881 3.25 23.5 3.25Z" fill="#EAB444" stroke="black" stroke-width="0.5"/>
<path d="M5.5 6.25C5.61178 6.25 5.70386 6.34237 5.7041 6.4541C5.7041 7.46945 6.53055 8.2959 7.5459 8.2959C7.65763 8.29614 7.75 8.38822 7.75 8.5C7.75 8.61178 7.65763 8.70386 7.5459 8.7041C6.53055 8.7041 5.7041 9.53055 5.7041 10.5459C5.70386 10.6576 5.61178 10.75 5.5 10.75C5.38822 10.75 5.29614 10.6576 5.2959 10.5459C5.2959 9.53055 4.46945 8.7041 3.4541 8.7041C3.34237 8.70386 3.25 8.61178 3.25 8.5C3.25 8.38822 3.34237 8.29614 3.4541 8.2959C4.46945 8.2959 5.2959 7.46945 5.2959 6.4541C5.29614 6.34237 5.38822 6.25 5.5 6.25Z" fill="#EAB444" stroke="black" stroke-width="0.5"/>
</svg>
