<svg width="40" height="40" viewBox="0 0 40 40" fill="none" xmlns="http://www.w3.org/2000/svg">
<path d="M31.0218 0H8.97818C4.01967 0 0 4.01967 0 8.97818V31.0218C0 35.9803 4.01967 40 8.97818 40H31.0218C35.9803 40 40 35.9803 40 31.0218V8.97818C40 4.01967 35.9803 0 31.0218 0Z" fill="#FFE8D0"/>
<g clip-path="url(#clip0_2256_1318)">
<path d="M31.9997 30.4961C32.002 30.9531 31.9188 31.406 31.755 31.8292C31.5912 32.2523 31.3499 32.6372 31.0449 32.9621C30.7399 33.2869 30.3772 33.5452 29.9775 33.7223C29.5777 33.8994 29.1488 33.9918 28.7152 33.9942C28.5794 33.9953 28.4436 33.9873 28.3088 33.97C27.4913 33.8426 26.7462 33.4045 26.2139 32.7383C25.6817 32.0721 25.3989 31.2238 25.419 30.3531V9.64094C25.3994 8.76951 25.683 7.92064 26.2163 7.25438C26.7496 6.58812 27.4958 6.15052 28.3141 6.02409C28.7784 5.96618 29.2491 6.01297 29.6949 6.16135C30.1407 6.30973 30.5515 6.55632 30.9 6.88475C31.2485 7.21318 31.5267 7.61595 31.7163 8.06635C31.9058 8.51674 32.0024 9.00447 31.9994 9.49717L31.9997 30.4961Z" fill="#F9AB00"/>
<path d="M11.2909 27.0626C11.9418 27.0626 12.578 27.266 13.1192 27.6471C13.6604 28.0282 14.0822 28.5699 14.3313 29.2036C14.5803 29.8374 14.6455 30.5347 14.5185 31.2075C14.3915 31.8802 14.0781 32.4982 13.6179 32.9833C13.1576 33.4683 12.5713 33.7986 11.9329 33.9324C11.2945 34.0663 10.6328 33.9976 10.0315 33.7351C9.43018 33.4726 8.91622 33.0281 8.55461 32.4577C8.19301 31.8874 8 31.2168 8 30.5309C8 29.611 8.34672 28.7289 8.96388 28.0784C9.58103 27.428 10.4181 27.0626 11.2909 27.0626ZM19.9493 16.5508C19.0709 16.6015 18.2457 17.0105 17.6484 17.6911C17.0511 18.3718 16.7286 19.2707 16.7491 20.1975V29.5129C16.7491 32.0412 17.8049 33.5756 19.3515 33.9014C19.7758 33.9921 20.2129 33.9938 20.6378 33.9065C21.0627 33.8191 21.4671 33.6444 21.8279 33.3923C22.1887 33.1401 22.4989 32.8156 22.7406 32.4371C22.9824 32.0586 23.151 31.6336 23.2368 31.1864C23.2817 30.9561 23.3037 30.7215 23.3025 30.4864V20.0376C23.3034 19.5806 23.2188 19.1278 23.0537 18.7053C22.8885 18.2827 22.646 17.8985 22.3399 17.5748C22.0339 17.251 21.6703 16.9939 21.27 16.8182C20.8697 16.6425 20.4404 16.5516 20.0068 16.5508H19.9493Z" fill="#E37400"/>
</g>
<defs>
<clipPath id="clip0_2256_1318">
<rect width="24" height="28" fill="white" transform="translate(8 6)"/>
</clipPath>
</defs>
</svg>
