<svg width="24" height="24" viewBox="0 0 24 24" fill="none" xmlns="http://www.w3.org/2000/svg">
<path d="M11 10C11.551 10 12 10.449 12 11C12 11.551 11.551 12 11 12C10.449 12 10 11.551 10 11C10 10.449 10.449 10 11 10ZM14 11C14 11.551 14.449 12 15 12C15.551 12 16 11.551 16 11C16 10.449 15.551 10 15 10C14.449 10 14 10.449 14 11ZM19 9.25C18.586 9.25 18.25 9.586 18.25 10V15C18.25 15.689 17.689 16.25 17 16.25H11.829C11.094 16.25 10.404 16.536 9.884 17.056L9 17.94L8.116 17.056C7.596 16.536 6.906 16.25 6.171 16.25H5C4.311 16.25 3.75 15.689 3.75 15V7C3.75 6.311 4.311 5.75 5 5.75H14C14.414 5.75 14.75 5.414 14.75 5C14.75 4.586 14.414 4.25 14 4.25H5C3.483 4.25 2.25 5.483 2.25 7V15C2.25 16.517 3.483 17.75 5 17.75H6.171C6.505 17.75 6.819 17.88 7.055 18.116L8.469 19.53C8.615 19.676 8.807 19.75 8.999 19.75C9.191 19.75 9.383 19.677 9.529 19.53L10.943 18.116C11.179 17.88 11.493 17.75 11.827 17.75H16.998C18.515 17.75 19.748 16.517 19.748 15V10C19.748 9.586 19.412 9.25 18.998 9.25H19ZM6 11C6 11.551 6.449 12 7 12C7.551 12 8 11.551 8 11C8 10.449 7.551 10 7 10C6.449 10 6 10.449 6 11Z" fill="white"/>
<g clip-path="url(#clip0_2432_363)">
<path d="M18.625 4.35938C18.7022 4.35938 18.7656 4.42276 18.7656 4.5C18.7656 5.45589 19.5441 6.23438 20.5 6.23438C20.5772 6.23438 20.6406 6.29777 20.6406 6.375C20.6406 6.45223 20.5772 6.51562 20.5 6.51562C19.5441 6.51562 18.7656 7.29411 18.7656 8.25C18.7656 8.32723 18.7022 8.39062 18.625 8.39062C18.5478 8.39062 18.4844 8.32723 18.4844 8.25C18.4844 7.29411 17.7059 6.51562 16.75 6.51562C16.6728 6.51562 16.6094 6.45223 16.6094 6.375C16.6094 6.29777 16.6728 6.23438 16.75 6.23438C17.7059 6.23438 18.4844 5.45589 18.4844 4.5C18.4844 4.42276 18.5478 4.35938 18.625 4.35938Z" fill="white" stroke="white" stroke-width="0.2"/>
<path d="M20.4062 3.60938C20.4835 3.60938 20.5469 3.67276 20.5469 3.75C20.5469 4.13776 20.8622 4.45312 21.25 4.45312C21.3272 4.45312 21.3906 4.51651 21.3906 4.59375C21.3906 4.67099 21.3272 4.73438 21.25 4.73438C20.8622 4.73438 20.5469 5.04973 20.5469 5.4375C20.5469 5.51473 20.4835 5.57812 20.4062 5.57812C20.329 5.57812 20.2656 5.51473 20.2656 5.4375C20.2656 5.04973 19.9503 4.73438 19.5625 4.73438C19.4853 4.73438 19.4219 4.67099 19.4219 4.59375C19.4219 4.51651 19.4853 4.45312 19.5625 4.45312C19.9503 4.45312 20.2656 4.13776 20.2656 3.75C20.2656 3.67276 20.329 3.60938 20.4062 3.60938Z" fill="white" stroke="white" stroke-width="0.2"/>
<path d="M17.0312 4.17188C17.0522 4.17188 17.0695 4.18919 17.0695 4.21014C17.0695 4.40052 17.2245 4.55548 17.4149 4.55548C17.4358 4.55553 17.4531 4.57279 17.4531 4.59375C17.4531 4.61471 17.4358 4.63197 17.4149 4.63202C17.2245 4.63202 17.0695 4.78698 17.0695 4.97736C17.0695 4.9983 17.0522 5.01562 17.0312 5.01562C17.0103 5.01562 16.993 4.9983 16.993 4.97736C16.993 4.78698 16.838 4.63202 16.6476 4.63202C16.6267 4.63197 16.6094 4.61471 16.6094 4.59375C16.6094 4.57279 16.6267 4.55553 16.6476 4.55548C16.838 4.55548 16.993 4.40052 16.993 4.21014C16.993 4.18919 17.0103 4.17188 17.0312 4.17188Z" fill="white" stroke="white" stroke-width="0.2"/>
</g>
<defs>
<clipPath id="clip0_2432_363">
<rect width="6" height="6" fill="white" transform="translate(16 3)"/>
</clipPath>
</defs>
</svg>
