<svg width="16" height="16" viewBox="0 0 16 16" fill="none" xmlns="http://www.w3.org/2000/svg">
<g clip-path="url(#clip0_2256_1593)">
<path d="M8.01172 0.0996094C9.9729 0.0997236 11.8587 0.831633 13.3057 2.14355L13.5898 2.41406C15.069 3.89548 15.9004 5.90503 15.9004 8C15.9003 10.095 15.0692 12.1046 13.5898 13.5859C12.1105 15.0673 10.1037 15.8993 8.01172 15.8994H0.817383C0.713643 15.9038 0.610483 15.8849 0.515625 15.8447L0.423828 15.7979C0.335145 15.7436 0.259639 15.6703 0.203125 15.584L0.15332 15.4932C0.114165 15.3985 0.0962504 15.2969 0.100586 15.1953L0.112305 15.0928C0.138435 14.957 0.204773 14.8318 0.301758 14.7334L0.300781 14.7324L1.89844 13.1338L1.96289 13.0703L1.90527 13C0.746399 11.5929 0.115175 9.82391 0.12207 8L0.131836 7.6084C0.222014 5.78584 0.939984 4.04989 2.16309 2.69727L2.43359 2.41406C3.07459 1.7722 3.82001 1.24574 4.6377 0.858398L4.99219 0.701172C5.94928 0.304189 6.97577 0.0996094 8.01172 0.0996094ZM10.4863 1.99316C9.18533 1.45456 7.74717 1.35501 6.38867 1.70508L6.11816 1.78125C4.68143 2.21868 3.43994 3.14084 2.60645 4.3916C1.82497 5.56432 1.44751 6.95775 1.52539 8.36035L1.54688 8.64062C1.69495 10.1369 2.35656 11.536 3.41895 12.5986V12.5977C3.54911 12.7288 3.62207 12.9068 3.62207 13.0918C3.622 13.2305 3.58038 13.3647 3.50488 13.4785L3.41895 13.585L2.67578 14.3291L2.50586 14.499H8.01172C9.41957 14.4978 10.7861 14.0386 11.9072 13.1943L12.1279 13.0205C13.2153 12.1255 13.9805 10.9026 14.3125 9.53809L14.373 9.2627C14.6466 7.87992 14.4635 6.44844 13.8555 5.18262L13.7285 4.93164C13.064 3.68886 12.0152 2.69876 10.7432 2.10645L10.4863 1.99316Z" fill="#323232" stroke="white" stroke-width="0.2"/>
</g>
<defs>
<clipPath id="clip0_2256_1593">
<rect width="16" height="16" fill="white"/>
</clipPath>
</defs>
</svg>
