<svg width="30" height="30" viewBox="0 0 30 30" fill="none" xmlns="http://www.w3.org/2000/svg">
<mask id="mask0_641_224" style="mask-type:luminance" maskUnits="userSpaceOnUse" x="3" y="3" width="24" height="24">
<path d="M26.7188 3.28125H3.28125V26.7188H26.7188V3.28125Z" fill="white"/>
</mask>
<g mask="url(#mask0_641_224)">
<path fill-rule="evenodd" clip-rule="evenodd" d="M14.5129 10.6621C14.7821 10.9313 15.2186 10.9313 15.4878 10.6621L18.5898 7.56006C18.859 7.29088 18.859 6.8544 18.5898 6.5852L15.4878 3.48315C15.2186 3.21395 14.7821 3.21395 14.5129 3.48315L11.4109 6.5852C11.1417 6.85436 11.1417 7.29083 11.4109 7.56006L14.5129 10.6621Z" fill="black"/>
<path d="M15.4872 26.5172C15.218 26.7865 14.7816 26.7865 14.5124 26.5172L7.96364 19.9687C7.69441 19.6994 7.69441 19.263 7.96364 18.9938L14.5124 12.4451C14.7816 12.1759 15.218 12.1759 15.4872 12.4451L22.0359 18.9938C22.3051 19.263 22.3051 19.6995 22.0359 19.9687L15.4872 26.5172Z" fill="black"/>
</g>
</svg>
