<svg width="24" height="24" viewBox="0 0 24 24" fill="none" xmlns="http://www.w3.org/2000/svg">
<g clip-path="url(#clip0_626_4437)">
<path d="M12.5 20.5993V21.8064L13.3536 20.9529L14.6536 19.6529C14.8583 19.4481 15.1418 19.4481 15.3465 19.6529C15.5512 19.8576 15.5512 20.141 15.3465 20.3458L12.3465 23.3458C12.1418 23.5505 11.8583 23.5505 11.6536 23.3458L8.65359 20.3458C8.44886 20.141 8.44886 19.8576 8.65359 19.6529C8.85833 19.4481 9.14175 19.4481 9.34649 19.6529L10.6465 20.9529L11.5 21.8064V20.5993V14.9993C11.5 14.8129 11.56 14.6965 11.6286 14.6279C11.6972 14.5593 11.8137 14.4993 12 14.4993C12.1864 14.4993 12.3029 14.5593 12.3715 14.6279C12.4401 14.6965 12.5 14.8129 12.5 14.9993V20.5993ZM17.9405 8.39628L18.0305 8.60645L18.2484 8.67578C20.2487 9.31222 21.5 11.025 21.5 12.9993C21.5 15.5232 19.5239 17.4993 17 17.4993H16.6441C16.1273 17.1921 15.5626 17.0642 15 17.0633V14.9993C15 13.3232 13.6762 11.9993 12 11.9993C10.3239 11.9993 9.00004 13.3232 9.00004 14.9993V17.0213C8.4045 17.0071 7.84044 17.2026 7.35426 17.4993H6.00004C4.42953 17.4993 2.92653 16.355 2.48344 14.8708C2.05817 13.0518 3.28 11.1228 5.11585 10.6857L5.45495 10.605L5.49648 10.2589C5.77482 7.93939 7.25833 5.98875 9.3994 5.05785L9.39941 5.05787L9.40311 5.05623C12.7437 3.5715 16.5483 5.14779 17.9405 8.39628Z" fill="#C0D6E2" stroke="black"/>
</g>
<defs>
<clipPath id="clip0_626_4437">
<rect width="24" height="24" fill="white"/>
</clipPath>
</defs>
</svg>
