<svg width="20" height="20" viewBox="0 0 20 20" fill="none" xmlns="http://www.w3.org/2000/svg">
<path d="M9.54068 1.82243C8.44181 1.82104 7.34699 1.69801 6.24828 1.68458C5.66562 1.67745 5.08703 1.70856 4.51045 1.79448C4.03666 1.86509 3.55875 2.02475 3.15465 2.28585C2.79808 2.51624 2.49793 2.82915 2.29543 3.20329C2.11013 3.54567 2.00115 3.92335 1.9399 4.306C1.87092 4.73692 1.84246 5.17143 1.82226 5.6069C1.7999 6.08887 1.75802 6.56923 1.72185 7.05036C1.5565 9.24917 1.43043 11.4687 1.62863 13.6697C1.67951 14.2346 1.75328 14.7988 1.85656 15.3566C1.93086 15.7578 2.0108 16.1497 2.19834 16.5155C2.48008 17.065 2.99885 17.4769 3.54883 17.7363C4.17422 18.0313 4.84535 18.1899 5.52783 18.2831C6.29756 18.3882 7.07094 18.4293 7.84746 18.435C8.56744 18.4403 9.2872 18.4178 10.0067 18.3955C10.5898 18.3774 11.1747 18.3533 11.758 18.3745C12.1801 18.3898 12.6005 18.4125 13.0232 18.4084C13.5923 18.403 14.1575 18.3579 14.7207 18.2777C15.225 18.2059 15.7256 18.0908 16.2009 17.9056C16.6758 17.7205 17.121 17.4872 17.464 17.1009C18.0857 16.4007 18.3365 15.4612 18.4744 14.5562C18.5476 14.0757 18.5957 13.5922 18.6407 13.1084C18.6638 12.8605 18.6813 12.6185 18.6813 12.3693C18.6813 12.0437 18.6813 11.7182 18.6813 11.3927C18.6813 10.8849 18.6813 10.3771 18.6813 9.86926C18.6813 9.57116 18.4326 9.32239 18.1344 9.32239C17.8363 9.32239 17.5876 9.57116 17.5876 9.86926C17.5876 10.7156 17.5876 11.562 17.5876 12.4083C17.5876 12.713 17.5562 13.0126 17.5276 13.3158C17.4998 13.6096 17.4696 13.9032 17.4307 14.1958C17.4372 14.1474 17.4438 14.0989 17.4503 14.0504C17.3908 14.492 17.3116 14.9319 17.1812 15.3585C17.1513 15.4565 17.1177 15.5534 17.0814 15.6492C17.0647 15.6935 16.9901 15.8688 17.0704 15.6815C17.0476 15.7347 17.0231 15.787 16.9978 15.839C16.9552 15.9264 16.9079 16.0114 16.8574 16.0945C16.8325 16.1353 16.8061 16.1752 16.7791 16.2146C16.7657 16.2342 16.7518 16.2535 16.7378 16.2727C16.6597 16.3805 16.8078 16.1851 16.7513 16.2556C16.6926 16.3289 16.6285 16.3976 16.5611 16.463C16.5274 16.4956 16.4922 16.5266 16.4564 16.5569C16.4256 16.583 16.3489 16.6415 16.4935 16.5301C16.4685 16.5493 16.4427 16.5676 16.4168 16.5857C16.3313 16.6453 16.2398 16.6948 16.147 16.7421C16.0962 16.768 16.0446 16.7922 15.9928 16.8159C15.9666 16.8279 15.9403 16.8394 15.9138 16.8508C16.0815 16.778 15.9472 16.8363 15.9102 16.8509C15.4362 17.039 14.9333 17.1496 14.43 17.223C14.3987 17.2276 14.3672 17.2318 14.3358 17.2361C14.3843 17.2296 14.4328 17.2231 14.4812 17.2166C13.9564 17.2859 13.4273 17.3138 12.8982 17.3155C12.4982 17.3169 12.1 17.2914 11.7005 17.2788C11.1093 17.2603 10.5167 17.2859 9.92574 17.3043C8.51742 17.348 7.09496 17.3974 5.69416 17.2117C5.74261 17.2182 5.79107 17.2248 5.83953 17.2313C5.50338 17.186 5.1692 17.126 4.84052 17.0417C4.68736 17.0024 4.5358 16.9569 4.38638 16.9052C4.31748 16.8813 4.24926 16.8556 4.18152 16.8285C4.16488 16.8219 4.14832 16.8151 4.13176 16.8082C4.31523 16.8841 4.23724 16.8529 4.19695 16.8355C4.15937 16.8191 4.12213 16.802 4.08508 16.7846C3.95736 16.7243 3.83351 16.656 3.71461 16.5799C3.6597 16.5447 3.60636 16.5073 3.55414 16.4683C3.48986 16.4203 3.67687 16.5641 3.61398 16.5146C3.60144 16.5047 3.5891 16.4947 3.57676 16.4845C3.54818 16.4612 3.52039 16.4368 3.49295 16.4121C3.4465 16.3703 3.40224 16.3261 3.35957 16.2804C3.33842 16.2578 3.31802 16.2345 3.29791 16.2109C3.28789 16.1991 3.27812 16.1872 3.26838 16.1752C3.20129 16.0929 3.35398 16.288 3.30662 16.225C3.22908 16.1219 3.16332 16.0102 3.10832 15.8935C3.08812 15.8507 3.04988 15.7581 3.13174 15.9523C3.12353 15.9328 3.1159 15.9131 3.10836 15.8934C3.09304 15.8534 3.07959 15.8128 3.06697 15.7719C3.02603 15.6394 2.99957 15.502 2.97086 15.3665C2.89775 15.0214 2.84021 14.6732 2.79261 14.3237C2.79912 14.3722 2.80564 14.4206 2.81215 14.4691C2.51763 12.2759 2.60984 10.0427 2.75883 7.84182C2.79992 7.23475 2.84756 6.62815 2.89545 6.02161C2.9333 5.54225 2.93209 5.06186 2.99486 4.58417C2.98836 4.63262 2.98183 4.68108 2.97533 4.72956C3.0117 4.46059 3.06537 4.19385 3.1567 3.93776C3.1658 3.91219 3.1756 3.8869 3.18551 3.86165C3.2317 3.74385 3.12597 3.99585 3.17779 3.88092C3.20519 3.82018 3.23603 3.76104 3.26885 3.70305C3.2983 3.65102 3.33076 3.60075 3.36474 3.55157C3.39174 3.51251 3.47791 3.40491 3.35105 3.56596C3.37187 3.53952 3.39383 3.51397 3.41603 3.48868C3.45672 3.44233 3.50035 3.39872 3.54533 3.35655C3.57092 3.33257 3.59752 3.30971 3.62435 3.28714C3.72301 3.20415 3.51072 3.37059 3.61562 3.29321C3.73345 3.20626 3.86146 3.1338 3.99332 3.07051C4.02328 3.05614 4.05369 3.04272 4.08414 3.02942C3.90283 3.10854 4.05539 3.04272 4.09756 3.02684C4.18347 2.9945 4.27113 2.96688 4.35927 2.94137C4.54427 2.88784 4.7339 2.85737 4.92451 2.83171C4.87605 2.83821 4.8276 2.84473 4.77914 2.85124C6.36156 2.64563 7.9551 2.91421 9.5407 2.9162C9.83883 2.91657 10.0876 2.66716 10.0876 2.36932C10.0875 2.07091 9.83879 1.8228 9.54068 1.82243Z" fill="#4B5563"/>
<path d="M15.1626 2.01553C15.1354 2.06809 15.1052 2.11823 15.0723 2.16739C15.055 2.19323 15.0364 2.21811 15.0178 2.24301C15.1151 2.11262 15.0452 2.20588 15.0229 2.23254C14.9298 2.34413 14.8272 2.4477 14.7242 2.55008C14.5155 2.75762 14.301 2.95913 14.0923 3.16663C13.6551 3.60123 13.2353 4.05291 12.7951 4.48455C12.3525 4.91856 11.9036 5.34354 11.4765 5.79325C11.0625 6.22913 10.6754 6.69057 10.2531 7.11827C9.68437 7.69413 9.06849 8.2253 8.58154 8.87625C8.40906 9.10682 8.24982 9.35262 8.18898 9.63893C8.12152 9.95641 8.155 10.2781 8.11312 10.5973C8.11962 10.5488 8.12615 10.5003 8.13265 10.4519C8.07728 10.8552 7.98164 11.258 7.97853 11.6665C7.97707 11.859 8.08406 12.0419 8.24939 12.1388C8.45005 12.2563 8.75279 12.2371 8.9121 12.0532C8.94419 12.0162 9.004 11.9925 8.83154 12.1124C8.84242 12.1048 8.85451 12.099 8.8664 12.0933C8.65966 12.1927 8.79447 12.1242 8.86101 12.1074C8.96513 12.0811 9.0724 12.0665 9.17865 12.052C9.13019 12.0585 9.08173 12.065 9.03328 12.0716C9.51718 12.0069 10.0046 11.9661 10.4838 11.8695C10.5937 11.8473 10.7027 11.821 10.8107 11.7907C10.9251 11.7586 11.0708 11.7243 11.1658 11.6555C11.2791 11.5734 11.3869 11.4836 11.493 11.3925C12.0888 10.8814 12.6615 10.341 13.2279 9.79789C13.5714 9.4686 13.9042 9.13041 14.2233 8.77729C14.634 8.32276 15.0307 7.85563 15.4608 7.41895C15.6777 7.1987 15.9026 6.98684 16.1167 6.76358C16.3215 6.55004 16.5225 6.33297 16.7261 6.11827C16.9367 5.89612 17.1508 5.67743 17.3719 5.46565C17.5352 5.30922 17.7116 5.16774 17.8718 5.00762C18.0701 4.80924 18.243 4.58807 18.4117 4.36442C18.5496 4.18155 18.4956 3.84674 18.3262 3.7017C17.617 3.09444 16.8808 2.51913 16.1777 1.90483C15.9535 1.70887 15.6256 1.68352 15.4043 1.90483C15.2043 2.10491 15.1797 2.48198 15.4043 2.67823C16.1074 3.29252 16.8436 3.86786 17.5528 4.4751C17.5243 4.2542 17.4958 4.03329 17.4673 3.81239C17.4498 3.83547 17.3676 3.94096 17.4617 3.82047C17.4402 3.84788 17.4184 3.87493 17.3965 3.90194C17.3563 3.95153 17.3148 4 17.2727 4.04797C17.1934 4.1384 17.1096 4.22467 17.0231 4.30817C16.8492 4.47604 16.6623 4.62922 16.4891 4.79787C16.0597 5.21604 15.6601 5.66327 15.2434 6.09389C15.0271 6.31739 14.7993 6.52907 14.583 6.75241C14.3696 6.97286 14.1643 7.20104 13.9603 7.43026C13.5761 7.86213 13.1958 8.29709 12.7846 8.70373C12.2464 9.23584 11.6904 9.7511 11.1283 10.2578C10.9366 10.4306 10.7455 10.6061 10.5428 10.7662C10.4907 10.8074 10.6866 10.6574 10.6137 10.7111C10.5501 10.7579 10.787 10.6499 10.649 10.6964C10.5449 10.7314 10.4384 10.7592 10.3315 10.7845C10.1091 10.8372 9.88263 10.8724 9.65625 10.9031C9.7047 10.8966 9.75316 10.8901 9.80164 10.8836C9.47595 10.9271 9.14898 10.9598 8.82367 11.0063C8.58851 11.0399 8.30281 11.0905 8.13871 11.2798C8.4499 11.4087 8.76109 11.5376 9.07228 11.6665C9.07334 11.5277 9.08744 11.3898 9.10562 11.2523C9.09912 11.3007 9.09259 11.3492 9.08609 11.3977C9.12638 11.1044 9.18224 10.8138 9.2165 10.5196C9.24185 10.3019 9.22128 10.0819 9.24972 9.86403C9.24322 9.91249 9.23669 9.96094 9.23019 10.0094C9.24138 9.93233 9.25849 9.85737 9.28468 9.78397C9.31375 9.7025 9.22279 9.92459 9.25828 9.84491C9.26621 9.82713 9.27507 9.80979 9.28392 9.79247C9.30634 9.74846 9.33236 9.70631 9.35886 9.66469C9.38525 9.62327 9.41353 9.58307 9.44193 9.54303C9.46589 9.50926 9.58818 9.34913 9.47935 9.48811C9.56896 9.37366 9.66425 9.2637 9.76154 9.15573C10.1529 8.72153 10.5893 8.33041 11.0015 7.9167C11.4253 7.49139 11.8118 7.02991 12.2243 6.5936C12.6503 6.14291 13.0976 5.7162 13.5419 5.28389C13.9926 4.8453 14.4204 4.38399 14.8657 3.93996C15.0821 3.72418 15.3049 3.51508 15.5216 3.29957C15.7408 3.08157 15.9641 2.84401 16.107 2.5675C16.2438 2.30264 16.1777 1.97563 15.9108 1.81926C15.6638 1.67465 15.2993 1.75092 15.1626 2.01553Z" fill="#4B5563"/>
</svg>
