<svg width="42" height="45" viewBox="0 0 42 45" fill="none" xmlns="http://www.w3.org/2000/svg">
<mask id="path-1-inside-1_355_276" fill="white">
<path fill-rule="evenodd" clip-rule="evenodd" d="M4.00231 10.918C1.64381 10.918 -0.202706 12.9481 0.0202138 15.296L1.80308 34.0744C1.99804 36.1279 3.7225 37.6964 5.78518 37.6964H25.7527L34.2959 44.7703C34.9478 45.3101 35.9337 44.8465 35.9337 44.0001L35.9336 37.6964H36.5754C38.667 37.6964 40.4055 36.0849 40.5639 33.9993L41.9902 15.2209C42.1666 12.8991 40.3302 10.918 38.0017 10.918H4.00231Z"/>
</mask>
<path d="M0.0202138 15.296L1.01574 15.2015L0.0202138 15.296ZM1.80308 34.0744L0.807561 34.169L1.80308 34.0744ZM25.7527 37.6964L26.3905 36.9261L26.113 36.6964H25.7527V37.6964ZM34.2959 44.7703L33.6581 45.5406L34.2959 44.7703ZM35.9337 44.0001L36.9337 44.0001V44.0001L35.9337 44.0001ZM35.9336 37.6964V36.6964H34.9336L34.9336 37.6964L35.9336 37.6964ZM40.5639 33.9993L41.5611 34.0751V34.0751L40.5639 33.9993ZM41.9902 15.2209L42.9874 15.2966V15.2966L41.9902 15.2209ZM1.01574 15.2015C0.848547 13.4406 2.23343 11.918 4.00231 11.918V9.91797C1.05418 9.91797 -1.25396 12.4556 -0.975309 15.3906L1.01574 15.2015ZM2.79861 33.9799L1.01574 15.2015L-0.975309 15.3906L0.807561 34.169L2.79861 33.9799ZM5.78518 36.6964C4.23817 36.6964 2.94483 35.52 2.79861 33.9799L0.807561 34.169C1.05126 36.7358 3.20683 38.6964 5.78518 38.6964V36.6964ZM25.7527 36.6964H5.78518V38.6964H25.7527V36.6964ZM25.1149 38.4666L33.6581 45.5406L34.9337 44.0001L26.3905 36.9261L25.1149 38.4666ZM33.6581 45.5406C34.9619 46.6201 36.9337 45.6928 36.9337 44.0001L34.9337 44.0001H34.9337L33.6581 45.5406ZM36.9337 44.0001L36.9336 37.6964L34.9336 37.6964L34.9337 44.0001L36.9337 44.0001ZM36.5754 36.6964H35.9336V38.6964H36.5754V36.6964ZM39.5668 33.9236C39.448 35.4878 38.1441 36.6964 36.5754 36.6964V38.6964C39.19 38.6964 41.363 36.6821 41.5611 34.0751L39.5668 33.9236ZM40.9931 15.1452L39.5668 33.9236L41.5611 34.0751L42.9874 15.2966L40.9931 15.1452ZM38.0017 11.918C39.7481 11.918 41.1254 13.4038 40.9931 15.1452L42.9874 15.2966C43.2078 12.3944 40.9124 9.91797 38.0017 9.91797V11.918ZM4.00231 11.918H38.0017V9.91797H4.00231V11.918Z" fill="black" mask="url(#path-1-inside-1_355_276)"/>
<path fill-rule="evenodd" clip-rule="evenodd" d="M9.08824 13.8936C6.72975 13.8936 4.88323 15.9237 5.10615 18.2716L6.33419 31.2061C6.52915 33.2596 8.2536 34.8281 10.3163 34.8281H25.129L31.4516 40.0633C32.1035 40.6031 33.0894 40.1394 33.0894 39.2931L33.0893 34.8166C35.0425 34.6687 36.6219 33.1143 36.7725 31.131L37.755 18.1965C37.9313 15.8747 36.095 13.8936 33.7665 13.8936H9.08824Z" fill="#9870ED"/>
<ellipse cx="26.9474" cy="10.4218" rx="4.57634" ry="7.43845" fill="black" stroke="black"/>
<ellipse cx="17.7951" cy="8.93425" rx="4.57634" ry="6.94255" fill="black" stroke="black"/>
<ellipse cx="17.2866" cy="8.43845" rx="4.06786" ry="7.43845" fill="white" stroke="black"/>
<ellipse cx="25.9299" cy="9.92595" rx="4.57634" ry="6.94255" fill="white" stroke="black"/>
<rect x="15.1562" y="9.29199" width="1.00542" height="0.980683" fill="black"/>
<rect x="15.1562" y="8.31201" width="1.00542" height="0.980683" fill="black"/>
<rect x="14.1484" y="8.31201" width="1.00542" height="0.980683" fill="black"/>
<rect x="16.1582" y="8.31201" width="1.00542" height="0.980683" fill="black"/>
<rect x="15.1562" y="7.33105" width="1.00542" height="0.980683" fill="black"/>
<rect x="15.1562" y="6.3501" width="1.00542" height="0.980683" fill="black"/>
<rect x="16.1582" y="7.33105" width="1.00542" height="0.980683" fill="black"/>
<rect x="14.1484" y="7.33105" width="1.00542" height="0.980683" fill="black"/>
<rect x="24.0312" y="11.0127" width="1.00542" height="0.980683" fill="black"/>
<rect x="24.0312" y="10.0327" width="1.00542" height="0.980683" fill="black"/>
<rect x="23.0234" y="10.0327" width="1.00542" height="0.980683" fill="black"/>
<rect x="25.0332" y="10.0327" width="1.00542" height="0.980683" fill="black"/>
<rect x="24.0312" y="9.05127" width="1.00542" height="0.980683" fill="black"/>
<rect x="24.0312" y="8.0708" width="1.00542" height="0.980683" fill="black"/>
<rect x="25.0332" y="9.05127" width="1.00542" height="0.980683" fill="black"/>
<rect x="23.0234" y="9.05176" width="1.00542" height="0.980683" fill="black"/>
</svg>
