<svg width="139" height="139" viewBox="0 0 139 139" fill="none" xmlns="http://www.w3.org/2000/svg">
<g clip-path="url(#clip0_1638_278)">
<path d="M32.1911 41.8961C36.0348 39.3272 40.7405 38.3876 45.276 39.2834L103.142 50.7872C107.676 51.6942 111.664 54.3622 114.233 58.2059C116.802 62.0498 117.742 66.7557 116.846 71.2914L109.656 107.456C108.749 111.99 106.081 115.978 102.237 118.547C98.3933 121.117 93.6874 122.056 89.1517 121.16L31.2865 109.656C26.753 108.75 22.7642 106.082 20.1952 102.238C17.6263 98.3939 16.6868 93.6883 17.5826 89.1528L24.7724 52.9867C25.6794 48.4534 28.3474 44.465 32.1911 41.8961Z" fill="#9870ED" stroke="black" stroke-width="2"/>
<path d="M46.7639 50.6033L98.4197 60.8724C101.589 61.5024 104.378 63.349 106.176 66.0024C107.974 68.6552 108.633 71.8969 108.013 75.0144L102.943 100.515C102.324 103.633 100.475 106.376 97.7992 108.139C95.1231 109.903 91.8394 110.543 88.6705 109.913L37.0147 99.6436C33.8459 99.0136 31.0564 97.1669 29.2585 94.5136C27.4609 91.8607 26.8016 88.6191 27.4214 85.5016L32.4909 60.0006C33.1107 56.8832 34.9597 54.1402 37.6353 52.3766C40.3113 50.6126 43.595 49.9733 46.7639 50.6033Z" fill="white" stroke="black" stroke-width="2"/>
<ellipse cx="76.9375" cy="82.6006" rx="9" ry="14.5" transform="rotate(11.2437 76.9375 82.6006)" fill="black" stroke="black" stroke-width="2"/>
<ellipse cx="58.3027" cy="78.896" rx="9" ry="14.5" transform="rotate(11.2437 58.3027 78.896)" fill="black" stroke="black" stroke-width="2"/>
<ellipse cx="57.5156" cy="77.7202" rx="9" ry="14.5" transform="rotate(11.2437 57.5156 77.7202)" fill="white" stroke="black" stroke-width="2"/>
<ellipse cx="75.1699" cy="81.23" rx="9" ry="14.5" transform="rotate(11.2437 75.1699 81.23)" fill="white" stroke="black" stroke-width="2"/>
<rect x="53.1055" y="79.3926" width="2" height="2" transform="rotate(11.2437 53.1055 79.3926)" fill="black"/>
<rect x="53.4961" y="77.4307" width="2" height="2" transform="rotate(11.2437 53.4961 77.4307)" fill="black"/>
<rect x="51.5352" y="77.041" width="2" height="2" transform="rotate(11.2437 51.5352 77.041)" fill="black"/>
<rect x="55.457" y="77.8208" width="2" height="2" transform="rotate(11.2437 55.457 77.8208)" fill="black"/>
<rect x="53.8867" y="75.4692" width="2" height="2" transform="rotate(11.2437 53.8867 75.4692)" fill="black"/>
<rect x="54.2754" y="73.5078" width="2" height="2" transform="rotate(11.2437 54.2754 73.5078)" fill="black"/>
<rect x="55.8477" y="75.8594" width="2" height="2" transform="rotate(11.2437 55.8477 75.8594)" fill="black"/>
<rect x="51.9238" y="75.0791" width="2" height="2" transform="rotate(11.2437 51.9238 75.0791)" fill="black"/>
<rect x="70.7598" y="82.9023" width="2" height="2" transform="rotate(11.2437 70.7598 82.9023)" fill="black"/>
<rect x="71.1504" y="80.9404" width="2" height="2" transform="rotate(11.2437 71.1504 80.9404)" fill="black"/>
<rect x="69.1895" y="80.5508" width="2" height="2" transform="rotate(11.2437 69.1895 80.5508)" fill="black"/>
<rect x="73.1113" y="81.3306" width="2" height="2" transform="rotate(11.2437 73.1113 81.3306)" fill="black"/>
<rect x="71.541" y="78.979" width="2" height="2" transform="rotate(11.2437 71.541 78.979)" fill="black"/>
<rect x="71.9297" y="77.0176" width="2" height="2" transform="rotate(11.2437 71.9297 77.0176)" fill="black"/>
<rect x="73.502" y="79.3691" width="2" height="2" transform="rotate(11.2437 73.502 79.3691)" fill="black"/>
<rect x="69.5781" y="78.5889" width="2" height="2" transform="rotate(11.2437 69.5781 78.5889)" fill="black"/>
<path d="M96.3845 43.6336L96.3841 43.6334L30.6663 19.1498L30.6663 19.1498C30.2122 18.9807 29.9733 18.4661 30.1472 17.9948C30.3205 17.5249 30.8329 17.2925 31.2856 17.4607C31.2856 17.4607 31.2857 17.4607 31.2857 17.4607L97.0031 41.9442L97.1777 41.4756C97.8946 41.7426 98.2587 42.547 97.9917 43.2724L97.5226 43.0991C97.5226 43.0992 97.5226 43.0992 97.5226 43.0992C97.3661 43.5228 96.9333 43.7543 96.5197 43.6721C96.4747 43.6631 96.4295 43.6504 96.3845 43.6336Z" fill="white" stroke="white"/>
<path d="M103.144 48.2172L102.884 49.5249L89.153 46.7952L89.413 45.4874C90.1311 41.8755 93.786 39.5597 97.5785 40.3136C99.4735 40.6903 101.047 41.7644 102.053 43.1934C103.06 44.6224 103.503 46.4125 103.144 48.2172Z" fill="white"/>
</g>
<defs>
<clipPath id="clip0_1638_278">
<rect width="118" height="118" fill="white" transform="translate(23.0078) rotate(11.2437)"/>
</clipPath>
</defs>
</svg>
