<svg width="32" height="32" viewBox="0 0 32 32" fill="none" xmlns="http://www.w3.org/2000/svg">
<path d="M27.9 11.4154H27.3167C25.3333 6.91943 20.9583 4 16 4C11.0417 4 6.66667 6.91943 4.68333 11.4154H4.1C2.93333 11.4154 2 12.3496 2 13.5173V19.1227C2 20.2904 2.93333 21.2246 4.1 21.2246H4.68333C6.66667 25.779 11.0417 28.64 16 28.64C20.9583 28.64 25.3333 25.7206 27.3167 21.2246H27.9C29.0667 21.2246 30 20.2904 30 19.1227V13.5173C30 12.3496 29.0667 11.4154 27.9 11.4154ZM26.0333 11.4154H22.125C21.5417 8.96303 20.6083 6.97782 19.3833 5.69327C22.3 6.62749 24.6917 8.6127 26.0333 11.4154ZM11.0417 11.4154C11.9167 7.97043 13.55 5.63488 15.4167 5.22616V11.4154H11.0417ZM16.5833 5.22616C18.45 5.63488 20.0833 7.97043 20.9583 11.4154H16.5833V5.22616ZM12.5583 5.69327C11.3917 6.97782 10.4 8.96303 9.81667 11.4154H5.96667C7.30833 8.6127 9.7 6.62749 12.5583 5.69327ZM5.96667 21.2246H9.875C10.4583 23.677 11.3917 25.6622 12.6167 26.9467C9.7 26.0125 7.30833 24.0273 5.96667 21.2246ZM16.5833 27.4138V21.2246H20.9583C20.0833 24.6696 18.45 27.0051 16.5833 27.4138ZM15.4167 27.4138C13.55 27.0051 11.9167 24.6696 11.0417 21.2246H15.4167V27.4138ZM19.4417 26.9467C20.6083 25.6622 21.6 23.677 22.1833 21.2246H26.0917C24.6917 24.0273 22.3 26.0125 19.4417 26.9467ZM28.8333 19.1227C28.8333 19.6482 28.425 20.0569 27.9 20.0569H4.1C3.575 20.0569 3.16667 19.6482 3.16667 19.1227V13.5173C3.16667 12.9918 3.575 12.5831 4.1 12.5831H27.9C28.425 12.5831 28.8333 12.9918 28.8333 13.5173V19.1227Z" fill="black"/>
<path d="M9.94558 17.3884L8.96719 14.0801H8.1111L7.19386 17.3884L6.21547 14.0801H5.35938L6.70466 18.4222H7.6219L8.53915 15.4585L9.45639 18.4222H10.4348L11.7801 14.0801H10.924L9.94558 17.3884ZM16.672 17.3884L15.6936 14.0801H14.8375L13.8591 17.3884L12.8808 14.0801H12.0247L13.37 18.4222H14.3483L15.2656 15.4585L16.1828 18.4222H17.1001L18.4454 14.0801H17.5893L16.672 17.3884ZM23.3373 17.3884L22.3589 14.0801H21.5028L20.5244 17.3884L19.6072 14.0801H18.7511L20.0964 18.4222H21.0136L21.9309 15.4585L22.8481 18.4222H23.8265L25.1718 14.0801H24.3157L23.3373 17.3884ZM26.089 17.3195C25.9667 17.3195 25.7833 17.3884 25.7221 17.5262C25.5998 17.6641 25.5387 17.8019 25.5387 17.9398C25.5387 18.0776 25.5998 18.2844 25.7221 18.3533C25.8444 18.4912 25.9667 18.5601 26.089 18.5601C26.2113 18.5601 26.3948 18.4912 26.4559 18.3533C26.5782 18.2155 26.6394 18.0776 26.6394 17.9398C26.6394 17.8019 26.5782 17.5952 26.4559 17.5262C26.3948 17.3195 26.2725 17.3195 26.089 17.3195Z" fill="black"/>
</svg>
