<svg width="32" height="32" viewBox="0 0 32 32" fill="none" xmlns="http://www.w3.org/2000/svg">
<path d="M2.77786 23.5939L2.84722 24.3294L3.23876 23.7029L5.50645 20.0745C7.93057 16.196 13.4289 15.8004 16.3833 19.2919L16.5742 19.1304L16.3833 19.2919L18.9675 22.3459L19.1828 22.6004L19.3668 22.3225C21.5544 19.0183 26.5969 18.9772 28.7894 22.4054L29.25 23.1257V22.2708V16C29.25 15.5858 29.5858 15.25 30 15.25C30.4142 15.25 30.75 15.5858 30.75 16V23C30.75 27.2802 27.2802 30.75 23 30.75H9C4.71979 30.75 1.25 27.2802 1.25 23V9C1.25 4.71979 4.71979 1.25 9 1.25H16C16.4142 1.25 16.75 1.58578 16.75 2C16.75 2.41422 16.4142 2.75 16 2.75H9C5.54823 2.75 2.75 5.54823 2.75 9V23C2.75 23.2002 2.75942 23.3983 2.77786 23.5939ZM28.6489 25.6776L28.7003 25.5693L28.6481 25.4614L27.7858 23.6797C26.2538 20.514 21.7692 20.5966 20.3081 23.7043L20.2398 23.8496L20.3435 23.9721L24.5241 28.9128L24.6297 29.0376L24.7863 28.991C26.4944 28.4824 27.8959 27.2637 28.6489 25.6776ZM3.62492 25.9147L3.5386 26.0453L3.61835 26.18C4.70619 28.0172 6.70902 29.25 9 29.25H22.3055H22.8445L22.4963 28.8385L15.2382 20.2608C12.9404 17.5452 8.66388 17.8529 6.77845 20.8695L6.99045 21.0021L6.77845 20.8696L3.63612 25.8973L3.636 25.8975L3.62492 25.9147Z" fill="#6A6966" stroke="white" stroke-width="0.5"/>
<path d="M25.6858 4.43829L25.25 3.95404V4.60553V12.9996C25.25 13.4138 24.9142 13.7496 24.5 13.7496C24.0858 13.7496 23.75 13.4138 23.75 12.9996V4.60552V3.95403L23.3142 4.43828L20.5575 7.50128C20.2804 7.80916 19.8062 7.83413 19.4983 7.55705L19.4983 7.55704C19.1904 7.27996 19.1654 6.80574 19.4425 6.49786L19.2567 6.33062L19.4425 6.49786L22.4559 3.14961C22.4559 3.1496 22.4559 3.1496 22.4559 3.1496C23.5484 1.93581 25.4517 1.93581 26.5441 3.14961L29.5575 6.49786L29.7433 6.33062L29.5575 6.49786C29.8346 6.80573 29.8096 7.27996 29.5017 7.55705C29.1939 7.83413 28.7196 7.80916 28.4425 7.50128L25.6858 4.43829Z" fill="#6A6966" stroke="white" stroke-width="0.5"/>
</svg>
