<svg width="32" height="32" viewBox="0 0 32 32" fill="none" xmlns="http://www.w3.org/2000/svg">
<path d="M16.1567 6.50214C15.0764 6.47325 14.0085 6.73677 13.0657 7.26485C12.1229 7.79292 11.3403 8.56593 10.8007 9.50214C10.18 10.5764 9.90775 11.8167 10.0215 13.0521C10.1352 14.2875 10.6293 15.4573 11.4357 16.4001L10.5137 17.9961L10.8807 19.3631L9.51367 19.7281L9.88067 21.0931L8.51367 21.4611L8.88067 22.8261L7.52967 23.1661L7.88067 24.5581L6.51367 24.9241L6.01367 25.7911L6.99667 28.0901L9.47867 27.7901L14.8997 18.4001C15.6151 18.5277 16.3477 18.5236 17.0617 18.3881C16.2771 17.837 15.6366 17.1052 15.1943 16.2544C14.7521 15.4037 14.521 14.459 14.5207 13.5001C14.5211 12.0945 15.0153 10.7337 15.9169 9.6553C16.8185 8.57693 18.0703 7.84954 19.4537 7.60014C19.3059 7.49432 19.1534 7.39522 18.9967 7.30314C18.1319 6.8026 17.1555 6.52786 16.1567 6.50214ZM20.5217 10.5001C20.2383 10.4997 19.9606 10.5796 19.7207 10.7305C19.4808 10.8814 19.2886 11.0972 19.1663 11.3529C19.044 11.6085 18.9967 11.8936 19.0297 12.175C19.0628 12.4565 19.1749 12.7228 19.353 12.9432C19.5312 13.1636 19.7682 13.329 20.0365 13.4202C20.3048 13.5115 20.5934 13.5249 20.869 13.4588C21.1446 13.3928 21.3959 13.2501 21.5937 13.0471C21.7915 12.8442 21.9277 12.5893 21.9867 12.3121C21.9774 12.0014 21.9439 11.6918 21.8867 11.3861C21.7688 11.1226 21.5773 10.8987 21.3351 10.7415C21.0929 10.5843 20.8104 10.5005 20.5217 10.5001Z" fill="black" stroke="black" stroke-linecap="round" stroke-linejoin="round"/>
<path d="M20.5219 7.5C19.1065 7.4999 17.7366 8.00022 16.6543 8.91251C15.5721 9.82481 14.8473 11.0903 14.6079 12.4854C14.3686 13.8805 14.6301 15.3152 15.3463 16.5361C16.0626 17.7569 17.1874 18.6853 18.5219 19.157V21L19.5219 22L18.5219 23L19.5219 24L18.5219 25L19.5219 26L18.5219 26.97L19.5219 28L18.5219 29V30L20.5219 31.5L22.5219 30V19.157C23.8557 18.6848 24.9798 17.7564 25.6954 16.5358C26.4111 15.3151 26.6724 13.8809 26.4331 12.4863C26.1938 11.0917 25.4693 9.82662 24.3877 8.9144C23.3061 8.00218 21.9369 7.50057 20.5219 7.5ZM20.5219 10.5C20.9197 10.5 21.3013 10.658 21.5826 10.9393C21.8639 11.2206 22.0219 11.6022 22.0219 12C22.0219 12.3978 21.8639 12.7794 21.5826 13.0607C21.3013 13.342 20.9197 13.5 20.5219 13.5C20.1241 13.5 19.7426 13.342 19.4612 13.0607C19.1799 12.7794 19.0219 12.3978 19.0219 12C19.0219 11.6022 19.1799 11.2206 19.4612 10.9393C19.7426 10.658 20.1241 10.5 20.5219 10.5Z" stroke="black" stroke-linecap="round" stroke-linejoin="round"/>
<path d="M12.1715 7.74189C11.9224 6.57705 12.0263 5.36439 12.47 4.25891C12.9137 3.15344 13.6771 2.20537 14.6625 1.53589C15.6481 0.866057 16.8112 0.505404 18.0029 0.50006C19.1947 0.494716 20.3609 0.844924 21.3525 1.50589C22.3437 2.16655 23.1154 3.1077 23.5689 4.20907C24.0224 5.31043 24.1371 6.52198 23.8985 7.68889C23.6596 8.85597 23.0781 9.92531 22.2282 10.7602C21.3784 11.5951 20.2988 12.1576 19.1275 12.3759" stroke="black" stroke-linecap="round" stroke-linejoin="round"/>
</svg>
