<svg width="32" height="32" viewBox="0 0 32 32" fill="none" xmlns="http://www.w3.org/2000/svg">
<path d="M6.1979 5.19227C5.90282 5.11117 5.59109 5.11307 5.29702 5.19776C5.00295 5.28244 4.73795 5.44663 4.5312 5.67225C4.18577 6.04197 3.99625 6.53067 4.00208 7.03661V21.9122C4.00208 22.4414 4.28176 22.9554 4.61056 23.2388C4.89556 23.478 5.22782 23.6545 5.58564 23.7566L15.1021 26.8065C15.3982 26.8863 15.7106 26.8826 16.0047 26.7959C16.2989 26.7092 16.5633 26.5428 16.7688 26.3152C17.1133 25.9464 17.3028 25.4593 17.2979 24.9546V10.0866C17.2923 9.83364 17.235 9.58453 17.1298 9.35448C17.0245 9.12444 16.8734 8.91829 16.6857 8.74867C16.3977 8.51041 16.063 8.33529 15.703 8.23467L6.1979 5.19227Z" fill="white"/>
<path d="M5.62276 5.14062C5.49124 5.14112 5.3611 5.16752 5.23978 5.21831C5.11846 5.2691 5.00833 5.34329 4.91568 5.43664C4.82303 5.52999 4.74967 5.64068 4.6998 5.76238C4.64992 5.88408 4.62451 6.01442 4.62501 6.14594C4.626 6.41025 4.73144 6.66346 4.91834 6.85036C5.10524 7.03726 5.35845 7.1427 5.62276 7.1437H19.323C19.3986 7.1437 19.3381 7.1437 19.3381 7.05299V21.4486C19.3381 21.3542 19.4024 21.3579 19.323 21.3579H16.6397C16.376 21.3599 16.1238 21.4658 15.9377 21.6526C15.7516 21.8394 15.6467 22.092 15.6457 22.3557C15.6452 22.4872 15.6706 22.6176 15.7205 22.7393C15.7703 22.861 15.8437 22.9716 15.9363 23.065C16.029 23.1583 16.1391 23.2325 16.2604 23.2833C16.3818 23.3341 16.5119 23.3605 16.6434 23.361H19.323C20.3661 23.361 21.3374 22.5484 21.3374 21.4486V7.05299C21.3374 5.95319 20.3661 5.14062 19.323 5.14062H5.62276Z" fill="white"/>
<path d="M18.6362 13.3555C18.504 13.355 18.3731 13.3806 18.2509 13.431C18.1287 13.4813 18.0177 13.5554 17.9242 13.6488C17.8308 13.7423 17.7567 13.8533 17.7064 13.9755C17.656 14.0977 17.6304 14.2286 17.6309 14.3608C17.6314 14.4923 17.6578 14.6225 17.7085 14.7438C17.7593 14.8651 17.8335 14.9752 17.9269 15.0679C18.0202 15.1605 18.1309 15.2339 18.2526 15.2838C18.3743 15.3336 18.5047 15.359 18.6362 15.3585H26.4406C26.7049 15.3576 26.9581 15.2521 27.145 15.0652C27.3319 14.8783 27.4374 14.6251 27.4384 14.3608C27.4389 14.2289 27.4133 14.0983 27.3632 13.9764C27.3131 13.8544 27.2394 13.7436 27.1464 13.6502C27.0533 13.5568 26.9427 13.4826 26.821 13.4321C26.6992 13.3815 26.5687 13.3555 26.4368 13.3555H18.6362Z" fill="#9870ED"/>
<path d="M22.8895 10.0059C22.6371 10.034 22.4047 10.1569 22.2395 10.3499C22.0679 10.552 21.9836 10.8139 22.0048 11.0781C22.0261 11.3424 22.1512 11.5874 22.3529 11.7596L25.2743 14.2653L22.3491 16.7672C22.148 16.9399 22.0236 17.1852 22.003 17.4495C21.9825 17.7137 22.0675 17.9753 22.2395 18.177C22.4121 18.378 22.6574 18.5025 22.9217 18.523C23.1859 18.5436 23.4475 18.4585 23.6492 18.2866L27.4588 15.0249C27.5689 14.9309 27.6573 14.8142 27.7179 14.6827C27.7785 14.5512 27.8098 14.4082 27.8098 14.2634C27.8098 14.1186 27.7785 13.9756 27.7179 13.8441C27.6573 13.7127 27.5689 13.5959 27.4588 13.5019L23.6492 10.2403C23.5453 10.1514 23.4242 10.0848 23.2936 10.0445C23.1629 10.0042 23.0254 9.99107 22.8895 10.0059Z" fill="#9870ED"/>
</svg>
