<svg width="32" height="32" viewBox="0 0 32 32" fill="none" xmlns="http://www.w3.org/2000/svg">
<path d="M14.2266 17.0123C14.2266 17.2678 14.3288 17.5233 14.4821 17.6766C14.6354 17.8299 14.942 17.9832 15.453 18.1365V15.9902C15.0953 16.0413 14.7887 16.1435 14.5843 16.2968C14.3288 16.5013 14.2266 16.7568 14.2266 17.0123ZM16.2195 19.874V22.1225C16.6284 22.0714 16.935 21.9692 17.1905 21.7648C17.446 21.5604 17.5482 21.356 17.5482 21.0493C17.5482 20.7427 17.446 20.5383 17.2927 20.3339C17.0883 20.1806 16.7306 20.0273 16.2195 19.874Z" fill="white"/>
<path d="M15.7094 10.3691C10.3437 10.3691 6 16.7569 6 22.0715C6 27.9994 11.6212 27.9994 15.7094 27.9994C19.7976 27.9994 25.4188 27.9994 25.4188 22.0715C25.4188 16.7569 21.0751 10.3691 15.7094 10.3691ZM18.3156 22.7358C17.8046 23.1958 17.0892 23.4513 16.2715 23.5024V24.4222H15.4539V23.5024C14.3296 23.4002 13.2565 22.9403 12.3878 22.1226L13.3076 21.0495C14.023 21.6627 14.7385 22.0204 15.505 22.1226V19.7208C14.5341 19.5164 13.8697 19.2098 13.4098 18.8521C12.9499 18.4944 12.7455 17.9323 12.7455 17.2168C12.7455 16.5014 13.001 15.8882 13.512 15.4794C14.023 15.0194 14.6874 14.7639 15.505 14.7128V14.0996H16.2204V14.7128C17.1403 14.7639 18.009 15.0705 18.8266 15.6327L18.009 16.7569C17.4469 16.3481 16.8336 16.1437 16.2204 16.0415V18.3922H16.2715C17.2425 18.5966 17.9579 18.9032 18.4178 19.312C18.8777 19.6697 19.0821 20.2318 19.0821 20.9984C19.0821 21.6627 18.8266 22.2759 18.3156 22.7358Z" fill="white"/>
<path d="M15.709 8.4279C17.702 8.4279 19.5417 9.09223 21.177 10.2165C21.9946 9.60325 22.4545 8.5812 22.4545 7.25255C22.4545 6.69043 22.4545 5.87279 21.7902 5.20847C21.5347 4.95296 21.2281 4.79965 20.9726 4.64634C20.2571 4.28863 19.3884 3.87981 18.4175 4.03312C17.5487 4.18642 16.9355 4.69745 16.4756 5.15736C16.2201 5.36177 16.0157 5.56618 15.7601 5.71949C15.4024 5.9239 14.9425 5.9239 14.5337 5.82169C14.2782 5.71949 14.0227 5.56618 13.7161 5.41287C13.3583 5.15736 12.8984 4.90185 12.3874 4.74855C11.3143 4.44193 10.1389 4.69745 9.32128 5.36177C9.11687 5.51508 9.01467 5.71949 8.96357 5.975C8.75916 7.40586 9.21908 8.88782 10.2411 10.2165C11.9275 9.04112 13.7672 8.4279 15.709 8.4279Z" fill="#9870ED"/>
</svg>
