<svg width="66" height="47" viewBox="0 0 66 47" fill="none" xmlns="http://www.w3.org/2000/svg">
<g clip-path="url(#clip0_641_231)">
<path d="M64.0298 -3.11133C43.3409 -3.11133 22.6478 -3.11133 1.96926 -3.11133C1.20076 -3.11133 0.733161 -2.25463 1.16006 -1.60643L22.4949 30.6766C22.8783 31.2551 23.7298 31.2565 24.1128 30.6766L32.9958 17.243L41.8737 30.6766C42.2571 31.2551 43.1087 31.2565 43.4916 30.6766L64.8386 -1.60643C65.2649 -2.25223 64.8005 -3.11133 64.0298 -3.11133ZM42.8476 -1.17193L32.9963 13.7256L23.1511 -1.17193H42.8476ZM23.304 28.3831L3.77226 -1.17193H20.8261L31.8335 15.4841L23.304 28.3831ZM42.6828 28.3831L34.1586 15.4844L45.1724 -1.17193H62.2264L42.6828 28.3831Z" fill="black"/>
</g>
<defs>
<clipPath id="clip0_641_231">
<rect width="66" height="47" fill="white"/>
</clipPath>
</defs>
</svg>
