<svg width="32" height="32" viewBox="0 0 32 32" fill="none" xmlns="http://www.w3.org/2000/svg">
<path d="M7.24941 24.4656L7.24943 24.4656L8.2573 21.192C8.25733 21.1919 8.25735 21.1918 8.25737 21.1918C8.54705 20.2367 9.13708 19.4006 9.9398 18.8075C10.7425 18.2145 11.7151 17.8962 12.7131 17.9H12.713L7.24941 24.4656ZM7.24941 24.4656C7.12026 24.8858 7.0915 25.3304 7.16547 25.7637C7.23943 26.197 7.41405 26.6069 7.67528 26.9604C7.93651 27.3139 8.27706 27.6012 8.66954 27.7991C9.06201 27.997 9.49546 28.1001 9.935 28.1L23.8926 28.1M7.24941 24.4656L23.8926 28.1M26.1504 26.9594C25.8911 27.3144 25.5513 27.6028 25.1589 27.8011C24.7665 27.9993 24.3327 28.1018 23.893 28.1C23.8929 28.1 23.8927 28.1 23.8926 28.1M26.1504 26.9594L7.345 24.495C7.22044 24.9002 7.19271 25.329 7.26404 25.7468C7.33537 26.1647 7.50378 26.56 7.75571 26.9009C8.00764 27.2419 8.33606 27.5189 8.71456 27.7098C9.09307 27.9007 9.51109 28.0001 9.935 28H23.893L23.8926 28.1M26.1504 26.9594C26.4135 26.6068 26.5892 26.1979 26.6631 25.7641C26.737 25.3303 26.707 24.8852 26.5755 24.4653C26.5755 24.4652 26.5754 24.4652 26.5754 24.4651L25.5687 21.191L26.1504 26.9594ZM27.2893 20.662L27.2894 20.6624L28.2974 23.9364C28.5096 24.6257 28.557 25.3551 28.4359 26.066C28.3147 26.7769 28.0284 27.4495 27.6 28.0296C27.1716 28.6097 26.613 29.0811 25.9691 29.406C25.3253 29.7308 24.6142 29.9001 23.893 29.9H9.93405C9.21303 29.8996 8.50214 29.7302 7.85851 29.4052C7.21488 29.0802 6.65646 28.6087 6.2281 28.0288C5.79975 27.4488 5.51341 26.7764 5.3921 26.0656C5.27078 25.3549 5.31788 24.6256 5.52959 23.9364L6.53658 20.6624L6.53669 20.662C6.93841 19.3383 7.75642 18.1794 8.86922 17.3575C9.98201 16.5356 11.3302 16.0946 12.7136 16.1H12.714H21.112L21.1124 16.1C22.4958 16.0946 23.844 16.5356 24.9568 17.3575C26.0696 18.1794 26.8876 19.3383 27.2893 20.662ZM21.112 16H12.714L23.893 30C24.6298 30.0001 25.3563 29.8272 26.0142 29.4953C26.672 29.1633 27.2427 28.6817 27.6804 28.089C28.1182 27.4963 28.4107 26.8091 28.5344 26.0828C28.6582 25.3565 28.6098 24.6112 28.393 23.907L27.385 20.633C26.977 19.2886 26.1463 18.1117 25.0162 17.2771C23.8861 16.4424 22.5169 15.9945 21.112 16ZM21.1126 17.9H12.7134L21.113 17.9V18L21.1126 17.9ZM17 5.9L16.9999 5.9C16.178 5.90082 15.39 6.22768 14.8088 6.80885C14.2277 7.39001 13.9008 8.17801 13.9 8.9999V9C13.9 9.61312 14.0818 10.2125 14.4224 10.7223C14.7631 11.2321 15.2472 11.6294 15.8137 11.864C16.3801 12.0987 17.0034 12.16 17.6048 12.0404C18.2061 11.9208 18.7585 11.6256 19.192 11.192C19.6256 10.7585 19.9208 10.2061 20.0404 9.60478C20.16 9.00344 20.0987 8.38013 19.864 7.81368C19.6294 7.24723 19.2321 6.76308 18.7223 6.42244C18.2125 6.08181 17.6131 5.9 17 5.9ZM5 5.1H5.1V5V3C5.1 2.76131 5.19482 2.53239 5.3636 2.3636C5.53239 2.19482 5.76131 2.1 6 2.1C6.23869 2.1 6.46761 2.19482 6.6364 2.3636C6.80518 2.53239 6.9 2.76131 6.9 3V5V5.1H7H9C9.23869 5.1 9.46761 5.19482 9.6364 5.3636C9.80518 5.53239 9.9 5.76131 9.9 6C9.9 6.23869 9.80518 6.46761 9.6364 6.6364C9.46761 6.80518 9.23869 6.9 9 6.9H7H6.9V7V9C6.9 9.23869 6.80518 9.46761 6.6364 9.6364C6.46761 9.80518 6.23869 9.9 6 9.9C5.76131 9.9 5.53239 9.80518 5.3636 9.6364C5.19482 9.46761 5.1 9.23869 5.1 9V7V6.9H5H3C2.76131 6.9 2.53239 6.80518 2.3636 6.6364C2.19482 6.46761 2.1 6.23869 2.1 6C2.1 5.76131 2.19482 5.53239 2.3636 5.3636C2.53239 5.19482 2.76131 5.1 3 5.1H5ZM19.7223 13.0742C18.9165 13.6126 17.9692 13.9 17.0001 13.9C15.701 13.8984 14.4555 13.3817 13.5369 12.4631C12.6183 11.5445 12.1016 10.299 12.1 8.99988C12.1 8.03079 12.3874 7.08347 12.9258 6.27771C13.4642 5.4719 14.2295 4.84386 15.1249 4.47299C16.0202 4.10212 17.0054 4.00508 17.9559 4.19415C18.9065 4.38322 19.7795 4.8499 20.4648 5.53518C21.1501 6.22045 21.6168 7.09355 21.8058 8.04406C21.9949 8.99456 21.8979 9.97979 21.527 10.8751C21.1561 11.7705 20.5281 12.5358 19.7223 13.0742Z" fill="black" stroke="white" stroke-width="0.2"/>
</svg>
