<svg width="33" height="32" viewBox="0 0 33 32" fill="none" xmlns="http://www.w3.org/2000/svg">
<path d="M26.4671 12.0002C26.4671 12.2654 26.5758 12.5197 26.7692 12.7073C26.9626 12.8948 27.2249 13.0002 27.4984 13.0002C27.7719 13.0002 28.0342 12.8948 28.2276 12.7073C28.421 12.5197 28.5296 12.2654 28.5296 12.0002V6.66683C28.5296 6.04799 28.2761 5.4545 27.8249 5.01691C27.3736 4.57933 26.7616 4.3335 26.1234 4.3335H20.6234C20.3499 4.3335 20.0876 4.43885 19.8942 4.62639C19.7008 4.81393 19.5921 5.06828 19.5921 5.3335C19.5921 5.59871 19.7008 5.85307 19.8942 6.0406C20.0876 6.22814 20.3499 6.3335 20.6234 6.3335H25.0096L15.7696 15.2935C15.6683 15.385 15.587 15.4954 15.5307 15.6181C15.4743 15.7408 15.444 15.8732 15.4416 16.0075C15.4391 16.1417 15.4646 16.2751 15.5165 16.3996C15.5683 16.5241 15.6455 16.6373 15.7435 16.7322C15.8414 16.8272 15.958 16.902 16.0864 16.9523C16.2148 17.0026 16.3524 17.0273 16.4908 17.025C16.6293 17.0226 16.7659 16.9932 16.8924 16.9385C17.0189 16.8839 17.1327 16.8051 17.2271 16.7068L26.4671 7.74683V12.0002Z" fill="black"/>
<path fill-rule="evenodd" clip-rule="evenodd" d="M4.46875 8.00016C4.46875 7.0277 4.86713 6.09507 5.57625 5.40744C6.28537 4.7198 7.24715 4.3335 8.25 4.3335H15.125C15.3985 4.3335 15.6608 4.43885 15.8542 4.62639C16.0476 4.81393 16.1562 5.06828 16.1562 5.3335C16.1562 5.59871 16.0476 5.85307 15.8542 6.0406C15.6608 6.22814 15.3985 6.3335 15.125 6.3335H8.25C7.30125 6.3335 6.53125 7.08016 6.53125 8.00016V24.0002C6.53125 24.9202 7.30125 25.6668 8.25 25.6668H24.75C25.6987 25.6668 26.4688 24.9202 26.4688 24.0002V17.3335C26.4688 17.0683 26.5774 16.8139 26.7708 16.6264C26.9642 16.4389 27.2265 16.3335 27.5 16.3335C27.7735 16.3335 28.0358 16.4389 28.2292 16.6264C28.4226 16.8139 28.5312 17.0683 28.5312 17.3335V24.0002C28.5312 24.9726 28.1329 25.9053 27.4237 26.5929C26.7146 27.2805 25.7528 27.6668 24.75 27.6668H8.25C7.24715 27.6668 6.28537 27.2805 5.57625 26.5929C4.86713 25.9053 4.46875 24.9726 4.46875 24.0002V8.00016Z" fill="black"/>
</svg>
