<svg width="30" height="30" viewBox="0 0 30 30" fill="none" xmlns="http://www.w3.org/2000/svg">
<path fill-rule="evenodd" clip-rule="evenodd" d="M22 24V26.009C22 27.109 21.11 28 20.009 28H18V26H20V24H22ZM22 22V20H20V22H22ZM16 28H13V26H16V28ZM11 28H8V26H11V28ZM6 28H3.991C3.7295 28.0001 3.47054 27.9487 3.22892 27.8487C2.9873 27.7487 2.76777 27.6021 2.58286 27.4171C2.39795 27.2322 2.2513 27.0127 2.15129 26.7711C2.05128 26.5295 1.99987 26.2705 2 26.009V24H4V26H6V28ZM2 22V19H4V22H2ZM2 17V14H4V17H2ZM2 12V9.991C2 8.891 2.89 8 3.991 8H6V10H4V12H2ZM8 8H10V10H8V8Z" fill="white"/>
<path fill-rule="evenodd" clip-rule="evenodd" d="M26.009 2C27.109 2 28 2.89 28 3.991V20.01C28 21.11 27.11 22.001 26.009 22.001H9.99C9.7285 22.001 9.46957 21.9495 9.228 21.8493C8.98643 21.7492 8.76697 21.6024 8.58215 21.4174C8.39734 21.2324 8.2508 21.0128 8.15091 20.7712C8.05102 20.5295 7.99974 20.2705 8 20.009V3.99C8 2.891 8.89 2 9.991 2H26.009ZM10 4H26V20H10V4Z" fill="white"/>
<path fill-rule="evenodd" clip-rule="evenodd" d="M22.9994 14C23.2646 14 23.519 13.8946 23.7065 13.7071C23.8941 13.5196 23.9994 13.2652 23.9994 13V7C23.9994 6.73478 23.8941 6.48043 23.7065 6.29289C23.519 6.10536 23.2646 6 22.9994 6H16.9994C16.7342 6 16.4799 6.10536 16.2923 6.29289C16.1048 6.48043 15.9994 6.73478 15.9994 7C15.9994 7.26522 16.1048 7.51957 16.2923 7.70711C16.4799 7.89464 16.7342 8 16.9994 8H20.5794L14.2924 14.293C14.1103 14.4816 14.0095 14.7342 14.0118 14.9964C14.014 15.2586 14.1192 15.5094 14.3046 15.6948C14.49 15.8802 14.7408 15.9854 15.003 15.9877C15.2652 15.99 15.5178 15.8892 15.7064 15.707L21.9994 9.42V13C21.9994 13.2652 22.1048 13.5196 22.2923 13.7071C22.4799 13.8946 22.7342 14 22.9994 14Z" fill="white"/>
</svg>
