<svg width="32" height="32" viewBox="0 0 32 32" fill="none" xmlns="http://www.w3.org/2000/svg">
<path d="M13.1319 20.7332C15.0515 20.5785 16.9799 20.5785 18.8994 20.7332C19.9447 20.7941 20.9851 20.9249 22.0139 21.1247C24.2401 21.5754 25.6936 22.3109 26.3165 23.4971C26.7843 24.423 26.7843 25.5251 26.3165 26.4509C25.6936 27.6371 24.2978 28.42 21.9908 28.8234C20.9628 29.0307 19.9222 29.1654 18.8764 29.2267C17.9074 29.3334 16.9385 29.3334 15.958 29.3334H14.1932C13.824 29.286 13.4665 29.2623 13.1204 29.2623C12.0745 29.2085 11.0337 29.0777 10.0059 28.8708C7.77969 28.4438 6.32628 27.6846 5.70339 26.4983C5.46293 26.0388 5.33616 25.5255 5.33412 25.0037C5.32926 24.4787 5.45219 23.9607 5.69186 23.4971C6.30321 22.3109 7.75662 21.5399 10.0059 21.1247C11.0382 20.9221 12.0826 20.7913 13.1319 20.7332Z" fill="white"/>
<path d="M16.0017 3C19.8687 3 23.0035 6.22376 23.0035 10.2005C23.0035 14.1772 19.8687 17.4009 16.0017 17.4009C12.1348 17.4009 9 14.1772 9 10.2005C9 6.22376 12.1348 3 16.0017 3Z" fill="#9870ED"/>
</svg>
