<svg width="32" height="32" viewBox="0 0 32 32" fill="none" xmlns="http://www.w3.org/2000/svg">
<path d="M13.1319 20.7329C15.0515 20.5782 16.9799 20.5782 18.8994 20.7329C19.9447 20.7939 20.9851 20.9246 22.0139 21.1244C24.2402 21.5752 25.6936 22.3106 26.3165 23.4969C26.7843 24.4227 26.7843 25.5248 26.3165 26.4506C25.6936 27.6368 24.2978 28.4198 21.9908 28.8231C20.9628 29.0304 19.9222 29.1651 18.8764 29.2264C17.9074 29.3332 16.9385 29.3332 15.958 29.3332H14.1932C13.824 29.2857 13.4665 29.262 13.1204 29.262C12.0745 29.2082 11.0337 29.0774 10.0059 28.8705C7.77969 28.4435 6.32628 27.6843 5.70339 26.4981C5.46293 26.0385 5.33616 25.5252 5.33412 25.0034C5.32926 24.4784 5.45219 23.9605 5.69186 23.4969C6.30321 22.3106 7.75662 21.5396 10.0059 21.1244C11.0382 20.9218 12.0826 20.791 13.1319 20.7329ZM16.0042 2.6665C19.8711 2.6665 23.0059 5.89027 23.0059 9.86698C23.0059 13.8437 19.8711 17.0675 16.0042 17.0675C12.1372 17.0675 9.0024 13.8437 9.0024 9.86698C9.0024 5.89027 12.1372 2.6665 16.0042 2.6665Z" fill="white"/>
</svg>
