<svg width="32" height="32" viewBox="0 0 32 32" fill="none" xmlns="http://www.w3.org/2000/svg">
<path d="M19.4575 2.66113C17.5312 2.66102 15.6418 3.17292 13.9942 4.14124C12.3466 5.10957 11.0038 6.49734 10.1115 8.15391C9.2193 9.81048 8.81172 11.6726 8.93303 13.538C9.05434 15.4035 9.69991 17.2011 10.7997 18.7357L8.40828 21.0611C8.22608 20.9124 7.99365 20.8343 7.75572 20.842C7.51779 20.8496 7.29117 20.9423 7.11948 21.1023L2.75419 25.3449C2.51381 25.577 2.32336 25.853 2.19389 26.1571C2.06442 26.4612 1.99852 26.7872 2.00003 27.1162C1.99855 27.4371 2.06228 27.7552 2.18755 28.0522C2.31283 28.3493 2.49721 28.6195 2.73014 28.8473L2.80969 28.9317C3.29272 29.3988 3.94687 29.6611 4.62882 29.6611C5.31077 29.6611 5.96492 29.3988 6.44794 28.9317L10.82 24.6891C10.9555 24.5567 11.0462 24.3875 11.0803 24.2039C11.1143 24.0203 11.09 23.831 11.0106 23.6611L13.4371 21.3064C14.7965 22.222 16.3589 22.8143 17.9979 23.0356C19.6369 23.2569 21.3065 23.1009 22.8719 22.5802C24.4373 22.0596 25.8544 21.1888 27.0089 20.0384C28.1633 18.8879 29.0227 17.4901 29.5175 15.9577C30.0122 14.4254 30.1286 12.8016 29.857 11.2176C29.5855 9.63362 28.9338 8.13382 27.9544 6.83944C26.9751 5.54505 25.6957 4.4924 24.2197 3.76656C22.7436 3.04071 21.1122 2.66204 19.4575 2.66113ZM26.0452 19.3012C24.4397 20.855 22.3061 21.7882 20.0432 21.9266C17.7802 22.0649 15.5428 21.3988 13.7491 20.0528C13.4376 19.8209 13.1419 19.5699 12.8636 19.3012C12.5848 19.0306 12.3258 18.7415 12.0885 18.4359C10.9915 17.0597 10.3269 15.4056 10.1745 13.6721C10.022 11.9385 10.3882 10.1991 11.229 8.66245C12.0698 7.12577 13.3496 5.8571 14.9149 5.0086C16.4801 4.16009 18.2644 3.76778 20.0537 3.87871C21.843 3.98964 23.5614 4.5991 25.0026 5.63401C26.4439 6.66891 27.5469 8.08531 28.1794 9.71332C28.8119 11.3413 28.9469 13.1118 28.5684 14.8125C28.1898 16.5131 27.3137 18.0716 26.0452 19.3012Z" fill="black"/>
<path d="M14.5556 11.1337H16.0751C16.2269 11.1337 16.3726 11.074 16.4799 10.9677C16.5873 10.8614 16.6476 10.7172 16.6476 10.5668C16.6476 10.4165 16.5873 10.2723 16.4799 10.166C16.3726 10.0597 16.2269 10 16.0751 10H14.5556C14.1431 10.0003 13.7476 10.1627 13.456 10.4514C13.1643 10.7402 13.0003 11.1317 13 11.5401V12.0265C13.0006 12.4347 13.1647 12.826 13.4563 13.1146C13.7479 13.4032 14.1433 13.5655 14.5556 13.566H15.092C15.2008 13.566 15.3051 13.6087 15.3821 13.6848C15.4591 13.7609 15.5024 13.8642 15.5026 13.9718V14.4588C15.5026 14.5666 15.4593 14.6699 15.3823 14.7461C15.3053 14.8224 15.2009 14.8652 15.092 14.8652H13.5725C13.4207 14.8652 13.2751 14.9249 13.1677 15.0312C13.0603 15.1375 13 15.2817 13 15.432C13 15.5824 13.0603 15.7265 13.1677 15.8328C13.2751 15.9391 13.4207 15.9989 13.5725 15.9989H15.092C15.5045 15.9984 15.8999 15.836 16.1915 15.5473C16.4831 15.2586 16.6472 14.8671 16.6476 14.4588V13.9718C16.6472 13.5636 16.4831 13.1722 16.1915 12.8835C15.8998 12.5949 15.5044 12.4326 15.092 12.4323H14.5556C14.4467 12.4322 14.3422 12.3892 14.2653 12.3129C14.1883 12.2366 14.1451 12.1332 14.1451 12.0253V11.539C14.1454 11.4314 14.1888 11.3283 14.2657 11.2523C14.3427 11.1763 14.4469 11.1337 14.5556 11.1337ZM20.5122 11.1337C20.6641 11.1337 20.8097 11.074 20.9171 10.9677C21.0245 10.8614 21.0848 10.7172 21.0848 10.5668C21.0848 10.4165 21.0245 10.2723 20.9171 10.166C20.8097 10.0597 20.6641 10 20.5122 10H18.0647C17.9128 10 17.7672 10.0597 17.6598 10.166C17.5524 10.2723 17.4921 10.4165 17.4921 10.5668V15.4332C17.4921 15.5835 17.5524 15.7277 17.6598 15.834C17.7672 15.9403 17.9128 16 18.0647 16H20.5122C20.6641 16 20.8097 15.9403 20.9171 15.834C21.0245 15.7277 21.0848 15.5835 21.0848 15.4332C21.0848 15.2828 21.0245 15.1386 20.9171 15.0323C20.8097 14.926 20.6641 14.8663 20.5122 14.8663H18.6372V13.566H20.5122C20.6641 13.566 20.8097 13.5063 20.9171 13.4C21.0245 13.2937 21.0848 13.1495 21.0848 12.9992C21.0848 12.8488 21.0245 12.7046 20.9171 12.5983C20.8097 12.492 20.6641 12.4323 20.5122 12.4323H18.6372V11.1337H20.5122ZM22.4783 10C22.3265 10 22.1809 10.0597 22.0735 10.166C21.9661 10.2723 21.9058 10.4165 21.9058 10.5668V15.4332C21.9058 15.5835 21.9661 15.7277 22.0735 15.834C22.1809 15.9403 22.3265 16 22.4783 16H25.4275C25.5793 16 25.7249 15.9403 25.8323 15.834C25.9397 15.7277 26 15.5835 26 15.4332V10.5668C26 10.4165 25.9397 10.2723 25.8323 10.166C25.7249 10.0597 25.5793 10 25.4275 10H22.4783ZM24.8549 14.8663H23.0509V11.1337H24.8549V14.8663Z" fill="black"/>
</svg>
