<svg width="32" height="15" viewBox="0 0 32 15" fill="none" xmlns="http://www.w3.org/2000/svg">
<path d="M0.344614 0.00612147C0.240377 0.0402031 0.150236 0.107609 0.0880755 0.197959C0.0259151 0.288308 -0.00481668 0.396589 0.000613597 0.506121V14.5061C0.000613597 14.6387 0.053292 14.7659 0.14706 14.8597C0.240828 14.9534 0.368005 15.0061 0.500614 15.0061H20.5006C20.5892 15.007 20.6765 14.9843 20.7534 14.9404C20.8304 14.8965 20.8943 14.8329 20.9386 14.7561L23.1256 10.9431C24.4396 11.0831 25.7766 10.4871 26.5006 9.28712C26.7424 8.89644 26.902 8.46056 26.9696 8.00612H28.5006C29.8876 8.00612 31.0006 9.11912 31.0006 10.5061C31.0006 10.6387 31.0533 10.7659 31.1471 10.8597C31.2408 10.9534 31.368 11.0061 31.5006 11.0061C31.6332 11.0061 31.7604 10.9534 31.8542 10.8597C31.9479 10.7659 32.0006 10.6387 32.0006 10.5061C32.0006 8.57912 30.4276 7.00612 28.5006 7.00612H26.9696C26.8958 6.49271 26.7089 6.0021 26.4223 5.56975C26.1357 5.13741 25.7567 4.77411 25.3126 4.50612C24.6461 4.10725 23.8655 3.9422 23.0946 4.03712L20.9376 0.256121C20.8934 0.179523 20.8296 0.116026 20.7529 0.0721062C20.6761 0.0281868 20.5891 0.00541777 20.5006 0.00612147H0.500614C0.448934 -0.00204049 0.396293 -0.00204049 0.344614 0.00612147ZM1.00061 1.00612H20.2196L23.9066 7.50612L22.5946 9.81912C22.4649 9.76644 22.3395 9.70358 22.2196 9.63112C21.8393 9.40464 21.5262 9.08085 21.3126 8.69312C21.7494 8.2275 21.995 7.61455 22.0006 6.97612C22.0006 5.60212 20.8736 4.50612 19.5006 4.50612C18.1276 4.50612 17.0006 5.60212 17.0006 6.97512C17.0032 7.63735 17.2675 8.27171 17.7358 8.73998C18.204 9.20825 18.8384 9.47249 19.5006 9.47512C19.8436 9.47512 20.1706 9.41512 20.4696 9.28712C20.7546 9.76412 21.1766 10.1671 21.6876 10.4751C21.8246 10.5571 21.9526 10.6321 22.0946 10.6931L20.2196 14.0061H1.00061V1.00612ZM4.96961 3.19412C4.32561 3.19412 3.85861 3.39212 3.53161 3.75612C3.20561 4.12012 3.03261 4.64212 3.03161 5.31912C3.06361 6.09812 3.30461 6.71612 3.71961 7.16212C4.13361 7.60912 4.52361 8.00912 4.93861 8.38112C5.35261 8.75312 5.59361 9.23212 5.62561 9.78712C5.62361 10.0841 5.55861 10.2871 5.43761 10.4121C5.37242 10.4772 5.29411 10.5276 5.20789 10.56C5.12167 10.5925 5.02953 10.6061 4.93761 10.6001C4.72561 10.6001 4.55861 10.5371 4.43761 10.4121C4.31761 10.2871 4.25261 10.0841 4.25061 9.78712V9.16212H3.00061V9.69412C3.00161 10.3701 3.16961 10.8921 3.50061 11.2561C3.83161 11.6201 4.32061 11.8141 4.96961 11.8191C5.61961 11.8191 6.10661 11.6201 6.43761 11.2561C6.76961 10.8921 6.93761 10.3701 6.93761 9.69312C6.90661 8.91412 6.69661 8.29612 6.28161 7.85012C5.88388 7.42482 5.46677 7.01806 5.03161 6.63112C4.82869 6.45479 4.6633 6.23945 4.54528 5.99791C4.42726 5.75637 4.35902 5.49357 4.34461 5.22512C4.34561 4.92712 4.41761 4.72912 4.53161 4.60012C4.64561 4.47012 4.82061 4.41012 5.03161 4.41212C5.24361 4.41212 5.38661 4.47112 5.50061 4.60012C5.61461 4.72912 5.68661 4.92712 5.68861 5.22512V5.56912H6.93861V5.31912C6.93761 4.64212 6.76461 4.12012 6.43861 3.75612C6.11161 3.39212 5.61261 3.19712 4.96861 3.19312L4.96961 3.19412ZM14.0006 3.19412C13.3496 3.19412 12.8426 3.39212 12.5006 3.75612C12.1586 4.12012 12.0036 4.64212 12.0006 5.31912V9.69312C12.0026 10.3701 12.1586 10.8921 12.5006 11.2561C12.8426 11.6201 13.3496 11.8141 14.0006 11.8191C14.6516 11.8191 15.1276 11.6201 15.4696 11.2561C15.8116 10.8921 15.9976 10.3701 16.0006 9.69312V5.31812C15.9986 4.64212 15.8106 4.12012 15.4696 3.75612C15.1276 3.39212 14.6516 3.19812 14.0006 3.19412ZM7.68761 3.28712V11.7251H11.2816V10.5061H9.00061V8.03712H10.8136V6.85012H9.00061V4.50612H11.2816V3.28712H7.68761ZM14.0006 4.41212C14.2126 4.41212 14.3806 4.47112 14.5006 4.60012C14.6206 4.72912 14.6856 4.92712 14.6886 5.22512V9.78712C14.6856 10.0851 14.6216 10.2831 14.5006 10.4121C14.3806 10.5421 14.2126 10.6021 14.0006 10.6001C13.7886 10.6001 13.6206 10.5411 13.5006 10.4121C13.3806 10.2831 13.3156 10.0851 13.3126 9.78712V5.22612C13.3156 4.92812 13.3796 4.73012 13.5006 4.60112C13.6206 4.47112 13.7886 4.41012 14.0006 4.41212ZM23.6566 5.03712C24.0506 5.05912 24.4366 5.14212 24.7816 5.35012C25.0632 5.51996 25.3084 5.7437 25.5033 6.00853C25.6982 6.27336 25.8389 6.57406 25.9173 6.89337C25.9957 7.21269 26.0103 7.54435 25.9602 7.86932C25.9102 8.1943 25.7965 8.50619 25.6256 8.78712C25.4207 9.13461 25.1344 9.42711 24.7915 9.63945C24.4485 9.8518 24.059 9.97763 23.6566 10.0061L24.9386 7.75612C24.9825 7.68011 25.0056 7.59389 25.0056 7.50612C25.0056 7.41835 24.9825 7.33213 24.9386 7.25612L23.6566 5.03712ZM19.5006 5.50612C19.8536 5.50612 20.1826 5.62412 20.4386 5.81912C20.2323 6.18695 20.0945 6.58911 20.0316 7.00612C19.9666 7.46712 20.0116 7.94012 20.1256 8.38112C19.9396 8.46312 19.7176 8.47512 19.5006 8.47512C18.6686 8.47512 18.0006 7.80712 18.0006 6.97512C18.0006 6.14212 18.6686 5.50612 19.5006 5.50612Z" fill="black"/>
</svg>
