<svg width="32" height="32" viewBox="0 0 32 32" fill="none" xmlns="http://www.w3.org/2000/svg">
<path d="M22.3992 11.7335C24.1665 11.7335 25.5992 10.3008 25.5992 8.5335C25.5992 6.76618 24.1665 5.3335 22.3992 5.3335C20.6319 5.3335 19.1992 6.76618 19.1992 8.5335C19.1992 10.3008 20.6319 11.7335 22.3992 11.7335Z" stroke="black" stroke-width="2" stroke-linecap="round" stroke-linejoin="round"/>
<path d="M22.3992 26.6666C24.1665 26.6666 25.5992 25.2339 25.5992 23.4666C25.5992 21.6993 24.1665 20.2666 22.3992 20.2666C20.6319 20.2666 19.1992 21.6993 19.1992 23.4666C19.1992 25.2339 20.6319 26.6666 22.3992 26.6666Z" stroke="black" stroke-width="2" stroke-linecap="round" stroke-linejoin="round"/>
<path d="M11.7344 14.9332L19.201 10.6665M11.7344 17.0665L19.201 21.3332" stroke="black" stroke-width="2" stroke-linecap="round" stroke-linejoin="round"/>
<path d="M8.53203 19.1998C10.2993 19.1998 11.732 17.7671 11.732 15.9998C11.732 14.2325 10.2993 12.7998 8.53203 12.7998C6.76472 12.7998 5.33203 14.2325 5.33203 15.9998C5.33203 17.7671 6.76472 19.1998 8.53203 19.1998Z" stroke="black" stroke-width="2" stroke-linecap="round" stroke-linejoin="round"/>
</svg>
