<svg width="32" height="32" viewBox="0 0 32 32" fill="none" xmlns="http://www.w3.org/2000/svg">
<g clip-path="url(#clip0_355_425)">
<path d="M27.5198 10.2401H21.7278C21.4078 7.36012 18.9758 5.12012 15.9998 5.12012C13.0238 5.12012 10.5918 7.36012 10.2718 10.2401H4.47984C4.12784 10.2401 3.83984 10.5281 3.83984 10.8801V26.2401C3.83984 26.5921 4.12784 26.8801 4.47984 26.8801H27.5198C27.8718 26.8801 28.1598 26.5921 28.1598 26.2401V10.8801C28.1598 10.5281 27.8718 10.2401 27.5198 10.2401ZM21.1198 14.7201C21.4718 14.7201 21.7598 15.0081 21.7598 15.3601C21.7598 15.7121 21.4718 16.0001 21.1198 16.0001C20.7678 16.0001 20.4798 15.7121 20.4798 15.3601C20.4798 15.0081 20.7678 14.7201 21.1198 14.7201ZM15.9998 6.40012C18.2398 6.40012 20.1278 8.06412 20.4158 10.2401H11.5838C11.8718 8.06412 13.7598 6.40012 15.9998 6.40012ZM10.8798 14.7201C11.2318 14.7201 11.5198 15.0081 11.5198 15.3601C11.5198 15.7121 11.2318 16.0001 10.8798 16.0001C10.5278 16.0001 10.2398 15.7121 10.2398 15.3601C10.2398 15.0081 10.5278 14.7201 10.8798 14.7201ZM26.8798 25.6001H5.11984V11.5201H10.2398V13.5361C9.50384 13.7921 8.95984 14.4961 8.95984 15.3601C8.95984 16.4161 9.82384 17.2801 10.8798 17.2801C11.9358 17.2801 12.7998 16.4161 12.7998 15.3601C12.7998 14.5281 12.2558 13.8241 11.5198 13.5361V11.5201H20.4798V13.5361C19.7438 13.7921 19.1998 14.4961 19.1998 15.3601C19.1998 16.4161 20.0638 17.2801 21.1198 17.2801C22.1758 17.2801 23.0398 16.4161 23.0398 15.3601C23.0398 14.5281 22.4958 13.8241 21.7598 13.5361V11.5201H26.8798V25.6001Z" fill="black"/>
<path d="M78.0806 -297.6V241.28H-492.799V-297.6H78.0806ZM80.6406 -300.16H-495.359V243.84H80.6406V-300.16Z" fill="#0000FF"/>
</g>
<defs>
<clipPath id="clip0_355_425">
<rect width="32" height="32" fill="white"/>
</clipPath>
</defs>
</svg>
