<svg width="24" height="24" viewBox="0 0 24 24" fill="none" xmlns="http://www.w3.org/2000/svg">
<path d="M11.2307 0.59203L8.19049 6.75542L1.3896 7.74382C1.2021 7.7706 1.03067 7.85899 0.899422 7.99292C0.740748 8.15601 0.653312 8.37542 0.656325 8.60295C0.659339 8.83047 0.752556 9.04749 0.915494 9.20632L5.83603 14.0036L4.67353 20.7777C4.64627 20.9353 4.66371 21.0974 4.72387 21.2456C4.78402 21.3937 4.8845 21.5221 5.01389 21.6161M11.2307 0.59203L11.6779 0.815637L8.63891 6.97661L8.5226 7.21241L8.2624 7.25023L1.46151 8.23862L1.46031 8.23879C1.38401 8.24969 1.3129 8.28566 1.25719 8.34222M11.2307 0.59203C11.4423 0.168816 11.9566 -0.00529144 12.3798 0.203637L11.2307 0.59203ZM1.25719 8.34222C1.25739 8.34201 1.25759 8.3418 1.25779 8.34159L0.899455 7.99296L1.25653 8.34289C1.25675 8.34266 1.25697 8.34244 1.25719 8.34222ZM1.25719 8.34222C1.19131 8.41025 1.15503 8.50161 1.15628 8.59632C1.15754 8.69133 1.19647 8.78195 1.2645 8.84828L1.26454 8.84831L6.18507 13.6456L6.37329 13.8291L6.32883 14.0882L5.16633 20.8623L5.16621 20.863C5.15488 20.9285 5.16213 20.9959 5.18714 21.0575C5.21215 21.1191 5.25392 21.1724 5.30772 21.2115L5.01389 21.6161M5.01389 21.6161L5.30772 21.2115C5.36151 21.2506 5.42518 21.2738 5.49151 21.2785C5.55782 21.2833 5.62414 21.2693 5.68294 21.2383L5.68371 21.2379L11.7667 18.0396L11.9994 17.9173L12.2321 18.0396L18.3151 21.2379L18.3174 21.239C18.3832 21.2741 18.463 21.287 18.5405 21.2735L18.5413 21.2734C18.7364 21.2398 18.8658 21.0554 18.8326 20.8627L18.8325 20.8623L17.67 14.0882L17.6256 13.8291L17.8138 13.6456L22.7334 8.84921L5.91639 21.6804C5.77497 21.7551 5.61546 21.7886 5.45594 21.7773C5.29642 21.7659 5.14329 21.7101 5.01389 21.6161ZM22.8375 8.64542C22.8266 8.72188 22.7905 8.79312 22.7337 8.84888L11.6784 0.814683C11.768 0.636754 11.9838 0.565756 12.1584 0.651981L12.159 0.652266C12.2288 0.686574 12.2852 0.74306 12.3195 0.812783L12.3198 0.813217L15.3599 6.97661L15.4762 7.21241L15.7364 7.25023L22.5358 8.23839L22.6092 7.74382L22.5373 8.23862L22.5365 8.23849C22.7365 8.26859 22.8674 8.45118 22.8383 8.6399L22.8383 8.63989L22.8375 8.64542Z" fill="#F2CE83" stroke="black"/>
</svg>
