<svg width="24" height="24" viewBox="0 0 24 24" fill="none" xmlns="http://www.w3.org/2000/svg">
<path d="M11.6777 0.81543C11.7671 0.636895 11.9833 0.566022 12.1582 0.652344H12.1592C12.2287 0.686609 12.285 0.74297 12.3193 0.8125V0.813477L15.3604 6.97656L15.4766 7.21289L15.7363 7.25L22.5361 8.2373V8.23828C22.7363 8.2682 22.8669 8.45089 22.8379 8.63965V8.64551C22.827 8.72175 22.7909 8.79294 22.7344 8.84863L17.8135 13.6455L17.626 13.8291L17.6699 14.0879L18.833 20.8623C18.8621 21.0309 18.7663 21.1934 18.6113 21.2539L18.541 21.2734C18.4635 21.2869 18.3832 21.2742 18.3174 21.2393L18.3154 21.2383L12.2324 18.04L11.999 17.917L11.7666 18.04L5.68359 21.2383H5.68262C5.62388 21.2692 5.55744 21.283 5.49121 21.2783C5.42505 21.2735 5.36131 21.2509 5.30762 21.2119C5.25389 21.1729 5.21252 21.1191 5.1875 21.0576C5.16253 20.9961 5.15476 20.9287 5.16602 20.8633V20.8623L6.3291 14.0879L6.37305 13.8291L6.18555 13.6455L1.26465 8.84863C1.19669 8.78239 1.1576 8.69156 1.15625 8.59668C1.155 8.50218 1.19124 8.41076 1.25684 8.34277C1.31252 8.28605 1.38361 8.25026 1.45996 8.23926L1.46191 8.23828L8.2627 7.25L8.52246 7.21289L8.63867 6.97656L11.6777 0.81543Z" stroke="black"/>
</svg>
