<svg width="120" height="120" viewBox="0 0 120 120" fill="none" xmlns="http://www.w3.org/2000/svg">
<g clip-path="url(#clip0_2466_342)">
<mask id="mask0_2466_342" style="mask-type:luminance" maskUnits="userSpaceOnUse" x="0" y="0" width="120" height="120">
<path d="M120 0H0V120H120V0Z" fill="white"/>
</mask>
<g mask="url(#mask0_2466_342)">
<path d="M77.4505 45.1214C76.0953 45.0977 74.8268 44.0339 74.5632 42.7045C73.5644 37.35 69.5097 33.1507 64.2242 31.9724C62.8909 31.6759 61.8586 30.3672 61.8826 28.9983C61.9068 27.6192 62.998 26.341 64.3543 26.1018C69.6505 25.1156 73.8498 21.0609 75.0281 15.7754C75.0319 15.7583 75.0354 15.7447 75.0391 15.7276C75.3557 14.4153 76.6539 13.4102 78.0057 13.4339C79.354 13.4575 80.6162 14.5074 80.8866 15.8301C81.8886 21.2017 85.9431 25.401 91.2286 26.5793C92.5619 26.8759 93.5941 28.1846 93.5702 29.5534C93.546 30.9325 92.4548 32.2109 91.0984 32.4501C85.8023 33.4364 81.603 37.4909 80.4247 42.7764C80.1281 44.1097 78.8159 45.1453 77.4505 45.1214ZM72.0479 29.1798C74.2922 30.6908 76.1938 32.6567 77.6253 34.949C79.1362 32.7082 81.1057 30.8032 83.4048 29.3719C81.1573 27.8609 79.2555 25.895 77.8276 23.5992C76.3132 25.8435 74.3438 27.745 72.0479 29.1798Z" fill="white"/>
<path d="M88.6921 100.492C88.113 100.523 87.5397 100.107 87.3874 99.5472C86.8004 97.292 84.9438 95.6215 82.6526 95.2772C82.0747 95.1906 81.5949 94.6631 81.564 94.0781C81.533 93.4888 81.9603 92.9106 82.532 92.7678C84.7627 92.1879 86.4333 90.3314 86.7775 88.0402C86.7786 88.0328 86.7797 88.0269 86.7808 88.0195C86.8765 87.4499 87.4004 86.982 87.9781 86.9515C88.5542 86.9211 89.1244 87.3314 89.2795 87.8877C89.8684 90.1502 91.7248 91.8208 94.016 92.165C94.594 92.2516 95.0738 92.7791 95.1046 93.3641C95.1357 93.9534 94.7083 94.5317 94.1366 94.6745C91.9059 95.2544 90.2354 97.1108 89.8911 99.402C89.8046 99.9799 89.2756 100.461 88.6921 100.492ZM85.9079 93.8505C86.9111 94.428 87.7817 95.21 88.4614 96.1454C89.039 95.1437 89.8224 94.2715 90.7607 93.5917C89.7561 93.0142 88.8855 92.2323 88.2071 91.2953C87.6282 92.2986 86.8447 93.1693 85.9079 93.8505Z" fill="white"/>
<path d="M48.7206 40.2368C50.8085 35.0457 58.5163 36.4507 58.6383 42.0446C58.9018 54.3829 66.5157 65.3844 77.9886 69.9887C83.1788 72.0817 81.7719 79.8002 76.177 79.9272C63.8174 80.1874 52.8115 87.7949 48.2115 99.2467C46.1237 104.438 38.4158 103.033 38.2938 97.4389C38.0303 85.1006 30.4165 74.0991 18.9435 69.4948C13.7512 67.4014 15.1581 59.6829 20.7551 59.5563C33.1148 59.2961 44.1206 51.6886 48.7206 40.2368Z" fill="white"/>
</g>
</g>
<defs>
<clipPath id="clip0_2466_342">
<rect width="120" height="120" fill="white"/>
</clipPath>
</defs>
</svg>
