<svg width="40" height="40" viewBox="0 0 40 40" fill="none" xmlns="http://www.w3.org/2000/svg">
<path d="M35.2946 15.4739L35.2944 15.4738C34.9236 15.1027 34.6091 14.5772 34.3876 14.0422C34.1661 13.5072 34.0172 12.9134 34.0172 12.3892V8.68454C34.0172 7.20194 32.8024 5.98622 31.3169 5.98438C31.3167 5.98438 31.3166 5.98438 31.3164 5.98438L27.6124 5.98438C27.0875 5.98438 26.4936 5.83553 25.9586 5.614C25.4237 5.39248 24.8986 5.07795 24.5277 4.70705L24.5276 4.70702L21.9092 2.08814L21.9091 2.08805C20.8602 1.03836 19.1399 1.03836 18.091 2.08805L15.4726 4.70836L15.4725 4.70846C15.1013 5.07968 14.5757 5.39432 14.0406 5.61587C13.5056 5.83741 12.9117 5.9863 12.3877 5.9863H8.68454C7.20124 5.9863 5.98438 7.20173 5.98438 8.68598V12.3877C5.98438 12.9126 5.83553 13.5065 5.614 14.0415C5.39249 14.5765 5.07796 15.1017 4.70705 15.4726L2.08827 18.0928L2.08798 18.0931C1.03849 19.1414 1.03821 20.8607 2.08817 21.9106L1.73462 22.2642L2.08818 21.9106L4.70692 24.5294C5.07825 24.9004 5.3928 25.4261 5.61422 25.9611C5.83564 26.4961 5.98438 27.0899 5.98438 27.6138V31.317C5.98438 32.8005 7.20145 34.0172 8.68454 34.0172H12.3877C12.9127 34.0172 13.5066 34.1662 14.0415 34.3878C14.5764 34.6094 15.1015 34.9239 15.4723 35.2944L15.4725 35.2946L18.0907 37.9134C19.1397 38.9618 20.8604 38.9618 21.9094 37.9134L24.5276 35.2946L24.5278 35.2944C24.8989 34.9237 25.4239 34.6091 25.9588 34.3876C26.4937 34.1661 27.0875 34.0172 27.6124 34.0172H31.317C32.8018 34.0172 34.0172 32.8007 34.0172 31.317V27.6138C34.0172 27.0883 34.1662 26.4943 34.3878 25.9595C34.6094 25.4247 34.9239 24.9001 35.2946 24.5295C35.2946 24.5295 35.2946 24.5295 35.2946 24.5295L37.913 21.911L35.2946 15.4739ZM35.2946 15.4739L37.9133 18.0929L38.2669 17.7393M35.2946 15.4739L38.2669 17.7393M38.2669 17.7393L37.9133 18.0929M38.2669 17.7393L37.9133 18.0929M37.9133 18.0929C38.961 19.1405 38.9616 20.86 37.9133 21.9106L37.9133 18.0929ZM17.1063 27.5537L17.4599 27.9072L17.8134 27.5537L29.9531 15.4159L30.3068 15.0623L29.9531 14.7087L27.6904 12.4465L27.3369 12.093L26.9834 12.4465L17.4605 21.9685L13.0159 17.5231L12.6623 17.1695L12.3088 17.5231L10.046 19.7858L9.69248 20.1393L10.046 20.4929L17.1063 27.5537Z" fill="#DAA23D" stroke="black"/>
</svg>
