<svg width="32" height="32" viewBox="0 0 32 32" fill="none" xmlns="http://www.w3.org/2000/svg">
<path d="M26.8 25.6H6.4V5.2C6.4 4.88174 6.27357 4.57652 6.04853 4.35147C5.82348 4.12643 5.51826 4 5.2 4C4.88174 4 4.57652 4.12643 4.35147 4.35147C4.12643 4.57652 4 4.88174 4 5.2V26.8C4 27.1183 4.12643 27.4235 4.35147 27.6485C4.57652 27.8736 4.88174 28 5.2 28H26.8C27.1183 28 27.4235 27.8736 27.6485 27.6485C27.8736 27.4235 28 27.1183 28 26.8C28 26.4817 27.8736 26.1765 27.6485 25.9515C27.4235 25.7264 27.1183 25.6 26.8 25.6Z" fill="white"/>
<path d="M11.2008 21.9992V15.9992C11.2008 15.681 11.0744 15.3757 10.8493 15.1507C10.6243 14.9256 10.319 14.7992 10.0008 14.7992C9.68252 14.7992 9.3773 14.9256 9.15225 15.1507C8.92721 15.3757 8.80078 15.681 8.80078 15.9992V21.9992C8.80078 22.3175 8.92721 22.6227 9.15225 22.8477C9.3773 23.0728 9.68252 23.1992 10.0008 23.1992C10.319 23.1992 10.6243 23.0728 10.8493 22.8477C11.0744 22.6227 11.2008 22.3175 11.2008 21.9992ZM16.0008 21.9992V11.1992C16.0008 10.881 15.8744 10.5757 15.6493 10.3507C15.4243 10.1256 15.119 9.99922 14.8008 9.99922C14.4825 9.99922 14.1773 10.1256 13.9523 10.3507C13.7272 10.5757 13.6008 10.881 13.6008 11.1992V21.9992C13.6008 22.3175 13.7272 22.6227 13.9523 22.8477C14.1773 23.0728 14.4825 23.1992 14.8008 23.1992C15.119 23.1992 15.4243 23.0728 15.6493 22.8477C15.8744 22.6227 16.0008 22.3175 16.0008 21.9992ZM20.8008 21.9992V8.79922C20.8008 8.48096 20.6744 8.17573 20.4493 7.95069C20.2243 7.72565 19.919 7.59922 19.6008 7.59922C19.2825 7.59922 18.9773 7.72565 18.7523 7.95069C18.5272 8.17573 18.4008 8.48096 18.4008 8.79922V21.9992C18.4008 22.3175 18.5272 22.6227 18.7523 22.8477C18.9773 23.0728 19.2825 23.1992 19.6008 23.1992C19.919 23.1992 20.2243 23.0728 20.4493 22.8477C20.6744 22.6227 20.8008 22.3175 20.8008 21.9992ZM25.6008 21.9992V6.39922C25.6008 6.08096 25.4744 5.77573 25.2493 5.55069C25.0243 5.32565 24.719 5.19922 24.4008 5.19922C24.0825 5.19922 23.7773 5.32565 23.5523 5.55069C23.3272 5.77573 23.2008 6.08096 23.2008 6.39922V21.9992C23.2008 22.3175 23.3272 22.6227 23.5523 22.8477C23.7773 23.0728 24.0825 23.1992 24.4008 23.1992C24.719 23.1992 25.0243 23.0728 25.2493 22.8477C25.4744 22.6227 25.6008 22.3175 25.6008 21.9992Z" fill="#9870ED"/>
</svg>
