<svg width="32" height="32" viewBox="0 0 32 32" fill="none" xmlns="http://www.w3.org/2000/svg">
<path d="M22.95 2C18.35 2 14.625 5.725 14.625 10.325C14.625 14.925 18.35 18.65 22.95 18.65C27.55 18.65 31.275 14.925 31.275 10.325C31.275 5.725 27.55 2 22.95 2ZM22.95 5.125C23.525 5.125 23.975 5.6 23.975 6.15C23.975 6.725 23.5 7.175 22.95 7.175C22.375 7.175 21.925 6.7 21.925 6.15C21.925 5.575 22.375 5.125 22.95 5.125ZM22.95 8.375C23.65 8.375 24.225 8.95 24.225 9.65C24.225 10.35 23.65 10.925 22.95 10.925C22.25 10.925 21.675 10.35 21.675 9.65C21.675 8.95 22.25 8.375 22.95 8.375ZM26.625 11.95L23.1 15.5C23.075 15.525 23.025 15.55 22.975 15.55C22.925 15.55 22.875 15.525 22.85 15.5L19.275 11.95C19.225 11.9 19.2 11.8 19.25 11.725C19.3 11.65 19.375 11.6 19.45 11.625L22.875 12.25L26.475 11.625C26.55 11.625 26.65 11.65 26.675 11.725C26.7 11.8 26.7 11.9 26.625 11.95Z" fill="#9870ED"/>
<path d="M13.75 7.125C10.325 7.125 6.925 7.125 3.5 7.125C2.025 7.125 0.85 8.125 0.725 9.475C0.675 10.025 0.675 10.6 0.725 11.175C0.8 12.025 1.25 12.65 1.975 13.1C2.525 13.45 3.1 13.55 3.75 13.55C7.025 13.55 10.275 13.55 13.55 13.55H13.75C13.4 12.55 13.2 11.475 13.2 10.35C13.2 9.225 13.4 8.125 13.75 7.125ZM4.875 11.9C4 11.9 3.325 11.175 3.325 10.325C3.325 9.45 4.025 8.75 4.925 8.75C5.8 8.75 6.5 9.45 6.5 10.325C6.475 11.2 5.75 11.925 4.875 11.9ZM28.525 18.325C26.95 19.425 25.025 20.075 22.95 20.075C19.4 20.075 16.3 18.175 14.6 15.35C10.9 15.35 7.2 15.35 3.525 15.35C2.05 15.35 0.875 16.35 0.75 17.7C0.7 18.25 0.7 18.825 0.75 19.375C0.825 20.225 1.275 20.875 2 21.3C2.55 21.625 3.125 21.75 3.775 21.75C7.05 21.75 10.3 21.75 13.575 21.75C14.3 21.75 15 21.75 15.725 21.75C17.975 21.75 20.225 21.75 22.475 21.75C23.55 21.75 24.625 21.75 25.7 21.75C27.2 21.725 28.35 20.8 28.5 19.425C28.525 19.075 28.55 18.7 28.525 18.325ZM4.875 20.125C4 20.125 3.325 19.4 3.325 18.55C3.325 17.675 4.025 16.975 4.925 16.975C5.8 16.975 6.5 17.675 6.5 18.525C6.475 19.425 5.75 20.15 4.875 20.125ZM2 29.55C2.55 29.875 3.125 30 3.75 30C7.025 30 10.275 30 13.55 30C14.275 30 14.975 30 15.7 30C17.95 30 20.2 30 22.45 30C23.525 30 24.6 30 25.675 30C27.175 29.975 28.325 29.05 28.475 27.675C28.55 27.05 28.55 26.375 28.45 25.775C28.375 25.325 28.125 24.875 27.85 24.525C27.3 23.85 26.525 23.575 25.675 23.575H14.675C10.975 23.575 7.25 23.575 3.55 23.575C2.075 23.575 0.9 24.575 0.775 25.925C0.725 26.475 0.725 27.05 0.775 27.6C0.825 28.475 1.275 29.1 2 29.55ZM4.925 25.225C5.8 25.225 6.5 25.925 6.5 26.8C6.5 27.675 5.775 28.4 4.9 28.375C4.025 28.375 3.35 27.65 3.325 26.8C3.3 25.9 4.025 25.2 4.925 25.225Z" fill="white"/>
</svg>
