<svg width="40" height="40" viewBox="0 0 40 40" fill="none" xmlns="http://www.w3.org/2000/svg">
<path d="M31.0218 0H8.97818C4.01967 0 0 4.01967 0 8.97818V31.0218C0 35.9803 4.01967 40 8.97818 40H31.0218C35.9803 40 40 35.9803 40 31.0218V8.97818C40 4.01967 35.9803 0 31.0218 0Z" fill="#6772E5"/>
<path fill-rule="evenodd" clip-rule="evenodd" d="M18.4271 15.5179C18.4271 14.5619 19.2169 14.1324 20.4915 14.1324C22.6038 14.178 24.6766 14.714 26.5463 15.698V10.0312C24.6226 9.27687 22.5715 8.90053 20.5054 8.92281C15.5729 8.92281 12.2754 11.4999 12.2754 15.8504C12.2754 22.584 21.5307 21.4895 21.5307 24.3991C21.5307 25.5214 20.547 25.8816 19.203 25.8816C16.8354 25.751 14.5304 25.0728 12.4694 23.9003V29.7056C14.5695 30.6131 16.8321 31.0845 19.1199 31.0912C24.177 31.0912 27.6685 28.5972 27.6685 24.1635C27.7101 16.945 18.4271 18.2474 18.4271 15.5179Z" fill="white"/>
</svg>
