<svg width="32" height="32" viewBox="0 0 32 32" fill="none" xmlns="http://www.w3.org/2000/svg">
<path fill-rule="evenodd" clip-rule="evenodd" d="M11.4074 15.976H11.3534H11.2988C6.68544 16.006 2.90411 19.826 2.66677 24.6414C2.65811 24.8234 2.7241 25.0014 2.8501 25.134C2.97544 25.266 3.1501 25.3407 3.33277 25.3407H19.3734H19.3821C19.5614 25.3387 19.7328 25.264 19.8568 25.134C19.9821 25.0014 20.0481 24.8234 20.0394 24.6414C19.8021 19.826 16.0208 16.006 11.4074 15.976ZM16.1954 15.9454C18.6761 17.378 20.5228 19.8767 21.1508 22.8627H28.6661C28.8488 22.8627 29.0234 22.788 29.1488 22.656C29.2748 22.5233 29.3408 22.3453 29.3321 22.1633C29.1101 17.6607 25.5601 14.0927 21.2394 14.0927C19.3348 14.0927 17.5814 14.7847 16.1954 15.9454ZM11.3534 7.27804C9.13877 7.27804 7.34144 9.076 7.34144 11.29C7.34144 13.5047 9.13877 15.302 11.3534 15.302C13.5674 15.302 15.3654 13.5047 15.3654 11.29C15.3654 9.076 13.5674 7.27804 11.3534 7.27804ZM21.2394 6.65869C19.5041 6.65869 18.0948 8.06801 18.0948 9.80334C18.0948 11.5393 19.5041 12.948 21.2394 12.948C22.9754 12.948 24.3841 11.5393 24.3841 9.80334C24.3841 8.06801 22.9754 6.65869 21.2394 6.65869Z" fill="white"/>
</svg>
