<svg width="38" height="24" viewBox="0 0 38 24" fill="none" xmlns="http://www.w3.org/2000/svg">
<path d="M26.0945 12.4098C22.532 12.4098 19.9789 10.5989 17.5742 8.87702C13.5367 5.99733 10.0336 3.50358 2.04763 10.2426C1.69138 10.5395 1.18669 10.4801 0.889818 10.1536C0.592943 9.79734 0.652318 9.29265 0.978881 8.99577C9.97419 1.42546 14.3383 4.54265 18.5539 7.54108C22.7695 10.5395 26.7179 13.3598 35.9804 6.59108C36.3664 6.3239 36.8711 6.41296 37.1383 6.76921C37.4054 7.12546 37.3164 7.65983 36.9601 7.92702C32.4179 11.2223 28.9445 12.4098 26.0945 12.4098ZM26.0945 23.0676C22.532 23.0676 19.9789 21.2567 17.5742 19.5348C13.5367 16.6551 10.0336 14.1614 2.04763 20.9005C1.69138 21.1973 1.18669 21.138 0.889818 20.8114C0.592943 20.4551 0.652318 19.9505 0.978881 19.6536C9.97419 12.0833 14.3383 15.2005 18.5539 18.1989C22.7695 21.1973 26.7179 24.0176 35.9804 17.2489C36.3664 16.9817 36.8711 17.0708 37.1383 17.427C37.4054 17.7833 37.3164 18.3176 36.9601 18.5848C32.4179 21.9098 28.9445 23.0676 26.0945 23.0676ZM26.0945 33.7551C22.532 33.7551 19.9789 31.9442 17.5742 30.2223C13.5367 27.3426 10.0336 24.8489 2.04763 31.588C1.69138 31.8848 1.18669 31.8255 0.889818 31.4989C0.592943 31.1426 0.652318 30.638 0.978881 30.3411C9.97419 22.7708 14.3383 25.888 18.5539 28.8864C22.7695 31.8848 26.7179 34.7051 35.9804 27.9364C36.3664 27.6692 36.8711 27.7583 37.1383 28.1145C37.4054 28.4708 37.3164 29.0051 36.9601 29.2723C32.4179 32.5676 28.9445 33.7551 26.0945 33.7551Z" fill="black"/>
</svg>
