<svg xmlns="http://www.w3.org/2000/svg" enable-background="new 0 0 68 68" viewBox="0 0 68 68" id="BusinessPresentation">
  <path d="M54.89319 15.38332c-.11963 1.10547.25098 2.20508.99219 2.94238.58594.58252 1.55664.93018 2.59668.93018 1.08936 0 2.06348-.38867 2.67236-1.06689.39258-.43701.83252-1.21533.7002-2.44434-.20996-1.94629-1.77783-3.41455-3.64697-3.41455-.64014 0-1.26416.18213-1.80615.52686C55.55872 13.39357 55.00891 14.31447 54.89319 15.38332zM57.20715 14.12257c.30469-.19385.64111-.29248 1.00049-.29248.93652 0 2.01025.72754 2.15576 2.0752.05859.54492-.05078.97608-.3252 1.28174-.32471.36133-.89209.56885-1.55615.56885-.62354 0-1.24219-.19824-1.53906-.49365-.4209-.41895-.62988-1.06055-.55859-1.71729C56.45081 14.93117 56.75061 14.4131 57.20715 14.12257zM62.42493 35.54103c.00684 0 .01318 0 .02002-.00049.41406-.01074.74121-.35498.72998-.76904l-.21973-8.40771c-.01074-.41406-.3501-.77539-.76904-.72998-.41406.01074-.74121.35498-.72998.76904l.21973 8.40771C61.68616 35.21779 62.02014 35.54103 62.42493 35.54103z" fill="#fffdfd" class="color000000 svgShape"></path>
  <path d="M2.77551,37.3174c0.13567,3.56269,1.43735,4.48174,3.95557,4.71777c3.82575,0.3811,7.70599,0.59113,11.55756,0.64398
		c-1.16174,2.26581-1.9458,3.81677-2.46533,4.88745c-1.57214,3.07373-3.11932,6.02948-4.66791,8.89777l1.3203,0.71289
		c1.23872-2.29517,2.47474-4.63715,3.72413-7.05432l0.07959,0.0387c0.03839-0.07971,0.53876-1.09198,1.16632-2.3606
		l17.06329-0.39087c1.53784,2.98309,2.82764,5.62231,4.8324,9.74268l1.34863-0.65625
		c-2.92151-6.00464-4.32684-8.86993-7.18976-14.22772c12.257-0.43023,16.48763,1.25467,15.67657-7.68927
		c-0.0625-0.68896-0.12744-1.40137-0.1416-2.08594c-0.02679-1.28601-0.07153-2.57361-0.11578-3.86664
		c1.01581-0.45044,2.22168-0.97327,3.38629-1.46002c-0.12109,4.27246,0.08008,7.854,0.6665,12.08545
		c0.34863,2.50781,0.3252,5.20898,0.30273,7.82178c-0.03041,3.46298-0.09947,6.06115,0.62402,7.56934
		c0.92373,1.92633,3.6756,2.64228,4.14404-1.06006c0.79601,3.34561,4.10449,3.28226,5.1748,0.01953
		c0.47119-1.4375,0.4502-2.19092,0.24951-9.39941c-0.04346-1.55859-0.09521-3.42383-0.15283-5.66895
		c0.70117-0.06299,1.38428-0.60938,1.69531-1.37256c0.36719-0.90234,0.33984-1.88867,0.31396-2.84229L65.31458,33.959
		c-0.03027-1.1377,0.02832-2.31347,0.08447-3.45068c0.07227-1.45654,0.14697-2.96289,0.04395-4.46436
		c-0.14307-1.93652-0.66211-4.58545-2.32617-6.21387c-0.35254-0.34082-0.70313-0.50684-1.07227-0.50684
		c-0.74951,0-1.13428,0.646-1.44386,1.16455c-0.12792,0.21484-0.26024,0.43701-0.40331,0.60107
		c-1.29723,1.50405-2.96215,1.02361-3.76318-0.51367c-0.21289-0.40918-0.56934-1.09375-1.59912-1.10596
		c-1.15085,0-2.35226,0.69666-3.02637,2.46387c-0.33492,0.87606-0.08183,0.80774-3.04932,2.13531
		c-0.02493-2.4438,0.03381-5.4903-0.41888-8.08704l0.04242-0.00238c-1.93364-7.64267-3.07329-4.52832-27.30957-4.52832
		c-9.06992,0.00569-5.92457,0.33741-10.85938,0.38623c-1.47168,0.01514-2.99414,0.03076-4.49609,0.31689
		c-1.39444,0.27858-2.39669,1.10502-2.81055,1.91748c-0.35059,0.7207-0.36377,1.52051-0.37305,2.1167v0.49316
		C2.45801,23.52681,2.53821,30.46749,2.77551,37.3174z M18.19684,46.28304c0.44-0.88923,0.46643-0.93776,1.776-3.58533
		c3.80783-0.00881,5.73712-0.1013,11.86279-0.35986c0.70886,1.3222,1.33288,2.49829,1.9035,3.58917L18.19684,46.28304z
		 M52.68518,23.53566c0.25098-0.35059,0.39648-0.73145,0.5249-1.06738c0.66569-1.74618,1.62214-1.41631,1.72217-1.48828
		c0.11148,0.09455,1.11034,2.54932,3.5459,2.54932c0.72754,0,1.81299-0.25293,2.85303-1.45801
		c0.229-0.26318,0.40381-0.55615,0.55811-0.81543c0.05908-0.09863,0.13574-0.22754,0.20361-0.32861
		c1.37793,1.37109,1.75293,3.86035,1.854,5.22314c0.09668,1.40967,0.02441,2.87061-0.0459,4.28369
		c-0.05762,1.16504-0.11768,2.37012-0.08594,3.56006l0.00928,0.3667c0.02197,0.79883,0.04443,1.62549-0.2041,2.23584
		c-0.12646,0.31104-0.3623,0.43701-0.42822,0.4209c-0.16699-0.30225-0.52002-0.45166-0.85254-0.3623
		c-0.33398,0.09033-0.5625,0.39697-0.5542,0.74268c0.06934,2.78027,0.13184,5.02393,0.18262,6.84766
		c0.19629,7.04834,0.20361,7.73389-0.17578,8.89014c-0.21564,0.65814-0.84928,1.59667-1.38818,1.41895
		c-1.77312-0.56748-0.54876-4.11831-1.33008-15.23584c-0.02588-0.37842-0.10303-1.53076-0.99902-1.78223
		c-0.38558-0.10727-0.77079,0.00801-1.04199,0.2915c-1.67508,1.74738,0.725,16.88623-0.97363,16.88623
		c-1.61682,0-1.30133-5.69337-1.28418-7.62695c0.02295-2.66699,0.04688-5.4248-0.31738-8.0415
		c-0.62598-4.51611-0.80322-8.27832-0.61279-12.98633c0.01025-0.25488-0.10986-0.49756-0.31836-0.64404
		c-0.12842-0.08984-0.2793-0.13623-0.43115-0.13623c-0.0957,0-0.19141,0.01807-0.28271,0.05518
		c-1.27435,0.51892-2.70831,1.13269-3.94641,1.67651l-0.00037-0.01001c-0.75651,0.32202-3.15757,1.68779-3.19092,0.36328
		C45.68958,26.62235,51.77706,24.81664,52.68518,23.53566z M44.17493,27.34914v0.19238
		c-0.01252,1.28143,1.2993,1.97127,2.61652,1.84369c0.36869-0.03454,0.54286-0.09507,0.65106-0.11957
		c0.03662,1.08936,0.07031,2.17432,0.09277,3.25976c0.01563,0.73633,0.08301,1.4751,0.14746,2.18994
		c0.3125,3.44482,0.32227,5.2627-2.87744,5.69385l-0.24365,0.00977l-0.04395,0.02148
		c-1.01746,0.12613-23.91613,0.75879-25.01269,0.75879v0.74475l-0.00006-0.00006l-0.00629-0.74469
		c-1.54164-0.00735-12.85938-0.25241-14.17969-1.02051c-0.83887-0.48193-0.99756-1.6875-1.04443-2.91553
		c-0.23029-6.651-0.30975-13.38928-0.24323-20.05066c15.84971-0.2012,22.67183-0.26476,29.13873-0.75354
		c2.56055-0.18701,5.17969-0.22021,7.7124-0.25195c1.94379-0.0246,3.94617-0.05908,5.93634-0.15302
		c0.51898,2.8514,0.4038,6.58478,0.45038,8.64893C46.86436,24.97887,44.21261,25.46018,44.17493,27.34914z M46.45081,14.57814
		c-4.46502,0.19606-8.91772,0.05799-13.39209,0.38477c-6.7339,0.50922-13.38534,0.55379-29.00659,0.74994
		c0.01641-0.29472,0.05898-0.62124,0.17261-0.89325c0.7136-1.7066,4.71559-1.46439,6.75812-1.49689
		C45.11122,12.7985,45.16503,10.82603,46.45081,14.57814z" fill="#fffdfd" class="color000000 svgShape"></path>
  <path d="M18.64319 22.71633c.01172 0 .02344-.00049.03516-.00098l13.63037-.6333c.41406-.01904.73389-.37012.71436-.78369-.01904-.41406-.375-.73975-.78369-.71436l-13.63037.6333c-.41406.01904-.73389.37012-.71436.78369C17.91321 22.40285 18.24475 22.71633 18.64319 22.71633zM37.62708 27.73488l-26.5.6333c-.41406.01025-.7417.354-.73193.76807.00977.40771.34375.73193.74951.73193.00635 0 .01221 0 .01855 0l26.5-.6333c.41406-.01025.7417-.354.73193-.76807S38.04895 27.74855 37.62708 27.73488zM37.62708 32.88673l-26.5.6333c-.41406.01025-.7417.354-.73193.76807.00977.40771.34375.73193.74951.73193.00635 0 .01221 0 .01855 0l26.5-.6333c.41406-.01025.7417-.354.73193-.76807S38.04895 32.8838 37.62708 32.88673z" fill="#fffdfd" class="color000000 svgShape"></path>
</svg>
