<svg width="200" height="117" viewBox="0 0 200 117" fill="none" xmlns="http://www.w3.org/2000/svg">
<path d="M182.717 34.9078L182.702 34.9423C182.58 35.2033 182.447 35.3598 182.357 35.4669L182.354 35.4697C181.906 35.9983 181.089 36.4383 180.239 36.2634L180.214 36.2579L141.177 27.0668L141.007 27.0268L140.95 26.9857C139.804 26.6807 138.492 26.8468 137.14 27.5156C135.749 28.2035 134.597 29.3526 133.913 30.7103L133.909 30.7184C132.415 33.5974 133.511 36.208 135.797 36.9109L135.804 36.9134C136.349 37.0861 136.728 37.4765 136.883 37.9513C137.033 38.4135 136.961 38.9144 136.726 39.3605C136.294 40.1805 135.248 40.8634 134.16 40.5256C129.471 39.1536 128.007 34.0469 130.366 29.4887C132.712 24.9554 138.097 22.1368 142.603 23.4163L181.602 32.5982C182.194 32.7149 182.588 33.1041 182.761 33.554C182.928 33.9902 182.893 34.4761 182.717 34.9078Z" fill="#9870ED" stroke="#9870ED" stroke-width="0.5"/>
<path d="M78.2523 110.295C62.0017 113.279 44.6087 96.0933 39.4039 71.91C34.1991 47.7266 43.1534 25.703 59.4039 22.719C75.6545 19.735 93.0475 36.9204 98.2523 61.1038C103.457 85.2872 94.5028 107.311 78.2523 110.295Z" fill="black" stroke="black" stroke-width="2"/>
<path d="M140.362 98.89C124.111 101.874 106.718 84.6885 101.513 60.5052C96.3084 36.3218 105.263 14.2983 121.513 11.3142C137.764 8.33017 155.157 25.5156 160.362 49.699C165.567 73.8824 156.612 95.9059 140.362 98.89Z" fill="black" stroke="black" stroke-width="2"/>
<path d="M142.992 95.2698C126.741 98.2539 109.348 81.0684 104.143 56.885C98.9383 32.7017 107.893 10.6781 124.143 7.6941C140.394 4.71006 157.787 21.8955 162.992 46.0789C168.196 70.2623 159.242 92.2858 142.992 95.2698Z" fill="white" stroke="black" stroke-width="2"/>
<path d="M84.138 106.076C67.8875 109.061 50.4945 91.8751 45.2896 67.6917C40.0848 43.5083 49.0391 21.4848 65.2897 18.5007C81.5402 15.5167 98.9332 32.7022 104.138 56.8855C109.343 81.0689 100.389 103.092 84.138 106.076Z" fill="white" stroke="black" stroke-width="2"/>
<path d="M141.73 57.8276L148.269 56.627L149.568 62.6667L143.03 63.8673L141.73 57.8276Z" fill="black"/>
<path d="M140.427 51.79L146.966 50.5894L148.266 56.6291L141.727 57.8297L140.427 51.79Z" fill="black"/>
<path d="M146.977 50.5869L153.516 49.3862L154.816 55.4259L148.277 56.6266L146.977 50.5869Z" fill="black"/>
<path d="M133.891 52.9893L140.43 51.7886L141.73 57.8283L135.191 59.029L133.891 52.9893Z" fill="black"/>
<path d="M139.138 45.7495L145.677 44.5488L146.977 50.5885L140.438 51.7892L139.138 45.7495Z" fill="black"/>
<path d="M137.836 39.7085L144.375 38.5078L145.675 44.5475L139.136 45.7482L137.836 39.7085Z" fill="black"/>
<path d="M132.589 46.9487L139.128 45.748L140.428 51.7878L133.889 52.9884L132.589 46.9487Z" fill="black"/>
<path d="M145.675 44.5493L152.214 43.3486L153.514 49.3883L146.975 50.589L145.675 44.5493Z" fill="black"/>
<path d="M82.8753 68.6338L89.4141 67.4331L90.7139 73.4728L84.1752 74.6735L82.8753 68.6338Z" fill="black"/>
<path d="M81.5736 62.5962L88.1123 61.3955L89.4122 67.4352L82.8735 68.6359L81.5736 62.5962Z" fill="black"/>
<path d="M88.1224 61.3936L94.6611 60.1929L95.961 66.2326L89.4223 67.4333L88.1224 61.3936Z" fill="black"/>
<path d="M75.0365 63.7959L81.5752 62.5952L82.8751 68.6349L76.3364 69.8356L75.0365 63.7959Z" fill="black"/>
<path d="M80.2845 56.5557L86.8232 55.355L88.1231 61.3947L81.5844 62.5954L80.2845 56.5557Z" fill="black"/>
<path d="M78.9818 50.5151L85.5205 49.3145L86.8204 55.3542L80.2817 56.5548L78.9818 50.5151Z" fill="black"/>
<path d="M73.7347 57.7554L80.2734 56.5547L81.5733 62.5944L75.0346 63.7951L73.7347 57.7554Z" fill="black"/>
<path d="M86.8207 55.356L93.3594 54.1553L94.6593 60.195L88.1205 61.3957L86.8207 55.356Z" fill="black"/>
<path d="M160.677 85.7555C181.596 80.5795 194.058 60.6454 188.454 41.3229C182.815 21.8801 161.234 10.3695 140.315 15.5457C119.396 20.7218 106.935 40.6557 112.538 59.9782C118.047 79.4532 139.628 90.9638 160.677 85.7555ZM141.707 20.3464C159.768 15.8775 178.384 25.8065 183.256 42.6087C188.095 59.291 177.345 76.486 159.285 80.9548C141.224 85.4236 122.608 75.4946 117.77 58.8122C112.768 42.0421 123.647 24.8152 141.707 20.3464Z" fill="#9870ED"/>
<path d="M125.781 58.1148C126.56 57.9221 126.941 57.3134 126.732 56.5932C123.216 44.4714 131.052 32.1141 144.045 28.8989C144.824 28.706 145.205 28.0974 144.996 27.3772C144.787 26.6571 144.128 26.3057 143.349 26.4986C128.796 30.0994 120.27 43.9144 124.133 57.2361C124.307 57.8362 125.131 58.2756 125.781 58.1148Z" fill="#9870ED"/>
<path d="M78.3055 106.141C99.2245 100.965 111.686 81.0317 106.083 61.7088C100.574 42.2342 78.9929 30.7235 57.9439 35.9319C36.8949 41.1402 24.5632 61.0416 30.167 80.3645C35.8055 99.8071 57.3865 111.318 78.3055 106.141ZM59.3362 40.7326C77.3969 36.2635 96.0122 46.1925 100.85 62.8748C105.688 79.5572 94.9392 96.7522 76.8785 101.221C58.8179 105.69 40.2022 95.7608 35.3642 79.0784C30.5262 62.396 41.2755 45.2014 59.3362 40.7326Z" fill="#9870ED"/>
<path d="M43.5414 78.468C44.321 78.275 44.7014 77.6663 44.4927 76.9464C40.9774 64.8246 48.8124 52.4669 61.8057 49.2519C62.5854 49.0592 62.9657 48.4504 62.757 47.7303C62.548 47.0101 61.889 46.6588 61.1097 46.8515C46.557 50.4524 38.0307 64.2673 41.894 77.5893C42.068 78.1894 42.7617 78.6608 43.5414 78.468Z" fill="#9870ED"/>
<path d="M104.945 67.391L116.639 64.4974C117.419 64.3046 117.999 63.9038 118.379 63.2951C118.76 62.6863 118.811 61.9021 118.507 61.3341C118.099 60.4061 117.89 59.6859 117.646 58.846C116.045 53.3251 116.133 47.3864 117.894 41.9342C118.205 41.0854 117.926 40.1254 117.198 39.5339C116.469 38.9424 115.55 38.6552 114.641 38.8802L92.8125 44.2813C91.9028 44.5064 91.1325 45.2115 90.9515 46.028C90.6408 46.8769 91.0492 47.8049 91.6478 48.4284C96.1235 52.3374 99.4138 57.4404 101.015 62.961C101.224 63.6812 101.467 64.5214 101.616 65.5134C101.825 66.2336 102.129 66.8017 102.787 67.153C103.412 67.3845 104.166 67.5837 104.945 67.391ZM112.518 60.3719L106.152 61.9471C106.117 61.8273 106.117 61.8273 106.082 61.7072C104.62 56.6664 101.989 51.9153 98.4925 48.021L111.745 44.7419C110.859 49.849 111.117 55.0589 112.579 60.0997C112.449 60.1317 112.484 60.2518 112.518 60.3719Z" fill="#9870ED"/>
<path d="M30.4805 71.7827L30.4662 71.8187L30.4501 71.8544C30.3283 72.1217 30.1826 72.2935 30.1216 72.3655L30.1188 72.3689C29.6955 72.8683 28.8439 73.3668 27.8329 73.1439L27.8091 73.1387L27.7853 73.1328L9.62992 68.6034L9.33452 68.5298C9.17672 68.5202 8.96412 68.5529 8.68899 68.684C8.32216 68.8592 8.00102 69.1702 7.81339 69.5517L7.80492 69.5686C7.60152 69.9692 7.61556 70.2925 7.68292 70.4837C7.74486 70.6595 7.85492 70.7565 8.01016 70.8064L8.02389 70.8107C9.46162 71.2839 9.63256 72.6971 9.18706 73.5608C8.79912 74.3124 7.72439 75.1083 6.43229 74.6963C3.33366 73.7437 2.56113 70.5059 3.83672 67.987C5.08139 65.5291 8.12719 63.8282 10.9751 64.6562L29.0665 69.1696C29.7908 69.3322 30.2736 69.8186 30.4846 70.3399C30.6876 70.8415 30.6471 71.3584 30.4805 71.7827Z" fill="#9870ED" stroke="#9870ED"/>
<path d="M78.2523 110.295C62.0017 113.279 44.6087 96.0933 39.4039 71.91C34.1991 47.7266 43.1534 25.703 59.4039 22.719C75.6545 19.735 93.0475 36.9204 98.2523 61.1038C103.457 85.2872 94.5028 107.311 78.2523 110.295Z" fill="black" stroke="black" stroke-width="2"/>
<path d="M140.362 98.89C124.111 101.874 106.718 84.6885 101.513 60.5052C96.3084 36.3218 105.263 14.2983 121.513 11.3142C137.764 8.33017 155.157 25.5156 160.362 49.699C165.567 73.8824 156.612 95.9059 140.362 98.89Z" fill="black" stroke="black" stroke-width="2"/>
<path d="M142.992 95.2698C126.741 98.2539 109.348 81.0684 104.143 56.885C98.9383 32.7017 107.893 10.6781 124.143 7.6941C140.394 4.71006 157.787 21.8955 162.992 46.0789C168.196 70.2623 159.242 92.2858 142.992 95.2698Z" fill="white" stroke="black" stroke-width="3"/>
<path d="M84.138 106.076C67.8875 109.061 50.4945 91.8751 45.2896 67.6917C40.0848 43.5083 49.0391 21.4848 65.2897 18.5007C81.5402 15.5167 98.9332 32.7022 104.138 56.8855C109.343 81.0689 100.389 103.092 84.138 106.076Z" fill="white" stroke="black" stroke-width="3"/>
<path d="M141.73 57.8276L148.269 56.627L149.568 62.6667L143.03 63.8673L141.73 57.8276Z" fill="black"/>
<path d="M140.427 51.79L146.966 50.5894L148.266 56.6291L141.727 57.8297L140.427 51.79Z" fill="black"/>
<path d="M146.977 50.5869L153.516 49.3862L154.816 55.4259L148.277 56.6266L146.977 50.5869Z" fill="black"/>
<path d="M133.891 52.9893L140.43 51.7886L141.73 57.8283L135.191 59.029L133.891 52.9893Z" fill="black"/>
<path d="M139.138 45.7495L145.677 44.5488L146.977 50.5885L140.438 51.7892L139.138 45.7495Z" fill="black"/>
<path d="M137.836 39.7085L144.375 38.5078L145.675 44.5475L139.136 45.7482L137.836 39.7085Z" fill="black"/>
<path d="M132.589 46.9487L139.128 45.748L140.428 51.7878L133.889 52.9884L132.589 46.9487Z" fill="black"/>
<path d="M145.675 44.5493L152.214 43.3486L153.514 49.3883L146.975 50.589L145.675 44.5493Z" fill="black"/>
<path d="M82.8753 68.6338L89.4141 67.4331L90.7139 73.4728L84.1752 74.6735L82.8753 68.6338Z" fill="black"/>
<path d="M81.5736 62.5962L88.1123 61.3955L89.4122 67.4352L82.8735 68.6359L81.5736 62.5962Z" fill="black"/>
<path d="M88.1224 61.3936L94.6611 60.1929L95.961 66.2326L89.4223 67.4333L88.1224 61.3936Z" fill="black"/>
<path d="M75.0365 63.7959L81.5752 62.5952L82.8751 68.6349L76.3364 69.8356L75.0365 63.7959Z" fill="black"/>
<path d="M80.2845 56.5557L86.8232 55.355L88.1231 61.3947L81.5844 62.5954L80.2845 56.5557Z" fill="black"/>
<path d="M78.9818 50.5151L85.5205 49.3145L86.8204 55.3542L80.2817 56.5548L78.9818 50.5151Z" fill="black"/>
<path d="M73.7347 57.7554L80.2734 56.5547L81.5733 62.5944L75.0346 63.7951L73.7347 57.7554Z" fill="black"/>
<path d="M86.8207 55.356L93.3594 54.1553L94.6593 60.195L88.1205 61.3957L86.8207 55.356Z" fill="black"/>
<path d="M160.677 85.7555C181.596 80.5795 194.058 60.6454 188.454 41.3229C182.815 21.8801 161.234 10.3695 140.315 15.5457C119.396 20.7218 106.935 40.6557 112.538 59.9782C118.047 79.4532 139.628 90.9638 160.677 85.7555ZM141.707 20.3464C159.768 15.8775 178.384 25.8065 183.256 42.6087C188.095 59.291 177.345 76.486 159.285 80.9548C141.224 85.4236 122.608 75.4946 117.77 58.8122C112.768 42.0421 123.647 24.8152 141.707 20.3464Z" fill="#9870ED"/>
<path d="M125.781 58.1148C126.56 57.9221 126.941 57.3134 126.732 56.5932C123.216 44.4714 131.052 32.1141 144.045 28.8989C144.824 28.706 145.205 28.0974 144.996 27.3772C144.787 26.6571 144.128 26.3057 143.349 26.4986C128.796 30.0994 120.27 43.9144 124.133 57.2361C124.307 57.8362 125.131 58.2756 125.781 58.1148Z" fill="#9870ED"/>
<path d="M78.3055 106.141C99.2245 100.965 111.686 81.0317 106.083 61.7088C100.574 42.2342 78.9929 30.7235 57.9439 35.9319C36.8949 41.1402 24.5632 61.0416 30.167 80.3645C35.8055 99.8071 57.3865 111.318 78.3055 106.141ZM59.3362 40.7326C77.3969 36.2635 96.0122 46.1925 100.85 62.8748C105.688 79.5572 94.9392 96.7522 76.8785 101.221C58.8179 105.69 40.2022 95.7608 35.3642 79.0784C30.5262 62.396 41.2755 45.2014 59.3362 40.7326Z" fill="#9870ED"/>
<path d="M43.5414 78.468C44.321 78.275 44.7014 77.6663 44.4927 76.9464C40.9774 64.8246 48.8124 52.4669 61.8057 49.2519C62.5854 49.0592 62.9657 48.4504 62.757 47.7303C62.548 47.0101 61.889 46.6588 61.1097 46.8515C46.557 50.4524 38.0307 64.2673 41.894 77.5893C42.068 78.1894 42.7617 78.6608 43.5414 78.468Z" fill="#9870ED"/>
<path d="M104.945 67.391L116.639 64.4974C117.419 64.3046 117.999 63.9038 118.379 63.2951C118.76 62.6863 118.811 61.9021 118.507 61.3341C118.099 60.4061 117.89 59.6859 117.646 58.846C116.045 53.3251 116.133 47.3864 117.894 41.9342C118.205 41.0854 117.926 40.1254 117.198 39.5339C116.469 38.9424 115.55 38.6552 114.641 38.8802L92.8125 44.2813C91.9028 44.5064 91.1325 45.2115 90.9515 46.028C90.6408 46.8769 91.0492 47.8049 91.6478 48.4284C96.1235 52.3374 99.4138 57.4404 101.015 62.961C101.224 63.6812 101.467 64.5214 101.616 65.5134C101.825 66.2336 102.129 66.8017 102.787 67.153C103.412 67.3845 104.166 67.5837 104.945 67.391ZM112.518 60.3719L106.152 61.9471C106.117 61.8273 106.117 61.8273 106.082 61.7072C104.62 56.6664 101.989 51.9153 98.4925 48.021L111.745 44.7419C110.859 49.849 111.117 55.0589 112.579 60.0997C112.449 60.1317 112.484 60.2518 112.518 60.3719Z" fill="#9870ED"/>
</svg>
