<svg width="53" height="48" viewBox="0 0 53 48" fill="none" xmlns="http://www.w3.org/2000/svg">
<path d="M49.35 19.453L50.1778 18.892L49.35 19.453C50.3764 20.9678 50.7521 22.8175 50.3987 24.5952L47.3375 39.9935C46.9841 41.7712 45.9295 43.3366 44.4018 44.3436C42.8735 45.351 40.9969 45.7168 39.1849 45.3566L7.99355 39.1558C6.18156 38.7956 4.58757 37.7398 3.56081 36.2245C2.5344 34.7097 2.1587 32.86 2.51212 31.0822L5.57327 15.684C5.92669 13.9062 6.98128 12.3409 8.50904 11.3339C10.0373 10.3265 11.9139 9.96064 13.7259 10.3209L44.9173 16.5217C46.7292 16.8819 48.3232 17.9377 49.35 19.453Z" fill="white" stroke="black" stroke-width="2"/>
<ellipse cx="32.0234" cy="29.2534" rx="5.43447" ry="8.75554" transform="rotate(11.2437 32.0234 29.2534)" fill="black" stroke="black" stroke-width="2"/>
<ellipse cx="21.0351" cy="26.4362" rx="5.43447" ry="8.75554" transform="rotate(11.2437 21.0351 26.4362)" fill="black" stroke="black" stroke-width="2"/>
<ellipse cx="20.2968" cy="26.3061" rx="5.43447" ry="8.75554" transform="rotate(11.2437 20.2968 26.3061)" fill="white" stroke="black" stroke-width="2"/>
<ellipse cx="30.957" cy="28.4253" rx="5.43447" ry="8.75554" transform="rotate(11.2437 30.957 28.4253)" fill="white" stroke="black" stroke-width="2"/>
<rect width="1.27155" height="1.45455" transform="matrix(0.963416 0.280078 -0.134007 0.992959 17.416 27.594)" fill="black"/>
<rect width="1.27155" height="1.45455" transform="matrix(0.963416 0.280078 -0.134007 0.992959 17.6523 26.0919)" fill="black"/>
<rect width="1.27155" height="1.45455" transform="matrix(0.963416 0.280078 -0.134007 0.992959 16.4668 25.7936)" fill="black"/>
<rect width="1.27155" height="1.45455" transform="matrix(0.963416 0.280078 -0.134007 0.992959 18.8359 26.3906)" fill="black"/>
<rect width="1.27155" height="1.45455" transform="matrix(0.963416 0.280078 -0.134007 0.992959 17.8867 24.5901)" fill="black"/>
<rect width="1.27155" height="1.45455" transform="matrix(0.963416 0.280078 -0.134007 0.992959 18.1211 23.0884)" fill="black"/>
<rect width="1.27155" height="1.45455" transform="matrix(0.963416 0.280078 -0.134007 0.992959 19.0723 24.8889)" fill="black"/>
<rect width="1.27155" height="1.45455" transform="matrix(0.963416 0.280078 -0.134007 0.992959 16.7012 24.2914)" fill="black"/>
<rect width="1.25774" height="1.15692" transform="matrix(0.972628 0.224211 -0.16949 0.984135 28.25 29.4362)" fill="black"/>
<rect width="1.25774" height="1.15692" transform="matrix(0.972628 0.224211 -0.16949 0.984135 28.4863 28.2515)" fill="black"/>
<rect width="1.25774" height="1.15692" transform="matrix(0.972628 0.224211 -0.16949 0.984135 27.3027 28.0162)" fill="black"/>
<rect width="1.25774" height="1.15692" transform="matrix(0.972628 0.224211 -0.16949 0.984135 29.6699 28.4871)" fill="black"/>
<rect width="1.25774" height="1.15692" transform="matrix(0.972628 0.224211 -0.16949 0.984135 28.7227 27.0671)" fill="black"/>
<rect width="1.25774" height="1.15692" transform="matrix(0.972628 0.224211 -0.16949 0.984135 28.957 25.8828)" fill="black"/>
<rect width="1.25774" height="1.15692" transform="matrix(0.972628 0.224211 -0.16949 0.984135 29.9062 27.3027)" fill="black"/>
<rect width="1.25774" height="1.15692" transform="matrix(0.972628 0.224211 -0.16949 0.984135 27.5371 26.8315)" fill="black"/>
<path d="M39.2072 12.1568L15.3953 0.908415C15.3928 0.904013 15.3894 0.896963 15.3856 0.88639C15.3713 0.846513 15.3649 0.78417 15.3842 0.717644C15.3974 0.672405 15.4162 0.645771 15.4299 0.631612L39.2417 11.8799C39.2442 11.8843 39.2476 11.8914 39.2514 11.902C39.2657 11.9419 39.2722 12.0044 39.2528 12.071L39.2072 12.1568ZM15.3995 0.914548C15.3995 0.914595 15.399 0.914121 15.3982 0.912983C15.3992 0.913932 15.3996 0.9145 15.3995 0.914548Z" fill="#757D8C" stroke="white"/>
<path d="M44.4533 16.4303L44.3737 16.9375L37.052 15.092L37.1316 14.5847C37.5352 12.01 39.5515 10.5041 41.4999 10.9952C42.4809 11.2425 43.3145 11.9512 43.8588 12.9312C44.4038 13.9125 44.6525 15.1596 44.4533 16.4303Z" fill="white" stroke="black"/>
</svg>
