<svg width="720" height="720" viewBox="0 0 720 720" fill="none" xmlns="http://www.w3.org/2000/svg">
<rect width="720" height="720" fill="#FEFEFE"/>
<path d="M548.602 305.556L548.568 305.636C548.29 306.238 547.986 306.599 547.781 306.846L547.774 306.853C546.753 308.073 544.89 309.088 542.952 308.684L542.895 308.672L453.891 287.461L453.503 287.369L453.373 287.274C450.76 286.57 447.769 286.954 444.686 288.497C441.515 290.085 438.888 292.736 437.329 295.869L437.32 295.888C433.913 302.532 436.412 308.556 441.624 310.179L441.64 310.184C442.883 310.583 443.747 311.484 444.1 312.579C444.442 313.646 444.278 314.802 443.742 315.831C442.757 317.724 440.373 319.3 437.892 318.52C427.201 315.354 423.863 303.569 429.242 293.05C434.591 282.589 446.868 276.084 457.142 279.037L546.06 300.226C547.41 300.495 548.308 301.394 548.702 302.432C549.083 303.438 549.003 304.56 548.602 305.556Z" fill="#C7C3C3" stroke="#C7C3C3" stroke-width="0.5"/>
<path d="M310.411 479.529C273.36 486.415 233.704 446.756 221.837 390.948C209.97 335.14 230.386 284.316 267.437 277.43C304.488 270.544 344.144 310.203 356.011 366.01C367.878 421.818 347.462 472.642 310.411 479.529Z" fill="#C7C3C3" stroke="#C7C3C3" stroke-width="2"/>
<path d="M452.022 453.209C414.969 460.095 375.313 420.436 363.446 364.629C351.58 308.821 371.996 257.997 409.046 251.111C446.098 244.225 485.754 283.883 497.622 339.691C509.489 395.499 489.072 446.322 452.022 453.209Z" fill="#C7C3C3" stroke="#C7C3C3" stroke-width="2"/>
<path d="M458.03 444.855C420.977 451.741 381.321 412.083 369.454 356.275C357.587 300.467 378.004 249.644 415.054 242.757C452.106 235.871 491.762 275.53 503.63 331.338C515.495 387.145 495.08 437.969 458.03 444.855Z" fill="white" stroke="#C7C3C3" stroke-width="2"/>
<path d="M323.841 469.789C286.79 476.677 247.134 437.017 235.267 381.21C223.4 325.402 243.815 274.578 280.867 267.692C317.918 260.806 357.574 300.465 369.441 356.272C381.308 412.08 360.893 462.903 323.841 469.789Z" fill="white" stroke="#C7C3C3" stroke-width="2"/>
<path d="M455.141 358.446L470.05 355.676L473.011 369.614L458.105 372.384L455.141 358.446Z" fill="#C7C3C3"/>
<path d="M452.172 344.516L467.081 341.745L470.045 355.683L455.136 358.454L452.172 344.516Z" fill="#C7C3C3"/>
<path d="M467.102 341.739L482.01 338.968L484.974 352.906L470.066 355.676L467.102 341.739Z" fill="#C7C3C3"/>
<path d="M437.273 347.285L452.182 344.514L455.146 358.451L440.237 361.222L437.273 347.285Z" fill="#C7C3C3"/>
<path d="M449.238 330.576L464.147 327.805L467.111 341.742L452.202 344.513L449.238 330.576Z" fill="#C7C3C3"/>
<path d="M446.27 316.637L461.178 313.866L464.142 327.804L449.234 330.575L446.27 316.637Z" fill="#C7C3C3"/>
<path d="M434.305 333.345L449.214 330.574L452.178 344.512L437.269 347.283L434.305 333.345Z" fill="#C7C3C3"/>
<path d="M464.133 327.808L479.042 325.037L482.006 338.975L467.097 341.746L464.133 327.808Z" fill="#C7C3C3"/>
<path d="M320.953 383.386L335.862 380.615L338.825 394.553L323.917 397.324L320.953 383.386Z" fill="#C7C3C3"/>
<path d="M317.984 369.452L332.893 366.682L335.856 380.619L320.948 383.39L317.984 369.452Z" fill="#C7C3C3"/>
<path d="M332.914 366.677L347.822 363.906L350.786 377.844L335.878 380.615L332.914 366.677Z" fill="#C7C3C3"/>
<path d="M303.086 372.221L317.994 369.45L320.958 383.388L306.049 386.159L303.086 372.221Z" fill="#C7C3C3"/>
<path d="M315.051 355.511L329.959 352.74L332.923 366.678L318.014 369.449L315.051 355.511Z" fill="#C7C3C3"/>
<path d="M312.082 341.573L326.99 338.803L329.954 352.741L315.046 355.511L312.082 341.573Z" fill="#C7C3C3"/>
<path d="M300.117 358.28L315.025 355.509L317.989 369.447L303.081 372.217L300.117 358.28Z" fill="#C7C3C3"/>
<path d="M329.945 352.743L344.854 349.972L347.817 363.909L332.909 366.68L329.945 352.743Z" fill="#C7C3C3"/>
<path d="M498.347 422.898C546.043 410.953 574.456 364.951 561.679 320.361C548.822 275.493 499.617 248.93 451.922 260.875C404.227 272.82 375.815 318.821 388.59 363.412C401.151 408.354 450.355 434.917 498.347 422.898ZM455.096 271.954C496.275 261.641 538.719 284.554 549.827 323.328C560.86 361.826 536.35 401.506 495.173 411.819C453.994 422.132 411.55 399.219 400.519 360.721C389.115 322.021 413.919 282.266 455.096 271.954Z" fill="#C7C3C3"/>
<path d="M418.79 359.112C420.566 358.668 421.435 357.263 420.958 355.601C412.942 327.628 430.808 299.111 460.432 291.691C462.208 291.246 463.076 289.841 462.6 288.179C462.123 286.518 460.621 285.707 458.845 286.152C425.664 294.461 406.225 326.342 415.032 357.085C415.429 358.469 417.308 359.483 418.79 359.112Z" fill="#C7C3C3"/>
<path d="M310.53 469.94C358.226 457.995 386.638 411.995 373.863 367.404C361.303 322.463 312.098 295.9 264.106 307.919C216.114 319.938 187.998 365.864 200.775 410.456C213.63 455.323 262.835 481.887 310.53 469.94ZM267.28 318.998C308.459 308.684 350.902 331.597 361.932 370.095C372.963 408.593 348.455 448.274 307.277 458.586C266.099 468.899 223.655 445.986 212.624 407.488C201.594 368.99 226.102 329.31 267.28 318.998Z" fill="#C7C3C3"/>
<path d="M231.269 406.082C233.047 405.636 233.914 404.232 233.438 402.57C225.423 374.597 243.287 346.079 272.912 338.66C274.689 338.215 275.557 336.81 275.081 335.148C274.604 333.486 273.102 332.676 271.325 333.12C238.145 341.43 218.705 373.311 227.513 404.054C227.91 405.439 229.491 406.527 231.269 406.082Z" fill="#C7C3C3"/>
<path d="M371.284 380.518L397.946 373.84C399.722 373.395 401.045 372.47 401.913 371.065C402.78 369.661 402.896 367.851 402.203 366.54C401.273 364.399 400.796 362.737 400.24 360.798C396.589 348.058 396.79 334.353 400.805 321.771C401.514 319.812 400.88 317.597 399.218 316.232C397.558 314.867 395.463 314.204 393.388 314.723L343.619 327.187C341.545 327.707 339.789 329.334 339.376 331.218C338.668 333.177 339.599 335.319 340.964 336.758C351.168 345.778 358.67 357.555 362.321 370.294C362.798 371.956 363.354 373.895 363.691 376.185C364.168 377.847 364.861 379.158 366.363 379.968C367.786 380.503 369.505 380.962 371.284 380.518ZM388.55 364.32L374.033 367.955C373.954 367.678 373.954 367.678 373.874 367.401C370.543 355.768 364.542 344.804 356.57 335.818L386.788 328.25C384.768 340.036 385.354 352.059 388.687 363.691C388.391 363.765 388.47 364.042 388.55 364.32Z" fill="#C7C3C3"/>
<path d="M201.494 390.652L201.461 390.736L201.425 390.818C201.147 391.435 200.815 391.831 200.676 391.997L200.669 392.005C199.704 393.158 197.763 394.308 195.457 393.794L195.403 393.782L195.349 393.768L153.955 383.316L153.281 383.146C152.921 383.124 152.437 383.199 151.809 383.502C150.973 383.906 150.241 384.624 149.813 385.504L149.794 385.543C149.33 386.467 149.362 387.214 149.516 387.655C149.657 388.06 149.908 388.284 150.262 388.399L150.293 388.409C153.571 389.501 153.961 392.763 152.945 394.756C152.06 396.49 149.61 398.327 146.664 397.376C139.599 395.178 137.838 387.706 140.746 381.893C143.584 376.221 150.528 372.296 157.022 374.207L198.27 384.622C199.921 384.997 201.022 386.12 201.503 387.323C201.966 388.48 201.874 389.673 201.494 390.652Z" fill="#C7C3C3" stroke="#C7C3C3"/>
<path d="M310.411 479.529C273.36 486.415 233.704 446.756 221.837 390.948C209.97 335.14 230.386 284.316 267.437 277.43C304.488 270.544 344.144 310.203 356.011 366.01C367.878 421.818 347.462 472.642 310.411 479.529Z" fill="#C7C3C3" stroke="#C7C3C3" stroke-width="2"/>
<path d="M452.022 453.209C414.969 460.095 375.313 420.436 363.446 364.629C351.58 308.821 371.996 257.997 409.046 251.111C446.098 244.225 485.754 283.883 497.622 339.691C509.489 395.499 489.072 446.322 452.022 453.209Z" fill="#C7C3C3" stroke="#C7C3C3" stroke-width="2"/>
<path d="M458.03 444.855C420.977 451.741 381.321 412.083 369.454 356.275C357.587 300.467 378.004 249.644 415.054 242.757C452.106 235.871 491.762 275.53 503.63 331.338C515.495 387.145 495.08 437.969 458.03 444.855Z" fill="white" stroke="#C7C3C3"/>
<path d="M323.841 469.789C286.79 476.677 247.134 437.017 235.267 381.21C223.4 325.402 243.815 274.578 280.867 267.692C317.918 260.806 357.574 300.465 369.441 356.272C381.308 412.08 360.893 462.903 323.841 469.789Z" fill="white" stroke="#C7C3C3"/>
<path d="M455.141 358.446L470.05 355.676L473.011 369.614L458.105 372.384L455.141 358.446Z" fill="#C7C3C3"/>
<path d="M452.172 344.516L467.081 341.745L470.045 355.683L455.136 358.454L452.172 344.516Z" fill="#C7C3C3"/>
<path d="M467.102 341.739L482.01 338.968L484.974 352.906L470.066 355.676L467.102 341.739Z" fill="#C7C3C3"/>
<path d="M437.273 347.285L452.182 344.514L455.146 358.451L440.237 361.222L437.273 347.285Z" fill="#C7C3C3"/>
<path d="M449.238 330.576L464.147 327.805L467.111 341.742L452.202 344.513L449.238 330.576Z" fill="#C7C3C3"/>
<path d="M446.27 316.637L461.178 313.866L464.142 327.804L449.234 330.575L446.27 316.637Z" fill="#C7C3C3"/>
<path d="M434.305 333.345L449.214 330.574L452.178 344.512L437.269 347.283L434.305 333.345Z" fill="#C7C3C3"/>
<path d="M464.133 327.808L479.042 325.037L482.006 338.975L467.097 341.746L464.133 327.808Z" fill="#C7C3C3"/>
<path d="M320.953 383.386L335.862 380.615L338.825 394.553L323.917 397.324L320.953 383.386Z" fill="#C7C3C3"/>
<path d="M317.984 369.452L332.893 366.682L335.856 380.619L320.948 383.39L317.984 369.452Z" fill="#C7C3C3"/>
<path d="M332.914 366.677L347.822 363.906L350.786 377.844L335.878 380.615L332.914 366.677Z" fill="#C7C3C3"/>
<path d="M303.086 372.221L317.994 369.45L320.958 383.388L306.049 386.159L303.086 372.221Z" fill="#C7C3C3"/>
<path d="M315.051 355.511L329.959 352.74L332.923 366.678L318.014 369.449L315.051 355.511Z" fill="#C7C3C3"/>
<path d="M312.082 341.573L326.99 338.803L329.954 352.741L315.046 355.511L312.082 341.573Z" fill="#C7C3C3"/>
<path d="M300.117 358.28L315.025 355.509L317.989 369.447L303.081 372.217L300.117 358.28Z" fill="#C7C3C3"/>
<path d="M329.945 352.743L344.854 349.972L347.817 363.909L332.909 366.68L329.945 352.743Z" fill="#C7C3C3"/>
<path d="M498.347 422.898C546.043 410.953 574.456 364.951 561.679 320.361C548.822 275.493 499.617 248.93 451.922 260.875C404.227 272.82 375.815 318.821 388.59 363.412C401.151 408.354 450.355 434.917 498.347 422.898ZM455.096 271.954C496.275 261.641 538.719 284.554 549.827 323.328C560.86 361.826 536.35 401.506 495.173 411.819C453.994 422.132 411.55 399.219 400.519 360.721C389.115 322.021 413.919 282.266 455.096 271.954Z" fill="#C7C3C3"/>
<path d="M418.79 359.112C420.566 358.668 421.435 357.263 420.958 355.601C412.942 327.628 430.808 299.111 460.432 291.691C462.208 291.246 463.076 289.841 462.6 288.179C462.123 286.518 460.621 285.707 458.845 286.152C425.664 294.461 406.225 326.342 415.032 357.085C415.429 358.469 417.308 359.483 418.79 359.112Z" fill="#C7C3C3"/>
<path d="M310.53 469.94C358.226 457.995 386.638 411.995 373.863 367.404C361.303 322.463 312.098 295.9 264.106 307.919C216.114 319.938 187.998 365.864 200.775 410.456C213.63 455.323 262.835 481.887 310.53 469.94ZM267.28 318.998C308.459 308.684 350.902 331.597 361.932 370.095C372.963 408.593 348.455 448.274 307.277 458.586C266.099 468.899 223.655 445.986 212.624 407.488C201.594 368.99 226.102 329.31 267.28 318.998Z" fill="#C7C3C3"/>
<path d="M231.269 406.082C233.047 405.636 233.914 404.232 233.438 402.57C225.423 374.597 243.287 346.079 272.912 338.66C274.689 338.215 275.557 336.81 275.081 335.148C274.604 333.486 273.102 332.676 271.325 333.12C238.145 341.43 218.705 373.311 227.513 404.054C227.91 405.439 229.491 406.527 231.269 406.082Z" fill="#C7C3C3"/>
<path d="M371.284 380.518L397.946 373.84C399.722 373.395 401.045 372.47 401.913 371.065C402.78 369.661 402.896 367.851 402.203 366.54C401.273 364.399 400.796 362.737 400.24 360.798C396.589 348.058 396.79 334.353 400.805 321.771C401.514 319.812 400.88 317.597 399.218 316.232C397.558 314.867 395.463 314.204 393.388 314.723L343.619 327.187C341.545 327.707 339.789 329.334 339.376 331.218C338.668 333.177 339.599 335.319 340.964 336.758C351.168 345.778 358.67 357.555 362.321 370.294C362.798 371.956 363.354 373.895 363.691 376.185C364.168 377.847 364.861 379.158 366.363 379.968C367.786 380.503 369.505 380.962 371.284 380.518ZM388.55 364.32L374.033 367.955C373.954 367.678 373.954 367.678 373.874 367.401C370.543 355.768 364.542 344.804 356.57 335.818L386.788 328.25C384.768 340.036 385.354 352.059 388.687 363.691C388.391 363.765 388.47 364.042 388.55 364.32Z" fill="#C7C3C3"/>
</svg>
