<svg width="56" height="14" viewBox="0 0 56 14" fill="none" xmlns="http://www.w3.org/2000/svg">
<path d="M0 0.285156H1.07143V1.35658H0V0.285156ZM1.07143 0.285156H2.14286V1.35658H1.07143V0.285156ZM1.07143 1.35658H2.14286V2.42801H1.07143V1.35658ZM1.07143 2.42801H2.14286V3.49944H1.07143V2.42801ZM1.07143 3.49944H2.14286V4.57087H1.07143V3.49944ZM0 3.49944H1.07143V4.57087H0V3.49944ZM0 2.42801H1.07143V3.49944H0V2.42801ZM0 1.35658H1.07143V2.42801H0V1.35658ZM0 4.57087H1.07143V5.6423H0V4.57087ZM0 5.6423H1.07143V6.71373H0V5.6423ZM0 6.71373H1.07143V7.78516H0V6.71373ZM1.07143 5.6423H2.14286V6.71373H1.07143V5.6423ZM1.07143 4.57087H2.14286V5.6423H1.07143V4.57087ZM1.07143 6.71373H2.14286V7.78516H1.07143V6.71373ZM1.07143 7.78516H2.14286V8.85658H1.07143V7.78516ZM0 8.85658H1.07143V9.92801H0V8.85658ZM0 7.78516H1.07143V8.85658H0V7.78516ZM0 9.92801H1.07143V10.9994H0V9.92801ZM1.07143 9.92801H2.14286V10.9994H1.07143V9.92801ZM1.07143 8.85658H2.14286V9.92801H1.07143V8.85658ZM2.14286 9.92801H3.21429V10.9994H2.14286V9.92801ZM3.21429 9.92801H4.28571V10.9994H3.21429V9.92801ZM4.28571 9.92801H5.35714V10.9994H4.28571V9.92801ZM4.28571 8.85658H5.35714V9.92801H4.28571V8.85658ZM3.21429 8.85658H4.28571V9.92801H3.21429V8.85658ZM2.14286 8.85658H3.21429V9.92801H2.14286V8.85658ZM2.14286 0.285156H3.21429V1.35658H2.14286V0.285156ZM3.21429 0.285156H4.28571V1.35658H3.21429V0.285156ZM4.28571 0.285156H5.35714V1.35658H4.28571V0.285156ZM5.35714 0.285156H6.42857V1.35658H5.35714V0.285156ZM4.28571 1.35658H5.35714V2.42801H4.28571V1.35658ZM3.21429 1.35658H4.28571V2.42801H3.21429V1.35658ZM2.14286 1.35658H3.21429V2.42801H2.14286V1.35658ZM2.14286 5.6423H3.21429V6.71373H2.14286V5.6423ZM3.21429 4.57087H4.28571V5.6423H3.21429V4.57087ZM2.14286 4.57087H3.21429V5.6423H2.14286V4.57087ZM3.21429 5.6423H4.28571V6.71373H3.21429V5.6423ZM5.35714 1.35658H6.42857V2.42801H5.35714V1.35658ZM5.35714 8.85658H6.42857V9.92801H5.35714V8.85658ZM5.35714 9.92801H6.42857V10.9994H5.35714V9.92801ZM4.28571 4.57087H5.35714V5.6423H4.28571V4.57087ZM4.28571 5.6423H5.35714V6.71373H4.28571V5.6423Z" fill="black"/>
<path d="M13.9286 10.9994H12.8571V9.92801H13.9286V10.9994ZM13.9286 9.92801H12.8571V8.85658H13.9286V9.92801ZM12.8571 9.92801H11.7857V8.85658H12.8571V9.92801ZM11.7857 10.9994H10.7143V9.92801H11.7857V10.9994ZM10.7143 10.9994H9.64286V9.92801H10.7143V10.9994ZM9.64286 10.9994H8.57143V9.92801H9.64286V10.9994ZM9.64286 9.92801H8.57143V8.85658H9.64286V9.92801ZM10.7143 9.92801H9.64286V8.85658H10.7143V9.92801ZM8.57143 9.92801H7.5V8.85658H8.57143V9.92801ZM8.57143 8.85658H7.5V7.78516H8.57143V8.85658ZM8.57143 4.57087H7.5V3.49944H8.57143V4.57087ZM9.64286 4.57087H8.57143V3.49944H9.64286V4.57087ZM9.64286 8.85658H8.57143V7.78516H9.64286V8.85658ZM10.7143 4.57087H9.64286V3.49944H10.7143V4.57087ZM9.64286 3.49944H8.57143V2.42801H9.64286V3.49944ZM10.7143 3.49944H9.64286V2.42801H10.7143V3.49944ZM11.7857 3.49944H10.7143V2.42801H11.7857V3.49944ZM12.8571 3.49944H11.7857V2.42801H12.8571V3.49944ZM13.9286 3.49944H12.8571V2.42801H13.9286V3.49944ZM13.9286 4.57087H12.8571V3.49944H13.9286V4.57087ZM12.8571 4.57087H11.7857V3.49944H12.8571V4.57087ZM13.9286 5.6423H12.8571V4.57087H13.9286V5.6423ZM15 4.57087H13.9286V3.49944H15V4.57087ZM15 5.6423H13.9286V4.57087H15V5.6423ZM15 6.71373H13.9286V5.6423H15V6.71373ZM15 7.78516H13.9286V6.71373H15V7.78516ZM15 8.85658H13.9286V7.78516H15V8.85658ZM15 9.92801H13.9286V8.85658H15V9.92801ZM13.9286 8.85658H12.8571V7.78516H13.9286V8.85658ZM13.9286 7.78516H12.8571V6.71373H13.9286V7.78516ZM13.9286 6.71373H12.8571V5.6423H13.9286V6.71373ZM11.7857 4.57087H10.7143V3.49944H11.7857V4.57087ZM11.7857 9.92801H10.7143V8.85658H11.7857V9.92801ZM13.9286 9.92801H15V10.9994H13.9286V9.92801ZM11.7857 5.6423H12.8571V6.71373H11.7857V5.6423ZM10.7143 5.6423H11.7857V6.71373H10.7143V5.6423ZM9.64286 5.6423H10.7143V6.71373H9.64286V5.6423ZM8.57143 5.6423H9.64286V6.71373H8.57143V5.6423ZM7.5 6.71373H8.57143V7.78516H7.5V6.71373ZM8.57143 6.71373H9.64286V7.78516H8.57143V6.71373ZM11.7857 6.71373H12.8571V7.78516H11.7857V6.71373ZM10.7143 6.71373H11.7857V7.78516H10.7143V6.71373ZM9.64286 6.71373H10.7143V7.78516H9.64286V6.71373Z" fill="black"/>
<path d="M16.0742 3.49944H17.1456V4.57087H16.0742V3.49944ZM17.1456 4.57087H18.2171V5.6423H17.1456V4.57087ZM16.0742 4.57087H17.1456V5.6423H16.0742V4.57087ZM16.0742 5.6423H17.1456V6.71373H16.0742V5.6423ZM17.1456 5.6423H18.2171V6.71373H17.1456V5.6423ZM17.1456 6.71373H18.2171V7.78516H17.1456V6.71373ZM18.2171 6.71373H19.2885V7.78516H18.2171V6.71373ZM19.2885 6.71373H20.3599V7.78516H19.2885V6.71373ZM20.3599 5.6423H21.4314V6.71373H20.3599V5.6423ZM19.2885 5.6423H20.3599V6.71373H19.2885V5.6423ZM18.2171 5.6423H19.2885V6.71373H18.2171V5.6423ZM20.3599 6.71373H21.4314V7.78516H20.3599V6.71373ZM21.4314 6.71373H22.5028V7.78516H21.4314V6.71373ZM21.4314 7.78516H22.5028V8.85658H21.4314V7.78516ZM20.3599 7.78516H21.4314V8.85658H20.3599V7.78516ZM20.3599 8.85658H21.4314V9.92801H20.3599V8.85658ZM21.4314 8.85658H22.5028V9.92801H21.4314V8.85658ZM20.3599 9.92801H21.4314V10.9994H20.3599V9.92801ZM19.2885 8.85658H20.3599V9.92801H19.2885V8.85658ZM18.2171 8.85658H19.2885V9.92801H18.2171V8.85658ZM17.1456 8.85658H18.2171V9.92801H17.1456V8.85658ZM16.0742 8.85658H17.1456V9.92801H16.0742V8.85658ZM17.1456 9.92801H18.2171V10.9994H17.1456V9.92801ZM18.2171 9.92801H19.2885V10.9994H18.2171V9.92801ZM19.2885 9.92801H20.3599V10.9994H19.2885V9.92801ZM21.4314 3.49944H22.5028V4.57087H21.4314V3.49944ZM20.3599 3.49944H21.4314V4.57087H20.3599V3.49944ZM20.3599 2.42801H21.4314V3.49944H20.3599V2.42801ZM19.2885 2.42801H20.3599V3.49944H19.2885V2.42801ZM18.2171 2.42801H19.2885V3.49944H18.2171V2.42801ZM17.1456 2.42801H18.2171V3.49944H17.1456V2.42801ZM17.1456 3.49944H18.2171V4.57087H17.1456V3.49944ZM18.2171 3.49944H19.2885V4.57087H18.2171V3.49944ZM19.2885 3.49944H20.3599V4.57087H19.2885V3.49944Z" fill="black"/>
<path d="M23.5742 2.42801H24.6456V3.49944H23.5742V2.42801ZM24.6456 2.42801H25.7171V3.49944H24.6456V2.42801ZM24.6456 3.49944H25.7171V4.57087H24.6456V3.49944ZM24.6456 4.57087H25.7171V5.6423H24.6456V4.57087ZM24.6456 5.6423H25.7171V6.71373H24.6456V5.6423ZM23.5742 4.57087H24.6456V5.6423H23.5742V4.57087ZM23.5742 3.49944H24.6456V4.57087H23.5742V3.49944ZM23.5742 5.6423H24.6456V6.71373H23.5742V5.6423ZM23.5742 6.71373H24.6456V7.78516H23.5742V6.71373ZM24.6456 6.71373H25.7171V7.78516H24.6456V6.71373ZM24.6456 7.78516H25.7171V8.85658H24.6456V7.78516ZM25.7171 7.78516H26.7885V8.85658H25.7171V7.78516ZM25.7171 8.85658H26.7885V9.92801H25.7171V8.85658ZM26.7885 8.85658H27.8599V9.92801H26.7885V8.85658ZM27.8599 8.85658H28.9314V9.92801H27.8599V8.85658ZM27.8599 7.78516H28.9314V8.85658H27.8599V7.78516ZM27.8599 6.71373H28.9314V7.78516H27.8599V6.71373ZM28.9314 6.71373H30.0028V7.78516H28.9314V6.71373ZM28.9314 7.78516H30.0028V8.85658H28.9314V7.78516ZM28.9314 5.6423H30.0028V6.71373H28.9314V5.6423ZM27.8599 5.6423H28.9314V6.71373H27.8599V5.6423ZM27.8599 2.42801H28.9314V3.49944H27.8599V2.42801ZM28.9314 2.42801H30.0028V3.49944H28.9314V2.42801ZM28.9314 3.49944H30.0028V4.57087H28.9314V3.49944ZM28.9314 4.57087H30.0028V5.6423H28.9314V4.57087ZM27.8599 3.49944H28.9314V4.57087H27.8599V3.49944ZM27.8599 4.57087H28.9314V5.6423H27.8599V4.57087ZM26.7885 9.92801H27.8599V10.9994H26.7885V9.92801ZM25.7171 9.92801H26.7885V10.9994H25.7171V9.92801ZM25.7171 10.9994H26.7885V12.0709H25.7171V10.9994ZM24.6456 10.9994H25.7171V12.0709H24.6456V10.9994ZM24.6456 9.92801H25.7171V10.9994H24.6456V9.92801ZM24.6456 12.0709H25.7171V13.1423H24.6456V12.0709ZM23.5742 12.0709H24.6456V13.1423H23.5742V12.0709ZM23.5742 10.9994H24.6456V12.0709H23.5742V10.9994ZM26.7885 7.78516H27.8599V8.85658H26.7885V7.78516ZM25.7171 6.71373H26.7885V7.78516H25.7171V6.71373Z" fill="black"/>
<path d="M31.0742 0.285156H32.1456V1.35658H31.0742V0.285156ZM32.1456 0.285156H33.2171V1.35658H32.1456V0.285156ZM33.2171 0.285156H34.2885V1.35658H33.2171V0.285156ZM34.2885 0.285156H35.3599V1.35658H34.2885V0.285156ZM35.3599 0.285156H36.4314V1.35658H35.3599V0.285156ZM36.4314 0.285156H37.5028V1.35658H36.4314V0.285156ZM36.4314 1.35658H37.5028V2.42801H36.4314V1.35658ZM35.3599 1.35658H36.4314V2.42801H35.3599V1.35658ZM34.2885 1.35658H35.3599V2.42801H34.2885V1.35658ZM33.2171 1.35658H34.2885V2.42801H33.2171V1.35658ZM32.1456 1.35658H33.2171V2.42801H32.1456V1.35658ZM31.0742 1.35658H32.1456V2.42801H31.0742V1.35658ZM37.5028 1.35658H38.5742V2.42801H37.5028V1.35658ZM37.5028 2.42801H38.5742V3.49944H37.5028V2.42801ZM37.5028 3.49944H38.5742V4.57087H37.5028V3.49944ZM36.4314 3.49944H37.5028V4.57087H36.4314V3.49944ZM36.4314 2.42801H37.5028V3.49944H36.4314V2.42801ZM36.4314 4.57087H37.5028V5.6423H36.4314V4.57087ZM35.3599 4.57087H36.4314V5.6423H35.3599V4.57087ZM34.2885 4.57087H35.3599V5.6423H34.2885V4.57087ZM33.2171 4.57087H34.2885V5.6423H33.2171V4.57087ZM32.1456 4.57087H33.2171V5.6423H32.1456V4.57087ZM32.1456 3.49944H33.2171V4.57087H32.1456V3.49944ZM32.1456 2.42801H33.2171V3.49944H32.1456V2.42801ZM31.0742 2.42801H32.1456V3.49944H31.0742V2.42801ZM31.0742 3.49944H32.1456V4.57087H31.0742V3.49944ZM31.0742 4.57087H32.1456V5.6423H31.0742V4.57087ZM31.0742 5.6423H32.1456V6.71373H31.0742V5.6423ZM32.1456 5.6423H33.2171V6.71373H32.1456V5.6423ZM33.2171 5.6423H34.2885V6.71373H33.2171V5.6423ZM34.2885 5.6423H35.3599V6.71373H34.2885V5.6423ZM35.3599 5.6423H36.4314V6.71373H35.3599V5.6423ZM36.4314 5.6423H37.5028V6.71373H36.4314V5.6423ZM37.5028 5.6423H38.5742V6.71373H37.5028V5.6423ZM37.5028 6.71373H38.5742V7.78516H37.5028V6.71373ZM36.4314 6.71373H37.5028V7.78516H36.4314V6.71373ZM36.4314 8.85658H37.5028V9.92801H36.4314V8.85658ZM37.5028 8.85658H38.5742V9.92801H37.5028V8.85658ZM37.5028 7.78516H38.5742V8.85658H37.5028V7.78516ZM36.4314 7.78516H37.5028V8.85658H36.4314V7.78516ZM36.4314 9.92801H37.5028V10.9994H36.4314V9.92801ZM35.3599 9.92801H36.4314V10.9994H35.3599V9.92801ZM34.2885 9.92801H35.3599V10.9994H34.2885V9.92801ZM33.2171 9.92801H34.2885V10.9994H33.2171V9.92801ZM32.1456 9.92801H33.2171V10.9994H32.1456V9.92801ZM31.0742 9.92801H32.1456V10.9994H31.0742V9.92801ZM31.0742 8.85658H32.1456V9.92801H31.0742V8.85658ZM31.0742 7.78516H32.1456V8.85658H31.0742V7.78516ZM31.0742 6.71373H32.1456V7.78516H31.0742V6.71373ZM32.1456 6.71373H33.2171V7.78516H32.1456V6.71373ZM32.1456 7.78516H33.2171V8.85658H32.1456V7.78516ZM32.1456 8.85658H33.2171V9.92801H32.1456V8.85658ZM33.2171 8.85658H34.2885V9.92801H33.2171V8.85658ZM34.2885 8.85658H35.3599V9.92801H34.2885V8.85658ZM35.3599 8.85658H36.4314V9.92801H35.3599V8.85658Z" fill="black"/>
<path d="M39.6484 0.285156H41.7913V2.42801H39.6484V0.285156ZM39.6484 3.49944H41.7913V10.9994H39.6484V3.49944Z" fill="black"/>
<path d="M47.1568 8.85658H48.2282V9.92801H47.1568V8.85658ZM47.1568 9.92801H48.2282V10.9994H47.1568V9.92801ZM46.0854 9.92801H47.1568V10.9994H46.0854V9.92801ZM46.0854 8.85658H47.1568V9.92801H46.0854V8.85658ZM45.014 9.92801H46.0854V10.9994H45.014V9.92801ZM45.014 8.85658H46.0854V9.92801H45.014V8.85658ZM43.9425 8.85658H45.014V9.92801H43.9425V8.85658ZM43.9425 7.78516H45.014V8.85658H43.9425V7.78516ZM43.9425 6.71373H45.014V7.78516H43.9425V6.71373ZM43.9425 5.6423H45.014V6.71373H43.9425V5.6423ZM43.9425 4.57087H45.014V5.6423H43.9425V4.57087ZM43.9425 3.49944H45.014V4.57087H43.9425V3.49944ZM45.014 6.71373H46.0854V7.78516H45.014V6.71373ZM45.014 7.78516H46.0854V8.85658H45.014V7.78516ZM45.014 5.6423H46.0854V6.71373H45.014V5.6423ZM45.014 4.57087H46.0854V5.6423H45.014V4.57087ZM45.014 0.285156H46.0854V1.35658H45.014V0.285156ZM45.014 1.35658H46.0854V2.42801H45.014V1.35658ZM45.014 2.42801H46.0854V3.49944H45.014V2.42801ZM45.014 3.49944H46.0854V4.57087H45.014V3.49944ZM43.9425 2.42801H45.014V3.49944H43.9425V2.42801ZM42.8711 3.49944H43.9425V4.57087H42.8711V3.49944ZM46.0854 3.49944H47.1568V4.57087H46.0854V3.49944ZM47.1568 3.49944H48.2282V4.57087H47.1568V3.49944ZM43.9425 1.35658H45.014V2.42801H43.9425V1.35658ZM42.8711 4.57087H43.9425V5.6423H42.8711V4.57087ZM46.0854 4.57087H47.1568V5.6423H46.0854V4.57087ZM47.1568 4.57087H48.2282V5.6423H47.1568V4.57087Z" fill="black"/>
<path d="M49.2969 3.49944H50.3683V4.57087H49.2969V3.49944ZM50.3683 4.57087H51.4397V5.6423H50.3683V4.57087ZM49.2969 4.57087H50.3683V5.6423H49.2969V4.57087ZM49.2969 5.6423H50.3683V6.71373H49.2969V5.6423ZM50.3683 5.6423H51.4397V6.71373H50.3683V5.6423ZM50.3683 6.71373H51.4397V7.78516H50.3683V6.71373ZM51.4397 6.71373H52.5112V7.78516H51.4397V6.71373ZM52.5112 6.71373H53.5826V7.78516H52.5112V6.71373ZM53.5826 5.6423H54.654V6.71373H53.5826V5.6423ZM52.5112 5.6423H53.5826V6.71373H52.5112V5.6423ZM51.4397 5.6423H52.5112V6.71373H51.4397V5.6423ZM53.5826 6.71373H54.654V7.78516H53.5826V6.71373ZM54.654 6.71373H55.7254V7.78516H54.654V6.71373ZM54.654 7.78516H55.7254V8.85658H54.654V7.78516ZM53.5826 7.78516H54.654V8.85658H53.5826V7.78516ZM53.5826 8.85658H54.654V9.92801H53.5826V8.85658ZM54.654 8.85658H55.7254V9.92801H54.654V8.85658ZM53.5826 9.92801H54.654V10.9994H53.5826V9.92801ZM52.5112 8.85658H53.5826V9.92801H52.5112V8.85658ZM51.4397 8.85658H52.5112V9.92801H51.4397V8.85658ZM50.3683 8.85658H51.4397V9.92801H50.3683V8.85658ZM49.2969 8.85658H50.3683V9.92801H49.2969V8.85658ZM50.3683 9.92801H51.4397V10.9994H50.3683V9.92801ZM51.4397 9.92801H52.5112V10.9994H51.4397V9.92801ZM52.5112 9.92801H53.5826V10.9994H52.5112V9.92801ZM54.654 3.49944H55.7254V4.57087H54.654V3.49944ZM53.5826 3.49944H54.654V4.57087H53.5826V3.49944ZM53.5826 2.42801H54.654V3.49944H53.5826V2.42801ZM52.5112 2.42801H53.5826V3.49944H52.5112V2.42801ZM51.4397 2.42801H52.5112V3.49944H51.4397V2.42801ZM50.3683 2.42801H51.4397V3.49944H50.3683V2.42801ZM50.3683 3.49944H51.4397V4.57087H50.3683V3.49944ZM51.4397 3.49944H52.5112V4.57087H51.4397V3.49944ZM52.5112 3.49944H53.5826V4.57087H52.5112V3.49944Z" fill="black"/>
</svg>
