<svg xmlns="http://www.w3.org/2000/svg" enable-background="new 0 0 100 100" viewBox="0 0 100 100" id="TariffPlansSubscription">
  <path d="M82.698,25.195h-18.04v-1.128c0-1.865-1.517-3.382-3.382-3.382h-22.55c-1.865,0-3.382,1.517-3.382,3.382v1.128h-18.04c-1.865,0-3.382,1.517-3.382,3.382v47.355c0,1.866,1.517,3.382,3.382,3.382h22.55c1.865,0,3.382-1.517,3.382-3.382v-1.128h13.53v1.128c0,1.866,1.518,3.382,3.382,3.382h22.55c1.865,0,3.382-1.517,3.382-3.382V28.577C86.08,26.712,84.563,25.195,82.698,25.195z M83.825,75.933c0,0.622-0.506,1.127-1.127,1.127h-22.55c-0.621,0-1.127-0.506-1.127-1.127v-1.128h2.255c1.865,0,3.382-1.517,3.382-3.382v-6.822v-4.51v-4.51V27.45h18.04c0.621,0,1.127,0.506,1.127,1.127V75.933z M40.98,75.933c0,0.622-0.506,1.127-1.127,1.127h-22.55c-0.622,0-1.128-0.506-1.128-1.127V28.577c0-0.622,0.506-1.127,1.128-1.127h18.04v43.972c0,1.866,1.517,3.382,3.382,3.382h2.255V75.933z M40.98,72.55h-2.255c-0.621,0-1.127-0.506-1.127-1.128V27.45v-1.128v-1.128v-1.128c0-0.622,0.506-1.127,1.127-1.127h22.55c0.621,0,1.127,0.506,1.127,1.127v1.128v1.128v1.128v43.972c0,0.622-0.506,1.128-1.127,1.128H59.02h-1.127h-1.128h-13.53h-1.128H40.98z M70.295,43.235h-2.819V40.98h2.819h1.691c0.622,0,1.128-0.506,1.128-1.127c0-0.622-0.506-1.128-1.128-1.128h-1.127c-1.865,0-3.383-1.517-3.383-3.382c0-1.673,1.222-3.062,2.819-3.331v-1.179h2.255v1.127h2.819v2.255H72.55h-1.691c-0.621,0-1.128,0.506-1.128,1.127c0,0.622,0.506,1.128,1.128,1.128h1.127c1.865,0,3.382,1.517,3.382,3.382c0,1.673-1.221,3.062-2.819,3.332v1.178h-2.255V43.235z M27.45,43.235h-2.819V40.98h2.819h1.691c0.621,0,1.128-0.506,1.128-1.127c0-0.622-0.506-1.128-1.128-1.128h-1.128c-1.865,0-3.382-1.517-3.382-3.382c0-1.673,1.222-3.062,2.819-3.331v-1.179h2.255v1.127h2.819v2.255h-2.819h-1.691c-0.622,0-1.128,0.506-1.128,1.127c0,0.622,0.506,1.128,1.128,1.128h1.128c1.865,0,3.382,1.517,3.382,3.382c0,1.673-1.222,3.062-2.819,3.332v1.178H27.45V43.235z M48.873,38.725h-2.819V36.47h2.819h1.691c0.621,0,1.127-0.506,1.127-1.128c0-0.621-0.506-1.127-1.127-1.127h-1.128c-1.865,0-3.383-1.517-3.383-3.382c0-1.673,1.222-3.062,2.819-3.331v-1.179h2.255v1.128h2.819v2.255h-2.819h-1.691c-0.622,0-1.128,0.506-1.128,1.128c0,0.622,0.506,1.127,1.128,1.127h1.128c1.865,0,3.382,1.517,3.382,3.382c0,1.673-1.222,3.062-2.819,3.332v1.178h-2.255V38.725z M43.235,45.49h-1.128v-2.255h1.128h13.53h1.128v2.255h-1.128H43.235z M56.765,48.873h1.128v2.255h-1.128H46.618v-2.255H56.765z M43.235,51.099l-1.128-0.028l0.056-2.198l1.071,0.028l1.127,0.029v2.198L43.235,51.099z M56.765,54.51h1.128v2.255h-1.128H46.618V54.51H56.765z M43.235,56.737l-1.128-0.029l0.056-2.198l1.071,0.028l1.127,0.029v2.198L43.235,56.737z M66.912,47.745h13.53V50h-13.53V47.745z M69.168,53.382h11.275v2.255H69.168V53.382z M66.912,55.638l-2.255-0.057l0.056-2.198l2.199,0.057V55.638z M77.06,57.893v2.255h-7.892v-2.255H77.06z M66.912,60.147l-2.255-0.057l0.056-2.198l2.199,0.057V60.147z M69.168,62.403h11.275v2.255H69.168V62.403z M66.912,64.658l-2.255-0.057l0.056-2.198l2.199,0.057V64.658z M19.558,47.745h13.53V50h-13.53V47.745z M24.067,55.638h9.02v2.255h-9.02V55.638z M21.813,57.893l-2.255-0.057l0.056-2.198l2.199,0.057V57.893z M24.067,60.147h9.02v2.255h-9.02V60.147z M45.49,69.168h9.02c0.867,0,1.656-0.33,2.255-0.868c0.69-0.619,1.128-1.515,1.128-2.514c0-0.998-0.437-1.894-1.128-2.514c-0.599-0.538-1.388-0.868-2.255-0.868h-9.02c-0.867,0-1.656,0.331-2.255,0.868c-0.69,0.62-1.128,1.516-1.128,2.514c0,0.999,0.437,1.895,1.128,2.514C43.834,68.838,44.623,69.168,45.49,69.168z M45.49,64.658h9.02c0.622,0,1.128,0.506,1.128,1.128c0,0.622-0.506,1.127-1.128,1.127h-9.02c-0.622,0-1.128-0.506-1.128-1.127C44.362,65.163,44.868,64.658,45.49,64.658z M24.067,66.912h9.02v2.255H31.96h-7.892c-0.622,0-1.127,0.506-1.127,1.127c0,0.622,0.506,1.128,1.127,1.128h7.892h1.128v2.255h-9.02c-1.865,0-3.382-1.517-3.382-3.382C20.685,68.43,22.202,66.912,24.067,66.912z M79.315,70.295c0,1.866-1.518,3.382-3.382,3.382h-9.02v-2.255h1.128h7.893c0.621,0,1.127-0.505,1.127-1.128c0-0.621-0.506-1.127-1.127-1.127H68.04h-1.128v-2.255h9.02C77.798,66.912,79.315,68.43,79.315,70.295z" fill="#fffdfd" class="color000000 svgShape"></path>
</svg>
