<svg width="1440" height="1024" viewBox="0 0 1440 1024" fill="none" xmlns="http://www.w3.org/2000/svg">
<path d="M0 387H1440" stroke="white"/>
<path d="M0 432H1440" stroke="white"/>
<path d="M0 478H1440" stroke="white"/>
<path d="M0 523H1440" stroke="white"/>
<path d="M0 569H1440" stroke="white"/>
<path d="M0 614H1440" stroke="white"/>
<path d="M0 660H1440" stroke="white"/>
<path d="M0 705H1440" stroke="white"/>
<path d="M0 749H1440" stroke="white"/>
<path d="M0 794H1440" stroke="white"/>
<path d="M0 840H1440" stroke="white"/>
<path d="M0 885H1440" stroke="white"/>
<path d="M0 931H1440" stroke="white"/>
<path d="M0 976H1440" stroke="white"/>
<path d="M0 1022H1440" stroke="url(#paint0_linear_409_38)" stroke-opacity="0.1"/>
<path d="M0 70H1440" stroke="white"/>
<path d="M0 116H1440" stroke="white"/>
<path d="M0 161H1440" stroke="white"/>
<path d="M0 207H1440" stroke="white"/>
<path d="M0 252H1440" stroke="white"/>
<path d="M0 298H1440" stroke="white"/>
<path d="M0 343H1440" stroke="white"/>
<path d="M371 1024V0" stroke="white"/>
<path d="M415 1024V0" stroke="white"/>
<path d="M460 1024V0" stroke="white"/>
<path d="M504 1024V0" stroke="white"/>
<path d="M549 1024V0" stroke="white"/>
<path d="M594 1024V0" stroke="white"/>
<path d="M638 1024V0" stroke="white"/>
<path d="M683 1024V0" stroke="white"/>
<path d="M725 1024V0" stroke="white"/>
<path d="M769 1024V0" stroke="white"/>
<path d="M18 1024V0" stroke="white"/>
<path d="M62 1024V0" stroke="white"/>
<path d="M107 1024V0" stroke="white"/>
<path d="M152 1024V0" stroke="white"/>
<path d="M196 1024V0" stroke="white"/>
<path d="M241 1024V0" stroke="white"/>
<path d="M283 1024V0" stroke="white"/>
<path d="M327 1024V0" stroke="white"/>
<path d="M814 1024V0" stroke="white"/>
<path d="M858 1024V0" stroke="white"/>
<path d="M903 1024V0" stroke="white"/>
<path d="M947 1024V0" stroke="white"/>
<path d="M992 1024V0" stroke="white"/>
<path d="M1036 1024V0" stroke="white"/>
<path d="M1081 1024V0" stroke="white"/>
<path d="M1125 1024V0" stroke="white"/>
<path d="M1170 1024V0" stroke="white"/>
<path d="M1214 1024V0" stroke="white"/>
<path d="M1259 1024V0" stroke="white"/>
<path d="M1303 1024V0" stroke="white"/>
<path d="M1348 1024V0" stroke="white"/>
<path d="M1392 1024V0" stroke="white"/>
<rect width="1440" height="1024" fill="url(#paint1_radial_409_38)"/>
<defs>
<linearGradient id="paint0_linear_409_38" x1="0" y1="1022.5" x2="1440" y2="1022.5" gradientUnits="userSpaceOnUse">
<stop stop-color="white" stop-opacity="0"/>
<stop offset="0.515" stop-color="white"/>
<stop offset="1" stop-color="white" stop-opacity="0"/>
</linearGradient>
<radialGradient id="paint1_radial_409_38" cx="0" cy="0" r="1" gradientUnits="userSpaceOnUse" gradientTransform="translate(708.25 591.75) rotate(0.489363) scale(731.777 1029.06)">
<stop stop-opacity="0.85"/>
<stop offset="1"/>
</radialGradient>
</defs>
</svg>
