<svg width="54" height="54" viewBox="0 0 54 54" fill="none" xmlns="http://www.w3.org/2000/svg">
<g clip-path="url(#clip0_935_363)">
<path d="M33.7646 34.626L33.7645 34.6259C33.542 34.3646 33.3125 34.0952 33.1198 33.8508C32.9181 33.5949 32.7903 33.4076 32.7423 33.3033L32.7421 33.303C32.7052 33.2232 32.6767 33.1538 32.6545 33.0944C32.7149 33.0788 32.7892 33.0621 32.88 33.0453C33.3219 32.9635 34.0859 32.8903 35.386 32.8903C35.8862 32.8903 36.4094 32.8987 36.9485 32.9074L36.9816 32.9079L36.9818 32.9079L37.0876 32.9096C37.6428 32.9183 38.2134 32.9272 38.784 32.9272H38.8087C40.1789 32.9273 42.5508 32.9273 44.5898 32.2213C45.6226 31.8637 46.6042 31.3142 47.3288 30.4614C48.061 29.5997 48.5 28.4644 48.5 27C48.5 24.0993 47.4264 21.2616 45.4217 18.7945C41.2374 13.6435 33.3977 10.5 24.9998 10.5C18.5691 10.5 12.7168 12.3189 8.45863 15.2811C4.20255 18.2419 1.5 22.3789 1.5 27C1.5 31.6211 4.20255 35.7581 8.45863 38.7189C12.7168 41.6811 18.5691 43.5 24.9998 43.5C28.1822 43.5 30.5952 43.2959 32.3437 42.8352C34.0895 42.3753 35.2669 41.6336 35.8252 40.485C36.3792 39.3461 36.1494 38.2254 35.6593 37.2454C35.1815 36.29 34.4213 35.3972 33.7855 34.6505L33.7646 34.626Z" fill="black" stroke="black"/>
<path d="M33.7646 33.626L33.7645 33.6259C33.542 33.3646 33.3125 33.0952 33.1198 32.8508C32.9181 32.5949 32.7903 32.4076 32.7423 32.3033L32.7421 32.303C32.7052 32.2232 32.6767 32.1538 32.6545 32.0944C32.7149 32.0788 32.7892 32.0621 32.88 32.0453C33.3219 31.9635 34.0859 31.8903 35.386 31.8903C35.8862 31.8903 36.4094 31.8987 36.9485 31.9074L36.9816 31.9079L36.9818 31.9079L37.0876 31.9096C37.6428 31.9183 38.2134 31.9272 38.784 31.9272H38.8087C40.1789 31.9273 42.5508 31.9273 44.5898 31.2213C45.6226 30.8637 46.6042 30.3142 47.3288 29.4614C48.061 28.5997 48.5 27.4644 48.5 26C48.5 23.0993 47.4264 20.2616 45.4217 17.7945C41.2374 12.6435 33.3977 9.5 24.9998 9.5C18.5691 9.5 12.7168 11.3189 8.45863 14.2811C4.20255 17.2419 1.5 21.3789 1.5 26C1.5 30.6211 4.20255 34.7581 8.45863 37.7189C12.7168 40.6811 18.5691 42.5 24.9998 42.5C28.1822 42.5 30.5952 42.2959 32.3437 41.8352C34.0895 41.3753 35.2669 40.6336 35.8252 39.485C36.3792 38.3461 36.1494 37.2254 35.6593 36.2454C35.1815 35.29 34.4213 34.3972 33.7855 33.6505L33.7646 33.626Z" fill="#DF7CB0" stroke="#DF7CB0"/>
<path d="M35.2407 39.2007L35.2407 39.2006C35.6737 38.3104 35.5171 37.4142 35.078 36.5362C34.6367 35.6539 33.9213 34.8127 33.2697 34.0474L35.2407 39.2007ZM35.2407 39.2007C34.8028 40.1016 33.8447 40.7676 32.1781 41.2067C30.5122 41.6456 28.1667 41.85 24.9998 41.85C18.6857 41.85 12.9665 40.063 8.82982 37.1853C4.69253 34.3072 2.15 30.3483 2.15 26C2.15 21.6517 4.69253 17.6928 8.82982 14.8147C12.9665 11.937 18.6857 10.15 24.9998 10.15C33.2628 10.15 40.8902 13.2469 44.9173 18.2044L45.0337 18.1098L44.9173 18.2044C46.8387 20.5691 47.85 23.2651 47.85 26C47.85 27.3245 47.457 28.3068 46.8335 29.0405C46.2078 29.7768 45.3408 30.2734 44.3771 30.6071C42.4454 31.2759 40.1667 31.2772 38.784 31.2772C38.2188 31.2772 37.6531 31.2684 37.0968 31.2596L36.992 31.258L36.9569 31.2574C36.4195 31.2488 35.8916 31.2403 35.386 31.2403C34.0675 31.2403 33.2591 31.3141 32.7616 31.4062C32.2719 31.4969 32.0584 31.6095 31.963 31.7119L31.7536 31.9366L31.9409 31.9532L35.2407 39.2007ZM33.268 34.0454L33.2697 34.0473L32.0766 31.8366C32.083 31.9018 32.1034 32.1126 32.2881 32.5126L32.1519 32.5754C32.1519 32.5754 32.1519 32.5755 32.152 32.5755C32.2363 32.7584 32.4103 33.0007 32.6094 33.2532C32.8106 33.5085 33.0479 33.787 33.268 34.0454ZM30.0215 30.5263L29.912 30.4531L30.0215 30.5263C30.4739 29.8493 31.2399 29.4704 32.1931 29.263C33.1461 29.0557 34.2621 29.025 35.386 29.025C35.8797 29.025 36.3944 29.0331 36.9217 29.0413L37.0304 29.043L37.0305 29.043L37.0676 29.0436C37.6309 29.0527 38.2078 29.0619 38.7844 29.0619C41.543 29.0619 43.2304 28.7845 44.2312 28.2631C44.7365 27.9998 45.0715 27.672 45.2779 27.2838C45.4834 26.8975 45.5547 26.464 45.5549 26C45.5549 23.7575 44.7067 21.5345 43.1108 19.571C39.491 15.1147 32.5465 12.3653 25.0002 12.3653C19.3494 12.3653 14.2187 13.8842 10.4963 16.3443C6.77515 18.8035 4.446 22.2158 4.446 26C4.446 29.7842 6.77515 33.1965 10.4963 35.6557C14.2187 38.1158 19.3494 39.6347 25.0002 39.6347C28.6025 39.6347 30.6091 39.3446 31.728 39.0331C32.8424 38.7229 33.1033 38.3835 33.1636 38.2595L33.0417 38.2002L33.1636 38.2595C33.2109 38.1623 33.2101 38.0522 33.1916 37.9505C33.1726 37.8469 33.132 37.7346 33.079 37.6196C32.9728 37.3895 32.8064 37.1259 32.6199 36.8622C32.2467 36.3342 31.7766 35.7822 31.4981 35.4552L31.4969 35.4539L31.4969 35.4538C30.8919 34.7438 30.3412 34.095 30.0558 33.478L29.9248 33.5386L30.0558 33.478C29.5005 32.2776 29.5077 31.2949 30.0215 30.5263Z" fill="black" stroke="#DF7CB0" stroke-width="0.3"/>
<circle cx="17.5" cy="33.5" r="2" stroke="black"/>
<circle cx="12" cy="28" r="2.5" stroke="black"/>
<circle cx="17.5" cy="19.5" r="3" stroke="black"/>
<circle cx="28.5" cy="18.5" r="4" stroke="black"/>
</g>
<defs>
<clipPath id="clip0_935_363">
<rect width="54" height="54" fill="white"/>
</clipPath>
</defs>
</svg>
