<svg width="54" height="54" viewBox="0 0 54 54" fill="none" xmlns="http://www.w3.org/2000/svg">
<mask id="path-1-outside-1_935_523" maskUnits="userSpaceOnUse" x="7.21875" y="7.16016" width="43" height="44" fill="black">
<rect fill="white" x="7.21875" y="7.16016" width="43" height="44"/>
<path fill-rule="evenodd" clip-rule="evenodd" d="M45.9351 9.68468C45.9351 9.39499 46.17 9.16016 46.4597 9.16016V9.16016C46.7494 9.16016 46.9842 9.39499 46.9842 9.68468V16.7102C46.9842 16.8771 47.0481 17.0376 47.1628 17.1588L47.1963 17.1941C47.4256 17.4363 47.4151 17.8185 47.1729 18.0478L47.0661 18.1488C47.0138 18.1984 46.9842 18.2672 46.9842 18.3393V18.3393C46.9842 18.4841 46.8668 18.6015 46.722 18.6015H46.7008C46.6283 18.6015 46.5586 18.6293 46.506 18.6791L44.3445 20.7252C43.6865 21.3481 43.5405 22.3312 43.9034 23.1615C44.8728 25.379 45.4106 27.8283 45.4106 30.4032C45.4106 40.3973 37.3088 48.4992 27.3147 48.4992C17.3206 48.4992 9.21875 40.3973 9.21875 30.4032C9.21875 20.4091 17.3206 12.3073 27.3147 12.3073C32.7539 12.3073 37.6326 14.707 40.9498 18.5055C41.7657 19.4398 43.2143 19.6112 44.1152 18.7585L45.3101 17.6273C45.7091 17.2496 45.9351 16.7243 45.9351 16.1749V9.68468Z"/>
</mask>
<path fill-rule="evenodd" clip-rule="evenodd" d="M45.9351 9.68468C45.9351 9.39499 46.17 9.16016 46.4597 9.16016V9.16016C46.7494 9.16016 46.9842 9.39499 46.9842 9.68468V16.7102C46.9842 16.8771 47.0481 17.0376 47.1628 17.1588L47.1963 17.1941C47.4256 17.4363 47.4151 17.8185 47.1729 18.0478L47.0661 18.1488C47.0138 18.1984 46.9842 18.2672 46.9842 18.3393V18.3393C46.9842 18.4841 46.8668 18.6015 46.722 18.6015H46.7008C46.6283 18.6015 46.5586 18.6293 46.506 18.6791L44.3445 20.7252C43.6865 21.3481 43.5405 22.3312 43.9034 23.1615C44.8728 25.379 45.4106 27.8283 45.4106 30.4032C45.4106 40.3973 37.3088 48.4992 27.3147 48.4992C17.3206 48.4992 9.21875 40.3973 9.21875 30.4032C9.21875 20.4091 17.3206 12.3073 27.3147 12.3073C32.7539 12.3073 37.6326 14.707 40.9498 18.5055C41.7657 19.4398 43.2143 19.6112 44.1152 18.7585L45.3101 17.6273C45.7091 17.2496 45.9351 16.7243 45.9351 16.1749V9.68468Z" fill="black"/>
<path d="M44.3445 20.7252L45.7195 22.1776L44.3445 20.7252ZM43.9034 23.1615L42.0709 23.9626L43.9034 23.1615ZM46.506 18.6791L45.1311 17.2267L46.506 18.6791ZM47.0661 18.1488L48.4411 19.6013L47.0661 18.1488ZM47.1963 17.1941L48.6488 15.8192L47.1963 17.1941ZM47.1729 18.0478L45.798 16.5953L47.1729 18.0478ZM45.3101 17.6273L46.685 19.0798L45.3101 17.6273ZM47.1628 17.1588L48.6153 15.7839L47.1628 17.1588ZM40.9498 18.5055L39.4434 19.821L40.9498 18.5055ZM48.9842 16.7102V9.68468H44.9842V16.7102H48.9842ZM45.7104 18.5337L45.7439 18.5691L48.6488 15.8192L48.6153 15.7839L45.7104 18.5337ZM45.798 16.5953L45.6912 16.6964L48.4411 19.6013L48.5478 19.5002L45.798 16.5953ZM46.7008 20.6015H46.722V16.6015H46.7008V20.6015ZM45.1311 17.2267L42.9696 19.2727L45.7195 22.1776L47.8809 20.1315L45.1311 17.2267ZM47.4106 30.4032C47.4106 27.5474 46.8137 24.8257 45.7359 22.3603L42.0709 23.9626C42.9319 25.9322 43.4106 28.1092 43.4106 30.4032H47.4106ZM27.3147 50.4992C38.4134 50.4992 47.4106 41.5019 47.4106 30.4032H43.4106C43.4106 39.2928 36.2042 46.4992 27.3147 46.4992V50.4992ZM7.21875 30.4032C7.21875 41.5019 16.216 50.4992 27.3147 50.4992V46.4992C18.4251 46.4992 11.2188 39.2928 11.2188 30.4032H7.21875ZM27.3147 10.3073C16.216 10.3073 7.21875 19.3045 7.21875 30.4032H11.2188C11.2188 21.5137 18.4251 14.3073 27.3147 14.3073V10.3073ZM42.4562 17.1899C38.7753 12.975 33.3554 10.3073 27.3147 10.3073V14.3073C32.1524 14.3073 36.4898 16.439 39.4434 19.821L42.4562 17.1899ZM45.4901 20.2109L46.685 19.0798L43.9351 16.1749L42.7402 17.306L45.4901 20.2109ZM43.9351 9.68468V16.1749H47.9351V9.68468H43.9351ZM42.9696 19.2727C41.6292 20.5416 41.4106 22.4521 42.0709 23.9626L45.7359 22.3603C45.7087 22.2979 45.706 22.2404 45.7123 22.2041C45.7151 22.1874 45.7191 22.179 45.7201 22.177C45.7207 22.176 45.7208 22.176 45.7203 22.1767C45.7198 22.1773 45.7193 22.1777 45.7195 22.1776L42.9696 19.2727ZM46.7008 16.6015C46.1169 16.6015 45.5551 16.8252 45.1311 17.2267L47.8809 20.1315C47.5621 20.4333 47.1398 20.6015 46.7008 20.6015V16.6015ZM44.9842 18.3393C44.9842 17.3795 45.7622 16.6015 46.722 16.6015V20.6015C47.9714 20.6015 48.9842 19.5887 48.9842 18.3393H44.9842ZM45.6912 16.6964C45.2399 17.1237 44.9842 17.7178 44.9842 18.3393H48.9842C48.9842 18.8167 48.7878 19.2731 48.4411 19.6013L45.6912 16.6964ZM45.7439 18.5691C45.2138 18.0091 45.238 17.1254 45.798 16.5953L48.5478 19.5002C49.5922 18.5116 49.6374 16.8636 48.6488 15.8192L45.7439 18.5691ZM46.685 19.0798C47.483 18.3243 47.9351 17.2738 47.9351 16.1749H43.9351L43.9351 16.1749L46.685 19.0798ZM44.9842 16.7102C44.9842 17.3885 45.2441 18.0411 45.7104 18.5337L48.6153 15.7839C48.8522 16.0341 48.9842 16.3656 48.9842 16.7102H44.9842ZM39.4434 19.821C40.8922 21.48 43.6432 21.9593 45.4901 20.2109L42.7402 17.306C42.7374 17.3087 42.7389 17.3074 42.7383 17.3076C42.7348 17.3088 42.717 17.3136 42.6838 17.3105C42.6095 17.3037 42.5203 17.2633 42.4562 17.1899L39.4434 19.821ZM46.4597 7.16016C45.0654 7.16016 43.9351 8.29042 43.9351 9.68468H47.9351C47.9351 10.4996 47.2746 11.1602 46.4597 11.1602V7.16016ZM46.4597 11.1602C45.6448 11.1602 44.9842 10.4996 44.9842 9.68468H48.9842C48.9842 8.29042 47.8539 7.16016 46.4597 7.16016V11.1602Z" fill="black" mask="url(#path-1-outside-1_935_523)"/>
<mask id="path-3-outside-2_935_523" maskUnits="userSpaceOnUse" x="5.11719" y="6.11133" width="43" height="44" fill="black">
<rect fill="white" x="5.11719" y="6.11133" width="43" height="44"/>
<path fill-rule="evenodd" clip-rule="evenodd" d="M43.8336 8.63585C43.8336 8.34616 44.0684 8.11133 44.3581 8.11133V8.11133C44.6478 8.11133 44.8826 8.34616 44.8826 8.63585V15.6614C44.8826 15.8282 44.9466 15.9888 45.0613 16.11L45.0948 16.1453C45.324 16.3875 45.3135 16.7697 45.0714 16.999L44.9646 17.1C44.9123 17.1495 44.8826 17.2184 44.8826 17.2905V17.2905C44.8826 17.4353 44.7652 17.5527 44.6204 17.5527H44.5992C44.5268 17.5527 44.4571 17.5805 44.4044 17.6303L42.243 19.6764C41.585 20.2993 41.4389 21.2824 41.8018 22.1126C42.7713 24.3301 43.3091 26.7795 43.3091 29.3544C43.3091 39.3485 35.2072 47.4503 25.2131 47.4503C15.219 47.4503 7.11719 39.3485 7.11719 29.3544C7.11719 19.3603 15.219 11.2584 25.2131 11.2584C30.6523 11.2584 35.531 13.6582 38.8482 17.4566C39.6642 18.391 41.1127 18.5624 42.0136 17.7096L43.2085 16.5785C43.6075 16.2008 43.8336 15.6755 43.8336 15.1261V8.63585Z"/>
</mask>
<path fill-rule="evenodd" clip-rule="evenodd" d="M43.8336 8.63585C43.8336 8.34616 44.0684 8.11133 44.3581 8.11133V8.11133C44.6478 8.11133 44.8826 8.34616 44.8826 8.63585V15.6614C44.8826 15.8282 44.9466 15.9888 45.0613 16.11L45.0948 16.1453C45.324 16.3875 45.3135 16.7697 45.0714 16.999L44.9646 17.1C44.9123 17.1495 44.8826 17.2184 44.8826 17.2905V17.2905C44.8826 17.4353 44.7652 17.5527 44.6204 17.5527H44.5992C44.5268 17.5527 44.4571 17.5805 44.4044 17.6303L42.243 19.6764C41.585 20.2993 41.4389 21.2824 41.8018 22.1126C42.7713 24.3301 43.3091 26.7795 43.3091 29.3544C43.3091 39.3485 35.2072 47.4503 25.2131 47.4503C15.219 47.4503 7.11719 39.3485 7.11719 29.3544C7.11719 19.3603 15.219 11.2584 25.2131 11.2584C30.6523 11.2584 35.531 13.6582 38.8482 17.4566C39.6642 18.391 41.1127 18.5624 42.0136 17.7096L43.2085 16.5785C43.6075 16.2008 43.8336 15.6755 43.8336 15.1261V8.63585Z" fill="#B9A8F3"/>
<path d="M42.243 19.6764L43.6179 21.1288L42.243 19.6764ZM41.8018 22.1126L39.9693 22.9137L41.8018 22.1126ZM44.4044 17.6303L43.0295 16.1778L44.4044 17.6303ZM44.9646 17.1L46.3395 18.5525L44.9646 17.1ZM45.0948 16.1453L46.5472 14.7704L45.0948 16.1453ZM45.0714 16.999L43.6964 15.5465L45.0714 16.999ZM43.2085 16.5785L44.5834 18.0309L43.2085 16.5785ZM45.0613 16.11L46.5137 14.735L45.0613 16.11ZM38.8482 17.4566L37.3418 18.7722L38.8482 17.4566ZM46.8826 15.6614V8.63585H42.8826V15.6614H46.8826ZM43.6088 17.4849L43.6423 17.5202L46.5472 14.7704L46.5137 14.735L43.6088 17.4849ZM43.6964 15.5465L43.5897 15.6476L46.3395 18.5525L46.4463 18.4514L43.6964 15.5465ZM44.5992 19.5527H44.6204V15.5527H44.5992V19.5527ZM43.0295 16.1778L40.8681 18.2239L43.6179 21.1288L45.7794 19.0827L43.0295 16.1778ZM45.3091 29.3544C45.3091 26.4986 44.7122 23.7769 43.6344 21.3115L39.9693 22.9137C40.8304 24.8834 41.3091 27.0604 41.3091 29.3544H45.3091ZM25.2131 49.4503C36.3118 49.4503 45.3091 40.4531 45.3091 29.3544H41.3091C41.3091 38.2439 34.1027 45.4503 25.2131 45.4503V49.4503ZM5.11719 29.3544C5.11719 40.4531 14.1144 49.4503 25.2131 49.4503V45.4503C16.3236 45.4503 9.11719 38.2439 9.11719 29.3544H5.11719ZM25.2131 9.25845C14.1144 9.25845 5.11719 18.2557 5.11719 29.3544H9.11719C9.11719 20.4648 16.3236 13.2584 25.2131 13.2584V9.25845ZM40.3546 16.1411C36.6738 11.9262 31.2538 9.25845 25.2131 9.25845V13.2584C30.0508 13.2584 34.3882 15.3901 37.3418 18.7722L40.3546 16.1411ZM43.3885 19.1621L44.5834 18.0309L41.8336 15.1261L40.6387 16.2572L43.3885 19.1621ZM41.8336 8.63585V15.1261H45.8336V8.63585H41.8336ZM40.8681 18.2239C39.5276 19.4928 39.309 21.4033 39.9693 22.9137L43.6344 21.3115C43.6071 21.2491 43.6044 21.1916 43.6107 21.1552C43.6135 21.1386 43.6175 21.1302 43.6186 21.1282C43.6191 21.1272 43.6192 21.1272 43.6187 21.1278C43.6182 21.1285 43.6178 21.1289 43.6179 21.1288L40.8681 18.2239ZM44.5992 15.5527C44.0153 15.5527 43.4536 15.7764 43.0295 16.1778L45.7794 19.0827C45.4606 19.3845 45.0382 19.5527 44.5992 19.5527V15.5527ZM42.8826 17.2905C42.8826 16.3307 43.6607 15.5527 44.6204 15.5527V19.5527C45.8698 19.5527 46.8826 18.5399 46.8826 17.2905H42.8826ZM43.5897 15.6476C43.1383 16.0748 42.8826 16.669 42.8826 17.2905H46.8826C46.8826 17.7679 46.6862 18.2243 46.3395 18.5525L43.5897 15.6476ZM43.6423 17.5202C43.1122 16.9603 43.1365 16.0766 43.6964 15.5465L46.4463 18.4514C47.4906 17.4628 47.5358 15.8147 46.5472 14.7704L43.6423 17.5202ZM44.5834 18.0309C45.3815 17.2755 45.8336 16.225 45.8336 15.1261H41.8336L41.8336 15.1261L44.5834 18.0309ZM42.8826 15.6614C42.8826 16.3397 43.1425 16.9923 43.6088 17.4849L46.5137 14.735C46.7506 14.9853 46.8826 15.3168 46.8826 15.6614H42.8826ZM37.3418 18.7722C38.7906 20.4312 41.5416 20.9104 43.3885 19.1621L40.6387 16.2572C40.6358 16.2599 40.6374 16.2586 40.6368 16.2588C40.6332 16.2599 40.6154 16.2648 40.5823 16.2617C40.508 16.2549 40.4188 16.2145 40.3546 16.1411L37.3418 18.7722ZM44.3581 6.11133C42.9639 6.11133 41.8336 7.24159 41.8336 8.63585H45.8336C45.8336 9.45073 45.173 10.1113 44.3581 10.1113V6.11133ZM44.3581 10.1113C43.5432 10.1113 42.8826 9.45073 42.8826 8.63585H46.8826C46.8826 7.24159 45.7524 6.11133 44.3581 6.11133V10.1113Z" fill="#B9A8F3" mask="url(#path-3-outside-2_935_523)"/>
<path d="M24.5473 43.4648C24.5473 43.7269 24.7598 43.9395 25.022 43.9395C32.9966 43.9395 39.4845 37.453 39.4845 29.4801C39.4845 29.2179 39.272 29.0054 39.0098 29.0054C38.7476 29.0054 38.5351 29.2179 38.5351 29.4801C38.5351 36.9296 32.473 42.9902 25.0219 42.9902C24.7598 42.9902 24.5473 43.2026 24.5473 43.4648ZM25.4966 15.4923C25.4966 15.2301 25.2841 15.0176 25.0219 15.0176C17.049 15.0176 10.5625 21.5055 10.5625 29.4801C10.5625 29.7422 10.775 29.9548 11.0372 29.9548C11.2994 29.9548 11.5119 29.7423 11.5119 29.4801C11.5119 22.029 17.5725 15.9669 25.022 15.9669C25.2841 15.9669 25.4966 15.7544 25.4966 15.4923ZM25.0221 23.049C21.4793 23.049 18.5932 25.935 18.5932 29.4779C18.5932 33.0246 21.4792 35.9068 25.0221 35.9068C28.5689 35.9068 31.4511 33.0247 31.4511 29.4779C31.4511 25.9349 28.5689 23.049 25.0221 23.049ZM25.0221 32.1777C23.5336 32.1777 22.3261 30.9664 22.3261 29.4778C22.3261 27.9893 23.5336 26.7817 25.0221 26.7817C26.5107 26.7817 27.722 27.9893 27.722 29.4778C27.722 30.9664 26.5107 32.1777 25.0221 32.1777Z" fill="black"/>
<path d="M26.7747 29.4772C26.7747 30.4417 25.9886 31.2278 25.0241 31.2278C24.0596 31.2278 23.2773 30.4417 23.2773 29.4772C23.2773 28.5127 24.0596 27.7305 25.0241 27.7305C25.9886 27.7305 26.7747 28.5127 26.7747 29.4772Z" fill="black"/>
<path d="M45 9.05673V16.4122C45 16.5375 44.9506 16.659 44.8594 16.7463L40.8153 20.7905C42.2507 23.4031 43.0481 26.3764 43.0481 29.4827C43.0481 39.4165 34.9636 47.5048 25.0221 47.5048C15.0845 47.5048 7 39.4165 7 29.4827C7 19.5412 15.0845 11.4566 25.0221 11.4566C25.9676 11.4566 26.917 11.5288 27.8397 11.6731C28.1017 11.7148 28.2765 11.9579 28.2385 12.2161C28.1966 12.4743 27.9537 12.6528 27.6955 12.611C26.8183 12.4743 25.9183 12.406 25.0221 12.406C15.6085 12.406 7.94933 20.0652 7.94933 29.4826C7.94933 38.8962 15.6086 46.5554 25.0221 46.5554C34.4395 46.5554 42.0987 38.8961 42.0987 29.4826C42.0987 26.6346 41.3924 23.9081 40.1165 21.493L39.0799 22.5297L39.2583 22.7081C39.8545 23.3005 39.8545 24.2651 39.2583 24.8574L37.3293 26.7902C36.7369 27.3826 35.7723 27.3826 35.1762 26.7902L34.1053 25.7156C33.5092 25.1194 33.5092 24.1586 34.1053 23.5625L36.0343 21.6334C36.6267 21.0411 37.5913 21.0411 38.1836 21.6334L38.4076 21.8575L39.6304 20.6348C37.838 17.669 35.1457 15.2577 31.8269 13.8147C31.5876 13.7122 31.4775 13.4312 31.5801 13.192C31.6863 12.9489 31.9674 12.8426 32.2067 12.9451C35.6318 14.4337 38.4267 16.9058 40.3216 19.9474L44.0506 16.2146V9.05673C44.0506 8.79474 44.2633 8.58203 44.5253 8.58203C44.7873 8.58211 45 8.79474 45 9.05673Z" fill="black"/>
</svg>
