<svg width="11" height="13" viewBox="0 0 11 13" fill="none" xmlns="http://www.w3.org/2000/svg">
<path d="M10.8114 5.92035L6.63386 0.247713C6.57695 0.170898 6.50395 0.108647 6.42042 0.0657154C6.33689 0.0227835 6.24505 0.000306169 6.15191 0H4.60796C4.5104 0.000108824 4.4143 0.0246489 4.32775 0.071552C4.2412 0.118455 4.16674 0.186347 4.11065 0.269504C4.05456 0.352661 4.01848 0.448647 4.00545 0.549372C3.99242 0.650096 4.00283 0.752607 4.0358 0.848264C4.03906 0.857864 4.04293 0.867308 4.04709 0.876596L6.55213 6.40478C6.57085 6.46676 6.57085 6.53324 6.55213 6.59521L4.04709 12.1234C4.04293 12.1327 4.03907 12.1421 4.0358 12.1517C4.00283 12.2474 3.99242 12.3499 4.00545 12.4506C4.01848 12.5514 4.05456 12.6473 4.11065 12.7305C4.16674 12.8137 4.2412 12.8815 4.32775 12.9284C4.4143 12.9754 4.5104 12.9999 4.60796 13H6.15191C6.24507 12.9997 6.33693 12.9772 6.42048 12.9343C6.50403 12.8913 6.57707 12.8291 6.63402 12.7523L10.8114 7.07965C10.9337 6.91328 11 6.70956 11 6.5C11 6.29044 10.9337 6.08672 10.8114 5.92035Z" fill="#9870ED"/>
<path d="M5.33091 5.94868L2.67678 0.301746C2.66778 0.282646 2.65693 0.264543 2.64441 0.247713C2.58727 0.170897 2.51397 0.108646 2.43011 0.0657142C2.34625 0.0227823 2.25404 0.000305204 2.16052 0H0.610391C0.513243 0.00010779 0.417519 0.024249 0.331161 0.0704208C0.244802 0.116593 0.170299 0.183464 0.113829 0.265489C0.0573602 0.347513 0.0205532 0.442326 0.00646201 0.542063C-0.00762919 0.641799 0.00140178 0.743585 0.0328049 0.838976L1.63679 6.37692C1.63828 6.38218 1.63993 6.38729 1.64172 6.3924C1.66559 6.462 1.66559 6.53801 1.64172 6.6076C1.63993 6.61271 1.63828 6.61782 1.63679 6.62308L0.0328049 12.161C0.00140178 12.2564 -0.00762919 12.3582 0.00646201 12.4579C0.0205532 12.5577 0.0573602 12.6525 0.113829 12.7345C0.170299 12.8165 0.244802 12.8834 0.331161 12.9296C0.417519 12.9758 0.513243 12.9999 0.610391 13H2.16052C2.25404 12.9997 2.34625 12.9772 2.43011 12.9343C2.51397 12.8914 2.58727 12.8291 2.64441 12.7523C2.65693 12.7355 2.66778 12.7174 2.67678 12.6983L5.33091 7.05132C5.44092 6.89014 5.5 6.6975 5.5 6.5C5.5 6.3025 5.44092 6.10986 5.33091 5.94868Z" fill="#9870ED"/>
</svg>
