<svg width="82" height="82" viewBox="0 0 82 82" fill="none" xmlns="http://www.w3.org/2000/svg">
<circle cx="42.5017" cy="42.5" r="38.6635" transform="rotate(33.083 42.5017 42.5)" fill="black"/>
<circle cx="38.6818" cy="38.6818" r="38.1818" fill="#DF7A74" stroke="black"/>
<path d="M58.3404 20.6807H54.2577H45.4868H19.6568C16.7931 20.6807 14.4531 23.0125 14.4531 25.8843V28.977V52.107C14.4531 54.9788 16.7931 57.3107 19.6568 57.3107H58.3322C61.204 57.3107 63.5359 54.9788 63.5359 52.107V28.977V25.8843C63.544 23.0125 61.204 20.6807 58.3404 20.6807ZM62.0549 25.8843V28.2325H54.994V22.1616H58.3322C60.3859 22.1698 62.0549 23.8388 62.0549 25.8843ZM53.5131 28.977V32.6425L50.3549 29.967C50.0768 29.7298 49.6677 29.7298 49.3895 29.967L46.2231 32.6507V28.9852V22.1698H53.5049V28.977H53.5131ZM15.9422 25.8843C15.9422 23.8307 17.6113 22.1616 19.6649 22.1616H44.7504V28.2325H15.9422V25.8843ZM62.0549 52.1152C62.0549 54.1688 60.3859 55.8379 58.3322 55.8379H19.6568C17.6031 55.8379 15.934 54.1688 15.934 52.1152V29.7216H44.734V34.2543C44.734 34.5407 44.9059 34.8107 45.1677 34.9252C45.2577 34.9661 45.3477 34.9825 45.4459 34.9907C45.454 34.9907 45.4704 34.9988 45.4786 34.9988C45.4949 34.9988 45.5031 34.9907 45.5195 34.9907C45.5768 34.9907 45.6259 34.9743 45.6831 34.9661C45.7077 34.9579 45.7322 34.9579 45.7568 34.9498C45.8304 34.917 45.904 34.8843 45.9613 34.827L49.8722 31.5134L53.7749 34.827C53.9959 35.0152 54.3068 35.0561 54.5686 34.9334C54.8304 34.8107 55.0022 34.5488 55.0022 34.2543V29.7216H62.0631V52.1152H62.0549Z" fill="black"/>
<path d="M27.727 33.5098C22.6134 33.5098 18.457 37.6661 18.457 42.7798C18.457 44.7679 19.0707 46.6579 20.2407 48.237C21.9834 50.6261 24.7816 52.0498 27.727 52.0498C28.0952 52.0498 28.4634 52.0252 28.8234 51.9843C31.3598 51.6816 33.6916 50.3316 35.2134 48.2452C36.3752 46.6579 36.997 44.7761 36.997 42.7798C36.997 37.6661 32.8325 33.5098 27.727 33.5098ZM26.8352 50.5034C26.737 50.4952 26.647 50.4707 26.5489 50.4543C26.3525 50.4216 26.1561 50.397 25.9679 50.3479C25.8534 50.3234 25.747 50.2825 25.6407 50.2579C25.4688 50.2089 25.297 50.1598 25.1252 50.1025C25.0107 50.0616 24.9043 50.0125 24.7898 49.9716C24.6261 49.9061 24.4707 49.8407 24.3152 49.767C24.2088 49.7098 24.0943 49.6525 23.9879 49.5952C23.8407 49.5134 23.6934 49.4316 23.5461 49.3416C23.4398 49.2761 23.3416 49.2025 23.2352 49.1289C23.0961 49.0307 22.957 48.9325 22.8261 48.8261C22.7279 48.7443 22.6379 48.6707 22.5398 48.5807C22.4088 48.4661 22.2861 48.3516 22.1716 48.2289C22.0816 48.1389 21.9998 48.0489 21.9098 47.9507C21.8688 47.9016 21.8279 47.8443 21.7788 47.7952C23.2516 46.0607 25.4279 45.0461 27.7107 45.0461C29.9934 45.0461 32.1698 46.0689 33.6425 47.7952C33.6016 47.8443 33.5607 47.9016 33.5198 47.9507C33.4298 48.0489 33.3398 48.147 33.2498 48.237C33.1352 48.3516 33.0125 48.4661 32.8898 48.5807C32.7916 48.6707 32.6934 48.7525 32.5952 48.8343C32.4643 48.9407 32.3334 49.0389 32.2025 49.1289C32.0961 49.2025 31.9898 49.2761 31.8834 49.3416C31.7443 49.4316 31.597 49.5134 31.4498 49.5952C31.3434 49.6525 31.2289 49.7179 31.1143 49.7752C30.9589 49.8489 30.8034 49.9143 30.6479 49.9798C30.5334 50.0289 30.427 50.0779 30.3125 50.1189C30.1488 50.1761 29.977 50.2252 29.8052 50.2743C29.6907 50.307 29.5843 50.3398 29.4698 50.3643C29.2816 50.4052 29.0852 50.4379 28.8888 50.4707C28.7907 50.487 28.7007 50.5034 28.6025 50.5198C28.3079 50.5525 28.0134 50.577 27.7107 50.577C27.4079 50.577 27.1298 50.5361 26.8352 50.5034ZM25.8534 41.6834C25.8534 40.6525 26.6961 39.8098 27.727 39.8098C28.7579 39.8098 29.6007 40.6525 29.6007 41.6834C29.6007 42.7143 28.7579 43.557 27.727 43.557C26.6961 43.5489 25.8534 42.7143 25.8534 41.6834ZM34.5343 46.5352C33.3643 45.267 31.8589 44.367 30.2143 43.9089C30.7461 43.3116 31.0816 42.5343 31.0816 41.6834C31.0816 39.8343 29.5761 38.3289 27.727 38.3289C25.8779 38.3289 24.3725 39.8343 24.3725 41.6834C24.3725 42.5425 24.7079 43.3198 25.2398 43.9089C23.5952 44.3752 22.0898 45.267 20.9198 46.5352C20.2816 45.3979 19.9461 44.1134 19.9461 42.7798C19.9461 38.4925 23.4398 34.9989 27.727 34.9989C32.0143 34.9989 35.5079 38.4925 35.5079 42.7798C35.5079 44.1134 35.1725 45.3979 34.5343 46.5352ZM40.8179 37.6089C40.8179 38.0179 41.1534 38.3534 41.5625 38.3534H58.9652C59.3743 38.3534 59.7098 38.0179 59.7098 37.6089C59.7098 37.1998 59.3743 36.8643 58.9652 36.8643H41.5625C41.1534 36.8643 40.8179 37.1998 40.8179 37.6089ZM58.9652 42.0352H41.5625C41.1534 42.0352 40.8179 42.3707 40.8179 42.7798C40.8179 43.1889 41.1534 43.5243 41.5625 43.5243H58.9652C59.3743 43.5243 59.7098 43.1889 59.7098 42.7798C59.7098 42.3707 59.3743 42.0352 58.9652 42.0352ZM58.9652 47.2061H41.5625C41.1534 47.2061 40.8179 47.5416 40.8179 47.9507C40.8179 48.3598 41.1534 48.6952 41.5625 48.6952H58.9652C59.3743 48.6952 59.7098 48.3598 59.7098 47.9507C59.7098 47.5416 59.3743 47.2061 58.9652 47.2061Z" fill="black"/>
</svg>
