<svg width="100" height="100" viewBox="0 0 100 100" fill="none" xmlns="http://www.w3.org/2000/svg">
<path d="M63.36 6.01953C51.85 6.01953 41.11 12.0795 35.14 21.8695C17.32 24.1195 3.5 39.3595 3.5 57.7695C3.5 77.7295 19.74 93.9795 39.71 93.9795C55.13 93.9795 68.33 84.2795 73.54 70.6695C87.09 66.2995 96.5 53.4495 96.5 39.1495C96.5 20.8795 81.63 6.01953 63.36 6.01953ZM39.71 90.9795C21.4 90.9795 6.5 76.0795 6.5 57.7695C6.5 41.6295 18.07 28.1595 33.35 25.1795C31.32 29.5295 30.24 34.2895 30.24 39.1395C30.24 46.4495 32.68 53.5795 37.14 59.3595C36.38 60.4895 35.93 61.8395 35.93 63.2995C35.93 67.1795 39.09 70.3295 42.96 70.3295C46.84 70.3295 49.99 67.1695 49.99 63.2995C49.99 59.4195 46.83 56.2695 42.96 56.2695C41.63 56.2695 40.39 56.6495 39.33 57.2895C35.4 52.0795 33.24 45.6895 33.24 39.1395C33.24 34.0695 34.54 29.0895 36.97 24.6795C37.88 24.6095 38.79 24.5595 39.71 24.5595C58.02 24.5595 72.92 39.4595 72.92 57.7695C72.92 76.0795 58.02 90.9795 39.71 90.9795ZM40.11 60.4495C40.84 59.7295 41.84 59.2795 42.95 59.2795C45.17 59.2795 46.98 61.0895 46.98 63.3095C46.98 65.5295 45.17 67.3395 42.95 67.3395C40.73 67.3395 38.92 65.5295 38.92 63.3095C38.92 62.1995 39.37 61.1995 40.09 60.4695C40.1 60.4595 40.11 60.4495 40.11 60.4495ZM74.71 67.0395C75.49 64.0795 75.92 60.9795 75.92 57.7695C75.92 37.8095 59.68 21.5595 39.71 21.5595C39.45 21.5595 39.18 21.5695 38.92 21.5795C44.53 13.7695 53.64 9.00953 63.36 9.00953C79.98 9.00953 93.5 22.5195 93.5 39.1395C93.5 51.3995 85.9 62.4795 74.71 67.0395Z" fill="black"/>
</svg>
