<svg width="66" height="66" viewBox="0 0 66 66" fill="none" xmlns="http://www.w3.org/2000/svg">
<mask id="path-1-outside-1_1756_352" maskUnits="userSpaceOnUse" x="3" y="3" width="60" height="60" fill="black">
<rect fill="white" x="3" y="3" width="60" height="60"/>
<path d="M43.666 5C46.3927 5.00016 48.9988 6.94562 48.999 10.083V12.833H49.2295C49.5459 12.6231 49.9249 12.5001 50.333 12.5H55.333C58.2707 12.5002 60.6668 14.8954 60.667 17.833V48.667C60.6666 51.6045 58.2705 53.9998 55.333 54H42.4873C42.8047 54.3539 42.9999 54.8202 43 55.333V56.667H43.667L43.8711 56.6768C44.8795 56.7793 45.667 57.6316 45.667 58.667C45.6667 59.7022 44.8793 60.5537 43.8711 60.6562L43.667 60.667H22C20.8956 60.667 20.0004 59.7713 20 58.667C20 57.5624 20.8954 56.667 22 56.667H22.667V55.333C22.6671 54.8202 22.8614 54.3539 23.1787 54H10.333C7.39547 53.9998 5.00035 51.6045 5 48.667V17.833C5.00018 14.8954 7.39536 12.5002 10.333 12.5H22C22.4081 12.5001 22.7871 12.6231 23.1035 12.833H23.333V10.083C23.3331 8.66201 23.8596 7.35795 24.8408 6.41309C25.8149 5.47509 27.1219 5.00007 28.499 5H43.666Z"/>
</mask>
<path d="M43.666 5C46.3927 5.00016 48.9988 6.94562 48.999 10.083V12.833H49.2295C49.5459 12.6231 49.9249 12.5001 50.333 12.5H55.333C58.2707 12.5002 60.6668 14.8954 60.667 17.833V48.667C60.6666 51.6045 58.2705 53.9998 55.333 54H42.4873C42.8047 54.3539 42.9999 54.8202 43 55.333V56.667H43.667L43.8711 56.6768C44.8795 56.7793 45.667 57.6316 45.667 58.667C45.6667 59.7022 44.8793 60.5537 43.8711 60.6562L43.667 60.667H22C20.8956 60.667 20.0004 59.7713 20 58.667C20 57.5624 20.8954 56.667 22 56.667H22.667V55.333C22.6671 54.8202 22.8614 54.3539 23.1787 54H10.333C7.39547 53.9998 5.00035 51.6045 5 48.667V17.833C5.00018 14.8954 7.39536 12.5002 10.333 12.5H22C22.4081 12.5001 22.7871 12.6231 23.1035 12.833H23.333V10.083C23.3331 8.66201 23.8596 7.35795 24.8408 6.41309C25.8149 5.47509 27.1219 5.00007 28.499 5H43.666Z" fill="#EEC5CC"/>
<path d="M43.666 5L43.6661 3H43.666V5ZM48.999 10.083L50.999 10.083L50.999 10.0829L48.999 10.083ZM48.999 12.833H46.999V14.833H48.999V12.833ZM49.2295 12.833V14.833H49.8325L50.335 14.4997L49.2295 12.833ZM50.333 12.5L50.333 10.5L50.3327 10.5L50.333 12.5ZM55.333 12.5L55.3331 10.5H55.333V12.5ZM60.667 17.833L62.667 17.833L62.667 17.8329L60.667 17.833ZM60.667 48.667L62.667 48.6672V48.667H60.667ZM55.333 54L55.333 56L55.3331 56L55.333 54ZM42.4873 54V52H38.0077L40.9983 55.3352L42.4873 54ZM43 55.333L45 55.333L45 55.3327L43 55.333ZM43 56.667H41V58.667H43V56.667ZM43.667 56.667L43.7626 54.6693L43.7148 54.667H43.667V56.667ZM43.8711 56.6768L44.0734 54.687L44.0202 54.6816L43.9667 54.679L43.8711 56.6768ZM45.667 58.667L47.667 58.6676V58.667H45.667ZM43.8711 60.6562L43.9762 62.6535L44.0249 62.6509L44.0734 62.646L43.8711 60.6562ZM43.667 60.667V62.667H43.7196L43.7721 62.6642L43.667 60.667ZM22 60.667L22 62.667H22V60.667ZM20 58.667L18 58.667L18 58.6676L20 58.667ZM22 56.667L22 54.667L22 54.667L22 56.667ZM22.667 56.667V58.667H24.667V56.667H22.667ZM22.667 55.333L20.667 55.3327V55.333H22.667ZM23.1787 54L24.6678 55.3352L27.6583 52H23.1787V54ZM10.333 54L10.3329 56H10.333V54ZM5 48.667L3 48.667L3 48.6672L5 48.667ZM5 17.833L3 17.8329V17.833H5ZM10.333 12.5L10.333 10.5L10.3329 10.5L10.333 12.5ZM22 12.5L22.0003 10.5H22V12.5ZM23.1035 12.833L21.998 14.4997L22.5005 14.833H23.1035V12.833ZM23.333 12.833V14.833H25.333V12.833H23.333ZM23.333 10.083L21.333 10.0829V10.083H23.333ZM24.8408 6.41309L23.4535 4.97244L23.4535 4.97245L24.8408 6.41309ZM28.499 5L28.499 3L28.4989 3L28.499 5ZM43.666 5L43.6659 7C45.5241 7.00011 46.9989 8.27227 46.999 10.0831L48.999 10.083L50.999 10.0829C50.9988 5.61897 47.2613 3.0002 43.6661 3L43.666 5ZM48.999 10.083H46.999V12.833H48.999H50.999V10.083H48.999ZM48.999 12.833V14.833H49.2295V12.833V10.833H48.999V12.833ZM49.2295 12.833L50.335 14.4997C50.3367 14.4986 50.3368 14.4989 50.3349 14.4994C50.3341 14.4997 50.3332 14.4999 50.3325 14.5C50.3318 14.5001 50.3319 14.5 50.3333 14.5L50.333 12.5L50.3327 10.5C49.5162 10.5001 48.7551 10.7477 48.1239 11.1663L49.2295 12.833ZM50.333 12.5V14.5H55.333V12.5V10.5H50.333V12.5ZM55.333 12.5L55.3329 14.5C57.1665 14.5001 58.6669 16.0004 58.667 17.8331L60.667 17.833L62.667 17.8329C62.6667 13.7903 59.3748 10.5002 55.3331 10.5L55.333 12.5ZM60.667 17.833H58.667V48.667H60.667H62.667V17.833H60.667ZM60.667 48.667L58.667 48.6668C58.6668 50.4995 57.1663 51.9999 55.3329 52L55.333 54L55.3331 56C59.3748 55.9998 62.6665 52.7095 62.667 48.6672L60.667 48.667ZM55.333 54V52H42.4873V54V56H55.333V54ZM42.4873 54L40.9983 55.3352C41.0019 55.3392 41.0023 55.3411 41.0015 55.3392C41.0011 55.3382 41.0006 55.3366 41.0003 55.3349C40.9999 55.3331 41 55.3323 41 55.3333L43 55.333L45 55.3327C44.9998 54.301 44.6047 53.3656 43.9764 52.6648L42.4873 54ZM43 55.333H41V56.667H43H45V55.333H43ZM43 56.667V58.667H43.667V56.667V54.667H43V56.667ZM43.667 56.667L43.5714 58.6647L43.7755 58.6745L43.8711 56.6768L43.9667 54.679L43.7626 54.6693L43.667 56.667ZM43.8711 56.6768L43.6688 58.6665C43.6689 58.6665 43.6682 58.6664 43.6671 58.6661C43.6661 58.6658 43.6654 58.6655 43.665 58.6653C43.6646 58.6651 43.6657 58.6656 43.6671 58.6672C43.6685 58.6687 43.6683 58.6691 43.6677 58.6675C43.6674 58.6666 43.6671 58.6657 43.667 58.665C43.6668 58.6641 43.667 58.6646 43.667 58.667H45.667H47.667C47.667 56.5947 46.0922 54.8923 44.0734 54.687L43.8711 56.6768ZM45.667 58.667L43.667 58.6664C43.667 58.6687 43.6668 58.6692 43.667 58.6684C43.6671 58.6676 43.6674 58.6666 43.6677 58.6657C43.6684 58.6641 43.6686 58.6644 43.6673 58.6658C43.6659 58.6673 43.6649 58.6679 43.6653 58.6677C43.6656 58.6675 43.6663 58.6672 43.6673 58.6669C43.6684 58.6665 43.669 58.6665 43.6688 58.6665L43.8711 60.6562L44.0734 62.646C46.0914 62.4408 47.6663 60.7397 47.667 58.6676L45.667 58.667ZM43.8711 60.6562L43.766 58.659L43.5619 58.6698L43.667 60.667L43.7721 62.6642L43.9762 62.6535L43.8711 60.6562ZM43.667 60.667V58.667H22V60.667V62.667H43.667V60.667ZM22 60.667L22 58.667L22 58.6664L20 58.667L18 58.6676C18.0007 60.8753 19.7904 62.667 22 62.667L22 60.667ZM20 58.667H22L22 58.667L22 56.667L22 54.667C19.7909 54.667 18 56.4579 18 58.667H20ZM22 56.667V58.667H22.667V56.667V54.667H22V56.667ZM22.667 56.667H24.667V55.333H22.667H20.667V56.667H22.667ZM22.667 55.333L24.667 55.3333C24.667 55.3317 24.6671 55.3319 24.6668 55.3335C24.6666 55.3349 24.6661 55.3363 24.6657 55.3375C24.6649 55.3396 24.6649 55.3384 24.6678 55.3352L23.1787 54L21.6897 52.6648C21.0595 53.3676 20.6672 54.3036 20.667 55.3327L22.667 55.333ZM23.1787 54V52H10.333V54V56H23.1787V54ZM10.333 54L10.3331 52C8.50018 51.9999 7.00022 50.5 7 48.6668L5 48.667L3 48.6672C3.00049 52.709 6.29076 55.9998 10.3329 56L10.333 54ZM5 48.667H7V17.833H5H3V48.667H5ZM5 17.833L7 17.8331C7.00011 16 8.49996 14.5001 10.3331 14.5L10.333 12.5L10.3329 10.5C6.29077 10.5002 3.00024 13.7908 3 17.8329L5 17.833ZM10.333 12.5V14.5H22V12.5V10.5H10.333V12.5ZM22 12.5L21.9997 14.5C22.0011 14.5 22.0012 14.5001 22.0005 14.5C21.9998 14.4999 21.999 14.4997 21.9981 14.4994C21.9963 14.4989 21.9963 14.4986 21.998 14.4997L23.1035 12.833L24.2091 11.1663C23.5779 10.7477 22.8168 10.5001 22.0003 10.5L22 12.5ZM23.1035 12.833V14.833H23.333V12.833V10.833H23.1035V12.833ZM23.333 12.833H25.333V10.083H23.333H21.333V12.833H23.333ZM23.333 10.083L25.333 10.0831C25.3331 9.1646 25.667 8.39408 26.2281 7.85373L24.8408 6.41309L23.4535 4.97245C22.0523 6.32182 21.3331 8.15942 21.333 10.0829L23.333 10.083ZM24.8408 6.41309L26.2281 7.85373C26.7893 7.3133 27.5807 7.00005 28.4991 7L28.499 5L28.4989 3C26.6631 3.0001 24.8405 3.63687 23.4535 4.97244L24.8408 6.41309ZM28.499 5V7H43.666V5V3H28.499V5Z" fill="#EEC5CC" mask="url(#path-1-outside-1_1756_352)"/>
<path d="M21.4288 14.332H9.68687C7.84171 14.332 6.33203 15.8264 6.33203 17.6528V43.3886M6.33203 43.3886H49.9449M6.33203 43.3886V48.3698C6.33203 50.1962 7.84171 51.6905 9.68687 51.6905H54.9772C56.8224 51.6905 58.332 50.1962 58.332 48.3698V43.3886M49.9449 14.332H54.9772C56.8224 14.332 58.332 15.8264 58.332 17.6528V43.3886M58.332 43.3886H54.1385M40.5514 55.0113V58.332H24.1127V55.0113M21.4288 58.332H43.2353" stroke="black" stroke-width="2" stroke-miterlimit="10" stroke-linecap="round" stroke-linejoin="round"/>
<path d="M24.7483 36.332C25.5628 36.8204 26.3773 37.553 26.9474 38.2855C27.6804 39.4251 28.332 40.8088 28.332 42.1925V43.332H10.332V42.2739C10.332 40.0762 11.4723 38.0413 13.1827 36.739" stroke="black" stroke-width="2" stroke-miterlimit="10" stroke-linecap="round" stroke-linejoin="round"/>
<path d="M36.0966 29.8947H53.332M36.0966 36.5799H53.332M23.2111 32.0674C23.2111 34.4072 21.4055 37.332 19.2716 37.332C17.1376 37.332 15.332 34.4072 15.332 32.0674C15.332 29.7276 17.1376 27.4713 19.2716 27.4713C21.4055 27.4713 23.2111 29.7276 23.2111 32.0674ZM45.9454 10.424V19.0312C45.9454 20.8696 44.4681 22.3738 42.6625 22.3738H30.7618L24.6063 27.3042V10.424C24.6063 8.58551 25.9195 7.33203 27.7251 7.33203H42.6625C44.4681 7.33203 45.9454 8.58551 45.9454 10.424Z" stroke="black" stroke-width="2" stroke-miterlimit="10" stroke-linecap="round" stroke-linejoin="round"/>
<path d="M39.332 14.332L33.332 18.332V10.332L39.332 14.332Z" stroke="black" stroke-width="2" stroke-miterlimit="10" stroke-linecap="round" stroke-linejoin="round"/>
</svg>
