<svg width="54" height="54" viewBox="0 0 54 54" fill="none" xmlns="http://www.w3.org/2000/svg">
<path fill-rule="evenodd" clip-rule="evenodd" d="M42.1297 19.8371C42.028 20.1185 42.0802 20.2068 42.2911 20.154C42.7706 20.0346 43.3195 19.9264 43.9426 19.8279C51.9494 18.5563 52.2034 26.9107 49.326 32.2096C46.1549 38.0499 40.4755 39.1132 36.9083 36.9877C36.7312 36.8822 36.5332 37.2573 36.1334 37.8449C32.5726 43.4 20.7387 43.8724 19.5166 34.8093C19.4402 34.2427 19.3347 34.282 19.2206 34.2809C15.4236 35.2425 10.3932 34.3713 10.2334 26.4485C10.0553 17.6453 13.411 15.7979 15.5743 15.9066C15.7658 15.9916 15.761 15.7947 15.7981 15.6704C17.1117 11.2819 25.2051 7.17389 27.9323 12.1311C28.0147 12.2812 28.0911 12.4244 28.1562 12.5643C28.2052 12.6698 28.2606 12.6348 28.3026 12.5928C28.4785 12.4142 28.6825 12.2296 28.9149 12.0385C30.5498 10.6948 35.6232 7.81803 40.3759 10.3429C43.2226 11.855 43.4314 16.6433 42.1297 19.8371Z" fill="black" stroke="black" stroke-width="3"/>
<path fill-rule="evenodd" clip-rule="evenodd" d="M15.3837 37.2012C12.4401 36.4209 10.4211 37.5703 9.68383 39.8014C8.9466 42.0325 11.0986 43.4989 12.897 44.0144C14.6949 44.5294 17.167 44.0838 17.7745 42.3101C18.3821 40.5365 18.3277 37.9815 15.3837 37.2012Z" fill="black" stroke="black" stroke-width="3"/>
<path fill-rule="evenodd" clip-rule="evenodd" d="M7.77911 43.7112C7.11776 43.7957 6.0033 44.3979 5.84402 45.6425C5.68527 46.8872 7.13498 47.9893 8.33607 47.6132C9.53663 47.237 10.1237 46.0596 9.81 45.1356C9.49627 44.2122 8.43993 43.6267 7.77911 43.7112Z" fill="black" stroke="black" stroke-width="3"/>
<path fill-rule="evenodd" clip-rule="evenodd" d="M40.2898 18.1906C40.1881 18.472 40.2403 18.5603 40.4513 18.5075C40.9308 18.3881 41.4796 18.2799 42.1028 18.1814C50.1096 16.9098 50.3636 25.2642 47.4862 30.5632C44.315 36.4034 38.6356 37.4668 35.0684 35.3412C34.8914 35.2357 34.6933 35.6108 34.2935 36.1984C30.7327 41.7535 18.8988 42.2259 17.6767 33.1628C17.6003 32.5962 17.4948 32.6355 17.3808 32.6344C13.5838 33.596 8.55335 32.7248 8.39353 24.802C8.21541 15.9988 11.5712 14.1514 13.7344 14.2601C13.926 14.3451 13.9212 14.1482 13.9583 14.0239C15.2719 9.63546 23.3653 5.52741 26.0925 10.4846C26.1748 10.6348 26.2512 10.7779 26.3163 10.9178C26.3653 11.0233 26.4207 10.9883 26.4627 10.9463C26.6387 10.7677 26.8426 10.5831 27.0751 10.3921C28.7099 9.04836 33.7834 6.17154 38.5361 8.69643C41.3828 10.2086 41.5916 14.9968 40.2898 18.1906Z" fill="#93E6EB" stroke="#93E6EB" stroke-width="3"/>
<path fill-rule="evenodd" clip-rule="evenodd" d="M13.5438 35.5547C10.6003 34.7744 8.58122 35.9239 7.84398 38.1549C7.10675 40.386 9.25872 41.8524 11.0571 42.3679C12.855 42.8829 15.3272 42.4373 15.9347 40.6637C16.5422 38.89 16.4879 36.335 13.5438 35.5547Z" fill="#93E6EB" stroke="#93E6EB" stroke-width="3"/>
<path fill-rule="evenodd" clip-rule="evenodd" d="M5.93927 42.0647C5.27791 42.1492 4.16346 42.7514 4.00417 43.9961C3.84542 45.2407 5.29513 46.3428 6.49623 45.9667C7.69679 45.5905 8.28388 44.4131 7.97016 43.4891C7.65643 42.5657 6.60009 41.9802 5.93927 42.0647Z" fill="#93E6EB" stroke="#93E6EB" stroke-width="3"/>
<path fill-rule="evenodd" clip-rule="evenodd" d="M40.0799 17.6549C39.9777 17.9406 40.0302 18.0302 40.2423 17.9766C40.7244 17.8554 41.2763 17.7456 41.9029 17.6456C49.9541 16.3549 50.2095 24.8348 47.3162 30.2134C44.1274 36.1414 38.4166 37.2207 34.8296 35.0632C34.6515 34.9561 34.4524 35.3368 34.0504 35.9333C30.4699 41.5718 18.5704 42.0514 17.3415 32.8521C17.2647 32.2769 17.1586 32.3168 17.0439 32.3157C13.2258 33.2918 8.16756 32.4075 8.00685 24.3656C7.82774 15.4302 11.2021 13.5551 13.3773 13.6654C13.57 13.7517 13.5651 13.5518 13.6024 13.4256C14.9233 8.97127 23.0616 4.80151 25.8039 9.83319C25.8867 9.98558 25.9635 10.1309 26.029 10.2729C26.0782 10.3799 26.134 10.3444 26.1762 10.3018C26.3531 10.1205 26.5582 9.93315 26.7919 9.73924C28.4358 8.37536 33.5374 5.45532 38.3165 8.01814C41.1789 9.55299 41.3889 14.4132 40.0799 17.6549Z" fill="#93E6EB"/>
<path fill-rule="evenodd" clip-rule="evenodd" d="M25.1353 9.22686L25.093 9.14714C23.8687 6.88688 21.69 6.25934 19.4112 6.66526C16.1363 7.24814 12.6788 10.0155 11.7973 12.8903C9.44392 12.8733 5.81894 14.9487 6.00704 24.4019C6.07604 27.8777 7.00983 30.1074 8.33929 31.475C10.297 33.4871 13.1462 33.6646 15.5865 33.0908C15.5959 33.1343 15.6043 33.1835 15.6109 33.2338C16.405 39.2186 21.3255 41.4415 25.9778 40.9287C29.0658 40.5884 32.0224 39.0309 33.5588 36.5959C33.7241 36.35 33.9016 36.0956 34.0035 35.9509C37.8633 38.1195 43.8567 36.9374 47.2184 30.6479C48.5073 28.2361 49.2023 25.2392 48.948 22.677C48.7722 20.9092 48.1444 19.3466 46.9786 18.2899C45.7332 17.1615 43.8628 16.5922 41.2189 17.019C40.7487 17.0948 40.3185 17.1756 39.9268 17.2621C40.6608 15.2207 40.8555 12.6727 40.2963 10.5922C39.885 9.06404 39.0681 7.78805 37.7915 7.09889C32.6868 4.34395 27.2343 7.46071 25.4781 8.92722C25.3567 9.02842 25.2427 9.12849 25.1353 9.22686ZM39.023 17.2876C39.0208 17.2927 39.0186 17.2978 39.0169 17.3034C38.8594 17.7438 39.0002 17.9954 39.131 18.1028C39.2367 18.1893 39.4142 18.2589 39.6775 18.1921C40.1627 18.0689 40.7181 17.9581 41.3497 17.8563C43.6736 17.4815 45.3281 17.931 46.4227 18.9226C47.4405 19.8447 47.9641 21.2196 48.1177 22.7624C48.3565 25.1674 47.6948 27.9794 46.4844 30.2437C43.3481 36.1125 37.7514 37.2376 34.2233 35.1017C34.0235 34.9807 33.8109 34.9773 33.5789 35.1588C33.4114 35.29 33.1882 35.6427 32.8632 36.1278C32.861 36.1306 32.8588 36.134 32.8571 36.1374C31.4475 38.3711 28.7207 39.7732 25.8876 40.0858C21.6572 40.5522 17.1602 38.5622 16.4384 33.1207C16.3622 32.548 16.1958 32.3705 16.0923 32.2981C15.9727 32.2139 15.8519 32.1992 15.7206 32.1981C15.6855 32.1981 15.6499 32.2026 15.6154 32.2111C13.395 32.7826 10.735 32.7306 8.93306 30.8785C7.7149 29.6263 6.90465 27.5684 6.84122 24.385C6.75218 19.8916 7.52737 17.1689 8.61976 15.5882C9.61476 14.1482 10.8641 13.7078 11.8646 13.7395C12.0472 13.7966 12.1807 13.7553 12.2792 13.7005C12.3722 13.6479 12.449 13.567 12.5013 13.4574C12.5363 13.3822 12.5541 13.2759 12.5792 13.1916C13.356 10.5543 16.5525 8.0351 19.5553 7.50028C21.4763 7.15825 23.3295 7.6501 24.3612 9.55589C24.4419 9.70458 24.517 9.84648 24.5799 9.98499C24.675 10.1936 24.8086 10.2575 24.9077 10.2858C25.0774 10.3349 25.2694 10.2767 25.4074 10.1342C25.5799 9.95615 25.7802 9.77242 26.0084 9.58246C27.6339 8.22506 32.6746 5.29769 37.3997 7.84797C38.4782 8.42972 39.1438 9.52536 39.491 10.816C40.0369 12.8451 39.7982 15.3552 39.023 17.2876Z" fill="black"/>
<path fill-rule="evenodd" clip-rule="evenodd" d="M15.3795 29.367C14.1347 28.9703 13.0678 28.2534 12.3468 27.1131C11.9833 26.5389 11.7256 25.8526 11.5608 25.0341C11.4668 24.5697 11.3914 24.0649 11.3694 23.5119C11.2878 22.3006 11.332 21.2597 11.4668 20.362C11.5823 19.5894 11.7545 18.9256 11.9929 18.3568L11.1995 18C10.7974 18.7327 10.4666 19.6271 10.2531 20.7215C10.0923 21.546 10.0108 22.4836 10 23.5469C10.0096 24.1845 10.0612 24.7713 10.1778 25.3046C10.3964 26.3045 10.7878 27.1295 11.294 27.7945C12.2687 29.0752 13.6522 29.7833 15.179 30.0882L15.3795 29.367ZM44.9272 23.0999C45.024 24.0884 44.9646 25.1232 44.725 26.1728C44.6163 26.6514 44.4605 27.1279 44.2663 27.6093C44.0851 28.0584 43.8727 28.5119 43.5969 28.9566C43.2333 29.6074 42.6676 30.092 41.9795 30.4444C41.2869 30.7996 40.4895 31.0422 39.6338 31.158L39.704 32C40.9182 31.9732 42.0673 31.7306 43.0204 31.2383C43.7526 30.8602 44.3524 30.3199 44.802 29.644C45.1186 29.1216 45.3814 28.5971 45.5666 28.0633C45.7636 27.4972 45.8877 26.9279 45.9494 26.364C46.0774 25.1855 45.9522 24.0436 45.6906 22.9787L44.9272 23.0999Z" fill="black"/>
<path fill-rule="evenodd" clip-rule="evenodd" d="M11.474 35.2355C8.71892 34.4829 6.82917 35.5915 6.13915 37.7433C5.44913 39.8951 7.46328 41.3094 9.14653 41.8066C10.8293 42.3033 13.1431 41.8736 13.7117 40.1629C14.2804 38.4523 14.2295 35.988 11.474 35.2355Z" fill="#93E6EB"/>
<path fill-rule="evenodd" clip-rule="evenodd" d="M12.1167 34.2552C10.5931 33.8388 9.30861 33.9514 8.30993 34.4517C7.2895 34.9626 6.55485 35.8798 6.16501 37.0966C5.7586 38.3651 6.14275 39.4179 6.88205 40.2251C7.57425 40.9806 8.59002 41.5123 9.51777 41.7868C10.6407 42.1183 12.0153 42.074 13.0724 41.578C13.8226 41.2262 14.4159 40.6512 14.6851 39.8407C15.0688 38.6859 15.1832 37.2263 14.5588 36.0603C14.1353 35.2696 13.3774 34.5996 12.1167 34.2552ZM11.9179 35.0293C12.9228 35.3038 13.5415 35.8168 13.8791 36.4474C14.3963 37.4137 14.2684 38.624 13.9505 39.5813C13.7522 40.1782 13.3034 40.5898 12.7509 40.8493C11.8532 41.27 10.6852 41.2983 9.73159 41.0169C8.92912 40.7799 8.04537 40.3287 7.44689 39.6752C6.89603 39.0741 6.5999 38.2925 6.90224 37.3475C7.22168 36.3507 7.81292 35.591 8.64904 35.1719C9.50638 34.7427 10.6096 34.6716 11.9179 35.0293Z" fill="black"/>
<path fill-rule="evenodd" clip-rule="evenodd" d="M5.397 41.0101C4.58282 41.1161 3.21084 41.8717 3.01475 43.4335C2.81932 44.9953 4.60402 46.3781 6.08266 45.9061C7.56063 45.4342 8.28339 43.9568 7.89717 42.7974C7.51095 41.6388 6.21052 40.9041 5.397 41.0101Z" fill="#93E6EB"/>
<path fill-rule="evenodd" clip-rule="evenodd" d="M5.36242 41.0112C4.56079 41.1157 3.20851 41.8582 3.01557 43.3914C2.9155 44.1883 3.30692 44.9477 3.92833 45.4396C4.53978 45.9238 5.36519 46.1405 6.11098 45.9035C7.59152 45.4323 8.28092 43.9373 7.89393 42.7803C7.66505 42.0957 7.11607 41.556 6.53557 41.26C6.12646 41.0522 5.70243 40.9674 5.36242 41.0112ZM5.46746 41.8469C5.67036 41.8205 5.9197 41.889 6.16406 42.0137C6.56377 42.217 6.95132 42.5798 7.10888 43.0516C7.36651 43.8227 6.85015 44.7853 5.86331 45.0993C5.37458 45.2549 4.83887 45.0926 4.43805 44.7752C4.04664 44.4652 3.77519 43.9996 3.83821 43.4981C3.972 42.4338 4.91074 41.9194 5.46746 41.8469Z" fill="black"/>
<path fill-rule="evenodd" clip-rule="evenodd" d="M20.0754 17.2866C20.027 17.1125 19.8763 16.9946 19.708 17.0002C19.5393 17.0057 19.3952 17.1331 19.3573 17.3103C19.0644 18.6007 18.5278 19.9147 17.2253 20.4876C17.0921 20.549 17.0039 20.689 17.0001 20.8455C16.9963 21.0021 17.0774 21.1466 17.2077 21.2156C17.9448 21.6229 18.8672 22.3941 19.2943 23.7338C19.3388 23.8833 19.4635 23.9886 19.609 23.9991C19.7545 24.0097 19.8915 23.9231 19.9541 23.7811C20.3261 22.9253 20.9238 21.8293 21.8225 21.136C21.9368 21.06 22.0041 20.9246 21.9998 20.7801C21.9955 20.6361 21.9202 20.5052 21.8017 20.4377C20.912 19.9167 20.4171 19.0145 20.0754 17.2866Z" fill="#93E6EB"/>
<path fill-rule="evenodd" clip-rule="evenodd" d="M20.9693 16.6811C20.9678 16.67 20.9653 16.6595 20.9628 16.6484C20.8642 16.2528 20.553 15.9881 20.2064 16.0004C19.8623 16.0133 19.5659 16.2972 19.4868 16.6968C19.2054 18.0623 18.7154 19.4744 17.4669 20.0809C17.4649 20.082 17.4629 20.0826 17.4609 20.0838C17.1885 20.2228 17.0077 20.5372 17.0003 20.8901C16.9923 21.2429 17.1591 21.5672 17.4251 21.7226C18.1287 22.152 19.0191 22.9694 19.4295 24.3933C19.5211 24.7321 19.7841 24.974 20.0893 24.998C20.3946 25.0225 20.6829 24.8239 20.8149 24.4949C20.8154 24.4937 20.8159 24.492 20.8159 24.492C21.1824 23.5601 21.7641 22.3624 22.647 21.6034C22.8746 21.4282 23.0081 21.1296 22.9996 20.8112C22.9907 20.4869 22.8358 20.1936 22.5952 20.0417C21.7437 19.4913 21.298 18.5139 20.9693 16.6811ZM20.1391 24.1233L20.1396 24.1239L20.1391 24.1233ZM20.1391 24.1204C20.1386 24.1175 20.1381 24.1151 20.1371 24.1122C19.6511 22.4272 18.6033 21.4539 17.7637 20.9421C17.7617 20.9409 17.7602 20.9397 17.7582 20.9385C17.7503 20.9339 17.7468 20.9228 17.7468 20.9123C17.7468 20.9035 17.7498 20.8947 17.7557 20.8895C19.2422 20.1644 19.8782 18.5279 20.2128 16.9013C20.2133 16.8996 20.2138 16.8978 20.2138 16.8961C20.2158 16.8861 20.2213 16.8768 20.2298 16.8768C20.2352 16.8762 20.2397 16.8803 20.2427 16.8861L20.2432 16.8873C20.6331 19.0473 21.2268 20.1574 22.2377 20.8112C22.2387 20.8123 22.2402 20.8129 22.2412 20.8135C22.2486 20.8182 22.2526 20.8287 22.2531 20.8392C22.2531 20.8497 22.2496 20.8608 22.2422 20.8667C22.2347 20.8719 22.2272 20.8778 22.2203 20.8836C21.2233 21.7337 20.5525 23.0711 20.1391 24.1204Z" fill="black"/>
<path fill-rule="evenodd" clip-rule="evenodd" d="M33.4602 13.2047C33.4217 13.0802 33.3012 12.9961 33.1662 13.0001C33.0316 13.0041 32.9163 13.0948 32.8858 13.2216C32.6514 14.1433 32.2224 15.082 31.1806 15.4911C31.0737 15.5351 31.0034 15.6352 31.0001 15.7468C30.9973 15.8588 31.062 15.962 31.1665 16.0113C31.7559 16.3017 32.4938 16.8531 32.8352 17.81C32.8713 17.9167 32.9711 17.9918 33.0874 17.9994C33.2037 18.0069 33.3129 17.9451 33.3631 17.8437C33.6608 17.2323 34.139 16.4498 34.8583 15.954C34.9492 15.9002 35.0031 15.8032 34.9999 15.7001C34.9966 15.5969 34.9361 15.5035 34.8414 15.4555C34.1297 15.0833 33.7335 14.439 33.4602 13.2047Z" fill="#93E6EB"/>
<path fill-rule="evenodd" clip-rule="evenodd" d="M34.6967 10.7462C34.6939 10.7327 34.6904 10.72 34.6869 10.7066C34.5627 10.2751 34.1684 9.98703 33.7309 10.0004C33.2955 10.0139 32.9214 10.3232 32.8209 10.7589C32.5097 12.0632 31.9738 13.4176 30.5914 13.9967C30.5886 13.9981 30.5858 13.9988 30.583 14.0002C30.239 14.1513 30.0101 14.4938 30.0003 14.8787C29.9906 15.2628 30.2013 15.6166 30.537 15.7861C31.3157 16.1957 32.3032 16.9767 32.7588 18.3382C32.8747 18.7075 33.2075 18.9716 33.5941 18.9978C33.9814 19.0246 34.3464 18.8078 34.5139 18.4477C34.5139 18.4477 34.5153 18.4455 34.5153 18.4441C34.9242 17.5487 35.5697 16.3962 36.5522 15.6646C36.8425 15.4719 37.01 15.147 36.9995 14.801C36.9884 14.4479 36.7923 14.1287 36.4887 13.9628C35.546 13.4374 35.0603 12.4982 34.6967 10.7462ZM33.7546 11.3365C34.1929 13.2065 34.8467 14.2191 35.8949 14.8398C34.8628 15.6237 34.1412 16.7952 33.6702 17.7761C33.1071 16.3044 32.0387 15.4118 31.1385 14.9105C32.6381 14.2184 33.3583 12.8004 33.7546 11.3365Z" fill="black"/>
<path fill-rule="evenodd" clip-rule="evenodd" d="M28.5354 21.4922C28.4488 21.1931 28.1774 20.9912 27.8738 21.0003C27.5707 21.0099 27.3114 21.2284 27.2433 21.5323C26.7153 23.744 25.7496 25.9969 23.4057 26.9791C23.1655 27.0843 23.0071 27.3241 23.0002 27.5928C22.9934 27.8609 23.1396 28.1087 23.3741 28.2268C24.701 28.9249 26.361 30.2473 27.1293 32.544C27.2101 32.8003 27.4345 32.9809 27.6964 32.9985C27.9582 33.0167 28.2043 32.8687 28.3173 32.6252C28.9868 31.158 30.0629 29.279 31.6807 28.09C31.8856 27.9608 32.0076 27.7279 31.9996 27.4806C31.9922 27.2333 31.856 27.009 31.6432 26.8931C30.0418 26.0001 29.1505 24.4533 28.5354 21.4922Z" fill="#93E6EB"/>
<path fill-rule="evenodd" clip-rule="evenodd" d="M29.4531 20.8223C29.4509 20.8125 29.4482 20.8022 29.4455 20.7925C29.3053 20.3086 28.8626 19.9848 28.3693 20.0005C27.878 20.0157 27.4569 20.364 27.3442 20.8527C26.8347 22.9767 25.9283 25.1593 23.6641 26.1026C23.662 26.1031 23.6598 26.1042 23.6576 26.1053C23.2689 26.2751 23.0117 26.6596 23.0004 27.0908C22.9896 27.5204 23.2252 27.9164 23.6016 28.1073C24.8843 28.7788 26.4917 30.0475 27.2358 32.2534C27.3717 32.6765 27.7427 32.9678 28.173 32.9976C28.606 33.0269 29.0136 32.7855 29.2007 32.3852L29.2018 32.3831C29.8596 30.9495 30.9084 29.1097 32.4953 27.9446C32.8199 27.733 33.0118 27.3658 32.9994 26.9748C32.987 26.5777 32.766 26.2187 32.423 26.0332C30.8776 25.1762 30.0483 23.6704 29.4531 20.8223ZM28.6653 21.0072C29.3269 24.1629 30.3169 25.794 32.0359 26.7475C32.0369 26.748 32.038 26.7486 32.0396 26.7491C32.1308 26.799 32.1879 26.895 32.1912 27.0003C32.1944 27.1066 32.1432 27.2064 32.0547 27.2617C32.0472 27.2671 32.0391 27.272 32.0316 27.278C30.3217 28.5277 29.1764 30.4971 28.4685 32.0397C28.4243 32.1336 28.3299 32.1927 28.228 32.1856C28.125 32.1786 28.0382 32.1064 28.0069 32.0061C28.0058 32.0039 28.0053 32.0018 28.0042 31.999C27.1792 29.5458 25.3982 28.1301 23.9731 27.3848C23.9709 27.3837 23.9688 27.3827 23.9666 27.3816C23.8669 27.3317 23.8065 27.2254 23.8092 27.112C23.8119 27.0003 23.8755 26.8994 23.9747 26.8538C26.4971 25.8032 27.5626 23.4101 28.1309 21.0425C28.1315 21.0409 28.1315 21.0392 28.132 21.0376C28.1606 20.9107 28.2673 20.8174 28.3946 20.8136C28.5159 20.8098 28.6238 20.889 28.6642 21.0051L28.6653 21.0072Z" fill="black"/>
</svg>
