<svg width="54" height="54" viewBox="0 0 54 54" fill="none" xmlns="http://www.w3.org/2000/svg">
<path d="M24.4117 6.28952L18.9428 11.7063L12.2963 18.2895L12 18.583V19V43.3C12 45.8957 14.1043 48 16.7 48H39.3C41.8957 48 44 45.8957 44 43.3V10.7C44 8.10426 41.8957 6 39.3 6H25.1154H24.704L24.4117 6.28952Z" fill="black" stroke="black" stroke-width="2"/>
<path d="M21.9959 5.30155L16.7093 10.7184L10.2843 17.3015L10 17.5929V18V42.3C10 44.8957 12.1043 47 14.7 47H36.3C38.8957 47 41 44.8957 41 42.3V9.7C41 7.10426 38.8957 5 36.3 5H22.7115H22.2902L21.9959 5.30155Z" fill="#96B894" stroke="#96B894" stroke-width="2"/>
<path d="M35.4719 45.4404H14.1084C11.8077 45.4404 10 43.6327 10 41.332V18.3251C10 17.8321 10.3287 17.5034 10.8217 17.5034C11.3147 17.5034 11.6433 17.8321 11.6433 18.3251V41.332C11.6433 42.6467 12.7937 43.797 14.1084 43.797H35.4719C36.7866 43.797 37.9369 42.6467 37.9369 41.332V10.1084C37.9369 8.79369 36.7866 7.64335 35.4719 7.64335H22.3251C21.8321 7.64335 21.5034 7.31468 21.5034 6.82167C21.5034 6.32867 21.8321 6 22.3251 6H35.4719C37.7726 6 39.5803 7.80768 39.5803 10.1084V41.332C39.5803 43.6327 37.7726 45.4404 35.4719 45.4404Z" fill="black"/>
<path d="M19.0384 19.1468H10.8217C10.493 19.1468 10.1643 18.9825 10 18.6538C10 18.3251 10 17.9965 10.1643 17.6678L21.6678 6.16433C21.9965 6 22.3251 6 22.6538 6C22.9825 6.16433 23.1468 6.493 23.1468 6.82167V15.0384C23.1468 17.3391 21.3391 19.1468 19.0384 19.1468ZM12.7937 17.5034H19.0384C20.3531 17.5034 21.5034 16.3531 21.5034 15.0384V8.79369L12.7937 17.5034Z" fill="black"/>
<path d="M17.3882 40.5124C17.2239 40.5124 16.8952 40.5124 16.7309 40.3481C16.4022 40.0194 16.4022 39.5264 16.7309 39.1977L22.6469 33.2817L16.7309 27.3656C16.4022 27.0369 16.4022 26.5439 16.7309 26.2153C17.0595 25.8866 17.5526 25.8866 17.8812 26.2153L24.4546 32.7886C24.7833 33.1173 24.7833 33.6103 24.4546 33.939L17.8812 40.5124C17.8812 40.5124 17.5526 40.5124 17.3882 40.5124Z" fill="black"/>
<path d="M32.188 40.5066H25.6146C25.1216 40.5066 24.793 40.178 24.793 39.685C24.793 39.192 25.1216 38.8633 25.6146 38.8633H32.188C32.681 38.8633 33.0097 39.192 33.0097 39.685C33.0097 40.178 32.681 40.5066 32.188 40.5066Z" fill="black"/>
</svg>
