<svg width="54" height="54" viewBox="0 0 54 54" fill="none" xmlns="http://www.w3.org/2000/svg">
<rect x="6.03125" y="7.03125" width="44.6769" height="41.9692" rx="4" fill="black"/>
<rect x="4" y="5" width="44.6769" height="41.9692" rx="4" fill="#A1CCE5"/>
<path d="M44.6159 7.59375H8.06202C6.94239 7.59375 6.03125 8.50489 6.03125 9.62452V42.3443C6.03125 43.4639 6.94239 44.375 8.06202 44.375H44.6159C45.7355 44.375 46.6466 43.4639 46.6466 42.3443V9.62452C46.6466 8.50489 45.7355 7.59375 44.6159 7.59375ZM8.06202 8.9476H44.6159C44.9895 8.9476 45.2928 9.25086 45.2928 9.62452V13.6251H7.3851V9.62452C7.3851 9.25086 7.68903 8.9476 8.06202 8.9476ZM44.6159 43.0212H8.06202C7.68903 43.0212 7.3851 42.7179 7.3851 42.3443V14.979H45.2928V42.3443C45.2928 42.7179 44.9895 43.0212 44.6159 43.0212Z" fill="black"/>
<path d="M11.3332 11.9632H12.5395C12.9131 11.9632 13.2164 11.6606 13.2164 11.2863C13.2164 10.912 12.9131 10.6094 12.5395 10.6094H11.3332C10.9595 10.6094 10.6562 10.912 10.6562 11.2863C10.6562 11.6606 10.9595 11.9632 11.3332 11.9632ZM15.5958 11.9632H16.802C17.1757 11.9632 17.479 11.6606 17.479 11.2863C17.479 10.912 17.1757 10.6094 16.802 10.6094H15.5958C15.2221 10.6094 14.9188 10.912 14.9188 11.2863C14.9188 11.6606 15.2221 11.9632 15.5958 11.9632ZM19.8583 11.9632H21.0646C21.4383 11.9632 21.7415 11.6606 21.7415 11.2863C21.7415 10.912 21.4383 10.6094 21.0646 10.6094H19.8583C19.4847 10.6094 19.1814 10.912 19.1814 11.2863C19.1814 11.6606 19.4847 11.9632 19.8583 11.9632ZM35.8161 17.1505H16.8623C15.7426 17.1505 14.8315 18.0616 14.8315 19.1813V33.995C14.8315 35.1147 15.7426 36.0258 16.8623 36.0258H35.8161C36.9358 36.0258 37.8469 35.1147 37.8469 33.995V19.1813C37.8469 18.0616 36.9358 17.1505 35.8161 17.1505ZM36.493 33.995C36.493 34.3687 36.1898 34.672 35.8161 34.672H16.8623C16.4893 34.672 16.1854 34.3687 16.1854 33.995V19.1813C16.1854 18.8076 16.4893 18.5043 16.8623 18.5043H35.8161C36.1898 18.5043 36.493 18.8076 36.493 19.1813V33.995Z" fill="black"/>
<path d="M31.0924 25.9823L22.1922 21.5322C21.9824 21.428 21.7333 21.4382 21.5336 21.562C21.3346 21.6859 21.2127 21.9032 21.2127 22.1381V31.0383C21.2127 31.2732 21.3346 31.4905 21.5336 31.6143C21.7333 31.7382 21.983 31.7484 22.1922 31.6441L31.0924 27.194C31.3219 27.079 31.4667 26.8447 31.4667 26.5882C31.4667 26.3316 31.3219 26.0974 31.0924 25.9823ZM22.5659 29.943V23.2334L29.2755 26.5882L22.5659 29.943ZM37.1705 38.2489H23.2834V37.6789C23.2834 37.3046 22.9802 37.002 22.6065 37.002C22.2328 37.002 21.9296 37.3046 21.9296 37.6789V38.2489H15.509C15.1353 38.2489 14.832 38.5514 14.832 38.9258C14.832 39.3001 15.1353 39.6027 15.509 39.6027H21.9296V40.172C21.9296 40.5463 22.2328 40.8489 22.6065 40.8489C22.9802 40.8489 23.2834 40.5463 23.2834 40.172V39.6027H37.1705C37.5448 39.6027 37.8474 39.3001 37.8474 38.9258C37.8474 38.5514 37.5448 38.2489 37.1705 38.2489Z" fill="black"/>
</svg>
