<svg width="1200" height="288" viewBox="0 0 1200 288" fill="none" xmlns="http://www.w3.org/2000/svg">
<g clip-path="url(#clip0_1585_791)">
<rect width="1200" height="288" fill="#FCE96C"/>
<path d="M175.807 149.285C163.563 143.598 145.562 154.549 129.512 175.346C127.021 134.315 94.6141 143.457 70.7617 175.346C70.1272 162.398 65.9911 152.857 58.3066 149.285C40.8461 141.177 11.6591 166.91 -6.88235 206.813C-38.8188 273.506 -14.9428 331.809 37.4856 267.678C39.9767 308.709 72.3831 299.567 96.2356 267.678C96.8701 280.626 101.006 290.167 108.691 293.739C151.837 310.26 216.25 171.586 175.807 149.308V149.285Z" fill="black"/>
<path d="M1030.66 31.9997C1030.66 29.2397 1028.42 26.9997 1025.66 26.9997H1021.08L1024.32 23.7547C1026.28 21.7997 1026.28 18.6347 1024.32 16.6847C1022.37 14.7347 1019.2 14.7297 1017.25 16.6847L1014.01 19.9297V15.3447C1014.01 12.5847 1011.77 10.3447 1009.01 10.3447C1006.25 10.3447 1004.01 12.5847 1004.01 15.3447V19.9297L1000.76 16.6847C998.807 14.7297 995.642 14.7297 993.692 16.6847C991.742 18.6397 991.737 21.8047 993.692 23.7547L996.937 26.9997H992.352C989.592 26.9997 987.352 29.2397 987.352 31.9997C987.352 34.7597 989.592 36.9997 992.352 36.9997H996.937L993.692 40.2447C991.737 42.1997 991.737 45.3647 993.692 47.3147C995.647 49.2697 998.812 49.2697 1000.76 47.3147L1004.01 44.0697V48.6547C1004.01 51.4147 1006.25 53.6547 1009.01 53.6547C1011.77 53.6547 1014.01 51.4147 1014.01 48.6547V44.0697L1017.25 47.3147C1019.21 49.2697 1022.37 49.2697 1024.32 47.3147C1026.28 45.3597 1026.28 42.1947 1024.32 40.2447L1021.08 36.9997H1025.66C1028.42 36.9997 1030.66 34.7597 1030.66 31.9997Z" fill="black"/>
<path d="M554.675 261.45C537.916 261.648 526.295 242.275 540.032 229.753C545.484 224.935 554.521 225.678 559.11 231.323C563.004 235.728 562.406 243.032 557.839 246.741C554.046 249.957 548.344 249.487 545.132 245.694C543.873 244.211 544.058 241.989 545.541 240.731C547.024 239.472 549.246 239.657 550.504 241.14C551.173 241.963 552.497 242.077 553.289 241.369C554.917 240.044 555.133 237.444 553.742 235.873C551.538 233.163 547.204 232.806 544.586 235.121C540.38 238.685 539.86 245.007 543.424 249.214C548.674 255.409 557.988 256.175 564.179 250.921C565.662 249.663 567.884 249.847 569.142 251.33C570.401 252.813 570.216 255.035 568.733 256.293C564.65 259.756 559.647 261.446 554.675 261.446V261.45Z" fill="black"/>
<path d="M202.087 43.8724C196.019 43.8079 192.691 39.2628 192.743 32.7225C192.769 25.8081 195.585 19.0313 200.47 14.1336C203.815 11.029 208.438 15.6386 205.342 18.9926C201.725 22.6175 199.644 27.627 199.623 32.7483C199.683 37.1644 201.171 37.7019 204.998 36.3603C203.953 33.3589 204.099 29.6394 205.462 25.3867C206.202 23.0819 207.264 20.4718 209.556 18.5927C212.222 16.4083 216.724 15.7805 219.639 18.511C224.438 22.8755 220.663 31.8539 216.814 36.1969C218.775 35.5304 220.478 33.8964 221.815 31.5228C222.74 29.863 224.834 29.2653 226.493 30.1898C228.153 31.1143 228.751 33.2084 227.826 34.8682C226.364 37.4955 223.716 40.9656 219.42 42.5695C216.053 43.8251 212.385 43.5198 209.534 41.8858C207.303 43.0038 204.465 43.8982 202.082 43.8724H202.087ZM214.866 23.5635C212.561 23.5936 211.181 29.7426 211.207 32.1291C212.862 30.3188 214.118 28.1387 214.78 25.7995C215.12 24.5912 215.051 23.8129 214.952 23.5678H214.866V23.5635Z" fill="black"/>
<path d="M1208.14 242.157C1200.48 242.157 1193.91 236.355 1193.11 228.587L1190.24 200.653L1166.88 209.422C1162.14 211.199 1156.81 210.481 1152.69 207.513C1148.58 204.527 1146.24 199.689 1146.45 194.624L1147.05 180.638L1132.54 190.579C1122.48 197.704 1108.01 189.558 1108.89 177.255L1113.2 101.031C1115.11 81.0725 1143.73 82.6601 1143.39 102.732L1140.82 148.243L1154.9 138.604C1159.62 135.372 1165.76 135.089 1170.77 137.848C1175.78 140.626 1178.79 145.994 1178.54 151.721L1177.63 173.078L1197.95 165.442C1206.85 161.832 1217.57 168.466 1218.31 178.048L1223.18 225.487C1224.15 234.333 1217.02 242.214 1208.12 242.157H1208.14Z" fill="black"/>
<path d="M962.168 263.229C972.194 257.461 978.906 246.313 979.308 234.75C979.546 227.813 977.315 220.375 971.758 216.211C966.201 212.046 957.027 212.673 953.443 218.613C950.625 223.286 951.674 229.853 947.972 233.859C944.236 237.911 937.748 237.245 932.594 239.179C922.423 243 918.701 258.688 928.079 265.354C936.375 271.248 954.327 267.73 962.168 263.222V263.229Z" fill="black"/>
</g>
<defs>
<clipPath id="clip0_1585_791">
<rect width="1200" height="288" fill="white"/>
</clipPath>
</defs>
</svg>
