<svg width="55" height="54" viewBox="0 0 55 54" fill="none" xmlns="http://www.w3.org/2000/svg">
<path d="M16.0666 34.369L16.0665 34.3691L16.0745 34.379C18.4649 37.3431 19.6842 40.7551 19.6842 44.0352C19.6842 44.5649 19.8651 45.084 20.2543 45.4732C20.6435 45.8624 21.1627 46.0434 21.6924 46.0434H32.7829C33.3126 46.0434 33.8318 45.8624 34.221 45.4732C34.6102 45.084 34.7912 44.5649 34.7912 44.0352C34.7912 40.4175 35.9314 37.2245 37.9825 34.8004L37.9826 34.8005L37.9874 34.7947C40.1495 32.2001 41.343 28.9525 41.3447 25.5916C41.4495 17.8652 35.0389 11.4775 27.2377 11.4775L27.2021 11.4775C26.7325 11.4775 26.1619 11.4774 25.5763 11.5886C19.3931 12.2605 14.2196 17.2379 13.2441 23.4101C12.5941 27.422 13.6801 31.3317 16.0666 34.369Z" fill="black" stroke="black" stroke-width="2"/>
<path d="M49.2171 23.9794H43.2685C42.7388 23.9794 42.2197 24.1604 41.8304 24.5496C41.4412 24.9388 41.2603 25.4579 41.2603 25.9877C41.2603 26.5174 41.4412 27.0365 41.8304 27.4257C42.2197 27.8149 42.7388 27.9959 43.2685 27.9959H49.2171C49.7468 27.9959 50.2659 27.8149 50.6552 27.4257C51.0444 27.0365 51.2253 26.5174 51.2253 25.9877C51.2253 24.7666 50.2074 23.9794 49.2171 23.9794ZM13.3158 25.9877C13.3158 25.4579 13.1349 24.9388 12.7457 24.5496C12.3565 24.1604 11.8373 23.9794 11.3076 23.9794H5.25823C4.72851 23.9794 4.20938 24.1604 3.82016 24.5496C3.43094 24.9388 3.25 25.4579 3.25 25.9877C3.25 26.5174 3.43094 27.0365 3.82016 27.4257C4.20938 27.8149 4.72851 27.9959 5.25823 27.9959H11.2068C12.3022 27.9959 13.3158 27.1039 13.3158 25.9877ZM27.2377 11.6626C27.7674 11.6626 28.2865 11.4816 28.6757 11.0924C29.0649 10.7032 29.2459 10.184 29.2459 9.65432V4.00823C29.2459 3.47851 29.0649 2.95938 28.6757 2.57016C28.2865 2.18094 27.7674 2 27.2377 2C26.7079 2 26.1888 2.18094 25.7996 2.57016C25.4104 2.95938 25.2294 3.47851 25.2294 4.00823V9.65432C25.2294 10.184 25.4104 10.7032 25.7996 11.0924C26.1888 11.4816 26.7079 11.6626 27.2377 11.6626ZM38.6307 16.5021C38.8986 16.5021 39.1665 16.4562 39.4275 16.3403C39.6841 16.2262 39.8837 16.0666 40.0435 15.9067L44.0764 11.8738C44.8703 11.08 44.8703 9.84185 44.0764 9.04804C43.2826 8.25422 42.0445 8.25422 41.2507 9.04804L37.2178 13.081C36.424 13.8748 36.424 15.1129 37.2178 15.9067C37.6192 16.3081 38.1817 16.5021 38.6307 16.5021ZM14.5326 35.867L10.298 40.1015C9.50422 40.8954 9.50422 42.1335 10.298 42.9273C10.6995 43.3287 11.2619 43.5226 11.7109 43.5226C11.9788 43.5226 12.2468 43.4768 12.5077 43.3608C12.7643 43.2468 12.9639 43.0871 13.1238 42.9273L17.3583 38.6927C18.1522 37.8989 18.1522 36.6608 17.3583 35.867C16.5645 35.0732 15.3264 35.0732 14.5326 35.867ZM39.9427 35.7661C39.1489 34.9723 37.9108 34.9723 37.117 35.7661C36.3232 36.56 36.3232 37.7981 37.117 38.5919L41.3515 42.8264C41.753 43.2279 42.3154 43.4218 42.7644 43.4218C43.0323 43.4218 43.3003 43.376 43.5612 43.26C43.8178 43.146 44.0174 42.9863 44.1773 42.8264C44.9711 42.0326 44.9711 40.7945 44.1773 40.0007L39.9427 35.7661ZM14.331 15.9067C14.7324 16.3081 15.2948 16.5021 15.7438 16.5021C16.0117 16.5021 16.2797 16.4562 16.5407 16.3403C16.7972 16.2262 16.9968 16.0666 17.1567 15.9067C17.9505 15.1129 17.9505 13.8748 17.1567 13.081L13.1238 9.04804C12.33 8.25422 11.0919 8.25422 10.298 9.04804C9.50422 9.84185 9.50422 11.08 10.298 11.8738L14.331 15.9067ZM32.4805 45.2531H21.9949C21.4651 45.2531 20.946 45.434 20.5568 45.8232C20.1676 46.2125 19.9866 46.7316 19.9866 47.2613C19.9866 47.791 20.1676 48.3102 20.5568 48.6994C20.601 48.7436 20.6469 48.7852 20.6944 48.8241C20.6469 48.863 20.601 48.9045 20.5568 48.9488C20.1676 49.338 19.9866 49.8571 19.9866 50.3868C19.9866 50.9165 20.1676 51.4357 20.5568 51.8249C20.946 52.2141 21.4651 52.3951 21.9949 52.3951H32.4805C33.0102 52.3951 33.5293 52.2141 33.9185 51.8249C34.3077 51.4357 34.4887 50.9165 34.4887 50.3868C34.4887 49.7258 34.1904 49.192 33.7596 48.8413C33.8146 48.7975 33.8677 48.7502 33.9185 48.6994C34.3077 48.3102 34.4887 47.791 34.4887 47.2613C34.4887 46.0402 33.4707 45.2531 32.4805 45.2531Z" fill="black" stroke="black" stroke-width="2"/>
<path d="M14.0509 34.369L14.0509 34.3691L14.0588 34.379C16.4493 37.3431 17.6685 40.7551 17.6685 44.0352C17.6685 44.5649 17.8495 45.084 18.2387 45.4732C18.6279 45.8624 19.1471 46.0434 19.6768 46.0434H30.7673C31.297 46.0434 31.8162 45.8624 32.2054 45.4732C32.5946 45.084 32.7755 44.5649 32.7755 44.0352C32.7755 40.4175 33.9158 37.2245 35.9669 34.8004L35.9669 34.8005L35.9717 34.7947C38.1339 32.2001 39.3274 28.9525 39.329 25.5916C39.4339 17.8652 33.0233 11.4775 25.222 11.4775L25.1865 11.4775C24.7169 11.4775 24.1463 11.4774 23.5607 11.5886C17.3775 12.2605 12.2039 17.2379 11.2284 23.4101C10.5784 27.422 11.6645 31.3317 14.0509 34.369Z" fill="#F6DB7F" stroke="#F6DB7F" stroke-width="2"/>
<path d="M47.2015 23.9794H41.2529C40.7232 23.9794 40.204 24.1604 39.8148 24.5496C39.4256 24.9388 39.2447 25.4579 39.2447 25.9877C39.2447 26.5174 39.4256 27.0365 39.8148 27.4257C40.204 27.8149 40.7232 27.9959 41.2529 27.9959H47.2015C47.7312 27.9959 48.2503 27.8149 48.6395 27.4257C49.0287 27.0365 49.2097 26.5174 49.2097 25.9877C49.2097 24.7666 48.1917 23.9794 47.2015 23.9794ZM11.3002 25.9877C11.3002 25.4579 11.1193 24.9388 10.7301 24.5496C10.3408 24.1604 9.8217 23.9794 9.29199 23.9794H3.24261C2.71289 23.9794 2.19375 24.1604 1.80453 24.5496C1.41531 24.9388 1.23438 25.4579 1.23438 25.9877C1.23438 26.5174 1.41531 27.0365 1.80453 27.4257C2.19375 27.8149 2.71289 27.9959 3.24261 27.9959H9.19117C10.2866 27.9959 11.3002 27.1039 11.3002 25.9877ZM25.222 11.6626C25.7517 11.6626 26.2709 11.4816 26.6601 11.0924C27.0493 10.7032 27.2303 10.184 27.2303 9.65432V4.00823C27.2303 3.47851 27.0493 2.95938 26.6601 2.57016C26.2709 2.18094 25.7517 2 25.222 2C24.6923 2 24.1732 2.18094 23.784 2.57016C23.3947 2.95938 23.2138 3.47851 23.2138 4.00823V9.65432C23.2138 10.184 23.3947 10.7032 23.784 11.0924C24.1732 11.4816 24.6923 11.6626 25.222 11.6626ZM36.615 16.5021C36.8829 16.5021 37.1509 16.4562 37.4119 16.3403C37.6684 16.2262 37.868 16.0666 38.0279 15.9067L42.0608 11.8738C42.8546 11.08 42.8546 9.84185 42.0608 9.04804C41.267 8.25422 40.0289 8.25422 39.2351 9.04804L35.2022 13.081C34.4083 13.8748 34.4083 15.1129 35.2022 15.9067C35.6036 16.3081 36.166 16.5021 36.615 16.5021ZM12.517 35.867L8.28241 40.1015C7.4886 40.8954 7.4886 42.1335 8.28241 42.9273C8.68386 43.3287 9.24628 43.5226 9.69528 43.5226C9.9632 43.5226 10.2312 43.4768 10.4921 43.3608C10.7487 43.2468 10.9483 43.0871 11.1081 42.9273L15.3427 38.6927C16.1365 37.8989 16.1365 36.6608 15.3427 35.867C14.5489 35.0732 13.3108 35.0732 12.517 35.867ZM37.9271 35.7661C37.1333 34.9723 35.8952 34.9723 35.1013 35.7661C34.3075 36.56 34.3075 37.7981 35.1013 38.5919L39.3359 42.8264C39.7374 43.2279 40.2998 43.4218 40.7488 43.4218C41.0167 43.4218 41.2847 43.376 41.5456 43.26C41.8022 43.146 42.0018 42.9863 42.1616 42.8264C42.9555 42.0326 42.9555 40.7945 42.1616 40.0007L37.9271 35.7661ZM12.3153 15.9067C12.7168 16.3081 13.2792 16.5021 13.7282 16.5021C13.9961 16.5021 14.2641 16.4562 14.525 16.3403C14.7816 16.2262 14.9812 16.0666 15.1411 15.9067C15.9349 15.1129 15.9349 13.8748 15.1411 13.081L11.1081 9.04804C10.3143 8.25422 9.07623 8.25422 8.28241 9.04804C7.4886 9.84185 7.4886 11.08 8.28241 11.8738L12.3153 15.9067ZM30.4648 45.2531H19.9792C19.4495 45.2531 18.9304 45.434 18.5412 45.8232C18.1519 46.2125 17.971 46.7316 17.971 47.2613C17.971 47.791 18.1519 48.3102 18.5412 48.6994C18.5854 48.7436 18.6313 48.7852 18.6787 48.8241C18.6313 48.863 18.5854 48.9045 18.5412 48.9488C18.1519 49.338 17.971 49.8571 17.971 50.3868C17.971 50.9165 18.1519 51.4357 18.5412 51.8249C18.9304 52.2141 19.4495 52.3951 19.9792 52.3951H30.4648C30.9945 52.3951 31.5137 52.2141 31.9029 51.8249C32.2921 51.4357 32.4731 50.9165 32.4731 50.3868C32.4731 49.7258 32.1748 49.192 31.744 48.8413C31.799 48.7975 31.8521 48.7502 31.9029 48.6994C32.2921 48.3102 32.4731 47.791 32.4731 47.2613C32.4731 46.0402 31.4551 45.2531 30.4648 45.2531Z" fill="#F6DB7F" stroke="#F6DB7F" stroke-width="2"/>
<path d="M25.2277 12.4004C24.7277 12.4004 24.2277 12.4004 23.7277 12.5004C18.0277 13.1004 13.2277 17.7004 12.3277 23.4004C11.7277 27.1004 12.7277 30.7004 14.9277 33.5004C17.4277 36.6004 18.7277 40.2004 18.7277 43.7004C18.7277 44.3004 19.1277 44.7004 19.7277 44.7004H30.7277C31.3277 44.7004 31.7277 44.3004 31.7277 43.7004C31.7277 39.9004 32.9277 36.5004 35.1277 33.9004C37.1277 31.5004 38.2277 28.5004 38.2277 25.4004C38.3277 18.3004 32.4277 12.4004 25.2277 12.4004ZM33.6277 32.6004C31.3277 35.3004 29.9277 38.9004 29.7277 42.7004H20.7277C20.5277 39.0004 19.1277 35.4004 16.5277 32.2004C14.6277 29.8004 13.8277 26.7004 14.3277 23.6004C15.0277 18.8004 19.1277 14.9004 23.9277 14.4004C24.3277 14.4004 24.8277 14.3004 25.2277 14.3004C31.3277 14.3004 36.3277 19.3004 36.3277 25.4004C36.3277 28.1004 35.3277 30.6004 33.6277 32.6004Z" fill="black"/>
<path d="M25.2258 16.6C24.6258 16.6 24.2258 17 24.2258 17.6C24.2258 18.2 24.6258 18.6 25.2258 18.6C29.0258 18.6 32.1258 21.7 32.1258 25.5C32.1258 26.1 32.5258 26.5 33.1258 26.5C33.7258 26.5 34.1258 26.1 34.1258 25.5C34.1258 20.6 30.1258 16.6 25.2258 16.6ZM47.0258 24.8H41.1258C40.5258 24.8 40.1258 25.2 40.1258 25.8C40.1258 26.4 40.5258 26.8 41.1258 26.8H47.0258C47.6258 26.8 48.0258 26.4 48.0258 25.8C48.0258 25.2 47.5258 24.8 47.0258 24.8ZM10.4258 25.8C10.4258 25.2 10.0258 24.8 9.42578 24.8H3.42578C2.82578 24.8 2.42578 25.2 2.42578 25.8C2.42578 26.4 2.82578 26.8 3.42578 26.8H9.32578C9.92578 26.8 10.4258 26.3 10.4258 25.8ZM25.2258 10.6C25.8258 10.6 26.2258 10.2 26.2258 9.6V4C26.2258 3.4 25.8258 3 25.2258 3C24.6258 3 24.2258 3.4 24.2258 4V9.6C24.2258 10.2 24.6258 10.6 25.2258 10.6ZM36.5258 15.4C36.8258 15.4 37.0258 15.3 37.2258 15.1L41.2258 11.1C41.6258 10.7 41.6258 10.1 41.2258 9.7C40.8258 9.3 40.2258 9.3 39.8258 9.7L35.8258 13.7C35.4258 14.1 35.4258 14.7 35.8258 15.1C36.0258 15.3 36.3258 15.4 36.5258 15.4ZM13.3258 36.3L9.12578 40.5C8.72578 40.9 8.72578 41.5 9.12578 41.9C9.32578 42.1 9.62578 42.2 9.82578 42.2C10.1258 42.2 10.3258 42.1 10.5258 41.9L14.7258 37.7C15.1258 37.3 15.1258 36.7 14.7258 36.3C14.3258 35.9 13.7258 35.9 13.3258 36.3ZM37.1258 36.2C36.7258 35.8 36.1258 35.8 35.7258 36.2C35.3258 36.6 35.3258 37.2 35.7258 37.6L39.9258 41.8C40.1258 42 40.4258 42.1 40.6258 42.1C40.9258 42.1 41.1258 42 41.3258 41.8C41.7258 41.4 41.7258 40.8 41.3258 40.4L37.1258 36.2ZM13.1258 15.1C13.3258 15.3 13.6258 15.4 13.8258 15.4C14.1258 15.4 14.3258 15.3 14.5258 15.1C14.9258 14.7 14.9258 14.1 14.5258 13.7L10.5258 9.7C10.1258 9.3 9.52578 9.3 9.12578 9.7C8.72578 10.1 8.72578 10.7 9.12578 11.1L13.1258 15.1ZM30.4258 45.9H20.0258C19.4258 45.9 19.0258 46.3 19.0258 46.9C19.0258 47.5 19.4258 47.9 20.0258 47.9H30.4258C31.0258 47.9 31.4258 47.5 31.4258 46.9C31.4258 46.3 30.9258 45.9 30.4258 45.9ZM30.4258 49H20.0258C19.4258 49 19.0258 49.4 19.0258 50C19.0258 50.6 19.4258 51 20.0258 51H30.4258C31.0258 51 31.4258 50.6 31.4258 50C31.4258 49.4 30.9258 49 30.4258 49Z" fill="black"/>
</svg>
