<svg width="86" height="86" viewBox="0 0 86 86" fill="none" xmlns="http://www.w3.org/2000/svg">
<g clip-path="url(#clip0_766_260)">
<path d="M11.7982 42.1904C12.132 41.9234 12.6057 41.9074 12.9572 42.1431C13.3147 42.3814 13.469 42.8295 13.3442 43.2358C12.8357 44.899 12.5806 46.6144 12.5876 48.3291C12.5964 51.7208 13.6339 54.6274 14.8355 56.8547C14.6811 54.61 14.8143 52.3542 15.2429 50.1191C15.8631 46.877 17.0703 43.816 18.84 41.0105C19.0851 40.6205 19.5648 40.4586 19.9992 40.6167C20.4429 40.7858 20.692 41.211 20.6312 41.6659C20.2305 44.5283 20.2779 47.385 20.7667 50.1693C21.458 54.0802 22.9204 57.3318 24.5111 59.8887C23.8698 56.6358 23.6245 53.3335 23.7855 50.0075C24.0473 44.5675 25.3622 39.3105 27.7037 34.3809C27.9113 33.9466 28.3996 33.7317 28.8587 33.865C29.3213 34.0069 29.6121 34.45 29.5496 34.9254C28.7567 41.0428 29.1202 47.1685 30.6156 53.1291C31.4122 56.3001 32.5264 59.374 33.948 62.3252C33.2205 56.8992 33.0283 51.4129 33.3677 45.9567C33.7338 40.0097 34.7383 34.0749 36.3556 28.3111C36.4881 27.8375 36.9482 27.5398 37.4356 27.6075C37.9203 27.6811 38.2795 28.0969 38.2673 28.5868C38.1615 36.4491 39.1201 44.2871 41.1012 51.8849C42.3197 56.595 43.936 61.1857 45.9211 65.6094C44.844 59.4322 44.1468 53.1775 43.8354 46.9469C43.4486 39.1774 43.6611 31.2972 44.4684 23.5307C44.5215 23.0443 44.9245 22.6655 45.4161 22.6572C45.9077 22.6488 46.3275 23.0058 46.4024 23.4906C47.5998 31.5301 49.2812 39.6288 51.3928 47.5655C52.93 53.346 54.7225 59.1086 56.7437 64.7997C55.497 58.0122 54.4911 51.1583 53.7421 44.3155C52.8995 36.6687 52.3635 28.8351 52.1491 21.0264C52.01 20.988 51.8743 20.9581 51.7429 20.9017C50.0644 20.1815 49.2834 18.2266 50.0037 16.5481C50.7239 14.8696 52.6787 14.0886 54.3572 14.8088C56.0357 15.529 56.8167 17.4839 56.0965 19.1624C55.7095 20.0644 54.9658 20.6931 54.1062 20.982C54.3206 28.7412 54.8473 36.5142 55.6924 44.1055C56.8529 54.7533 58.6416 65.4372 60.9996 75.8491C61.1129 76.3434 60.8276 76.8434 60.3445 76.9968C59.8614 77.1502 59.3434 76.9068 59.1473 76.4407C55.3028 67.2017 52.0576 57.654 49.5055 48.0571C48.0645 42.6292 46.8174 37.1287 45.7912 31.6241C45.5288 36.7031 45.5266 41.8019 45.7805 46.8478C46.2002 55.3812 47.3701 63.9465 49.2391 72.3167C49.3482 72.7878 49.0851 73.2691 48.6353 73.4439C48.1794 73.6161 47.6734 73.4272 47.4363 73.0072C43.8544 66.5192 41.0792 59.5851 39.2003 52.3919C37.8088 47.063 36.9141 41.6147 36.5238 36.1283C35.9156 39.4251 35.5045 42.757 35.2974 46.0915C34.8522 53.2777 35.3536 60.5164 36.7981 67.601C36.8918 68.0585 36.6424 68.5244 36.207 68.6983C35.7717 68.8722 35.2673 68.7124 35.02 68.3163C32.138 63.7412 30.0174 58.7926 28.7129 53.6071C27.6947 49.5346 27.1793 45.395 27.1802 41.2223C26.3528 44.1067 25.865 47.0732 25.7187 50.1014C25.487 54.8612 26.1303 59.5932 27.6288 64.1618C27.7737 64.5988 27.5891 65.0784 27.1862 65.3087C26.7832 65.5389 26.2746 65.4551 25.9692 65.1118C23.3698 62.1858 20.0194 57.2683 18.8265 50.5039C18.5737 49.0656 18.43 47.6035 18.3965 46.1321C17.8437 47.5358 17.4249 48.99 17.1392 50.4801C16.4848 53.8844 16.567 57.3359 17.3832 60.7417C17.4906 61.1839 17.2753 61.6361 16.8706 61.8374C16.6077 61.9721 16.3047 61.9694 16.0479 61.8592C15.9105 61.8003 15.7859 61.7115 15.6827 61.5894C13.8008 59.3319 10.6304 54.6048 10.616 48.3248C10.6095 47.6147 10.6525 46.9046 10.7304 46.1954C10.0156 47.2679 9.35613 48.6401 9.0584 50.323C8.82657 51.5887 8.84394 52.8834 9.0764 54.1714C9.45619 54.1929 9.83597 54.2639 10.2063 54.4228C11.8848 55.1431 12.6658 57.0979 11.9456 58.7764C11.2254 60.4549 9.27056 61.2359 7.59204 60.5157C5.91353 59.7955 5.13256 57.8406 5.85277 56.1621C6.1347 55.505 6.61117 54.988 7.1823 54.646C6.88424 53.0823 6.85418 51.5204 7.13393 49.9783C7.91157 45.6932 10.6549 43.1074 11.7982 42.1904ZM53.5849 16.5923C52.892 16.295 52.0896 16.6156 51.7923 17.3085C51.4949 18.0014 51.8155 18.8038 52.5084 19.1011C53.2013 19.3984 54.0037 19.0779 54.3011 18.385C54.5984 17.692 54.2778 16.8896 53.5849 16.5923ZM8.3729 58.7288C9.06581 59.0261 9.86822 58.7055 10.1655 58.0126C10.4628 57.3197 10.1423 56.5173 9.44936 56.22C8.75645 55.9227 7.95403 56.2432 7.65672 56.9361C7.36538 57.6316 7.68596 58.434 8.3729 58.7288Z" fill="black"/>
</g>
<defs>
<clipPath id="clip0_766_260">
<rect width="65" height="65" fill="white" transform="matrix(-0.918978 -0.39431 -0.39431 0.918978 85.3633 25.6299)"/>
</clipPath>
</defs>
</svg>
