<svg width="158" height="158" viewBox="0 0 158 158" fill="none" xmlns="http://www.w3.org/2000/svg">
<path d="M127.405 140.558C125.892 139.565 124.108 140.284 123.431 140.561C121.875 141.189 116.466 142.981 115.313 144.203C114.894 143.96 114.5 143.676 114.137 143.355C115.444 136.818 117.436 130.436 120.08 124.316C120.658 123.003 120.871 121.558 120.695 120.134C120.519 118.711 119.961 117.361 119.081 116.229C112.57 107.939 109.521 106.152 103.01 97.9367C102.967 97.8796 102.907 97.8539 102.858 97.8082C106.387 93.7063 107.331 89.0876 108.185 82.8875C108.522 80.4383 108.802 77.9777 109.047 75.5114C111.491 73.4704 113.997 71.3723 115.082 68.238C116.794 63.3111 115.259 59.8885 109.989 59.3033C109.995 58.9322 110.009 58.5668 110.012 58.2014C113.025 57.7375 115.904 56.6348 118.456 54.9672C120.698 53.8225 122.709 52.2709 124.385 50.3914C129.985 44.0086 131.235 34.189 127.427 26.5131C124.83 21.2836 120.197 17.4328 114.211 15.389C114.668 13.9731 114.419 12.3346 113.474 11.1785C112.948 10.5454 112.259 10.0675 111.482 9.79594C110.704 9.5244 109.868 9.46948 109.061 9.63705C108.967 9.65383 108.876 9.68957 108.796 9.74212C108.715 9.79467 108.646 9.86294 108.593 9.94285C108.539 10.0227 108.503 10.1126 108.485 10.2071C108.467 10.3016 108.468 10.3987 108.489 10.4926C108.509 10.5865 108.549 10.6753 108.605 10.7536C108.66 10.8319 108.731 10.8982 108.813 10.9484C108.895 10.9986 108.987 11.0317 109.082 11.0457C109.177 11.0598 109.274 11.0544 109.367 11.0301C109.891 10.9146 110.436 10.9411 110.947 11.107C111.457 11.2729 111.914 11.572 112.271 11.9736C112.627 12.3752 112.869 12.8646 112.973 13.3912C113.077 13.9179 113.038 14.4627 112.861 14.9693C111.142 14.4755 109.935 14.1586 108.014 14.1187C108.005 12.1862 106.778 10.285 104.928 9.63134C102.707 8.83207 100.024 9.99958 99.0761 12.1633C99.0004 12.3371 98.9966 12.5338 99.0656 12.7104C99.1347 12.8869 99.2708 13.029 99.4443 13.1053C99.6182 13.18 99.8145 13.1829 99.9904 13.1133C100.166 13.0438 100.308 12.9075 100.383 12.7342C101.031 11.2556 102.933 10.4392 104.451 10.9758C105.75 11.4326 106.581 12.8427 106.544 14.2129C105.079 14.3153 103.636 14.6129 102.25 15.0978C101.298 15.3609 100.37 15.7037 99.4757 16.1226C99.4929 15.8628 99.5414 15.6088 99.49 15.3376C98.9277 12.4545 95.4908 11.8836 93.1615 13.7904C90.7551 15.76 90.5068 18.8144 88.9482 21.1038C86.4219 24.8147 82.9251 22.3769 84.478 20.9667C84.5779 20.8697 84.849 20.6756 85.1231 20.7726C85.2104 20.8065 85.3035 20.8228 85.3971 20.8205C85.4908 20.8181 85.583 20.7972 85.6685 20.759C85.754 20.7208 85.831 20.666 85.8952 20.5977C85.9594 20.5295 86.0093 20.4493 86.0423 20.3616C86.4133 19.3853 84.7292 18.803 83.516 19.9106C82.8109 20.5528 82.5083 21.512 82.7424 22.354C83.1335 23.7528 84.5978 24.5035 85.9195 24.5035C87.2526 24.5035 88.9054 23.7042 90.1271 21.9059C91.6971 19.5937 92.0825 16.5165 94.0664 14.8951C94.8685 14.2386 96.1416 13.8104 97.1693 14.3299C97.9971 14.7438 98.4395 16.0341 97.8486 16.7078C97.7744 16.7934 97.7773 16.9047 97.7487 17.0075C97.352 17.2301 96.9637 17.4328 96.5498 17.6926C91.6286 20.804 87.8891 25.7709 86.0993 31.2602C81.2809 46.0296 91.8627 58.9864 107.152 58.4669C107.149 58.721 107.14 58.975 107.134 59.2262C102.747 59.4803 98.1027 60.9132 95.1054 61.704C92.2195 62.4975 89.2336 63.3196 86.5218 64.9239C82.6596 67.2132 79.0372 70.7043 76.3254 74.7578C74.0018 78.1518 72.2034 80.6382 70.7933 83.7896C70.3851 84.703 69.1376 87.4776 70.9845 88.5338C73.0683 89.7299 76.2226 86.3929 74.1559 84.5946C74.02 84.4753 73.8619 84.3841 73.6906 84.3262C74.9238 81.76 76.4938 79.5648 78.6975 76.3478C81.1781 72.6397 84.4751 69.4569 87.9748 67.3788C90.5696 65.8459 93.6953 65.0495 96.8124 64.1903C98.8106 63.6222 103.329 62.3434 107.072 62.0665C106.939 66.0792 106.683 70.0869 106.307 74.0841C99.6527 79.4221 91.9198 83.4299 84.849 86.7926C83.8671 86.0932 82.8423 85.7878 81.8461 85.8934C78.7061 86.2473 77.7755 90.7946 81.5834 90.7946C82.6682 90.7946 83.7929 90.4521 84.2068 90.2551C91.1719 86.9867 98.9448 83.1245 105.901 77.9806C105.73 79.4906 105.564 80.9978 105.359 82.4965C104.2 90.9088 102.918 95.359 96.1959 99.8236C92.7048 102.144 89.2622 104.408 85.7225 106.737C67.2051 118.926 70.0996 117.199 61.9328 122.175C57.5082 124.869 53.3263 127.418 48.0825 131.318C44.9511 133.676 40.9319 136.75 39.0964 137.838C36.7785 135.654 33.3588 132.814 30.6926 131.372C29.4081 130.681 27.8666 129.962 26.1624 129.853C24.1015 129.731 22.2032 130.573 21.1955 132.071C20.1394 133.647 20.1451 135.836 21.2012 137.655C21.9862 138.996 23.2851 140.104 25.0549 140.943C26.7305 141.737 28.9199 142.008 31.0865 142.008C34.9088 142.008 38.6596 141.163 39.4161 140.872C40.8291 140.315 43.5295 138.317 47.4888 135.334C49.9865 133.59 51.1997 132.057 63.4171 124.61C66.6768 122.651 69.8937 120.622 73.0655 118.524C96.5869 102.852 97.9286 102.413 100.86 99.8178C107.46 108.125 110.449 109.86 116.84 117.993C117.982 119.443 118.219 121.43 117.459 123.182C114.633 129.724 112.53 136.554 111.188 143.552C111.147 143.766 111.156 143.986 111.213 144.196C111.271 144.406 111.375 144.599 111.519 144.763C114.67 148.351 122.358 149.995 126.528 147.001C127.604 146.23 128.281 145.385 128.601 144.414C129.086 142.956 128.581 141.337 127.402 140.561L127.405 140.558ZM112.39 67.3017C111.839 68.8803 110.68 70.2134 109.404 71.4237C109.65 68.3234 109.824 65.2177 109.926 62.1093C112.629 62.4747 113.614 63.7649 112.387 67.3046L112.39 67.3017ZM124.87 27.7862C128.178 34.4516 127.096 42.9781 122.238 48.5102C117.045 54.4306 107.277 56.8084 99.55 52.1241C93.6011 48.5217 90.5382 42.0333 90.8721 36.23C91.1148 31.9938 91.8398 28.3686 94.5745 24.4693C98.3568 19.0742 104.777 16.0912 110.177 17.2187C116.974 18.6346 122.192 22.3854 124.87 27.7862Z" fill="black"/>
<path d="M125.725 112.316C126.193 112.316 125.942 112.268 132.256 107.378C132.336 107.322 132.403 107.251 132.454 107.168C132.506 107.086 132.539 106.993 132.554 106.897C132.568 106.801 132.562 106.703 132.537 106.609C132.512 106.515 132.468 106.427 132.408 106.351C132.348 106.274 132.273 106.211 132.187 106.165C132.102 106.119 132.008 106.09 131.911 106.082C131.814 106.073 131.716 106.084 131.624 106.115C131.532 106.145 131.447 106.194 131.374 106.259L125.285 111.04C124.754 111.457 125.051 112.316 125.725 112.316ZM136.837 115.336L127.823 115.071C127.409 115.034 127.166 115.371 127.155 115.767C127.143 116.158 127.52 116.492 127.914 116.501L136.815 116.764C137.004 116.767 137.187 116.694 137.323 116.563C137.459 116.431 137.537 116.251 137.54 116.061C137.543 115.872 137.47 115.689 137.339 115.553C137.207 115.417 137.027 115.339 136.837 115.336ZM134.177 124.314L126.784 121.582C126.694 121.541 126.597 121.52 126.499 121.518C126.401 121.517 126.304 121.535 126.213 121.573C126.122 121.611 126.041 121.667 125.973 121.738C125.905 121.809 125.852 121.893 125.818 121.985C125.785 122.078 125.77 122.176 125.776 122.274C125.782 122.372 125.808 122.468 125.852 122.555C125.897 122.643 125.959 122.72 126.035 122.783C126.11 122.845 126.198 122.891 126.293 122.918C133.463 125.556 133.643 125.695 133.929 125.695C134.722 125.695 134.922 124.588 134.177 124.314ZM102.823 30.3365C103.145 30.5649 103.593 30.4935 103.819 30.1652C103.928 30.0111 103.972 29.8199 103.94 29.6337C103.908 29.4475 103.804 29.2815 103.65 29.1719C101.238 27.462 98.7635 27.716 96.0859 29.9426C96.0138 30.0026 95.9541 30.0762 95.9104 30.1592C95.8667 30.2422 95.8398 30.333 95.8311 30.4265C95.8225 30.5199 95.8324 30.6141 95.8602 30.7038C95.888 30.7934 95.9332 30.8766 95.9932 30.9488C96.0531 31.021 96.1267 31.0806 96.2098 31.1243C96.2928 31.168 96.3836 31.195 96.477 31.2036C96.5705 31.2122 96.6647 31.2023 96.7543 31.1745C96.844 31.1467 96.9272 31.1016 96.9994 31.0416C97.2563 30.8246 97.4961 30.7076 97.7444 30.5363C98.4038 32.6573 102.112 31.6382 101.213 29.6172C101.749 29.7399 102.286 29.954 102.823 30.3365ZM113.267 28.7066C113.643 28.4261 114.045 28.1814 114.466 27.9758C114.408 28.3288 114.473 28.691 114.649 29.0025C114.825 29.314 115.102 29.556 115.434 29.6885C116.345 30.071 117.586 29.68 117.98 28.8893C118.209 28.4382 118.106 27.9216 117.818 27.4991C118.274 27.6104 118.725 27.7731 119.182 28.0243C119.264 28.0714 119.355 28.1017 119.449 28.1134C119.543 28.125 119.639 28.1178 119.73 28.0922C119.821 28.0666 119.906 28.0231 119.98 27.9642C120.055 27.9053 120.116 27.8322 120.162 27.7492C120.208 27.6661 120.236 27.5749 120.246 27.4806C120.257 27.3864 120.248 27.2911 120.22 27.2004C120.193 27.1096 120.148 27.0251 120.088 26.9519C120.028 26.8788 119.954 26.8183 119.87 26.774C117.387 25.4039 114.869 25.6779 112.397 27.5733C112.322 27.6305 112.26 27.7017 112.213 27.783C112.166 27.8643 112.136 27.9541 112.124 28.0471C112.111 28.1401 112.118 28.2347 112.142 28.3253C112.166 28.4159 112.208 28.5008 112.265 28.5753C112.323 28.6497 112.394 28.7121 112.475 28.759C112.556 28.8058 112.646 28.8362 112.739 28.8484C112.832 28.8606 112.927 28.8544 113.017 28.83C113.108 28.8057 113.193 28.7637 113.267 28.7066ZM102.697 42.5739C102.565 42.4397 102.385 42.3626 102.197 42.3594C102.008 42.3562 101.826 42.4271 101.689 42.5568C101.622 42.6222 101.568 42.7002 101.531 42.7864C101.494 42.8726 101.474 42.9652 101.473 43.0591C101.471 43.153 101.488 43.2462 101.523 43.3334C101.558 43.4206 101.61 43.5001 101.675 43.5673C102.646 44.5693 103.779 45.3771 105.043 45.9737C105.215 46.0543 105.411 46.0635 105.59 45.9993C105.768 45.9351 105.913 45.8026 105.994 45.6312C106.075 45.4597 106.084 45.2632 106.02 45.0849C105.955 44.9067 105.823 44.7612 105.652 44.6806C104.548 44.1626 103.547 43.4489 102.697 42.5739Z" fill="black"/>
</svg>
