<svg width="54" height="54" viewBox="0 0 54 54" fill="none" xmlns="http://www.w3.org/2000/svg">
<mask id="path-1-outside-1_935_454" maskUnits="userSpaceOnUse" x="6.19531" y="4.09375" width="44" height="48" fill="black">
<rect fill="white" x="6.19531" y="4.09375" width="44" height="48"/>
<path fill-rule="evenodd" clip-rule="evenodd" d="M33.5276 12.5008C33.5276 15.487 31.1068 17.9078 28.1205 17.9078C25.1343 17.9078 22.7135 15.487 22.7135 12.5008C22.7135 9.51456 25.1343 7.09375 28.1205 7.09375C31.1068 7.09375 33.5276 9.51456 33.5276 12.5008ZM39.8366 28.0017V30.5247H42.9399C42.9399 29.5929 42.9613 28.73 42.9811 27.9358V27.9358L42.9811 27.9348C42.99 27.5734 42.9987 27.2263 43.0047 26.8934C43.0244 25.818 43.018 24.8826 42.9206 24.0275C42.744 22.4778 42.2689 21.1843 41.0617 19.8589C40.7071 20.082 40.2873 20.211 39.8374 20.211C38.5659 20.211 37.5351 19.1802 37.5351 17.9087C37.5351 16.6371 38.5659 15.6063 39.8374 15.6063C41.109 15.6063 42.1398 16.6371 42.1398 17.9087C42.1398 18.3681 42.0052 18.7961 41.7733 19.1554C43.1556 20.6611 43.7148 22.1643 43.9141 23.9143C44.0195 24.8389 44.0243 25.8298 44.0046 26.9116C43.9983 27.2563 43.9895 27.6096 43.9805 27.9741L43.9804 27.9763C43.9608 28.7646 43.9399 29.6052 43.9399 30.5247H44.3411C45.783 30.5247 47.0446 31.7864 47.0446 33.2282V36.8329C47.0446 38.2748 45.783 39.5364 44.3411 39.5364H43.9422C43.9421 39.5687 43.9389 39.6014 43.9324 39.6342L42.13 48.646C42.0759 48.9167 41.8124 49.0923 41.5417 49.0382C41.3035 48.9906 41.139 48.7811 41.1396 48.5471H15.1031C15.1037 48.7811 14.9392 48.9906 14.7011 49.0382C14.4303 49.0923 14.1669 48.9167 14.1127 48.646L12.3104 39.6342C12.3038 39.6014 12.3006 39.5687 12.3006 39.5364H11.8988C10.457 39.5364 9.19531 38.2748 9.19531 36.8329V33.2282C9.19531 31.7864 10.457 30.5247 11.8988 30.5247H12.2983C12.2983 29.6052 12.2774 28.7646 12.2578 27.9763L12.2578 27.9762C12.2487 27.611 12.2399 27.257 12.2336 26.9116C12.2138 25.8298 12.2187 24.8389 12.324 23.9143C12.5234 22.1641 13.0827 20.6609 14.4652 19.1549C14.2336 18.7957 14.0991 18.3679 14.0991 17.9087C14.0991 16.6371 15.1299 15.6063 16.4015 15.6063C17.673 15.6063 18.7038 16.6371 18.7038 17.9087C18.7038 19.1802 17.673 20.211 16.4015 20.211C15.9514 20.211 15.5315 20.0819 15.1768 19.8586C13.9693 21.1841 13.4942 22.4777 13.3176 24.0275C13.2202 24.8826 13.2138 25.818 13.2334 26.8934C13.2395 27.2266 13.2482 27.574 13.2571 27.9357V27.9357L13.2571 27.9358C13.2768 28.73 13.2983 29.5928 13.2983 30.5247H16.4061V28.0017C16.4061 26.3796 17.4875 24.7575 18.9294 24.0365C21.6329 22.4144 24.8771 21.5133 28.1213 21.5133C31.3655 21.6935 34.6098 22.4144 37.3133 24.0365C38.9354 24.7575 39.8366 26.3796 39.8366 28.0017ZM15.4949 18.8186C15.5224 18.8461 15.546 18.876 15.5658 18.9076C15.792 19.097 16.0834 19.211 16.4015 19.211C17.1207 19.211 17.7038 18.628 17.7038 17.9087C17.7038 17.1894 17.1207 16.6063 16.4015 16.6063C15.6822 16.6063 15.0991 17.1894 15.0991 17.9087C15.0991 18.228 15.214 18.5205 15.4047 18.747C15.4368 18.7669 15.4671 18.7907 15.4949 18.8186ZM40.7433 18.8186C40.7715 18.7903 40.8023 18.7662 40.8349 18.7461C41.0251 18.5197 41.1398 18.2276 41.1398 17.9087C41.1398 17.1894 40.5567 16.6063 39.8374 16.6063C39.1181 16.6063 38.5351 17.1894 38.5351 17.9087C38.5351 18.628 39.1181 19.211 39.8374 19.211C40.1548 19.211 40.4457 19.0975 40.6717 18.9088C40.6916 18.8767 40.7154 18.8464 40.7433 18.8186Z"/>
</mask>
<path fill-rule="evenodd" clip-rule="evenodd" d="M33.5276 12.5008C33.5276 15.487 31.1068 17.9078 28.1205 17.9078C25.1343 17.9078 22.7135 15.487 22.7135 12.5008C22.7135 9.51456 25.1343 7.09375 28.1205 7.09375C31.1068 7.09375 33.5276 9.51456 33.5276 12.5008ZM39.8366 28.0017V30.5247H42.9399C42.9399 29.5929 42.9613 28.73 42.9811 27.9358V27.9358L42.9811 27.9348C42.99 27.5734 42.9987 27.2263 43.0047 26.8934C43.0244 25.818 43.018 24.8826 42.9206 24.0275C42.744 22.4778 42.2689 21.1843 41.0617 19.8589C40.7071 20.082 40.2873 20.211 39.8374 20.211C38.5659 20.211 37.5351 19.1802 37.5351 17.9087C37.5351 16.6371 38.5659 15.6063 39.8374 15.6063C41.109 15.6063 42.1398 16.6371 42.1398 17.9087C42.1398 18.3681 42.0052 18.7961 41.7733 19.1554C43.1556 20.6611 43.7148 22.1643 43.9141 23.9143C44.0195 24.8389 44.0243 25.8298 44.0046 26.9116C43.9983 27.2563 43.9895 27.6096 43.9805 27.9741L43.9804 27.9763C43.9608 28.7646 43.9399 29.6052 43.9399 30.5247H44.3411C45.783 30.5247 47.0446 31.7864 47.0446 33.2282V36.8329C47.0446 38.2748 45.783 39.5364 44.3411 39.5364H43.9422C43.9421 39.5687 43.9389 39.6014 43.9324 39.6342L42.13 48.646C42.0759 48.9167 41.8124 49.0923 41.5417 49.0382C41.3035 48.9906 41.139 48.7811 41.1396 48.5471H15.1031C15.1037 48.7811 14.9392 48.9906 14.7011 49.0382C14.4303 49.0923 14.1669 48.9167 14.1127 48.646L12.3104 39.6342C12.3038 39.6014 12.3006 39.5687 12.3006 39.5364H11.8988C10.457 39.5364 9.19531 38.2748 9.19531 36.8329V33.2282C9.19531 31.7864 10.457 30.5247 11.8988 30.5247H12.2983C12.2983 29.6052 12.2774 28.7646 12.2578 27.9763L12.2578 27.9762C12.2487 27.611 12.2399 27.257 12.2336 26.9116C12.2138 25.8298 12.2187 24.8389 12.324 23.9143C12.5234 22.1641 13.0827 20.6609 14.4652 19.1549C14.2336 18.7957 14.0991 18.3679 14.0991 17.9087C14.0991 16.6371 15.1299 15.6063 16.4015 15.6063C17.673 15.6063 18.7038 16.6371 18.7038 17.9087C18.7038 19.1802 17.673 20.211 16.4015 20.211C15.9514 20.211 15.5315 20.0819 15.1768 19.8586C13.9693 21.1841 13.4942 22.4777 13.3176 24.0275C13.2202 24.8826 13.2138 25.818 13.2334 26.8934C13.2395 27.2266 13.2482 27.574 13.2571 27.9357V27.9357L13.2571 27.9358C13.2768 28.73 13.2983 29.5928 13.2983 30.5247H16.4061V28.0017C16.4061 26.3796 17.4875 24.7575 18.9294 24.0365C21.6329 22.4144 24.8771 21.5133 28.1213 21.5133C31.3655 21.6935 34.6098 22.4144 37.3133 24.0365C38.9354 24.7575 39.8366 26.3796 39.8366 28.0017ZM15.4949 18.8186C15.5224 18.8461 15.546 18.876 15.5658 18.9076C15.792 19.097 16.0834 19.211 16.4015 19.211C17.1207 19.211 17.7038 18.628 17.7038 17.9087C17.7038 17.1894 17.1207 16.6063 16.4015 16.6063C15.6822 16.6063 15.0991 17.1894 15.0991 17.9087C15.0991 18.228 15.214 18.5205 15.4047 18.747C15.4368 18.7669 15.4671 18.7907 15.4949 18.8186ZM40.7433 18.8186C40.7715 18.7903 40.8023 18.7662 40.8349 18.7461C41.0251 18.5197 41.1398 18.2276 41.1398 17.9087C41.1398 17.1894 40.5567 16.6063 39.8374 16.6063C39.1181 16.6063 38.5351 17.1894 38.5351 17.9087C38.5351 18.628 39.1181 19.211 39.8374 19.211C40.1548 19.211 40.4457 19.0975 40.6717 18.9088C40.6916 18.8767 40.7154 18.8464 40.7433 18.8186Z" fill="black"/>
<path d="M39.8366 30.5247H36.8366V33.5247H39.8366V30.5247ZM42.9399 30.5247V33.5247H45.9398L45.9399 30.5248L42.9399 30.5247ZM42.9811 27.9358L45.9801 28.0102L45.9811 27.973V27.9358H42.9811ZM42.9811 27.9358L39.9818 27.8676L39.9811 27.9017V27.9358H42.9811ZM42.9811 27.9348L39.982 27.8603L39.9818 27.8666L42.9811 27.9348ZM43.0047 26.8934L46.0042 26.9482L46.0042 26.9482L43.0047 26.8934ZM42.9206 24.0275L45.9013 23.6879L45.9013 23.6879L42.9206 24.0275ZM41.0617 19.8589L43.2795 17.8387L41.5891 15.9829L39.4642 17.3196L41.0617 19.8589ZM41.7733 19.1554L39.2526 17.5287L37.9957 19.4765L39.5633 21.1841L41.7733 19.1554ZM43.9141 23.9143L40.9334 24.2538L40.9334 24.2538L43.9141 23.9143ZM44.0046 26.9116L47.0041 26.9665L47.0041 26.9665L44.0046 26.9116ZM43.9805 27.9741L46.9794 28.0522L46.9795 28.0485L43.9805 27.9741ZM43.9804 27.9763L40.9814 27.8982L40.9813 27.9017L43.9804 27.9763ZM43.9399 30.5247L40.9399 30.5246L40.9398 33.5247H43.9399V30.5247ZM43.9422 39.5364V36.5364H40.9471L40.9422 39.5315L43.9422 39.5364ZM43.9324 39.6342L40.9906 39.0457L40.9906 39.0459L43.9324 39.6342ZM42.13 48.646L45.0717 49.2343L45.0718 49.2343L42.13 48.646ZM41.5417 49.0382L40.9533 51.9799L40.9533 51.9799L41.5417 49.0382ZM41.1396 48.5471L44.1396 48.5549L44.1474 45.5471H41.1396V48.5471ZM15.1031 48.5471V45.5471H12.0954L12.1031 48.5549L15.1031 48.5471ZM14.7011 49.0382L15.2894 51.9799L15.2895 51.9799L14.7011 49.0382ZM14.1127 48.646L17.0545 48.0576L17.0545 48.0576L14.1127 48.646ZM12.3104 39.6342L9.36866 40.2225L9.36866 40.2226L12.3104 39.6342ZM12.3006 39.5364L15.3006 39.5315L15.2956 36.5364H12.3006V39.5364ZM12.2983 30.5247V33.5247H15.2984L15.2983 30.5246L12.2983 30.5247ZM12.2578 27.9763L15.2569 27.9017L15.2569 27.9013L12.2578 27.9763ZM12.2578 27.9762L9.25872 28.0507L9.25873 28.0512L12.2578 27.9762ZM12.2336 26.9116L9.23411 26.9665L9.23411 26.9665L12.2336 26.9116ZM12.324 23.9143L9.34332 23.5747L9.34332 23.5747L12.324 23.9143ZM14.4652 19.1549L16.6751 21.1838L18.2426 19.4766L16.9863 17.5289L14.4652 19.1549ZM15.1768 19.8586L16.7748 17.3197L14.6498 15.9823L12.959 17.8384L15.1768 19.8586ZM13.3176 24.0275L16.2983 24.367L16.2983 24.367L13.3176 24.0275ZM13.2334 26.8934L10.2339 26.9482L10.2339 26.9482L13.2334 26.8934ZM13.2571 27.9357H16.2571V27.8985L16.2562 27.8612L13.2571 27.9357ZM13.2571 27.9357H10.2571V27.9625L10.2576 27.9893L13.2571 27.9357ZM13.2571 27.9358L10.2576 27.9893L10.2578 27.9998L10.2581 28.0102L13.2571 27.9358ZM13.2983 30.5247L10.2983 30.5248L10.2984 33.5247H13.2983V30.5247ZM16.4061 30.5247V33.5247H19.4061V30.5247H16.4061ZM18.9294 24.0365L20.271 26.7198L20.374 26.6683L20.4728 26.609L18.9294 24.0365ZM28.1213 21.5133L28.2877 18.5179L28.2046 18.5133H28.1213V21.5133ZM37.3133 24.0365L35.7698 26.609L35.9272 26.7034L36.0949 26.778L37.3133 24.0365ZM15.5658 18.9076L13.0211 20.4965L13.2738 20.9012L13.6397 21.2076L15.5658 18.9076ZM15.4949 18.8186L17.6162 16.6973L17.6162 16.6972L15.4949 18.8186ZM15.4047 18.747L13.1098 20.6791L13.4171 21.0442L13.8226 21.2959L15.4047 18.747ZM40.8349 18.7461L42.4085 21.3003L42.8203 21.0466L43.1315 20.6763L40.8349 18.7461ZM40.7433 18.8186L38.622 16.6972L38.622 16.6972L40.7433 18.8186ZM40.6717 18.9088L42.5945 21.2115L42.9658 20.9015L43.2208 20.4905L40.6717 18.9088ZM28.1205 20.9078C32.7636 20.9078 36.5276 17.1439 36.5276 12.5008H30.5276C30.5276 13.8302 29.4499 14.9078 28.1205 14.9078V20.9078ZM19.7135 12.5008C19.7135 17.1439 23.4774 20.9078 28.1205 20.9078V14.9078C26.7912 14.9078 25.7135 13.8302 25.7135 12.5008H19.7135ZM28.1205 4.09375C23.4774 4.09375 19.7135 7.85771 19.7135 12.5008H25.7135C25.7135 11.1714 26.7912 10.0938 28.1205 10.0938V4.09375ZM36.5276 12.5008C36.5276 7.85771 32.7636 4.09375 28.1205 4.09375V10.0938C29.4499 10.0938 30.5276 11.1714 30.5276 12.5008H36.5276ZM42.8366 30.5247V28.0017H36.8366V30.5247H42.8366ZM42.9399 27.5247H39.8366V33.5247H42.9399V27.5247ZM39.982 27.8614C39.9623 28.6523 39.9399 29.5504 39.9399 30.5246L45.9399 30.5248C45.9399 29.6353 45.9603 28.8078 45.9801 28.0102L39.982 27.8614ZM39.9811 27.9358V27.9358H45.9811V27.9358H39.9811ZM39.9818 27.8666L39.9818 27.8676L45.9803 28.0039L45.9803 28.0029L39.9818 27.8666ZM40.0052 26.8385C39.9994 27.1599 39.991 27.497 39.982 27.8603L45.9802 28.0092C45.9891 27.6499 45.9979 27.2927 46.0042 26.9482L40.0052 26.8385ZM39.9399 24.367C40.0135 25.0137 40.0245 25.7826 40.0052 26.8385L46.0042 26.9482C46.0243 25.8535 46.0225 24.7515 45.9013 23.6879L39.9399 24.367ZM38.8438 21.8791C39.5656 22.6715 39.8237 23.3476 39.9399 24.367L45.9013 23.6879C45.6644 21.6081 44.9722 19.6971 43.2795 17.8387L38.8438 21.8791ZM39.8374 23.211C40.8689 23.211 41.8401 22.9135 42.6591 22.3982L39.4642 17.3196C39.574 17.2505 39.7057 17.211 39.8374 17.211V23.211ZM34.5351 17.9087C34.5351 20.8371 36.909 23.211 39.8374 23.211V17.211C40.2227 17.211 40.5351 17.5234 40.5351 17.9087H34.5351ZM39.8374 12.6063C36.909 12.6063 34.5351 14.9803 34.5351 17.9087H40.5351C40.5351 18.294 40.2227 18.6063 39.8374 18.6063V12.6063ZM45.1398 17.9087C45.1398 14.9803 42.7658 12.6063 39.8374 12.6063V18.6063C39.4521 18.6063 39.1398 18.294 39.1398 17.9087H45.1398ZM44.2941 20.782C44.8294 19.9525 45.1398 18.9623 45.1398 17.9087H39.1398C39.1398 17.7739 39.181 17.6397 39.2526 17.5287L44.2941 20.782ZM46.8949 23.5747C46.634 21.2848 45.8524 19.1627 43.9834 17.1266L39.5633 21.1841C40.4588 22.1596 40.7956 23.0438 40.9334 24.2538L46.8949 23.5747ZM47.0041 26.9665C47.0242 25.8649 47.0239 24.7077 46.8949 23.5747L40.9334 24.2538C41.015 24.9702 41.0245 25.7947 41.0051 26.8568L47.0041 26.9665ZM46.9795 28.0485C46.9885 27.6859 46.9976 27.3227 47.0041 26.9665L41.0051 26.8568C40.999 27.19 40.9905 27.5333 40.9814 27.8996L46.9795 28.0485ZM46.9794 28.0544L46.9794 28.0522L40.9815 27.896L40.9814 27.8982L46.9794 28.0544ZM46.9399 30.5248C46.9399 29.6476 46.9598 28.8422 46.9795 28.0508L40.9813 27.9017C40.9618 28.687 40.9399 29.5628 40.9399 30.5246L46.9399 30.5248ZM44.3411 27.5247H43.9399V33.5247H44.3411V27.5247ZM50.0446 33.2282C50.0446 30.1295 47.4398 27.5247 44.3411 27.5247V33.5247C44.1793 33.5247 44.1145 33.4593 44.1122 33.4571C44.11 33.4549 44.0446 33.39 44.0446 33.2282H50.0446ZM50.0446 36.8329V33.2282H44.0446V36.8329H50.0446ZM44.3411 42.5364C47.4398 42.5364 50.0446 39.9317 50.0446 36.8329H44.0446C44.0446 36.6711 44.11 36.6063 44.1122 36.6041C44.1145 36.6018 44.1793 36.5364 44.3411 36.5364V42.5364ZM43.9422 42.5364H44.3411V36.5364H43.9422V42.5364ZM46.8741 40.2227C46.9193 39.9967 46.9418 39.7685 46.9422 39.5414L40.9422 39.5315C40.9424 39.3688 40.9586 39.2061 40.9906 39.0457L46.8741 40.2227ZM45.0718 49.2343L46.8741 40.2226L40.9906 39.0459L39.1883 48.0576L45.0718 49.2343ZM40.9533 51.9799C42.8488 52.359 44.6927 51.1298 45.0717 49.2343L39.1883 48.0576C39.4591 46.7037 40.7761 45.8257 42.13 46.0964L40.9533 51.9799ZM38.1396 48.5394C38.1354 50.1787 39.2831 51.6459 40.9533 51.9799L42.13 46.0964C43.3239 46.3352 44.1426 47.3836 44.1396 48.5549L38.1396 48.5394ZM41.1396 45.5471H15.1031V51.5471H41.1396V45.5471ZM15.2895 51.9799C16.9596 51.6459 18.1074 50.1787 18.1031 48.5394L12.1031 48.5549C12.1001 47.3836 12.9188 46.3352 14.1127 46.0964L15.2895 51.9799ZM11.171 49.2343C11.5501 51.1298 13.394 52.359 15.2894 51.9799L14.1128 46.0964C15.4666 45.8257 16.7837 46.7037 17.0545 48.0576L11.171 49.2343ZM9.36866 40.2226L11.171 49.2343L17.0545 48.0576L15.2521 39.0459L9.36866 40.2226ZM9.3006 39.5414C9.30097 39.7685 9.32347 39.9966 9.36866 40.2225L15.2521 39.0459C15.2842 39.2062 15.3003 39.3689 15.3006 39.5315L9.3006 39.5414ZM11.8988 42.5364H12.3006V36.5364H11.8988V42.5364ZM6.19531 36.8329C6.19531 39.9317 8.8001 42.5364 11.8988 42.5364V36.5364C12.0606 36.5364 12.1255 36.6018 12.1277 36.6041C12.1299 36.6063 12.1953 36.6711 12.1953 36.8329H6.19531ZM6.19531 33.2282V36.8329H12.1953V33.2282H6.19531ZM11.8988 27.5247C8.8001 27.5247 6.19531 30.1295 6.19531 33.2282H12.1953C12.1953 33.39 12.1299 33.4549 12.1277 33.4571C12.1255 33.4593 12.0606 33.5247 11.8988 33.5247V27.5247ZM12.2983 27.5247H11.8988V33.5247H12.2983V27.5247ZM9.25872 28.0508C9.27838 28.8422 9.29827 29.6476 9.2983 30.5248L15.2983 30.5246C15.2983 29.5628 15.2764 28.687 15.2569 27.9017L9.25872 28.0508ZM9.25873 28.0512L9.25873 28.0512L15.2569 27.9013L15.2569 27.9012L9.25873 28.0512ZM9.23411 26.9665C9.24063 27.3234 9.24969 27.6874 9.25872 28.0507L15.2569 27.9017C15.2477 27.5346 15.2392 27.1906 15.2331 26.8568L9.23411 26.9665ZM9.34332 23.5747C9.21425 24.7076 9.21398 25.8649 9.23411 26.9665L15.2331 26.8568C15.2137 25.7947 15.2232 24.9702 15.3048 24.2538L9.34332 23.5747ZM12.2553 17.126C10.3859 19.1623 9.60423 21.2845 9.34332 23.5747L15.3048 24.2538C15.4426 23.0437 15.7794 22.1595 16.6751 21.1838L12.2553 17.126ZM11.0991 17.9087C11.0991 18.9618 11.4092 19.9517 11.9441 20.781L16.9863 17.5289C17.0579 17.6398 17.0991 17.774 17.0991 17.9087H11.0991ZM16.4015 12.6063C13.4731 12.6063 11.0991 14.9803 11.0991 17.9087H17.0991C17.0991 18.294 16.7868 18.6063 16.4015 18.6063V12.6063ZM21.7038 17.9087C21.7038 14.9803 19.3299 12.6063 16.4015 12.6063V18.6063C16.0162 18.6063 15.7038 18.294 15.7038 17.9087H21.7038ZM16.4015 23.211C19.3299 23.211 21.7038 20.8371 21.7038 17.9087H15.7038C15.7038 17.5234 16.0162 17.211 16.4015 17.211V23.211ZM13.5788 22.3976C14.398 22.9132 15.3695 23.211 16.4015 23.211V17.211C16.5332 17.211 16.665 17.2506 16.7748 17.3197L13.5788 22.3976ZM16.2983 24.367C16.4145 23.3475 16.6726 22.6714 17.3945 21.8789L12.959 17.8384C11.2661 19.6968 10.5739 21.6079 10.3369 23.6879L16.2983 24.367ZM16.2329 26.8385C16.2136 25.7826 16.2247 25.0137 16.2983 24.367L10.3369 23.6879C10.2157 24.7515 10.2139 25.8535 10.2339 26.9482L16.2329 26.8385ZM16.2562 27.8612C16.2472 27.4976 16.2388 27.1602 16.2329 26.8385L10.2339 26.9482C10.2402 27.293 10.2491 27.6505 10.2581 28.0101L16.2562 27.8612ZM16.2571 27.9357V27.9357H10.2571V27.9357H16.2571ZM16.2567 27.8822L16.2567 27.8821L10.2576 27.9893L10.2576 27.9893L16.2567 27.8822ZM16.2983 30.5246C16.2983 29.5504 16.2758 28.6523 16.2562 27.8613L10.2581 28.0102C10.2779 28.8077 10.2983 29.6353 10.2983 30.5248L16.2983 30.5246ZM16.4061 27.5247H13.2983V33.5247H16.4061V27.5247ZM13.4061 28.0017V30.5247H19.4061V28.0017H13.4061ZM17.5877 21.3533C15.2123 22.541 13.4061 25.1535 13.4061 28.0017H19.4061C19.4061 27.6057 19.7626 26.974 20.271 26.7198L17.5877 21.3533ZM28.1213 18.5133C24.3396 18.5133 20.561 19.559 17.3859 21.4641L20.4728 26.609C22.7048 25.2699 25.4146 24.5133 28.1213 24.5133V18.5133ZM38.8568 21.4641C35.5974 19.5084 31.8274 18.7145 28.2877 18.5179L27.9549 24.5086C30.9037 24.6725 33.6222 25.3205 35.7698 26.609L38.8568 21.4641ZM42.8366 28.0017C42.8366 25.3227 41.3501 22.5477 38.5317 21.2951L36.0949 26.778C36.5207 26.9673 36.8366 27.4365 36.8366 28.0017H42.8366ZM18.1105 17.3188C17.9711 17.0955 17.8057 16.8867 17.6162 16.6973L13.3736 20.9399C13.2391 20.8054 13.121 20.6565 13.0211 20.4965L18.1105 17.3188ZM16.4015 16.211C16.8135 16.211 17.1983 16.3617 17.4919 16.6076L13.6397 21.2076C14.3856 21.8323 15.3532 22.211 16.4015 22.211V16.211ZM14.7038 17.9087C14.7038 16.9711 15.4639 16.211 16.4015 16.211V22.211C18.7776 22.211 20.7038 20.2848 20.7038 17.9087H14.7038ZM16.4015 19.6063C15.4639 19.6063 14.7038 18.8463 14.7038 17.9087H20.7038C20.7038 15.5326 18.7776 13.6063 16.4015 13.6063V19.6063ZM18.0991 17.9087C18.0991 18.8463 17.339 19.6063 16.4015 19.6063V13.6063C14.0253 13.6063 12.0991 15.5326 12.0991 17.9087H18.0991ZM17.6997 16.8148C17.9473 17.1089 18.0991 17.495 18.0991 17.9087H12.0991C12.0991 18.961 12.4808 19.932 13.1098 20.6791L17.6997 16.8148ZM17.6162 16.6972C17.4245 16.5055 17.2131 16.3385 16.9869 16.1981L13.8226 21.2959C13.6605 21.1953 13.5096 21.0759 13.3736 20.9399L17.6162 16.6972ZM39.2612 16.192C39.0317 16.3334 38.8168 16.5024 38.622 16.6972L42.8646 20.9399C42.7262 21.0783 42.5729 21.199 42.4085 21.3003L39.2612 16.192ZM38.1398 17.9087C38.1398 17.4955 38.2912 17.1099 38.5383 16.8159L43.1315 20.6763C43.7591 19.9295 44.1398 18.9597 44.1398 17.9087H38.1398ZM39.8374 19.6063C38.8998 19.6063 38.1398 18.8463 38.1398 17.9087H44.1398C44.1398 15.5326 42.2135 13.6063 39.8374 13.6063V19.6063ZM41.5351 17.9087C41.5351 18.8463 40.775 19.6063 39.8374 19.6063V13.6063C37.4613 13.6063 35.5351 15.5326 35.5351 17.9087H41.5351ZM39.8374 16.211C40.775 16.211 41.5351 16.9711 41.5351 17.9087H35.5351C35.5351 20.2848 37.4613 22.211 39.8374 22.211V16.211ZM38.7488 16.6061C39.0422 16.361 39.4262 16.211 39.8374 16.211V22.211C40.8834 22.211 41.8492 21.8339 42.5945 21.2115L38.7488 16.6061ZM38.622 16.6972C38.4301 16.8891 38.2629 17.1008 38.1225 17.3271L43.2208 20.4905C43.1202 20.6527 43.0008 20.8037 42.8646 20.9399L38.622 16.6972Z" fill="black" mask="url(#path-1-outside-1_935_454)"/>
<mask id="path-3-outside-2_935_454" maskUnits="userSpaceOnUse" x="6.14844" y="4.04883" width="42" height="46" fill="black">
<rect fill="white" x="6.14844" y="4.04883" width="42" height="46"/>
<path fill-rule="evenodd" clip-rule="evenodd" d="M32.4807 11.4559C32.4807 14.4421 30.0599 16.8629 27.0736 16.8629C24.0874 16.8629 21.6666 14.4421 21.6666 11.4559C21.6666 8.46964 24.0874 6.04883 27.0736 6.04883C30.0599 6.04883 32.4807 8.46964 32.4807 11.4559ZM38.7897 26.9568V29.4798H41.8927C41.8927 28.5487 41.9141 27.6865 41.9338 26.8928V26.8927V26.8926V26.8925V26.8924L41.9338 26.8915C41.9428 26.5301 41.9514 26.183 41.9575 25.85C41.9772 24.7747 41.9708 23.8393 41.8733 22.9841C41.6968 21.4345 41.2217 20.1409 40.0144 18.8156C39.6598 19.0387 39.2401 19.1677 38.7902 19.1677C37.5186 19.1677 36.4878 18.1369 36.4878 16.8654C36.4878 15.5938 37.5186 14.563 38.7902 14.563C40.0617 14.563 41.0925 15.5938 41.0925 16.8654C41.0925 17.3248 40.958 17.7527 40.7261 18.112C42.1084 19.6178 42.6675 21.1209 42.8669 22.8709C42.9722 23.7956 42.9771 24.7864 42.9573 25.8683C42.951 26.2137 42.9422 26.5677 42.9332 26.9329C42.9136 27.7208 42.8927 28.5609 42.8927 29.4798H43.2942C44.7361 29.4798 45.9977 30.7414 45.9977 32.1833V35.788C45.9977 37.2299 44.7361 38.4915 43.2942 38.4915H42.8953C42.8952 38.5238 42.892 38.5565 42.8855 38.5893L41.0831 47.601C41.029 47.8718 40.7656 48.0474 40.4948 47.9933C40.2556 47.9454 40.0906 47.7343 40.0928 47.499H14.0562C14.0584 47.7343 13.8934 47.9454 13.6542 47.9933C13.3834 48.0474 13.12 47.8718 13.0659 47.601L11.2635 38.5893C11.257 38.5565 11.2538 38.5238 11.2537 38.4915H10.852C9.41008 38.4915 8.14844 37.2299 8.14844 35.788V32.1833C8.14844 30.7414 9.41008 29.4798 10.852 29.4798H11.2511C11.251 28.561 11.2301 27.7208 11.2106 26.933L11.2106 26.933L11.2106 26.9329C11.2015 26.5677 11.1927 26.2137 11.1864 25.8683C11.1666 24.7864 11.1715 23.7956 11.2768 22.8709C11.4762 21.1208 12.0354 19.6175 13.418 18.1116C13.1863 17.7524 13.0519 17.3246 13.0519 16.8654C13.0519 15.5938 14.0827 14.563 15.3542 14.563C16.6258 14.563 17.6566 15.5938 17.6566 16.8654C17.6566 18.1369 16.6258 19.1677 15.3542 19.1677C14.9041 19.1677 14.4842 19.0386 14.1295 18.8153C12.9221 20.1408 12.4469 21.4344 12.2704 22.9841C12.1729 23.8393 12.1666 24.7747 12.1862 25.85C12.1923 26.1833 12.2009 26.5307 12.2099 26.8924L12.2099 26.8924V26.8925C12.2296 27.6862 12.251 28.5485 12.2511 29.4798H15.3592V26.9568C15.3592 25.3347 16.4406 23.7126 17.8825 22.9916C20.586 21.3695 23.8302 20.4683 27.0745 20.4683C30.3187 20.6486 33.5629 21.3695 36.2664 22.9916C37.8885 23.7126 38.7897 25.3347 38.7897 26.9568ZM14.4477 17.7752C14.4752 17.8027 14.4988 17.8326 14.5186 17.8643C14.7447 18.0537 15.0362 18.1677 15.3542 18.1677C16.0735 18.1677 16.6566 17.5846 16.6566 16.8654C16.6566 16.1461 16.0735 15.563 15.3542 15.563C14.635 15.563 14.0519 16.1461 14.0519 16.8654C14.0519 17.1847 14.1668 17.4771 14.3575 17.7036C14.3895 17.7235 14.4198 17.7474 14.4477 17.7752ZM39.696 17.7752C39.7243 17.747 39.7551 17.7228 39.7876 17.7028C39.9779 17.4764 40.0925 17.1842 40.0925 16.8654C40.0925 16.1461 39.5094 15.563 38.7902 15.563C38.0709 15.563 37.4878 16.1461 37.4878 16.8654C37.4878 17.5846 38.0709 18.1677 38.7902 18.1677C39.1076 18.1677 39.3985 18.0542 39.6244 17.8655C39.6443 17.8334 39.6682 17.8031 39.696 17.7752Z"/>
</mask>
<path fill-rule="evenodd" clip-rule="evenodd" d="M32.4807 11.4559C32.4807 14.4421 30.0599 16.8629 27.0736 16.8629C24.0874 16.8629 21.6666 14.4421 21.6666 11.4559C21.6666 8.46964 24.0874 6.04883 27.0736 6.04883C30.0599 6.04883 32.4807 8.46964 32.4807 11.4559ZM38.7897 26.9568V29.4798H41.8927C41.8927 28.5487 41.9141 27.6865 41.9338 26.8928V26.8927V26.8926V26.8925V26.8924L41.9338 26.8915C41.9428 26.5301 41.9514 26.183 41.9575 25.85C41.9772 24.7747 41.9708 23.8393 41.8733 22.9841C41.6968 21.4345 41.2217 20.1409 40.0144 18.8156C39.6598 19.0387 39.2401 19.1677 38.7902 19.1677C37.5186 19.1677 36.4878 18.1369 36.4878 16.8654C36.4878 15.5938 37.5186 14.563 38.7902 14.563C40.0617 14.563 41.0925 15.5938 41.0925 16.8654C41.0925 17.3248 40.958 17.7527 40.7261 18.112C42.1084 19.6178 42.6675 21.1209 42.8669 22.8709C42.9722 23.7956 42.9771 24.7864 42.9573 25.8683C42.951 26.2137 42.9422 26.5677 42.9332 26.9329C42.9136 27.7208 42.8927 28.5609 42.8927 29.4798H43.2942C44.7361 29.4798 45.9977 30.7414 45.9977 32.1833V35.788C45.9977 37.2299 44.7361 38.4915 43.2942 38.4915H42.8953C42.8952 38.5238 42.892 38.5565 42.8855 38.5893L41.0831 47.601C41.029 47.8718 40.7656 48.0474 40.4948 47.9933C40.2556 47.9454 40.0906 47.7343 40.0928 47.499H14.0562C14.0584 47.7343 13.8934 47.9454 13.6542 47.9933C13.3834 48.0474 13.12 47.8718 13.0659 47.601L11.2635 38.5893C11.257 38.5565 11.2538 38.5238 11.2537 38.4915H10.852C9.41008 38.4915 8.14844 37.2299 8.14844 35.788V32.1833C8.14844 30.7414 9.41008 29.4798 10.852 29.4798H11.2511C11.251 28.561 11.2301 27.7208 11.2106 26.933L11.2106 26.933L11.2106 26.9329C11.2015 26.5677 11.1927 26.2137 11.1864 25.8683C11.1666 24.7864 11.1715 23.7956 11.2768 22.8709C11.4762 21.1208 12.0354 19.6175 13.418 18.1116C13.1863 17.7524 13.0519 17.3246 13.0519 16.8654C13.0519 15.5938 14.0827 14.563 15.3542 14.563C16.6258 14.563 17.6566 15.5938 17.6566 16.8654C17.6566 18.1369 16.6258 19.1677 15.3542 19.1677C14.9041 19.1677 14.4842 19.0386 14.1295 18.8153C12.9221 20.1408 12.4469 21.4344 12.2704 22.9841C12.1729 23.8393 12.1666 24.7747 12.1862 25.85C12.1923 26.1833 12.2009 26.5307 12.2099 26.8924L12.2099 26.8924V26.8925C12.2296 27.6862 12.251 28.5485 12.2511 29.4798H15.3592V26.9568C15.3592 25.3347 16.4406 23.7126 17.8825 22.9916C20.586 21.3695 23.8302 20.4683 27.0745 20.4683C30.3187 20.6486 33.5629 21.3695 36.2664 22.9916C37.8885 23.7126 38.7897 25.3347 38.7897 26.9568ZM14.4477 17.7752C14.4752 17.8027 14.4988 17.8326 14.5186 17.8643C14.7447 18.0537 15.0362 18.1677 15.3542 18.1677C16.0735 18.1677 16.6566 17.5846 16.6566 16.8654C16.6566 16.1461 16.0735 15.563 15.3542 15.563C14.635 15.563 14.0519 16.1461 14.0519 16.8654C14.0519 17.1847 14.1668 17.4771 14.3575 17.7036C14.3895 17.7235 14.4198 17.7474 14.4477 17.7752ZM39.696 17.7752C39.7243 17.747 39.7551 17.7228 39.7876 17.7028C39.9779 17.4764 40.0925 17.1842 40.0925 16.8654C40.0925 16.1461 39.5094 15.563 38.7902 15.563C38.0709 15.563 37.4878 16.1461 37.4878 16.8654C37.4878 17.5846 38.0709 18.1677 38.7902 18.1677C39.1076 18.1677 39.3985 18.0542 39.6244 17.8655C39.6443 17.8334 39.6682 17.8031 39.696 17.7752Z" fill="#BFD0B3"/>
<path d="M38.7897 29.4798H36.7897V31.4798H38.7897V29.4798ZM41.8927 29.4798V31.4798H43.8925L43.8927 29.4799L41.8927 29.4798ZM41.9338 26.8928L43.9332 26.9425L43.9338 26.9176V26.8928H41.9338ZM41.9338 26.8924L39.9344 26.8448L39.9338 26.8686V26.8924H41.9338ZM41.9338 26.8915L39.9345 26.8419L39.9344 26.8439L41.9338 26.8915ZM41.9575 25.85L43.9572 25.8866L43.9572 25.8866L41.9575 25.85ZM41.8733 22.9841L43.8605 22.7578L43.8605 22.7577L41.8733 22.9841ZM40.0144 18.8156L41.493 17.4688L40.366 16.2316L38.9495 17.1227L40.0144 18.8156ZM40.7261 18.112L39.0456 17.0276L38.2077 18.3261L39.2528 19.4646L40.7261 18.112ZM42.8669 22.8709L40.8798 23.0973L40.8798 23.0973L42.8669 22.8709ZM42.9573 25.8683L44.957 25.9049L44.957 25.9048L42.9573 25.8683ZM42.9332 26.9329L44.9325 26.9826L44.9325 26.9826L42.9332 26.9329ZM42.8927 29.4798L40.8927 29.4797L40.8925 31.4798H42.8927V29.4798ZM42.8953 38.4915V36.4915H40.8986L40.8953 38.4882L42.8953 38.4915ZM42.8855 38.5893L40.9243 38.197L40.9243 38.1971L42.8855 38.5893ZM41.0831 47.601L39.122 47.2088L39.122 47.2088L41.0831 47.601ZM40.4948 47.9933L40.1025 49.9544L40.1026 49.9544L40.4948 47.9933ZM40.0928 47.499L42.0927 47.517L42.1108 45.499H40.0928V47.499ZM14.0562 47.499V45.499H12.0382L12.0563 47.517L14.0562 47.499ZM13.6542 47.9933L14.0464 49.9544L14.0465 49.9544L13.6542 47.9933ZM13.0659 47.601L15.027 47.2088L15.027 47.2088L13.0659 47.601ZM11.2635 38.5893L9.30236 38.9815L9.30236 38.9815L11.2635 38.5893ZM11.2537 38.4915L13.2537 38.4882L13.2504 36.4915H11.2537V38.4915ZM11.2511 29.4798V31.4798H13.2512L13.2511 29.4797L11.2511 29.4798ZM11.2106 26.933L13.21 26.8833L13.2096 26.8705L11.2106 26.933ZM11.2106 26.933L9.21131 26.9885L9.21153 26.9954L11.2106 26.933ZM11.2106 26.9329L9.21116 26.9826L9.21132 26.9885L11.2106 26.9329ZM11.1864 25.8683L9.1867 25.9048L9.1867 25.9048L11.1864 25.8683ZM11.2768 22.8709L13.2639 23.0973L13.2639 23.0973L11.2768 22.8709ZM13.418 18.1116L14.8913 19.4642L15.9362 18.326L15.0987 17.0276L13.418 18.1116ZM14.1295 18.8153L15.1949 17.1227L13.7782 16.2311L12.651 17.4685L14.1295 18.8153ZM12.2704 22.9841L10.2832 22.7577L10.2832 22.7577L12.2704 22.9841ZM12.1862 25.85L10.1865 25.8866L10.1865 25.8866L12.1862 25.85ZM12.2099 26.8924L10.2105 26.942L10.2109 26.9589L10.2116 26.9757L12.2099 26.8924ZM12.2099 26.8924H14.2099V26.8508L14.2082 26.8092L12.2099 26.8924ZM12.2099 26.8925H10.2099V26.9173L10.2105 26.9421L12.2099 26.8925ZM12.2511 29.4798L10.2511 29.4799L10.2512 31.4798H12.2511V29.4798ZM15.3592 29.4798V31.4798H17.3592V29.4798H15.3592ZM17.8825 22.9916L18.7769 24.7805L18.8456 24.7461L18.9115 24.7066L17.8825 22.9916ZM27.0745 20.4683L27.1854 18.4714L27.13 18.4683H27.0745V20.4683ZM36.2664 22.9916L35.2374 24.7066L35.3423 24.7696L35.4541 24.8192L36.2664 22.9916ZM14.5186 17.8643L12.8221 18.9235L12.9906 19.1934L13.2345 19.3976L14.5186 17.8643ZM14.3575 17.7036L12.8275 18.9917L13.0324 19.2351L13.3028 19.4029L14.3575 17.7036ZM39.7876 17.7028L40.8367 19.4056L41.1113 19.2364L41.3187 18.9895L39.7876 17.7028ZM39.696 17.7752L38.2819 16.361L38.2818 16.361L39.696 17.7752ZM39.6244 17.8655L40.9063 19.4006L41.1539 19.1939L41.3239 18.9199L39.6244 17.8655ZM27.0736 18.8629C31.1644 18.8629 34.4807 15.5467 34.4807 11.4559H30.4807C30.4807 13.3375 28.9553 14.8629 27.0736 14.8629V18.8629ZM19.6666 11.4559C19.6666 15.5467 22.9829 18.8629 27.0736 18.8629V14.8629C25.192 14.8629 23.6666 13.3375 23.6666 11.4559H19.6666ZM27.0736 4.04883C22.9829 4.04883 19.6666 7.36507 19.6666 11.4559H23.6666C23.6666 9.57421 25.192 8.04883 27.0736 8.04883V4.04883ZM34.4807 11.4559C34.4807 7.36507 31.1644 4.04883 27.0736 4.04883V8.04883C28.9553 8.04883 30.4807 9.57421 30.4807 11.4559H34.4807ZM40.7897 29.4798V26.9568H36.7897V29.4798H40.7897ZM41.8927 27.4798H38.7897V31.4798H41.8927V27.4798ZM39.9344 26.8432C39.9148 27.6347 39.8927 28.5203 39.8927 29.4797L43.8927 29.4799C43.8927 28.577 43.9134 27.7383 43.9332 26.9425L39.9344 26.8432ZM39.9338 26.8927V26.8928H43.9338V26.8927H39.9338ZM39.9338 26.8926V26.8927H43.9338V26.8926H39.9338ZM39.9338 26.8925V26.8926H43.9338V26.8925H39.9338ZM39.9338 26.8924V26.8925H43.9338V26.8924H39.9338ZM39.9344 26.8439L39.9344 26.8448L43.9332 26.94L43.9333 26.9391L39.9344 26.8439ZM39.9578 25.8135C39.9519 26.1387 39.9435 26.4792 39.9345 26.8419L43.9332 26.9411C43.9422 26.5811 43.9509 26.2273 43.9572 25.8866L39.9578 25.8135ZM39.8862 23.2105C39.9678 23.9267 39.9773 24.7511 39.9578 25.8135L43.9572 25.8866C43.9771 24.7983 43.9737 23.7519 43.8605 22.7578L39.8862 23.2105ZM38.5359 20.1624C39.4194 21.1324 39.7499 22.0143 39.8862 23.2105L43.8605 22.7577C43.6437 20.8547 43.0239 19.1495 41.493 17.4688L38.5359 20.1624ZM38.7902 21.1677C39.6278 21.1677 40.4152 20.9263 41.0794 20.5085L38.9495 17.1227C38.9045 17.151 38.8523 17.1677 38.7902 17.1677V21.1677ZM34.4878 16.8654C34.4878 19.2415 36.4141 21.1677 38.7902 21.1677V17.1677C38.6232 17.1677 38.4878 17.0323 38.4878 16.8654H34.4878ZM38.7902 12.563C36.4141 12.563 34.4878 14.4892 34.4878 16.8654H38.4878C38.4878 16.6984 38.6232 16.563 38.7902 16.563V12.563ZM43.0925 16.8654C43.0925 14.4892 41.1663 12.563 38.7902 12.563V16.563C38.9572 16.563 39.0925 16.6984 39.0925 16.8654H43.0925ZM42.4066 19.1965C42.8407 18.5237 43.0925 17.7209 43.0925 16.8654H39.0925C39.0925 16.9287 39.0752 16.9818 39.0456 17.0276L42.4066 19.1965ZM44.8541 22.6446C44.6137 20.5346 43.9063 18.6188 42.1995 16.7595L39.2528 19.4646C40.3105 20.6168 40.7214 21.7073 40.8798 23.0973L44.8541 22.6446ZM44.957 25.9048C44.977 24.8098 44.9752 23.7081 44.8541 22.6446L40.8798 23.0973C40.9693 23.8831 40.9772 24.7631 40.9577 25.8318L44.957 25.9048ZM44.9325 26.9826C44.9416 26.6186 44.9506 26.258 44.957 25.9049L40.9577 25.8318C40.9515 26.1694 40.9429 26.5168 40.9338 26.8832L44.9325 26.9826ZM44.8927 29.4799C44.8927 28.5892 44.9129 27.7725 44.9325 26.9826L40.9338 26.8832C40.9143 27.669 40.8927 28.5326 40.8927 29.4797L44.8927 29.4799ZM43.2942 27.4798H42.8927V31.4798H43.2942V27.4798ZM47.9977 32.1833C47.9977 29.6369 45.8407 27.4798 43.2942 27.4798V31.4798C43.6315 31.4798 43.9977 31.846 43.9977 32.1833H47.9977ZM47.9977 35.788V32.1833H43.9977V35.788H47.9977ZM43.2942 40.4915C45.8407 40.4915 47.9977 38.3345 47.9977 35.788H43.9977C43.9977 36.1253 43.6315 36.4915 43.2942 36.4915V40.4915ZM42.8953 40.4915H43.2942V36.4915H42.8953V40.4915ZM44.8466 38.9816C44.8789 38.82 44.895 38.657 44.8953 38.4948L40.8953 38.4882C40.8954 38.3905 40.9051 38.2929 40.9243 38.197L44.8466 38.9816ZM43.0443 47.9933L44.8466 38.9815L40.9243 38.1971L39.122 47.2088L43.0443 47.9933ZM40.1026 49.9544C41.4564 50.2252 42.7735 49.3472 43.0443 47.9932L39.122 47.2088C39.2844 46.3964 40.0747 45.8696 40.887 46.0321L40.1026 49.9544ZM38.0928 47.4811C38.0823 48.6585 38.9044 49.7148 40.1025 49.9544L40.887 46.0321C41.6068 46.1761 42.099 46.8101 42.0927 47.517L38.0928 47.4811ZM40.0928 45.499H14.0562V49.499H40.0928V45.499ZM14.0465 49.9544C15.2446 49.7148 16.0667 48.6585 16.0562 47.4811L12.0563 47.517C12.05 46.8101 12.5422 46.1761 13.262 46.0321L14.0465 49.9544ZM11.1047 47.9933C11.3755 49.3472 12.6926 50.2252 14.0464 49.9544L13.262 46.0321C14.0743 45.8696 14.8646 46.3964 15.027 47.2088L11.1047 47.9933ZM9.30236 38.9815L11.1047 47.9933L15.027 47.2088L13.2247 38.1971L9.30236 38.9815ZM9.25372 38.4948C9.25399 38.657 9.27005 38.82 9.30236 38.9815L13.2247 38.1971C13.2439 38.293 13.2536 38.3906 13.2537 38.4882L9.25372 38.4948ZM10.852 40.4915H11.2537V36.4915H10.852V40.4915ZM6.14844 35.788C6.14844 38.3345 8.30551 40.4915 10.852 40.4915V36.4915C10.5146 36.4915 10.1484 36.1253 10.1484 35.788H6.14844ZM6.14844 32.1833V35.788H10.1484V32.1833H6.14844ZM10.852 27.4798C8.30551 27.4798 6.14844 29.6369 6.14844 32.1833H10.1484C10.1484 31.846 10.5147 31.4798 10.852 31.4798V27.4798ZM11.2511 27.4798H10.852V31.4798H11.2511V27.4798ZM9.21117 26.9827C9.2308 27.7726 9.251 28.5893 9.25106 29.4799L13.2511 29.4797C13.251 28.5326 13.2295 27.6691 13.2099 26.8833L9.21117 26.9827ZM9.21153 26.9954L9.21153 26.9955L13.2096 26.8705L13.2096 26.8705L9.21153 26.9954ZM9.21132 26.9885L9.21133 26.9885L13.2098 26.8774L13.2098 26.8774L9.21132 26.9885ZM9.1867 25.9048C9.19316 26.258 9.20213 26.6186 9.21117 26.9826L13.2099 26.8832C13.2008 26.5167 13.1922 26.1694 13.186 25.8318L9.1867 25.9048ZM9.28966 22.6446C9.1685 23.7081 9.16669 24.8098 9.1867 25.9048L13.186 25.8318C13.1665 24.7631 13.1744 23.8831 13.2639 23.0973L9.28966 22.6446ZM11.9447 16.759C10.2376 18.6185 9.53006 20.5344 9.28966 22.6446L13.2639 23.0973C13.4223 21.7071 13.8333 20.6166 14.8913 19.4642L11.9447 16.759ZM11.0519 16.8654C11.0519 17.7205 11.3034 18.523 11.7373 19.1956L15.0987 17.0276C15.0692 16.9818 15.0519 16.9286 15.0519 16.8654H11.0519ZM15.3542 12.563C12.9781 12.563 11.0519 14.4892 11.0519 16.8654H15.0519C15.0519 16.6984 15.1872 16.563 15.3542 16.563V12.563ZM19.6566 16.8654C19.6566 14.4892 17.7303 12.563 15.3542 12.563V16.563C15.5212 16.563 15.6566 16.6984 15.6566 16.8654H19.6566ZM15.3542 21.1677C17.7303 21.1677 19.6566 19.2415 19.6566 16.8654H15.6566C15.6566 17.0323 15.5212 17.1677 15.3542 17.1677V21.1677ZM13.0642 20.508C13.7286 20.9261 14.5162 21.1677 15.3542 21.1677V17.1677C15.292 17.1677 15.2399 17.151 15.1949 17.1227L13.0642 20.508ZM14.2575 23.2105C14.3938 22.0142 14.7243 21.1323 15.608 20.1622L12.651 17.4685C11.1199 19.1492 10.5001 20.8545 10.2832 22.7577L14.2575 23.2105ZM14.1859 25.8135C14.1665 24.7511 14.1759 23.9267 14.2575 23.2105L10.2832 22.7577C10.17 23.7519 10.1666 24.7983 10.1865 25.8866L14.1859 25.8135ZM14.2093 26.8428C14.2003 26.4798 14.1918 26.139 14.1859 25.8135L10.1865 25.8866C10.1928 26.2276 10.2016 26.5817 10.2105 26.942L14.2093 26.8428ZM14.2082 26.8092L14.2082 26.8091L10.2116 26.9757L10.2116 26.9757L14.2082 26.8092ZM14.2099 26.8925V26.8924H10.2099V26.8925H14.2099ZM14.2511 29.4797C14.251 28.5202 14.2289 27.6344 14.2093 26.8428L10.2105 26.9421C10.2303 27.7381 10.251 28.5769 10.2511 29.4799L14.2511 29.4797ZM15.3592 27.4798H12.2511V31.4798H15.3592V27.4798ZM13.3592 26.9568V29.4798H17.3592V26.9568H13.3592ZM16.9881 21.2028C14.9238 22.2349 13.3592 24.5173 13.3592 26.9568H17.3592C17.3592 26.1521 17.9574 25.1902 18.7769 24.7805L16.9881 21.2028ZM27.0745 18.4683C23.4719 18.4683 19.8714 19.4659 16.8535 21.2766L18.9115 24.7066C21.3006 23.2731 24.1885 22.4683 27.0745 22.4683V18.4683ZM37.2954 21.2766C34.2213 19.4322 30.6266 18.6626 27.1854 18.4714L26.9635 22.4653C30.0108 22.6346 32.9045 23.3069 35.2374 24.7066L37.2954 21.2766ZM40.7897 26.9568C40.7897 24.6301 39.4983 22.2394 37.0787 21.164L35.4541 24.8192C36.2788 25.1857 36.7897 26.0393 36.7897 26.9568H40.7897ZM16.215 16.805C16.1155 16.6457 15.9974 16.4965 15.8619 16.361L13.0335 19.1894C12.953 19.1089 12.8821 19.0196 12.8221 18.9235L16.215 16.805ZM15.3542 16.1677C15.5229 16.1677 15.6823 16.2301 15.8026 16.331L13.2345 19.3976C13.8072 19.8772 14.5494 20.1677 15.3542 20.1677V16.1677ZM14.6566 16.8654C14.6566 16.4801 14.9689 16.1677 15.3542 16.1677V20.1677C17.1781 20.1677 18.6566 18.6892 18.6566 16.8654H14.6566ZM15.3542 17.563C14.9689 17.563 14.6566 17.2507 14.6566 16.8654H18.6566C18.6566 15.0415 17.1781 13.563 15.3542 13.563V17.563ZM16.0519 16.8654C16.0519 17.2507 15.7395 17.563 15.3542 17.563V13.563C13.5304 13.563 12.0519 15.0415 12.0519 16.8654H16.0519ZM15.8875 16.4156C15.9889 16.5361 16.0519 16.696 16.0519 16.8654H12.0519C12.0519 17.6733 12.3446 18.4181 12.8275 18.9917L15.8875 16.4156ZM15.8619 16.361C15.7248 16.2239 15.5737 16.1046 15.4122 16.0044L13.3028 19.4029C13.2054 19.3425 13.1149 19.2709 13.0335 19.1894L15.8619 16.361ZM38.7386 16C38.5744 16.1011 38.421 16.2219 38.2819 16.361L41.1102 19.1895C41.0276 19.2721 40.9357 19.3446 40.8367 19.4056L38.7386 16ZM38.0925 16.8654C38.0925 16.6962 38.1553 16.5365 38.2565 16.416L41.3187 18.9895C41.8006 18.4162 42.0925 17.6723 42.0925 16.8654H38.0925ZM38.7902 17.563C38.4049 17.563 38.0925 17.2507 38.0925 16.8654H42.0925C42.0925 15.0415 40.614 13.563 38.7902 13.563V17.563ZM39.4878 16.8654C39.4878 17.2507 39.1755 17.563 38.7902 17.563V13.563C36.9663 13.563 35.4878 15.0415 35.4878 16.8654H39.4878ZM38.7902 16.1677C39.1755 16.1677 39.4878 16.4801 39.4878 16.8654H35.4878C35.4878 18.6892 36.9663 20.1677 38.7902 20.1677V16.1677ZM38.3425 16.3303C38.4628 16.2299 38.6219 16.1677 38.7902 16.1677V20.1677C39.5933 20.1677 40.3341 19.8785 40.9063 19.4006L38.3425 16.3303ZM38.2818 16.361C38.1446 16.4982 38.0252 16.6494 37.925 16.811L41.3239 18.9199C41.2634 19.0174 41.1918 19.1079 41.1103 19.1894L38.2818 16.361Z" fill="#BFD0B3" mask="url(#path-3-outside-2_935_454)"/>
<path d="M27 16.916C30.0376 16.916 32.5 14.4536 32.5 11.416C32.5 8.37845 30.0376 5.91602 27 5.91602C23.9624 5.91602 21.5 8.37845 21.5 11.416C21.5 14.4536 23.9624 16.916 27 16.916Z" stroke="black" stroke-linecap="round" stroke-linejoin="round"/>
<path d="M38.9154 29.7487V27.182C38.9154 25.532 37.9987 23.882 36.3487 23.1487C33.5987 21.4987 30.2987 20.7654 26.9987 20.582C23.6987 20.582 20.3987 21.4987 17.6487 23.1487C16.182 23.882 15.082 25.532 15.082 27.182V29.7487" stroke="black" stroke-linecap="round" stroke-linejoin="round"/>
<path d="M10.5 29.75H43.5C44.9667 29.75 46.25 31.0333 46.25 32.5V36.1667C46.25 37.6333 44.9667 38.9167 43.5 38.9167H10.5C9.03333 38.9167 7.75 37.6333 7.75 36.1667V32.5C7.75 31.0333 9.03333 29.75 10.5 29.75Z" stroke="black" stroke-linecap="round" stroke-linejoin="round"/>
<path d="M11.418 38.916L13.2513 48.0827" stroke="black" stroke-linecap="round" stroke-linejoin="round"/>
<path d="M42.5833 38.916L40.75 48.0827" stroke="black" stroke-linecap="round" stroke-linejoin="round"/>
<path d="M38.9154 18.7487C39.9279 18.7487 40.7487 17.9279 40.7487 16.9154C40.7487 15.9028 39.9279 15.082 38.9154 15.082C37.9028 15.082 37.082 15.9028 37.082 16.9154C37.082 17.9279 37.9028 18.7487 38.9154 18.7487Z" stroke="black" stroke-linecap="round" stroke-linejoin="round"/>
<path d="M40.1992 18.1992C43.3159 21.3159 42.5826 24.2492 42.5826 29.7492" stroke="black" stroke-linecap="round" stroke-linejoin="round"/>
<path d="M15.0833 18.7487C16.0959 18.7487 16.9167 17.9279 16.9167 16.9154C16.9167 15.9028 16.0959 15.082 15.0833 15.082C14.0708 15.082 13.25 15.9028 13.25 16.9154C13.25 17.9279 14.0708 18.7487 15.0833 18.7487Z" stroke="black" stroke-linecap="round" stroke-linejoin="round"/>
<path d="M13.7983 18.1992C10.6816 21.3159 11.4149 24.2492 11.4149 29.7492" stroke="black" stroke-linecap="round" stroke-linejoin="round"/>
</svg>
