<svg width="130" height="100" viewBox="0 0 130 100" fill="none" xmlns="http://www.w3.org/2000/svg">
<path d="M49.9929 99.4749L13.3787 99.5448C11.5957 99.5482 10.1474 98.1055 10.144 96.3224L10.1406 94.5424L49.9834 94.4663L49.9929 99.4749Z" fill="#D3D3D3"/>
<path d="M75.8634 45.0616C75.7634 44.5416 75.3234 44.1816 74.8134 44.1816L63.2234 44.2117C67.0434 49.5016 71.8335 53.5616 78.1134 56.6616L75.8634 45.0616ZM82.6834 80.2617L80.7934 70.5217C72.5634 68.2516 67.2934 64.5316 61.7135 59.0817L62.4234 73.5117C62.3229 73.5172 56.2033 73.8531 56.5935 73.8317C56.6634 73.9116 56.7334 73.9916 56.8034 74.0717L56.2034 74.7816L57.2634 75.7717L61.4635 75.5616C62.1563 75.5251 62.7334 76.0853 62.7334 76.7717C62.7334 77.4216 62.2034 77.9816 61.5134 77.9716L60.0835 77.9617L63.9334 81.6116C64.8734 82.6016 62.6734 84.7117 61.7334 83.7316C62.8335 84.8716 61.0935 86.5516 59.9934 85.4017C61.1834 86.6417 59.2135 88.5316 58.0235 87.3016C59.4734 88.8016 57.1334 90.4316 55.6834 88.9216L52.1334 85.1417C52.4261 85.9932 53.2084 88.2556 53.5034 89.0917C53.5434 89.2216 53.4734 89.3616 53.3435 89.4116C53.3234 89.4216 53.2934 89.4216 53.2634 89.4216C53.1634 89.4216 53.0634 89.3616 53.0235 89.2516C52.4134 87.5217 51.8435 85.8616 51.2934 84.2416L49.6834 82.5217L49.1734 83.1317C47.3563 81.4473 45.4683 79.4433 43.8934 77.4316C43.1795 76.5239 41.9452 74.7858 41.8834 74.6317C41.7769 74.6375 31.5272 75.1969 32.1734 75.1616C32.1734 75.1016 32.1834 75.0516 32.1834 74.9916C33.38 57.988 32.8155 66.1645 33.1034 51.3616C33.1535 48.9716 33.4234 46.4216 34.4834 44.2617L7.84346 44.3116C7.01344 44.3116 6.38344 45.0717 6.52345 45.8917C6.72688 47.0677 14.5498 92.3087 14.1334 89.8716L28.9334 89.8417L34.6535 89.8317L46.8534 89.8116H48.6134L51.4035 89.8016L68.8634 89.7717H69.5734L84.5235 89.7416L82.6834 80.2617ZM34.0134 89.4417C33.9834 89.5516 33.8834 89.6216 33.7735 89.6216C33.7534 89.6216 33.7234 89.6216 33.7034 89.6116C33.5734 89.5717 33.4934 89.4316 33.5334 89.3016C34.6034 85.6216 35.2135 81.6816 35.3335 77.5817C35.3335 77.4517 35.4434 77.3417 35.5835 77.3417C35.7234 77.3516 35.8335 77.4617 35.8335 77.6016C35.7135 81.7416 35.1034 85.7216 34.0134 89.4417Z" fill="#262421"/>
<path d="M50.0248 78.3016C49.9247 78.3969 46.7107 81.4559 46.9149 81.2615L46.8748 81.3016C46.7879 81.2003 44.7555 78.8308 44.8848 78.9816L45.0448 78.8315L45.2248 78.6616L47.6448 76.3516C47.9388 77.462 48.9178 78.2417 50.0248 78.3016Z" fill="#262421"/>
<path d="M55.8741 72.7215C55.5871 72.9954 52.6461 75.8008 52.8342 75.6215C52.807 74.3722 51.9016 73.3882 50.9941 73.1615C51.0947 73.0654 54.1588 70.1354 53.9642 70.3215H53.9742C54.5314 71.0253 55.9663 72.8379 55.8741 72.7215Z" fill="#262421"/>
<path d="M58.8006 28.5797C58.7908 28.5797 58.7811 28.5788 58.7703 28.5778C58.6336 28.5612 58.536 28.4372 58.5526 28.2995C58.7635 26.5573 58.3904 24.7614 57.5027 23.2448C57.4334 23.1256 57.4735 22.9723 57.5926 22.903C57.7088 22.8317 57.8631 22.8717 57.9344 22.9928C58.8768 24.6032 59.2723 26.5094 59.0486 28.36C59.033 28.487 58.9256 28.5797 58.8006 28.5797Z" fill="#262421"/>
<path d="M63.3272 29.595C63.3087 29.595 63.2891 29.5931 63.2696 29.5882C63.1348 29.556 63.0518 29.4212 63.0841 29.2874C63.7364 26.5374 63.2989 23.5589 61.8829 21.1136C61.8145 20.9944 61.8546 20.8411 61.9747 20.7718C62.0919 20.7034 62.2452 20.7425 62.3165 20.8636C63.795 23.4173 64.252 26.5306 63.5704 29.4026C63.543 29.5179 63.4405 29.595 63.3272 29.595Z" fill="#262421"/>
<path d="M68.0079 29.0267C67.9893 29.0267 67.9698 29.0248 67.9503 29.0199C67.8155 28.9876 67.7325 28.8529 67.7647 28.7191C68.7481 24.5755 68.089 20.0843 65.9552 16.3988C65.8868 16.2796 65.9268 16.1263 66.047 16.057C66.1632 15.9896 66.3184 16.0277 66.3888 16.1488C68.585 19.9437 69.2638 24.5677 68.2511 28.8343C68.2237 28.9496 68.1212 29.0267 68.0079 29.0267Z" fill="#262421"/>
<path d="M101.027 4.45428H116.118L116.546 1.95609C116.671 1.22363 116.107 0.554688 115.364 0.554688H102.706C102.122 0.554688 101.623 0.97571 101.524 1.55156L101.027 4.45428Z" fill="#D3D3D3"/>
<path d="M95.965 65.6917C95.9419 65.7934 94.1009 73.9254 94.215 73.4217L90.5049 89.8716H84.7949L87.095 80.1216L87.3649 78.9417L88.8849 72.5016L88.9949 72.0217L90.6949 64.8217C91.2632 64.4361 91.6298 64.2518 91.7349 64.1816C91.8394 64.2191 95.6321 65.5765 95.395 65.4916L95.6349 65.5717L95.8749 65.6617L95.965 65.6917Z" fill="#D3D3D3"/>
<path d="M97.8284 28.5457H111.722C112.196 28.5457 112.601 28.2042 112.681 27.7371L113.289 24.1836H97.4216L96.8697 27.4089C96.768 28.0031 97.2256 28.5457 97.8284 28.5457Z" fill="#D3D3D3"/>
<path d="M99.5957 4.35516H114.686L115.114 1.85697C115.239 1.12452 114.675 0.455566 113.932 0.455566H101.274C100.69 0.455566 100.191 0.876589 100.092 1.45244L99.5957 4.35516Z" fill="#FFD14D"/>
<path d="M111.625 24.1816L111.015 27.7317C110.935 28.2017 110.535 28.5417 110.055 28.5417H96.1651C95.5651 28.5417 95.1051 28.0016 95.2051 27.4117L95.7551 24.1816H111.625Z" fill="#FFD14D"/>
<path d="M127.874 4.68913L124.574 24.3961C124.554 24.5337 124.434 24.6418 124.284 24.6418H88.5742L88.6442 24.2486H121.684L125.084 4.73832H91.9142L91.9742 4.35498H127.584C127.764 4.35498 127.904 4.51221 127.874 4.68913Z" fill="#D3D3D3"/>
<path d="M129.127 94.3149L90.3548 94.3889C90.3541 94.3729 90.3585 94.3583 90.3543 94.3414L89.4843 89.8713H88.9843L89.8143 94.1414L10.4743 94.2914L1.40432 41.8113C1.2145 40.7993 2.00971 39.9214 2.97432 39.9214L38.7832 39.8544C37.653 40.3222 36.6432 41.004 35.8028 41.8889C32.4689 45.3831 32.8337 51.0745 32.8028 56.1575C32.7397 66.4957 32.4135 67.1943 32.2461 70.6146C32.0833 70.7191 32.0929 70.8901 32.2109 70.9944C31.9005 75.7006 31.8511 75.2478 32.0555 75.3643C31.8575 80.7698 30.7716 85.5705 28.9343 89.8414C28.9343 89.8514 28.9243 89.8614 28.9243 89.8713H46.8443C46.8443 89.8514 46.8543 89.8314 46.8543 89.8113C47.0842 88.7919 47.284 87.7822 47.4441 86.7529L48.6135 89.8115L48.6335 89.8715H68.9035L68.8635 89.7716L62.8335 73.7415L62.5014 73.7314C62.6017 73.6945 62.6795 73.6115 62.6739 73.4993L62.4831 69.6212C62.5316 69.5756 62.5636 69.5133 62.5636 69.4417C62.5636 69.363 62.5222 69.3005 62.4651 69.2546L61.995 59.6982C67.1612 64.6738 72.3982 68.4652 80.7247 70.762C80.8124 70.787 80.906 70.8107 80.9948 70.8354C81.0087 70.8407 81.0153 70.8558 81.0304 70.8587C81.046 70.8626 81.0616 70.8635 81.0772 70.8635C81.0807 70.8635 81.083 70.8604 81.0863 70.8603C81.8889 71.0816 82.7425 71.2918 83.6619 71.494L85.4953 71.9107L87.0943 80.1213L87.3643 78.9414L86.0239 72.0112L88.8843 72.5014L88.9943 72.0214L85.7643 71.4614L85.5298 71.4086L87.0333 60.6833C87.1373 60.7222 88.2883 61.1531 88.1843 61.1142C89.4786 61.6397 89.9342 61.9265 91.1114 61.4055C91.5218 61.2427 92.1803 60.962 92.7843 60.7815C93.4178 60.6004 94.1928 60.304 94.6397 60.6067C94.9581 60.8294 95.1749 61.3167 94.9903 61.6311C94.791 61.9563 94.4219 62.2123 94.1202 62.4338C92.9444 63.348 91.1253 64.1381 90.2598 64.8147C90.0723 64.9587 90.1758 65.262 90.4132 65.262C90.5453 65.262 90.5505 65.1966 90.8214 65.0364C90.8233 65.0352 90.8232 65.0325 90.8252 65.0313C90.8279 65.0296 90.8313 65.0304 90.8341 65.0286C91.1215 64.8331 91.4444 64.6345 91.8474 64.4046C91.8474 64.4047 91.8475 64.4045 91.8474 64.4046L92.0427 64.2969L92.0543 64.3014L92.0575 64.2887C93.6778 63.3646 93.2438 63.6883 94.4786 62.7903C94.8087 62.5481 95.1837 62.2737 95.419 61.8889C95.755 61.3176 95.4356 60.553 94.9229 60.1946C94.4565 59.8809 93.9443 59.9318 93.0561 60.1804L100.704 28.5414H100.194L92.5059 60.3509C90.7234 60.9187 90.5173 61.2872 89.7965 61.1607C89.2733 60.9757 88.4617 60.69 88.3614 60.6467L87.1045 60.1755L87.1114 60.1262C87.128 60.0042 87.0548 59.8889 86.9376 59.8518C85.7124 59.4735 84.563 59.0738 83.447 58.6619L79.9786 40.7629C79.8057 39.8987 79.046 39.2717 78.1729 39.2717L59.1366 39.3117C56.7396 37.9378 53.6672 37.6033 51.2579 38.1174C51.109 38.1534 50.6343 38.1759 50.3202 38.3316L48.42 32.9812C49.5064 32.1992 50.3891 31.1265 50.9327 29.8713C52.2301 26.8827 51.1926 22.0549 50.005 18.9594C51.4846 17.5496 52.2403 15.0833 51.0335 13.3115C49.8535 11.6015 47.7535 10.6015 45.7235 10.3916C42.7435 10.0916 40.0635 11.6315 38.7835 14.3316C38.7835 14.0015 36.1035 13.4616 35.8435 13.4616C32.5888 13.335 29.6766 15.8787 29.3135 19.6915C29.0935 22.0715 29.8435 24.7116 30.9935 26.7915C32.2435 29.0715 34.3235 30.9016 36.7835 31.7915C37.8609 32.1645 38.4703 32.2084 39.2613 32.1542C39.9182 32.812 40.6297 33.3605 41.7843 33.8289L41.5239 39.1712C41.347 39.1962 41.0036 39.2215 40.3958 39.3514L2.97433 39.4214C1.64037 39.4214 0.677313 40.6331 0.904318 41.8914L10.0143 94.5814C10.0343 94.7014 10.1443 94.7914 10.2643 94.7914L49.8074 94.7171L49.8164 99.4371L125.06 99.2934C127.311 99.2891 129.133 97.4608 129.128 95.2098L129.127 94.3149ZM33.3028 56.1604C33.3194 53.4346 33.332 51.3304 33.406 50.092C34.7994 57.4798 36.1295 64.1005 39.1106 70.2491L32.7525 70.5392C32.9355 66.785 33.2392 66.604 33.3028 56.1604ZM62.1622 73.2756L58.5951 73.471L58.5336 69.8608L61.9863 69.7025L62.1622 73.2756ZM56.2254 75.1444L57.0929 75.9544C57.1427 76.0003 57.2042 76.0217 57.2765 76.0217L61.4776 75.8118C62.3419 75.7715 62.826 76.8286 62.1983 77.4495C62.0196 77.6253 61.7833 77.7219 61.5294 77.7219C61.4287 77.7219 59.9844 77.7113 60.085 77.7112C60.0841 77.7112 60.0841 77.7112 60.0831 77.7112C59.8597 77.7112 59.7467 77.9848 59.9112 78.1428L63.752 81.7835C64.4618 82.5306 62.6256 84.2912 61.9161 83.5618C61.9151 83.5598 61.9141 83.5588 61.9132 83.5579C61.8578 83.5008 61.7838 83.4857 61.7102 83.4934L59.9054 81.6174C59.8106 81.5169 59.6515 81.5149 59.5528 81.6106C59.4532 81.7063 59.4493 81.8645 59.546 81.9631L61.4796 83.9729C61.5284 84.0247 61.5938 84.0501 61.6593 84.0501C61.6596 84.0501 61.6599 84.0496 61.6602 84.0496C62.2879 84.9519 61.0242 86.0573 60.2033 85.2524C60.1025 85.1059 59.206 84.203 58.255 83.2053C58.1602 83.1047 58.0011 83.1028 57.9024 83.1985C57.8028 83.2942 57.7989 83.4524 57.8956 83.551L59.7924 85.5225C59.8021 85.5391 59.7987 85.5599 59.8126 85.5745C60.7803 86.5821 59.1596 88.1115 58.2064 87.1311C58.1085 87.0303 56.1724 85.014 56.2706 85.1145C56.1729 85.0139 56.0147 85.0129 55.9171 85.1067C55.8175 85.2024 55.8136 85.3616 55.9093 85.4602C56.3929 85.9641 57.3602 86.9719 57.8438 87.4758C59.0693 88.745 57.0763 90.0111 55.8663 88.7503C55.7618 88.6388 49.9192 82.4071 50.0192 82.5137L56.2254 75.1444ZM32.7088 71.0416L36.7138 70.8593C36.812 75.2784 36.7442 74.4677 36.805 74.6581L32.4415 74.8967C32.5472 73.4059 32.6353 72.1645 32.7088 71.0416ZM37.2588 74.6333C37.298 74.4396 37.2724 75.4027 37.2135 70.8365L39.3567 70.739C39.9783 71.9788 40.6707 73.1998 41.4459 74.4043L37.2588 74.6333ZM34.0143 89.4414C33.9843 89.5514 33.8843 89.6213 33.7743 89.6213C33.7543 89.6213 33.7243 89.6213 33.7043 89.6114C33.5743 89.5714 33.4943 89.4313 33.5343 89.3014C34.6043 85.6213 35.2143 81.6813 35.3343 77.5814C35.3343 77.4514 35.4443 77.3414 35.5843 77.3414C35.7243 77.3514 35.8343 77.4614 35.8343 77.6014C35.7143 81.7413 35.1043 85.7214 34.0143 89.4414ZM53.3435 89.4115C53.3235 89.4215 53.2935 89.4215 53.2635 89.4215C53.1635 89.4215 53.0635 89.3615 53.0235 89.2515C52.4838 87.7209 51.9786 86.2512 51.4877 84.8094C51.5809 84.9097 52.4261 85.8194 52.333 85.7191C52.6225 86.56 53.2344 88.329 53.5035 89.0916C53.5435 89.2215 53.4735 89.3615 53.3435 89.4115ZM85.0431 71.2747C83.688 71.0043 82.4829 70.7223 81.3682 70.4193L83.5015 59.2161C84.4934 59.5779 85.51 59.931 86.586 60.2669L85.0431 71.2747ZM78.1739 39.7717C78.8087 39.7717 79.3614 40.2297 79.4884 40.8596L82.9009 58.4603C81.2452 57.831 79.6875 57.1635 78.2237 56.4368C72.0929 53.4114 67.252 49.3645 63.4259 44.0637C61.8888 41.963 62.0079 41.8185 61.7664 41.7147C61.2616 40.9638 60.6256 40.3311 59.9016 39.8101L78.1739 39.7717ZM50.5206 38.7629C50.666 38.6902 51.1785 38.6478 51.3663 38.6057C54.6993 37.8909 59.3604 38.8733 61.4503 42.1331L61.4932 42.1975C61.5173 42.235 61.5578 42.2482 61.5944 42.2676C65.61 48.4831 70.7015 53.2819 78.002 56.885C79.5637 57.6599 81.232 58.3677 83.0106 59.0336L83.0192 59.081L80.8853 70.2875C80.8769 70.2852 80.8678 70.2829 80.8595 70.2805C72.3969 67.9459 67.1596 64.0495 61.9031 58.9163C61.8935 58.9039 61.8834 58.8951 61.8712 58.8851C59.7464 56.8203 57.5419 54.441 55.2071 51.9212C55.1124 51.8215 54.9552 51.8157 54.8536 51.9075C54.752 52.0012 54.7462 52.1594 54.8399 52.261C57.1601 54.7647 59.3516 57.1285 61.4687 59.1898L61.9619 69.2076L53.3781 69.5961C52.6219 68.633 51.8531 67.7063 50.6669 66.038C49.9793 57.7347 49.3315 50.6532 48.2432 41.1267C48.8531 40.9045 49.4011 40.5747 49.8321 40.136C50.2029 39.756 50.3132 39.4178 50.4884 38.929C50.5128 38.8635 50.5206 38.8098 50.5206 38.7629ZM37.9923 29.0774C37.9375 28.8963 37.7073 28.8421 37.5753 28.9768C36.63 29.9426 35.7393 30.2346 35.0733 29.7913C33.7957 28.9482 33.7307 25.7785 35.9444 26.1887C36.5753 26.5491 36.9972 26.5725 37.1993 26.26C37.6651 25.5442 36.127 23.3255 34.1368 21.76C36.5811 20.9309 40.2413 19.1995 41.0606 16.1057C43.547 17.5706 46.4093 18.0872 48.8126 17.5022C50.4226 20.6506 51.8448 26.5132 50.4737 29.6721C49.7393 31.3694 48.3516 32.7219 46.6681 33.384C43.0555 34.8002 39.1194 32.6971 37.9923 29.0774ZM47.9921 33.2697L49.9796 38.8658C49.7967 39.3773 49.7093 39.546 49.4747 39.7864C48.0347 41.2539 45.1405 41.6213 42.0243 39.1885L42.2765 34.0139C44.1118 34.5987 46.1656 34.3982 47.9921 33.2697ZM41.3233 39.6995L41.7921 39.6419C43.543 40.9875 45.6253 41.8164 47.7578 41.278C48.7999 50.4198 49.4382 57.3173 50.0975 65.2225C47.2532 61.0554 45.794 57.5349 43.8243 51.7314C43.7743 51.6014 43.6343 51.5314 43.5043 51.5714C43.3743 51.6213 43.3043 51.7614 43.3443 51.8914C46.0843 59.9614 47.8343 63.6514 53.6043 70.6714L53.9643 70.3214C53.9034 70.2517 53.844 70.1795 53.7628 70.0795L58.0338 69.8837L58.0954 73.4984L56.958 73.5606L56.6814 73.552C56.6315 73.4941 56.5814 73.4343 56.5343 73.3814C55.6843 72.3814 54.8943 71.4614 54.1843 70.5814L55.8743 72.7214L55.5643 73.0114C55.7543 73.2314 55.9543 73.4714 56.1543 73.7014L56.1643 73.7114C56.2343 73.8014 56.3243 73.8914 56.4043 73.9913L56.4213 74.0107C56.4222 74.0117 56.4228 74.0126 56.4237 74.0135L56.4743 74.0714L56.0207 74.6106C54.2661 76.696 49.9918 81.776 49.1543 82.7714C48.4832 82.1449 47.583 81.2408 47.2743 80.9214L47.099 81.087C46.3685 80.3347 45.6848 79.5835 45.0439 78.8317L45.2243 78.6614C44.8343 78.2114 44.4543 77.7514 44.0943 77.2814C37.4281 68.8506 35.7089 59.6323 33.6993 48.9456C33.681 48.8518 33.6076 48.7964 33.5219 48.7695C33.802 46.383 34.5119 43.9656 36.1651 42.2337C37.5011 40.8264 39.2843 39.9504 41.3233 39.6995ZM24.211 97.2258L17.4923 97.2395C17.3546 97.2395 17.2432 97.3518 17.2432 97.4905C17.2432 97.6282 17.3556 97.7395 17.4932 97.7395L24.212 97.7258C24.3497 97.7258 24.461 97.6135 24.461 97.4749C24.461 97.3372 24.3487 97.2258 24.211 97.2258Z" fill="black"/>
<path d="M41.4658 97.1938L34.748 97.2065C34.6094 97.2065 34.498 97.3188 34.498 97.4565C34.498 97.5952 34.6104 97.7065 34.748 97.7065L41.4658 97.6938C41.6045 97.6938 41.7158 97.5815 41.7158 97.4438C41.7158 97.3051 41.6035 97.1938 41.4658 97.1938ZM50.208 78.5581C51.251 78.5581 52.2266 77.9858 52.7334 77.062C52.9775 76.6147 53.0947 76.1284 53.083 75.6166C53.0531 74.2407 52.0387 73.1608 51.0693 72.9233C49.7529 72.4995 48.3174 73.0717 47.6543 74.2817C46.6306 76.1449 47.9337 78.5581 50.208 78.5581ZM48.0918 74.5219C48.5186 73.7456 49.3301 73.2866 50.1885 73.2866C51.5694 73.2866 52.556 74.383 52.583 75.6264C52.5928 76.0502 52.4961 76.4526 52.2949 76.8217C51.8496 77.6352 50.9766 78.1215 50.0361 78.0512C48.3042 77.9629 47.2587 76.0447 48.0918 74.5219ZM44.9678 25.019C45.0426 25.3328 44.785 25.6323 44.4521 25.5874C44.3203 25.5668 44.1875 25.6606 44.167 25.7963C44.1465 25.9331 44.2393 26.061 44.376 26.0815C45.0716 26.1829 45.6078 25.5504 45.4541 24.9028C45.3908 24.6404 45.249 24.4597 44.999 24.1625C44.6055 23.687 44.2949 23.1264 43.9932 22.5815C43.8271 22.2827 43.6396 21.9438 43.6084 21.601C43.5762 21.2541 43.0811 21.329 43.1104 21.6459C43.1514 22.0942 43.376 22.4985 43.5576 22.8266C44.5651 24.6483 44.8816 24.6572 44.9678 25.019ZM40.2338 21.1406C39.8225 21.2265 39.6036 21.8441 39.7448 22.5198C39.886 23.1957 40.3339 23.6739 40.7451 23.588C41.1563 23.5021 41.3752 22.8845 41.2341 22.2087C41.0929 21.5329 40.645 21.0547 40.2338 21.1406ZM47.8816 22.6054C48.2928 22.5195 48.5118 21.902 48.3705 21.2262C48.2294 20.5504 47.7816 20.0722 47.3703 20.1581C46.959 20.244 46.7401 20.8615 46.8813 21.5373C47.0225 22.2131 47.4703 22.6914 47.8816 22.6054ZM43.4707 30.0688C43.7632 30.3748 44.1152 30.627 44.5254 30.7241C45.6598 30.9986 46.9723 30.2162 47.3916 29.0249C47.459 28.8315 47.5137 28.6264 47.5547 28.4135C47.7074 27.6267 47.6513 26.9696 47.6533 26.8442C47.6622 26.5766 47.3879 26.4282 47.1699 26.5854C46.9949 26.7196 46.7229 27.7706 45.5645 28.2202C45.5635 28.2202 45.5635 28.2202 45.5635 28.2211C44.9092 28.475 44.2109 28.3774 43.5518 28.2329C42.8405 28.0748 42.8848 27.961 42.6992 27.978C42.4998 27.9933 42.3271 28.1872 42.4785 28.477C42.5324 28.5773 42.8537 29.4237 43.4707 30.0688ZM43.4443 28.7211C44.34 28.9167 45.1683 28.992 45.9873 28.5776C46.4682 28.3339 46.8805 27.9624 47.1523 27.5698C47.1293 28.011 47.064 28.442 46.9199 28.8598C46.5811 29.8227 45.54 30.4506 44.6416 30.2377C43.9512 30.0716 43.4204 29.2728 43.1025 28.6372C43.2217 28.6713 43.3379 28.6977 43.4443 28.7211ZM103.884 28.5416L95.4686 65.1677L92.6142 64.1516L92.5342 64.4716C92.7433 64.5459 96.1041 65.7413 95.9642 65.6915C95.9412 65.7933 94.1002 73.9253 94.2142 73.4216L90.5042 89.8715H91.8142H92.2642L95.9123 73.7119C95.9511 73.7186 97.4148 73.9716 97.4542 73.9716C98.3632 73.9716 98.8415 72.0942 98.4142 71.3815C99.0143 71.0815 99.4856 69.5871 99.0142 68.7615C99.7458 68.3381 100.084 66.8854 99.5342 66.1815C100.335 65.6019 100.573 63.5382 99.5242 63.3316C99.0192 63.2252 98.5028 63.114 97.9933 63.0073L105.914 28.5416C105.74 28.5416 103.761 28.5416 103.884 28.5416ZM99.4242 63.8215C99.7142 63.8815 99.7842 64.4415 99.6842 64.9415C99.5954 65.2969 99.3588 65.9301 99.0042 65.8416C98.8642 65.8215 98.7342 65.9016 98.7042 66.0416C98.6842 66.1716 98.7642 66.3115 98.9042 66.3316C99.1842 66.3915 99.3042 66.7216 99.3042 67.0916C99.3042 67.6447 98.969 68.4785 98.4742 68.3715H98.4342C98.3042 68.3715 98.2042 68.4515 98.1742 68.5715C98.1542 68.7116 98.2442 68.8416 98.3742 68.8715C98.4242 68.8715 98.5642 68.9016 98.6442 69.1616C98.8673 69.8169 98.4424 71.1033 97.9342 71.0015V70.9915C97.5849 70.9417 97.5377 71.4392 97.8342 71.4816V71.4915C98.1825 71.5351 98.1407 72.8148 97.6742 73.3416C97.5342 73.4915 97.4442 73.4716 97.4042 73.4616L96.0225 73.2238L97.6642 65.9515L97.3442 65.8316L97.8814 63.4941C98.3948 63.604 98.9081 63.7161 99.4242 63.8215ZM104.884 24.1815C104.993 24.1815 107.023 24.1815 106.914 24.1815L107.309 22.454C107.42 22.3612 108.145 21.9239 108.715 21.0903C108.756 21.0349 108.789 20.9749 108.827 20.9181C110.574 20.7562 113.232 18.8363 114.253 15.7717C114.843 14.0617 115.043 11.9717 114.563 10.2117C113.793 7.46791 111.332 5.87827 108.813 6.40174C108.613 6.44172 106.573 7.25172 106.733 7.47169C103.098 2.32205 95.0889 6.99385 97.4534 11.5917C97.5534 11.7717 97.7234 11.9617 97.7634 12.1417C97.9208 12.8833 97.3807 14.9968 97.2834 15.7217C96.9563 18.0386 97.9218 19.4416 99.1639 19.8813C99.2079 19.9902 99.2797 20.3006 99.625 20.8207C100.14 21.5921 100.826 22.2193 101.611 22.6619L101.244 24.1815H101.754L102.064 22.9016C102.947 23.3013 104.051 23.4851 105.084 23.3316L104.884 24.1815ZM99.6924 19.8803C98.6621 17.5502 98.8965 13.7504 99.6445 11.2543C101.511 11.351 103.577 10.5922 105.223 9.18696C106.284 11.3461 109.159 12.1577 111.099 12.4624C109.814 13.936 109.009 15.7602 109.473 16.2534C109.692 16.4848 110.031 16.4165 110.482 16.0405C112.012 15.4643 112.344 17.7827 111.549 18.5395C111.128 18.9409 110.445 18.8393 109.628 18.2573C109.469 18.146 109.258 18.2487 109.235 18.4301C108.804 21.8773 105.159 23.9557 102.009 22.3198C100.888 21.7397 100.037 20.7446 99.6924 19.8803Z" fill="black"/>
<path d="M85.7245 24.6919H121.684C121.806 24.6919 121.91 24.604 121.931 24.4839L125.3 4.78955L125.329 4.63916C125.36 4.48577 125.242 4.34131 125.084 4.34131H91.9344C91.7967 4.34131 91.6844 4.45361 91.6844 4.59131C91.6844 4.729 91.7967 4.84131 91.9344 4.84131H124.784L121.473 24.1919H86.0213L88.8749 7.52197C88.8983 7.38525 88.8075 7.25635 88.6717 7.23291C88.5282 7.20459 88.4051 7.30127 88.3827 7.43604L85.4784 24.3999C85.452 24.5498 85.5672 24.6919 85.7245 24.6919Z" fill="black"/>
<path d="M104.269 16.7846C104.224 16.6538 104.078 16.5835 103.952 16.6294C103.763 16.6956 103.553 16.5452 103.566 16.3295C103.579 16.0677 103.803 16.0429 104.329 14.5044C104.479 14.0636 104.703 13.2638 104.238 13.3071C104.1 13.3188 103.998 13.4399 104.01 13.5776C104.032 13.8266 103.942 14.0893 103.854 14.3491C103.287 16.0022 103.094 15.8225 103.066 16.3012C103.05 16.562 103.169 16.8227 103.376 16.9809C103.764 17.2783 104.394 17.1475 104.269 16.7846ZM106.49 14.6817C106.81 14.6909 107.083 14.271 107.098 13.7437C107.113 13.2163 106.865 12.7814 106.544 12.7722C106.224 12.7629 105.951 13.1829 105.936 13.7102C105.921 14.2375 106.169 14.6725 106.49 14.6817ZM101.045 12.9943C100.724 12.9851 100.451 13.4051 100.436 13.9325C100.421 14.4597 100.669 14.8947 100.99 14.9039C101.311 14.9132 101.583 14.4932 101.598 13.9658C101.613 13.4386 101.366 13.0036 101.045 12.9943ZM104.631 20.6118C105.096 20.4107 105.411 19.9488 105.617 19.4838C105.805 19.0592 105.873 18.7061 105.902 18.6059C106.018 18.2298 105.623 18.0705 105.414 18.2788C104.555 18.7466 103.734 19.0137 102.92 18.5327C102.44 18.2518 102.292 17.9406 102.202 17.8403C101.98 17.5838 101.606 17.7653 101.673 18.06C101.757 18.5636 101.847 19.1193 102.172 19.6958C102.655 20.5479 103.777 20.987 104.631 20.6118ZM105.301 18.9057C105.153 19.3655 104.873 19.9642 104.43 20.1538C103.824 20.4233 102.971 20.0903 102.608 19.4497C102.477 19.2191 102.383 18.9688 102.313 18.7143C103.259 19.5024 104.194 19.3839 105.301 18.9057ZM120.211 17.0268L121.144 11.4067C121.166 11.27 121.074 11.142 120.938 11.1186C120.804 11.0981 120.672 11.1889 120.65 11.3247L119.717 16.9448C119.695 17.0815 119.788 17.2094 119.923 17.2329C120.07 17.2538 120.19 17.1553 120.211 17.0268Z" fill="black"/>
<path d="M89.5143 1.47168C87.3843 1.47168 85.6543 3.19171 85.6543 5.33172C85.6543 7.45172 87.3843 9.1817 89.5143 9.1817C91.6343 9.1817 93.3743 7.45172 93.3743 5.33172C93.3743 3.19171 91.6343 1.47168 89.5143 1.47168ZM89.5143 7.17169C88.4742 7.17169 87.6343 6.34173 87.6343 5.3117C87.6343 4.28168 88.4742 3.4317 89.5143 3.4317C90.5443 3.4317 91.3943 4.28168 91.3943 5.3117C91.3943 6.34173 90.5443 7.17169 89.5143 7.17169Z" fill="#FFD14D"/>
</svg>
