<svg width="3049" height="2137" viewBox="0 0 3049 2137" fill="none" xmlns="http://www.w3.org/2000/svg">
<path d="M2238.7 2034.32C2267.15 2034.32 2286.19 2011.56 2281.22 1983.48L2102.3 973.01L2086.7 884.9C2081.72 856.8 2054.62 834.04 2026.18 834.04H313.14C284.68 834.04 265.65 856.8 270.63 884.9L286.23 973.01L465.15 1983.48C470.12 2011.56 497.21 2034.32 525.67 2034.32H2238.7ZM507.23 2036.43V2090.69C507.23 2114.58 526.59 2133.94 550.48 2133.94H2998.94C3024.42 2133.94 3045.07 2113.29 3045.07 2087.81V2036.43H507.23Z" fill="white"/>
<path d="M2026.17 834.04H313.14C284.68 834.04 265.65 856.8 270.63 884.9L286.23 973.01L465.15 1983.48C470.12 2011.56 497.21 2034.32 525.67 2034.32H2238.7C2267.15 2034.32 2286.19 2011.56 2281.22 1983.48L2102.3 973.01L2086.7 884.9C2081.72 856.8 2054.62 834.04 2026.17 834.04Z" stroke="#191716" stroke-width="6.037" stroke-miterlimit="10" stroke-linecap="round" stroke-linejoin="round"/>
<path d="M1998.47 860.98H349.86C322.47 860.98 304.13 882.72 308.88 909.56L323.78 993.711L494.67 1958.82C499.42 1985.64 525.46 2007.38 552.85 2007.38H2201.46C2228.84 2007.38 2247.19 1985.64 2242.44 1958.82L2071.55 993.711L2056.65 909.56C2051.9 882.72 2025.85 860.98 1998.47 860.98Z" fill="#262421"/>
<path d="M1998.47 860.98H349.86C322.47 860.98 304.13 882.72 308.88 909.56L323.78 993.711L494.67 1958.82C499.42 1985.64 525.46 2007.38 552.85 2007.38H2201.46C2228.84 2007.38 2247.19 1985.64 2242.44 1958.82L2071.55 993.711L2056.65 909.56C2051.9 882.72 2025.85 860.98 1998.47 860.98ZM2998.08 2133.94H551.28C526.95 2133.94 507.23 2114.22 507.23 2089.89V2036.43H3045.07V2086.95C3045.07 2112.9 3024.03 2133.94 2998.08 2133.94Z" stroke="#191716" stroke-width="6.037" stroke-miterlimit="10" stroke-linecap="round" stroke-linejoin="round"/>
<path d="M182.04 1015.84H2.49023L138 914.22L26.2002 714.34L252.83 744.83L307.38 629.65L385.3 738.06" stroke="#FF79E4" stroke-width="4.786" stroke-miterlimit="10" stroke-linecap="round" stroke-linejoin="round"/>
<path d="M846.06 1560.89L1258.87 1233.64L1136.95 996.221L794.73 1284.97L846.06 1560.89Z" fill="white"/>
<path d="M2047.42 1535.38L1626.76 1225.08L1776.48 1021.89L2122.98 1276.42L2047.42 1535.38Z" fill="white"/>
<path d="M2300.26 912.51C2324.23 914.06 2350.15 912.9 2369.36 898.47C2372.27 896.28 2375.08 893.66 2376.24 890.21C2378.18 884.41 2374.72 877.9 2369.69 874.42C2364.66 870.94 2358.42 869.81 2352.39 868.83C2312.21 862.34 2271.52 858.99 2230.81 858.85C2200.66 858.74 2202.58 890.97 2224.54 902.6C2243 912.39 2279.93 911.2 2300.26 912.51ZM709.52 990.71L705.25 1276.58C704.22 1362.95 668.3 1569.94 811.12 1570.03C967.77 1570.13 900.97 1314.06 891.49 1225.08L862.57 966.18L709.52 990.71Z" fill="white"/>
<path d="M2424.4 760.85C2429.06 760.437 2432.45 761.18 2434.39 762.918C2436.11 764.452 2437.47 767.491 2436.46 773.729L2436.35 774.343V774.344C2435.31 780.033 2431.3 784.807 2426.62 789.785L2425.68 790.784C2418.98 797.834 2412.29 804.872 2405.58 811.91C2405.58 811.911 2405.58 811.913 2405.58 811.914L2409.92 816.051C2409.92 816.05 2409.92 816.049 2409.92 816.048C2410.33 815.618 2411.21 815.017 2412.74 814.374C2414.22 813.752 2416.1 813.176 2418.29 812.684C2422.68 811.699 2428.1 811.098 2433.57 811.047C2439.06 810.995 2444.46 811.496 2448.88 812.635C2453.42 813.806 2456.31 815.497 2457.57 817.351H2457.57C2458.02 818.018 2458.27 818.709 2458.34 819.474V819.475C2458.64 822.874 2457.4 825.83 2454.91 828.568C2452.35 831.371 2448.57 833.831 2444.13 835.997C2435.7 840.111 2426.06 842.674 2419.61 844.853L2418.37 845.283L2418.37 845.284C2393.31 854.197 2367.72 861.339 2342.14 869.509C2317.45 877.393 2292.95 886.182 2269.7 898.29L2267.45 899.473H2267.45C2247.37 910.159 2234.11 921.922 2226.03 936.749C2217.98 951.542 2215.28 969.024 2215.62 990.748V990.776L2215.64 991.702L2071.47 993.192L2068.58 966.177C2069.83 955.492 2070.2 944.058 2070.64 932.661C2071.1 921.082 2071.65 909.502 2073.27 898.426C2076.47 876.643 2083.76 857.28 2102.24 844.246L2103.13 843.63H2103.13C2121.75 830.937 2144.36 825.444 2167.95 823.509C2188.61 821.814 2209.8 822.858 2229.51 824.065L2237.85 824.585C2247.55 825.191 2257.17 826.633 2267 827.97C2276.16 829.216 2285.45 830.366 2294.84 830.572L2296.72 830.601H2296.72C2300.71 830.631 2305.04 830.467 2309.25 829.23L2309.25 829.231C2314.63 827.666 2319.28 824.484 2323.38 821.679L2398.93 770.109V770.108C2403.82 766.768 2415.16 761.667 2424.4 760.85Z" fill="white" stroke="black" stroke-width="6"/>
<path d="M1707.63 898.182C1755.25 894.659 1790.5 912.452 1825.48 948.134C1860.64 984.014 1895.18 1037.62 1941.37 1105.39L1941.58 1105.69L1941.85 1105.94C1946.81 1110.36 1967.81 1127.97 1987.59 1144.31C1997.5 1152.48 2007.12 1160.36 2014.3 1166.14C2017.89 1169.02 2020.89 1171.39 2023.02 1173.02C2023.37 1173.29 2023.7 1173.54 2024.02 1173.77L1841.15 1439.5L1693.18 1305.09C1652.94 1226.08 1623.8 1141.43 1606.85 1054.38L1606.05 1050.23C1603.84 1038.64 1604.65 1023.05 1608.32 1006.11C1611.99 989.215 1618.48 971.188 1627.45 954.791C1645.36 922.069 1672.61 896.739 1706.45 898.147L1707.25 898.186L1707.44 898.196L1707.63 898.182Z" fill="white" stroke="black" stroke-width="6"/>
<path d="M1714.8 1510.53C1765.09 1668.86 1801.73 1831.25 1820.19 1999.04H1495.65L1476.75 1916.35L1474.4 1906.08L1470.98 1916.05L1442.54 1999.04H1098.41C1107.58 1833.38 1131.19 1669.4 1231.79 1511.99L1714.8 1510.53ZM1345.85 865.434C1364.33 914.461 1398.34 954.926 1449.44 969.297V969.298C1509.1 986.078 1565.21 967.411 1601.53 922.271L1601.53 922.27C1604.82 918.174 1606.53 913.354 1607.66 908.604C1608.22 906.223 1608.65 903.804 1609.05 901.464C1609.3 899.959 1609.54 898.499 1609.79 897.068L1708.63 898.21L1741.67 1153.5L1741.72 1153.87L1741.85 1154.2C1764.63 1212.97 1750.27 1269.66 1739.25 1329.88L1738.2 1335.71C1735.69 1349.81 1735.15 1364.6 1735.19 1379.5C1735.22 1394.55 1735.82 1409.38 1735.62 1424.31C1735.24 1453.47 1731.77 1481.19 1715.44 1504.52L1231.58 1505.99C1227 1500.12 1223.41 1493.67 1220.57 1486.82L1219.98 1485.36C1212.63 1466.72 1210.8 1445.35 1210.09 1424.38L1209.96 1420.19V1420.19L1209.82 1414.87C1208.41 1359.95 1209.18 1304.08 1209.83 1249.65L1232.98 879.646L1345.85 865.434Z" fill="white" stroke="black" stroke-width="6"/>
<path d="M1229.72 880.091C1275.99 901.585 1299.8 946.648 1301.11 1015C1302.43 1083.76 1280.92 1175.52 1237.04 1288.82L1110.47 1426.59L917.411 1184.44L1010.77 1088.15L1011.12 1087.79L1011.33 1087.35C1077.98 947.291 1148.38 893.572 1229.72 880.091Z" fill="white" stroke="black" stroke-width="6"/>
<path d="M1207.54 1328.29L1281.33 1225.62" stroke="#191716" stroke-width="6.205" stroke-miterlimit="10" stroke-linecap="round" stroke-linejoin="round"/>
<path d="M1008.62 1086.06L984.561 1147.01" stroke="#191716" stroke-width="6.205" stroke-miterlimit="10" stroke-linecap="round" stroke-linejoin="round"/>
<path d="M1414.41 712.311L1379.42 891.881L1552.08 913.031L1577.75 783.121L1414.41 712.311Z" fill="white"/>
<path d="M1414.68 696.93C1435.26 725.54 1466.13 749.95 1496.17 767.98C1518.7 781.51 1544.26 791.04 1570.54 791.08C1596.81 791.12 1623.79 780.71 1640.18 760.16C1658.59 737.06 1658.84 709.28 1661.12 681.36C1663.26 655.23 1664.29 628.52 1660.74 602.9C1659.83 596.3 1658.61 589.77 1657.03 583.34C1651.68 561.53 1642.15 540.88 1626.13 522.52C1605.49 498.86 1575.07 484.63 1543.84 481.37C1486.13 475.34 1411.35 501.97 1387.48 558.54C1367.91 604.92 1386.71 658.07 1414.68 696.93ZM1366.91 862.83L1347.83 862.15C1385.6 1045.95 1597.35 1042.74 1607.31 894.03L1487.11 878.43L1366.91 862.83Z" fill="white"/>
<path d="M1454.37 498.684C1482.35 486.12 1514.36 481.023 1542.37 483.688L1543.7 483.821H1543.7C1573.79 486.963 1603.03 500.507 1623.09 522.887L1624.04 523.959V523.96C1639.21 541.343 1648.44 560.841 1653.78 581.518L1654.29 583.521V583.523C1655.65 589.054 1656.74 594.666 1657.59 600.341L1657.94 602.777V602.779C1661.22 626.486 1660.54 651.212 1658.69 675.69L1658.3 680.582V680.583C1655.99 708.882 1655.71 735.536 1638 757.757C1622.3 777.447 1596.27 787.586 1570.71 787.547L1569.52 787.539C1545.16 787.228 1521.33 778.595 1499.98 766.115L1497.88 764.875L1495.08 763.178C1466.61 745.736 1437.85 722.682 1418.24 695.962L1417.29 694.646L1417.29 694.645L1415.99 692.829C1389.22 654.806 1372.02 604.234 1389.98 560.229L1390.41 559.174C1401.97 531.785 1425.94 511.449 1454.37 498.684Z" fill="white" stroke="black" stroke-width="6"/>
<path d="M1558.59 652.355C1562.45 651.797 1564.77 645.758 1563.78 638.865C1562.78 631.972 1558.85 626.836 1554.99 627.393C1551.13 627.951 1548.81 633.99 1549.8 640.883C1550.8 647.776 1554.73 652.912 1558.59 652.355Z" fill="#231F20"/>
<path d="M1626.42 652.542C1630.31 652.207 1632.97 646.311 1632.37 639.372C1631.77 632.434 1628.14 627.081 1624.25 627.416C1620.37 627.751 1617.71 633.647 1618.3 640.586C1618.9 647.524 1622.54 652.877 1626.42 652.542Z" fill="#231F20"/>
<path d="M1539.5 615.56C1535.96 616.76 1532.31 617.98 1528.58 617.76C1524.85 617.55 1520.97 615.55 1519.65 612.06C1519.23 610.94 1519.09 609.7 1519.4 608.54C1519.81 607.04 1520.92 605.85 1522.04 604.77C1533.24 594.06 1548.74 589.18 1563.93 586.12C1568.01 585.3 1572.94 584.86 1575.66 588.01C1587.45 601.73 1545.72 613.45 1539.5 615.56ZM1601.3 606.48C1602.61 609.97 1606.49 611.97 1610.22 612.18C1613.95 612.4 1617.6 611.18 1621.15 609.98C1624.15 608.96 1635.48 605.69 1645.04 601.02C1653.51 589.84 1649.3 584.78 1641.33 581.46C1627.54 584.56 1613.84 589.48 1603.68 599.19C1602.55 600.27 1601.44 601.46 1601.04 602.96C1600.74 604.11 1600.88 605.36 1601.3 606.48Z" fill="#231F20"/>
<path d="M1486.06 640.11C1482.28 641.25 1478.29 641.34 1474.57 639.96C1470.89 660.81 1470.56 684.07 1465 704.31C1461.12 718.44 1457.72 738.15 1449.24 750.28C1434.65 771.13 1403.43 768.85 1388.18 750.19C1379.47 739.54 1375.58 725.67 1367.31 714.67C1355.2 698.55 1335.02 690.2 1322.25 674.59C1308.49 657.77 1306.11 633.1 1314.55 613.34C1318.79 603.42 1326.12 596.16 1329.55 585.77C1333.51 573.78 1334.16 561.08 1336.96 548.82C1341.11 530.65 1351.66 514.57 1363.6 500.26C1389.61 469.22 1409.13 466.05 1446.52 463.16C1449.75 462.91 1453.03 462.65 1456.08 461.54C1459.57 460.27 1462.56 457.95 1465.6 455.81C1494.92 435.11 1533.92 428.78 1568.28 439.16C1592.23 446.39 1610.9 462.13 1626.89 480.87C1644.03 500.97 1652.51 527.98 1656.74 553.98C1657 555.6 1657.22 557.38 1656.34 558.76C1655.33 560.36 1653.26 560.86 1651.39 561.18C1607.19 568.94 1560.47 561.48 1520.88 540.36C1518.38 563.04 1514.29 585.55 1508.67 607.67C1506.48 616.28 1503.91 625.11 1498.22 631.93C1495.09 635.71 1490.73 638.71 1486.06 640.11Z" fill="#231F20"/>
<path d="M1592.29 677.48C1605.54 673.4 1626.26 670.63 1635.59 660.77C1637.87 658.37 1638.84 654.78 1636.9 652.23C1634.57 649.16 1629.46 648.9 1625.14 649.15C1612.81 649.85 1600.57 652.08 1588.93 655.74L1592.29 677.48Z" fill="white"/>
<path d="M1592.29 677.48C1605.54 673.4 1626.26 670.63 1635.59 660.77C1637.87 658.37 1638.84 654.78 1636.9 652.23C1634.57 649.16 1629.46 648.9 1625.14 649.15C1612.81 649.85 1600.57 652.08 1588.93 655.74" stroke="#191716" stroke-width="6.205" stroke-miterlimit="10" stroke-linecap="round" stroke-linejoin="round"/>
<path d="M1472.52 704.804C1496.78 680.544 1496.78 641.212 1472.52 616.953C1448.26 592.694 1408.93 592.695 1384.67 616.955C1360.41 641.214 1360.41 680.547 1384.67 704.806C1408.93 729.065 1448.26 729.064 1472.52 704.804Z" fill="white"/>
<path d="M1474.41 656.75C1472.13 631.46 1449.78 612.8 1424.49 615.08C1399.2 617.36 1380.54 639.71 1382.82 665" stroke="#191716" stroke-width="6.205" stroke-miterlimit="10" stroke-linecap="round" stroke-linejoin="round"/>
<path d="M1428.39 615.841L1461.23 684.901" stroke="#191716" stroke-width="6.205" stroke-miterlimit="10" stroke-linecap="round" stroke-linejoin="round"/>
<path d="M1565.86 683.041C1564.86 683.021 1563.87 683.031 1562.88 683.061C1561.4 683.101 1559.85 683.161 1558.56 683.881C1556.65 684.951 1555.73 687.291 1555.83 689.471C1555.93 691.651 1556.9 693.701 1558.01 695.581C1564.02 705.751 1572.65 710.211 1584.45 709.631C1588.68 709.421 1593.13 708.251 1596.72 705.701C1599.92 703.421 1605.21 698.551 1602.98 694.321C1601.18 690.891 1596.48 689.211 1593.07 688.031C1584.49 685.061 1574.99 683.181 1565.86 683.041ZM1502.57 592.651L1477.27 580.521C1472.05 578.021 1469.91 571.711 1472.53 566.551L1472.88 565.871C1475.47 560.781 1481.7 558.761 1486.78 561.371L1511.73 574.181C1516.92 576.851 1518.87 583.291 1516.02 588.381C1513.38 593.131 1507.48 595.001 1502.57 592.651Z" fill="white"/>
<path d="M2051.33 1220.81L2044.91 1429.35" stroke="#191716" stroke-width="6.205" stroke-miterlimit="10" stroke-linecap="round" stroke-linejoin="round"/>
<path d="M889.91 1204.76L894.72 1416.51" stroke="#191716" stroke-width="6.205" stroke-miterlimit="10" stroke-linecap="round" stroke-linejoin="round"/>
<path d="M2362.29 867.91C2332.01 877.25 2301.95 887.18 2273.86 902.12C2268.92 904.75 2264.42 907.43 2260.32 910.2" stroke="#191716" stroke-width="6.205" stroke-miterlimit="10" stroke-linecap="round" stroke-linejoin="round"/>
<path d="M2417.08 810.141L2353.71 857.461" stroke="#191716" stroke-width="6.205" stroke-miterlimit="10" stroke-linecap="round" stroke-linejoin="round"/>
<path d="M2316.82 824.58L2290.35 839.82C2237.36 828.4 2182.52 831.52 2126.73 842.23" stroke="#191716" stroke-width="6.205" stroke-miterlimit="10" stroke-linecap="round" stroke-linejoin="round"/>
<path d="M2234.2 936.87L2206.93 972.16" stroke="#191716" stroke-width="6.205" stroke-miterlimit="10" stroke-linecap="round" stroke-linejoin="round"/>
<path d="M632.879 912.511C608.909 914.061 582.989 912.901 563.779 898.471C560.869 896.281 558.059 893.661 556.899 890.211C554.959 884.411 558.419 877.901 563.449 874.421C568.479 870.941 574.719 869.811 580.749 868.831C620.929 862.341 661.619 858.991 702.329 858.851C732.479 858.741 730.559 890.971 708.599 902.601C690.149 912.391 653.219 911.201 632.879 912.511Z" fill="white"/>
<path d="M508.77 848.111C558.97 865.971 611.92 876.931 659.28 902.121C698.81 923.151 710.19 947.731 709.52 990.701L709.42 994.671L859.36 996.221L862.58 966.171C857.5 923.621 866.97 868.581 826.7 841.151C788.26 814.951 733.96 818.851 690.1 821.591C670.44 822.821 651.03 827.441 631.4 827.601C627.47 827.631 623.5 827.461 619.73 826.351C614.88 824.941 610.62 822.051 606.45 819.201C581.27 802.011 556.08 784.811 530.9 767.631C520.47 760.511 483.63 746.281 488.84 774.881C490.13 781.971 495.32 787.621 500.29 792.851C506.99 799.901 513.68 806.941 520.39 813.981C513.81 807.061 475.63 804.511 468.08 815.681C467.37 816.741 466.93 817.911 466.81 819.211C465.25 836.901 496.75 843.841 508.77 848.111Z" fill="white"/>
<path d="M570.85 867.911C601.13 877.251 631.19 887.181 659.28 902.121C664.22 904.751 668.72 907.431 672.82 910.201" stroke="#191716" stroke-width="6.205" stroke-miterlimit="10" stroke-linecap="round" stroke-linejoin="round"/>
<path d="M516.07 810.141L579.43 857.461" stroke="#191716" stroke-width="6.205" stroke-miterlimit="10" stroke-linecap="round" stroke-linejoin="round"/>
<path d="M616.33 824.581L642.8 839.821C695.79 828.401 750.63 831.521 806.42 842.231" stroke="#191716" stroke-width="6.205" stroke-miterlimit="10" stroke-linecap="round" stroke-linejoin="round"/>
<path d="M698.939 936.871L726.209 972.161" stroke="#191716" stroke-width="6.205" stroke-miterlimit="10" stroke-linecap="round" stroke-linejoin="round"/>
<path d="M1716.99 1507.51H1230.14" stroke="#191716" stroke-width="6.205" stroke-miterlimit="10" stroke-linecap="round" stroke-linejoin="round"/>
<path d="M1738.84 1355.72C1770.26 1297.62 1756.54 1211.15 1729.83 1116.53" stroke="#191716" stroke-width="6.205" stroke-miterlimit="10" stroke-linecap="round" stroke-linejoin="round"/>
<path d="M1473.83 1917.02L1528.25 1754.78" stroke="#191716" stroke-width="6.205" stroke-miterlimit="10" stroke-linecap="round" stroke-linejoin="round"/>
<path d="M2072.85 927.78L2036.83 1387.52C2036.25 1437.6 2035.65 1486.29 2045.41 1535.38C2081.33 1558.82 2120.51 1575.23 2166.44 1570.66C2195.34 1567.76 2223.85 1554.75 2242.05 1532.11C2252.46 1519.16 2259.1 1503.56 2262.08 1487.21C2262.26 1485.45 2262.37 1483.71 2262.41 1481.97C2262.68 1471.63 2262.86 1461.29 2262.92 1450.95C2264.55 1270.22 2228.08 1113.44 2224.69 932.06H2128.5L2072.85 927.78Z" fill="white"/>
<path d="M2047.86 1535.6C2083.78 1559.04 2122.96 1575.45 2168.89 1570.88C2197.79 1567.98 2226.3 1554.97 2244.5 1532.33C2254.91 1519.38 2261.55 1503.78 2264.53 1487.43C2264.71 1485.67 2264.82 1483.93 2264.86 1482.19C2265.13 1471.85 2265.31 1461.51 2265.37 1451.17C2267 1270.44 2230.53 1113.66 2227.14 932.28" stroke="black" stroke-width="6"/>
<path d="M2801.9 2037.38V2014.35C2801.9 2002.04 2783.98 1992.06 2761.86 1992.06H2687.51C2665.4 1992.06 2647.47 2002.04 2647.47 2014.35V2035.9L2801.9 2037.38ZM2604.45 2037.38V2014.35C2604.45 2002.04 2586.53 1992.06 2564.41 1992.06H2490.06C2467.95 1992.06 2450.02 2002.04 2450.02 2014.35V2035.9L2604.45 2037.38ZM2407.63 2037.38V2014.35C2407.63 2002.04 2389.71 1992.06 2367.59 1992.06H2293.24C2271.13 1992.06 2253.2 2002.04 2253.2 2014.35V2035.9L2407.63 2037.38Z" fill="white"/>
<path d="M2801.9 2037.38V2014.35C2801.9 2002.04 2783.98 1992.06 2761.86 1992.06H2687.51C2665.4 1992.06 2647.47 2002.04 2647.47 2014.35V2035.9L2801.9 2037.38ZM2604.45 2037.38V2014.35C2604.45 2002.04 2586.53 1992.06 2564.41 1992.06H2490.06C2467.95 1992.06 2450.02 2002.04 2450.02 2014.35V2035.9L2604.45 2037.38ZM2407.63 2037.38V2014.35C2407.63 2002.04 2389.71 1992.06 2367.59 1992.06H2293.24C2271.13 1992.06 2253.2 2002.04 2253.2 2014.35V2035.9L2407.63 2037.38Z" stroke="#191716" stroke-width="6.037" stroke-miterlimit="10" stroke-linecap="round" stroke-linejoin="round"/>
<path d="M2210.81 2037.38V2014.35C2210.81 2002.04 2192.89 1992.06 2170.77 1992.06H2096.42C2074.31 1992.06 2056.38 2002.04 2056.38 2014.35V2035.9L2210.81 2037.38Z" fill="white"/>
<path d="M2210.81 2037.38V2014.35C2210.81 2002.04 2192.89 1992.06 2170.77 1992.06H2096.42C2074.31 1992.06 2056.38 2002.04 2056.38 2014.35V2035.9L2210.81 2037.38Z" stroke="#191716" stroke-width="6.037" stroke-miterlimit="10" stroke-linecap="round" stroke-linejoin="round"/>
<path d="M2001.15 2037.38V2014.35C2001.15 2002.04 1983.23 1992.06 1961.11 1992.06H1886.76C1864.65 1992.06 1846.72 2002.04 1846.72 2014.35V2035.9L2001.15 2037.38Z" fill="#BF87FF"/>
<path d="M2001.15 2037.38V2014.35C2001.15 2002.04 1983.23 1992.06 1961.11 1992.06H1886.76C1864.65 1992.06 1846.72 2002.04 1846.72 2014.35V2035.9L2001.15 2037.38Z" stroke="#191716" stroke-width="6.037" stroke-miterlimit="10" stroke-linecap="round" stroke-linejoin="round"/>
<path d="M1800.06 2037.38V2014.35C1800.06 2002.04 1782.14 1992.06 1760.02 1992.06H1685.67C1663.56 1992.06 1645.63 2002.04 1645.63 2014.35V2035.9L1800.06 2037.38Z" fill="#BF87FF"/>
<path d="M1800.06 2037.38V2014.35C1800.06 2002.04 1782.14 1992.06 1760.02 1992.06H1685.67C1663.56 1992.06 1645.63 2002.04 1645.63 2014.35V2035.9L1800.06 2037.38Z" stroke="#191716" stroke-width="6.037" stroke-miterlimit="10" stroke-linecap="round" stroke-linejoin="round"/>
<path d="M1576.45 2037.38V2014.35C1576.45 2002.04 1558.53 1992.06 1536.41 1992.06H1462.06C1439.95 1992.06 1422.02 2002.04 1422.02 2014.35V2035.9L1576.45 2037.38Z" fill="white"/>
<path d="M1576.45 2037.38V2014.35C1576.45 2002.04 1558.53 1992.06 1536.41 1992.06H1462.06C1439.95 1992.06 1422.02 2002.04 1422.02 2014.35V2035.9L1576.45 2037.38Z" stroke="#191716" stroke-width="6.037" stroke-miterlimit="10" stroke-linecap="round" stroke-linejoin="round"/>
<path d="M1358.09 2037.38V2014.35C1358.09 2002.04 1340.17 1992.06 1318.05 1992.06H1243.7C1221.59 1992.06 1203.66 2002.04 1203.66 2014.35V2035.9L1358.09 2037.38Z" fill="white"/>
<path d="M1358.09 2037.38V2014.35C1358.09 2002.04 1340.17 1992.06 1318.05 1992.06H1243.7C1221.59 1992.06 1203.66 2002.04 1203.66 2014.35V2035.9L1358.09 2037.38Z" stroke="#191716" stroke-width="6.037" stroke-miterlimit="10" stroke-linecap="round" stroke-linejoin="round"/>
<path d="M1126.66 2037.38V2014.35C1126.66 2002.04 1108.74 1992.06 1086.62 1992.06H1012.27C990.161 1992.06 972.23 2002.04 972.23 2014.35V2035.9L1126.66 2037.38Z" fill="white"/>
<path d="M1126.66 2037.38V2014.35C1126.66 2002.04 1108.74 1992.06 1086.62 1992.06H1012.27C990.161 1992.06 972.23 2002.04 972.23 2014.35V2035.9L1126.66 2037.38Z" stroke="#191716" stroke-width="6.037" stroke-miterlimit="10" stroke-linecap="round" stroke-linejoin="round"/>
<path d="M904.821 2037.38V2014.35C904.821 2002.04 886.901 1992.06 864.781 1992.06H790.431C768.321 1992.06 750.391 2002.04 750.391 2014.35V2035.9L904.821 2037.38Z" fill="white"/>
<path d="M904.821 2037.38V2014.35C904.821 2002.04 886.901 1992.06 864.781 1992.06H790.431C768.321 1992.06 750.391 2002.04 750.391 2014.35V2035.9L904.821 2037.38Z" stroke="#191716" stroke-width="6.037" stroke-miterlimit="10" stroke-linecap="round" stroke-linejoin="round"/>
<path d="M2319.38 216L2314.03 212.078C2331.44 188.105 2346.2 162.325 2358.05 135.188C2370.67 106.161 2370.83 96.2393 2369.93 88.5971C2366.56 59.3357 2341.54 41.0347 2330.98 34.5322C2308.95 21.1249 2276.3 13.3151 2252.99 26.957C2243.74 32.387 2239.94 38.9566 2229.85 56.5537C2226.96 61.5814 2223.7 67.2795 2219.76 74.0837C2207.39 94.8985 2194.17 115.311 2180.52 134.718L2175 130.864C2188.45 111.624 2201.7 91.3456 2213.98 70.5308C2218.01 63.8271 2221.28 58.0955 2224.07 53.1013C2234.53 34.9009 2238.87 27.3593 2249.66 21.0578C2275.36 6.00814 2310.84 14.0525 2334.58 28.7C2345.98 35.7388 2372.82 55.5146 2376.65 87.6921C2377.9 98.1163 2376.25 110.149 2364.28 137.701C2352.2 165.345 2337.15 191.598 2319.38 216Z" fill="black"/>
<path d="M2478 229C2463.66 219.28 2449.12 208.964 2434.38 198.051C2428.84 193.967 2423.4 189.85 2418.07 185.766C2365.16 163.806 2311.41 141.924 2256.8 120.122C2204.45 99.2416 2152.52 78.8676 2101 59L2125.46 148.033L2478 229Z" fill="white"/>
<path d="M2478.28 232.976C2478.01 233.008 2477.74 233.008 2477.47 232.976L2124.4 152.242C2123.74 152.085 2123.13 151.756 2122.64 151.289C2122.15 150.822 2121.8 150.233 2121.61 149.583L2097.14 60.7356C2096.95 60.0692 2096.95 59.3625 2097.14 58.6959C2097.33 58.0293 2097.71 57.4295 2098.22 56.9648C2098.75 56.4884 2099.4 56.1722 2100.1 56.053C2100.81 55.9338 2101.53 56.0165 2102.18 56.2915C2208.64 97.0207 2314.56 139.153 2419.91 182.677C2420.21 182.788 2420.5 182.947 2420.75 183.149C2426.13 187.256 2431.6 191.397 2437.01 195.403C2451.23 205.907 2465.85 216.243 2480.5 226.141C2481.12 226.605 2481.58 227.25 2481.82 227.989C2482.06 228.727 2482.06 229.522 2481.83 230.262C2481.59 231.002 2481.14 231.652 2480.52 232.12C2479.9 232.588 2479.15 232.852 2478.38 232.875L2478.28 232.976ZM2128.23 145.442L2460 221.26C2445.27 210.964 2430.76 200.356 2416.48 189.444C2363.25 167.46 2308.95 145.677 2255.49 124.198C2206.36 104.536 2155.95 84.9757 2106.32 65.9202L2128.23 145.442Z" fill="black"/>
<path d="M2130.59 91.1697C2123.5 87.1344 2117.1 81.9797 2111.65 75.9043C2107.3 71.1056 2103.6 65.759 2100.63 60C2014.4 202.948 1928.19 345.907 1842 488.878C1842 488.878 1898.19 516.988 1893.02 568.87L2318.55 738C2371.71 568.422 2424.86 398.843 2478 229.265C2466.45 226.709 2454.71 223.963 2442.8 221.027C2442.8 221.027 2400.38 210.603 2364.67 199.608C2325.04 187.436 2238.82 150.685 2130.59 91.1697Z" fill="#77CBD8"/>
<path d="M2318.81 742C2318.25 741.986 2317.71 741.872 2317.19 741.664L1890.85 572.454C1889.97 572.098 1889.23 571.467 1888.73 570.655C1888.23 569.844 1888.01 568.894 1888.09 567.947C1892.94 519.707 1839.94 492.526 1839.4 492.256C1838.85 491.993 1838.37 491.617 1837.98 491.153C1837.59 490.689 1837.31 490.148 1837.14 489.565C1837 489.001 1836.96 488.414 1837.04 487.836C1837.12 487.259 1837.32 486.703 1837.62 486.201L2096.74 57.1227C2097.14 56.4508 2097.71 55.8992 2098.4 55.5261C2099.08 55.1531 2099.86 54.9725 2100.64 55.0034C2101.42 55.0337 2102.19 55.2707 2102.85 55.6901C2103.51 56.1096 2104.05 56.6968 2104.41 57.3919C2110.8 69.7043 2120.62 79.9042 2132.68 86.7596C2237 143.948 2325.2 182.264 2366.36 194.912C2401.59 205.711 2443.93 216.139 2444.36 216.24C2455.97 219.099 2467.92 221.858 2479.56 224.448C2480.15 224.585 2480.71 224.841 2481.19 225.2C2481.68 225.558 2482.09 226.012 2482.39 226.534C2482.7 227.061 2482.9 227.648 2482.97 228.257C2483.04 228.866 2482.98 229.482 2482.8 230.066L2323.01 738.838C2322.83 739.416 2322.53 739.95 2322.13 740.407C2321.73 740.864 2321.24 741.235 2320.69 741.495C2320.11 741.798 2319.47 741.97 2318.81 742ZM1897.11 565.424L2316.05 731.706L2472.94 231.782C2462.67 229.494 2452.37 227.072 2442.24 224.583C2441.81 224.583 2399.2 213.986 2363.73 203.087C2325.2 191.245 2240.43 155.621 2128.4 94.2277C2120.83 90.0003 2114.01 84.5563 2108.21 78.1141C2105.33 74.9719 2102.7 71.5964 2100.37 68.0221L1847.44 486.84C1860.6 494.342 1899.54 521.052 1897.11 565.424Z" fill="black"/>
<path d="M2478 229.131L2130.58 91L1893 568.825L2318.55 738L2478 229.131Z" fill="#77CBD8"/>
<path d="M2318.77 741.998C2318.21 741.999 2317.65 741.896 2317.12 741.696L1890.87 572.517C1890.29 572.298 1889.76 571.957 1889.31 571.516C1888.87 571.075 1888.53 570.545 1888.31 569.961C1888.08 569.379 1887.98 568.753 1888 568.127C1888.03 567.5 1888.2 566.887 1888.48 566.329L2126.45 88.4922C2126.97 87.4857 2127.84 86.7054 2128.89 86.3017C2129.95 85.898 2131.12 85.8995 2132.17 86.306L2480.16 224.44C2481.22 224.863 2482.08 225.67 2482.57 226.699C2483.05 227.729 2483.13 228.905 2482.79 229.99L2323.08 738.87C2322.9 739.465 2322.59 740.015 2322.19 740.484C2321.78 740.954 2321.28 741.332 2320.72 741.595C2320.11 741.879 2319.44 742.017 2318.77 741.998ZM1898.74 565.959L2315.94 731.538L2472.96 231.268L2132.68 96.228L1898.74 565.959Z" fill="black"/>
<path d="M2344.91 220L2338.94 216.872C2352.83 190.586 2363.83 162.877 2371.73 134.232C2380.1 103.624 2378.85 93.8704 2376.86 86.3026C2369.19 57.7133 2341.84 43.0822 2330.43 38.1043C2306.59 27.7449 2273.02 24.8187 2251.81 41.636C2243.4 48.3629 2240.57 55.4261 2233.04 74.3623C2230.87 79.7439 2228.44 85.8654 2225.4 93.1977C2216.13 115.52 2205.99 137.478 2195.01 159.02L2189 155.96C2199.74 134.871 2209.87 112.908 2219.12 90.6415C2222.16 83.3428 2224.59 77.1877 2226.72 71.8734C2234.52 52.2981 2237.76 44.1922 2247.59 36.389C2270.99 17.7891 2307.4 20.7825 2333.1 31.9492C2345.42 37.3307 2374.94 53.1726 2383.34 84.5536C2386.05 94.644 2386.15 106.921 2378.21 136.014C2370.17 165.118 2359.01 193.276 2344.91 220Z" fill="black"/>
<path d="M2312.53 590L2305.79 584.521C2306.13 584.084 2339.46 541.794 2357.2 454.961C2359.15 446.518 2360.09 437.874 2359.99 429.211C2350.6 454.827 2344 460.407 2339.79 462.256C2338.53 462.845 2337.15 463.15 2335.75 463.15C2334.36 463.15 2332.98 462.845 2331.71 462.256C2323.63 458.457 2321.35 449.482 2325.59 438.254C2330.5 425.244 2345.32 407.999 2357.33 409.881C2375.72 350.884 2392.18 256.286 2392.35 255.244L2401 256.723C2400.83 257.731 2383.86 355.187 2365.04 414.722C2369.93 421.445 2370.2 435.497 2365.85 456.81C2347.57 545.861 2313.91 588.252 2312.53 590ZM2354.34 418.554C2348.55 419.529 2337.84 430.118 2333.6 441.346C2331.82 446.053 2330.67 452.171 2335.28 454.323C2335.28 454.323 2335.62 454.491 2336.09 454.323C2338.35 453.247 2344.47 447.801 2354.3 418.487L2354.34 418.554ZM2018.28 452.541L2010 449.583C2010.34 448.675 2042.32 358.515 2046.46 333.907C2050.8 308.157 2127.26 176.58 2130.46 171L2138.07 175.404C2110.8 222.266 2058.38 315.989 2055.11 335.353C2050.84 360.733 2019.59 448.776 2018.28 452.541Z" fill="white"/>
<path d="M2016.78 486.686L2045.2 415.121L2053.36 418.361L2024.94 489.925L2016.78 486.686Z" fill="white"/>
<path d="M2190.52 600.462C2137.44 548.24 2119.74 411.864 2119 406.077L2127.7 405C2127.9 406.38 2145.77 544.102 2196.67 594.204L2190.52 600.462ZM2272.12 633C2199.73 567.487 2175.3 470.311 2175.07 469.335L2183.57 467.249C2183.8 468.191 2207.65 562.81 2278 626.472L2272.12 633Z" fill="white"/>
<path d="M2221.99 175H2215.26C2215.43 151.483 2214.65 127.26 2212.97 103.205C2212.4 95.3431 2211.83 88.8254 2211.35 83.0468C2209.54 62.1163 2208.8 53.4484 2214.08 42.0929C2226.63 15.2158 2260.46 1.54209 2288.36 0.131041C2301.82 -0.540886 2335.14 0.500621 2356.68 24.8244C2363.65 32.7195 2369.17 43.5711 2375.06 73.1023C2380.93 102.676 2383.56 132.798 2382.9 162.939H2376.17C2376.81 133.285 2374.24 103.648 2368.5 74.5469C2362.27 43.4367 2356.75 35.2056 2351.67 29.3935C2332.08 7.25348 2301.18 6.34639 2288.73 6.98472C2262.85 8.29498 2231.51 20.4233 2220.21 45.0494C2215.7 54.7923 2216.34 62.3515 2218.09 82.61C2218.56 88.3886 2219.13 94.9399 2219.7 102.768C2221.38 126.924 2222.16 151.247 2221.99 175Z" fill="black"/>
<path d="M2521 82.3106C2503.69 82.5122 2485.88 82.3442 2467.57 81.8065C2460.71 81.5825 2453.92 81.3136 2447.19 81C2391.04 93.2995 2334.34 106.025 2277.08 119.175C2222.03 131.923 2167.67 144.872 2114 158.023L2184.61 217L2521 82.3106Z" fill="white"/>
<path d="M2184.47 221C2183.58 221.002 2182.72 220.694 2182.04 220.129L2111.35 161.328C2110.81 160.893 2110.41 160.316 2110.19 159.664C2109.97 159.012 2109.94 158.311 2110.1 157.643C2110.25 156.968 2110.59 156.35 2111.08 155.858C2111.57 155.366 2112.19 155.021 2112.86 154.862C2166.96 141.661 2221.9 128.628 2276.17 116.097C2332.6 103.097 2389.93 90.2981 2446.52 78.0354C2446.84 77.9882 2447.17 77.9882 2447.49 78.0354C2472.04 79.1581 2496.62 79.5827 2521.19 79.3086C2522.07 79.2907 2522.93 79.5842 2523.62 80.1373C2524.3 80.6903 2524.77 81.4672 2524.93 82.3302C2525.1 83.1932 2524.95 84.0865 2524.52 84.852C2524.09 85.6174 2523.39 86.2055 2522.57 86.5121L2185.78 220.698C2185.37 220.886 2184.92 220.989 2184.47 221ZM2121.82 160.39L2185.11 213.026L2501.56 86.8136C2490.25 86.8136 2478.9 86.5791 2467.63 86.2441C2460.89 86.043 2454.16 85.775 2447.63 85.4735C2391.21 97.7027 2334.11 110.468 2277.86 123.434C2226.18 135.328 2173.59 147.759 2121.82 160.39Z" fill="black"/>
<path d="M2156.43 167.265C2141.75 168.575 2127.01 165.599 2114 158.698L2145.13 658.31C2145.13 658.31 2207.39 649.44 2232.54 695L2679 591.785C2626.29 422.179 2573.56 252.584 2520.82 83C2509.84 87.4798 2498.63 91.9036 2487.2 96.2715C2487.2 96.2715 2446.39 111.861 2410.75 123.15C2371.22 135.616 2279.24 154.397 2156.43 167.265Z" fill="black"/>
<path d="M2231.91 698L2231.1 696.552C2206.9 652.78 2146.45 660.794 2145.84 660.895L2143.49 661.198L2112 154.254L2115.36 156.072C2127.97 162.817 2142.26 165.72 2156.49 164.422C2274.82 152.065 2369.26 133.344 2410.32 120.314C2445.48 109.135 2486.24 93.5793 2486.65 93.3773C2497.84 89.1011 2509.16 84.623 2520.25 79.9091L2522.47 79L2682 593.453L2231.91 698ZM2157.54 655.878C2177.1 655.878 2215.07 660.39 2234.09 692.916L2676.52 590.355L2519.82 85.0944C2509.4 89.3369 2498.81 93.512 2488.33 97.5188C2487.89 97.5188 2447.02 113.277 2411.77 124.455C2373.49 136.61 2283.8 155.5 2157.03 168.766C2143.25 170.016 2129.39 167.564 2116.87 161.661L2147.62 656.249C2149.71 656.08 2153.17 655.878 2157.54 655.878Z" fill="black"/>
<path d="M2521.03 83L2157 167.266L2233.12 695L2679 591.785L2521.03 83Z" fill="#EAB444"/>
<path d="M2230.84 698L2230.5 695.645L2154 165.302L2155.95 164.831L2522.48 80L2523.08 81.9509L2682 593.593L2230.84 698ZM2159.08 168.665L2234.67 692.652L2676.62 590.364L2519.55 85.2136L2159.08 168.665Z" fill="black"/>
<path d="M2241.92 188C2238.72 164.414 2234.52 140.659 2229.41 117.038C2227.76 109.322 2226.28 102.92 2224.97 97.2932C2220.22 76.7393 2218.24 68.2482 2221.87 56.2191C2230.45 27.6121 2261.96 9.38309 2289.37 4.02559C2302.52 1.43108 2335.71 -2.27536 2360.43 18.8177C2368.47 25.5567 2375.46 35.6651 2385.49 64.1374C2395.5 92.6629 2402.38 122.197 2406 152.216L2399.27 153.025C2395.68 123.494 2388.91 94.438 2379.1 66.3612C2368.54 36.3727 2361.91 28.9935 2356.03 23.973C2333.53 4.76688 2302.75 8.23745 2290.61 10.495C2265.16 15.4819 2236 32.1272 2228.23 58.0386C2225.13 68.3155 2226.85 75.7621 2231.59 95.6084C2232.9 101.303 2234.38 107.705 2236.06 115.488C2241.18 139.075 2245.41 163.302 2248.64 186.955L2241.92 188Z" fill="black"/>
<path d="M2589.83 473.671L2581.1 473.034C2581.1 472.496 2584.46 418.82 2549.57 337.516C2546.37 329.472 2542.23 321.832 2537.23 314.756C2543.96 341.141 2541.84 349.433 2539.38 353.394C2538.67 354.599 2537.7 355.631 2536.53 356.414C2535.37 357.198 2534.05 357.714 2532.66 357.926C2523.86 359.403 2516.87 353.327 2513.94 341.678C2510.58 328.251 2512.97 305.659 2524.02 300.355C2505.47 241.509 2465.17 154.498 2464.8 153.693L2472.77 150C2473.17 150.906 2514.71 240.636 2533.07 300.053C2541 302.906 2549.1 314.186 2557.7 334.159C2593.5 417.511 2590 471.422 2589.83 473.671ZM2526.58 309.184C2522.38 313.279 2519.62 328.049 2522.55 339.664C2523.76 344.565 2526.28 350.205 2531.28 349.399C2531.49 349.399 2531.65 349.399 2531.92 348.862C2533.23 346.714 2535.18 338.758 2526.58 309.083V309.184ZM2261.59 530C2261.32 529.06 2236.32 436.88 2225.7 414.322C2214.64 390.823 2202.5 239.293 2202 232.882L2210.74 232.177C2215.04 286.122 2225.33 392.837 2233.66 410.595C2244.55 433.825 2269.02 523.89 2270.06 527.717L2261.59 530Z" fill="black"/>
<path d="M2270.84 482.381L2279.39 480.404L2296.74 555.425L2288.19 557.402L2270.84 482.381Z" fill="white"/>
<path d="M2495.37 552C2421.98 539.308 2329.9 437.201 2326 432.858L2332.52 427C2333.46 428.044 2426.45 531.161 2496.85 543.348L2495.37 552ZM2580.99 532.238C2484.17 519.647 2408.83 453.596 2408.06 452.922L2413.91 446.358C2414.62 446.997 2488.04 511.298 2582 523.553L2580.99 532.238Z" fill="black"/>
<path d="M2341.13 193L2334.77 190.822C2344.45 162.853 2351.07 133.927 2354.52 104.544C2358.08 73.1155 2355.36 63.5999 2352.26 56.5636C2340.42 29.4238 2311.26 19.3719 2299.25 16.0213C2274.2 9.32014 2240.73 11.5651 2222.4 31.3336C2215.13 39.2075 2213.42 46.6123 2208.94 66.3808C2207.63 72.0098 2206.19 78.4095 2204.3 86.0824C2198.52 109.537 2191.82 132.991 2184.39 155.44L2178 153.362C2185.37 131.014 2192.03 107.828 2197.74 84.5076C2199.63 76.8682 2201.11 70.5021 2202.39 64.8731C2207.09 44.4344 2209.11 35.9909 2217.52 26.8103C2237.7 4.99787 2274.06 2.41793 2301.07 9.5547C2313.99 12.9053 2345.47 24.1298 2358.48 53.7826C2362.72 63.4323 2364.67 75.3939 2361.24 105.214C2357.74 135.115 2351 164.549 2341.13 193Z" fill="black"/>
<path d="M2497 158.506C2480.48 153.38 2463.43 147.782 2446.38 141.645C2439.9 139.352 2433.52 136.991 2427.24 134.63C2370.12 129.1 2312.33 123.884 2253.85 118.983C2197.58 114.307 2141.97 109.979 2087 106L2136.11 184L2497 158.506Z" fill="white"/>
<path d="M2135.93 187.966C2135.3 187.973 2134.67 187.815 2134.12 187.51C2133.56 187.205 2133.1 186.761 2132.77 186.224L2083.57 108.701C2083.2 108.12 2083 107.446 2083 106.757C2083 106.069 2083.2 105.394 2083.57 104.813C2083.91 104.238 2084.41 103.765 2085 103.447C2085.59 103.128 2086.26 102.975 2086.93 103.003C2142.42 106.858 2198.68 111.181 2254.13 115.773C2311.74 120.532 2370.19 125.828 2427.83 131.324C2428.16 131.367 2428.49 131.446 2428.8 131.559C2435.16 133.939 2441.62 136.285 2447.91 138.497C2464.72 144.396 2481.53 150.026 2498.35 155.255C2499.19 155.508 2499.91 156.045 2500.39 156.773C2500.87 157.502 2501.08 158.375 2500.98 159.241C2500.88 160.107 2500.47 160.91 2499.84 161.511C2499.21 162.111 2498.38 162.471 2497.51 162.528L2136 188L2135.93 187.966ZM2093.86 110.88L2137.91 180.325L2477.57 156.394C2466.84 153.043 2456.08 149.255 2445.48 145.502C2439.26 143.323 2432.97 141.011 2426.69 138.798C2369.25 133.268 2311 128.04 2253.56 123.281C2200.6 118.823 2146.93 114.7 2093.86 110.947V110.88Z" fill="black"/>
<path d="M2123.98 127.268C2109.59 124 2096.47 116.609 2086.21 106L1963 592.09C1963 592.09 2025.02 602.656 2035.11 653.873L2492.02 692L2497 158.395C2485.16 159.315 2473.11 160.111 2460.84 160.784C2460.84 160.784 2417.12 163.14 2379.78 163.005C2338.27 162.87 2244.9 152.64 2123.98 127.268Z" fill="#F07258"/>
<path d="M2496.86 697L2031.93 658.175L2031.22 654.811C2021.88 607.474 1963.54 596.877 1962.94 596.776L1958 595.901L1973.09 536.352L2084.35 97L2090.16 102.955C2099.8 112.933 2112.15 119.869 2125.68 122.906C2241.91 147.331 2337.38 158.4 2380.29 158.534C2417.25 158.534 2460.57 156.347 2460.94 156.314C2472.9 155.674 2485.03 154.901 2496.93 153.959L2502 153.555L2496.86 697ZM2039.59 649.462L2487.65 686.907L2492.52 163.513C2482.17 164.254 2471.72 164.926 2461.37 165.498C2460.94 165.498 2417.29 167.853 2380.12 167.719C2339.8 167.719 2248.5 158.13 2123.6 131.888C2111.05 129.083 2099.36 123.315 2089.49 115.067L1969.43 588.533C1984.55 592.2 2029 606.532 2039.59 649.462Z" fill="black"/>
<path d="M2497 159.087L2124.7 128L2036 653.923L2492.03 692L2497 159.087Z" fill="#F07258"/>
<path d="M2496.82 697L2030 658.086L2120.36 123L2502 154.824L2496.82 697ZM2040.86 649.651L2487.61 686.919L2492.48 163.359L2128.13 133.115L2040.86 649.651Z" fill="black"/>
<path d="M2367.11 189.474L2360.38 188.195C2366.05 159.017 2368.53 129.309 2367.78 99.5944C2366.87 67.8503 2362.8 58.7613 2358.74 52.197C2343.16 27.0171 2312.83 20.9241 2300.52 19.4766C2274.76 16.4469 2241.93 23.3478 2226.53 45.6327C2220.44 54.4861 2219.8 62.0939 2218.12 82.3926C2217.65 88.1827 2217.11 94.7469 2216.31 102.59C2213.95 126.76 2210.66 150.93 2206.52 174.393L2199.79 173.215C2203.9 149.921 2207.19 126.087 2209.55 101.917C2210.32 94.0737 2210.86 87.5094 2211.33 81.7194C2213.08 60.7474 2213.78 52.0287 2220.88 41.7278C2237.7 17.1539 2273.35 9.44506 2301.09 12.7104C2314.38 14.2589 2347.13 20.8905 2364.25 48.5277C2369.8 57.5157 2373.43 69.1295 2374.34 99.2915C2375.18 129.525 2372.76 159.762 2367.11 189.474ZM2190.11 502.035C2173.29 478.471 2167.88 439.59 2176.12 414.242C2172.65 402.487 2170.19 390.46 2168.75 378.29C2161.86 322.241 2174.17 267.875 2174.3 267.202L2179.65 268.448C2179.65 268.986 2167.44 322.477 2174.2 377.516C2175.33 387.094 2177.11 396.586 2179.51 405.927C2180.6 403.841 2181.87 401.858 2183.31 400.003C2191.08 389.904 2202.42 387.379 2215.26 392.496C2221.5 394.66 2226.76 398.974 2230.11 404.668C2233.45 410.361 2234.66 417.06 2233.53 423.567C2231.47 438.143 2220.71 450.497 2209.01 451.641C2202.01 452.315 2188.83 449.622 2179.31 423.769C2174.87 447.164 2180.45 479.211 2194.55 498.736L2190.11 502.035ZM2181.87 414.309C2182.54 416.43 2183.21 418.517 2183.95 420.537C2190.17 438.109 2198.88 447.232 2208.47 446.289C2218.05 445.347 2226.4 434.877 2228.08 422.927C2229.04 417.638 2228.06 412.18 2225.33 407.551C2222.6 402.921 2218.3 399.429 2213.21 397.713C2202.55 393.438 2193.94 395.391 2187.65 403.47C2185.18 406.763 2183.23 410.419 2181.87 414.309ZM2201.31 572.525C2095.8 464.804 2131.49 407.004 2133.03 404.614L2137.64 407.61C2137.31 408.183 2103.17 464.4 2205.24 568.687L2201.31 572.525ZM2345.85 409.765L2341.18 406.87C2361.83 373.543 2380.43 359.338 2394.99 354.019C2391.63 308.271 2407.9 238.218 2408.81 234.414L2414.16 235.66C2413.92 236.603 2397.34 307.497 2400.27 352.403C2407.37 350.551 2414.87 350.856 2421.79 353.278C2433.67 357.655 2441.4 368.831 2439.79 379.199C2438.48 387.648 2431.25 393.001 2420.38 393.505C2417.38 393.712 2414.38 393.183 2411.63 391.962C2408.88 390.742 2406.47 388.868 2404.61 386.504C2399.73 380.646 2396.91 371.221 2395.56 359.876C2382.38 365.161 2365.16 378.559 2345.85 409.765ZM2400.71 358.159C2401.88 368.898 2404.37 377.684 2408.78 383.003C2410.1 384.715 2411.82 386.072 2413.79 386.948C2415.77 387.824 2417.93 388.192 2420.08 388.019C2428.25 387.615 2433.53 384.114 2434.34 378.357C2435.38 371.625 2430.24 362.266 2419.84 358.429C2413.65 356.344 2406.96 356.25 2400.71 358.159ZM2408.61 604C2277.45 571.179 2243.82 508.734 2242.47 506.074L2247.35 503.55C2247.68 504.189 2281.42 566.499 2409.92 598.647L2408.61 604Z" fill="black"/>
</svg>
