<svg width="54" height="54" viewBox="0 0 54 54" fill="none" xmlns="http://www.w3.org/2000/svg">
<path d="M50.0023 3.5402L50.0031 3.54024C50.0333 3.54169 50.0657 3.54225 50.1314 3.54338L50.1318 3.54339C50.1884 3.54436 50.2742 3.54583 50.3661 3.55114L50.0023 3.5402ZM50.0023 3.5402C40.291 3.07983 31.6085 6.59959 25.6501 12.8534C25.1589 12.7686 24.6586 12.7246 24.1521 12.7246C21.8322 12.7246 19.6372 13.6122 17.9861 15.2282L17.9861 15.2283M50.0023 3.5402L17.9861 15.2283M17.9861 15.2283L13.7448 19.3798C13.7447 19.3799 13.7446 19.38 13.7444 19.3801C12.152 20.9381 11.8745 23.4169 13.0934 25.2842L13.095 25.2865M17.9861 15.2283L13.095 25.2865M13.095 25.2865C13.4741 25.8651 14.0085 26.3187 14.6184 26.6245L14.6231 26.6269M13.095 25.2865L14.6231 26.6269M14.6231 26.6269L15.9724 27.2976C15.5295 27.2003 15.0701 27.1492 14.6005 27.1492C13.8007 27.1492 13.0132 27.3 12.2797 27.5876C9.8488 25.9526 6.50457 26.1968 4.34855 28.3147C1.88491 30.7184 1.88287 34.6381 4.34811 37.043C4.34856 37.0435 4.34902 37.0439 4.34947 37.0444L18.2995 50.7045L18.2996 50.7045M14.6231 26.6269L18.2996 50.7045M18.2996 50.7045C20.7442 53.0981 24.6857 53.0989 27.1311 50.7045C29.2712 48.6097 29.5863 45.3183 27.8958 42.8785C28.3837 41.6504 28.4545 40.3002 28.1173 39.0399M18.2996 50.7045L28.1173 39.0399M28.1173 39.0399L28.9536 40.6516L28.9566 40.6574C29.809 42.2827 31.5308 42.8866 32.8965 42.8866C34.1619 42.8866 35.3655 42.4025 36.27 41.5172L36.27 41.5172L40.5116 37.3654C40.5116 37.3654 40.5117 37.3653 40.5117 37.3653C42.5467 35.3737 43.4151 32.5444 42.9371 29.8269C43.1767 29.6099 43.4148 29.387 43.6495 29.1573L43.6502 29.1566C49.8607 23.0702 52.8638 14.825 52.4648 6.12187C52.4646 6.11564 52.4638 6.09074 52.4627 6.05467C52.4593 5.94032 52.4525 5.7137 52.4465 5.61375L28.1173 39.0399ZM26.4891 36.2558L26.489 36.2557C26.4813 36.2482 26.4736 36.2407 26.4659 36.2333C26.4795 36.1655 26.4918 36.0975 26.503 36.0295L26.609 36.1329L26.9078 36.7089C26.7772 36.5525 26.6376 36.4012 26.4891 36.2558ZM18.7052 28.656L19.2307 28.9173L19.2668 28.9526C19.1992 28.9637 19.1317 28.9759 19.0644 28.9893C18.9492 28.8735 18.8293 28.7624 18.7052 28.656Z" fill="black" stroke="black" stroke-width="3"/>
<path d="M48.9786 2.03964L48.9791 2.03967C49.0174 2.0415 49.057 2.04218 49.1167 2.0432L49.1228 2.04331C49.1798 2.04429 49.2565 2.04564 49.3373 2.05031L48.9786 2.03964ZM48.9786 2.03964C39.3028 1.58095 30.6839 5.12905 24.826 11.3954M48.9786 2.03964L24.826 11.3954M18.0353 14.3002C19.403 12.9616 21.2201 12.2246 23.1521 12.2246C23.8375 12.2246 24.5115 12.3217 25.1644 12.5068L18.0353 14.3002ZM18.0353 14.3002L13.7937 18.4521L18.0353 14.3002ZM24.826 11.3954C24.2789 11.2831 23.7194 11.2246 23.1521 11.2246C20.9615 11.2246 18.8925 12.062 17.3359 13.5856L17.3358 13.5856L13.0944 17.7372C13.0943 17.7373 13.0943 17.7374 13.0942 17.7375C11.6715 19.1293 11.4241 21.3442 12.5121 23.0109L12.5131 23.0124C12.8398 23.5109 13.3043 23.9077 13.8425 24.1776L13.8456 24.1791L18.524 26.5047L19.4054 27.3675C18.8998 27.3604 18.3912 27.4162 17.8967 27.5388C16.8406 26.37 15.2946 25.6492 13.6005 25.6492C12.7734 25.6492 11.9609 25.8242 11.2173 26.1556C8.96539 24.4849 5.74718 24.6589 3.69854 26.6718C1.43487 28.8795 1.43302 32.4768 3.69778 34.6856C3.69803 34.6859 3.69827 34.6861 3.69851 34.6864L17.6493 48.3472L17.6494 48.3473C19.8996 50.5505 23.5302 50.5512 25.7811 48.3474C27.8121 46.3596 28.054 43.2035 26.3247 40.9438C27.2781 38.8488 26.8642 36.3018 25.1393 34.6131L25.1392 34.6131C25.0662 34.5416 24.9912 34.4722 24.9143 34.4049C25.0384 33.9171 25.0925 33.4177 25.0805 32.9186L26.0157 33.8312L28.3974 38.4213L28.3994 38.4252C29.1394 39.8362 30.6529 40.3866 31.8965 40.3866C33.033 40.3866 34.1105 39.9525 34.9203 39.1599L34.9203 39.1598L39.1619 35.008C41.1447 33.0677 41.9507 30.2826 41.3924 27.6439C41.6989 27.3715 42.0025 27.0909 42.2997 26.8L42.3002 26.7995C48.4021 20.8195 51.3583 12.7156 50.9654 4.1445C50.9643 4.12038 50.9628 4.07159 50.9611 4.01208C50.9577 3.89539 50.953 3.73748 50.9474 3.64358C50.8946 2.76808 50.1871 2.09943 49.3376 2.05033L24.826 11.3954ZM29.285 37.9607C29.8002 38.9431 30.8973 39.3866 31.8965 39.3866C32.7751 39.3866 33.6005 39.0524 34.2208 38.4452L29.285 37.9607Z" fill="#A1CCE5" stroke="#A1CCE5" stroke-width="2"/>
<g clip-path="url(#clip0_955_1133)">
<path d="M50.2004 4.44444C50.179 4.08736 49.8883 3.80267 49.5238 3.78165C49.4065 3.77484 49.2892 3.77704 49.1715 3.77139C39.4499 3.31013 30.86 6.97022 25.149 13.3497C24.489 13.1625 23.8077 13.0643 23.115 13.0643C21.1623 13.0643 19.3256 13.8098 17.9432 15.164L13.6559 19.3641C12.561 20.4361 12.372 22.1429 13.2069 23.423C13.4311 23.7652 13.7593 24.0516 14.1583 24.2519L19.0301 26.6756L20.8113 28.4208C20.5037 28.7502 20.2113 29.0897 19.9349 29.4409C19.0939 29.3274 18.2258 29.4196 17.4439 29.7321C16.5881 28.4737 15.114 27.6565 13.4606 27.6565C12.5581 27.6565 11.6771 27.9054 10.9185 28.3669C9.03998 26.5583 6.01808 26.5729 4.15912 28.4024C2.27607 30.2392 2.27457 33.2252 4.15772 35.0628L18.2602 48.884C20.1419 50.7279 23.1832 50.7285 25.0653 48.884C26.9029 47.0839 26.9795 44.1451 25.1016 42.254C26.2549 40.43 26.0062 37.9935 24.4165 36.4359C24.2026 36.2264 23.9662 36.0368 23.7107 35.8693C24.0341 35.0961 24.1257 34.2591 24.0024 33.4298C24.3533 33.1687 24.7017 32.8816 25.0484 32.57L26.8318 34.3116L29.3139 39.0996C29.8347 40.0933 30.9435 40.542 31.9535 40.542C32.8416 40.542 33.6758 40.2039 34.3028 39.5897L38.5901 35.3895C40.4852 33.5334 41.1648 30.8047 40.4194 28.3092C40.8785 27.9148 41.3289 27.51 41.7617 27.0861C47.7098 21.2518 50.6029 13.3397 50.2178 4.93602C50.2104 4.77179 50.2104 4.60919 50.2004 4.44444ZM18.9086 25.0319L14.8132 22.9942C14.6453 22.9101 14.506 22.7915 14.4208 22.6616C13.948 21.9367 14.0546 20.9696 14.6749 20.3623L18.9622 16.1622C20.0726 15.0747 21.5472 14.476 23.115 14.476C23.4554 14.476 23.7924 14.5061 24.1244 14.5624C21.7308 17.566 19.9388 21.0967 18.9086 25.0319ZM23.5823 41.9058C23.4514 42.0561 23.3912 42.2533 23.4155 42.4494C23.4401 42.6455 23.5475 42.8223 23.7111 42.9374C23.836 43.025 23.9479 43.1246 24.0464 43.2156C25.3655 44.5078 25.3657 46.5934 24.0464 47.8858C22.7276 49.1777 20.5985 49.1786 19.2795 47.8858L5.17598 34.0636C3.8594 32.7796 3.85593 30.69 5.17809 29.4006C6.50804 28.092 8.82937 28.0126 10.2511 29.7521C10.3725 29.901 10.5508 29.9958 10.7447 30.0141C10.9393 30.0313 11.1317 29.9737 11.2802 29.8503C11.8879 29.3461 12.6623 29.0683 13.4606 29.0683C14.7002 29.0683 15.8939 29.722 16.5062 30.9671C16.5942 31.1456 16.755 31.2797 16.9489 31.3366C17.1434 31.3938 17.3524 31.3679 17.5263 31.2656C17.9692 31.0053 18.4668 30.8482 18.9798 30.8054C17.6954 32.9872 17.7563 35.2227 19.9734 35.2227C20.9849 35.2227 22.0143 34.6671 22.614 34.3617C22.5127 35.5981 21.8944 35.7831 22.0722 36.3563C22.1309 36.5473 22.2696 36.7044 22.4532 36.7899C22.8142 36.9574 23.1319 37.1742 23.3979 37.4344C24.6312 38.6429 24.7121 40.6068 23.5823 41.9058ZM24.558 31.0929C22.9568 32.6613 19.5418 34.7944 19.5425 33.3944C20.3195 29.8025 24.9656 26.1782 26.908 26.1782C27.0688 26.1782 27.1926 26.2089 27.2458 26.2606C27.5814 26.5894 27.0719 28.6302 24.558 31.0929ZM37.5711 34.3914L33.2838 38.5915C32.4573 39.4016 30.997 39.2222 30.5978 38.4581L28.511 34.4331C32.223 33.493 35.992 31.7553 39.1984 29.2975C39.5345 31.1308 38.9437 33.0472 37.5711 34.3914ZM40.7424 26.0883C37.7459 29.0236 33.7799 31.4036 29.3422 32.7323C28.9028 32.8629 28.4581 32.9814 28.0101 33.0916C27.9081 33.1169 27.8077 33.1471 27.7054 33.1713L26.0762 31.5802C31.6789 25.5935 27.7256 22.0845 21.8209 27.4132L20.2064 25.8312C22.0046 18.527 25.8431 14.9943 26.0784 14.4498C29.4688 10.5955 33.9594 7.76834 39.1252 6.29385L47.6333 14.6283C46.342 18.963 44.0172 22.8758 40.7424 26.0883ZM48.0517 13.0415L40.7455 5.88447C43.3389 5.30064 46.0644 5.06015 48.7913 5.16273C48.896 7.75473 48.6625 10.4489 48.0517 13.0415Z" fill="#010101"/>
<path d="M31.7122 15.1472C29.8143 17.0063 29.8143 20.0311 31.7122 21.8903C33.6137 23.7537 36.6936 23.754 38.5954 21.8903C40.4933 20.0311 40.4933 17.0063 38.5954 15.1472C36.6939 13.2838 33.6147 13.2835 31.7122 15.1472ZM37.5764 20.8921C36.2374 22.2038 34.0701 22.2038 32.7311 20.8921C31.3951 19.5834 31.3951 17.454 32.7311 16.1453C34.0701 14.8337 36.2375 14.8336 37.5764 16.1453C38.9124 17.454 38.9124 19.5834 37.5764 20.8921ZM28.8611 13.6161C28.22 14.2862 27.6011 14.9983 27.0217 15.7324C26.7782 16.0409 26.8362 16.4841 27.1508 16.7227C27.4636 16.9601 27.9175 16.9059 28.1616 16.5962C28.7133 15.8972 29.3023 15.2192 29.9124 14.5819C30.1848 14.2972 30.17 13.8505 29.8797 13.5841C29.5887 13.3166 29.1324 13.3315 28.8611 13.6161ZM31.9743 12.6369C32.6636 12.0507 33.3845 11.4951 34.1167 10.9856C34.4414 10.7599 34.5178 10.3194 34.2873 10.0016C34.0572 9.68313 33.6065 9.60902 33.2828 9.83443C32.5119 10.3704 31.7537 10.9546 31.0292 11.5712C30.7287 11.827 30.6967 12.2726 30.9578 12.567C31.2176 12.8598 31.6723 12.8939 31.9743 12.6369Z" fill="#010101"/>
</g>
<defs>
<clipPath id="clip0_955_1133">
<rect width="49" height="48" fill="white" transform="translate(2 3)"/>
</clipPath>
</defs>
</svg>
