<svg width="66" height="66" viewBox="0 0 66 66" fill="none" xmlns="http://www.w3.org/2000/svg">
<rect x="3" y="4" width="59" height="59" rx="4" fill="#DF7A74"/>
<path d="M56.35 7H8.65C7.94782 7.0021 7.275 7.28197 6.77848 7.77848C6.28197 8.275 6.0021 8.94782 6 9.65V57.35C6.0021 58.0522 6.28197 58.725 6.77848 59.2215C7.275 59.718 7.94782 59.9979 8.65 60H56.35C57.0522 59.9979 57.725 59.718 58.2215 59.2215C58.718 58.725 58.9979 58.0522 59 57.35V9.65C58.9979 8.94782 58.718 8.275 58.2215 7.77848C57.725 7.28197 57.0522 7.0021 56.35 7ZM57.2333 57.35C57.2333 57.5843 57.1403 57.809 56.9746 57.9746C56.809 58.1403 56.5843 58.2333 56.35 58.2333H8.65C8.41573 58.2333 8.19105 58.1403 8.02539 57.9746C7.85973 57.809 7.76667 57.5843 7.76667 57.35V15.8333H57.2333V57.35ZM57.2333 14.0667H7.76667V9.65C7.76667 9.41573 7.85973 9.19105 8.02539 9.02539C8.19105 8.85973 8.41573 8.76667 8.65 8.76667H56.35C56.5843 8.76667 56.809 8.85973 56.9746 9.02539C57.1403 9.19105 57.2333 9.41573 57.2333 9.65V14.0667Z" fill="black"/>
<path d="M10.8077 10H9.90385C9.66413 10 9.43423 10.0948 9.26473 10.2636C9.09523 10.4324 9 10.6613 9 10.9C9 11.1387 9.09523 11.3676 9.26473 11.5364C9.43423 11.7052 9.66413 11.8 9.90385 11.8H10.8077C11.0474 11.8 11.2773 11.7052 11.4468 11.5364C11.6163 11.3676 11.7115 11.1387 11.7115 10.9C11.7115 10.6613 11.6163 10.4324 11.4468 10.2636C11.2773 10.0948 11.0474 10 10.8077 10ZM15.3269 10H14.4231C14.1834 10 13.9535 10.0948 13.784 10.2636C13.6145 10.4324 13.5192 10.6613 13.5192 10.9C13.5192 11.1387 13.6145 11.3676 13.784 11.5364C13.9535 11.7052 14.1834 11.8 14.4231 11.8H15.3269C15.5666 11.8 15.7965 11.7052 15.966 11.5364C16.1355 11.3676 16.2308 11.1387 16.2308 10.9C16.2308 10.6613 16.1355 10.4324 15.966 10.2636C15.7965 10.0948 15.5666 10 15.3269 10ZM19.8462 10H18.9423C18.7026 10 18.4727 10.0948 18.3032 10.2636C18.1337 10.4324 18.0385 10.6613 18.0385 10.9C18.0385 11.1387 18.1337 11.3676 18.3032 11.5364C18.4727 11.7052 18.7026 11.8 18.9423 11.8H19.8462C20.0859 11.8 20.3158 11.7052 20.4853 11.5364C20.6548 11.3676 20.75 11.1387 20.75 10.9C20.75 10.6613 20.6548 10.4324 20.4853 10.2636C20.3158 10.0948 20.0859 10 19.8462 10ZM55.0962 10H54.1923C53.9526 10 53.7227 10.0948 53.5532 10.2636C53.3837 10.4324 53.2885 10.6613 53.2885 10.9C53.2885 11.1387 53.3837 11.3676 53.5532 11.5364C53.7227 11.7052 53.9526 11.8 54.1923 11.8H55.0962C55.3359 11.8 55.5658 11.7052 55.7353 11.5364C55.9048 11.3676 56 11.1387 56 10.9C56 10.6613 55.9048 10.4324 55.7353 10.2636C55.5658 10.0948 55.3359 10 55.0962 10ZM50.5769 10H28.8846C28.6449 10 28.415 10.0948 28.2455 10.2636C28.076 10.4324 27.9808 10.6613 27.9808 10.9C27.9808 11.1387 28.076 11.3676 28.2455 11.5364C28.415 11.7052 28.6449 11.8 28.8846 11.8H50.5769C50.8166 11.8 51.0465 11.7052 51.216 11.5364C51.3855 11.3676 51.4808 11.1387 51.4808 10.9C51.4808 10.6613 51.3855 10.4324 51.216 10.2636C51.0465 10.0948 50.8166 10 50.5769 10ZM29.7885 55H11.7115C11.4718 55 11.2419 54.9052 11.0724 54.7364C10.9029 54.5676 10.8077 54.3387 10.8077 54.1V19.9C10.8077 19.6613 10.9029 19.4324 11.0724 19.2636C11.2419 19.0948 11.4718 19 11.7115 19H29.7885C30.0282 19 30.2581 19.0948 30.4276 19.2636C30.5971 19.4324 30.6923 19.6613 30.6923 19.9V54.1C30.6923 54.3387 30.5971 54.5676 30.4276 54.7364C30.2581 54.9052 30.0282 55 29.7885 55ZM12.6154 53.2H28.8846V20.8H12.6154V53.2ZM53.2885 35.2H35.2115C34.9718 35.2 34.7419 35.1052 34.5724 34.9364C34.4029 34.7676 34.3077 34.5387 34.3077 34.3V19.9C34.3077 19.6613 34.4029 19.4324 34.5724 19.2636C34.7419 19.0948 34.9718 19 35.2115 19H53.2885C53.5282 19 53.7581 19.0948 53.9276 19.2636C54.0971 19.4324 54.1923 19.6613 54.1923 19.9V34.3C54.1923 34.5387 54.0971 34.7676 53.9276 34.9364C53.7581 35.1052 53.5282 35.2 53.2885 35.2ZM36.1154 33.4H52.3846V20.8H36.1154V33.4ZM53.2885 55H35.2115C34.9718 55 34.7419 54.9052 34.5724 54.7364C34.4029 54.5676 34.3077 54.3387 34.3077 54.1V39.7C34.3077 39.4613 34.4029 39.2324 34.5724 39.0636C34.7419 38.8948 34.9718 38.8 35.2115 38.8H53.2885C53.5282 38.8 53.7581 38.8948 53.9276 39.0636C54.0971 39.2324 54.1923 39.4613 54.1923 39.7V54.1C54.1923 54.3387 54.0971 54.5676 53.9276 54.7364C53.7581 54.9052 53.5282 55 53.2885 55ZM36.1154 53.2H52.3846V40.6H36.1154V53.2Z" fill="black"/>
</svg>
