<svg xmlns="http://www.w3.org/2000/svg" width="96" height="96" fill="none" viewBox="0 0 96 96" id="waves">
  <path stroke="#000" stroke-linecap="round" stroke-width="5" d="M9 33L14.2031 29.2159C17.5413 26.7881 22.1497 27.1497 25.0685 30.0685L25.5 30.5C28.5376 33.5376 33.4624 33.5376 36.5 30.5V30.5C39.5376 27.4624 44.4624 27.4624 47.5 30.5V30.5C50.5376 33.5376 55.4624 33.5376 58.5 30.5V30.5C61.5376 27.4624 66.4624 27.4624 69.5 30.5L69.9315 30.9315C72.8503 33.8503 77.4587 34.2119 80.7969 31.7841L86 28M9 52L14.2031 48.2159C17.5413 45.7881 22.1497 46.1497 25.0685 49.0685L25.5 49.5C28.5376 52.5376 33.4624 52.5376 36.5 49.5V49.5C39.5376 46.4624 44.4624 46.4624 47.5 49.5V49.5C50.5376 52.5376 55.4624 52.5376 58.5 49.5V49.5C61.5376 46.4624 66.4624 46.4624 69.5 49.5L69.9315 49.9315C72.8503 52.8503 77.4587 53.2119 80.7969 50.7841L86 47M9 71L14.2031 67.2159C17.5413 64.7881 22.1497 65.1497 25.0685 68.0685L25.5 68.5C28.5376 71.5376 33.4624 71.5376 36.5 68.5V68.5C39.5376 65.4624 44.4624 65.4624 47.5 68.5V68.5C50.5376 71.5376 55.4624 71.5376 58.5 68.5V68.5C61.5376 65.4624 66.4624 65.4624 69.5 68.5L69.9315 68.9315C72.8503 71.8503 77.4587 72.2119 80.7969 69.7841L86 66"></path>
</svg>
