<svg width="32" height="32" viewBox="0 0 32 32" fill="none" xmlns="http://www.w3.org/2000/svg">
<path d="M23.4936 23.5394C24.009 23.0275 24.8351 23.0275 25.3505 23.5394L28.7567 26.2889H28.8158C29.505 26.9854 29.505 28.1147 28.8158 28.8113C28.1267 29.5078 27.0094 29.5078 26.3203 28.8113L23.4936 25.5716L23.3864 25.4506C23.1865 25.1977 23.0762 24.8823 23.0762 24.5555C23.0762 24.1742 23.2264 23.8085 23.4936 23.5394ZM14.1029 2.66699C17.1361 2.66699 20.0451 3.88491 22.1899 6.05281C24.3348 8.22071 25.5397 11.161 25.5397 14.2269C25.5397 20.6112 20.4193 25.7868 14.1029 25.7868C7.78647 25.7868 2.66602 20.6112 2.66602 14.2269C2.66602 7.84254 7.78647 2.66699 14.1029 2.66699Z" fill="white"/>
<circle cx="14" cy="14" r="9" fill="black"/>
</svg>
